<svg xmlns="http://www.w3.org/2000/svg" width="85" height="85" viewBox="0 0 85 85">
  <g id="Group_31" data-name="Group 31" transform="translate(-1012 -4552)">
    <path id="Path_1030" data-name="Path 1030" d="M5.446,24.138A8.836,8.836,0,0,1,3,17.477C3,12.068,6.8,7.22,12.319,4.823l1.38,2.13C8.545,9.741,7.537,13.359,7.136,15.64a5.533,5.533,0,0,1,2.981-.481,5.409,5.409,0,0,1-.423,10.8A5.982,5.982,0,0,1,5.446,24.138Zm15.455,0a8.836,8.836,0,0,1-2.446-6.661c0-5.409,3.8-10.257,9.319-12.654l1.38,2.13C24,9.741,22.992,13.359,22.59,15.64a5.533,5.533,0,0,1,2.981-.481,5.409,5.409,0,0,1-.423,10.8A5.982,5.982,0,0,1,20.9,24.138Z" transform="translate(1038.364 4579.358)" fill="#17416D"/>
    <g id="Ellipse_1" data-name="Ellipse 1" transform="translate(1012 4552)" fill="none" stroke="#17416D" stroke-linejoin="round" stroke-width="1" stroke-dasharray="3">
      <circle cx="42.5" cy="42.5" r="42.5" stroke="none"/>
      <circle cx="42.5" cy="42.5" r="42" fill="none"/>
    </g>
  </g>
</svg>
