<svg xmlns="http://www.w3.org/2000/svg" width="45" height="45" viewBox="0 0 45 45">
  <g id="Group_40708" data-name="Group 40708" transform="translate(-1222 -2701)">
    <g id="Round_arrow" data-name="Round arrow" transform="translate(1222 2701)">
      <g id="Ellipse_501" data-name="Ellipse 501" fill="#ddeefa" stroke="#17416d" stroke-width="2">
        <circle cx="22.5" cy="22.5" r="22.5" stroke="none"/>
        <circle cx="22.5" cy="22.5" r="21.5" fill="none"/>
      </g>
    </g>
    <path id="arrow" d="M11.2.176a.59.59,0,0,0-.838.83l4.251,4.251H.587A.584.584,0,0,0,0,5.844a.59.59,0,0,0,.587.6H14.615l-4.251,4.243a.6.6,0,0,0,0,.838.587.587,0,0,0,.838,0l5.257-5.257a.577.577,0,0,0,0-.83Z" transform="translate(1250.336 2715.166) rotate(90)"/>
  </g>
</svg>
