<svg xmlns="http://www.w3.org/2000/svg" width="118.446" height="51.066" viewBox="0 0 118.446 51.066">
  <g id="Group_1" data-name="Group 1" transform="translate(-241.832 -17.934)">
    <path id="Path_1" data-name="Path 1" d="M-13.617-14.985h2.069l6.3,14.7,6.413-14.7H3.229L-5.045,4.034h-.414Zm18.921,0H7.2V4.034H5.3ZM8.749.491l1.616-.97q1.707,3.142,3.943,3.142a3.777,3.777,0,0,0,1.8-.446,3.156,3.156,0,0,0,1.28-1.2,3.1,3.1,0,0,0,.44-1.59,3.224,3.224,0,0,0-.646-1.875,15.49,15.49,0,0,0-3.258-3.051,16.654,16.654,0,0,1-2.961-2.6A4.751,4.751,0,0,1,9.951-11a4.414,4.414,0,0,1,.595-2.263,4.241,4.241,0,0,1,1.674-1.61,4.826,4.826,0,0,1,2.347-.588,5,5,0,0,1,2.515.666,8.624,8.624,0,0,1,2.476,2.45l-1.551,1.177a7.442,7.442,0,0,0-1.829-1.875,3.152,3.152,0,0,0-1.648-.453,2.611,2.611,0,0,0-1.881.7,2.285,2.285,0,0,0-.73,1.72,2.931,2.931,0,0,0,.259,1.2,4.436,4.436,0,0,0,.944,1.267q.375.362,2.456,1.9a13.827,13.827,0,0,1,3.387,3.245,5.229,5.229,0,0,1,.918,2.857A4.849,4.849,0,0,1,18.31,2.986a5.28,5.28,0,0,1-3.82,1.526,5.6,5.6,0,0,1-3.142-.924A8.458,8.458,0,0,1,8.749.491Z" transform="translate(293.26 64.02)" fill="#ddeefa"/>
    <path id="Path_2" data-name="Path 2" d="M-5.922,3.935V-15.083h.414L7.136-.526V-15.083H9.011V3.935H8.584L-3.956-10.442V3.935Z" transform="translate(351.267 64.119)" fill="#ddeefa"/>
    <path id="Path_6" data-name="Path 6" d="M-6.812-21.548h5.227V-12.2l7.369-9.346h6.224L2.516-9.432,12.933,5.621H6.8L-1.585-6.44V5.621H-6.812Z" transform="translate(248.644 39.737)" fill="#ddeefa"/>
    <path id="Path_5" data-name="Path 5" d="M7.16-15.831h5.024v20.1H7.16V2.141A9.9,9.9,0,0,1,4.2,4.163a8.3,8.3,0,0,1-3.223.619,8.958,8.958,0,0,1-6.741-3.02A10.528,10.528,0,0,1-8.613-5.746a10.788,10.788,0,0,1,2.752-7.628A8.772,8.772,0,0,1,.825-16.348a8.507,8.507,0,0,1,3.4.683,9.272,9.272,0,0,1,2.937,2.05Zm-5.3,4.137a5.12,5.12,0,0,0-3.9,1.653A5.946,5.946,0,0,0-3.59-5.8,6.008,6.008,0,0,0-2.01-1.516,5.125,5.125,0,0,0,1.878.164,5.221,5.221,0,0,0,5.83-1.489,6.03,6.03,0,0,0,7.4-5.82a5.858,5.858,0,0,0-1.57-4.248A5.286,5.286,0,0,0,1.859-11.693Z" transform="translate(268.348 41.094)" fill="#ddeefa"/>
    <path id="Path_4" data-name="Path 4" d="M-12.107-15.831h5.061v2.309a8.6,8.6,0,0,1,2.872-2.124,8.385,8.385,0,0,1,3.445-.7,6.4,6.4,0,0,1,3.4.923,6.673,6.673,0,0,1,2.438,2.7,8.139,8.139,0,0,1,2.946-2.7,8.029,8.029,0,0,1,3.814-.923,7.058,7.058,0,0,1,3.768,1,5.761,5.761,0,0,1,2.336,2.6,13.924,13.924,0,0,1,.711,5.227V4.265H13.6v-10.2q0-3.417-.85-4.627a2.909,2.909,0,0,0-2.549-1.21,3.867,3.867,0,0,0-2.318.739A4.366,4.366,0,0,0,6.363-8.987a12.684,12.684,0,0,0-.5,4.183V4.265H.785V-5.469a13.731,13.731,0,0,0-.4-3.906A3.534,3.534,0,0,0-.8-11.176a3.127,3.127,0,0,0-1.921-.591,3.779,3.779,0,0,0-2.281.748,4.461,4.461,0,0,0-1.533,2.1,12.986,12.986,0,0,0-.508,4.248V4.265h-5.061Z" transform="translate(295.175 41.094)" fill="#ddeefa"/>
    <path id="Path_3" data-name="Path 3" d="M.636-21.75a2.993,2.993,0,0,1,2.2.928,3.079,3.079,0,0,1,.919,2.25,3.043,3.043,0,0,1-.911,2.223,2.958,2.958,0,0,1-2.178.919,3,3,0,0,1-2.223-.937,3.13,3.13,0,0,1-.919-2.276,2.993,2.993,0,0,1,.911-2.2A2.993,2.993,0,0,1,.636-21.75Zm-2.446,8H3.082V5.674H-1.81Z" transform="translate(317.863 39.684)" fill="#ddeefa"/>
    <rect id="Rectangle_2807" data-name="Rectangle 2807" width="5" height="19" transform="translate(316 49)" fill="#ddeefa"/>
    <g id="Ellipse_628" data-name="Ellipse 628" transform="translate(323 49)" fill="none" stroke="#ddeefa" stroke-width="4.1">
      <circle cx="10" cy="10" r="10" stroke="none"/>
      <circle cx="10" cy="10" r="7.95" fill="none"/>
    </g>
  </g>
</svg>
