<svg xmlns="http://www.w3.org/2000/svg" xmlns:xlink="http://www.w3.org/1999/xlink" width="436.238" height="318.834" viewBox="0 0 436.238 318.834">
  <defs>
    <clipPath id="clip-path">
      <path id="Teaser_2_active" data-name="Teaser 2 active" d="M0,0H436.238V318.834H0Z" transform="translate(547 1283)" fill="none"/>
    </clipPath>
  </defs>
  <g id="Mask_Group_15" data-name="Mask Group 15" transform="translate(-547 -1283)" clip-path="url(#clip-path)">
    <path id="Union_8" data-name="Union 8" d="M0,657.916l1012.79,1023.7Zm4.093-4.137,1012.79,1023.7Zm4.093-4.136,1012.79,1023.7Zm4.1-4.138,1012.79,1023.7Zm4.093-4.137,1012.79,1023.7Zm4.093-4.138,1012.79,1023.7Zm4.093-4.138,1012.79,1023.7Zm4.093-4.138,1012.79,1023.7Zm4.093-4.138,1012.79,1023.7Zm4.093-4.137,1012.79,1023.7Zm4.1-4.139,1012.79,1023.7Zm4.093-4.137,1012.79,1023.7Zm4.093-4.137,1012.79,1023.7Zm4.1-4.138,1012.79,1023.7Zm4.093-4.138,1012.79,1023.7Zm4.093-4.138,1012.79,1023.7Zm4.093-4.138,1012.79,1023.7Zm4.093-4.137,1012.79,1023.7Zm4.093-4.139,1012.79,1023.7ZM77.78,579.3,1090.57,1603Zm4.093-4.138,1012.79,1023.7Zm4.1-4.139,1012.79,1023.7Zm4.093-4.137,1012.79,1023.7Zm4.1-4.138,1012.79,1023.7Zm4.093-4.137,1012.79,1023.7Zm4.093-4.137,1012.79,1023.7Zm4.093-4.138,1012.79,1023.7Zm4.093-4.138,1012.79,1023.7Zm4.092-4.138,1012.79,1023.7Zm4.093-4.137,1012.79,1023.7Zm4.093-4.137,1012.79,1023.7Zm4.1-4.139,1012.789,1023.7ZM131,525.506l1012.79,1023.7Zm4.093-4.137,1012.79,1023.7Zm4.1-4.138,1012.79,1023.7Zm4.092-4.137,1012.79,1023.7Zm4.093-4.138,1012.79,1023.7Zm4.093-4.137,1012.79,1023.7Zm4.093-4.137,1012.79,1023.7Zm4.093-4.139,1012.79,1023.7Zm4.093-4.137,1012.79,1023.7Zm4.1-4.138,1012.79,1023.7Zm4.093-4.138,1012.79,1023.7Zm4.093-4.137,1012.79,1023.7Zm4.1-4.138,1012.79,1023.7Zm4.093-4.138,1012.79,1023.7Zm4.093-4.137L1201.1,1491.28Zm4.093-4.139,1012.79,1023.7ZM196.5,459.3,1209.288,1483Zm4.093-4.139,1012.79,1023.7Zm4.093-4.138,1012.79,1023.7Zm4.093-4.137,1012.79,1023.7Zm4.1-4.138,1012.79,1023.7Zm4.093-4.137,1012.79,1023.7Zm4.1-4.139,1012.79,1023.7Zm4.093-4.137,1012.79,1023.7Zm4.093-4.137,1012.79,1023.7Zm4.093-4.139,1012.79,1023.7Zm4.093-4.137,1012.79,1023.7Zm4.093-4.138,1012.79,1023.7Zm4.093-4.137,1012.79,1023.7Zm4.093-4.137,1012.79,1023.7Zm4.1-4.138,1012.79,1023.7Zm4.093-4.137,1012.79,1023.7ZM262,393.1l1012.79,1023.7Zm4.1-4.14,1012.79,1023.7Zm4.093-4.136,1012.79,1023.7Zm4.093-4.14,1012.79,1023.7Zm4.093-4.136,1012.79,1023.7Zm4.093-4.137,1012.79,1023.7Zm4.093-4.139,1012.79,1023.7Zm4.093-4.137,1012.79,1023.7Zm4.1-4.139,1012.79,1023.7Zm4.093-4.137,1012.79,1023.7Zm4.093-4.137,1012.79,1023.7Zm4.1-4.139,1012.79,1023.7Zm4.093-4.137,1012.79,1023.7Zm4.093-4.137,1012.79,1023.7Zm4.093-4.138,1012.79,1023.7Zm4.093-4.137,1012.79,1023.7Zm4.093-4.139,1012.79,1023.7Zm4.093-4.137,1012.79,1023.7Zm4.093-4.137,1012.79,1023.7Zm4.1-4.138,1012.79,1023.7Zm4.093-4.138,1012.79,1023.7Zm4.1-4.139,1012.79,1023.7Zm4.093-4.137,1012.79,1023.7Zm4.093-4.137,1012.79,1023.7Zm4.093-4.138,1012.79,1023.7Zm4.093-4.137,1012.79,1023.7Zm4.093-4.139,1012.79,1023.7Zm4.092-4.137,1012.791,1023.7Zm4.093-4.137,1012.79,1023.7Zm4.1-4.139,1012.79,1023.7Zm4.092-4.137L1397.6,1292.663Zm4.093-4.137,1012.79,1023.7Zm4.1-4.139,1012.79,1023.7Zm4.093-4.137,1012.79,1023.7Zm4.092-4.139,1012.791,1023.7Zm4.093-4.137,1012.79,1023.7Zm4.093-4.137,1012.79,1023.7Zm4.093-4.138,1012.79,1023.7Zm4.093-4.138,1012.79,1023.7Zm4.1-4.138,1012.79,1023.7Zm4.093-4.137,1012.79,1023.7Zm4.093-4.137,1012.79,1023.7Zm4.1-4.138,1012.79,1023.7Zm4.093-4.137,1012.79,1023.7Zm4.093-4.137,1012.79,1023.7Zm4.093-4.139,1012.79,1023.7Zm4.093-4.137,1012.79,1023.7Zm4.093-4.139,1012.79,1023.7Zm4.093-4.137,1012.79,1023.7Zm4.093-4.137,1012.79,1023.7Zm4.1-4.139,1012.79,1023.7Zm4.093-4.137,1012.79,1023.7Zm4.1-4.139,1012.79,1023.7Zm4.093-4.137,1012.79,1023.7Zm4.093-4.137,1012.79,1023.7Zm4.093-4.138,1012.79,1023.7Zm4.093-4.137,1012.79,1023.7Zm4.093-4.137,1012.79,1023.7Zm4.093-4.139,1012.79,1023.7Zm4.093-4.137,1012.79,1023.7Zm4.1-4.139,1012.79,1023.7Zm4.093-4.137,1012.79,1023.7Zm4.093-4.137,1012.79,1023.7Zm4.1-4.139,1012.79,1023.7ZM524,128.274l1012.79,1023.7Zm4.093-4.14,1012.789,1023.7ZM532.185,120l1012.79,1023.7Zm4.093-4.137,1012.79,1023.7Zm4.093-4.139,1012.79,1023.7Zm4.093-4.137,1012.79,1023.7Zm4.1-4.139,1012.79,1023.7Zm4.093-4.137,1012.79,1023.7Zm4.093-4.137,1012.79,1023.7Zm4.1-4.139,1012.79,1023.7Zm4.093-4.137,1012.79,1023.7Zm4.093-4.137,1012.79,1023.7Zm4.093-4.139,1012.79,1023.7Zm4.093-4.137,1012.79,1023.7Zm4.093-4.139,1012.79,1023.7Zm4.093-4.137,1012.79,1023.7Zm4.093-4.137,1012.79,1023.7Zm4.1-4.139,1012.79,1023.7Zm4.093-4.137,1012.79,1023.7Zm4.1-4.139,1012.79,1023.7Zm4.093-4.137,1012.79,1023.7Zm4.093-4.137,1012.79,1023.7Zm4.093-4.139,1012.79,1023.7Zm4.093-4.137,1012.79,1023.7Zm4.093-4.137,1012.79,1023.7Zm4.092-4.139L1639.13,1048.53Zm4.093-4.137,1012.79,1023.7Zm4.1-4.139,1012.79,1023.7Zm4.093-4.137,1012.79,1023.7Zm4.092-4.137,1012.791,1023.7Zm4.1-4.139L1659.6,1027.84ZM650.9,0l1012.79,1023.7Z" transform="translate(-221.091 556.239)" fill="none" stroke="#3499e3" stroke-width="1"/>
  </g>
</svg>
