<svg xmlns="http://www.w3.org/2000/svg" width="1020" height="324" viewBox="0 0 1020 324">
  <g id="Group_40587" data-name="Group 40587" transform="translate(-172 -6843.565)">
    <circle id="Ellipse_616" data-name="Ellipse 616" cx="4" cy="4" r="4" transform="translate(172 6843.565)" fill="#ddeefa"/>
    <circle id="Ellipse_616-2" data-name="Ellipse 616" cx="4" cy="4" r="4" transform="translate(214 6843.565)" fill="#ddeefa"/>
    <circle id="Ellipse_616-3" data-name="Ellipse 616" cx="4" cy="4" r="4" transform="translate(256 6843.565)" fill="#ddeefa"/>
    <ellipse id="Ellipse_616-4" data-name="Ellipse 616" cx="3.5" cy="4" rx="3.5" ry="4" transform="translate(299 6843.565)" fill="#ddeefa"/>
    <ellipse id="Ellipse_616-5" data-name="Ellipse 616" cx="3.5" cy="4" rx="3.5" ry="4" transform="translate(341 6843.565)" fill="#ddeefa"/>
    <circle id="Ellipse_616-6" data-name="Ellipse 616" cx="4" cy="4" r="4" transform="translate(383 6843.565)" fill="#ddeefa"/>
    <circle id="Ellipse_616-7" data-name="Ellipse 616" cx="4" cy="4" r="4" transform="translate(425 6843.565)" fill="#ddeefa"/>
    <circle id="Ellipse_616-8" data-name="Ellipse 616" cx="4" cy="4" r="4" transform="translate(467 6843.565)" fill="#ddeefa"/>
    <circle id="Ellipse_616-9" data-name="Ellipse 616" cx="4" cy="4" r="4" transform="translate(509 6843.565)" fill="#ddeefa"/>
    <ellipse id="Ellipse_616-10" data-name="Ellipse 616" cx="3.5" cy="4" rx="3.5" ry="4" transform="translate(552 6843.565)" fill="#ddeefa"/>
    <circle id="Ellipse_616-11" data-name="Ellipse 616" cx="4" cy="4" r="4" transform="translate(594 6843.565)" fill="#ddeefa"/>
    <circle id="Ellipse_616-12" data-name="Ellipse 616" cx="4" cy="4" r="4" transform="translate(636 6843.565)" fill="#ddeefa"/>
    <circle id="Ellipse_616-13" data-name="Ellipse 616" cx="4" cy="4" r="4" transform="translate(678 6843.565)" fill="#ddeefa"/>
    <circle id="Ellipse_616-14" data-name="Ellipse 616" cx="4" cy="4" r="4" transform="translate(720 6843.565)" fill="#ddeefa"/>
    <circle id="Ellipse_616-15" data-name="Ellipse 616" cx="4" cy="4" r="4" transform="translate(762 6843.565)" fill="#ddeefa"/>
    <ellipse id="Ellipse_616-16" data-name="Ellipse 616" cx="3.5" cy="4" rx="3.5" ry="4" transform="translate(805 6843.565)" fill="#ddeefa"/>
    <circle id="Ellipse_616-17" data-name="Ellipse 616" cx="4" cy="4" r="4" transform="translate(847 6843.565)" fill="#ddeefa"/>
    <circle id="Ellipse_616-18" data-name="Ellipse 616" cx="4" cy="4" r="4" transform="translate(889 6843.565)" fill="#ddeefa"/>
    <circle id="Ellipse_616-19" data-name="Ellipse 616" cx="4" cy="4" r="4" transform="translate(931 6843.565)" fill="#ddeefa"/>
    <circle id="Ellipse_616-20" data-name="Ellipse 616" cx="4" cy="4" r="4" transform="translate(973 6843.565)" fill="#ddeefa"/>
    <ellipse id="Ellipse_616-21" data-name="Ellipse 616" cx="3.5" cy="4" rx="3.5" ry="4" transform="translate(1016 6843.565)" fill="#ddeefa"/>
    <ellipse id="Ellipse_616-22" data-name="Ellipse 616" cx="3.5" cy="4" rx="3.5" ry="4" transform="translate(1058 6843.565)" fill="#ddeefa"/>
    <circle id="Ellipse_616-23" data-name="Ellipse 616" cx="4" cy="4" r="4" transform="translate(1100 6843.565)" fill="#ddeefa"/>
    <circle id="Ellipse_616-24" data-name="Ellipse 616" cx="4" cy="4" r="4" transform="translate(1142 6843.565)" fill="#ddeefa"/>
    <circle id="Ellipse_616-25" data-name="Ellipse 616" cx="4" cy="4" r="4" transform="translate(1184 6843.565)" fill="#ddeefa"/>
    <circle id="Ellipse_616-26" data-name="Ellipse 616" cx="4" cy="4" r="4" transform="translate(172 6896.565)" fill="#ddeefa"/>
    <circle id="Ellipse_616-27" data-name="Ellipse 616" cx="4" cy="4" r="4" transform="translate(214 6896.565)" fill="#ddeefa"/>
    <circle id="Ellipse_616-28" data-name="Ellipse 616" cx="4" cy="4" r="4" transform="translate(256 6896.565)" fill="#ddeefa"/>
    <ellipse id="Ellipse_616-29" data-name="Ellipse 616" cx="3.5" cy="4" rx="3.5" ry="4" transform="translate(299 6896.565)" fill="#ddeefa"/>
    <ellipse id="Ellipse_616-30" data-name="Ellipse 616" cx="3.5" cy="4" rx="3.5" ry="4" transform="translate(341 6896.565)" fill="#ddeefa"/>
    <circle id="Ellipse_616-31" data-name="Ellipse 616" cx="4" cy="4" r="4" transform="translate(383 6896.565)" fill="#ddeefa"/>
    <circle id="Ellipse_616-32" data-name="Ellipse 616" cx="4" cy="4" r="4" transform="translate(425 6896.565)" fill="#ddeefa"/>
    <circle id="Ellipse_616-33" data-name="Ellipse 616" cx="4" cy="4" r="4" transform="translate(467 6896.565)" fill="#ddeefa"/>
    <circle id="Ellipse_616-34" data-name="Ellipse 616" cx="4" cy="4" r="4" transform="translate(509 6896.565)" fill="#ddeefa"/>
    <ellipse id="Ellipse_616-35" data-name="Ellipse 616" cx="3.5" cy="4" rx="3.5" ry="4" transform="translate(552 6896.565)" fill="#ddeefa"/>
    <circle id="Ellipse_616-36" data-name="Ellipse 616" cx="4" cy="4" r="4" transform="translate(594 6896.565)" fill="#ddeefa"/>
    <circle id="Ellipse_616-37" data-name="Ellipse 616" cx="4" cy="4" r="4" transform="translate(636 6896.565)" fill="#ddeefa"/>
    <circle id="Ellipse_616-38" data-name="Ellipse 616" cx="4" cy="4" r="4" transform="translate(678 6896.565)" fill="#ddeefa"/>
    <circle id="Ellipse_616-39" data-name="Ellipse 616" cx="4" cy="4" r="4" transform="translate(720 6896.565)" fill="#ddeefa"/>
    <circle id="Ellipse_616-40" data-name="Ellipse 616" cx="4" cy="4" r="4" transform="translate(762 6896.565)" fill="#ddeefa"/>
    <ellipse id="Ellipse_616-41" data-name="Ellipse 616" cx="3.5" cy="4" rx="3.5" ry="4" transform="translate(805 6896.565)" fill="#ddeefa"/>
    <circle id="Ellipse_616-42" data-name="Ellipse 616" cx="4" cy="4" r="4" transform="translate(847 6896.565)" fill="#ddeefa"/>
    <circle id="Ellipse_616-43" data-name="Ellipse 616" cx="4" cy="4" r="4" transform="translate(889 6896.565)" fill="#ddeefa"/>
    <circle id="Ellipse_616-44" data-name="Ellipse 616" cx="4" cy="4" r="4" transform="translate(931 6896.565)" fill="#ddeefa"/>
    <circle id="Ellipse_616-45" data-name="Ellipse 616" cx="4" cy="4" r="4" transform="translate(973 6896.565)" fill="#ddeefa"/>
    <ellipse id="Ellipse_616-46" data-name="Ellipse 616" cx="3.5" cy="4" rx="3.5" ry="4" transform="translate(1016 6896.565)" fill="#ddeefa"/>
    <ellipse id="Ellipse_616-47" data-name="Ellipse 616" cx="3.5" cy="4" rx="3.5" ry="4" transform="translate(1058 6896.565)" fill="#ddeefa"/>
    <circle id="Ellipse_616-48" data-name="Ellipse 616" cx="4" cy="4" r="4" transform="translate(1100 6896.565)" fill="#ddeefa"/>
    <circle id="Ellipse_616-49" data-name="Ellipse 616" cx="4" cy="4" r="4" transform="translate(1142 6896.565)" fill="#ddeefa"/>
    <circle id="Ellipse_616-50" data-name="Ellipse 616" cx="4" cy="4" r="4" transform="translate(1184 6896.565)" fill="#ddeefa"/>
    <ellipse id="Ellipse_616-51" data-name="Ellipse 616" cx="4" cy="3.5" rx="4" ry="3.5" transform="translate(172 6949.565)" fill="#ddeefa"/>
    <ellipse id="Ellipse_616-52" data-name="Ellipse 616" cx="4" cy="3.5" rx="4" ry="3.5" transform="translate(214 6949.565)" fill="#ddeefa"/>
    <ellipse id="Ellipse_616-53" data-name="Ellipse 616" cx="4" cy="3.5" rx="4" ry="3.5" transform="translate(256 6949.565)" fill="#ddeefa"/>
    <circle id="Ellipse_616-54" data-name="Ellipse 616" cx="3.5" cy="3.5" r="3.5" transform="translate(299 6949.565)" fill="#ddeefa"/>
    <circle id="Ellipse_616-55" data-name="Ellipse 616" cx="3.5" cy="3.5" r="3.5" transform="translate(341 6949.565)" fill="#ddeefa"/>
    <ellipse id="Ellipse_616-56" data-name="Ellipse 616" cx="4" cy="3.5" rx="4" ry="3.5" transform="translate(383 6949.565)" fill="#ddeefa"/>
    <ellipse id="Ellipse_616-57" data-name="Ellipse 616" cx="4" cy="3.5" rx="4" ry="3.5" transform="translate(425 6949.565)" fill="#ddeefa"/>
    <ellipse id="Ellipse_616-58" data-name="Ellipse 616" cx="4" cy="3.5" rx="4" ry="3.5" transform="translate(467 6949.565)" fill="#ddeefa"/>
    <ellipse id="Ellipse_616-59" data-name="Ellipse 616" cx="4" cy="3.5" rx="4" ry="3.5" transform="translate(509 6949.565)" fill="#ddeefa"/>
    <circle id="Ellipse_616-60" data-name="Ellipse 616" cx="3.5" cy="3.5" r="3.5" transform="translate(552 6949.565)" fill="#ddeefa"/>
    <ellipse id="Ellipse_616-61" data-name="Ellipse 616" cx="4" cy="3.5" rx="4" ry="3.5" transform="translate(594 6949.565)" fill="#ddeefa"/>
    <ellipse id="Ellipse_616-62" data-name="Ellipse 616" cx="4" cy="3.5" rx="4" ry="3.5" transform="translate(636 6949.565)" fill="#ddeefa"/>
    <ellipse id="Ellipse_616-63" data-name="Ellipse 616" cx="4" cy="3.5" rx="4" ry="3.5" transform="translate(678 6949.565)" fill="#ddeefa"/>
    <ellipse id="Ellipse_616-64" data-name="Ellipse 616" cx="4" cy="3.5" rx="4" ry="3.5" transform="translate(720 6949.565)" fill="#ddeefa"/>
    <ellipse id="Ellipse_616-65" data-name="Ellipse 616" cx="4" cy="3.5" rx="4" ry="3.5" transform="translate(762 6949.565)" fill="#ddeefa"/>
    <circle id="Ellipse_616-66" data-name="Ellipse 616" cx="3.5" cy="3.5" r="3.5" transform="translate(805 6949.565)" fill="#ddeefa"/>
    <ellipse id="Ellipse_616-67" data-name="Ellipse 616" cx="4" cy="3.5" rx="4" ry="3.5" transform="translate(847 6949.565)" fill="#ddeefa"/>
    <ellipse id="Ellipse_616-68" data-name="Ellipse 616" cx="4" cy="3.5" rx="4" ry="3.5" transform="translate(889 6949.565)" fill="#ddeefa"/>
    <ellipse id="Ellipse_616-69" data-name="Ellipse 616" cx="4" cy="3.5" rx="4" ry="3.5" transform="translate(931 6949.565)" fill="#ddeefa"/>
    <ellipse id="Ellipse_616-70" data-name="Ellipse 616" cx="4" cy="3.5" rx="4" ry="3.5" transform="translate(973 6949.565)" fill="#ddeefa"/>
    <circle id="Ellipse_616-71" data-name="Ellipse 616" cx="3.5" cy="3.5" r="3.5" transform="translate(1016 6949.565)" fill="#ddeefa"/>
    <circle id="Ellipse_616-72" data-name="Ellipse 616" cx="3.5" cy="3.5" r="3.5" transform="translate(1058 6949.565)" fill="#ddeefa"/>
    <ellipse id="Ellipse_616-73" data-name="Ellipse 616" cx="4" cy="3.5" rx="4" ry="3.5" transform="translate(1100 6949.565)" fill="#ddeefa"/>
    <ellipse id="Ellipse_616-74" data-name="Ellipse 616" cx="4" cy="3.5" rx="4" ry="3.5" transform="translate(1142 6949.565)" fill="#ddeefa"/>
    <ellipse id="Ellipse_616-75" data-name="Ellipse 616" cx="4" cy="3.5" rx="4" ry="3.5" transform="translate(1184 6949.565)" fill="#ddeefa"/>
    <circle id="Ellipse_616-76" data-name="Ellipse 616" cx="4" cy="4" r="4" transform="translate(172 7001.565)" fill="#ddeefa"/>
    <circle id="Ellipse_616-77" data-name="Ellipse 616" cx="4" cy="4" r="4" transform="translate(214 7001.565)" fill="#ddeefa"/>
    <circle id="Ellipse_616-78" data-name="Ellipse 616" cx="4" cy="4" r="4" transform="translate(256 7001.565)" fill="#ddeefa"/>
    <ellipse id="Ellipse_616-79" data-name="Ellipse 616" cx="3.5" cy="4" rx="3.5" ry="4" transform="translate(299 7001.565)" fill="#ddeefa"/>
    <ellipse id="Ellipse_616-80" data-name="Ellipse 616" cx="3.5" cy="4" rx="3.5" ry="4" transform="translate(341 7001.565)" fill="#ddeefa"/>
    <circle id="Ellipse_616-81" data-name="Ellipse 616" cx="4" cy="4" r="4" transform="translate(383 7001.565)" fill="#ddeefa"/>
    <circle id="Ellipse_616-82" data-name="Ellipse 616" cx="4" cy="4" r="4" transform="translate(425 7001.565)" fill="#ddeefa"/>
    <circle id="Ellipse_616-83" data-name="Ellipse 616" cx="4" cy="4" r="4" transform="translate(467 7001.565)" fill="#ddeefa"/>
    <circle id="Ellipse_616-84" data-name="Ellipse 616" cx="4" cy="4" r="4" transform="translate(509 7001.565)" fill="#ddeefa"/>
    <ellipse id="Ellipse_616-85" data-name="Ellipse 616" cx="3.5" cy="4" rx="3.5" ry="4" transform="translate(552 7001.565)" fill="#ddeefa"/>
    <circle id="Ellipse_616-86" data-name="Ellipse 616" cx="4" cy="4" r="4" transform="translate(594 7001.565)" fill="#ddeefa"/>
    <circle id="Ellipse_616-87" data-name="Ellipse 616" cx="4" cy="4" r="4" transform="translate(636 7001.565)" fill="#ddeefa"/>
    <circle id="Ellipse_616-88" data-name="Ellipse 616" cx="4" cy="4" r="4" transform="translate(678 7001.565)" fill="#ddeefa"/>
    <circle id="Ellipse_616-89" data-name="Ellipse 616" cx="4" cy="4" r="4" transform="translate(720 7001.565)" fill="#ddeefa"/>
    <circle id="Ellipse_616-90" data-name="Ellipse 616" cx="4" cy="4" r="4" transform="translate(762 7001.565)" fill="#ddeefa"/>
    <ellipse id="Ellipse_616-91" data-name="Ellipse 616" cx="3.5" cy="4" rx="3.5" ry="4" transform="translate(805 7001.565)" fill="#ddeefa"/>
    <circle id="Ellipse_616-92" data-name="Ellipse 616" cx="4" cy="4" r="4" transform="translate(847 7001.565)" fill="#ddeefa"/>
    <circle id="Ellipse_616-93" data-name="Ellipse 616" cx="4" cy="4" r="4" transform="translate(889 7001.565)" fill="#ddeefa"/>
    <circle id="Ellipse_616-94" data-name="Ellipse 616" cx="4" cy="4" r="4" transform="translate(931 7001.565)" fill="#ddeefa"/>
    <circle id="Ellipse_616-95" data-name="Ellipse 616" cx="4" cy="4" r="4" transform="translate(973 7001.565)" fill="#ddeefa"/>
    <ellipse id="Ellipse_616-96" data-name="Ellipse 616" cx="3.5" cy="4" rx="3.5" ry="4" transform="translate(1016 7001.565)" fill="#ddeefa"/>
    <ellipse id="Ellipse_616-97" data-name="Ellipse 616" cx="3.5" cy="4" rx="3.5" ry="4" transform="translate(1058 7001.565)" fill="#ddeefa"/>
    <circle id="Ellipse_616-98" data-name="Ellipse 616" cx="4" cy="4" r="4" transform="translate(1100 7001.565)" fill="#ddeefa"/>
    <circle id="Ellipse_616-99" data-name="Ellipse 616" cx="4" cy="4" r="4" transform="translate(1142 7001.565)" fill="#ddeefa"/>
    <circle id="Ellipse_616-100" data-name="Ellipse 616" cx="4" cy="4" r="4" transform="translate(1184 7001.565)" fill="#ddeefa"/>
    <ellipse id="Ellipse_616-101" data-name="Ellipse 616" cx="4" cy="3.5" rx="4" ry="3.5" transform="translate(172 7054.565)" fill="#ddeefa"/>
    <ellipse id="Ellipse_616-102" data-name="Ellipse 616" cx="4" cy="3.5" rx="4" ry="3.5" transform="translate(214 7054.565)" fill="#ddeefa"/>
    <ellipse id="Ellipse_616-103" data-name="Ellipse 616" cx="4" cy="3.5" rx="4" ry="3.5" transform="translate(256 7054.565)" fill="#ddeefa"/>
    <circle id="Ellipse_616-104" data-name="Ellipse 616" cx="3.5" cy="3.5" r="3.5" transform="translate(299 7054.565)" fill="#ddeefa"/>
    <circle id="Ellipse_616-105" data-name="Ellipse 616" cx="3.5" cy="3.5" r="3.5" transform="translate(341 7054.565)" fill="#ddeefa"/>
    <ellipse id="Ellipse_616-106" data-name="Ellipse 616" cx="4" cy="3.5" rx="4" ry="3.5" transform="translate(383 7054.565)" fill="#ddeefa"/>
    <ellipse id="Ellipse_616-107" data-name="Ellipse 616" cx="4" cy="3.5" rx="4" ry="3.5" transform="translate(425 7054.565)" fill="#ddeefa"/>
    <ellipse id="Ellipse_616-108" data-name="Ellipse 616" cx="4" cy="3.5" rx="4" ry="3.5" transform="translate(467 7054.565)" fill="#ddeefa"/>
    <ellipse id="Ellipse_616-109" data-name="Ellipse 616" cx="4" cy="3.5" rx="4" ry="3.5" transform="translate(509 7054.565)" fill="#ddeefa"/>
    <circle id="Ellipse_616-110" data-name="Ellipse 616" cx="3.5" cy="3.5" r="3.5" transform="translate(552 7054.565)" fill="#ddeefa"/>
    <ellipse id="Ellipse_616-111" data-name="Ellipse 616" cx="4" cy="3.5" rx="4" ry="3.5" transform="translate(594 7054.565)" fill="#ddeefa"/>
    <ellipse id="Ellipse_616-112" data-name="Ellipse 616" cx="4" cy="3.5" rx="4" ry="3.5" transform="translate(636 7054.565)" fill="#ddeefa"/>
    <ellipse id="Ellipse_616-113" data-name="Ellipse 616" cx="4" cy="3.5" rx="4" ry="3.5" transform="translate(678 7054.565)" fill="#ddeefa"/>
    <ellipse id="Ellipse_616-114" data-name="Ellipse 616" cx="4" cy="3.5" rx="4" ry="3.5" transform="translate(720 7054.565)" fill="#ddeefa"/>
    <ellipse id="Ellipse_616-115" data-name="Ellipse 616" cx="4" cy="3.5" rx="4" ry="3.5" transform="translate(762 7054.565)" fill="#ddeefa"/>
    <circle id="Ellipse_616-116" data-name="Ellipse 616" cx="3.5" cy="3.5" r="3.5" transform="translate(805 7054.565)" fill="#ddeefa"/>
    <ellipse id="Ellipse_616-117" data-name="Ellipse 616" cx="4" cy="3.5" rx="4" ry="3.5" transform="translate(847 7054.565)" fill="#ddeefa"/>
    <ellipse id="Ellipse_616-118" data-name="Ellipse 616" cx="4" cy="3.5" rx="4" ry="3.5" transform="translate(889 7054.565)" fill="#ddeefa"/>
    <ellipse id="Ellipse_616-119" data-name="Ellipse 616" cx="4" cy="3.5" rx="4" ry="3.5" transform="translate(931 7054.565)" fill="#ddeefa"/>
    <ellipse id="Ellipse_616-120" data-name="Ellipse 616" cx="4" cy="3.5" rx="4" ry="3.5" transform="translate(973 7054.565)" fill="#ddeefa"/>
    <circle id="Ellipse_616-121" data-name="Ellipse 616" cx="3.5" cy="3.5" r="3.5" transform="translate(1016 7054.565)" fill="#ddeefa"/>
    <circle id="Ellipse_616-122" data-name="Ellipse 616" cx="3.5" cy="3.5" r="3.5" transform="translate(1058 7054.565)" fill="#ddeefa"/>
    <ellipse id="Ellipse_616-123" data-name="Ellipse 616" cx="4" cy="3.5" rx="4" ry="3.5" transform="translate(1100 7054.565)" fill="#ddeefa"/>
    <ellipse id="Ellipse_616-124" data-name="Ellipse 616" cx="4" cy="3.5" rx="4" ry="3.5" transform="translate(1142 7054.565)" fill="#ddeefa"/>
    <ellipse id="Ellipse_616-125" data-name="Ellipse 616" cx="4" cy="3.5" rx="4" ry="3.5" transform="translate(1184 7054.565)" fill="#ddeefa"/>
    <circle id="Ellipse_616-126" data-name="Ellipse 616" cx="4" cy="4" r="4" transform="translate(172 7106.565)" fill="#ddeefa"/>
    <circle id="Ellipse_616-127" data-name="Ellipse 616" cx="4" cy="4" r="4" transform="translate(214 7106.565)" fill="#ddeefa"/>
    <circle id="Ellipse_616-128" data-name="Ellipse 616" cx="4" cy="4" r="4" transform="translate(256 7106.565)" fill="#ddeefa"/>
    <ellipse id="Ellipse_616-129" data-name="Ellipse 616" cx="3.5" cy="4" rx="3.5" ry="4" transform="translate(299 7106.565)" fill="#ddeefa"/>
    <ellipse id="Ellipse_616-130" data-name="Ellipse 616" cx="3.5" cy="4" rx="3.5" ry="4" transform="translate(341 7106.565)" fill="#ddeefa"/>
    <circle id="Ellipse_616-131" data-name="Ellipse 616" cx="4" cy="4" r="4" transform="translate(383 7106.565)" fill="#ddeefa"/>
    <circle id="Ellipse_616-132" data-name="Ellipse 616" cx="4" cy="4" r="4" transform="translate(425 7106.565)" fill="#ddeefa"/>
    <circle id="Ellipse_616-133" data-name="Ellipse 616" cx="4" cy="4" r="4" transform="translate(467 7106.565)" fill="#ddeefa"/>
    <circle id="Ellipse_616-134" data-name="Ellipse 616" cx="4" cy="4" r="4" transform="translate(509 7106.565)" fill="#ddeefa"/>
    <ellipse id="Ellipse_616-135" data-name="Ellipse 616" cx="3.5" cy="4" rx="3.5" ry="4" transform="translate(552 7106.565)" fill="#ddeefa"/>
    <circle id="Ellipse_616-136" data-name="Ellipse 616" cx="4" cy="4" r="4" transform="translate(594 7106.565)" fill="#ddeefa"/>
    <circle id="Ellipse_616-137" data-name="Ellipse 616" cx="4" cy="4" r="4" transform="translate(636 7106.565)" fill="#ddeefa"/>
    <circle id="Ellipse_616-138" data-name="Ellipse 616" cx="4" cy="4" r="4" transform="translate(678 7106.565)" fill="#ddeefa"/>
    <circle id="Ellipse_616-139" data-name="Ellipse 616" cx="4" cy="4" r="4" transform="translate(720 7106.565)" fill="#ddeefa"/>
    <circle id="Ellipse_616-140" data-name="Ellipse 616" cx="4" cy="4" r="4" transform="translate(762 7106.565)" fill="#ddeefa"/>
    <ellipse id="Ellipse_616-141" data-name="Ellipse 616" cx="3.5" cy="4" rx="3.5" ry="4" transform="translate(805 7106.565)" fill="#ddeefa"/>
    <circle id="Ellipse_616-142" data-name="Ellipse 616" cx="4" cy="4" r="4" transform="translate(847 7106.565)" fill="#ddeefa"/>
    <circle id="Ellipse_616-143" data-name="Ellipse 616" cx="4" cy="4" r="4" transform="translate(889 7106.565)" fill="#ddeefa"/>
    <circle id="Ellipse_616-144" data-name="Ellipse 616" cx="4" cy="4" r="4" transform="translate(931 7106.565)" fill="#ddeefa"/>
    <circle id="Ellipse_616-145" data-name="Ellipse 616" cx="4" cy="4" r="4" transform="translate(973 7106.565)" fill="#ddeefa"/>
    <ellipse id="Ellipse_616-146" data-name="Ellipse 616" cx="3.5" cy="4" rx="3.5" ry="4" transform="translate(1016 7106.565)" fill="#ddeefa"/>
    <ellipse id="Ellipse_616-147" data-name="Ellipse 616" cx="3.5" cy="4" rx="3.5" ry="4" transform="translate(1058 7106.565)" fill="#ddeefa"/>
    <circle id="Ellipse_616-148" data-name="Ellipse 616" cx="4" cy="4" r="4" transform="translate(1100 7106.565)" fill="#ddeefa"/>
    <circle id="Ellipse_616-149" data-name="Ellipse 616" cx="4" cy="4" r="4" transform="translate(1142 7106.565)" fill="#ddeefa"/>
    <circle id="Ellipse_616-150" data-name="Ellipse 616" cx="4" cy="4" r="4" transform="translate(1184 7106.565)" fill="#ddeefa"/>
    <circle id="Ellipse_616-151" data-name="Ellipse 616" cx="4" cy="4" r="4" transform="translate(172 7159.565)" fill="#ddeefa"/>
    <circle id="Ellipse_616-152" data-name="Ellipse 616" cx="4" cy="4" r="4" transform="translate(214 7159.565)" fill="#ddeefa"/>
    <circle id="Ellipse_616-153" data-name="Ellipse 616" cx="4" cy="4" r="4" transform="translate(256 7159.565)" fill="#ddeefa"/>
    <ellipse id="Ellipse_616-154" data-name="Ellipse 616" cx="3.5" cy="4" rx="3.5" ry="4" transform="translate(299 7159.565)" fill="#ddeefa"/>
    <ellipse id="Ellipse_616-155" data-name="Ellipse 616" cx="3.5" cy="4" rx="3.5" ry="4" transform="translate(341 7159.565)" fill="#ddeefa"/>
    <circle id="Ellipse_616-156" data-name="Ellipse 616" cx="4" cy="4" r="4" transform="translate(383 7159.565)" fill="#ddeefa"/>
    <circle id="Ellipse_616-157" data-name="Ellipse 616" cx="4" cy="4" r="4" transform="translate(425 7159.565)" fill="#ddeefa"/>
    <circle id="Ellipse_616-158" data-name="Ellipse 616" cx="4" cy="4" r="4" transform="translate(467 7159.565)" fill="#ddeefa"/>
    <circle id="Ellipse_616-159" data-name="Ellipse 616" cx="4" cy="4" r="4" transform="translate(509 7159.565)" fill="#ddeefa"/>
    <ellipse id="Ellipse_616-160" data-name="Ellipse 616" cx="3.5" cy="4" rx="3.5" ry="4" transform="translate(552 7159.565)" fill="#ddeefa"/>
    <circle id="Ellipse_616-161" data-name="Ellipse 616" cx="4" cy="4" r="4" transform="translate(594 7159.565)" fill="#ddeefa"/>
    <circle id="Ellipse_616-162" data-name="Ellipse 616" cx="4" cy="4" r="4" transform="translate(636 7159.565)" fill="#ddeefa"/>
    <circle id="Ellipse_616-163" data-name="Ellipse 616" cx="4" cy="4" r="4" transform="translate(678 7159.565)" fill="#ddeefa"/>
    <circle id="Ellipse_616-164" data-name="Ellipse 616" cx="4" cy="4" r="4" transform="translate(720 7159.565)" fill="#ddeefa"/>
    <circle id="Ellipse_616-165" data-name="Ellipse 616" cx="4" cy="4" r="4" transform="translate(762 7159.565)" fill="#ddeefa"/>
    <ellipse id="Ellipse_616-166" data-name="Ellipse 616" cx="3.5" cy="4" rx="3.5" ry="4" transform="translate(805 7159.565)" fill="#ddeefa"/>
    <circle id="Ellipse_616-167" data-name="Ellipse 616" cx="4" cy="4" r="4" transform="translate(847 7159.565)" fill="#ddeefa"/>
    <circle id="Ellipse_616-168" data-name="Ellipse 616" cx="4" cy="4" r="4" transform="translate(889 7159.565)" fill="#ddeefa"/>
    <circle id="Ellipse_616-169" data-name="Ellipse 616" cx="4" cy="4" r="4" transform="translate(931 7159.565)" fill="#ddeefa"/>
    <circle id="Ellipse_616-170" data-name="Ellipse 616" cx="4" cy="4" r="4" transform="translate(973 7159.565)" fill="#ddeefa"/>
    <ellipse id="Ellipse_616-171" data-name="Ellipse 616" cx="3.5" cy="4" rx="3.5" ry="4" transform="translate(1016 7159.565)" fill="#ddeefa"/>
    <ellipse id="Ellipse_616-172" data-name="Ellipse 616" cx="3.5" cy="4" rx="3.5" ry="4" transform="translate(1058 7159.565)" fill="#ddeefa"/>
    <circle id="Ellipse_616-173" data-name="Ellipse 616" cx="4" cy="4" r="4" transform="translate(1100 7159.565)" fill="#ddeefa"/>
    <circle id="Ellipse_616-174" data-name="Ellipse 616" cx="4" cy="4" r="4" transform="translate(1142 7159.565)" fill="#ddeefa"/>
    <circle id="Ellipse_616-175" data-name="Ellipse 616" cx="4" cy="4" r="4" transform="translate(1184 7159.565)" fill="#ddeefa"/>
  </g>
</svg>
