<svg xmlns="http://www.w3.org/2000/svg" xmlns:xlink="http://www.w3.org/1999/xlink" width="390" height="407" viewBox="0 0 390 407">
  <defs>
    <clipPath id="clip-path">
      <rect id="Rectangle_2822" data-name="Rectangle 2822" width="103" height="103" transform="translate(-20176.672 -13080.758)" fill="#b23838"/>
    </clipPath>
    <clipPath id="clip-path-2">
      <rect id="Rectangle_2824" data-name="Rectangle 2824" width="45" height="45" transform="translate(-20176.984 -13080.758)" fill="#b23838"/>
    </clipPath>
  </defs>
  <g id="Group_41022" data-name="Group 41022" transform="translate(-411 -2427)">
    <g id="Mask_Group_53" data-name="Mask Group 53" transform="translate(20587.672 15507.758)" opacity="0.4" clip-path="url(#clip-path)">
      <path id="Union_13" data-name="Union 13" d="M0,182.266l283.6,283.6Zm1.146-1.146,283.6,283.6Zm1.146-1.146,283.6,283.6Zm1.147-1.147,283.6,283.6Zm1.146-1.146,283.6,283.6Zm1.146-1.147,283.6,283.6Zm1.146-1.146,283.6,283.6Zm1.146-1.146,283.6,283.6ZM9.17,173.1l283.6,283.6Zm1.146-1.146,283.6,283.6Zm1.147-1.147,283.6,283.6Zm1.146-1.146,283.6,283.6Zm1.146-1.146,283.6,283.6Zm1.147-1.147,283.6,283.6Zm1.146-1.146,283.6,283.6Zm1.146-1.146,283.6,283.6Zm1.146-1.146,283.6,283.6Zm1.146-1.146,283.6,283.6Zm1.146-1.147,283.6,283.6Zm1.146-1.146,283.6,283.6Zm1.146-1.146,283.6,283.6Zm1.147-1.146,283.6,283.6Zm1.146-1.146,283.6,283.6Zm1.147-1.147,283.6,283.6Zm1.146-1.146,283.6,283.6Zm1.146-1.146,283.6,283.6Zm1.146-1.146,283.6,283.6Zm1.146-1.146,283.6,283.6Zm1.146-1.147,283.6,283.6Zm1.146-1.146,283.6,283.6Zm1.146-1.146,283.6,283.6Zm1.147-1.147,283.6,283.6Zm1.146-1.146,283.6,283.6Zm1.146-1.146,283.6,283.6Zm1.147-1.147,283.6,283.6Zm1.146-1.146,283.6,283.6ZM41.268,141l283.6,283.6Zm1.146-1.146,283.6,283.6Zm1.146-1.146,283.6,283.6Zm1.146-1.147,283.6,283.6Zm1.146-1.146,283.6,283.6ZM47,135.267l283.6,283.6Zm1.146-1.146,283.6,283.6Zm1.146-1.146,283.6,283.6Zm1.147-1.146,283.6,283.6Zm1.146-1.146,283.6,283.6Zm1.146-1.146,283.6,283.6Zm1.146-1.147,283.6,283.6Zm1.146-1.146,283.6,283.6ZM56.17,126.1l283.6,283.6Zm1.146-1.146,283.6,283.6Zm1.146-1.146,283.6,283.6Zm1.147-1.147,283.6,283.6Zm1.146-1.146,283.6,283.6Zm1.147-1.147,283.6,283.6Zm1.146-1.146,283.6,283.6Zm1.146-1.146,283.6,283.6Zm1.146-1.147,283.6,283.6Zm1.146-1.146,283.6,283.6Zm1.146-1.147,283.6,283.6Zm1.146-1.146,283.6,283.6Zm1.146-1.146,283.6,283.6Zm1.147-1.147,283.6,283.6Zm1.146-1.146,283.6,283.6Zm1.146-1.146,283.6,283.6Zm1.147-1.147,283.6,283.6Zm1.146-1.146,283.6,283.6Zm1.146-1.147,283.6,283.6Zm1.146-1.146,283.6,283.6ZM79.1,103.17l283.6,283.6Zm1.146-1.147,283.6,283.6Zm1.146-1.146,283.6,283.6Zm1.147-1.147,283.6,283.6Zm1.146-1.146,283.6,283.6Zm1.146-1.146,283.6,283.6Zm1.147-1.147,283.6,283.6Zm1.146-1.146,283.6,283.6ZM88.268,94l283.6,283.6Zm1.146-1.147,283.6,283.6Zm1.146-1.146,283.6,283.6Zm1.146-1.147,283.6,283.6Zm1.146-1.146,283.6,283.6ZM94,88.268l283.6,283.6Zm1.147-1.147,283.6,283.6Zm1.146-1.146,283.6,283.6Zm1.147-1.147,283.6,283.6Zm1.146-1.146,283.6,283.6Zm1.146-1.146,283.6,283.6Zm1.146-1.146,283.6,283.6Zm1.146-1.146,283.6,283.6ZM103.17,79.1l283.6,283.6Zm1.146-1.146,283.6,283.6Zm1.146-1.146,283.6,283.6Zm1.147-1.147,283.6,283.6Zm1.146-1.146,283.6,283.6Zm1.146-1.146,283.6,283.6Zm1.147-1.147,283.6,283.6Zm1.146-1.146,283.6,283.6Zm1.146-1.147,283.6,283.6Zm1.146-1.146,283.6,283.6Zm1.146-1.146,283.6,283.6Zm1.146-1.147,283.6,283.6Zm1.146-1.146,283.6,283.6Zm1.147-1.147,283.6,283.6Zm1.146-1.146,283.6,283.6Zm1.146-1.146,283.6,283.6Zm1.147-1.147,283.6,283.6Zm1.146-1.146,283.6,283.6Zm1.146-1.146,283.6,283.6Zm1.146-1.147,283.6,283.6ZM126.1,56.17l283.6,283.6Zm1.146-1.147,283.6,283.6Zm1.146-1.146,283.6,283.6Zm1.146-1.146,283.6,283.6Zm1.147-1.147,283.6,283.6Zm1.146-1.146,283.6,283.6Zm1.147-1.147,283.6,283.6Zm1.146-1.146,283.6,283.6ZM135.267,47l283.6,283.6Zm1.146-1.147,283.6,283.6Zm1.146-1.146,283.6,283.6Zm1.146-1.146,283.6,283.6Zm1.146-1.147,283.6,283.6ZM141,41.268l283.6,283.6Zm1.147-1.147,283.6,283.6Zm1.146-1.146,283.6,283.6Zm1.146-1.146,283.6,283.6Zm1.147-1.147,283.6,283.6Zm1.146-1.146,283.6,283.6Zm1.146-1.147,283.6,283.6Zm1.146-1.146,283.6,283.6Zm1.146-1.146,283.6,283.6Zm1.146-1.147,283.6,283.6Zm1.146-1.146,283.6,283.6Zm1.147-1.147,283.6,283.6Zm1.146-1.146,283.6,283.6Zm1.146-1.146,283.6,283.6Zm1.147-1.147,283.6,283.6Zm1.146-1.146,283.6,283.6Zm1.146-1.146,283.6,283.6Zm1.146-1.147,283.6,283.6Zm1.146-1.146,283.6,283.6Zm1.146-1.147,283.6,283.6Zm1.146-1.146,283.6,283.6Zm1.146-1.146,283.6,283.6Zm1.147-1.147,283.6,283.6Zm1.146-1.146,283.6,283.6Zm1.147-1.147,283.6,283.6Zm1.146-1.146,283.6,283.6Zm1.146-1.146,283.6,283.6Zm1.146-1.147,283.6,283.6ZM173.1,9.171l283.6,283.6Zm1.146-1.146,283.6,283.6Zm1.146-1.147,283.6,283.6Zm1.146-1.146,283.6,283.6Zm1.147-1.147,283.6,283.6Zm1.146-1.146,283.6,283.6Zm1.146-1.146,283.6,283.6Zm1.147-1.147,283.6,283.6ZM182.267,0l283.6,283.6Z" transform="translate(-20370.932 -13275.013)" fill="none" stroke="#2fb5fc" stroke-width="1"/>
    </g>
    <g id="Mask_Group_55" data-name="Mask Group 55" transform="translate(20888.984 15869.758)" opacity="0.1" clip-path="url(#clip-path-2)">
      <path id="Union_14" data-name="Union 14" d="M0,78.92l122.8,122.8Zm.5-.5,122.8,122.8Zm.5-.5,122.8,122.8Zm.5-.5,122.8,122.8Zm.5-.5,122.8,122.8Zm.5-.5,122.8,122.8Zm.5-.5,122.8,122.8Zm.5-.5,122.8,122.8Zm.5-.5,122.8,122.8Zm.5-.5,122.8,122.8Zm.5-.5,122.8,122.8Zm.5-.5,122.8,122.8Zm.5-.5,122.8,122.8Zm.5-.5,122.8,122.8Zm.5-.5,122.8,122.8Zm.5-.5,122.8,122.8Zm.5-.5,122.8,122.8Zm.5-.5,122.8,122.8Zm.5-.5,122.8,122.8Zm.5-.5,122.8,122.8Zm.5-.5,122.8,122.8Zm.5-.5,122.8,122.8Zm.5-.5,122.8,122.8Zm.5-.5,122.8,122.8Zm.5-.5,122.8,122.8Zm.5-.5,122.8,122.8Zm.5-.5,122.8,122.8Zm.5-.5,122.8,122.8Zm.5-.5,122.8,122.8Zm.5-.5,122.8,122.8Zm.5-.5,122.8,122.8Zm.5-.5,122.8,122.8Zm.5-.5,122.8,122.8Zm.5-.5,122.8,122.8Zm.5-.5,122.8,122.8Zm.5-.5,122.8,122.8Zm.5-.5,122.8,122.8Zm.5-.5,122.8,122.8Zm.5-.5,122.8,122.8Zm.5-.5,122.8,122.8Zm.5-.5,122.8,122.8Zm.5-.5,122.8,122.8Zm.5-.5,122.8,122.8Zm.5-.5,122.8,122.8Zm.5-.5,122.8,122.8Zm.5-.5,122.8,122.8Zm.5-.5,122.8,122.8Zm.5-.5,122.8,122.8Zm.5-.5,122.8,122.8Zm.5-.5,122.8,122.8Zm.5-.5,122.8,122.8Zm.5-.5,122.8,122.8Zm.5-.5,122.8,122.8Zm.5-.5,122.8,122.8Zm.5-.5,122.8,122.8Zm.5-.5,122.8,122.8Zm.5-.5,122.8,122.8Zm.5-.5,122.8,122.8Zm.5-.5,122.8,122.8Zm.5-.5,122.8,122.8Zm.5-.5,122.8,122.8Zm.5-.5,122.8,122.8Zm.5-.5,122.8,122.8Zm.5-.5,122.8,122.8Zm.5-.5,122.8,122.8Zm.5-.5,122.8,122.8Zm.5-.5,122.8,122.8Zm.5-.5,122.8,122.8Zm.5-.5,122.8,122.8Zm.5-.5,122.8,122.8Zm.5-.5,122.8,122.8Zm.5-.5,122.8,122.8Zm.5-.5,122.8,122.8Zm.5-.5,122.8,122.8Zm.5-.5,122.8,122.8Zm.5-.5,122.8,122.8Zm.5-.5,122.8,122.8Zm.5-.5,122.8,122.8Zm.5-.5L161.513,163Zm.5-.5,122.8,122.8Zm.5-.5,122.8,122.8Zm.5-.5L163,161.513Zm.5-.5,122.8,122.8Zm.5-.5,122.8,122.8Zm.5-.5,122.8,122.8Zm.5-.5,122.8,122.8Zm.5-.5,122.8,122.8Zm.5-.5,122.8,122.8Zm.5-.5,122.8,122.8Zm.5-.5,122.8,122.8Zm.5-.5,122.8,122.8Zm.5-.5,122.8,122.8Zm.5-.5,122.8,122.8Zm.5-.5,122.8,122.8Zm.5-.5,122.8,122.8Zm.5-.5,122.8,122.8Zm.5-.5,122.8,122.8Zm.5-.5,122.8,122.8Zm.5-.5,122.8,122.8Zm.5-.5,122.8,122.8Zm.5-.5,122.8,122.8Zm.5-.5,122.8,122.8Zm.5-.5,122.8,122.8Zm.5-.5,122.8,122.8Zm.5-.5,122.8,122.8Zm.5-.5,122.8,122.8Zm.5-.5,122.8,122.8Zm.5-.5,122.8,122.8Zm.5-.5,122.8,122.8Zm.5-.5,122.8,122.8Zm.5-.5,122.8,122.8Zm.5-.5,122.8,122.8Zm.5-.5,122.8,122.8Zm.5-.5,122.8,122.8Zm.5-.5,122.8,122.8Zm.5-.5,122.8,122.8Zm.5-.5,122.8,122.8Zm.5-.5,122.8,122.8Zm.5-.5,122.8,122.8Zm.5-.5,122.8,122.8Zm.5-.5,122.8,122.8Zm.5-.5,122.8,122.8Zm.5-.5,122.8,122.8Zm.5-.5,122.8,122.8Zm.5-.5,122.8,122.8Zm.5-.5,122.8,122.8Zm.5-.5,122.8,122.8Zm.5-.5,122.8,122.8Zm.5-.5,122.8,122.8Zm.5-.5,122.8,122.8Zm.5-.5,122.8,122.8Zm.5-.5,122.8,122.8Zm.5-.5,122.8,122.8Zm.5-.5,122.8,122.8Zm.5-.5,122.8,122.8Zm.5-.5,122.8,122.8Zm.5-.5,122.8,122.8Zm.5-.5,122.8,122.8Zm.5-.5,122.8,122.8Zm.5-.5,122.8,122.8Zm.5-.5,122.8,122.8Zm.5-.5,122.8,122.8Zm.5-.5,122.8,122.8Zm.5-.5,122.8,122.8Zm.5-.5,122.8,122.8Zm.5-.5,122.8,122.8Zm.5-.5,122.8,122.8Zm.5-.5,122.8,122.8Zm.5-.5,122.8,122.8Zm.5-.5,122.8,122.8Zm.5-.5,122.8,122.8Zm.5-.5,122.8,122.8Zm.5-.5,122.8,122.8Zm.5-.5,122.8,122.8Zm.5-.5,122.8,122.8Zm.5-.5,122.8,122.8Zm.5-.5,122.8,122.8Zm.5-.5,122.8,122.8Zm.5-.5,122.8,122.8Zm.5-.5,122.8,122.8Z" transform="translate(-20260.697 -13164.869)" fill="none" stroke="#2fb5fc" stroke-width="1"/>
    </g>
    <g id="Rectangle_2821" data-name="Rectangle 2821" transform="translate(434 2447)" fill="none" stroke="#90b2cb" stroke-width="1">
      <rect width="367" height="367" stroke="none"/>
      <rect x="0.5" y="0.5" width="366" height="366" fill="none"/>
    </g>
  </g>
</svg>
