<svg xmlns="http://www.w3.org/2000/svg" viewBox="0 0 856 570"><style>.st1{fill:#d9f0f8}.st2{fill:#cbe6f8}.st4{fill:#f6dae5}.st5{fill:#fff}.st7{fill:#b1d469}.st9{fill:#d4ddf1}.st10{fill:#bfd5df}.st11{fill:#c4d1eb}.st12{fill:#cadd68}.st14{fill:#d6a54f}.st15{fill:#edbf65}.st16{fill:#4a9ad4}.st16,.st17{opacity:.6}.st18{fill:#4a9ad4}.st19{fill:#ebf7fd;stroke:#b9dae8;stroke-miterlimit:10}.st24{fill:#243962}.st25{fill:#fbc4b2}.st26{fill:#91b2cc}.st27{fill:#2e3b65}.st31{fill:#a3d2f1}</style><g id="Layer_82" opacity=".35"><path d="M155 180.7c17.1-23.3 37.3-44.9 60.6-64C238.9 97.6 263.8 82 289.7 70L155 180.7zM347.4 49.3c7.9-2.1 15.9-3.9 23.9-5.4L112.5 256.6c3.1-7.7 6.7-15.2 10.3-22.7L347.4 49.3zM94.9 312c1.4-6.1 3-12.1 4.7-18l310-254.8c6.1-.4 12.1-.7 18.2-.8L94.9 312zM474.7 40.8L87.1 359.4c.5-5.3 1.2-10.5 1.9-15.8L459.2 39.3c5.2.4 10.3.9 15.5 1.5zM85.4 401.7c-.1-4.7-.1-9.5 0-14.2L501.8 45.2c4.5.9 9 2 13.5 3.1L85.4 401.7zM88.1 440.4c-.5-4.4-1-8.7-1.4-13.1L539.5 55.2c4.1 1.3 8.1 2.7 12.2 4.2l-463.6 381zM94.4 476.2c-.9-4-1.7-8.1-2.5-12.2L573.3 68.3c3.7 1.7 7.4 3.3 11.1 5.1l-490 402.8zM103.6 509.6c-1.2-3.8-2.3-7.6-3.5-11.4L604.1 84c3.4 1.9 6.7 3.9 10.1 5.9L103.6 509.6zM115.6 540.7c-1.5-3.5-3-7.1-4.4-10.6l520.9-428.2c3.1 2.2 6.1 4.4 9.2 6.7L115.6 540.7zM145 543.3h17.3l503.6-414c-2.7-2.5-5.5-5-8.3-7.4L145 543.3zM194.8 543.3H212l476.1-391.4c-2.5-2.7-4.9-5.5-7.4-8.1L194.8 543.3zM244.6 543.3h17.3l446.6-367.1c-1.1-1.5-2.1-3-3.3-4.4-1.1-1.4-2.3-2.8-3.5-4.2L244.6 543.3zM294.4 543.3h17.3l414.9-341c-1.9-3.1-4-6.1-6.1-9.2L294.4 543.3zM344.2 543.3h17.3l380.9-313.1c-1.7-3.3-3.5-6.6-5.3-9.9l-392.9 323zM394 543.3h17.3L755.8 260c-1.4-3.5-2.8-7.1-4.4-10.6L394 543.3zM443.8 543.3h17.3l305.8-251.4c-1.1-3.8-2.2-7.6-3.5-11.4L443.8 543.3zM493.6 543.3h17.3L775.1 326c-.8-4.1-1.6-8.1-2.5-12.2l-279 229.5zM543.4 543.3h17.3l219.6-180.5c-.4-4.4-.8-8.7-1.4-13.1L543.4 543.3zM593.2 543.3h17.3l171.1-140.7c.1-4.7.1-9.5 0-14.2L593.2 543.3zM643 543.3h17.3L778 446.5c.7-5.2 1.4-10.5 1.9-15.8L643 543.3zM692.8 543.3h17.3l57.3-47.1c1.7-6 3.3-12 4.7-18l-79.3 65.1zM742.6 543.3h7.7c1.5-3.3 2.9-6.5 4.3-9.8l-12 9.8z" class="st1"/></g><g id="Layer_81"><circle cx="331.5" cy="150" r="69.3" class="st2"/><linearGradient id="SVGID_1_" x1="292.038" x2="370.877" y1="150" y2="150" gradientUnits="userSpaceOnUse"><stop offset="0" stop-color="#f16a7e"/><stop offset="1" stop-color="#dd2376"/></linearGradient><circle cx="331.5" cy="150" r="39.4" fill="url(#SVGID_1_)" stroke="#f279a2" stroke-miterlimit="10" stroke-width="5"/><circle cx="332.1" cy="150.4" r="10.3" class="st4"/><path d="M311.9 154.3c-2.2 0-4-1.8-4-4 0-13.3 10.8-24.1 24.1-24.1 2.2 0 4 1.8 4 4s-1.8 4-4 4c-8.9 0-16.2 7.3-16.2 16.2.1 2.2-1.7 3.9-3.9 3.9zM332.1 174.5c-7.3 0-14.1-3.2-18.7-8.9a3.98 3.98 0 116.2-5c3.1 3.8 7.7 6 12.6 6 2.2 0 4 1.8 4 4-.2 2.1-1.9 3.9-4.1 3.9z" class="st4"/></g><g id="Layer_80"><path d="M72.3 84.2v55.9a7.6 7.6 0 102.2 0v-55l30.4-30.4h62.3a7.6 7.6 0 100-2.2H104L72.3 84.2z" class="st1"/><path d="M333.4 62.4a8.7 8.7 0 000-17.4c-4.4 0-8.1 3.3-8.6 7.6H202l-18.5 18.5h-68L89.3 97.2v42.9a7.6 7.6 0 102.2 0v-42l24.9-24.9h68l18.5-18.5h121.8c.6 4.4 4.3 7.7 8.7 7.7zm0-15.3c3.6 0 6.5 2.9 6.5 6.5s-2.9 6.5-6.5 6.5-6.5-2.9-6.5-6.5c0-3.5 2.9-6.5 6.5-6.5z" class="st1"/><path d="M72.3 84.2v55.9a7.6 7.6 0 102.2 0v-55l30.4-30.4h62.3a7.6 7.6 0 100-2.2H104L72.3 84.2z" class="st1"/><path d="M333.4 62.4a8.7 8.7 0 000-17.4c-4.4 0-8.1 3.3-8.6 7.6H202l-18.5 18.5h-68L89.3 97.2v42.9a7.6 7.6 0 102.2 0v-42l24.9-24.9h68l18.5-18.5h121.8c.6 4.4 4.3 7.7 8.7 7.7zm0-15.3c3.6 0 6.5 2.9 6.5 6.5s-2.9 6.5-6.5 6.5-6.5-2.9-6.5-6.5c0-3.5 2.9-6.5 6.5-6.5z" class="st1"/></g><g id="Layer_79"><path d="M449.7 147.6h39.9l37.6 37.6v299.5l50.7 50.7-1.3 1.3-51.3-51.3V186l-36.5-36.6h-39.1z" class="st1"/><path d="M449.7 122.1H493l55.5 55.5v292.6l33.1 33.1-1.3 1.3-33.6-33.6V178.4l-54.5-54.5h-42.5z" class="st1"/><path d="M449.7 100.1h49.1l66.3 66.3v287l16.5 16.5-1.3 1.4-17.1-17.1v-287L498 102h-48.3z" class="st1"/><path d="M449.7 166.8h37.9l23.4 23.3v355.6h-1.9V190.9l-22.2-22.3h-37.2zM449.7 79.9h61.9l76.3 76.3c1.5 1.5 1.5 3.9 0 5.3a3.68 3.68 0 01-5.3 0l-74.1-74.1h-58.8c-2.1 0-3.8-1.7-3.8-3.8s1.7-3.7 3.8-3.7zM388.9 283.5h55.4v1.9h-54.6l-38.9 38.8V394l-77.2 77.3-1.3-1.4 76.7-76.7v-69.7z" class="st1"/><path d="M397.5 306.2h46.8v1.9h-46.1l-21.8 21.8v63.8l-90.6 90.6v51.8h-1.9v-52.6l90.6-90.6v-63.8z" class="st1"/><path d="M409.1 328.6h35.2v1.9h-34.4l-12.1 12v51.2L307.4 484v56.5h-1.8v-57.3l90.3-90.3v-51.1z" class="st1"/><path d="M490.9 217.6c2.1 0 3.8 1.7 3.8 3.8V460l-36.3 36.3H343.3a3.8 3.8 0 110-7.6h112l31.9-31.9V221.3c0-2 1.7-3.7 3.7-3.7z" class="st1"/><path d="M474.7 221.3h1.9v226.3l-25.2 25.2h-92.8v-1.9h92l24.1-24.1zM436.3 195.9c1.2 0 2.2 1 2.2 2.2v31.6l-21.9 21.9h-33.4l-40.1 40.1c-.9.9-2.3.9-3.2 0-.9-.9-.9-2.3 0-3.2l41.5-41.5h33.4l19.3-19.3v-29.8c0-1 1-2 2.2-2z" class="st1"/><path d="M442.9 236.2l.8.7-24.9 24.9h-31.9l-36 36-.8-.8 36.3-36.3h32z" class="st1"/><circle cx="272.9" cy="471.9" r="6.7" class="st1" transform="rotate(-74.496 272.938 471.882)"/><circle cx="444.3" cy="284.1" r="6.7" class="st1"/><circle cx="475.6" cy="221.3" r="6.7" class="st1" transform="rotate(-80.781 475.63 221.333)"/><circle cx="444.3" cy="307.2" r="6.7" class="st1"/><circle cx="444.3" cy="330.2" r="6.7" class="st1" transform="rotate(-45.001 444.33 330.233)"/><path d="M348.1 295.7c2.5 0 4.5 2 4.5 4.5s-2 4.5-4.5 4.5-4.5-2-4.5-4.5 2-4.5 4.5-4.5zm0 8c1.9 0 3.4-1.5 3.4-3.4s-1.5-3.4-3.4-3.4-3.4 1.5-3.4 3.4 1.5 3.4 3.4 3.4zM445.9 229.2c2.5 0 4.5 2 4.5 4.5s-2 4.5-4.5 4.5-4.5-2-4.5-4.5c0-2.4 2-4.5 4.5-4.5zm0 8c1.9 0 3.4-1.5 3.4-3.4s-1.5-3.4-3.4-3.4-3.4 1.5-3.4 3.4 1.6 3.4 3.4 3.4zM443.2 160a7.7 7.7 0 11-7.7 7.7c0-4.2 3.5-7.7 7.7-7.7zm0 13.5a5.8 5.8 0 100-11.6 5.8 5.8 0 000 11.6zM443.2 140.8a7.7 7.7 0 110 15.4 7.7 7.7 0 010-15.4zm0 13.5a5.8 5.8 0 100-11.6 5.8 5.8 0 000 11.6zM443.2 115.3a7.7 7.7 0 11-7.7 7.7c0-4.2 3.5-7.7 7.7-7.7zm0 13.5a5.8 5.8 0 100-11.6 5.8 5.8 0 000 11.6zM443.2 93.4a7.7 7.7 0 11-7.7 7.7c0-4.2 3.5-7.7 7.7-7.7zm0 13.5a5.8 5.8 0 100-11.6 5.8 5.8 0 000 11.6zM351.2 464.2a7.7 7.7 0 110 15.4 7.7 7.7 0 010-15.4zm0 13.5a5.8 5.8 0 100-11.6 5.8 5.8 0 000 11.6z" class="st1"/><path d="M449.7 147.6h39.9l37.6 37.6v299.5l50.7 50.7-1.3 1.3-51.3-51.3V186l-36.5-36.6h-39.1z" class="st1"/><path d="M449.7 122.1H493l55.5 55.5v292.6l33.1 33.1-1.3 1.3-33.6-33.6V178.4l-54.5-54.5h-42.5z" class="st1"/><path d="M449.7 100.1h49.1l66.3 66.3v287l16.5 16.5-1.3 1.4-17.1-17.1v-287L498 102h-48.3z" class="st1"/><path d="M449.7 166.8h37.9l23.4 23.3v355.6h-1.9V190.9l-22.2-22.3h-37.2zM449.7 79.9h61.9l76.3 76.3c1.5 1.5 1.5 3.9 0 5.3a3.68 3.68 0 01-5.3 0l-74.1-74.1h-58.8c-2.1 0-3.8-1.7-3.8-3.8s1.7-3.7 3.8-3.7zM388.9 283.5h55.4v1.9h-54.6l-38.9 38.8V394l-77.2 77.3-1.3-1.4 76.7-76.7v-69.7z" class="st1"/><path d="M397.5 306.2h46.8v1.9h-46.1l-21.8 21.8v63.8l-90.6 90.6v51.8h-1.9v-52.6l90.6-90.6v-63.8z" class="st1"/><path d="M409.1 328.6h35.2v1.9h-34.4l-12.1 12v51.2L307.4 484v56.5h-1.8v-57.3l90.3-90.3v-51.1z" class="st1"/><path d="M490.9 217.6c2.1 0 3.8 1.7 3.8 3.8V460l-36.3 36.3H343.3a3.8 3.8 0 110-7.6h112l31.9-31.9V221.3c0-2 1.7-3.7 3.7-3.7z" class="st1"/><path d="M474.7 221.3h1.9v226.3l-25.2 25.2h-92.8v-1.9h92l24.1-24.1zM436.3 195.9c1.2 0 2.2 1 2.2 2.2v31.6l-21.9 21.9h-33.4l-40.1 40.1c-.9.9-2.3.9-3.2 0-.9-.9-.9-2.3 0-3.2l41.5-41.5h33.4l19.3-19.3v-29.8c0-1 1-2 2.2-2z" class="st1"/><path d="M442.9 236.2l.8.7-24.9 24.9h-31.9l-36 36-.8-.8 36.3-36.3h32z" class="st1"/><circle cx="272.9" cy="471.9" r="6.7" class="st1" transform="rotate(-74.496 272.938 471.882)"/><circle cx="444.3" cy="284.1" r="6.7" class="st1"/><circle cx="475.6" cy="221.3" r="6.7" class="st1" transform="rotate(-80.781 475.63 221.333)"/><circle cx="444.3" cy="307.2" r="6.7" class="st1"/><circle cx="444.3" cy="330.2" r="6.7" class="st1" transform="rotate(-45.001 444.33 330.233)"/><path d="M348.1 295.7c2.5 0 4.5 2 4.5 4.5s-2 4.5-4.5 4.5-4.5-2-4.5-4.5 2-4.5 4.5-4.5zm0 8c1.9 0 3.4-1.5 3.4-3.4s-1.5-3.4-3.4-3.4-3.4 1.5-3.4 3.4 1.5 3.4 3.4 3.4zM445.9 229.2c2.5 0 4.5 2 4.5 4.5s-2 4.5-4.5 4.5-4.5-2-4.5-4.5c0-2.4 2-4.5 4.5-4.5zm0 8c1.9 0 3.4-1.5 3.4-3.4s-1.5-3.4-3.4-3.4-3.4 1.5-3.4 3.4 1.6 3.4 3.4 3.4zM443.2 160a7.7 7.7 0 11-7.7 7.7c0-4.2 3.5-7.7 7.7-7.7zm0 13.5a5.8 5.8 0 100-11.6 5.8 5.8 0 000 11.6zM443.2 140.8a7.7 7.7 0 110 15.4 7.7 7.7 0 010-15.4zm0 13.5a5.8 5.8 0 100-11.6 5.8 5.8 0 000 11.6zM443.2 115.3a7.7 7.7 0 11-7.7 7.7c0-4.2 3.5-7.7 7.7-7.7zm0 13.5a5.8 5.8 0 100-11.6 5.8 5.8 0 000 11.6zM443.2 93.4a7.7 7.7 0 11-7.7 7.7c0-4.2 3.5-7.7 7.7-7.7zm0 13.5a5.8 5.8 0 100-11.6 5.8 5.8 0 000 11.6zM351.2 464.2a7.7 7.7 0 110 15.4 7.7 7.7 0 010-15.4zm0 13.5a5.8 5.8 0 100-11.6 5.8 5.8 0 000 11.6z" class="st1"/></g><g id="Layer_78"><path d="M130.1 405.7v34.1l-41.5 41.5.9.9 41.7-41.7.2-.2v-34.1l19.9-19.9h21.3l15.9-15.9V349c2.3-.3 4-2.3 4-4.6a4.7 4.7 0 10-9.4 0c0 2.4 1.7 4.3 4 4.6v20.9L172 385h-21.3l-20.6 20.7z" class="st1"/><path d="M204.4 374.2V349c2.3-.3 4-2.3 4-4.6a4.7 4.7 0 10-9.4 0c0 2.4 1.7 4.3 4 4.6v24.7l-25.1 25.1h-23.4L144 409.4v72.3h1.3V410l9.8-9.8h23.4l25.9-26z" class="st1"/><path d="M160.3 487.4c1.6 0 2.9-1.3 2.9-2.9v-58.7l7.8-7.8h15.9l35-35v-38.7a2.9 2.9 0 00-5.8 0v36.4l-31.7 31.7h-15.9l-11.1 11.1v61.1c0 1.6 1.3 2.8 2.9 2.8zM130.1 405.7v34.1l-41.5 41.5.9.9 41.7-41.7.2-.2v-34.1l19.9-19.9h21.3l15.9-15.9V349c2.3-.3 4-2.3 4-4.6a4.7 4.7 0 10-9.4 0c0 2.4 1.7 4.3 4 4.6v20.9L172 385h-21.3l-20.6 20.7z" class="st1"/><path d="M204.4 374.2V349c2.3-.3 4-2.3 4-4.6a4.7 4.7 0 10-9.4 0c0 2.4 1.7 4.3 4 4.6v24.7l-25.1 25.1h-23.4L144 409.4v72.3h1.3V410l9.8-9.8h23.4l25.9-26z" class="st1"/><path d="M160.3 487.4c1.6 0 2.9-1.3 2.9-2.9v-58.7l7.8-7.8h15.9l35-35v-38.7a2.9 2.9 0 00-5.8 0v36.4l-31.7 31.7h-15.9l-11.1 11.1v61.1c0 1.6 1.3 2.8 2.9 2.8z" class="st1"/></g><g id="Layer_77"><path d="M234.6 108.7c0-11-9-20-20-20H75c-11 0-20 9-20 20l.3 240c0 11 9 20 20 20h139.6c11 0 20-9 20-20l-.3-240z" class="st1"/><path d="M230.8 111.6c0-11-9-19.9-20-19.9H79.2c-11 0-19.9 8.9-19.9 19.9l.3 233.3c0 11 9 19.9 20 19.9h131.6c11 0 19.9-8.9 19.9-19.9l-.3-233.3z" class="st5"/><path d="M111.4 101.1a2.9 2.9 0 11-2.9-2.9c1.6.1 2.9 1.4 2.9 2.9zM167.3 104.2h-44.1a3 3 0 01-3-3 3 3 0 013-3h44.1a3 3 0 013 3c-.1 1.7-1.4 3-3 3z" class="st1"/></g><g id="Layer_76"><linearGradient id="SVGID_2_" x1="153.784" x2="183.839" y1="151.725" y2="151.725" gradientUnits="userSpaceOnUse"><stop offset="0" stop-color="#3a77bc"/><stop offset="1" stop-color="#2b4057"/></linearGradient><path fill="url(#SVGID_2_)" d="M158.3 126.8l-4.5 12.3a25.8 25.8 0 0115.4 33.1l12.3 4.5c7.3-20.2-3.1-42.5-23.2-49.9z"/><path d="M128.5 128.1L134 140c6.5-3 13.5-3.1 19.7-.8l4.5-12.3c-9.3-3.5-19.9-3.4-29.7 1.2z" class="st7"/><path d="M108.4 150l12.3 4.5A25.4 25.4 0 01134 140l-5.5-11.9c-9 4.2-16.4 11.8-20.1 21.9z" class="st1"/><path d="M131.6 199.9l4.5-12.3c13.4 4.9 28.2-2 33.1-15.4l12.3 4.5a39.05 39.05 0 01-49.9 23.2z" class="st7"/><linearGradient id="SVGID_3_" x1="109.691" x2="136.103" y1="187.033" y2="187.033" gradientUnits="userSpaceOnUse"><stop offset="0" stop-color="#f16a7e"/><stop offset="1" stop-color="#dd2376"/></linearGradient><path fill="url(#SVGID_3_)" d="M109.7 179.7l11.9-5.5c3 6.5 8.3 11.1 14.5 13.3l-4.5 12.3a38.48 38.48 0 01-21.9-20.1z"/><path d="M108.4 150l12.3 4.5c-2.4 6.7-1.9 13.7.8 19.7l-11.9 5.5c-4.1-9-4.9-19.6-1.2-29.7z" class="st7"/></g><path id="Layer_75" d="M83.7 242.6h9.4v26.9h-9.4z" class="st1"/><path id="Layer_74" d="M102.6 231.4h9.4v38.2h-9.4z" class="st1"/><path id="Layer_73" d="M112 244.1h9.4v25.4H112z" class="st7"/><path id="Layer_72" d="M121.4 237.9h9.4v31.7h-9.4z" class="st1"/><path id="Layer_71" d="M130.8 231.4h9.4v38.2h-9.4z" class="st7"/><path id="Layer_70" d="M140.2 223.1h9.4v46.4h-9.4z" class="st1"/><path id="Layer_69" d="M93.2 224.7h9.4v44.8h-9.4z" class="st7"/><path id="Layer_68" d="M159.1 231.4h9.4v38.2h-9.4z" class="st1"/><path id="Layer_67" d="M168.5 244.1h9.4v25.4h-9.4z" class="st7"/><path id="Layer_66" d="M177.9 237.9h9.4v31.7h-9.4z" class="st1"/><path id="Layer_65" d="M187.3 231.4h9.4v38.2h-9.4z" class="st7"/><path id="Layer_64" d="M196.7 223.1h9.4v46.4h-9.4z" class="st1"/><path id="Layer_63" d="M149.7 224.7h9.4v44.8h-9.4z" class="st7"/><g id="Layer_62"><path d="M83.4 288.5h123.1v6.1H83.4zM83.4 301.6h123.1v6.1H83.4zM83.4 314.7h123.1v6.1H83.4zM83.4 327.8h123.1v6.1H83.4z" class="st1"/></g><g id="Layer_61"><path d="M708.8 460.5c-1.6 2.7-3.8 5.2-5.8 7.6-3.1 3.6-6.3 7-9.4 10.5-7.9 8.6-15.7 17.4-22.7 26.7-2 2.7-4 5.5-5.9 8.3a71.5 71.5 0 00-5 8.4c-.1.3.3.5.4.3 1.5-2.4 3-4.9 4.6-7.3a222.84 222.84 0 0116.7-21.5c6.9-8 14.2-15.7 21.1-23.7 2.4-2.8 4.9-5.6 6.6-8.9.1-.4-.4-.7-.6-.4z" class="st9"/><path d="M718.8 453.4c-1 1.4-2.5 2-4.5 3 .6-2.5.9-5.8-.3-6.5-1-.6-3.7 1.6-5.8 4.5-1.9-4.6-.7-6-1.7-6-2.4-.1-7.4 13.7.2 16.7 9.9 1.2 13.5-10.3 13.5-10.3.5-1.9 0-3.4-1.4-1.4z" class="st10"/><path d="M709.2 452.5c-.4.3-.3.8 0 1.1.4.3.9.3 1.3 0s.3-.8 0-1.1c-.4-.3-1-.3-1.3 0zM714.8 452.9c-.4.3-.3.8 0 1.1.4.3.9.3 1.3 0s.3-.8 0-1.1-.9-.3-1.3 0zM710.4 449.7c-.4.3-.3.8 0 1.1.4.3.9.3 1.3 0s.3-.8 0-1.1c-.4-.3-1-.2-1.3 0zM715.5 451.6c-.2.2-.2.4 0 .6.2.2.5.2.7 0 .2-.2.2-.4 0-.6-.2-.1-.5-.1-.7 0zM708.2 451c-.2.2-.2.4 0 .6.2.2.5.2.7 0 .2-.2.2-.4 0-.6-.2-.2-.5-.2-.7 0z" class="st11"/></g><g id="Layer_60"><path d="M73.3 482.9c2.6 2.2 5.5 4 8.4 5.8 4.3 2.6 8.7 5.1 13.1 7.5 5.3 3 10.6 6 15.8 9a460 460 0 0116.6 10.2c5.3 3.5 10.5 7.3 15.5 11.2.6.4 1.1.9 1.7 1.3.2.2.5-.2.3-.4-2.2-2.1-4.6-4-7-5.8-2.6-2-5.2-3.8-7.9-5.6-5.4-3.6-10.9-7.1-16.5-10.4-5.3-3.1-10.7-6.2-16.1-9.2-4.5-2.5-9.1-5-13.6-7.6a81.2 81.2 0 01-9.3-5.9c-.3-.2-.5-.4-.7-.6-.2-.2-.6.2-.3.5z" class="st9"/><path d="M61.4 478.4c1.5 1 3.2 1.2 5.4 1.6-1.6-2.2-3.2-5.2-2.3-6.2.7-.9 4.1.5 7.3 2.8 0-4.9-1.8-5.8-.9-6.2 2.2-.8 12.6 11 6.6 15.9-8.8 3.8-16.9-6.2-16.9-6.2-1.2-1.7-1.4-3.2.8-1.7z" class="st10"/><path d="M70.1 475c.5.2.6.6.4 1-.2.4-.8.5-1.2.3-.5-.2-.6-.6-.4-1 .2-.4.8-.5 1.2-.3zM65 476.9c.5.2.6.6.4 1-.2.4-.8.5-1.2.3-.5-.2-.6-.6-.4-1 .2-.4.7-.5 1.2-.3zM67.9 472.7c.5.2.6.6.4 1-.2.4-.8.5-1.2.3-.5-.2-.6-.6-.4-1 .2-.3.7-.5 1.2-.3zM63.8 475.8c.3.1.4.4.2.6-.1.2-.4.3-.7.2-.3-.1-.4-.4-.2-.6.1-.2.4-.3.7-.2zM70.5 473.3c.3.1.4.4.2.6-.1.2-.4.3-.7.2-.3-.1-.4-.4-.2-.6.1-.2.4-.3.7-.2z" class="st11"/></g><g id="Layer_59"><path d="M168.2 525.3s-34.5-79.1-78.6-97.6c-9.3-3.9-15.8-5.3-19.8-4.9-15.1 1.8 5.2 29.2 37.6 55.9 33.2 27.4 30.9 29.8 49.8 49.8" class="st10"/><path d="M69.8 424.9c8 5.7 15.7 11.9 23 18.4.1-4.4-1-8.6-1.7-13 0-.3.5-.5.6-.2 2.1 3.9 3 9.6 1.9 14 5.1 4.5 10 9.2 14.7 14 0-1.9.2-3.8.2-5.7.1-3.5-.7-6.7-1.4-10.1-.1-.3.5-.5.6-.2 2.6 5.4 2 11.1 1.3 16.8 5.4 5.5 10.6 11.1 15.5 16.8 0-1.6.2-3.2.2-4.8.1-3.5-.7-6.7-1.4-10.1-.1-.3.5-.5.6-.2 2.5 5.2 2 10.7 1.4 16.1 4.2 4.9 8.3 9.8 12.2 14.7 0-1.5.2-3 .2-4.6.1-3.5-.7-6.7-1.4-10.1-.1-.3.5-.5.6-.2 2.5 5.2 2 10.6 1.4 16 .1.2.3.3.4.5 6.4 8.1 12.6 16.4 18.2 25 .9 1.4 6.1 7.6 4.9 9.4-.2.4-.9 0-.7-.3.3-.4-1.7-3.1-2-3.7-1.5-2.5-3.2-5-4.8-7.4-5.2-7.6-10.8-15-16.7-22.3-.1 0-.2-.1-.2-.3-.6-.8-1.2-1.5-1.8-2.3-2-2.4-4-4.8-6.1-7.2-.9.2-1.8.2-2.7.2-1.9-.1-4.1-.3-5.8-1.1-.3-.1-.1-.5.2-.5 2.5 0 5.1.7 7.6.7-3.5-4.1-7.1-8.1-10.8-12.1-.7.1-1.5.1-2.2.1-1.9-.1-4.1-.3-5.8-1.1-.3-.1-.1-.5.2-.5 2.3 0 4.7.6 7 .7-.8-.8-1.6-1.7-2.3-2.5-5.9 1.6-15-1.9-18.9-5.2-.3-.2.1-.6.4-.4 4.9 2.5 11.7 5.8 17.9 5-4.3-4.5-8.8-9-13.3-13.4-5.9 1.5-14.9-2-18.7-5.3-.3-.2.1-.6.4-.4 4.8 2.4 11.4 5.7 17.6 5.1-10-9.6-20.5-18.9-31.5-27.9.1-.3.6-.6 1-.4z" class="st5"/></g><g id="Layer_58"><path d="M659.5 529.1s72.1-60.3 121.8-62.3c10.5-.4 17.1.5 20.5 2.2 12.8 6.7-19.8 24.8-63 38.1-44.3 13.7-43.4 16.7-70.9 28.5" class="st10"/><path d="M800.7 471c-10.3 2.5-20.4 5.5-30.4 9 2.2-4 5.4-7.5 8.2-11.2.2-.2-.2-.6-.5-.4-3.9 2.9-7.7 7.7-8.9 12-7 2.4-13.8 5-20.6 7.8 1-1.7 1.8-3.5 2.7-5.2 1.7-3.2 4.1-5.8 6.4-8.7.2-.2-.2-.6-.5-.4-5.2 4-7.5 9.4-9.8 14.8-7.7 3.2-15.3 6.6-22.8 10.1.8-1.5 1.4-3 2.2-4.4 1.7-3.2 4.1-5.8 6.4-8.7.2-.2-.2-.6-.5-.4-5 3.9-7.3 9-9.5 14.1-6.3 3-12.6 6.1-18.7 9.3.7-1.4 1.4-2.8 2.1-4.2 1.7-3.2 4.1-5.8 6.4-8.7.2-.2-.2-.6-.5-.4-4.9 3.8-7.3 8.9-9.5 14.1-.2.1-.4.2-.6.3-10 5.2-20 10.7-29.4 16.6-1.6 1-9.5 4.8-9.3 6.9 0 .4.8.3.8-.1 0-.5 3.1-2.3 3.7-2.7 2.7-1.8 5.5-3.5 8.2-5.1 8.6-5.2 17.6-10 26.7-14.7.1 0 .3 0 .3-.2.9-.5 1.9-1 2.8-1.5 3.1-1.6 6.2-3.1 9.3-4.5.7.5 1.5.8 2.3 1.1 1.8.6 3.9 1.1 5.8 1 .4 0 .4-.4.1-.5-2.3-.8-5-1.1-7.3-2 5.3-2.5 10.7-5 16.1-7.3.6.4 1.3.6 2 .8 1.8.6 3.9 1.1 5.8 1 .4 0 .4-.4.1-.5-2.1-.8-4.5-1-6.7-1.8 1.1-.5 2.3-1 3.4-1.5 4.6 3.5 14.6 3.4 19.9 1.6.4-.1.2-.6-.2-.5-5.7.6-13.6 1.4-18.9-1.4 6.3-2.7 12.6-5.2 19-7.7 4.6 3.3 14.5 3.2 19.7 1.5.4-.1.2-.6-.2-.5-5.6.6-13.4 1.3-18.6-1.3 14.1-5.4 28.4-10.3 43-14.7.7-.4.4-.9 0-.8z" class="st5"/></g><g id="Layer_57"><path d="M180.2 531.7s-9.9-99.8-50.5-100.4c-40.5-.6 19.1 68.3 29.1 90.8 0 0-46.6-68-66.9-51.3-20.3 16.7 38.3 40.1 52.6 55.5 0 0-89.8-50.7-92.9-18.6-.4 4.6 5.4 10.9 25.8 14.1 20.3 3.2 47.9 4.2 65.4 19.5" class="st12"/><path d="M130.9 442.6c3.8 5 7.1 10.4 10.2 15.9 3.4 6 6.5 12.2 9.4 18.5 2.9 6.4 5.7 13 8.2 19.6 2.5 6.3 4.8 12.7 6.9 19.2 1.9 5.8 3.7 11.6 5.6 17.4.2.7.4 1.3.7 2 .2.4.8.3.7-.2-.6-2.8-1.5-5.6-2.3-8.4-.9-3-1.8-6-2.8-9-2.1-6.4-4.3-12.8-6.7-19.2-2.5-6.6-5.2-13.2-8.1-19.6-2.9-6.4-5.9-12.6-9.4-18.7-3.1-5.6-6.5-11.1-10.4-16.1-.4-.6-.9-1.2-1.4-1.7-.2-.6-.9-.1-.6.3zM98.2 476.9c9.7 7 18.9 14.6 27.7 22.7 8.7 7.9 17 16.3 24.9 24.9 2.1 2.2 4.1 4.5 6.1 6.7 1.9 2.1 3.7 4.2 5.7 6.3.3.3.8-.1.6-.4-1.5-2-3.1-3.9-4.7-5.8-1.7-2-3.5-4-5.3-6-3.9-4.3-7.8-8.5-11.8-12.6-8.5-8.7-17.4-17-26.9-24.7-5.1-4.2-10.3-8.1-15.8-11.7-.5-.4-.9.3-.5.6zM66.3 507.3c10.6 1.4 21.1 3.7 31.4 6.8a225.8 225.8 0 0146.7 19.7c3.5 2 6.9 4.1 10.4 6.1.4.2.7-.4.4-.6-2.9-2.2-6-4.1-9.2-5.9a238.5 238.5 0 00-27.9-13.6c-11.3-4.5-23-8.2-34.9-10.7-5.6-1.2-11.2-2.1-16.9-2.6-.5-.1-.5.7 0 .8z" class="st5"/></g><g id="Layer_56"><path d="M638.7 531.7s9.9-99.8 50.5-100.4c40.5-.6-19.1 68.3-29.1 90.8 0 0 46.6-68 66.9-51.3 20.3 16.7-38.3 40.1-52.6 55.5 0 0 89.8-50.7 92.9-18.6.4 4.6-5.4 10.9-25.8 14.1-20.3 3.2-47.9 4.2-65.4 19.5" class="st12"/><path d="M687.3 442.1c-4 5-7.4 10.3-10.6 15.8-3.5 6-6.6 12.1-9.5 18.4-3 6.4-5.7 13-8.2 19.6-2.5 6.4-4.8 12.9-6.9 19.4-1.9 5.8-3.8 11.6-5.3 17.6-.2.7-.3 1.3-.5 2-.1.5.5.6.7.2 1-2.7 1.8-5.4 2.6-8.2 1-3 1.9-5.9 2.9-8.9 2.1-6.4 4.4-12.8 6.8-19.1 2.5-6.6 5.2-13.1 8.1-19.6 2.8-6.3 5.9-12.6 9.2-18.6 3.1-5.6 6.4-11.1 10.1-16.2.4-.6.9-1.2 1.3-1.8.3-.5-.4-1-.7-.6zM720.3 476.2c-10 6.6-19.2 14.3-28 22.3s-17.1 16.5-25.2 25.3c-2 2.2-4 4.4-6 6.7-1.8 2.1-3.7 4.3-5.4 6.6-.2.3.3.7.6.4 1.7-1.8 3.4-3.7 5-5.6 1.8-2 3.5-3.9 5.3-5.9 3.9-4.2 7.8-8.4 11.8-12.4 8.5-8.6 17.2-16.8 26.5-24.5 5.1-4.2 10.3-8.3 15.7-12.2.5-.3.1-1-.3-.7zM752.6 506.4c-10.8 1-21.4 3.3-31.8 6.3a222.6 222.6 0 00-36.3 14.3c-3.5 1.8-7 3.6-10.4 5.6-3.5 2-7.1 4.1-10.4 6.6-.4.3-.1.9.4.6 3.2-1.8 6.3-3.7 9.4-5.5a202.75 202.75 0 0127.6-13.3c11.2-4.5 22.9-8.2 34.7-10.8 5.5-1.2 11.2-2.2 16.8-3 .5 0 .6-.8 0-.8z" class="st5"/></g><g id="Layer_55"><path d="M24.6 533.4s35.6 25 84.4 29.3c48.8 4.2 103-18 141.1-16.3 38.1 1.8 68.8 16 165.4-1.4 39.3-7.1 90 18.7 132.4 19.1 74.5.8 94.3-17.3 131.1-16.7 36 .6 93.7 31.8 154-14" class="st1"/><linearGradient id="SVGID_4_" x1="22" x2="836" y1="533.409" y2="533.409" gradientUnits="userSpaceOnUse"><stop offset="0" stop-color="#3a77bc"/><stop offset="1" stop-color="#2b4057"/></linearGradient><path fill="url(#SVGID_4_)" d="M834.1 534.8H23.9c-1 0-1.9-.6-1.9-1.4 0-.8.8-1.4 1.9-1.4h810.3c1 0 1.9.6 1.9 1.4-.1.8-.9 1.4-2 1.4z"/></g><g id="Layer_54"><path d="M609.5 198.5l30.3-16.6c-18-33-5.9-74.4 27.1-92.4l-16.6-30.3c-49.6 27.2-67.9 89.5-40.8 139.3z" class="st7"/><path d="M670.7 247.8l9.7-33.1c-18-5.3-32.2-17.4-40.6-32.7l-30.3 16.6c12.6 22.9 34 41.2 61.2 49.2z" class="st14"/><path d="M748.8 239.4l-16.6-30.3c-16.5 9-35.1 10.5-51.8 5.6l-9.7 33.1c25.2 7.4 53.2 5.2 78.1-8.4z" class="st15"/><path d="M789.7 100.1l-30.3 16.6c-18-33-59.4-45.2-92.4-27.1l-16.6-30.3c49.8-27.2 112.1-8.9 139.3 40.8z" class="st14"/><path d="M798.1 178.2l-33.1-9.7c5.3-18 2.8-36.5-5.6-51.8l30.3-16.6c12.6 23.1 16.3 50.9 8.4 78.1z" class="st15"/><path d="M748.8 239.4l-16.6-30.3c16.5-9 27.8-23.9 32.7-40.6l33.1 9.7a102.2 102.2 0 01-49.2 61.2z" class="st14"/></g><path id="Layer_53" d="M704.5 159.6l3-5.6c-2.3-2.5-2.3-2.5-4.6-5l-5.9 2.5c-2-.9-2.9-1.4-4.9-2.3l-1.8-6c-3.4-.1-3.4-.1-6.9-.3l-2.4 5.8c-2 .7-3.1 1.1-5.1 1.9l-5.6-2.9c-2.5 2.3-2.6 2.3-5.1 4.6l2.5 5.8c-.9 1.9-1.4 2.9-2.3 4.9l-6.1 1.9c-.2 3.4-.2 3.4-.3 6.8l5.9 2.3c.7 2 1.1 3 1.8 5l-3 5.6c2.3 2.5 2.3 2.5 4.6 5l5.9-2.5c2 .9 2.9 1.4 4.9 2.3l1.8 6c3.4.1 3.4.1 6.9.3l2.4-5.8c2-.7 3.1-1.1 5.1-1.9l5.6 2.9c2.5-2.3 2.6-2.3 5.1-4.6l-2.5-5.8c.9-1.9 1.4-2.9 2.3-4.9l6.1-1.9c.2-3.4.2-3.4.3-6.8l-5.9-2.3c-.7-1.9-1.1-3-1.8-5zm-14.1 22.1c-6.8 2.5-14.3-1-16.7-7.7-2.4-6.7 1.1-14.1 7.9-16.6s14.3 1 16.7 7.7a13 13 0 01-7.9 16.6z" class="st2"/><path id="Layer_52" d="M734.3 116l3-5.6c-2.3-2.5-2.3-2.5-4.6-5l-5.9 2.5c-2-.9-2.9-1.4-4.9-2.3l-1.8-6c-3.4-.1-3.4-.1-6.9-.3l-2.4 5.8c-2 .7-3.1 1.1-5.1 1.9l-5.6-2.9c-2.5 2.3-2.6 2.3-5.1 4.6l2.5 5.8c-.9 1.9-1.4 2.9-2.3 4.9l-6.1 1.9c-.2 3.4-.2 3.4-.3 6.8l5.9 2.3c.7 2 1.1 3 1.8 5l-3 5.6c2.3 2.5 2.3 2.5 4.6 5l5.9-2.5c2 .9 2.9 1.4 4.9 2.3l1.8 6c3.4.1 3.4.1 6.9.3l2.4-5.8c2-.7 3.1-1.1 5.1-1.9l5.6 2.9c2.5-2.3 2.6-2.3 5.1-4.6l-2.5-5.8c.9-1.9 1.4-2.9 2.3-4.9l6.1-1.9c.2-3.4.2-3.4.3-6.8l-5.9-2.3c-.7-2-1-3-1.8-5zm-14.1 22.1c-6.8 2.5-14.3-1-16.7-7.7-2.4-6.7 1.1-14.1 7.9-16.6 6.8-2.5 14.3 1 16.7 7.7 2.4 6.7-1.1 14.1-7.9 16.6z" class="st2"/><path id="Layer_51" d="M520.7 29.1c0 .6-.5 1.1-1.1 1.1h-3.7c-.6 0-1.1-.5-1.1-1.1 0-.6.5-1.1 1.1-1.1h3.7c.6 0 1.1.5 1.1 1.1z" class="st16"/><path id="Layer_50" d="M509.9 29.1c0 .6-.5 1.1-1.1 1.1h-3.7c-.6 0-1.1-.5-1.1-1.1 0-.6.5-1.1 1.1-1.1h3.7c.6 0 1.1.5 1.1 1.1z" class="st16"/><path id="Layer_49" d="M499 29.1c0 .6-.5 1.1-1.1 1.1h-3.7c-.6 0-1.1-.5-1.1-1.1 0-.6.5-1.1 1.1-1.1h3.7c.6 0 1.1.5 1.1 1.1z" class="st16"/><path id="Layer_48" d="M555 29.1c0 .6-.5 1.1-1.1 1.1h-3.7c-.6 0-1.1-.5-1.1-1.1 0-.6.5-1.1 1.1-1.1h3.7c.6 0 1.1.5 1.1 1.1z" class="st16"/><path id="Layer_47" d="M544.2 29.1c0 .6-.5 1.1-1.1 1.1h-3.7c-.6 0-1.1-.5-1.1-1.1 0-.6.5-1.1 1.1-1.1h3.7c.6 0 1.1.5 1.1 1.1z" class="st16"/><path id="Layer_46" d="M533.3 29.1c0 .6-.5 1.1-1.1 1.1h-3.7c-.6 0-1.1-.5-1.1-1.1 0-.6.5-1.1 1.1-1.1h3.7c.6 0 1.1.5 1.1 1.1z" class="st16"/><path id="Layer_45" d="M488.2 29.1c0 .6-.5 1.1-1.1 1.1h-3.7c-.6 0-1.1-.5-1.1-1.1 0-.6.5-1.1 1.1-1.1h3.7c.6 0 1.1.5 1.1 1.1z" class="st16"/><path id="Layer_44" d="M466.5 29.1c0 .6-.5 1.1-1.1 1.1h-3.7c-.6 0-1.1-.5-1.1-1.1 0-.6.5-1.1 1.1-1.1h3.7c.6 0 1.1.5 1.1 1.1z" class="st16"/><path id="Layer_43" d="M455.7 29.1c0 .6-.5 1.1-1.1 1.1h-3.7c-.6 0-1.1-.5-1.1-1.1 0-.6.5-1.1 1.1-1.1h3.7c.6 0 1.1.5 1.1 1.1z" class="st16"/><path id="Layer_42" d="M444.8 29.1c0 .6-.5 1.1-1.1 1.1H440c-.6 0-1.1-.5-1.1-1.1 0-.6.5-1.1 1.1-1.1h3.7c.6 0 1.1.5 1.1 1.1z" class="st16"/><path id="Layer_41" d="M619.2 29.1c0 .6-.5 1.1-1.1 1.1h-3.7c-.6 0-1.1-.5-1.1-1.1 0-.6.5-1.1 1.1-1.1h3.7c.6 0 1.1.5 1.1 1.1z" class="st16"/><path id="Layer_40" d="M608.4 29.1c0 .6-.5 1.1-1.1 1.1h-3.7c-.6 0-1.1-.5-1.1-1.1 0-.6.5-1.1 1.1-1.1h3.7c.6 0 1.1.5 1.1 1.1z" class="st16"/><path id="Layer_39" d="M597.6 29.1c0 .6-.5 1.1-1.1 1.1h-3.7c-.6 0-1.1-.5-1.1-1.1 0-.6.5-1.1 1.1-1.1h3.7c.6 0 1.1.5 1.1 1.1z" class="st16"/><path id="Layer_38" d="M586.7 29.1c0 .6-.5 1.1-1.1 1.1h-3.7c-.6 0-1.1-.5-1.1-1.1 0-.6.5-1.1 1.1-1.1h3.7c.6 0 1.1.5 1.1 1.1z" class="st16"/><g id="Layer_37"><g class="st17"><path d="M269 29.1c0 .6-.5 1.1-1.1 1.1h-3.7c-.6 0-1.1-.5-1.1-1.1 0-.6.5-1.1 1.1-1.1h3.7c.6 0 1.1.5 1.1 1.1zm-10.9 0c0 .6-.5 1.1-1.1 1.1h-3.7c-.6 0-1.1-.5-1.1-1.1 0-.6.5-1.1 1.1-1.1h3.7c.6 0 1.1.5 1.1 1.1zm-10.8 0c0 .6-.5 1.1-1.1 1.1h-3.7c-.6 0-1.1-.5-1.1-1.1 0-.6.5-1.1 1.1-1.1h3.7c.6 0 1.1.5 1.1 1.1zm-10.9 0c0 .6-.5 1.1-1.1 1.1h-3.7c-.6 0-1.1-.5-1.1-1.1 0-.6.5-1.1 1.1-1.1h3.7c.7 0 1.1.5 1.1 1.1zm-10.8 0c0 .6-.5 1.1-1.1 1.1h-3.7c-.6 0-1.1-.5-1.1-1.1 0-.6.5-1.1 1.1-1.1h3.7c.6 0 1.1.5 1.1 1.1zm-10.8 0c0 .6-.5 1.1-1.1 1.1H210c-.6 0-1.1-.5-1.1-1.1 0-.6.5-1.1 1.1-1.1h3.7c.6 0 1.1.5 1.1 1.1zm-10.9 0c0 .6-.5 1.1-1.1 1.1h-3.7c-.6 0-1.1-.5-1.1-1.1 0-.6.5-1.1 1.1-1.1h3.7c.6 0 1.1.5 1.1 1.1zm-10.8 0c0 .6-.5 1.1-1.1 1.1h-3.7c-.6 0-1.1-.5-1.1-1.1 0-.6.5-1.1 1.1-1.1h3.7c.6 0 1.1.5 1.1 1.1zm-10.9 0c0 .6-.5 1.1-1.1 1.1h-3.7c-.6 0-1.1-.5-1.1-1.1 0-.6.5-1.1 1.1-1.1h3.7c.7 0 1.1.5 1.1 1.1zm-10.8 0c0 .6-.5 1.1-1.1 1.1h-3.7c-.6 0-1.1-.5-1.1-1.1 0-.6.5-1.1 1.1-1.1h3.7c.6 0 1.1.5 1.1 1.1zm206.4 0c0 .6-.5 1.1-1.1 1.1H373c-.6 0-1.1-.5-1.1-1.1 0-.6.5-1.1 1.1-1.1h3.7c.7 0 1.1.5 1.1 1.1zm-10.8 0c0 .6-.5 1.1-1.1 1.1h-3.7c-.6 0-1.1-.5-1.1-1.1 0-.6.5-1.1 1.1-1.1h3.7c.6 0 1.1.5 1.1 1.1zm-10.8 0c0 .6-.5 1.1-1.1 1.1h-3.7c-.6 0-1.1-.5-1.1-1.1 0-.6.5-1.1 1.1-1.1h3.7c.6 0 1.1.5 1.1 1.1zm55.9 0c0 .6-.5 1.1-1.1 1.1h-3.7c-.6 0-1.1-.5-1.1-1.1 0-.6.5-1.1 1.1-1.1h3.7c.6 0 1.1.5 1.1 1.1zm-10.8 0c0 .6-.5 1.1-1.1 1.1h-3.7c-.6 0-1.1-.5-1.1-1.1 0-.6.5-1.1 1.1-1.1h3.7c.6 0 1.1.5 1.1 1.1zm-10.9 0c0 .6-.5 1.1-1.1 1.1h-3.7c-.6 0-1.1-.5-1.1-1.1 0-.6.5-1.1 1.1-1.1h3.7c.6 0 1.1.5 1.1 1.1zm-45.1 0c0 .6-.5 1.1-1.1 1.1h-3.7c-.6 0-1.1-.5-1.1-1.1 0-.6.5-1.1 1.1-1.1h3.7c.6 0 1.1.5 1.1 1.1zm-10.8 0c0 .6-.5 1.1-1.1 1.1h-3.7c-.6 0-1.1-.5-1.1-1.1 0-.6.5-1.1 1.1-1.1h3.7c.6 0 1.1.5 1.1 1.1zm-10.9 0c0 .6-.5 1.1-1.1 1.1h-3.7c-.6 0-1.1-.5-1.1-1.1 0-.6.5-1.1 1.1-1.1h3.7c.6 0 1.1.5 1.1 1.1zm-10.8 0c0 .6-.5 1.1-1.1 1.1H308c-.6 0-1.1-.5-1.1-1.1 0-.6.5-1.1 1.1-1.1h3.7c.6 0 1.1.5 1.1 1.1zm-10.9 0c0 .6-.5 1.1-1.1 1.1h-3.7c-.6 0-1.1-.5-1.1-1.1 0-.6.5-1.1 1.1-1.1h3.7c.7 0 1.1.5 1.1 1.1zm-10.8 0c0 .6-.5 1.1-1.1 1.1h-3.7c-.6 0-1.1-.5-1.1-1.1 0-.6.5-1.1 1.1-1.1h3.7c.6 0 1.1.5 1.1 1.1zm-10.8 0c0 .6-.5 1.1-1.1 1.1h-3.7c-.6 0-1.1-.5-1.1-1.1 0-.6.5-1.1 1.1-1.1h3.7c.6 0 1.1.5 1.1 1.1zm-119.7 0c0 .6-.5 1.1-1.1 1.1h-3.7c-.6 0-1.1-.5-1.1-1.1 0-.6.5-1.1 1.1-1.1h3.7c.6 0 1.1.5 1.1 1.1zm-10.9 0c0 .6-.5 1.1-1.1 1.1h-1.3v.3c0 .6-.5 1.1-1.1 1.1-.6 0-1.1-.5-1.1-1.1V28h3.4c.7 0 1.2.5 1.2 1.1zm-2.3 8.5v3.7c0 .6-.5 1.1-1.1 1.1-.6 0-1.1-.5-1.1-1.1v-3.7c0-.6.5-1.1 1.1-1.1.6 0 1.1.5 1.1 1.1zm0 10.8v3.7c0 .6-.5 1.1-1.1 1.1-.6 0-1.1-.5-1.1-1.1v-3.7c0-.6.5-1.1 1.1-1.1.6.1 1.1.5 1.1 1.1zm0 10.9V63c0 .6-.5 1.1-1.1 1.1-.6 0-1.1-.5-1.1-1.1v-3.7c0-.6.5-1.1 1.1-1.1.6 0 1.1.5 1.1 1.1zm0 10.8v3.7c0 .6-.5 1.1-1.1 1.1-.6 0-1.1-.5-1.1-1.1v-3.7c0-.6.5-1.1 1.1-1.1.6 0 1.1.5 1.1 1.1zm0 10.9v3.7c0 .6-.5 1.1-1.1 1.1-.6 0-1.1-.5-1.1-1.1V81c0-.6.5-1.1 1.1-1.1.6 0 1.1.5 1.1 1.1z" class="st18"/></g><g class="st17"><path d="M700.5 75.9c-.6 0-1.1-.5-1.1-1.1v-3.7c0-.6.5-1.1 1.1-1.1.6 0 1.1.5 1.1 1.1v3.7c-.1.6-.5 1.1-1.1 1.1zm0-10.8c-.6 0-1.1-.5-1.1-1.1v-3.7c0-.6.5-1.1 1.1-1.1.6 0 1.1.5 1.1 1.1V64c-.1.6-.5 1.1-1.1 1.1zm0-10.8c-.6 0-1.1-.5-1.1-1.1v-3.7c0-.6.5-1.1 1.1-1.1.6 0 1.1.5 1.1 1.1v3.7c-.1.6-.5 1.1-1.1 1.1zm0-10.9c-.6 0-1.1-.5-1.1-1.1v-3.7c0-.6.5-1.1 1.1-1.1.6 0 1.1.5 1.1 1.1v3.7c-.1.6-.5 1.1-1.1 1.1zm0-10.8c-.6 0-1.1-.5-1.1-1.1v-1.3h-.3c-.6 0-1.1-.5-1.1-1.1 0-.6.5-1.1 1.1-1.1h2.4v3.4c0 .7-.4 1.2-1 1.2zm-8.5-2.4h-3.7c-.6 0-1.1-.5-1.1-1.1 0-.6.5-1.1 1.1-1.1h3.7c.6 0 1.1.5 1.1 1.1 0 .6-.5 1.1-1.1 1.1zm-10.9 0h-3.7c-.6 0-1.1-.5-1.1-1.1 0-.6.5-1.1 1.1-1.1h3.7c.6 0 1.1.5 1.1 1.1 0 .6-.5 1.1-1.1 1.1zm-10.8 0h-3.7c-.6 0-1.1-.5-1.1-1.1 0-.6.5-1.1 1.1-1.1h3.7c.6 0 1.1.5 1.1 1.1 0 .6-.5 1.1-1.1 1.1zm-10.9 0h-3.7c-.6 0-1.1-.5-1.1-1.1 0-.6.5-1.1 1.1-1.1h3.7c.6 0 1.1.5 1.1 1.1 0 .6-.5 1.1-1.1 1.1zm-10.8 0h-3.7c-.6 0-1.1-.5-1.1-1.1 0-.6.5-1.1 1.1-1.1h3.7c.6 0 1.1.5 1.1 1.1 0 .6-.5 1.1-1.1 1.1zm-10.8 0H634c-.6 0-1.1-.5-1.1-1.1 0-.6.5-1.1 1.1-1.1h3.7c.6 0 1.1.5 1.1 1.1.1.6-.4 1.1-1 1.1zm-10.9 0h-3.7c-.6 0-1.1-.5-1.1-1.1 0-.6.5-1.1 1.1-1.1h3.7c.6 0 1.1.5 1.1 1.1 0 .6-.5 1.1-1.1 1.1z" class="st18"/></g><path d="M477.4 29.1c0 .6-.5 1.1-1.1 1.1h-3.7c-.6 0-1.1-.5-1.1-1.1 0-.6.5-1.1 1.1-1.1h3.7c.6 0 1.1.5 1.1 1.1zM434 29.1c0 .6-.5 1.1-1.1 1.1h-3.7c-.6 0-1.1-.5-1.1-1.1 0-.6.5-1.1 1.1-1.1h3.7c.6 0 1.1.5 1.1 1.1zM423.1 29.1c0 .6-.5 1.1-1.1 1.1h-3.7c-.6 0-1.1-.5-1.1-1.1 0-.6.5-1.1 1.1-1.1h3.7c.7 0 1.1.5 1.1 1.1zM575.9 29.1c0 .6-.5 1.1-1.1 1.1h-3.7c-.6 0-1.1-.5-1.1-1.1 0-.6.5-1.1 1.1-1.1h3.7c.6 0 1.1.5 1.1 1.1z" class="st16"/></g><path id="Layer_36" d="M565 29.1c0 .6-.5 1.1-1.1 1.1h-3.7c-.6 0-1.1-.5-1.1-1.1 0-.6.5-1.1 1.1-1.1h3.7c.6 0 1.1.5 1.1 1.1z" class="st16"/><g id="Layer_35"><path d="M638.9 391.5c2.8 0 5.1-2.1 5.5-4.8H669a5.52 5.52 0 0011-.7c0-3-2.5-5.5-5.5-5.5a5.6 5.6 0 00-5.5 4.8h-24.6a5.52 5.52 0 00-11 .7c0 3 2.5 5.5 5.5 5.5zm35.5-9.6c2.3 0 4.1 1.9 4.1 4.1 0 2.3-1.9 4.1-4.1 4.1-2.3 0-4.1-1.9-4.1-4.1 0-2.3 1.8-4.1 4.1-4.1zm-35.5 0c2.3 0 4.1 1.9 4.1 4.1 0 2.3-1.9 4.1-4.1 4.1-2.3 0-4.1-1.9-4.1-4.1 0-2.3 1.9-4.1 4.1-4.1zM638.9 365.7c2.8 0 5.1-2.1 5.5-4.8H669a5.52 5.52 0 0011-.7c0-3-2.5-5.5-5.5-5.5a5.6 5.6 0 00-5.5 4.8h-24.6a5.52 5.52 0 00-11 .7c0 3 2.5 5.5 5.5 5.5zm35.5-9.7c2.3 0 4.1 1.9 4.1 4.1 0 2.3-1.9 4.1-4.1 4.1-2.3 0-4.1-1.9-4.1-4.1 0-2.2 1.8-4.1 4.1-4.1zm-35.5 0c2.3 0 4.1 1.9 4.1 4.1 0 2.3-1.9 4.1-4.1 4.1-2.3 0-4.1-1.9-4.1-4.1 0-2.2 1.9-4.1 4.1-4.1zM638.9 339.8c2.8 0 5.1-2.1 5.5-4.8H669a5.52 5.52 0 0011-.7c0-3-2.5-5.5-5.5-5.5a5.6 5.6 0 00-5.5 4.8h-24.6a5.52 5.52 0 00-11 .7c0 3.1 2.5 5.5 5.5 5.5zm35.5-9.6c2.3 0 4.1 1.9 4.1 4.1s-1.9 4.1-4.1 4.1c-2.3 0-4.1-1.9-4.1-4.1s1.8-4.1 4.1-4.1zm-35.5 0c2.3 0 4.1 1.9 4.1 4.1s-1.9 4.1-4.1 4.1c-2.3 0-4.1-1.9-4.1-4.1s1.9-4.1 4.1-4.1zM638.9 314c2.8 0 5.1-2.1 5.5-4.8H669a5.52 5.52 0 0011-.7c0-3-2.5-5.5-5.5-5.5a5.6 5.6 0 00-5.5 4.8h-24.6a5.52 5.52 0 00-11 .7c0 3 2.5 5.5 5.5 5.5zm35.5-9.6c2.3 0 4.1 1.9 4.1 4.1s-1.9 4.1-4.1 4.1c-2.3 0-4.1-1.9-4.1-4.1s1.8-4.1 4.1-4.1zm-35.5 0c2.3 0 4.1 1.9 4.1 4.1s-1.9 4.1-4.1 4.1c-2.3 0-4.1-1.9-4.1-4.1s1.9-4.1 4.1-4.1z" class="st1"/><path d="M638.9 391.5c2.8 0 5.1-2.1 5.5-4.8H669a5.52 5.52 0 0011-.7c0-3-2.5-5.5-5.5-5.5a5.6 5.6 0 00-5.5 4.8h-24.6a5.52 5.52 0 00-11 .7c0 3 2.5 5.5 5.5 5.5zm35.5-9.6c2.3 0 4.1 1.9 4.1 4.1 0 2.3-1.9 4.1-4.1 4.1-2.3 0-4.1-1.9-4.1-4.1 0-2.3 1.8-4.1 4.1-4.1zm-35.5 0c2.3 0 4.1 1.9 4.1 4.1 0 2.3-1.9 4.1-4.1 4.1-2.3 0-4.1-1.9-4.1-4.1 0-2.3 1.9-4.1 4.1-4.1zM638.9 365.7c2.8 0 5.1-2.1 5.5-4.8H669a5.52 5.52 0 0011-.7c0-3-2.5-5.5-5.5-5.5a5.6 5.6 0 00-5.5 4.8h-24.6a5.52 5.52 0 00-11 .7c0 3 2.5 5.5 5.5 5.5zm35.5-9.7c2.3 0 4.1 1.9 4.1 4.1 0 2.3-1.9 4.1-4.1 4.1-2.3 0-4.1-1.9-4.1-4.1 0-2.2 1.8-4.1 4.1-4.1zm-35.5 0c2.3 0 4.1 1.9 4.1 4.1 0 2.3-1.9 4.1-4.1 4.1-2.3 0-4.1-1.9-4.1-4.1 0-2.2 1.9-4.1 4.1-4.1zM638.9 339.8c2.8 0 5.1-2.1 5.5-4.8H669a5.52 5.52 0 0011-.7c0-3-2.5-5.5-5.5-5.5a5.6 5.6 0 00-5.5 4.8h-24.6a5.52 5.52 0 00-11 .7c0 3.1 2.5 5.5 5.5 5.5zm35.5-9.6c2.3 0 4.1 1.9 4.1 4.1s-1.9 4.1-4.1 4.1c-2.3 0-4.1-1.9-4.1-4.1s1.8-4.1 4.1-4.1zm-35.5 0c2.3 0 4.1 1.9 4.1 4.1s-1.9 4.1-4.1 4.1c-2.3 0-4.1-1.9-4.1-4.1s1.9-4.1 4.1-4.1zM638.9 314c2.8 0 5.1-2.1 5.5-4.8H669a5.52 5.52 0 0011-.7c0-3-2.5-5.5-5.5-5.5a5.6 5.6 0 00-5.5 4.8h-24.6a5.52 5.52 0 00-11 .7c0 3 2.5 5.5 5.5 5.5zm35.5-9.6c2.3 0 4.1 1.9 4.1 4.1s-1.9 4.1-4.1 4.1c-2.3 0-4.1-1.9-4.1-4.1s1.8-4.1 4.1-4.1zm-35.5 0c2.3 0 4.1 1.9 4.1 4.1s-1.9 4.1-4.1 4.1c-2.3 0-4.1-1.9-4.1-4.1s1.9-4.1 4.1-4.1z" class="st1"/></g><g id="Layer_34"><path d="M700.2 413.6c2.3 0 4.3-1.7 4.7-3.9h29.7l14.1-14.1v-104l-11-11H706c-.2-2.5-2.3-4.5-4.8-4.5a4.8 4.8 0 104.7 5.8h31.3l10.2 10.2V395l-13.3 13.3H705a4.8 4.8 0 00-9.6.4c0 2.6 2.2 4.9 4.8 4.9z" class="st1"/><path d="M701.3 391.5c2.8 0 5.1-2.1 5.5-4.8h24.6a5.52 5.52 0 0011-.7c0-3-2.5-5.5-5.5-5.5a5.6 5.6 0 00-5.5 4.8h-24.6a5.52 5.52 0 00-11 .7c0 3 2.4 5.5 5.5 5.5zm35.4-9.7c2.3 0 4.1 1.9 4.1 4.1 0 2.3-1.9 4.1-4.1 4.1-2.3 0-4.1-1.9-4.1-4.1 0-2.2 1.9-4.1 4.1-4.1zm-35.4 0c2.3 0 4.1 1.9 4.1 4.1 0 2.3-1.9 4.1-4.1 4.1s-4.1-1.9-4.1-4.1c-.1-2.2 1.8-4.1 4.1-4.1zM701.3 365.7c2.8 0 5.1-2.1 5.5-4.8h24.6a5.52 5.52 0 0011-.7c0-3-2.5-5.5-5.5-5.5a5.6 5.6 0 00-5.5 4.8h-24.6a5.52 5.52 0 00-11 .7c0 3 2.4 5.5 5.5 5.5zm35.4-9.7c2.3 0 4.1 1.9 4.1 4.1 0 2.3-1.9 4.1-4.1 4.1-2.3 0-4.1-1.9-4.1-4.1 0-2.2 1.9-4.1 4.1-4.1zm-35.4 0c2.3 0 4.1 1.9 4.1 4.1 0 2.3-1.9 4.1-4.1 4.1s-4.1-1.9-4.1-4.1c-.1-2.2 1.8-4.1 4.1-4.1zM701.3 339.8c2.8 0 5.1-2.1 5.5-4.8h24.6a5.52 5.52 0 0011-.7c0-3-2.5-5.5-5.5-5.5a5.6 5.6 0 00-5.5 4.8h-24.6a5.52 5.52 0 00-11 .7c0 3.1 2.4 5.5 5.5 5.5zm35.4-9.6c2.3 0 4.1 1.9 4.1 4.1 0 2.3-1.9 4.1-4.1 4.1-2.3 0-4.1-1.9-4.1-4.1 0-2.3 1.9-4.1 4.1-4.1zm-35.4 0c2.3 0 4.1 1.9 4.1 4.1 0 2.3-1.9 4.1-4.1 4.1s-4.1-1.9-4.1-4.1a4 4 0 014.1-4.1zM701.3 314c2.8 0 5.1-2.1 5.5-4.8h24.6a5.52 5.52 0 0011-.7c0-3-2.5-5.5-5.5-5.5a5.6 5.6 0 00-5.5 4.8h-24.6a5.52 5.52 0 00-11 .7c0 3 2.4 5.5 5.5 5.5zm35.4-9.6c2.3 0 4.1 1.9 4.1 4.1 0 2.3-1.9 4.1-4.1 4.1-2.3 0-4.1-1.9-4.1-4.1 0-2.3 1.9-4.1 4.1-4.1zm-35.4 0c2.3 0 4.1 1.9 4.1 4.1 0 2.3-1.9 4.1-4.1 4.1s-4.1-1.9-4.1-4.1a4 4 0 014.1-4.1z" class="st1"/><path d="M700.2 413.6c2.3 0 4.3-1.7 4.7-3.9h29.7l14.1-14.1v-104l-11-11H706c-.2-2.5-2.3-4.5-4.8-4.5a4.8 4.8 0 104.7 5.8h31.3l10.2 10.2V395l-13.3 13.3H705a4.8 4.8 0 00-9.6.4c0 2.6 2.2 4.9 4.8 4.9z" class="st1"/><path d="M701.3 391.5c2.8 0 5.1-2.1 5.5-4.8h24.6a5.52 5.52 0 0011-.7c0-3-2.5-5.5-5.5-5.5a5.6 5.6 0 00-5.5 4.8h-24.6a5.52 5.52 0 00-11 .7c0 3 2.4 5.5 5.5 5.5zm35.4-9.7c2.3 0 4.1 1.9 4.1 4.1 0 2.3-1.9 4.1-4.1 4.1-2.3 0-4.1-1.9-4.1-4.1 0-2.2 1.9-4.1 4.1-4.1zm-35.4 0c2.3 0 4.1 1.9 4.1 4.1 0 2.3-1.9 4.1-4.1 4.1s-4.1-1.9-4.1-4.1c-.1-2.2 1.8-4.1 4.1-4.1zM701.3 365.7c2.8 0 5.1-2.1 5.5-4.8h24.6a5.52 5.52 0 0011-.7c0-3-2.5-5.5-5.5-5.5a5.6 5.6 0 00-5.5 4.8h-24.6a5.52 5.52 0 00-11 .7c0 3 2.4 5.5 5.5 5.5zm35.4-9.7c2.3 0 4.1 1.9 4.1 4.1 0 2.3-1.9 4.1-4.1 4.1-2.3 0-4.1-1.9-4.1-4.1 0-2.2 1.9-4.1 4.1-4.1zm-35.4 0c2.3 0 4.1 1.9 4.1 4.1 0 2.3-1.9 4.1-4.1 4.1s-4.1-1.9-4.1-4.1c-.1-2.2 1.8-4.1 4.1-4.1zM701.3 339.8c2.8 0 5.1-2.1 5.5-4.8h24.6a5.52 5.52 0 0011-.7c0-3-2.5-5.5-5.5-5.5a5.6 5.6 0 00-5.5 4.8h-24.6a5.52 5.52 0 00-11 .7c0 3.1 2.4 5.5 5.5 5.5zm35.4-9.6c2.3 0 4.1 1.9 4.1 4.1 0 2.3-1.9 4.1-4.1 4.1-2.3 0-4.1-1.9-4.1-4.1 0-2.3 1.9-4.1 4.1-4.1zm-35.4 0c2.3 0 4.1 1.9 4.1 4.1 0 2.3-1.9 4.1-4.1 4.1s-4.1-1.9-4.1-4.1a4 4 0 014.1-4.1zM701.3 314c2.8 0 5.1-2.1 5.5-4.8h24.6a5.52 5.52 0 0011-.7c0-3-2.5-5.5-5.5-5.5a5.6 5.6 0 00-5.5 4.8h-24.6a5.52 5.52 0 00-11 .7c0 3 2.4 5.5 5.5 5.5zm35.4-9.6c2.3 0 4.1 1.9 4.1 4.1 0 2.3-1.9 4.1-4.1 4.1-2.3 0-4.1-1.9-4.1-4.1 0-2.3 1.9-4.1 4.1-4.1zm-35.4 0c2.3 0 4.1 1.9 4.1 4.1 0 2.3-1.9 4.1-4.1 4.1s-4.1-1.9-4.1-4.1a4 4 0 014.1-4.1z" class="st1"/></g><path id="Layer_33" d="M500.5 373.1c-.3 2.7-4.1 2.6-8.5 2-4.3-.7-3.2.5-9.3.4-6.1-.1-8.1-2.2-8.4-3.1-.2-.8 2.7-1.3 5.9-2 .4-.1.8-.2 1.2-.3 3.6-.8 6-3.4 9.1-5.6 2.9-2.1 4.9-11.7 4.9-11.7l8.7-.1s-2.7 8.7-4.1 11.7c-.8 1.8.1 4.1.3 5.8.2 1 .3 2 .2 2.9z" class="st19"/><g id="Layer_32"><linearGradient id="SVGID_5_" x1="708.324" x2="734.592" y1="372.892" y2="372.892" gradientTransform="matrix(-1 0 0 1 1208.898 0)" gradientUnits="userSpaceOnUse"><stop offset="0" stop-color="#3a77bc"/><stop offset="1" stop-color="#2b4057"/></linearGradient><path fill="url(#SVGID_5_)" d="M492.1 375.1c-4.3-.7-3.2.5-9.3.4-6.1-.1-8.1-2.2-8.4-3.1-.2-.8 2.7-1.3 5.9-2v.1s3.9 2.2 8.9 1.9c4.1-.3 8.4-1.8 11.2-2.1.2.9.3 1.9.2 2.8-.4 2.8-4.2 2.7-8.5 2z"/></g><path id="Layer_31" d="M568.4 372.7c-.2 2.7-4 2.8-8.4 2.3s-3.2.6-9.3.7c-6.1.1-8.2-1.9-8.5-2.8-.3-.8 2.7-1.4 5.8-2.2.4-.1.8-.2 1.2-.3 3.5-.9 5.9-3.6 8.9-5.9 2.9-2.2.5-11.4.5-11.4l6.6-3.1s.9 9.4 1.4 14.2c.2 2 1.2 3.9 1.5 5.6.2 1 .4 1.9.3 2.9z" class="st19"/><g id="Layer_30"><linearGradient id="SVGID_6_" x1="640.455" x2="666.717" y1="372.798" y2="372.798" gradientTransform="matrix(-1 0 0 1 1208.898 0)" gradientUnits="userSpaceOnUse"><stop offset="0" stop-color="#3a77bc"/><stop offset="1" stop-color="#2b4057"/></linearGradient><path fill="url(#SVGID_6_)" d="M560 375c-4.4-.5-3.2.6-9.3.7-6.1.1-8.2-1.9-8.5-2.8-.3-.8 2.7-1.4 5.8-2.2v.1s3.9 2.1 9 1.6c4.1-.4 8.3-2.2 11.1-2.5.2.9.4 1.9.3 2.8-.2 2.7-4 2.8-8.4 2.3z"/></g><g id="Layer_29"><linearGradient id="SVGID_7_" x1="641.574" x2="688.468" y1="297.756" y2="297.756" gradientTransform="matrix(-1 0 0 1 1208.898 0)" gradientUnits="userSpaceOnUse"><stop offset="0" stop-color="#3a77bc"/><stop offset="1" stop-color="#2b4057"/></linearGradient><path fill="url(#SVGID_7_)" d="M553.6 236.7s1.8 8.8 3.7 53.7c0 0 3.4 8.3 5.8 18.4 2.5 10.1 4.2 52.5 4.2 52.5s-1 1.4-4 1.6c-2.4.1-4.3-.9-4.3-.9s-17.1-55.5-25.4-77c-8.3-21.5-13.2-52.3-13.2-52.3l33.2 4z"/></g><g id="Layer_28"><linearGradient id="SVGID_8_" x1="675.831" x2="716.312" y1="294.017" y2="294.017" gradientTransform="matrix(-1 0 0 1 1208.898 0)" gradientUnits="userSpaceOnUse"><stop offset="0" stop-color="#3a77bc"/><stop offset="1" stop-color="#2b4057"/></linearGradient><path fill="url(#SVGID_8_)" d="M533.1 240.4s-1.3 8.9-15.1 51.6c0 0 .3 9-.9 19.3-1.2 10.4-15.2 51.2-15.2 51.2s-1.9.6-4.6-.1c-2.6-.7-4.6-2.2-4.6-2.2s5.4-58.4 5-81.4c-.4-23.1 5.7-53.6 5.7-53.6l29.7 15.2z"/></g><path id="Layer_27" d="M508.6 158.7c-.9-1.7 1.6 5.4.8.1.1.5-2.2-2.8.6.9 11.1 6.5 29 35.1 28.8 39.6 0 0 13.4-10.5 10.5-18.9 0 0 15.4-19-.9-28-8.3-4.5-11.5-9.5-11.4-15 .1-5.5-3.7-29.1-19.4-22.1 0 0-.1-.3-1.2-.1 0 0-1.6-.6-1.1-.1-1.9 0-4.5.3-6.7 1.6-5.7 3.8-9.5 34.1 0 42z" class="st24"/><path id="Layer_26" d="M512.1 156.7c-.1 0 5.2 2.7 9.1 1.7 3.7-1 6.1-5.8 6.1-5.8-1.6-.3-2-2.5-2-11.7l-.7.1-11.5 2.3-.4.1s.3 3.7.3 7.3c0 .7 0 1.5 0 2.2-.2 1.9-.4 3.5-.9 3.8z" class="st25"/><path id="Layer_25" d="M525.8 139.6s3.5-5.5 4.3-10.2c.6-3.4-1.1-15.9-13.7-14.1 0 0-3.6.4-7.1 2.7-2.7 1.8-6.7 5.8-2.3 16.7l1.1 3.7 17.7 1.2z" class="st24"/><path id="Layer_24" d="M511.9 148.8s15.6-2.1 14.2-11.8c-1.4-9.7-.4-16.5-10.4-15.6-10 .9-11.4 4.9-11.7 8.3-.4 3.4 3.8 19.4 7.9 19.1z" class="st25"/><path id="Layer_23" d="M508.6 121.9s6 10.8 12.8 11.5 9.4-1.5 9.4-1.5-3.3-4.3-5.4-11.1c-.1 0-14.4-4.9-16.8 1.1z" class="st24"/><path id="Layer_22" d="M509.8 123s-2.8 3-3.2 5.6c-.4 2.6-3.6 8.3-5.1 8.4 0 0-2.9-7.6.1-12.6 3.1-5.2 8.2-1.4 8.2-1.4z" class="st24"/><path id="Layer_21" d="M429.8 242.4c5.7 0 10.7 1.9 14.6 5.1 2.2 1.8 5.6.6 6.2-2.2l6.7-31.3c1-4.6 5.5-7.5 10-6.5L576.2 231c4.5 1 7.3 5.3 6.3 9.8l-23.4 108.8c-1 4.6-5.6 7.6-10.2 6.6l-30.3-6.5c-3.9-.8-5.5-5.6-2.9-8.6 2.5-2.9 4.4-6.5 5.2-10.6 2.2-11.6-4.9-23-16.3-26.1a22.7 22.7 0 00-28.1 17.1c-1 4.7-.5 9.5 1.3 13.6 1.1 2.7-1.2 5.6-4.1 5l-33.4-7.2c-4.6-1-7.5-5.5-6.5-10l6.7-31.1a4 4 0 00-4.9-4.7 22.67 22.67 0 01-26-31.9c3.4-7 12.5-12.8 20.2-12.8z" class="st7"/><path id="Layer_20" d="M469.6 201.1s-6.8 1.1-8.6 5.5.7 7.4 1.7 7.4 2.8-.7 3.6-3c.9-2.3 3.3-9.9 3.3-9.9z" class="st25"/><path id="Layer_19" d="M563.1 220.8s-7.6 0-10.4 4.5c-2.7 4.5-.6 8.2.5 8.4 1 .2 3.2-.3 4.5-2.6 1.4-2.4 5.4-10.3 5.4-10.3z" class="st25"/><path id="Layer_18" d="M469.4 206.2c.7-.1 3.6-.5 7.4-1.1 6.9-1.1 16.6-3 19.8-6 .9-.8 2.9-5.3 5-10.4 2.1 11.3 2.3 20 1.7 26.6l46.8 10.1c-4-8.1-10.2-18.2-9.1-26.3.4-3 2.1-7.2 2.7-11.8.1-.4.1-.8.1-1.2 6.6 5.4 14.1 11.4 14.3 12.6.3 2-4.8 24.1-4.8 24.1 1.3 2.9 6.8 2.3 6.8 2.3 5.2-3.7 12.8-24.6 12.1-29.2-.6-4.6-19.4-31-24-37.3-4.5-6.2-20.9-6.1-21.3-6.1-13.1 7.8-14.2 1.3-14.2 1.3s-11.8 2.2-13.8 5.7-10.9 29.9-11.5 30.8c-1.3 1.9-22.8 9.7-23.2 12-.3 2.3 3.3 4.3 5.2 3.9z" class="st26"/><g id="Layer_17"><path d="M231.2 533h28.7c-.7-.8-1.8-1.5-3.6-1.8-4.4-.7-12.1-3.3-13.8-8.9-.1-.2-.1-.4-.1-.6-1.4-6-11.2 1.8-11.2 1.8s0 .2-.1.7c-.2 1.7-.6 6.3.1 8.8z" class="st27"/><linearGradient id="SVGID_9_" x1="213.31" x2="255.144" y1="447.416" y2="447.416" gradientUnits="userSpaceOnUse"><stop offset="0" stop-color="#3a77bc"/><stop offset="1" stop-color="#2b4057"/></linearGradient><path fill="url(#SVGID_9_)" d="M255.1 373s-1.5 18.7-3.3 41.1c-2.4 30.5-5.3 68-5.6 75.1-.5 12.3-2.5 32-2.5 32s-4.7 4.7-14 2.7c0 0-8.3-28.1-10.7-57.9 0-.5-.1-1-.1-1.5-2.2-30.3-5.7-94.1-5.7-94.1l41.9 2.6z"/></g><g id="Layer_16"><path d="M165.1 518.8c1 3.3 5.5 5.5 6.2 9.6.3 2 1 3.5 2 4.6h14.2c-.1-.8-.8-1.6-2.6-2-3.9-.9-5.4-5.6-5.2-10.1.1-1.9.1-4 0-5.8-.1-2.5-.3-4.5-.3-4.5l-8.4-2-.9 1.1-.8 1.1c-.1 0-5.2 4.6-4.2 8z" class="st27"/><linearGradient id="SVGID_10_" x1="169.192" x2="248.306" y1="439.164" y2="439.164" gradientUnits="userSpaceOnUse"><stop offset="0" stop-color="#3a77bc"/><stop offset="1" stop-color="#2b4057"/></linearGradient><path fill="url(#SVGID_10_)" d="M248.3 375.2s-27 67.7-44.7 99.4c-17.7 31.8-23.3 40.7-23.3 40.7s-10.2-4.1-11.1-6.8c0 0 6.8-61.4 18.7-76.3 6.7-8.5 14.6-33.8 15-42.7.4-8.9 2.4-26.4 2.4-26.4l43 12.1z"/></g><g id="Layer_15"><path fill="#a26e3c" d="M300.1 281.7l3.7-2.3s4.6-6.8 12.5-2.6c0 0 3.1 2 1 3.7-2.1 1.7-1.5.7-4.4 3.1-2.9 2.4-6.7 3.3-9.1 1.9l-3.1-.3-.6-3.5z"/><path d="M304.5 282.4c-1-3-1.4-3.3-1.4-3.3s-30 3.5-32.8 3.8c-2.8.2-42.1-7.9-42.1-7.9l-18.5 22.5s54.7 2.1 61.8 1.4c11.8-1.1 33.3-12.1 33.3-12.1s.5-2.1-.3-4.4z" class="st10"/></g><g id="Layer_14"><path d="M234.5 270.8c1.2-7.1 1.2-11.3 1.2-11.3l-13.7-11c.5 15.2-9.2 22.5-9.2 22.5s18.2 9 28.8 5.7c0-.1-2.6-3.4-7.1-5.9z" class="st25"/><path d="M203.2 366.5c-.1 1.2 2.3 2.4 3.4 2.9 7.8 3.5 15.1 5.9 23.4 6.7 9.8 1 21.3-1.2 25.3-1.1.4 0 .8-.2 1.1-.4.3-.2.5-12.1.3-27.2 0-.6 0-1.2-.1-1.8v-.2c0-1.6 0-3.2-.1-4.8a623.03 623.03 0 00-1.7-32.3c-.6-6-1.3-11.2-2.2-14.9-2.1-8.5-7-14.1-11.4-18.2l-3.6-3.2c-3.6.7-7.5.5-11.4-1.4-4.2-2.1-8.7-4.3-9.5-3.8-5.6 4.2-9.4 13.8-11.4 25.9-1 6.5-1.6 13.8-1.5 21.4 0 2.9.1 5.9.3 8.9.9 16 0 29.9-.6 38-.2 2.3-.3 4.2-.3 5.5z" class="st31"/></g><path id="Layer_13" d="M356.6 359.8c-2.1-5.3-2.1-10.7-.5-15.5.9-2.7-1.4-5.4-4.3-5l-31.7 5c-4.6.7-9-2.4-9.7-7L293 227.1a8.4 8.4 0 016.9-9.5L410 200.1a8.6 8.6 0 019.8 7.1l4.9 30.7c.6 4-3.2 7.2-7 5.8-3.7-1.3-7.7-1.7-11.8-1a22.78 22.78 0 00-18.5 24.7c1.4 13 13.4 22.1 26.1 20.1 4.8-.8 9-3 12.3-6.1a3.6 3.6 0 016.1 2l5.4 33.8c.7 4.6-2.4 9-7 9.7l-31.5 5c-2.9.5-4.3 3.8-2.6 6.2 2 2.8 3.4 6 3.9 9.6 2.2 14.1-9.1 27.3-24.4 26.2-7.6-.5-16.3-6.9-19.1-14.1z" class="st15"/><g id="Layer_12"><path d="M300 307.1l4.5-.7s5.2-7.5 14.2-3.3c0 0 3.6 2 1.2 3.9-2.4 1.9-1.7.8-5 3.5s-7.5 3.8-10.3 2.5l-3.5-.2-1.1-5.7z" class="st25"/><path d="M303.4 309.4c-.1-3.3-1.9-3.7-1.9-3.7s-34.3-2.3-37.3-2.8c-3-.6-30.3-23.2-30.3-23.2s-10.6-9.5-18-6.3c-6.4 2.8-8.4 8.3-8.8 13.3-.4 6 3 11.7 8.5 14.2 12.3 5.7 36.8 17 42.4 18 12.4 2.2 44.4-4.8 44.4-4.8s1.2-2.1 1-4.7z" class="st2"/></g><g id="Layer_11"><linearGradient id="SVGID_11_" x1="444.265" x2="595.845" y1="454.418" y2="454.418" gradientUnits="userSpaceOnUse"><stop offset="0" stop-color="#f16a7e"/><stop offset="1" stop-color="#dd2376"/></linearGradient><path fill="url(#SVGID_11_)" d="M595.8 529l-31.1-141.4h8.6c2 0 3.7-1.7 3.7-3.7v-4.8c0-2-1.7-3.7-3.7-3.7H464.5c-2 0-3.7 1.7-3.7 3.7v4.8c0 2 1.7 3.7 3.7 3.7h11L444.3 529c-.4 1.9.8 3.8 2.7 4.2 1.9.4 3.8-.8 4.2-2.7l31.5-142.9h74.7l31.5 142.9c.4 1.9 2.3 3.1 4.2 2.7 1.9-.4 3.1-2.3 2.7-4.2z"/></g><path id="Layer_10" d="M442.2 490.9c-5.6 1.2-10.9.4-15.3-1.9-2.6-1.3-5.6.6-5.6 3.4v32.1c0 4.7-3.8 8.5-8.5 8.5H301.2c-4.6 0-8.3-3.7-8.3-8.3V413.2c0-4.7 3.8-8.6 8.6-8.6h31.1c4 0 6.6 4.3 4.6 7.8-1.9 3.4-2.9 7.3-2.8 11.5.3 11.8 9.7 21.5 21.5 22.1 13.1.7 23.9-9.7 23.9-22.7 0-4.9-1.5-9.4-4.1-13.1-1.7-2.4 0-5.7 3-5.7h34.2c4.7 0 8.5 3.8 8.5 8.5v31.9c0 2.9 3.1 4.9 5.7 3.5 3-1.5 6.5-2.4 10.1-2.4 14.3 0 25.5 13.3 22.1 28.2-1.8 7.5-9.6 15.1-17.1 16.7z" class="st31"/><g id="Layer_9"><path d="M622.7 517.7s-2.9 7.7-11.5 10.3c0 0-6.8 2.3-6.5 6.9 0 0 11.8-.3 14.8-.3 2.3 0 5 .7 6.9 1.3 1.5.5 3.1-.7 3.4-2.7.1-.9.3-1.9.4-3.1.4-3.3.4-13.2.4-13.2l-7.9.8z" class="st24"/><path d="M619.5 517.2s6.7 6.5 12.9.4c0 0 7.8-23.5 11-44.6 1-6.9 1.6-13.5 1.2-19-1.5-22.4 3.9-60.8 8.9-81.7l-32.7 5.9s.7 27.5.6 61.8c-.2 24.7-.6 53-1.9 77.2z" class="st26"/></g><g id="Layer_8"><path d="M659.6 514.5s-1.2 8.4-8.9 13.5c0 0-6.1 4.3-4.9 8.7 0 0 11.3-4 14.3-4.9 2.2-.7 4.9-.9 6.9-.9 1.6 0 2.8-1.7 2.7-3.6 0-.9-.1-2-.2-3.1-.3-3.3-2.4-12.9-2.4-12.9l-7.5 3.2z" class="st24"/><path d="M656.4 515s7.8 4.2 12.5-3.6c0 0 2.7-25.2 1.4-46.6-.4-7-1.3-13.5-2.8-18.7-6.1-21.1-8.9-60-8.4-81.8l-30.4 15.9s6.4 26.4 13.4 59.6c5.1 23.9 10.6 51.4 14.3 75.2z" class="st31"/></g><g id="Layer_7"><path fill="#ebf7fd" stroke="#b9dae8" stroke-miterlimit="10" stroke-width="2" d="M565 364.2l-2.3 3s-8.6-.9-8.1 8.9c0 0 .5 4.1 3 3.5 2.5-.6 1.4-.8 5-1.6s6.1-3.4 5.9-6.4l1.1-2.9-4.6-4.5z"/><linearGradient id="SVGID_12_" x1="563.369" x2="640.76" y1="331.795" y2="331.795" gradientUnits="userSpaceOnUse"><stop offset="0" stop-color="#3a77bc"/><stop offset="1" stop-color="#2b4057"/></linearGradient><path fill="url(#SVGID_12_)" d="M566.5 369.2c-2.9-1.8-3.1-3.7-3.1-3.7s21.3-28.3 23.6-30.7c1.5-1.7 16.9-23.8 23.5-36.7 3.3-6.4 9.4-5.7 16.3-5.4l5.7.2c6.9.3 10.7 8.8 6.5 14.5-11.8 15.9-33.1 35.7-37 39.7-9.7 10-30 24-30 24s-3-.3-5.5-1.9z"/></g><g id="Layer_6"><linearGradient id="SVGID_13_" x1="465.407" x2="601.98" y1="409.524" y2="409.524" gradientUnits="userSpaceOnUse"><stop offset="0" stop-color="#f27789"/><stop offset="1" stop-color="#ef4b7d"/></linearGradient><path fill="url(#SVGID_13_)" d="M562.5 343.6c.7 5.6-.5 10.8-3.1 15.1-1.5 2.4.1 5.6 3 5.8l31.9 2.6c4.6.4 8.1 4.4 7.7 9.1l-8.9 111c-.4 4.5-4.3 7.9-8.9 7.6l-110.9-8.9c-4.7-.4-8.2-4.5-7.9-9.2l2.5-30.9c.3-4 4.8-6.2 8.2-4 3.2 2.1 7.1 3.5 11.2 3.7a22.65 22.65 0 003.1-45.2c-4.8-.4-9.4.8-13.3 3.1-2.5 1.5-5.7-.5-5.4-3.4l2.7-34c.4-4.6 4.4-8.1 9.1-7.7l31.7 2.5c2.9.2 5.1-2.7 4-5.4-1.3-3.2-1.9-6.6-1.6-10.3 1.1-14.2 15.2-24.3 29.8-19.7 7.2 2.3 14.1 10.6 15.1 18.2z"/></g><g id="Layer_5"><path d="M621.9 297.8c10.5 1.6 15.2-10.6 15.2-10.6s-10.3-5.5-12.1-19.9l-5.5 6-5.9 6.5s.4 2.5 1.7 6.8c.3 1.1.7 2.3 1.2 3.7 4.1 8.3 5.4 7.5 5.4 7.5z" class="st25"/><path d="M618.5 378.7c.6 1.5 2.2 1.6 2.6 1.7 4.8 1.8 18.3 6.1 25.6 4.3 6.1-1.5 10.1.7 15.5-3.1.7-.5 1.6-12.2 1.3-13.2-.2-1.1-3.6-67.7-30.8-85.8-.6-.4-3.7 2-6.6 4.1-2.6 2-6.7 3.8-9.6 3.4l-1.1 1.9c-2.7 4-6.2 15.9-4.2 23.4 1 3.8.4 7.2 1.1 10.6.3 1.3.5 2.5.8 3.7.5 2.4.9 4.6 1.3 6.8 1 5.9 1.7 11 2.2 15.5.5 4.8.7 8.8.9 12.2.2 4.4.2 7.7.3 10.2.1 2 .3 3.3.7 4.3z" class="st10"/></g><g id="Layer_4"><path d="M582.6 381.8l-2.8 2.8s-9.1-1.7-9.7 8.2c0 0 .1 4.1 2.8 3.8 2.8-.4 1.6-.7 5.5-1.1 4-.5 6.9-2.8 7.1-5.9l1.5-2.8-4.4-5z" class="st25"/><linearGradient id="SVGID_14_" x1="577.96" x2="644.169" y1="342.042" y2="342.042" gradientUnits="userSpaceOnUse"><stop offset="0" stop-color="#3a77bc"/><stop offset="1" stop-color="#2b4057"/></linearGradient><path fill="url(#SVGID_14_)" d="M582 388c-2.8-2.7-4.1-3.9-4.1-3.9s16-33 17.8-36c1.2-2.1 12.9-23.7 16.7-38.1 1.9-7.2 7.6-12.7 14.8-14.3l5.9-1.4c7.2-1.7 13.1 5.6 10.1 12.3-8.6 18.9-26.1 44.3-29.2 49.3-7.7 12.5-27.6 34.2-27.6 34.2s-2.2 0-4.4-2.1z"/></g><g id="Layer_3"><path fill="#0c294d" d="M635.8 249.4c0-9.1-10.2-12.2-18-12.2h-11.6c-2.3 0-4.2 1.9-4.2 4.2v.6c0 8.7 7.1 15.9 15.9 15.9l7.9 15s10-.6 10-23.5z"/><path d="M614.2 281.3h-1.3c-3.6 0-6.5-.8-6.5-4.4 0-1.3-.7-8.5-1.1-9.8-.4-1.4-2.5-16.3 3.3-16.3.5 0 .4 1.8 1.6 2.2 1.6.5 4.9-.1 6.5-1l.2-.1c2-1.2 4.3-1.7 6.5-1.4 2.9.4 4.6 4.4 4.7 9.7 0 .3 0 .6.1 1l.9 4.6c.1.4.1.8.1 1.2-.3 7.9-7 14.3-15 14.3z" class="st25"/></g><g id="Layer_2"><path d="M238.9 259.2s-17.4 2.9-19.1-8c-1.6-10.9-5-17.8 6.1-20.1 11.1-2.3 13.8 1.5 15.3 5 1.4 3.5 2.2 22.1-2.3 23.1z" class="st25"/><path d="M241.2 236.1s7.1-5.2 2.5-13.4c0 0-5.6 1.8-13.5 0s-15 .8-15.9 3.5c0 0-3.1 1.2-3.4 5.8-.3 4.6 8.9 19.1 8.9 19.1s2-2.5 1.4-4.1c-.5-1.7-2.2-5.5-.2-5.5 2.1 0 2.8 3.1 3.6 1.8.8-1.2-.7-6.4 1.8-7.2 2.6-.7 12 1.6 14.8 0z" class="st27"/><path d="M243.6 259.1s.2-9.3-1.4-9.3c-6.9 0-8.2 7.9-8.2 8-.4-.1-.9-.1-1.3-.2-7.3-1.6-7.6-16.3-7.6-16.3l-2.3 1.1s-.9 16.2 3 18.4c3.9 2.2 16.4 5.2 17.6 1.4.2-1 .3-2.1.2-3.1zm-7.3-1.1c-.4-3.1 2.6-5.6 4.7-6.6 1.3-.7 1.4 1.3 1.3 3s-.3 3.7-6 3.6z" class="st27"/></g></svg>