<?xml version="1.0" encoding="utf-8"?>
<!-- Generator: Adobe Illustrator 24.2.3, SVG Export Plug-In . SVG Version: 6.00 Build 0)  -->
<svg version="1.1" id="Layer_1" xmlns="http://www.w3.org/2000/svg" xmlns:xlink="http://www.w3.org/1999/xlink" x="0px" y="0px"
	 viewBox="0 0 2000 2000" style="enable-background:new 0 0 2000 2000;" xml:space="preserve">
<style type="text/css">
	.st0{opacity:0.35;}
	.st1{fill:#D9F0F8;}
	.st2{fill:#FFFFFF;}
	.st3{fill:url(#SVGID_1_);}
	.st4{fill:#91B2CC;}
	.st5{fill:url(#SVGID_2_);}
	.st6{fill:#BFD5DF;}
	.st7{fill:#D4DDF1;}
	.st8{fill:#C4D1EB;}
	.st9{fill:url(#SVGID_3_);}
	.st10{fill:#EBF7FD;stroke:#B9DAE8;stroke-miterlimit:10;}
	.st11{fill:url(#SVGID_4_);}
	.st12{fill:url(#SVGID_5_);}
	.st13{fill:url(#SVGID_6_);}
	.st14{fill:url(#SVGID_7_);}
	.st15{fill:#243962;}
	.st16{fill:#EBF7FD;stroke:#B9DAE8;stroke-width:2;stroke-miterlimit:10;}
	.st17{fill:url(#SVGID_8_);}
	.st18{fill:#2E3B65;}
	.st19{fill:url(#SVGID_9_);}
	.st20{fill:url(#SVGID_10_);}
	.st21{fill:#A26E3C;}
	.st22{fill:#CBE6F8;}
	.st23{fill:#A3D2F1;}
	.st24{fill:url(#SVGID_11_);}
	.st25{opacity:0.6;}
	.st26{fill:#4A9AD4;}
	.st27{fill:url(#SVGID_12_);}
	.st28{fill:url(#SVGID_13_);}
	.st29{fill:url(#SVGID_14_);}
	.st30{fill:url(#SVGID_15_);}
	.st31{fill:url(#SVGID_16_);}
	.st32{fill:url(#SVGID_17_);}
	.st33{fill:#1E3E70;}
	.st34{fill:url(#SVGID_18_);}
	.st35{fill:url(#SVGID_19_);}
</style>
<g class="st0">
	<g>
		<path class="st1" d="M265.2,852.5c45.3-61.7,98.7-118.6,160.1-169.1c61.4-50.5,127.3-91.6,195.9-123.5L265.2,852.5z"/>
		<path class="st1" d="M773.5,505.3c20.9-5.5,41.9-10.4,63.1-14.3l-683.8,562.1c8.3-20.3,17.6-40.2,27.3-60L773.5,505.3z"/>
		<path class="st1" d="M106.4,1199.4c3.7-16,7.8-31.9,12.4-47.7l819.2-673.4c16-1.1,32.1-1.8,48.1-2L106.4,1199.4z"/>
		<path class="st1" d="M1109.8,482.7L85.7,1324.6c1.4-13.9,3.1-27.8,5-41.7L1069,478.7C1082.7,479.8,1096.3,481.1,1109.8,482.7z"/>
		<path class="st1" d="M81.3,1436.4c-0.2-12.5-0.3-25,0-37.5l1100.3-904.6c12,2.4,23.9,5.2,35.7,8.2L81.3,1436.4z"/>
		<path class="st1" d="M88.3,1538.8c-1.4-11.5-2.6-23-3.6-34.6l1196.4-983.5c10.8,3.5,21.5,7.2,32.1,11.1L88.3,1538.8z"/>
		<path class="st1" d="M104.9,1633.4c-2.4-10.7-4.5-21.4-6.5-32.1L1370.6,555.4c9.8,4.4,19.6,8.8,29.2,13.5L104.9,1633.4z"/>
		<path class="st1" d="M129.4,1721.5c-3.3-9.9-6.2-20-9.1-30L1451.8,596.8c8.9,5.1,17.8,10.2,26.6,15.7L129.4,1721.5z"/>
		<path class="st1" d="M160.9,1803.7c-4.1-9.3-7.8-18.7-11.5-28L1525.8,644.2c8.1,5.8,16.2,11.6,24.2,17.6L160.9,1803.7z"/>
		<path class="st1" d="M238.6,1810.5h45.6L1615,716.5c-7.2-6.6-14.5-13.2-21.8-19.6L238.6,1810.5z"/>
		<path class="st1" d="M370.2,1810.5h45.6L1674.1,776.2c-6.5-7.2-13-14.4-19.7-21.3L370.2,1810.5z"/>
		<path class="st1" d="M501.8,1810.5h45.6l1180-970.1c-2.9-3.9-5.7-7.8-8.7-11.6c-3-3.8-6.2-7.4-9.2-11.2L501.8,1810.5z"/>
		<path class="st1" d="M633.4,1810.5h45.6l1096.3-901.2c-5.1-8.2-10.7-16.2-16.1-24.3L633.4,1810.5z"/>
		<path class="st1" d="M765,1810.5h45.6l1006.5-827.4c-4.5-8.8-9.1-17.4-13.9-26.1L765,1810.5z"/>
		<path class="st1" d="M896.6,1810.5h45.6l910.6-748.6c-3.7-9.4-7.5-18.7-11.5-28L896.6,1810.5z"/>
		<path class="st1" d="M1028.2,1810.5h45.6l808.1-664.3c-2.9-10-5.9-20.1-9.1-30L1028.2,1810.5z"/>
		<path class="st1" d="M1159.8,1810.5h45.6l698.4-574.1c-2.1-10.7-4.1-21.5-6.5-32.1L1159.8,1810.5z"/>
		<path class="st1" d="M1291.4,1810.5h45.6l580.4-477.1c-1-11.5-2.2-23.1-3.6-34.6L1291.4,1810.5z"/>
		<path class="st1" d="M1423,1810.5h45.6l452.3-371.8c0.3-12.5,0.2-25,0-37.5L1423,1810.5z"/>
		<path class="st1" d="M1554.7,1810.5h45.6l311.2-255.8c2-13.9,3.7-27.7,5-41.7L1554.7,1810.5z"/>
		<path class="st1" d="M1686.3,1810.5h45.6l151.5-124.6c4.5-15.8,8.6-31.7,12.4-47.7L1686.3,1810.5z"/>
		<path class="st1" d="M1817.9,1810.5h20.3c3.9-8.6,7.7-17.2,11.3-25.9L1817.9,1810.5z"/>
	</g>
</g>
<g>
	<g>
		<path class="st1" d="M723.2,435.2c0-35.6-29-64.6-64.6-64.6H208c-35.7,0-64.5,28.9-64.5,64.6l1,774.7c0,35.6,29,64.6,64.6,64.6
			h450.6c35.7,0,64.5-28.9,64.5-64.6L723.2,435.2z"/>
		<path class="st2" d="M710.9,444.6c0-35.6-28.9-64.4-64.5-64.4H221.7c-35.5,0-64.3,28.8-64.3,64.4l1,753.3
			c0,35.6,28.9,64.4,64.5,64.4h424.7c35.6,0,64.3-28.8,64.3-64.4L710.9,444.6z"/>
		<g>
			<path class="st1" d="M325.6,410.8c0,5.1-4.2,9.3-9.3,9.3s-9.3-4.2-9.3-9.3c0-5.1,4.2-9.3,9.3-9.3S325.6,405.7,325.6,410.8z"/>
			<path class="st1" d="M506,420.7H363.4c-5.3,0-9.6-4.3-9.6-9.6l0,0c0-5.3,4.3-9.6,9.6-9.6H506c5.3,0,9.6,4.3,9.6,9.6l0,0
				C515.6,416.4,511.2,420.7,506,420.7z"/>
		</g>
	</g>
	<g>
		<linearGradient id="SVGID_1_" gradientUnits="userSpaceOnUse" x1="462.4252" y1="574.1144" x2="559.4504" y2="574.1144">
			<stop  offset="0" style="stop-color:#3A77BC"/>
			<stop  offset="1" style="stop-color:#2B4057"/>
		</linearGradient>
		<path class="st3" d="M476.9,493.6l-14.5,39.7c43.2,15.8,65.5,63.6,49.7,106.8l39.7,14.5C575.6,589.5,542,517.4,476.9,493.6z"/>
		<path class="st4" d="M380.9,497.8l17.8,38.3c20.8-9.7,43.7-10,63.7-2.7l14.5-39.7C446.7,482.6,412.3,483.1,380.9,497.8z"/>
		<path class="st1" d="M316,568.5l39.7,14.5c7.9-21.6,23.8-38,43.1-47l-17.8-38.3C351.8,511.3,327.8,536,316,568.5z"/>
		<path class="st1" d="M390.9,729.5l14.5-39.7c43.2,15.8,91-6.5,106.8-49.7l39.7,14.5C528.1,719.7,456,753.3,390.9,729.5z"/>
		<linearGradient id="SVGID_2_" gradientUnits="userSpaceOnUse" x1="320.0761" y1="688.1008" x2="405.3435" y2="688.1008">
			<stop  offset="0" style="stop-color:#F16A7E"/>
			<stop  offset="1" style="stop-color:#DD2376"/>
		</linearGradient>
		<path class="st5" d="M320.1,664.5l38.3-17.8c9.7,20.9,26.9,35.8,47,43.1l-14.5,39.7C360.7,718.5,334.7,696,320.1,664.5z"/>
		<path class="st4" d="M316,568.5l39.7,14.5c-7.9,21.6-6.3,44.4,2.7,63.7l-38.3,17.8C306.5,635.4,304.1,601.1,316,568.5z"/>
	</g>
	<g>
		<rect x="236.3" y="867.5" class="st1" width="30.4" height="86.9"/>
		<rect x="297.1" y="831.2" class="st1" width="30.4" height="123.2"/>
		<rect x="327.5" y="872.3" class="st6" width="30.4" height="82.1"/>
		<rect x="357.9" y="852.2" class="st1" width="30.4" height="102.3"/>
		<rect x="388.3" y="831.2" class="st6" width="30.4" height="123.2"/>
		<rect x="418.7" y="804.6" class="st1" width="30.4" height="149.9"/>
		<rect x="266.7" y="809.7" class="st6" width="30.4" height="144.7"/>
		<rect x="479.5" y="831.2" class="st1" width="30.4" height="123.2"/>
		<rect x="509.9" y="872.3" class="st6" width="30.4" height="82.1"/>
		<rect x="540.3" y="852.2" class="st1" width="30.4" height="102.3"/>
		<rect x="570.7" y="831.2" class="st6" width="30.4" height="123.2"/>
		<rect x="601.1" y="804.6" class="st1" width="30.4" height="149.9"/>
		<rect x="449.1" y="809.7" class="st6" width="30.4" height="144.7"/>
	</g>
	<g>
		<rect x="235.2" y="1015.7" class="st1" width="397.4" height="19.6"/>
		<rect x="235.2" y="1057.9" class="st1" width="397.4" height="19.6"/>
		<rect x="235.2" y="1100.2" class="st1" width="397.4" height="19.7"/>
		<rect x="235.2" y="1142.5" class="st1" width="397.4" height="19.6"/>
	</g>
</g>
<g>
	<g>
		<g>
			<g>
				<path class="st7" d="M1717.1,1571.3c-3.8,8.7-9.2,16.8-14.5,24.7c-7.6,11.5-15.6,22.7-23.5,34c-9.6,13.6-19.1,27.3-28.4,41.2
					c-10,14.9-19.6,29.9-28.7,45.4c-9.1,15.4-17.6,31.2-24.9,47.6c-0.8,1.8-1.6,3.7-2.4,5.6c-0.1,0.3,0.3,0.4,0.5,0.2
					c7.4-16.2,15.5-32.1,24.4-47.5c9-15.6,18.6-30.7,28.5-45.7c9.3-14,18.9-27.8,28.5-41.6c8.1-11.6,16.3-23.2,24.2-35
					c5.6-8.4,11.3-16.9,15.6-26.1c0.4-0.8,0.7-1.6,1.1-2.4C1717.7,1571.2,1717.2,1570.9,1717.1,1571.3L1717.1,1571.3z"/>
			</g>
		</g>
		<path class="st6" d="M1741.5,1548.2c-2.4,4.4-6.4,6.5-11.2,9.6c1.6-8.2,2.2-18.6-0.8-21c-2.6-2-9.2,5.1-14.5,14.7
			c-4.8-14.8-1.7-19.3-4.2-19.5c-5.9-0.4-18.6,44.3,0.5,54c24.6,4,33.6-33.2,33.6-33.2C1746.4,1546.5,1745.1,1541.5,1741.5,1548.2z"
			/>
		<g>
			<path class="st8" d="M1717.5,1545.1c-0.9,1-0.9,2.5,0.1,3.4c0.9,0.9,2.4,0.9,3.2-0.1c0.9-1,0.9-2.5-0.1-3.4
				C1719.9,1544.1,1718.4,1544.2,1717.5,1545.1z"/>
			<path class="st8" d="M1731.6,1546.5c-0.9,1-0.9,2.5,0.1,3.4c0.9,0.9,2.4,0.9,3.2-0.1c0.9-1,0.9-2.5-0.1-3.4
				C1734,1545.5,1732.5,1545.5,1731.6,1546.5z"/>
			<path class="st8" d="M1720.5,1536.2c-0.9,1-0.9,2.5,0.1,3.4c0.9,0.9,2.4,0.9,3.2-0.1c0.9-1,0.9-2.5-0.1-3.4
				C1722.9,1535.3,1721.4,1535.3,1720.5,1536.2z"/>
			<path class="st8" d="M1733.4,1542.3c-0.5,0.5-0.5,1.4,0,1.9c0.5,0.5,1.4,0.5,1.9,0c0.5-0.5,0.5-1.4,0-1.9
				C1734.7,1541.8,1733.9,1541.8,1733.4,1542.3z"/>
			<path class="st8" d="M1715.1,1540.2c-0.5,0.5-0.5,1.4,0,1.9c0.5,0.5,1.4,0.5,1.9,0c0.5-0.5,0.5-1.4,0-1.9
				C1716.4,1539.6,1715.6,1539.6,1715.1,1540.2z"/>
		</g>
	</g>
	<g>
		<g>
			<g>
				<path class="st7" d="M130.5,1642.7c6.2,6.9,13.8,12.7,21.1,18.4c10.8,8.3,21.8,16.3,32.8,24.3c13.2,9.6,26.5,19.2,39.5,29.1
					c14.1,10.7,28,21.7,41.5,33.2c13.4,11.4,26.3,23.4,38.4,36.2c1.4,1.5,2.8,3,4.3,4.5c0.2,0.2,0.6-0.1,0.4-0.4
					c-11.5-13.2-24.5-25.2-37.6-36.8c-13.3-11.7-27.1-22.8-41.2-33.5c-13.2-10.1-26.6-19.9-40-29.6c-11.3-8.2-22.7-16.3-33.9-24.8
					c-7.9-6-16-12-23-19.1c-0.6-0.6-1.2-1.2-1.8-1.9C130.7,1642,130.3,1642.4,130.5,1642.7L130.5,1642.7z"/>
			</g>
		</g>
		<path class="st6" d="M100.5,1628.8c3.7,3.4,8,3.9,13.6,5.2c-4-7.2-7.9-16.9-5.8-20.1c1.8-2.8,10.3,1.7,18.3,8.9
			c-0.1-15.7-4.5-18.8-2.1-19.9c5.5-2.4,31.4,35.5,16.5,51.2c-22,12.2-42.2-19.9-42.2-19.9C95.4,1628.9,95.1,1623.7,100.5,1628.8z"
			/>
		<g>
			<path class="st8" d="M122.3,1617.7c1.1,0.6,1.6,2,1,3.2c-0.6,1.2-2,1.7-3.1,1.1c-1.1-0.6-1.6-2-1-3.2
				C119.8,1617.6,121.2,1617.1,122.3,1617.7z"/>
			<path class="st8" d="M109.4,1623.8c1.1,0.6,1.6,2,1,3.2c-0.6,1.2-2,1.7-3.1,1.1c-1.1-0.6-1.6-2-1-3.2
				C106.9,1623.7,108.3,1623.2,109.4,1623.8z"/>
			<path class="st8" d="M116.7,1610.3c1.1,0.6,1.6,2,1,3.2c-0.6,1.2-2,1.7-3.1,1.1c-1.1-0.6-1.6-2-1-3.2
				C114.2,1610.2,115.5,1609.7,116.7,1610.3z"/>
			<path class="st8" d="M106.5,1620.5c0.6,0.3,0.9,1.2,0.6,1.8c-0.3,0.7-1.1,0.9-1.8,0.6c-0.6-0.3-0.9-1.2-0.6-1.8
				C105,1620.4,105.8,1620.1,106.5,1620.5z"/>
			<path class="st8" d="M123.1,1612.2c0.6,0.3,0.9,1.2,0.6,1.8s-1.1,0.9-1.8,0.6c-0.6-0.3-0.9-1.2-0.6-1.8
				C121.6,1612.1,122.4,1611.8,123.1,1612.2z"/>
		</g>
	</g>
	<g>
		<path class="st6" d="M367.1,1780c0,0-86.1-255.4-196.3-315.2c-23.2-12.6-39.4-17.2-49.4-15.7c-37.7,5.7,13,94.2,93.8,180.4
			c82.9,88.4,77,96.3,124.3,160.8"/>
		<path class="st2" d="M121.3,1456.1c20.1,18.5,39.2,38.4,57.3,59.4c0.3-14.2-2.5-27.9-4.2-41.9c-0.1-0.9,1.2-1.6,1.6-0.6
			c5.1,12.6,7.5,31.1,4.8,45c12.7,14.7,24.9,29.8,36.7,45.4c-0.1-6.1,0.5-12.2,0.6-18.3c0.2-11.1-1.8-21.6-3.4-32.6
			c-0.1-0.9,1.2-1.6,1.6-0.6c6.6,17.5,5,35.9,3.2,54.1c13.4,17.8,26.3,35.9,38.8,54.4c0.1-5.1,0.5-10.2,0.6-15.3
			c0.2-11.1-1.8-21.6-3.4-32.6c-0.1-0.9,1.2-1.6,1.6-0.6c6.3,16.8,5.1,34.4,3.4,51.9c10.5,15.7,20.7,31.6,30.6,47.5
			c0.1-4.9,0.5-9.8,0.6-14.7c0.2-11.1-1.8-21.6-3.4-32.6c-0.1-0.9,1.2-1.6,1.6-0.6c6.3,16.7,5.1,34.2,3.5,51.6c0.3,0.5,0.7,1,1,1.6
			c16.1,26.2,31.6,53,45.4,80.6c2.3,4.6,15.3,24.5,12.3,30.3c-0.6,1.2-2.2,0.1-1.7-1.1c0.7-1.4-4.1-10.2-4.9-11.9
			c-3.8-8.1-7.9-16.1-12.1-24c-12.9-24.6-27-48.5-41.6-72.1c-0.3-0.2-0.5-0.4-0.6-0.9c0,0,0,0,0-0.1c-1.5-2.4-3-4.9-4.5-7.3
			c-5-7.9-10-15.7-15.2-23.4c-2.1,0.6-4.5,0.6-6.7,0.5c-4.7-0.2-10.3-0.9-14.4-3.5c-0.8-0.5-0.3-1.6,0.5-1.6c6.3,0,12.6,2.3,19,2.2
			c-8.8-13.2-17.8-26.2-27-39c-1.8,0.4-3.8,0.4-5.6,0.3c-4.7-0.2-10.3-0.9-14.4-3.5c-0.8-0.5-0.3-1.6,0.5-1.6
			c5.9,0,11.6,1.9,17.5,2.1c-1.9-2.7-3.9-5.4-5.8-8c-14.8,5.2-37.6-6-47.2-16.9c-0.7-0.7,0.3-1.9,1.1-1.4
			c12.3,8,29.1,18.8,44.7,16.3c-10.8-14.6-21.9-29-33.2-43.1c-14.8,4.7-37.1-6.4-46.6-17c-0.7-0.7,0.3-1.9,1.1-1.4
			c12.1,7.9,28.6,18.5,43.9,16.4c-25-31-51.2-61-78.7-90.1C119.3,1456.5,120.5,1455.4,121.3,1456.1z"/>
	</g>
	<g>
		<path class="st6" d="M1593.4,1792.3c0,0,180.1-194.7,304.1-201c26.1-1.3,42.7,1.5,51.2,7.2c32,21.6-49.4,80-157.2,123.1
			c-110.5,44.2-108.4,54-177.1,92"/>
		<path class="st2" d="M1946,1604.9c-25.6,8.1-50.9,17.9-75.8,29c5.4-13,13.4-24.2,20.5-36.3c0.5-0.8-0.4-2-1.2-1.2
			c-9.7,9.2-19.2,25-22.3,38.9c-17.4,7.8-34.5,16.3-51.4,25.3c2.5-5.5,4.4-11.3,6.7-16.9c4.3-10.2,10.3-18.9,16.1-28.1
			c0.5-0.8-0.5-2-1.2-1.2c-13,13-18.8,30.5-24.5,47.8c-19.3,10.3-38.3,21.2-56.9,32.5c2-4.7,3.6-9.5,5.5-14.2
			c4.3-10.2,10.3-18.9,16.1-28.1c0.5-0.8-0.5-2-1.2-1.2c-12.4,12.5-18.3,29-23.8,45.7c-15.8,9.7-31.4,19.7-46.7,29.9
			c1.9-4.5,3.4-9.2,5.3-13.7c4.3-10.2,10.3-18.9,16.1-28.1c0.5-0.8-0.5-2-1.2-1.2c-12.4,12.4-18.3,28.8-23.7,45.4
			c-0.5,0.3-1,0.7-1.5,1c-25.1,16.8-49.8,34.4-73.4,53.5c-3.9,3.2-23.6,15.6-23.2,22.2c0.1,1.3,2,1,1.9-0.3
			c-0.1-1.6,7.8-7.4,9.2-8.7c6.7-5.7,13.6-11.2,20.6-16.6c21.6-16.7,43.9-32.4,66.5-47.4c0.3,0,0.7-0.1,0.9-0.5c0,0,0,0,0-0.1
			c2.4-1.6,4.7-3.1,7.1-4.7c7.7-5,15.4-9.9,23.1-14.7c1.7,1.5,3.9,2.5,5.8,3.4c4.4,1.9,9.7,3.6,14.5,3.1c0.9-0.1,0.9-1.4,0.2-1.7
			c-5.8-2.7-12.4-3.4-18.1-6.3c13.2-8.2,26.6-16,40.1-23.7c1.5,1.1,3.3,2,4.9,2.7c4.4,1.9,9.7,3.6,14.5,3.1c0.9-0.1,0.9-1.4,0.2-1.7
			c-5.3-2.5-11.3-3.3-16.8-5.7c2.8-1.6,5.7-3.2,8.5-4.8c11.4,11.2,36.5,10.9,49.6,5.2c0.9-0.4,0.5-1.8-0.4-1.7
			c-14.3,1.9-34,4.4-47.1-4.7c15.6-8.6,31.5-16.8,47.4-24.7c11.6,10.7,36.3,10.4,49.2,4.8c0.9-0.4,0.5-1.8-0.4-1.7
			c-14.1,1.9-33.3,4.3-46.5-4.2c35.1-17.3,70.9-33.1,107.5-47.6C1947.7,1606.1,1947,1604.6,1946,1604.9z"/>
	</g>
	<g>
		<g>
			<path class="st1" d="M397.1,1800.6c0,0-24.8-322.2-126-324.2c-101.2-2,47.7,220.5,72.5,293.3c0,0-116.4-219.5-167-165.6
				c-50.6,53.9,95.6,129.5,131.3,179.3c0,0-224.2-163.5-231.8-60.1c-1.1,14.9,13.6,35.1,64.3,45.4c50.6,10.3,119.7,13.5,163.2,62.8"
				/>
			<g>
				<g>
					<path class="st2" d="M274.6,1512.6c9.7,16.5,18.2,33.7,25.9,51.2c8.6,19.6,16.3,39.5,23.4,59.7c7.4,20.8,14.1,41.9,20.5,63.1
						c6.2,20.6,11.9,41.4,17.3,62.2c4.9,18.7,9.4,37.6,13.8,56.4c0.5,2.1,1,4.1,1.5,6.2c0.1,0.5,0.8,0.3,0.7-0.2
						c-3.7-18.6-8.3-37.1-12.9-55.5c-5.3-20.8-10.9-41.5-16.9-62c-6.2-21.3-12.9-42.4-20.2-63.4c-7-20.2-14.6-40.3-23.1-60
						c-7.7-17.9-16.1-35.6-25.9-52.5c-1.1-1.9-2.2-3.7-3.3-5.6C275,1511.7,274.3,1512.1,274.6,1512.6L274.6,1512.6z"/>
				</g>
			</g>
			<g>
				<g>
					<path class="st2" d="M192.6,1623c12.1,10.9,23.6,22.3,34.8,34.1c11.8,12.5,23.2,25.4,34.3,38.5c11.2,13.3,22.1,26.8,32.7,40.6
						c10.2,13.3,20.1,26.7,29.8,40.3c8.9,12.5,17.6,25.2,26.1,38c1,1.5,2,2.9,3,4.4c0.3,0.4,0.9,0,0.6-0.4
						c-7.9-12.9-16.6-25.4-25.3-37.9c-9.6-13.6-19.4-27.1-29.4-40.3c-10.5-13.8-21.3-27.4-32.4-40.7c-11.1-13.3-22.4-26.2-34.3-38.8
						c-11.2-12-22.8-23.6-35-34.5c-1.4-1.3-2.9-2.6-4.3-3.8C192.8,1622,192.2,1622.6,192.6,1623L192.6,1623z"/>
				</g>
			</g>
			<g>
				<g>
					<path class="st2" d="M112.6,1721c12.5,1.9,24.9,4.6,37.1,7.8c14,3.7,27.8,8.3,41.3,13.4c15.2,5.8,30.1,12.4,44.7,19.7
						c15.8,8,31.2,16.7,46,26.3c16,10.3,31.5,21.6,46.3,33.5c1.9,1.5,3.8,3.1,5.7,4.6c0.4,0.3,0.9-0.2,0.5-0.5
						c-14.3-12.7-29.9-24.1-45.9-34.7c-15-10-30.4-19.2-46.4-27.4c-14.6-7.6-29.5-14.4-44.8-20.4c-13.8-5.5-27.9-10.2-42.2-14.2
						c-12.5-3.5-25.2-6.3-38-8.2c-1.4-0.2-2.9-0.4-4.3-0.6C112.3,1720.1,112,1720.9,112.6,1721L112.6,1721z"/>
				</g>
			</g>
		</g>
		<g>
			<path class="st1" d="M1541.6,1800.6c0,0,24.8-322.2,126-324.2c101.2-2-47.7,220.5-72.5,293.3c0,0,116.4-219.5,167-165.6
				c50.6,53.9-95.6,129.5-131.3,179.3c0,0,224.2-163.5,231.8-60.1c1.1,14.9-13.6,35.1-64.3,45.4c-50.6,10.3-119.7,13.5-163.2,62.8"
				/>
			<g>
				<g>
					<path class="st2" d="M1663.4,1512.1c-9.9,16.4-18.4,33.5-26.2,51c-8.6,19.5-16.4,39.4-23.5,59.5c-7.4,20.9-14.2,42-20.6,63.3
						c-6.2,20.6-11.9,41.4-17.3,62.3c-4.8,18.8-9.4,37.7-13.6,56.7c-0.5,2.1-0.9,4.2-1.3,6.3c-0.1,0.5,0.6,0.6,0.7,0.2
						c4.5-18.5,8.7-37,13.4-55.4c5.3-20.6,10.8-41.1,16.8-61.6c6.2-21.2,12.9-42.3,20.1-63.2c7.1-20.4,14.7-40.7,23.2-60.6
						c7.6-17.9,16-35.5,25.6-52.5c1.1-1.9,2.1-3.8,3.2-5.6C1664.4,1512.1,1663.7,1511.7,1663.4,1512.1L1663.4,1512.1z"/>
				</g>
			</g>
			<g>
				<g>
					<path class="st2" d="M1745.5,1622.4c-12.3,10.8-23.9,22.2-35.2,34c-11.9,12.4-23.3,25.3-34.4,38.4
						c-11.2,13.3-22.1,26.8-32.7,40.6c-10.2,13.3-20.2,26.8-29.9,40.5c-8.9,12.5-17.6,25.2-25.9,38.1c-0.9,1.5-1.9,3-2.8,4.5
						c-0.2,0.4,0.4,0.7,0.6,0.4c8.6-12.5,16.9-25.1,25.7-37.5c9.6-13.6,19.4-27.1,29.5-40.3c10.5-13.8,21.3-27.4,32.4-40.7
						c11-13.2,22.3-26.2,34.1-38.7c11.2-12,22.8-23.6,34.8-34.8c1.4-1.3,2.8-2.6,4.3-3.9C1746.5,1622.6,1745.9,1622,1745.5,1622.4
						L1745.5,1622.4z"/>
				</g>
			</g>
			<g>
				<g>
					<path class="st2" d="M1825.9,1720.2c-12.6,1.7-25,4.3-37.3,7.5c-14.2,3.7-28.2,8.2-41.9,13.5c-15.2,5.8-30,12.4-44.5,19.7
						c-15.9,8-31.3,16.8-46.2,26.5c-16,10.3-31.4,21.5-46,33.7c-1.9,1.6-3.7,3.1-5.5,4.7c-0.4,0.3,0.2,0.8,0.5,0.5
						c7.7-6.1,15.4-12.3,23.3-18.2c7.6-5.6,15.3-11.1,23.2-16.3c14.8-9.8,30.2-18.8,46-27c14.6-7.6,29.6-14.5,44.9-20.5
						c13.7-5.4,27.7-10.2,41.9-14.2c12.4-3.5,24.9-6.3,37.6-8.4c1.4-0.2,2.9-0.5,4.3-0.7C1826.6,1720.9,1826.4,1720.1,1825.9,1720.2
						L1825.9,1720.2z"/>
				</g>
			</g>
		</g>
	</g>
</g>
<g>
	<path class="st1" d="M93.3,1806.3c0,0,79.9,80.8,189.3,94.5c109.5,13.7,230.9-58.3,316.4-52.6c85.5,5.7,154.2,51.8,370.8-4.6
		c88.1-22.9,201.9,60.3,296.8,61.7c167,2.5,211.4-55.8,294-53.8c80.7,2,210.1,102.5,345.4-45.3"/>
	<linearGradient id="SVGID_3_" gradientUnits="userSpaceOnUse" x1="87.4723" y1="1806.3203" x2="1912.5933" y2="1806.3203">
		<stop  offset="0" style="stop-color:#3A77BC"/>
		<stop  offset="1" style="stop-color:#2B4057"/>
	</linearGradient>
	<path class="st9" d="M1908.4,1810.7H91.7c-2.3,0-4.2-2-4.2-4.4l0,0c0-2.4,1.9-4.4,4.2-4.4h1816.7c2.3,0,4.2,2,4.2,4.4l0,0
		C1912.6,1808.7,1910.7,1810.7,1908.4,1810.7z"/>
</g>
<g>
	<path class="st10" d="M1149.8,1396.1c-0.7,7-10.6,6.7-21.8,5.1c-11.2-1.7-8.3,1.3-24,1c-15.7-0.3-20.9-5.7-21.6-7.9
		c-0.6-2,7-3.4,15.2-5.1c1-0.2,2.1-0.4,3.1-0.7c9.2-2,15.5-8.6,23.5-14.3c7.6-5.4,12.7-30.2,12.7-30.2l22.3-0.1
		c0,0-7,22.4-10.7,30.2c-2.1,4.6,0.1,10.5,0.9,14.9C1149.7,1391.2,1150.1,1393.6,1149.8,1396.1z"/>
	
		<linearGradient id="SVGID_4_" gradientUnits="userSpaceOnUse" x1="1202.9774" y1="1395.4648" x2="1270.5229" y2="1395.4648" gradientTransform="matrix(-1 0 0 1 2352.8979 0)">
		<stop  offset="0" style="stop-color:#3A77BC"/>
		<stop  offset="1" style="stop-color:#2B4057"/>
	</linearGradient>
	<path class="st11" d="M1128,1401.2c-11.2-1.7-8.3,1.3-24,1c-15.7-0.3-20.9-5.7-21.6-7.9c-0.6-2,7-3.4,15.2-5.1l0.1,0.2
		c0,0,9.9,5.8,22.9,4.9c10.6-0.7,21.5-4.7,28.8-5.3c0.4,2.4,0.8,4.8,0.5,7.3C1149.1,1403.1,1139.2,1402.8,1128,1401.2z"/>
	<path class="st10" d="M1324.4,1395c-0.5,7-10.4,7.1-21.6,5.9c-11.2-1.3-8.2,1.6-23.9,1.9c-15.7,0.3-21.1-4.9-21.9-7.1
		c-0.7-2,6.9-3.7,15-5.7c1-0.2,2-0.5,3.1-0.8c9.1-2.4,15.1-9.2,22.9-15.2c7.4-5.7,1.3-29.3,1.3-29.3l16.9-8c0,0,2.3,24.3,3.6,36.6
		c0.5,5,3,10.1,3.9,14.5C1324.1,1390.1,1324.6,1392.5,1324.4,1395z"/>
	
		<linearGradient id="SVGID_5_" gradientUnits="userSpaceOnUse" x1="1028.4635" y1="1395.2228" x2="1095.9908" y2="1395.2228" gradientTransform="matrix(-1 0 0 1 2352.8979 0)">
		<stop  offset="0" style="stop-color:#3A77BC"/>
		<stop  offset="1" style="stop-color:#2B4057"/>
	</linearGradient>
	<path class="st12" d="M1302.8,1400.9c-11.2-1.3-8.2,1.6-23.9,1.9c-15.7,0.3-21.1-4.9-21.9-7.1c-0.7-2,6.9-3.7,15-5.7l0.1,0.1
		c0,0,10.1,5.4,23.1,4c10.5-1.1,21.3-5.6,28.5-6.4c0.5,2.4,0.9,4.8,0.8,7.3C1323.9,1402,1314,1402.1,1302.8,1400.9z"/>
	
		<linearGradient id="SVGID_6_" gradientUnits="userSpaceOnUse" x1="1031.3387" y1="1202.2628" x2="1151.9211" y2="1202.2628" gradientTransform="matrix(-1 0 0 1 2352.8979 0)">
		<stop  offset="0" style="stop-color:#3A77BC"/>
		<stop  offset="1" style="stop-color:#2B4057"/>
	</linearGradient>
	<path class="st13" d="M1286.3,1045.2c0,0,4.7,22.7,9.4,138c0,0,8.7,21.3,15,47.4c6.3,26.1,10.8,135,10.8,135s-2.5,3.6-10.2,4.1
		c-6.3,0.4-11.1-2.4-11.1-2.4s-44-142.6-65.4-197.9c-21.4-55.4-33.9-134.4-33.9-134.4L1286.3,1045.2z"/>
	
		<linearGradient id="SVGID_7_" gradientUnits="userSpaceOnUse" x1="1119.4272" y1="1192.6493" x2="1223.5176" y2="1192.6493" gradientTransform="matrix(-1 0 0 1 2352.8979 0)">
		<stop  offset="0" style="stop-color:#3A77BC"/>
		<stop  offset="1" style="stop-color:#2B4057"/>
	</linearGradient>
	<path class="st14" d="M1233.5,1054.9c0,0-3.5,22.9-39,132.7c0,0,0.8,23-2.3,49.7c-3.1,26.7-39,131.7-39,131.7s-4.8,1.7-11.9-0.2
		c-6.7-1.8-11.9-5.8-11.9-5.8s13.8-150.1,12.9-209.4c-0.9-59.3,14.7-137.8,14.7-137.8L1233.5,1054.9z"/>
	<path class="st15" d="M1170.6,844.8c-2.3-4.3-5.1-11.9-6.9-25.7c0.2,1.4,3.5,18.7,10.7,28.2c28.4,16.7,81.2,89.9,80.7,101.4
		c0,0,27.9-26.5,20.4-48.2c0,0,32.1-45.3-9.8-68.3c-21.3-11.7-22-28-21.9-42.2c0.2-14.2-9.4-74.8-50-56.8c0,0-6.8-2.6-9.7-2
		c0,0,2.5,0.3,3.8,1.6c-4.8,0-11.7,0.7-17.2,4.2C1155.9,746.4,1146.2,824.5,1170.6,844.8z"/>
	<path class="st16" d="M1179.5,839.5c-0.1,0.1,13.3,7,23.4,4.3c9.5-2.6,15.7-14.9,15.6-15c-4-0.8-5.2-6.3-5.1-30.1l-1.8,0.4
		l-29.5,5.9l-1.1,0.2c0,0,0.7,9.6,0.7,18.7c0,1.9,0,3.8-0.1,5.6C1181.4,834.7,1180.8,838.9,1179.5,839.5z"/>
	<path class="st15" d="M1214.7,795.7c0,0,9-14.2,11.1-26.3c1.5-8.7-2.9-40.8-35.2-36.2c0,0-9.4,0.9-18.2,6.9c-7,4.7-17.1,15-5.8,43
		l2.9,9.5L1214.7,795.7z"/>
	<path class="st16" d="M1179.1,819.4c0,0,40.2-5.3,36.5-30.3c-3.7-25-1-42.5-26.8-40.2c-25.8,2.3-29.4,12.6-30.2,21.3
		C1157.8,778.8,1168.6,820.1,1179.1,819.4z"/>
	<path class="st15" d="M1170.4,751c0,0,15.4,27.7,32.9,29.5c17.5,1.8,24.1-3.8,24.1-3.8s-14.5-8.3-19.8-25.9
		C1207.6,750.8,1176.7,735.8,1170.4,751z"/>
	<path class="st15" d="M1173.5,752.9c0,0-7.2,7.8-8.3,14.4c-1.1,6.7,0,19.9-3.9,20c0,0-11.2-18.7-3.6-31.4
		C1165.8,742.6,1173.5,752.9,1173.5,752.9z"/>
	
		<linearGradient id="SVGID_8_" gradientUnits="userSpaceOnUse" x1="991.8798" y1="1161.3871" x2="1442.4877" y2="1161.3871" gradientTransform="matrix(-1 0 0 1 2352.8979 0)">
		<stop  offset="0" style="stop-color:#3A77BC"/>
		<stop  offset="1" style="stop-color:#2B4057"/>
	</linearGradient>
	<path class="st17" d="M967.9,1059.9c14.6,0,27.5,5,37.4,13.1c5.7,4.6,14.3,1.6,15.8-5.6l17.3-80.4c2.5-11.7,14.1-19.2,25.8-16.7
		l280,60.3c11.5,2.5,18.7,13.7,16.3,25.2l-60.2,279.7c-2.6,11.9-14.3,19.5-26.2,16.9l-77.9-16.8c-10.1-2.2-14.2-14.4-7.4-22.1
		c6.5-7.5,11.3-16.8,13.3-27.4c5.7-29.7-12.7-59.1-41.9-67c-32.5-8.8-65.2,11.5-72.2,43.9c-2.6,12.2-1.2,24.3,3.3,35
		c3,6.9-3.1,14.3-10.5,12.7l-85.8-18.5c-11.7-2.5-19.2-14.1-16.7-25.8l17.2-79.9c1.6-7.4-5.2-13.9-12.5-12
		c-8.5,2.2-17.6,2.5-26.7,0.5c-35.9-7.7-56.9-47-40.1-82.5C924.7,1074.7,948.2,1059.9,967.9,1059.9z"/>
	<path class="st16" d="M1070.4,953.6c0,0-17.5,2.9-22,14.2s1.8,19,4.3,19c2.5,0,7.2-1.8,9.4-7.7
		C1064.2,973.2,1070.4,953.6,1070.4,953.6z"/>
	<path class="st16" d="M1310.8,1004.3c0,0-19.6,0-26.7,11.6c-7.1,11.6-1.5,21.1,1.2,21.6c2.7,0.4,8.2-0.7,11.6-6.8
		C1300.5,1024.6,1310.8,1004.3,1310.8,1004.3z"/>
	<path class="st4" d="M1069.9,966.8c1.7-0.4,9.3-1.3,19-2.8c17.8-2.8,42.6-7.7,50.9-15.4c2.3-2.1,7.5-13.6,13-26.7
		c5.5,29.1,5.8,51.4,4.4,68.4l120.3,25.9c-10.3-20.9-26.3-46.7-23.3-67.6c1.1-7.8,5.4-18.4,6.9-30.4c0.1-1,0.2-2.1,0.3-3.1
		c16.9,13.9,36.4,29.2,36.8,32.3c0.8,5.1-12.4,62-12.4,62c3.3,7.5,17.4,5.9,17.4,5.9c13.3-9.5,32.8-63.2,31.2-75.1
		c-1.6-11.9-50-79.7-61.7-95.9c-11.6-16-53.8-15.6-54.8-15.6h0c0,0,0,0,0,0c-33.6,20.2-36.6,3.4-36.6,3.4s-30.3,5.8-35.5,14.7
		c-5.2,9-28.1,76.9-29.7,79.3c-3.4,5-58.6,25-59.6,30.8C1055.6,962.7,1064.9,967.8,1069.9,966.8z"/>
</g>
<g id="man_2_">
	<g>
		<path class="st18" d="M287.4,1770.6c2.5,8.6,14.3,14.3,15.8,24.7c0.8,5.1,2.7,9.1,5.1,11.8h36.5c-0.4-2-2-4.2-6.7-5.2
			c-10.1-2.2-14-14.5-13.3-25.9c0.3-4.8,0.1-10.2-0.1-15c-0.3-6.5-0.9-11.7-0.9-11.7l-21.5-5.1l-2.3,2.9l-2.2,2.8
			C297.8,1750,284.8,1762,287.4,1770.6z"/>
		<path class="st18" d="M457.3,1807.1h73.8c-1.7-2-4.5-3.9-9.3-4.6c-11.4-1.8-31-8.4-35.4-23c-0.1-0.5-0.3-0.9-0.4-1.4
			c-3.5-15.5-28.8,4.8-28.8,4.8s-0.1,0.6-0.2,1.7C456.6,1788.9,455.6,1800.7,457.3,1807.1z"/>
		<linearGradient id="SVGID_9_" gradientUnits="userSpaceOnUse" x1="411.2588" y1="1587.092" x2="518.8312" y2="1587.092">
			<stop  offset="0" style="stop-color:#3A77BC"/>
			<stop  offset="1" style="stop-color:#2B4057"/>
		</linearGradient>
		<path class="st19" d="M518.8,1395.7c0,0-3.9,48-8.4,105.8c-6.2,78.4-13.5,174.8-14.3,193c-1.3,31.7-6.3,82.4-6.3,82.4
			s-12,12-36.1,7c0,0-21.5-72.4-27.6-148.9c-0.1-1.3-0.2-2.5-0.3-3.8c-5.7-78-14.6-242.1-14.6-242.1L518.8,1395.7z"/>
		<linearGradient id="SVGID_10_" gradientUnits="userSpaceOnUse" x1="297.8162" y1="1565.8733" x2="501.2485" y2="1565.8733">
			<stop  offset="0" style="stop-color:#3A77BC"/>
			<stop  offset="1" style="stop-color:#2B4057"/>
		</linearGradient>
		<path class="st20" d="M501.2,1401.4c0,0-69.4,174-115,255.7c-45.6,81.8-59.9,104.6-59.9,104.6s-26.1-10.5-28.5-17.6
			c0,0,17.4-157.8,48-196.3c17.3-21.7,37.5-87,38.5-109.8c1-22.8,6.2-68,6.2-68L501.2,1401.4z"/>
	</g>
	<path class="st16" d="M465.7,1132.9c3.1-18.2,3.2-29,3.2-29l-35.2-28.4c1.3,39-23.7,57.8-23.7,57.8s46.9,23.1,74,14.5
		C484,1147.8,477.3,1139.3,465.7,1132.9z"/>
	<path class="st16" d="M477.1,1103.2c0,0-44.8,7.4-49-20.5c-4.2-28-12.8-45.8,15.6-51.8c28.4-5.9,35.6,3.9,39.3,12.9
		C486.7,1052.8,488.7,1100.6,477.1,1103.2z"/>
	<g>
		<path class="st21" d="M634.5,1160.9l9.5-5.9c0,0,11.9-17.6,32.2-6.6c0,0,8,5.1,2.6,9.4c-5.4,4.3-3.9,1.9-11.4,8.1
			c-7.5,6.2-17.2,8.4-23.4,5l-8-0.8L634.5,1160.9z"/>
		<path class="st22" d="M645.8,1162.7c-2.5-7.7-3.6-8.4-3.6-8.4s-77.1,9.1-84.4,9.7c-7.3,0.5-108.2-20.3-108.2-20.3l-47.7,57.9
			c0,0,140.6,5.3,159,3.6c30.4-2.8,85.5-31.2,85.5-31.2S647.7,1168.8,645.8,1162.7z"/>
	</g>
	<path class="st23" d="M385.2,1378.9c-0.1,3,6,6.3,8.7,7.5c20.1,9,38.9,15.3,60.1,17.3c25.1,2.6,54.8-3.1,65-2.9
		c1.1,0,2-0.4,2.9-1.1c0.7-0.5,1.2-31.2,0.7-69.9c0-1.5,0-3.1-0.1-4.6v-0.5c0-4-0.1-8.1-0.2-12.3c-0.3-11.3-0.7-22.9-1.2-34.5
		c-0.7-17-1.7-33.7-3.1-48.5c-1.5-15.5-3.3-28.9-5.7-38.4c-5.4-21.9-17.9-36.3-29.3-46.9l-9.4-8.3c-9.4,1.9-19.3,1.4-29.2-3.5
		c-10.7-5.3-22.4-11-24.3-9.6c-14.5,10.8-24.2,35.4-29.2,66.6c-2.7,16.8-4,35.5-3.9,55.1c0,7.5,0.3,15.1,0.7,22.8
		c2.4,41.2-0.1,77-1.5,97.8C385.6,1370.9,385.3,1375.7,385.2,1378.9z"/>
	<path class="st23" d="M779.8,1361.8c-5.3-13.6-5.3-27.5-1.3-39.7c2.3-7-3.7-13.9-11-12.8l-81.4,12.9c-11.9,1.9-23-6.2-24.9-18.1
		l-45-283.6c-1.8-11.6,6.1-22.5,17.7-24.3l283.3-45c12-1.9,23.4,6.3,25.3,18.3l12.5,79c1.6,10.2-8.3,18.5-18,14.9
		c-9.4-3.4-19.8-4.4-30.4-2.5c-29.8,5.5-50.7,33.3-47.5,63.4c3.5,33.5,34.3,56.8,67.2,51.6c12.4-2,23.2-7.7,31.5-15.8
		c5.4-5.3,14.5-2.3,15.7,5.2l13.8,86.9c1.9,11.9-6.2,23-18.1,24.9l-80.9,12.9c-7.5,1.2-11.1,9.8-6.7,16c5.1,7.1,8.7,15.5,10.1,24.8
		c5.8,36.4-23.4,70.2-62.6,67.4C809.3,1396.8,787,1380.2,779.8,1361.8z"/>
	<g>
		<path class="st16" d="M634.1,1226.2l11.6-1.9c0,0,13.3-19.2,36.4-8.4c0,0,9.2,5.1,3.1,9.9c-6.1,4.8-4.5,2.2-12.9,9.1
			c-8.4,6.9-19.3,9.7-26.5,6.3l-9.1-0.5L634.1,1226.2z"/>
		<path class="st22" d="M643,1232.1c-0.4-8.6-4.9-9.5-4.9-9.5s-88.2-5.8-95.8-7.3c-7.6-1.5-77.9-59.7-77.9-59.7
			s-27.2-24.4-46.2-16.2c-16.5,7.2-21.7,21.3-22.6,34.3c-1,15.5,7.7,30,21.8,36.5c31.6,14.7,94.7,43.7,109,46.2
			c32,5.6,114.2-12.3,114.2-12.3S643.3,1238.9,643,1232.1z"/>
	</g>
	<path class="st18" d="M483,1043.8c0,0,18.2-13.5,6.3-34.4c0,0-14.3,4.7-34.6,0c-20.3-4.7-38.5,2-40.9,9.1c0,0-7.9,3.2-8.7,15
		c-0.8,11.9,23,49.2,23,49.2s5.1-6.3,3.7-10.7c-1.4-4.3-5.7-14-0.4-14s7.1,7.9,9.3,4.7c2.2-3.2-1.8-16.4,4.5-18.6
		C451.6,1042,475.9,1047.8,483,1043.8z"/>
</g>
<linearGradient id="SVGID_11_" gradientUnits="userSpaceOnUse" x1="1005.1295" y1="1605.0972" x2="1394.8971" y2="1605.0972">
	<stop  offset="0" style="stop-color:#F16A7E"/>
	<stop  offset="1" style="stop-color:#DD2376"/>
</linearGradient>
<path class="st24" d="M1394.7,1797l-80.1-363.6h22c5.2,0,9.5-4.3,9.5-9.5v-12.3c0-5.2-4.3-9.5-9.5-9.5H1057c-5.2,0-9.5,4.3-9.5,9.5
	v12.3c0,5.2,4.3,9.5,9.5,9.5h28.4l-80.1,363.6c-1.1,4.9,2,9.8,6.9,10.8c4.9,1.1,9.7-2,10.8-6.9l80.9-367.5h192l80.9,367.5
	c1.1,4.9,5.9,8,10.8,6.9l0,0C1392.7,1806.8,1395.8,1801.9,1394.7,1797z"/>
<g class="st25">
	<path class="st26" d="M831.3,178.3c0,1.9-1.6,3.5-3.5,3.5h-12c-1.9,0-3.5-1.6-3.5-3.5s1.6-3.5,3.5-3.5h12
		C829.7,174.8,831.3,176.4,831.3,178.3z M796.3,178.3c0,1.9-1.6,3.5-3.5,3.5h-12c-1.9,0-3.5-1.6-3.5-3.5s1.6-3.5,3.5-3.5h12
		C794.7,174.8,796.3,176.4,796.3,178.3z M761.3,178.3c0,1.9-1.6,3.5-3.5,3.5h-12c-1.9,0-3.5-1.6-3.5-3.5s1.6-3.5,3.5-3.5h12
		C759.7,174.8,761.3,176.4,761.3,178.3z M726.3,178.3c0,1.9-1.6,3.5-3.5,3.5h-12c-1.9,0-3.5-1.6-3.5-3.5s1.6-3.5,3.5-3.5h12
		C724.7,174.8,726.3,176.4,726.3,178.3z M691.3,178.3c0,1.9-1.6,3.5-3.5,3.5h-12c-1.9,0-3.5-1.6-3.5-3.5s1.6-3.5,3.5-3.5h12
		C689.7,174.8,691.3,176.4,691.3,178.3z M656.3,178.3c0,1.9-1.6,3.5-3.5,3.5h-12c-1.9,0-3.5-1.6-3.5-3.5s1.6-3.5,3.5-3.5h12
		C654.7,174.8,656.3,176.4,656.3,178.3z M621.3,178.3c0,1.9-1.6,3.5-3.5,3.5h-12c-1.9,0-3.5-1.6-3.5-3.5s1.6-3.5,3.5-3.5h12
		C619.7,174.8,621.3,176.4,621.3,178.3z M586.3,178.3c0,1.9-1.6,3.5-3.5,3.5h-12c-1.9,0-3.5-1.6-3.5-3.5s1.6-3.5,3.5-3.5h12
		C584.7,174.8,586.3,176.4,586.3,178.3z M551.3,178.3c0,1.9-1.6,3.5-3.5,3.5h-12c-1.9,0-3.5-1.6-3.5-3.5s1.6-3.5,3.5-3.5h12
		C549.7,174.8,551.3,176.4,551.3,178.3z M516.3,178.3c0,1.9-1.6,3.5-3.5,3.5h-12c-1.9,0-3.5-1.6-3.5-3.5s1.6-3.5,3.5-3.5h12
		C514.7,174.8,516.3,176.4,516.3,178.3z M1182.7,178.3c0,1.9-1.6,3.5-3.5,3.5h-12c-1.9,0-3.5-1.6-3.5-3.5s1.6-3.5,3.5-3.5h12
		C1181.2,174.8,1182.7,176.4,1182.7,178.3z M1147.7,178.3c0,1.9-1.6,3.5-3.5,3.5h-12c-1.9,0-3.5-1.6-3.5-3.5s1.6-3.5,3.5-3.5h12
		C1146.2,174.8,1147.7,176.4,1147.7,178.3z M1112.7,178.3c0,1.9-1.6,3.5-3.5,3.5h-12c-1.9,0-3.5-1.6-3.5-3.5s1.6-3.5,3.5-3.5h12
		C1111.2,174.8,1112.7,176.4,1112.7,178.3z M1293.4,178.3c0,1.9-1.6,3.5-3.5,3.5h-12c-1.9,0-3.5-1.6-3.5-3.5s1.6-3.5,3.5-3.5h12
		C1291.8,174.8,1293.4,176.4,1293.4,178.3z M1258.4,178.3c0,1.9-1.6,3.5-3.5,3.5h-12c-1.9,0-3.5-1.6-3.5-3.5s1.6-3.5,3.5-3.5h12
		C1256.8,174.8,1258.4,176.4,1258.4,178.3z M1223.4,178.3c0,1.9-1.6,3.5-3.5,3.5h-12c-1.9,0-3.5-1.6-3.5-3.5s1.6-3.5,3.5-3.5h12
		C1221.8,174.8,1223.4,176.4,1223.4,178.3z M1077.7,178.3c0,1.9-1.6,3.5-3.5,3.5h-12c-1.9,0-3.5-1.6-3.5-3.5s1.6-3.5,3.5-3.5h12
		C1076.2,174.8,1077.7,176.4,1077.7,178.3z M1042.7,178.3c0,1.9-1.6,3.5-3.5,3.5h-12c-1.9,0-3.5-1.6-3.5-3.5s1.6-3.5,3.5-3.5h12
		C1041.2,174.8,1042.7,176.4,1042.7,178.3z M1007.7,178.3c0,1.9-1.6,3.5-3.5,3.5h-12c-1.9,0-3.5-1.6-3.5-3.5s1.6-3.5,3.5-3.5h12
		C1006.2,174.8,1007.7,176.4,1007.7,178.3z M972.7,178.3c0,1.9-1.6,3.5-3.5,3.5h-12c-1.9,0-3.5-1.6-3.5-3.5s1.6-3.5,3.5-3.5h12
		C971.2,174.8,972.7,176.4,972.7,178.3z M937.7,178.3c0,1.9-1.6,3.5-3.5,3.5h-12c-1.9,0-3.5-1.6-3.5-3.5s1.6-3.5,3.5-3.5h12
		C936.2,174.8,937.7,176.4,937.7,178.3z M902.7,178.3c0,1.9-1.6,3.5-3.5,3.5h-12c-1.9,0-3.5-1.6-3.5-3.5s1.6-3.5,3.5-3.5h12
		C901.2,174.8,902.7,176.4,902.7,178.3z M867.7,178.3c0,1.9-1.6,3.5-3.5,3.5h-12c-1.9,0-3.5-1.6-3.5-3.5s1.6-3.5,3.5-3.5h12
		C866.2,174.8,867.7,176.4,867.7,178.3z M481.3,178.3c0,1.9-1.6,3.5-3.5,3.5h-12c-1.9,0-3.5-1.6-3.5-3.5s1.6-3.5,3.5-3.5h12
		C479.7,174.8,481.3,176.4,481.3,178.3z M446.3,178.3c0,1.9-1.6,3.5-3.5,3.5h-4.1v0.9c0,1.9-1.6,3.5-3.5,3.5s-3.5-1.6-3.5-3.5v-7.9
		h11.1C444.7,174.8,446.3,176.4,446.3,178.3z M438.7,205.7v12c0,1.9-1.6,3.5-3.5,3.5s-3.5-1.6-3.5-3.5v-12c0-1.9,1.6-3.5,3.5-3.5
		S438.7,203.8,438.7,205.7z M438.7,240.7v12c0,1.9-1.6,3.5-3.5,3.5s-3.5-1.6-3.5-3.5v-12c0-1.9,1.6-3.5,3.5-3.5
		S438.7,238.8,438.7,240.7z M438.7,275.7v12c0,1.9-1.6,3.5-3.5,3.5s-3.5-1.6-3.5-3.5v-12c0-1.9,1.6-3.5,3.5-3.5
		S438.7,273.8,438.7,275.7z M438.7,310.7v12c0,1.9-1.6,3.5-3.5,3.5s-3.5-1.6-3.5-3.5v-12c0-1.9,1.6-3.5,3.5-3.5
		S438.7,308.8,438.7,310.7z M438.7,345.7v12c0,1.9-1.6,3.5-3.5,3.5s-3.5-1.6-3.5-3.5v-12c0-1.9,1.6-3.5,3.5-3.5
		S438.7,343.8,438.7,345.7z"/>
</g>
<g class="st25">
	<path class="st26" d="M1562,329.4c-1.9,0-3.5-1.6-3.5-3.5v-12c0-1.9,1.6-3.5,3.5-3.5s3.5,1.6,3.5,3.5v12
		C1565.5,327.9,1563.9,329.4,1562,329.4z M1562,294.4c-1.9,0-3.5-1.6-3.5-3.5v-12c0-1.9,1.6-3.5,3.5-3.5s3.5,1.6,3.5,3.5v12
		C1565.5,292.9,1563.9,294.4,1562,294.4z M1562,259.4c-1.9,0-3.5-1.6-3.5-3.5v-12c0-1.9,1.6-3.5,3.5-3.5s3.5,1.6,3.5,3.5v12
		C1565.5,257.9,1563.9,259.4,1562,259.4z M1562,224.4c-1.9,0-3.5-1.6-3.5-3.5v-12c0-1.9,1.6-3.5,3.5-3.5s3.5,1.6,3.5,3.5v12
		C1565.5,222.9,1563.9,224.4,1562,224.4z M1562,189.4c-1.9,0-3.5-1.6-3.5-3.5v-4.1h-0.9c-1.9,0-3.5-1.6-3.5-3.5s1.6-3.5,3.5-3.5h7.9
		v11.1C1565.5,187.9,1563.9,189.4,1562,189.4z M1534.6,181.8h-12c-1.9,0-3.5-1.6-3.5-3.5s1.6-3.5,3.5-3.5h12c1.9,0,3.5,1.6,3.5,3.5
		S1536.6,181.8,1534.6,181.8z M1499.6,181.8h-12c-1.9,0-3.5-1.6-3.5-3.5s1.6-3.5,3.5-3.5h12c1.9,0,3.5,1.6,3.5,3.5
		S1501.6,181.8,1499.6,181.8z M1464.6,181.8h-12c-1.9,0-3.5-1.6-3.5-3.5s1.6-3.5,3.5-3.5h12c1.9,0,3.5,1.6,3.5,3.5
		S1466.6,181.8,1464.6,181.8z M1429.6,181.8h-12c-1.9,0-3.5-1.6-3.5-3.5s1.6-3.5,3.5-3.5h12c1.9,0,3.5,1.6,3.5,3.5
		S1431.6,181.8,1429.6,181.8z M1394.6,181.8h-12c-1.9,0-3.5-1.6-3.5-3.5s1.6-3.5,3.5-3.5h12c1.9,0,3.5,1.6,3.5,3.5
		S1396.6,181.8,1394.6,181.8z M1359.6,181.8h-12c-1.9,0-3.5-1.6-3.5-3.5s1.6-3.5,3.5-3.5h12c1.9,0,3.5,1.6,3.5,3.5
		S1361.6,181.8,1359.6,181.8z M1324.6,181.8h-12c-1.9,0-3.5-1.6-3.5-3.5s1.6-3.5,3.5-3.5h12c1.9,0,3.5,1.6,3.5,3.5
		S1326.6,181.8,1324.6,181.8z"/>
</g>
<g>
	<linearGradient id="SVGID_12_" gradientUnits="userSpaceOnUse" x1="1230.2678" y1="500.3032" x2="1456.3231" y2="500.3032">
		<stop  offset="0" style="stop-color:#3A77BC"/>
		<stop  offset="1" style="stop-color:#2B4057"/>
	</linearGradient>
	<path class="st27" d="M1270.8,725.1l97.9-53.4c-58.2-106.5-18.9-240.1,87.6-298.2l-53.4-97.9
		C1242.3,363.2,1183.2,564.5,1270.8,725.1z"/>
	<path class="st4" d="M1468.3,884.2l31.4-107c-58.2-17.1-104-56.2-131-105.6l-97.9,53.4C1311.5,799.5,1380.5,858.4,1468.3,884.2z"/>
	<path class="st22" d="M1720.4,857.1l-53.4-97.9c-53.3,29.1-113.3,33.8-167.3,18l-31.4,107C1549.6,908.1,1640.1,901,1720.4,857.1z"
		/>
	<path class="st4" d="M1852.4,407.6l-97.9,53.4c-58.2-106.5-191.7-145.8-298.2-87.6l-53.4-97.9
		C1563.5,187.9,1764.8,247,1852.4,407.6z"/>
	<path class="st22" d="M1879.5,659.7l-107-31.4c17.1-58.2,9-117.9-18-167.3l97.9-53.4C1893.1,482,1905.3,571.9,1879.5,659.7z"/>
	<path class="st4" d="M1720.4,857.1l-53.4-97.9c53.3-29.1,89.7-77,105.6-131l107,31.4C1855.6,741.1,1800.7,813.3,1720.4,857.1z"/>
</g>
<linearGradient id="SVGID_13_" gradientUnits="userSpaceOnUse" x1="798.1307" y1="576.996" x2="1021.2729" y2="576.996" gradientTransform="matrix(0.9398 -0.3417 0.3417 0.9398 -127.6059 366.7304)">
	<stop  offset="0" style="stop-color:#F16A7E"/>
	<stop  offset="1" style="stop-color:#DD2376"/>
</linearGradient>
<path class="st28" d="M1006.2,556.2l13-24.1c-10-10.8-10-10.8-20-21.6l-25.3,10.7c-8.4-3.9-12.7-5.8-21.2-9.7l-7.9-25.9
	c-14.8-0.6-14.8-0.6-29.7-1.2l-10.4,25.2c-8.8,3.2-13.2,4.8-22,8l-24.2-12.6c-11,10-11,10-22,19.9l10.6,25c-4,8.4-6,12.6-10,21
	l-26.3,8.1c-0.7,14.7-0.7,14.7-1.4,29.4l25.4,10.1c3.2,8.7,4.7,13.1,7.9,21.7l-13,24.1c10,10.8,10,10.8,20,21.6l25.3-10.7
	c8.4,3.9,12.7,5.8,21.2,9.7l7.9,25.9c14.8,0.6,14.8,0.6,29.7,1.2l10.4-25.2c8.8-3.2,13.2-4.8,22-8l24.2,12.6c11-10,11-10,22-19.9
	l-10.6-25c4-8.4,6-12.6,10-21l26.3-8.1c0.7-14.7,0.7-14.7,1.4-29.4l-25.4-10.1C1011,569.2,1009.4,564.8,1006.2,556.2z M945.5,651.4
	c-29.2,10.6-61.4-4.2-71.9-33c-10.5-28.9,4.7-60.9,33.9-71.5c29.2-10.6,61.4,4.2,71.9,33C989.9,608.7,974.7,640.7,945.5,651.4z"/>
<linearGradient id="SVGID_14_" gradientUnits="userSpaceOnUse" x1="983.1669" y1="444.0408" x2="1206.309" y2="444.0408" gradientTransform="matrix(0.9398 -0.3417 0.3417 0.9398 -127.6059 366.7304)">
	<stop  offset="0" style="stop-color:#F16A7E"/>
	<stop  offset="1" style="stop-color:#DD2376"/>
</linearGradient>
<path class="st29" d="M1134.7,368l13-24.1c-10-10.8-10-10.8-20-21.6l-25.3,10.7c-8.4-3.9-12.7-5.8-21.2-9.7l-7.9-25.9
	c-14.8-0.6-14.8-0.6-29.7-1.2l-10.4,25.2c-8.8,3.2-13.2,4.8-22,8L987,316.8c-11,10-11,10-22,19.9l10.6,25c-4,8.4-6,12.6-10,21
	l-26.3,8.1c-0.7,14.7-0.7,14.7-1.4,29.4l25.4,10.1c3.2,8.7,4.7,13.1,7.9,21.7l-13,24.1c10,10.8,10,10.8,20,21.6l25.3-10.7
	c8.4,3.9,12.7,5.8,21.2,9.7l7.9,25.9c14.8,0.6,14.8,0.6,29.7,1.2l10.4-25.2c8.8-3.2,13.2-4.8,22-8l24.2,12.6c11-10,11-10,22-19.9
	l-10.6-25c4-8.4,6-12.6,10-21l26.3-8.1c0.7-14.7,0.7-14.7,1.4-29.4l-25.4-10.1C1139.5,381.1,1137.9,376.7,1134.7,368z M1074,463.2
	c-29.2,10.6-61.4-4.2-71.9-33c-10.5-28.9,4.7-60.9,33.9-71.5c29.2-10.6,61.4,4.2,71.9,33C1118.4,420.6,1103.2,452.6,1074,463.2z"/>
<g>
	<linearGradient id="SVGID_15_" gradientUnits="userSpaceOnUse" x1="615.8683" y1="1641.9869" x2="1045.2283" y2="1641.9869">
		<stop  offset="0" style="stop-color:#3A77BC"/>
		<stop  offset="1" style="stop-color:#2B4057"/>
	</linearGradient>
	<path class="st30" d="M999.8,1699c-14.3,3.1-28,0.9-39.5-4.9c-6.6-3.3-14.3,1.5-14.3,8.8v82.4c0,12-9.7,21.8-21.8,21.8H637.1
		c-11.7,0-21.3-9.5-21.3-21.3V1499c0-12.2,9.9-22.1,22.1-22.1h79.9c10.3,0,16.9,11.1,11.9,20.1c-4.8,8.7-7.5,18.9-7.2,29.6
		c0.7,30.3,24.9,55.3,55.2,56.9c33.7,1.8,61.5-25,61.5-58.3c0-12.5-3.9-24.1-10.7-33.6c-4.4-6.2,0-14.7,7.6-14.7h88
		c12,0,21.8,9.7,21.8,21.8v81.9c0,7.6,8,12.5,14.8,9.1c7.8-3.9,16.7-6.1,26.1-6.1c36.8,0,65.7,34.1,56.7,72.4
		C1039.1,1675.3,1019.2,1694.8,999.8,1699z"/>
</g>
<g>
	<path class="st15" d="M1435.5,1768c0,0-9,19.4-35.4,25.8c0,0-20.9,5.7-20,17.2c0,0,36.4-0.8,45.7-0.7c7.1,0.1,15.3,1.8,21.3,3.3
		c4.7,1.2,9.5-1.9,10.4-6.7c0.4-2.2,0.9-4.8,1.3-7.8c1.2-8.3,1.1-33.1,1.1-33.1L1435.5,1768z"/>
	
		<linearGradient id="SVGID_16_" gradientUnits="userSpaceOnUse" x1="1306.2643" y1="1478.9353" x2="1570.1998" y2="1478.9353" gradientTransform="matrix(0.8815 -0.4721 0.4721 0.8815 -491.5259 953.5992)">
		<stop  offset="0" style="stop-color:#3A77BC"/>
		<stop  offset="1" style="stop-color:#2B4057"/>
	</linearGradient>
	<path class="st31" d="M1425.7,1766.5c0,0,20.5,16.3,39.7,1c0,0,24.1-58.9,33.9-112c3.2-17.2,4.9-33.8,3.7-47.6
		c-4.7-56.1,12-152.6,27.3-205.1l-100.9,14.7c0,0,2.1,69,1.9,155.2C1431.2,1634.8,1429.8,1705.9,1425.7,1766.5z"/>
	<path class="st15" d="M1549.6,1759.9c0,0-3.8,21.1-27.6,34c0,0-18.8,10.9-15,21.8c0,0,35-10,44-12.3c6.8-1.7,15.2-2.2,21.4-2.3
		c4.9-0.1,8.7-4.2,8.4-9.1c-0.2-2.3-0.4-4.9-0.7-7.9c-1-8.4-7.4-32.3-7.4-32.3L1549.6,1759.9z"/>
	
		<linearGradient id="SVGID_17_" gradientUnits="userSpaceOnUse" x1="1373.9126" y1="1504.7312" x2="1637.8481" y2="1504.7312" gradientTransform="matrix(0.7317 -0.6816 0.6816 0.7317 -588.6406 1491.7916)">
		<stop  offset="0" style="stop-color:#3A77BC"/>
		<stop  offset="1" style="stop-color:#2B4057"/>
	</linearGradient>
	<path class="st32" d="M1539.7,1761c0,0,24,10.5,38.6-9.2c0,0,8.3-63.1,4.2-116.9c-1.3-17.5-3.9-33.9-8.6-46.9
		c-18.9-53.1-27.4-150.6-26-205.3l-93.8,40c0,0,19.6,66.1,41.5,149.5C1511.3,1632.3,1528.2,1701.3,1539.7,1761z"/>
	<g>
		<path class="st16" d="M1315.5,1373.2l-6,7.8c0,0-22.1-2.3-20.8,22.9c0,0,1.3,10.6,7.8,9c6.5-1.6,3.6-2.1,12.8-4
			s15.7-8.7,15.3-16.5l2.9-7.4L1315.5,1373.2z"/>
		<path class="st33" d="M1319.4,1385.9c-7.4-4.7-8.1-9.4-8.1-9.4s54.9-72.8,60.7-79.1c4-4.3,43.6-61.3,60.5-94.3
			c8.4-16.4,24.2-14.7,41.9-13.9l14.6,0.6c17.6,0.7,27.6,22.7,16.7,37.2c-30.4,40.8-85.2,91.8-95.2,102.1
			c-24.9,25.7-77.2,61.7-77.2,61.7S1325.8,1390,1319.4,1385.9z"/>
	</g>
	<path class="st16" d="M1432.9,1199.7c27,4.1,68.1-24.8,68.1-24.8s-26.5-14.1-31.1-51.3l-14.1,15.5l-15.1,16.6c0,0,1.1,6.5,4.3,17.6
		c0.8,2.9,1.8,6,3,9.5C1437.9,1190.6,1432.9,1199.7,1432.9,1199.7z"/>
	<path class="st23" d="M1309.1,1320.2c1.9,14.5-1.3,27.9-8,38.8c-3.8,6.3,0.3,14.4,7.6,15l82,6.6c12,1,20.9,11.4,19.9,23.4
		l-22.9,285.5c-0.9,11.7-11.2,20.4-22.8,19.5l-285.1-22.8c-12.1-1-21.2-11.6-20.2-23.7l6.4-79.5c0.8-10.3,12.4-15.9,21-10.3
		c8.3,5.5,18.2,8.9,28.9,9.5c30.2,1.7,56.9-20.4,60.9-50.4c4.4-33.3-20-63.2-53.1-65.8c-12.4-1-24.3,2-34.3,7.9
		c-6.5,3.8-14.6-1.2-14-8.7l7-87.5c1-12,11.4-20.9,23.4-19.9l81.5,6.5c7.5,0.6,13.1-6.9,10.2-13.9c-3.3-8.1-4.8-17.1-4-26.4
		c2.9-36.6,39.1-62.6,76.5-50.6C1288.8,1279.3,1306.5,1300.6,1309.1,1320.2z"/>
	
		<linearGradient id="SVGID_18_" gradientUnits="userSpaceOnUse" x1="1486.1005" y1="1249.9214" x2="1666.2659" y2="1249.9214" gradientTransform="matrix(0.9345 -0.3559 0.3559 0.9345 -438.8326 705.3608)">
		<stop  offset="0" style="stop-color:#3A77BC"/>
		<stop  offset="1" style="stop-color:#2B4057"/>
	</linearGradient>
	<path class="st34" d="M1425.1,1424.2c1.5,3.9,6.7,3.6,7.7,3.9c14.8,3.8,56.7,12.1,80,5.8c19.7-5.2,31.7-0.5,49.6-11.8
		c2.4-1.5,7.7-32.7,7.2-35.4c-0.5-2.9,3.7-179.2-78.2-221c-1.9-1-12.3,6-21.7,12.5c-8.7,5.9-18,8-27.1,7.9l-7.8,8.8
		c-9.4,11.2-23.1,43.6-18.6,63.2c2.3,10-0.5,19,1.1,28c0.6,3.3,1.1,6.5,1.7,9.7c1,6.2,1.9,12.1,2.6,17.8c2,15.4,3,28.8,3.5,40.6
		c0.5,12.5,0.3,23.2,0,32.2c-0.4,11.6-1.2,20.5-1.2,27.1C1423.8,1418.1,1424.1,1421.6,1425.1,1424.2z"/>
	<g>
		<path class="st16" d="M1360.8,1418.5l-7.3,7.3c0,0-23.3-4.3-24.9,21c0,0,0.1,10.7,7.3,9.7c7.2-1,4-1.7,14.2-2.9
			c10.2-1.2,17.9-7.3,18.3-15.1l3.9-7.1L1360.8,1418.5z"/>
		
			<linearGradient id="SVGID_19_" gradientUnits="userSpaceOnUse" x1="1402.0598" y1="1238.6615" x2="1646.4779" y2="1238.6615" gradientTransform="matrix(0.9069 -0.4213 0.4213 0.9069 -471.9599 832.2168)">
			<stop  offset="0" style="stop-color:#3A77BC"/>
			<stop  offset="1" style="stop-color:#2B4057"/>
		</linearGradient>
		<path class="st35" d="M1359.3,1434.3c-7.2-7-10.4-10.1-10.4-10.1s41.2-84.8,45.8-92.6c3.1-5.3,33.1-60.8,43-97.9
			c4.9-18.4,19.6-32.6,38.1-36.9l15.3-3.5c18.4-4.3,33.8,14.5,25.9,31.7c-22.1,48.5-67.1,113.8-75.1,126.8c-19.9,32.2-71,88-71,88
			S1365,1439.7,1359.3,1434.3z"/>
	</g>
	<path class="st16" d="M1427.2,1154.5c0,0,42.1,11.1,48.7-15.2c6.5-26.3,16.4-42.7-10.2-50.9c-26.6-8.2-34.4,0.5-38.7,8.8
		C1422.6,1105.4,1416.4,1150.9,1427.2,1154.5z"/>
	<path class="st15" d="M1416.3,1079.7c-1.9-8.5-1.3-15.1-1.3-15.1s5.4,7.8,20.6,0.6c15.3-7.2,41.2-13.9,56.4,0.8
		c1,0.9,1.9,1.9,2.8,3c0-4.5-1.9-10.6-1.9-10.6c5.9,6.6,6.6,17.4,6.6,17.4l0,0c0.2,0.3,0.3,0.5,0.4,0.8c4.6,1.6,11,9.6,11,9.6
		c-2-2.1-5.2-2.8-7.9-3c5.4,13.9,4.9,29.7-3.5,37.5c-12.3,11.5-13.9,6.9-24.8,22.1c0,0-5.8-3.4-4.3-7.6c1.4-4.3,9.7-12.9,2.3-15.5
		c-7.4-2.6-7.5,3.5-10.8,1.1c-3.3-2.5,3.4-15.9-13.3-19.7C1431.8,1097.2,1418.1,1088.2,1416.3,1079.7z"/>
</g>
<g>
	<polygon class="st22" points="1828,1203.5 1783.4,1295.4 1792.8,1299.9 1840.2,1202 1758.3,1103 1750.3,1109.7 	"/>
	<circle class="st23" cx="1830.9" cy="1201.6" r="25"/>
	<circle class="st23" cx="1789.9" cy="1299.5" r="27.9"/>
	<circle class="st23" cx="1755.5" cy="1109.1" r="27.9"/>
</g>
</svg>
