<?xml version="1.0" encoding="utf-8"?>
<!-- Generator: Adobe Illustrator 24.2.3, SVG Export Plug-In . SVG Version: 6.00 Build 0)  -->
<svg version="1.1" xmlns="http://www.w3.org/2000/svg" xmlns:xlink="http://www.w3.org/1999/xlink" x="0px" y="0px"
	 viewBox="0 0 856 570" style="enable-background:new 0 0 856 570;" xml:space="preserve">
<style type="text/css">
	.st0{fill-rule:evenodd;clip-rule:evenodd;fill:#FFFFFF;}
	.st1{opacity:0.35;}
	.st2{fill:#D9F0F8;}
	.st3{opacity:0.6;}
	.st4{fill:#4A9AD4;}
	.st5{fill:#EAF6F7;}
	.st6{fill:#FFFFFF;}
	.st7{fill:#CADD68;}
	.st8{fill:#EDBF65;}
	.st9{fill:#D6A54F;}
	.st10{fill:#91B2CC;}
	.st11{fill:#F2FAFE;}
	.st12{fill:url(#SVGID_1_);}
	.st13{fill:url(#SVGID_2_);}
	.st14{fill:#9DC6EA;}
	.st15{fill:url(#SVGID_3_);}
	.st16{fill:url(#SVGID_4_);}
	.st17{fill:url(#SVGID_5_);}
	.st18{fill:url(#SVGID_6_);}
	.st19{fill:url(#SVGID_7_);}
	.st20{fill:url(#SVGID_8_);}
	.st21{fill:url(#SVGID_9_);}
	.st22{fill:url(#SVGID_10_);}
	.st23{fill:url(#SVGID_11_);}
	.st24{fill:url(#SVGID_12_);}
	.st25{fill:#FBB98E;}
	.st26{fill:#FBC4B2;}
	.st27{opacity:0.53;fill:#F9A263;}
	.st28{fill:#BFD5DF;}
	.st29{fill:url(#SVGID_13_);}
	.st30{fill:url(#SVGID_14_);}
	.st31{fill:#EBF7FD;}
	.st32{fill:#CBE6F8;}
	.st33{fill:url(#SVGID_15_);}
	.st34{fill:#0061AF;}
	.st35{fill:url(#SVGID_16_);}
	.st36{fill-rule:evenodd;clip-rule:evenodd;fill:#46988A;}
	.st37{fill:url(#SVGID_17_);}
	.st38{fill:url(#SVGID_18_);}
	.st39{fill:url(#SVGID_19_);}
	.st40{fill:url(#SVGID_20_);}
	.st41{fill:#00466A;}
	.st42{fill:url(#SVGID_21_);}
	.st43{fill:url(#SVGID_22_);}
	.st44{fill:url(#SVGID_23_);}
	.st45{fill:url(#SVGID_24_);}
	.st46{fill:url(#SVGID_25_);}
	.st47{fill:url(#SVGID_26_);}
	.st48{fill:#0C294D;}
</style>
<g id="Layer_1">
</g>
<g id="Layer_56">
	<rect y="-0.3" class="st0" width="856" height="570.3"/>
</g>
<g id="Layer_55">
	<g class="st1">
		<g>
			<path class="st2" d="M220.6,176.5c15.6-21.2,33.9-40.8,55.1-58.2c21.1-17.4,43.8-31.5,67.4-42.5L220.6,176.5z"/>
			<path class="st2" d="M395.4,57c7.2-1.9,14.4-3.6,21.7-4.9L181.9,245.4c2.9-7,6-13.8,9.4-20.6L395.4,57z"/>
			<path class="st2" d="M166,295.8c1.3-5.5,2.7-11,4.3-16.4L451.9,47.8c5.5-0.4,11-0.6,16.5-0.7L166,295.8z"/>
			<path class="st2" d="M511.1,49.3L158.8,338.8c0.5-4.8,1.1-9.6,1.7-14.3L497,47.9C501.7,48.3,506.4,48.7,511.1,49.3z"/>
			<path class="st2" d="M157.3,377.3c-0.1-4.3-0.1-8.6,0-12.9L535.7,53.3c4.1,0.8,8.2,1.8,12.3,2.8L157.3,377.3z"/>
			<path class="st2" d="M159.8,412.5c-0.5-4-0.9-7.9-1.2-11.9L570,62.4c3.7,1.2,7.4,2.5,11.1,3.8L159.8,412.5z"/>
			<path class="st2" d="M165.4,445c-0.8-3.7-1.5-7.4-2.2-11.1L600.8,74.3c3.4,1.5,6.7,3,10,4.6L165.4,445z"/>
			<path class="st2" d="M173.9,475.3c-1.1-3.4-2.1-6.9-3.1-10.3l458-376.5c3.1,1.8,6.1,3.5,9.1,5.4L173.9,475.3z"/>
			<path class="st2" d="M184.7,503.6c-1.4-3.2-2.7-6.4-4-9.6l473.4-389.1c2.8,2,5.6,4,8.3,6.1L184.7,503.6z"/>
			<path class="st2" d="M211.4,505.9h15.7l457.7-376.2c-2.5-2.3-5-4.5-7.5-6.7L211.4,505.9z"/>
			<path class="st2" d="M256.7,505.9h15.7l432.7-355.7c-2.2-2.5-4.5-5-6.8-7.3L256.7,505.9z"/>
			<path class="st2" d="M302,505.9h15.7l405.8-333.6c-1-1.3-1.9-2.7-3-4c-1-1.3-2.1-2.5-3.2-3.8L302,505.9z"/>
			<path class="st2" d="M347.2,505.9h15.7l377-310c-1.8-2.8-3.7-5.6-5.5-8.4L347.2,505.9z"/>
			<path class="st2" d="M392.5,505.9h15.7l346.2-284.6c-1.5-3-3.1-6-4.8-9L392.5,505.9z"/>
			<path class="st2" d="M437.7,505.9h15.7l313.2-257.4c-1.3-3.2-2.6-6.4-4-9.6L437.7,505.9z"/>
			<path class="st2" d="M483,505.9h15.7l277.9-228.5c-1-3.4-2-6.9-3.1-10.3L483,505.9z"/>
			<path class="st2" d="M528.3,505.9H544l240.2-197.4c-0.7-3.7-1.4-7.4-2.2-11.1L528.3,505.9z"/>
			<path class="st2" d="M573.5,505.9h15.7l199.6-164.1c-0.3-4-0.7-7.9-1.2-11.9L573.5,505.9z"/>
			<path class="st2" d="M618.8,505.9h15.7L790,378.1c0.1-4.3,0.1-8.6,0-12.9L618.8,505.9z"/>
			<path class="st2" d="M664,505.9h15.7l107-88c0.7-4.8,1.3-9.5,1.7-14.3L664,505.9z"/>
			<path class="st2" d="M709.3,505.9H725l52.1-42.8c1.6-5.4,3-10.9,4.3-16.4L709.3,505.9z"/>
			<path class="st2" d="M754.6,505.9h7c1.3-3,2.6-5.9,3.9-8.9L754.6,505.9z"/>
		</g>
	</g>
</g>
<g id="Layer_54">
	<g>
		<g class="st3">
			<path class="st4" d="M318.9,303.9c-1.1,0-2-0.9-2-2v-6.8c0-1.1,0.9-2,2-2s2,0.9,2,2v6.8C320.9,303,320,303.9,318.9,303.9z
				 M318.9,284.1c-1.1,0-2-0.9-2-2v-6.8c0-1.1,0.9-2,2-2s2,0.9,2,2v6.8C320.9,283.2,320,284.1,318.9,284.1z M318.9,264.3
				c-1.1,0-2-0.9-2-2v-6.8c0-1.1,0.9-2,2-2s2,0.9,2,2v6.8C320.9,263.4,320,264.3,318.9,264.3z M318.9,244.4c-1.1,0-2-0.9-2-2v-6.8
				c0-1.1,0.9-2,2-2s2,0.9,2,2v6.8C320.9,243.6,320,244.4,318.9,244.4z M318.9,224.6c-1.1,0-2-0.9-2-2v-6.8c0-1.1,0.9-2,2-2
				s2,0.9,2,2v6.8C320.9,223.7,320,224.6,318.9,224.6z M318.9,204.8c-1.1,0-2-0.9-2-2V196c0-1.1,0.9-2,2-2s2,0.9,2,2v6.8
				C320.9,203.9,320,204.8,318.9,204.8z M318.9,184.9c-1.1,0-2-0.9-2-2v-6.8c0-1.1,0.9-2,2-2s2,0.9,2,2v6.8
				C320.9,184.1,320,184.9,318.9,184.9z M318.9,165.1c-1.1,0-2-0.9-2-2v-6.8c0-1.1,0.9-2,2-2s2,0.9,2,2v6.8
				C320.9,164.2,320,165.1,318.9,165.1z M318.9,145.3c-1.1,0-2-0.9-2-2v-6.8c0-1.1,0.9-2,2-2s2,0.9,2,2v6.8
				C320.9,144.4,320,145.3,318.9,145.3z M318.9,125.5c-1.1,0-2-0.9-2-2v-6.8c0-1.1,0.9-2,2-2s2,0.9,2,2v6.8
				C320.9,124.6,320,125.5,318.9,125.5z M318.9,105.6c-1.1,0-2-0.9-2-2v-6.8c0-1.1,0.9-2,2-2s2,0.9,2,2v6.8
				C320.9,104.7,320,105.6,318.9,105.6z M318.9,85.8c-1.1,0-2-0.9-2-2v-2.3h-0.5c-1.1,0-2-0.9-2-2c0-1.1,0.9-2,2-2h4.5v6.3
				C320.9,84.9,320,85.8,318.9,85.8z M303.4,81.5h-6.8c-1.1,0-2-0.9-2-2c0-1.1,0.9-2,2-2h6.8c1.1,0,2,0.9,2,2
				C305.4,80.6,304.5,81.5,303.4,81.5z M283.6,81.5h-6.8c-1.1,0-2-0.9-2-2c0-1.1,0.9-2,2-2h6.8c1.1,0,2,0.9,2,2
				C285.6,80.6,284.7,81.5,283.6,81.5z M263.7,81.5h-6.8c-1.1,0-2-0.9-2-2c0-1.1,0.9-2,2-2h6.8c1.1,0,2,0.9,2,2
				C265.7,80.6,264.8,81.5,263.7,81.5z M243.9,81.5h-6.8c-1.1,0-2-0.9-2-2c0-1.1,0.9-2,2-2h6.8c1.1,0,2,0.9,2,2
				C245.9,80.6,245,81.5,243.9,81.5z M224.1,81.5h-6.8c-1.1,0-2-0.9-2-2c0-1.1,0.9-2,2-2h6.8c1.1,0,2,0.9,2,2
				C226.1,80.6,225.2,81.5,224.1,81.5z M204.2,81.5h-6.8c-1.1,0-2-0.9-2-2c0-1.1,0.9-2,2-2h6.8c1.1,0,2,0.9,2,2
				C206.2,80.6,205.3,81.5,204.2,81.5z M184.4,81.5h-6.8c-1.1,0-2-0.9-2-2c0-1.1,0.9-2,2-2h6.8c1.1,0,2,0.9,2,2
				C186.4,80.6,185.5,81.5,184.4,81.5z"/>
		</g>
		<g class="st3">
			<path class="st4" d="M115.7,228.5c1.1,0,2,0.9,2,2v6.8c0,1.1-0.9,2-2,2c-1.1,0-2-0.9-2-2v-6.8
				C113.8,229.3,114.7,228.5,115.7,228.5z M115.7,248.3c1.1,0,2,0.9,2,2v6.8c0,1.1-0.9,2-2,2c-1.1,0-2-0.9-2-2v-6.8
				C113.8,249.2,114.7,248.3,115.7,248.3z M115.7,268.1c1.1,0,2,0.9,2,2v6.8c0,1.1-0.9,2-2,2c-1.1,0-2-0.9-2-2v-6.8
				C113.8,269,114.7,268.1,115.7,268.1z M115.7,288c1.1,0,2,0.9,2,2v6.8c0,1.1-0.9,2-2,2c-1.1,0-2-0.9-2-2v-6.8
				C113.8,288.8,114.7,288,115.7,288z M115.7,307.8c1.1,0,2,0.9,2,2v6.8c0,1.1-0.9,2-2,2c-1.1,0-2-0.9-2-2v-6.8
				C113.8,308.7,114.7,307.8,115.7,307.8z M115.7,327.6c1.1,0,2,0.9,2,2v6.8c0,1.1-0.9,2-2,2c-1.1,0-2-0.9-2-2v-6.8
				C113.8,328.5,114.7,327.6,115.7,327.6z M115.7,347.4c1.1,0,2,0.9,2,2v6.8c0,1.1-0.9,2-2,2c-1.1,0-2-0.9-2-2v-6.8
				C113.8,348.3,114.7,347.4,115.7,347.4z M115.7,367.3c1.1,0,2,0.9,2,2v6.8c0,1.1-0.9,2-2,2c-1.1,0-2-0.9-2-2v-6.8
				C113.8,368.2,114.7,367.3,115.7,367.3z M115.7,387.1c1.1,0,2,0.9,2,2v6.8c0,1.1-0.9,2-2,2c-1.1,0-2-0.9-2-2v-6.8
				C113.8,388,114.7,387.1,115.7,387.1z M115.7,406.9c1.1,0,2,0.9,2,2v6.8c0,1.1-0.9,2-2,2c-1.1,0-2-0.9-2-2v-6.8
				C113.8,407.8,114.7,406.9,115.7,406.9z M115.7,426.8c1.1,0,2,0.9,2,2v6.8c0,1.1-0.9,2-2,2c-1.1,0-2-0.9-2-2v-6.8
				C113.8,427.7,114.7,426.8,115.7,426.8z M115.7,446.6c1.1,0,2,0.9,2,2v2.3h0.5c1.1,0,2,0.9,2,2s-0.9,2-2,2h-4.5v-6.3
				C113.8,447.5,114.7,446.6,115.7,446.6z M131.3,450.9h6.8c1.1,0,2,0.9,2,2s-0.9,2-2,2h-6.8c-1.1,0-2-0.9-2-2
				S130.2,450.9,131.3,450.9z M151.1,450.9h6.8c1.1,0,2,0.9,2,2s-0.9,2-2,2h-6.8c-1.1,0-2-0.9-2-2S150,450.9,151.1,450.9z
				 M170.9,450.9h6.8c1.1,0,2,0.9,2,2s-0.9,2-2,2h-6.8c-1.1,0-2-0.9-2-2S169.8,450.9,170.9,450.9z M190.8,450.9h6.8c1.1,0,2,0.9,2,2
				s-0.9,2-2,2h-6.8c-1.1,0-2-0.9-2-2S189.7,450.9,190.8,450.9z M210.6,450.9h6.8c1.1,0,2,0.9,2,2s-0.9,2-2,2h-6.8c-1.1,0-2-0.9-2-2
				S209.5,450.9,210.6,450.9z M230.4,450.9h6.8c1.1,0,2,0.9,2,2s-0.9,2-2,2h-6.8c-1.1,0-2-0.9-2-2S229.3,450.9,230.4,450.9z
				 M250.3,450.9h6.8c1.1,0,2,0.9,2,2s-0.9,2-2,2h-6.8c-1.1,0-2-0.9-2-2S249.2,450.9,250.3,450.9z"/>
		</g>
		<g class="st3">
			<path class="st4" d="M115.7,89c1.1,0,2,0.9,2,2v6.8c0,1.1-0.9,2-2,2c-1.1,0-2-0.9-2-2v-6.8C113.8,89.8,114.7,89,115.7,89z
				 M115.7,108.8c1.1,0,2,0.9,2,2v6.8c0,1.1-0.9,2-2,2c-1.1,0-2-0.9-2-2v-6.8C113.8,109.7,114.7,108.8,115.7,108.8z M115.7,128.6
				c1.1,0,2,0.9,2,2v6.8c0,1.1-0.9,2-2,2c-1.1,0-2-0.9-2-2v-6.8C113.8,129.5,114.7,128.6,115.7,128.6z M115.7,148.4c1.1,0,2,0.9,2,2
				v6.8c0,1.1-0.9,2-2,2c-1.1,0-2-0.9-2-2v-6.8C113.8,149.3,114.7,148.4,115.7,148.4z M115.7,168.3c1.1,0,2,0.9,2,2v6.8
				c0,1.1-0.9,2-2,2c-1.1,0-2-0.9-2-2v-6.8C113.8,169.2,114.7,168.3,115.7,168.3z M115.7,188.1c1.1,0,2,0.9,2,2v6.8c0,1.1-0.9,2-2,2
				c-1.1,0-2-0.9-2-2v-6.8C113.8,189,114.7,188.1,115.7,188.1z M115.7,207.9c1.1,0,2,0.9,2,2v6.8c0,1.1-0.9,2-2,2c-1.1,0-2-0.9-2-2
				v-6.8C113.8,208.8,114.7,207.9,115.7,207.9z M115.7,227.8c1.1,0,2,0.9,2,2v6.8c0,1.1-0.9,2-2,2c-1.1,0-2-0.9-2-2v-6.8
				C113.8,228.7,114.7,227.8,115.7,227.8z M115.7,247.6c1.1,0,2,0.9,2,2v6.8c0,1.1-0.9,2-2,2c-1.1,0-2-0.9-2-2v-6.8
				C113.8,248.5,114.7,247.6,115.7,247.6z M115.7,267.4c1.1,0,2,0.9,2,2v6.8c0,1.1-0.9,2-2,2c-1.1,0-2-0.9-2-2v-6.8
				C113.8,268.3,114.7,267.4,115.7,267.4z M115.7,287.3c1.1,0,2,0.9,2,2v6.8c0,1.1-0.9,2-2,2c-1.1,0-2-0.9-2-2v-6.8
				C113.8,288.2,114.7,287.3,115.7,287.3z M250.3,311.4h6.8c1.1,0,2,0.9,2,2c0,1.1-0.9,2-2,2h-6.8c-1.1,0-2-0.9-2-2
				C248.3,312.3,249.2,311.4,250.3,311.4z"/>
		</g>
	</g>
</g>
<g id="Layer_53">
	<path class="st2" d="M183.5,123.4H47.6c-8.2,0-15-6.7-15-15V53.7c0-8.2,6.7-15,15-15h135.9c8.2,0,15,6.7,15,15v54.7
		C198.5,116.6,191.7,123.4,183.5,123.4z"/>
</g>
<g id="Layer_52">
	<path class="st2" d="M183.5,258.1H47.6c-8.2,0-15-6.7-15-15v-54.7c0-8.2,6.7-15,15-15h135.9c8.2,0,15,6.7,15,15v54.7
		C198.5,251.4,191.7,258.1,183.5,258.1z"/>
</g>
<g id="Layer_51">
	<path class="st2" d="M183.5,404.8H47.6c-8.2,0-15-6.7-15-15v-54.7c0-8.2,6.7-15,15-15h135.9c8.2,0,15,6.7,15,15v54.7
		C198.5,398,191.7,404.8,183.5,404.8z"/>
</g>
<g id="Layer_50">
	<g>
		<path class="st5" d="M549.6,458.2c7.6-8.9,11.4-22.2,6.1-32.6c-2.8-5.5-8-9.9-9.6-15.9c-2.7-9.8,4.8-19.1,8.7-28.5
			c5.4-13,2-30.9-10.9-36.5c-8.9-3.9-19.3-0.9-28,3.6c-8.6,4.5-16.6,10.5-26,12.9c-12.9,3.4-27.1-0.2-39.4,4.9
			c-11.5,4.7-19.2,16.6-21,29c-1.9,12.3,1.4,25,6.8,36.2c2.7,5.7,6,11.2,7.5,17.3c2.2,8.8,0.7,18,0.4,27.1
			c-1,30.9,25.9,38.2,49.3,23.1c7.5-4.8,13.1-12.1,20.6-17.1C526.1,473.7,539.9,469.5,549.6,458.2z"/>
		<path class="st6" d="M459.2,497.8c9.8-49.9,37.7-96,77.3-127.9L459.2,497.8z"/>
		<path class="st6" d="M479,441.1c-1.5-21.3-11.3-41.8-26.8-56.4L479,441.1z"/>
		<path class="st6" d="M480.4,440.5c22.4-10.3,49.7-9.1,71.1,3.1L480.4,440.5z"/>
		<path class="st6" d="M510.8,474c-14.1-8.1-32.9-7.1-46.2,2.3L510.8,474z"/>
		<path class="st6" d="M445.1,441.8c9.6,7.9,17,18.6,20.9,30.4L445.1,441.8z"/>
		<path class="st6" d="M537.6,403.6c-10.6-5.4-24-5-34.3,1.1L537.6,403.6z"/>
		<path class="st6" d="M502.7,404.3c0.6-11.1-4.2-22.3-12.6-29.5L502.7,404.3z"/>
	</g>
</g>
<g id="Layer_49">
	<g>
		<path class="st7" d="M571.3,490.3c8.1-4.4,14.7-13.1,13.6-22.3c-0.5-4.9-3.1-9.5-2.6-14.4c0.8-8,8.9-12.7,14.4-18.5
			c7.6-8.1,10.2-22.2,2.2-29.9c-5.5-5.4-14-6.1-21.6-5.2c-7.6,0.9-15.2,3-22.8,2.2c-10.4-1.1-19.9-7.7-30.4-7.5
			c-9.8,0.3-18.8,6.9-23.6,15.4c-4.8,8.6-6,18.8-5.2,28.6c0.4,4.9,1.3,9.9,0.7,14.8c-0.8,7.1-4.5,13.5-7.3,20.1
			c-9.4,22.5,8.4,35.4,29.9,30.9c6.9-1.4,13.1-5.2,20-6.8C549.6,495.1,561,495.9,571.3,490.3z"/>
		<path class="st6" d="M493.6,494.1c21.3-34,54.8-60.1,92.9-72.5L493.6,494.1z"/>
		<path class="st6" d="M524.1,457.9c4.9-16.1,3.5-34-3.9-49.1L524.1,457.9z"/>
		<path class="st6" d="M525.3,457.8c19.4-1.3,39.2,7.3,51.5,22.3L525.3,457.8z"/>
		<path class="st6" d="M538.2,491c-8.1-9.9-22.3-14.5-34.7-11.3L538.2,491z"/>
		<path class="st6" d="M499,448.8c4.9,8.5,7.3,18.5,6.9,28.3L499,448.8z"/>
		<path class="st6" d="M577.8,446.7c-6.3-7-16.3-10.4-25.6-8.8L577.8,446.7z"/>
		<path class="st6" d="M551.9,437.4c3.6-8,3.2-17.6-1-25.3L551.9,437.4z"/>
	</g>
</g>
<g id="Layer_48">
	<g>
		<path class="st8" d="M718.3,393.5c0.3,0,0.7,0,1,0v-22.6c-0.3,0-0.7,0-1,0c-26.9,0-48.8,22.1-48.8,49.4h22.4
			C691.9,405.5,703.7,393.5,718.3,393.5z"/>
		<path class="st9" d="M719.4,393.5c14.1,0.5,25.4,12.3,25.4,26.7s-11.3,26.2-25.4,26.7c-0.3,0-0.7,0-1,0c-14.6,0-26.4-12-26.4-26.8
			h-22.4c0,27.3,21.8,49.4,48.8,49.4c0.3,0,0.7,0,1,0c26.5-0.5,47.8-22.4,47.8-49.4s-21.3-48.8-47.8-49.4V393.5z"/>
	</g>
</g>
<g id="Layer_47">
	<g>
		<path class="st8" d="M718.3,332.7c-0.3,0-0.7,0-1,0v22.6c0.3,0,0.7,0,1,0c26.9,0,48.8-22.1,48.8-49.4h-22.4
			C744.8,320.7,732.9,332.7,718.3,332.7z"/>
		<path class="st9" d="M717.3,332.7c-14.1-0.5-25.4-12.3-25.4-26.7s11.3-26.2,25.4-26.7c0.3,0,0.7,0,1,0c14.6,0,26.4,12,26.4,26.8
			h22.4c0-27.3-21.8-49.4-48.8-49.4c-0.3,0-0.7,0-1,0c-26.5,0.5-47.8,22.4-47.8,49.4s21.3,48.8,47.8,49.4V332.7z"/>
	</g>
</g>
<g id="Layer_46">
	<g>
		<path class="st7" d="M544.4,139.3l-13.4,0.1c-1.5-4.9-3.5-9.6-6-14l9.4-9.6c4.3-4.4,4.2-11.4-0.2-15.7l-13.9-13.7
			c-4.4-4.3-11.4-4.2-15.7,0.2l-9.4,9.6c-4.5-2.4-9.2-4.3-14.2-5.7L481,77.1c-0.1-6.1-5.1-11-11.2-11l-19.5,0.2
			c-6.1,0.1-11,5.1-11,11.2l0.1,13.4c-4.9,1.5-9.6,3.5-14,6l-9.6-9.4c-4.4-4.3-11.4-4.2-15.7,0.2l-13.7,13.9
			c-4.3,4.4-4.2,11.4,0.2,15.7l9.6,9.4c-2.4,4.5-4.3,9.2-5.7,14.2l-13.4,0.1c-6.1,0.1-11,5.1-11,11.2l0.2,19.5
			c0.1,6.1,5.1,11,11.2,11l13.4-0.1c1.5,4.9,3.5,9.6,6,14l-9.4,9.6c-4.3,4.4-4.2,11.4,0.2,15.7l13.9,13.7c4.4,4.3,11.4,4.2,15.7-0.2
			l9.4-9.6c4.5,2.4,9.2,4.3,14.2,5.7l0.1,13.4c0.1,6.1,5.1,11,11.2,11l19.5-0.2c6.1-0.1,11-5.1,11-11.2l-0.1-13.4
			c4.9-1.5,9.6-3.5,14-6l9.6,9.4c4.4,4.3,11.4,4.2,15.7-0.2l13.7-13.9c4.3-4.4,4.2-11.4-0.2-15.7l-9.6-9.4c2.4-4.5,4.3-9.2,5.7-14.2
			l13.4-0.1c6.1-0.1,11-5.1,11-11.2l-0.2-19.5C555.6,144.2,550.6,139.3,544.4,139.3z M461.4,198.6c-20.8,0.2-37.8-16.5-38-37.2
			c-0.2-20.8,16.5-37.8,37.2-38c20.8-0.2,37.8,16.5,38,37.2C498.8,181.4,482.2,198.4,461.4,198.6z"/>
		<g>
			<path class="st6" d="M465.9,221.7c-33.5,2.7-62.9-22.4-65.6-55.8c-2.7-33.5,22.4-62.9,55.8-65.6c33.5-2.7,62.9,22.4,65.6,55.8
				S499.4,219,465.9,221.7z M456.5,105c-30.9,2.5-53.9,29.6-51.5,60.5c2.5,30.9,29.6,53.9,60.5,51.5c30.9-2.5,53.9-29.6,51.5-60.5
				C514.5,125.6,487.4,102.5,456.5,105z"/>
		</g>
	</g>
</g>
<g id="Layer_45">
	<g>
		<path class="st2" d="M658.8,61l-9.5,0.1c-1.1-3.5-2.5-6.8-4.2-9.9l6.7-6.8c3-3.1,3-8-0.1-11.1l-9.9-9.7c-3.1-3-8-3-11.1,0.1
			l-6.7,6.8c-3.2-1.7-6.5-3-10-4l-0.1-9.5c0-4.3-3.6-7.8-7.9-7.8l-13.8,0.1c-4.3,0-7.8,3.6-7.8,7.9l0.1,9.5
			c-3.5,1.1-6.8,2.5-9.9,4.2l-6.8-6.7c-3.1-3-8-3-11.1,0.1l-9.7,9.9c-3,3.1-3,8,0.1,11.1L554,52c-1.7,3.2-3,6.5-4,10l-9.5,0.1
			c-4.3,0-7.8,3.6-7.8,7.9l0.1,13.8c0,4.3,3.6,7.8,7.9,7.8l9.5-0.1c1.1,3.5,2.5,6.8,4.2,9.9l-6.7,6.8c-3,3.1-3,8,0.1,11.1l9.9,9.7
			c3.1,3,8,3,11.1-0.1l6.7-6.8c3.2,1.7,6.5,3,10,4l0.1,9.5c0,4.3,3.6,7.8,7.9,7.8l13.8-0.1c4.3,0,7.8-3.6,7.8-7.9l-0.1-9.5
			c3.5-1.1,6.8-2.5,9.9-4.2l6.8,6.7c3.1,3,8,3,11.1-0.1l9.7-9.9c3-3.1,3-8-0.1-11.1l-6.8-6.7c1.7-3.2,3-6.5,4-10l9.5-0.1
			c4.3,0,7.8-3.6,7.8-7.9l-0.1-13.8C666.6,64.4,663.1,60.9,658.8,61z M600,102.9c-14.7,0.1-26.7-11.7-26.9-26.3
			c-0.1-14.7,11.6-26.7,26.3-26.9c14.7-0.1,26.7,11.6,26.9,26.3C626.5,90.7,614.7,102.7,600,102.9z"/>
		<g>
			<path class="st6" d="M603.2,119.2c-23.7,1.9-44.5-15.8-46.4-39.5c-1.9-23.7,15.8-44.5,39.5-46.4c23.7-1.9,44.5,15.8,46.4,39.5
				S626.9,117.3,603.2,119.2z M596.6,36.7c-21.8,1.8-38.2,20.9-36.4,42.8c1.8,21.8,20.9,38.2,42.8,36.4
				c21.8-1.8,38.2-20.9,36.4-42.8C637.6,51.3,618.4,34.9,596.6,36.7z"/>
		</g>
	</g>
</g>
<g id="Layer_44">
	<rect x="236.7" y="158.5" class="st10" width="221" height="333.3"/>
</g>
<g id="Layer_43">
	<rect x="258.1" y="177.1" class="st11" width="177.9" height="198.3"/>
</g>
<g id="Layer_42">
	<path class="st11" d="M261.9,438.8c0-17.7,14.3-32,32-32c17.7,0,32,14.3,32,32c0,17.7-14.3,32-32,32
		C276.2,470.8,261.9,456.5,261.9,438.8z"/>
</g>
<g id="Layer_41">
	<linearGradient id="SVGID_1_" gradientUnits="userSpaceOnUse" x1="266.8071" y1="438.8159" x2="320.9037" y2="438.8159">
		<stop  offset="0" style="stop-color:#F16A7E"/>
		<stop  offset="1" style="stop-color:#DD2376"/>
	</linearGradient>
	<path class="st12" d="M320.9,438.8c0-14.9-12.1-27-27-27c-14.9,0-27,12.1-27,27c0,14.9,12.1,27,27,27c6.2,0,11.9-2.1,16.4-5.5
		l-16.4-21.5l25.3,9.6C320.3,445.5,320.9,442.2,320.9,438.8z"/>
</g>
<g id="Layer_40">
	<path class="st11" d="M370.9,438.8c0-17.7,14.3-32,32-32c17.7,0,32,14.3,32,32c0,17.7-14.3,32-32,32
		C385.2,470.8,370.9,456.5,370.9,438.8z"/>
</g>
<g id="Layer_39">
	<linearGradient id="SVGID_2_" gradientUnits="userSpaceOnUse" x1="375.8306" y1="434.7779" x2="429.927" y2="434.7779">
		<stop  offset="0" style="stop-color:#F16A7E"/>
		<stop  offset="1" style="stop-color:#DD2376"/>
	</linearGradient>
	<path class="st13" d="M402.9,411.8c-14.9,0-27,12.1-27,27c0,7.4,3,14.1,7.8,19l19.3-19l25.3,9.6c1.1-3,1.8-6.2,1.8-9.6
		C429.9,423.9,417.8,411.8,402.9,411.8z"/>
</g>
<g id="Layer_38">
	<g>
		<path class="st14" d="M398.9,425.1h-11.5c-0.5,0-0.8,0.4-0.8,0.8l0,0c0,0.5,0.4,0.8,0.8,0.8h11.5c0.5,0,0.8-0.4,0.8-0.8l0,0
			C399.7,425.5,399.4,425.1,398.9,425.1z"/>
		<path class="st14" d="M398.9,427.7h-11.5c-0.5,0-0.8,0.4-0.8,0.8c0,0.5,0.4,0.8,0.8,0.8h11.5c0.5,0,0.8-0.4,0.8-0.8
			C399.7,428.1,399.4,427.7,398.9,427.7z"/>
		<path class="st14" d="M392.2,430.3h-4.8c-0.5,0-0.8,0.4-0.8,0.8c0,0.5,0.4,0.8,0.8,0.8h4.8c0.5,0,0.8-0.4,0.8-0.8
			C393,430.7,392.6,430.3,392.2,430.3z"/>
	</g>
</g>
<g id="Layer_37">
	<g>
		<path class="st14" d="M289.7,425.1h-11.5c-0.5,0-0.8,0.4-0.8,0.8l0,0c0,0.5,0.4,0.8,0.8,0.8h11.5c0.5,0,0.8-0.4,0.8-0.8l0,0
			C290.5,425.5,290.1,425.1,289.7,425.1z"/>
		<path class="st14" d="M289.7,427.7h-11.5c-0.5,0-0.8,0.4-0.8,0.8c0,0.5,0.4,0.8,0.8,0.8h11.5c0.5,0,0.8-0.4,0.8-0.8
			C290.5,428.1,290.1,427.7,289.7,427.7z"/>
		<path class="st14" d="M282.9,430.3h-4.8c-0.5,0-0.8,0.4-0.8,0.8c0,0.5,0.4,0.8,0.8,0.8h4.8c0.5,0,0.8-0.4,0.8-0.8
			C283.7,430.7,283.4,430.3,282.9,430.3z"/>
	</g>
</g>
<g id="Layer_36">
	<linearGradient id="SVGID_3_" gradientUnits="userSpaceOnUse" x1="338.2404" y1="306.4913" x2="357.0156" y2="306.4913">
		<stop  offset="0" style="stop-color:#3A77BC"/>
		<stop  offset="1" style="stop-color:#2B4057"/>
	</linearGradient>
	<rect x="338.2" y="248" class="st15" width="18.8" height="117"/>
</g>
<g id="Layer_35">
	<linearGradient id="SVGID_4_" gradientUnits="userSpaceOnUse" x1="403.728" y1="290.1908" x2="422.5033" y2="290.1908">
		<stop  offset="0" style="stop-color:#3A77BC"/>
		<stop  offset="1" style="stop-color:#2B4057"/>
	</linearGradient>
	<rect x="403.7" y="215.4" class="st16" width="18.8" height="149.6"/>
</g>
<g id="Layer_34">
	<linearGradient id="SVGID_5_" gradientUnits="userSpaceOnUse" x1="304.3286" y1="320.6332" x2="323.1038" y2="320.6332">
		<stop  offset="0" style="stop-color:#3A77BC"/>
		<stop  offset="1" style="stop-color:#2B4057"/>
	</linearGradient>
	<rect x="304.3" y="276.3" class="st17" width="18.8" height="88.7"/>
</g>
<g id="Layer_33">
	<linearGradient id="SVGID_6_" gradientUnits="userSpaceOnUse" x1="370.8993" y1="300.1743" x2="389.6746" y2="300.1743">
		<stop  offset="0" style="stop-color:#3A77BC"/>
		<stop  offset="1" style="stop-color:#2B4057"/>
	</linearGradient>
	<rect x="370.9" y="235.4" class="st18" width="18.8" height="129.6"/>
</g>
<g id="Layer_32">
	<linearGradient id="SVGID_7_" gradientUnits="userSpaceOnUse" x1="273.9184" y1="329.3112" x2="292.6936" y2="329.3112">
		<stop  offset="0" style="stop-color:#3A77BC"/>
		<stop  offset="1" style="stop-color:#2B4057"/>
	</linearGradient>
	<rect x="273.9" y="293.7" class="st19" width="18.8" height="71.3"/>
</g>
<g id="Layer_31">
	<g>
		<path class="st14" d="M388.8,221.6h-15.9c-0.9,0-1.6,0.7-1.6,1.6c0,0.9,0.7,1.6,1.6,1.6h15.9c0.9,0,1.6-0.7,1.6-1.6
			C390.4,222.4,389.7,221.6,388.8,221.6z"/>
		<path class="st14" d="M376.5,227.6h-3.6c-0.9,0-1.6,0.7-1.6,1.6c0,0.9,0.7,1.6,1.6,1.6h3.6c0.9,0,1.6-0.7,1.6-1.6
			C378.1,228.4,377.4,227.6,376.5,227.6z"/>
		<path class="st14" d="M321.8,261.5h-15.9c-0.9,0-1.6,0.7-1.6,1.6c0,0.9,0.7,1.6,1.6,1.6h15.9c0.9,0,1.6-0.7,1.6-1.6
			C323.4,262.3,322.7,261.5,321.8,261.5z"/>
		<path class="st14" d="M309.5,267.5h-3.6c-0.9,0-1.6,0.7-1.6,1.6l0,0c0,0.9,0.7,1.6,1.6,1.6h3.6c0.9,0,1.6-0.7,1.6-1.6l0,0
			C311.2,268.3,310.4,267.5,309.5,267.5z"/>
		<path class="st14" d="M291.3,280.4h-15.9c-0.9,0-1.6,0.7-1.6,1.6c0,0.9,0.7,1.6,1.6,1.6h15.9c0.9,0,1.6-0.7,1.6-1.6
			C292.9,281.2,292.2,280.4,291.3,280.4z"/>
		<path class="st14" d="M279,286.4h-3.6c-0.9,0-1.6,0.7-1.6,1.6l0,0c0,0.9,0.7,1.6,1.6,1.6h3.6c0.9,0,1.6-0.7,1.6-1.6l0,0
			C280.6,287.2,279.9,286.4,279,286.4z"/>
		<path class="st14" d="M355.6,233.6h-15.9c-0.9,0-1.6,0.7-1.6,1.6c0,0.9,0.7,1.6,1.6,1.6h15.9c0.9,0,1.6-0.7,1.6-1.6
			C357.2,234.3,356.5,233.6,355.6,233.6z"/>
		<path class="st14" d="M343.3,239.5h-3.6c-0.9,0-1.6,0.7-1.6,1.6l0,0c0,0.9,0.7,1.6,1.6,1.6h3.6c0.9,0,1.6-0.7,1.6-1.6l0,0
			C344.9,240.3,344.2,239.5,343.3,239.5z"/>
		<path class="st14" d="M421.1,201.4h-15.9c-0.9,0-1.6,0.7-1.6,1.6c0,0.9,0.7,1.6,1.6,1.6h15.9c0.9,0,1.6-0.7,1.6-1.6
			C422.7,202.2,422,201.4,421.1,201.4z"/>
		<path class="st14" d="M408.8,207.4h-3.6c-0.9,0-1.6,0.7-1.6,1.6c0,0.9,0.7,1.6,1.6,1.6h3.6c0.9,0,1.6-0.7,1.6-1.6
			C410.4,208.2,409.7,207.4,408.8,207.4z"/>
	</g>
</g>
<g id="Layer_30">
	
		<ellipse transform="matrix(0.7071 -0.7071 0.7071 0.7071 -129.1203 120.9469)" class="st11" cx="81.4" cy="216.3" rx="29.2" ry="29.2"/>
</g>
<g id="Layer_29">
	<g>
		<path class="st10" d="M180.6,200h-48.4c-1.8,0-3.2,1.4-3.2,3.2l0,0c0,1.8,1.4,3.2,3.2,3.2h48.4c1.8,0,3.2-1.4,3.2-3.2l0,0
			C183.8,201.5,182.4,200,180.6,200z"/>
		<path class="st10" d="M180.6,213.1h-48.4c-1.8,0-3.2,1.4-3.2,3.2l0,0c0,1.8,1.4,3.2,3.2,3.2h48.4c1.8,0,3.2-1.4,3.2-3.2l0,0
			C183.8,214.6,182.4,213.1,180.6,213.1z"/>
		<path class="st10" d="M180.6,226.3h-48.4c-1.8,0-3.2,1.4-3.2,3.2c0,1.8,1.4,3.2,3.2,3.2h48.4c1.8,0,3.2-1.4,3.2-3.2
			C183.8,227.7,182.4,226.3,180.6,226.3z"/>
	</g>
</g>
<g id="Layer_28">
	<linearGradient id="SVGID_8_" gradientUnits="userSpaceOnUse" x1="54.698" y1="202.5422" x2="81.4363" y2="202.5422">
		<stop  offset="0" style="stop-color:#F16A7E"/>
		<stop  offset="1" style="stop-color:#DD2376"/>
	</linearGradient>
	<path class="st20" d="M54.7,215.9h26.7v-26.7C66.7,189.2,54.7,201.1,54.7,215.9z"/>
</g>
<g id="Layer_27">
	<linearGradient id="SVGID_9_" gradientUnits="userSpaceOnUse" x1="54.698" y1="230.1411" x2="108.1738" y2="230.1411">
		<stop  offset="0" style="stop-color:#F16A7E"/>
		<stop  offset="1" style="stop-color:#DD2376"/>
	</linearGradient>
	<path class="st21" d="M108.2,216.8H81.4h0H54.7c0,14.8,12,26.7,26.7,26.7l0,0l0,0c0,0,0,0,0,0h0
		C96.2,243.5,108.2,231.5,108.2,216.8z"/>
</g>
<g id="Layer_26">
	<path class="st11" d="M52.9,362.3c0.7-38.4,57.8-38.4,58.4,0C110.6,400.7,53.5,400.7,52.9,362.3z"/>
</g>
<g id="Layer_25">
	<g>
		<path class="st10" d="M132.9,352.4h48.4c1.8,0,3.2-1.4,3.2-3.2c0-1.8-1.4-3.2-3.2-3.2h-48.4C128.7,345.9,128.7,352.4,132.9,352.4z
			"/>
		<path class="st10" d="M181.2,359.1h-48.4c-1.8,0-3.2,1.4-3.2,3.2c0,1.8,1.4,3.2,3.2,3.2h48.4C185.4,365.5,185.4,359.1,181.2,359.1
			z"/>
		<path class="st10" d="M181.2,372.2h-48.4c-1.8,0-3.2,1.4-3.2,3.2l0,0c0,1.8,1.4,3.2,3.2,3.2h48.4c1.8,0,3.2-1.4,3.2-3.2l0,0
			C184.4,373.7,183,372.2,181.2,372.2z"/>
	</g>
</g>
<g id="Layer_24">
	<linearGradient id="SVGID_10_" gradientUnits="userSpaceOnUse" x1="55.3016" y1="375.9747" x2="96.4062" y2="375.9747">
		<stop  offset="0" style="stop-color:#F16A7E"/>
		<stop  offset="1" style="stop-color:#DD2376"/>
	</linearGradient>
	<path class="st22" d="M82.1,362.8l-26.7-0.3c-0.9,20.8,24.1,34.4,41.1,22.9L82.1,362.8z"/>
</g>
<g id="Layer_23">
	
		<ellipse transform="matrix(0.9523 -0.3052 0.3052 0.9523 -21.2574 28.1568)" class="st11" cx="79.4" cy="82.1" rx="29.2" ry="29.2"/>
</g>
<g id="Layer_22">
	<linearGradient id="SVGID_11_" gradientUnits="userSpaceOnUse" x1="52.6966" y1="80.482" x2="106.1704" y2="80.482">
		<stop  offset="0" style="stop-color:#F16A7E"/>
		<stop  offset="1" style="stop-color:#DD2376"/>
	</linearGradient>
	<path class="st23" d="M79.4,55.3c-14.8,0-26.7,12-26.7,26.7c0,10.1,5.6,18.9,13.9,23.5c4.3-7.9,12.8-23.5,12.8-23.5l12.7,23.6
		c8.4-4.5,14.1-13.4,14.1-23.6C106.2,67.3,94.2,55.3,79.4,55.3z"/>
</g>
<g id="Layer_21">
	<g>
		<path class="st10" d="M178.6,65.8h-48.4c-1.8,0-3.2,1.4-3.2,3.2v0c0,1.8,1.4,3.2,3.2,3.2h48.4c1.8,0,3.2-1.4,3.2-3.2v0
			C181.8,67.2,180.4,65.8,178.6,65.8z"/>
		<path class="st10" d="M178.6,78.9h-48.4c-1.8,0-3.2,1.4-3.2,3.2c0,1.8,1.4,3.2,3.2,3.2h48.4c1.8,0,3.2-1.4,3.2-3.2
			C181.8,80.3,180.4,78.9,178.6,78.9z"/>
		<path class="st10" d="M178.6,92h-48.4c-1.8,0-3.2,1.4-3.2,3.2c0,1.8,1.4,3.2,3.2,3.2h48.4c1.8,0,3.2-1.4,3.2-3.2
			C181.8,93.4,180.4,92,178.6,92z"/>
	</g>
</g>
<g id="Layer_20">
	<g>
		<path class="st2" d="M29.1,494.1c0,0,35.1,35.6,83.3,41.6c48.1,6,101.6-25.6,139.2-23.1c37.6,2.5,67.8,22.8,163.1-2
			c38.8-10.1,88.8,26.5,130.6,27.1c73.4,1.1,93-24.6,129.3-23.7c35.5,0.9,92.4,45.1,151.9-19.9"/>
		<linearGradient id="SVGID_12_" gradientUnits="userSpaceOnUse" x1="26.5789" y1="494.0587" x2="829.4211" y2="494.0587">
			<stop  offset="0" style="stop-color:#3A77BC"/>
			<stop  offset="1" style="stop-color:#2B4057"/>
		</linearGradient>
		<path class="st24" d="M827.6,496H28.4c-1,0-1.8-0.9-1.8-1.9l0,0c0-1.1,0.8-1.9,1.8-1.9h799.2c1,0,1.8,0.9,1.8,1.9l0,0
			C829.4,495.1,828.6,496,827.6,496z"/>
	</g>
</g>
<g id="Layer_19">
	<g>
		<path class="st25" d="M492.1,259.7c-0.6,0.7-1.4,1.6-2.8,1.9c-0.8,0.1-1.5,0-1.9-0.1l-2.6-0.8c-2.8-0.1-4.5-1-5.6-1.9
			c-4.9-3.9-5.3-13.8-0.8-25.6c0.7-1.9,1.6-3.9,2.6-5.9c1.9-3.7,3.8-7.4,5.6-11.2l19.6,6.3c-2.2,3-4.4,8.4-6.8,15
			c-1,2.8-1.7,4.5-1.9,5.4c-1.5,4.5-2.3,8.4-2.8,11.2C494.4,255.1,493.9,257.6,492.1,259.7z"/>
		<path class="st26" d="M519.7,322.7c-0.8-0.5-1.4-1.1-1.8-1.7c-3.1-4.1-0.6-10.1-0.3-10.8c2-2.5,4-5.1,6-7.6
			c0.7,0.8,1.6,2.1,2.4,3.7c1.5,3,1.6,5.7,1.8,7.3c0.2,3.4,0.4,6.4-1.6,8.3c-0.3,0.3-1.4,1.3-3.1,1.5
			C521.4,323.7,520.2,323,519.7,322.7z"/>
		<path class="st26" d="M518.1,310.5c-6.6-4.5-16.9-12.5-26.2-25.1c-2.3-3.1-23.7-32.1-15.1-43.1c4.3-5.5,15.7-6.2,19-2.1
			c1.5,1.9-0.3,4.2-0.3,9.8c0,5.2,1.7,9,3.4,13c5.9,13.9,21.4,33.8,26.1,41.1c0.3,0.5,1,1.7,0.7,2.9
			C525,309.2,521.1,310.1,518.1,310.5z"/>
		<path class="st27" d="M500.2,234.8c-5.8,2.6-15.1,1.3-21.3-3.6c0.7-1.9,1.6-3.9,2.6-5.9c1.9-3.7,3.8-7.4,5.6-11.2l19.6,6.3
			C504.5,223.5,502.6,228.2,500.2,234.8z"/>
		<path class="st10" d="M512.2,190.7c-12.3-0.5-21.9,13.5-24.1,16.7c-0.6,0.9-3.1,4.7-4.6,10c-0.9,3.5-0.7,5.2-0.6,5.8
			c0.6,3.4,2.8,5.3,3.8,6.1c0.7,0.6,3.7,3.1,8.5,3.1c4.4,0,7.9-2.1,9.8-3.4c10.9-7,22.8-25.6,17-34
			C519.2,191,513.7,190.8,512.2,190.7z"/>
	</g>
</g>
<g id="Layer_18">
	<g>
		<path class="st28" d="M479.8,314.1c0.7,19.6,5.8,32.3,11.3,50.4c2.4,8,5.4,18.8,8.4,32c1.7,7.8,12.2,9.4,16.1,2.4c0,0,0,0,0,0
			c0,0,0,0,0-0.1c3.3-6,4.7-12.9,4.1-19.7c-2.6-28.3-5.2-56.6-7.8-85c-0.2-2.6-1.9-4.9-4.3-6c-5.7-2.5-16.2-5.7-22.7,0.5
			C483.6,289.8,479.1,294.5,479.8,314.1z"/>
		<path class="st28" d="M514.8,487.1l9.4,0c-2.7-14.7-4.9-31.6-5.9-50.3c-0.9-17-0.6-32.6,0.3-46.4c0.2-3.3-0.6-6.7-2.4-9.5
			c-1.5-2.3-3.5-4-5.9-4.5c-2.7-0.6-5.3,0.5-10.5,2.9c-1.7,0.8-3,1.5-3.9,1.9c-1.1,11.2-1.4,24.6,0.1,39.6
			C499,449.1,507.4,471.7,514.8,487.1z"/>
		<polygon class="st26" points="514.5,494 530.4,491.4 522.7,483.4 513.7,484.9 		"/>
		<linearGradient id="SVGID_13_" gradientUnits="userSpaceOnUse" x1="511.8441" y1="494.6716" x2="543.5811" y2="494.6716">
			<stop  offset="0" style="stop-color:#3A77BC"/>
			<stop  offset="1" style="stop-color:#2B4057"/>
		</linearGradient>
		<path class="st29" d="M515,500.8c1.1,0,2.6,0,4.5-0.3c3.4-0.6,3.6-1.5,6.4-2.1c4.4-1,6.9,0.6,11.3-0.5c1.4-0.3,2.8-0.9,2.8-0.9
			c0.5-0.2,1.2-0.4,1.9-0.8c0.4-0.3,0.8-0.5,1.2-0.8c1-0.8,0.8-2.4-0.3-3c-0.4-0.2-0.9-0.4-1.3-0.6c-2.9-1.1-5.5-1.2-7.1-1.1
			c-1.6-1.2-3.9-2.4-6.4-2c-1.7,0.3-2.6,1.1-4,1.9c-1.9,1.1-5,2-9.7,1.2c-2,1.7-2.6,4.4-1.8,6.4C513,499.9,514.6,500.6,515,500.8z"
			/>
	</g>
</g>
<g id="Layer_17">
	<g>
		<path class="st28" d="M457.1,310.4c-5.5,18.8-4.6,32.5-5.1,51.4c-0.2,8.4-0.8,19.6-2.1,33c-0.8,8,8.7,12.8,14.6,7.3c0,0,0,0,0,0
			c0,0,0,0,0,0c5-4.7,8.5-10.7,10.1-17.4c6.4-27.7,12.9-55.4,19.3-83.1c0.6-2.6-0.2-5.3-2.2-7c-4.6-4.1-13.6-10.5-21.7-6.7
			C468.4,288.6,462.6,291.7,457.1,310.4z"/>
		<path class="st28" d="M435.8,485.7l8.9,3c2.1-14.8,5.3-31.6,10.2-49.6c4.5-16.4,9.7-31.1,14.9-44c1.3-3.1,1.6-6.5,0.7-9.7
			c-0.7-2.7-2.1-4.9-4.1-6.2c-2.4-1.4-5.2-1.2-10.9-0.6c-1.8,0.2-3.3,0.4-4.3,0.6c-4.6,10.3-9.1,22.9-12.3,37.6
			C432.7,444.6,433.7,468.8,435.8,485.7z"/>
		<polygon class="st26" points="433.3,492.2 449.3,494.7 444.4,484.7 435.4,483.3 		"/>
		<linearGradient id="SVGID_14_" gradientUnits="userSpaceOnUse" x1="429.8449" y1="496.4464" x2="461.0213" y2="496.4464">
			<stop  offset="0" style="stop-color:#3A77BC"/>
			<stop  offset="1" style="stop-color:#2B4057"/>
		</linearGradient>
		<path class="st30" d="M431.7,498.7c1,0.4,2.5,0.9,4.4,1.2c3.4,0.5,3.9-0.3,6.7,0c4.5,0.4,6.4,2.7,10.9,3.1
			c1.5,0.1,2.9,0.1,2.9,0.1c0.6,0,1.3,0,2-0.2c0.5-0.1,0.9-0.2,1.4-0.4c1.2-0.4,1.5-2,0.6-2.9c-0.3-0.3-0.7-0.7-1.1-1
			c-2.4-2-4.8-2.9-6.4-3.3c-1.1-1.6-2.9-3.5-5.5-4c-1.7-0.3-2.8,0.2-4.4,0.5c-2.2,0.4-5.4,0.3-9.6-1.9c-2.4,1-3.9,3.3-3.7,5.5
			C430,497.3,431.3,498.4,431.7,498.7z"/>
	</g>
</g>
<g id="Layer_16">
</g>
<g id="Layer_15">
	<path class="st31" d="M482.5,172.7c0.7,1.1,1.6,2.2,2.8,3.2c2.9,2.5,6,3.1,7.6,3.3c0.3,0,0.5,0,0.8,0c0.8,0,2.7,0,4.5-0.7
		c0-3.7,0-6.8,0.3-7.9c-5-4.3-9.9-8.5-14.9-12.8C483.9,160.7,484.3,166.4,482.5,172.7z"/>
</g>
<g id="Layer_14">
</g>
<g id="Layer_13">
	<g>
		<path class="st32" d="M457.9,299.7c7.2,1.7,17.7,3.3,30.4,2.3c11.2-0.9,20.4-3.6,26.9-6c-4.5-19.6-7.5-35-8.9-43.8
			c-0.4-2.4-1-6.9,0.3-12.3c1.4-5.5,4-8.9,5.2-10.6c6.2-9.2,8.7-28.5-0.3-39.2c-9.9-11.7-29.6-8.9-32.2-8.3
			c-2.1,0.6-6.7,2.2-8.7,2.5c-2.2,0.5-11.6,3.7-16.1,14c-1.7,4-3.3,7.8-4.4,12.3c-0.5,1.8-1.3,5.2-1.8,10
			c-1.4,12.3,0.8,31.4,5.5,49.7c0.9,3.4,2.3,8.5,3.2,15.9C457.8,292.1,457.9,296.8,457.9,299.7z"/>
		<g>
			<linearGradient id="SVGID_15_" gradientUnits="userSpaceOnUse" x1="494.5097" y1="229.7766" x2="507.6183" y2="229.7766">
				<stop  offset="0" style="stop-color:#3A77BC"/>
				<stop  offset="1" style="stop-color:#2B4057"/>
			</linearGradient>
			<polygon class="st33" points="507.6,258.8 496.8,260 494.5,199.8 496.4,199.5 			"/>
			<polygon class="st34" points="503,264.8 502.6,264.8 496.8,260 507.6,258.8 			"/>
			<linearGradient id="SVGID_16_" gradientUnits="userSpaceOnUse" x1="491.9408" y1="198.118" x2="498.8355" y2="198.118">
				<stop  offset="0" style="stop-color:#3A77BC"/>
				<stop  offset="1" style="stop-color:#2B4057"/>
			</linearGradient>
			<path class="st35" d="M496.6,201.5l-1.6,0.2c-1.4,0.2-2.7-0.8-2.8-2.2l-0.2-2c-0.2-1.4,0.8-2.7,2.2-2.8l1.6-0.2
				c1.4-0.2,2.7,0.8,2.8,2.2l0.2,2C499,200.1,498,201.4,496.6,201.5z"/>
		</g>
		<path class="st6" d="M502.9,194.6c-2.4-0.8-5.4-2.2-8.6-4.3c-4.2-2.8-7.1-6-8.9-8.3c2.4-3.1,4.8-6.1,7.2-9.2
			c4.2,3.1,8.4,6.3,12.6,9.5C504.4,186.4,503.6,190.5,502.9,194.6z"/>
		<path class="st26" d="M473.7,187.1c8.7,8.3,24.5,7.9,25.2,6.6c-0.3-0.3-0.7-8.6-0.7-15.2c0-3.7,0-6.8,0.3-7.9
			c-5-4.3-9.9-8.5-14.9-12.8c0.4,2.9,0.7,8.6-1.1,14.9c-0.7,2.5-1.8,5.2-3.4,7.8C477.3,183.3,475.4,185.5,473.7,187.1z"/>
		<path class="st6" d="M488.8,196.9c-2.4-0.8-5.4-2.2-8.6-4.3c-4.2-2.8-7.1-6-8.9-8.3c2.4-3.1,4.8-6.1,7.2-9.2
			c4.2,3.2,8.4,6.3,12.6,9.5C490.4,188.7,489.6,192.8,488.8,196.9z"/>
	</g>
</g>
<g id="Layer_12">
	<g>
		<path class="st26" d="M567.1,271.8c-0.9,0.4-1.7,0.5-2.4,0.5c-5.1,0.2-8.6-5.3-9-5.9c-0.9-3.1-1.8-6.2-2.8-9.3
			c1.1-0.1,2.6-0.1,4.4,0.2c3.3,0.6,5.6,1.9,6.9,2.7c2.9,1.8,5.5,3.3,5.9,6.1c0.1,0.4,0.3,1.9-0.5,3.4
			C568.9,270.9,567.5,271.6,567.1,271.8z"/>
		<path class="st26" d="M557.5,257.8c-0.8-1-2.2-1-2.8-1.1c-8.6-0.4-33.9,0.9-48.6-2.3c-4.3-0.9-8.3-1.8-12.6-4.7
			c-0.2-0.2-0.4-0.3-0.7-0.5c-1.3-1.5-2.8-3.2-4.2-5.2c-0.6-0.8-1.6-2.3-3.3-4.7c-4-5.8-7.1-10.7-8.3-14.2l-0.4,0.3
			c-0.3-0.6-0.6-1.3-0.8-1.8l-16.4,12.4c2,3.7,3.9,7.3,5.9,11c1.1,1.9,2.2,3.8,3.3,5.5c0.1,0,0.1,0,0.2-0.1c0.3,0.5,0.7,1.1,1,1.6
			c2.6,3.8,5.3,6.9,8,9.3c7.9,10.5,39,9.7,42.6,9.7c15.7-0.4,28.1-4.2,35.6-7C557.5,263.4,559,259.6,557.5,257.8z"/>
		<path class="st10" d="M454.7,202.1c-7.5,9.7-1.5,25.6-0.2,29.3c0.4,1,2,5.3,5.5,9.5c2.3,2.8,3.8,3.5,4.4,3.8
			c3.1,1.5,5.9,0.7,7.2,0.4c0.9-0.2,4.6-1.3,7.4-5.2c2.6-3.6,2.8-7.7,2.9-9.9c0.5-12.9-7.8-33.4-18.1-33.5
			C459,196.5,455.6,200.9,454.7,202.1z"/>
	</g>
</g>
<g id="Layer_11">
	<path class="st36" d="M813.1,72.7H712c-5.4,0-9.8,4.4-9.8,9.8v62.9c0,5.4,4.4,9.8,9.8,9.8l-3.4,24.4l33.2-24.4h71.2
		c5.4,0,9.8-4.4,9.8-9.8V82.5C822.9,77.1,818.5,72.7,813.1,72.7z"/>
</g>
<g id="Layer_10">
	<path class="st0" d="M808.6,97.7l-1.4-2.6l-6.9,6.1c0,0,0.5,2.8-1.7,4.9c-2.5,2.4-5.4,1.4-5.4,1.4l-13,11.5l-10.2-1.3
		c0,0-1.2,1.4-2.6,2c-1.4,0.6-3,0.2-3,0.2l-14.5,16.6c0,0-0.1,2.8-2.2,4.4c-2.1,1.6-4.2,1.6-6.3,0.4c-2.9-1.7-2.6-5-2.6-5
		l-16.2-14.6c0,0-1.2,0.5-2.4,0.5c-1.2,0-2.5-0.6-2.5-0.6l-6.6,4.2v-6.5l3.6-2.3c0,0-0.4-2.8,1.9-4.8c2.5-2.3,5.8-1.5,7.6,0.4
		c1.9,2,1.7,4.4,1.7,4.4l16.1,14.4c0,0,1.2-0.5,2.4-0.5c1.1,0,2.2,0.4,2.2,0.4l13.5-15.8c0,0-0.4-2.7,0.9-4.4c1.6-2,3.3-2.8,6-2.2
		c2.4,0.5,3.5,2.8,3.5,2.8l8.3,0.9l10.5-9.2c0,0-0.9-3.3,1.8-5.6c2.4-2.1,5.8-1,5.8-1l6.5-5.7l-2.5-1.9l13.3-4.1L808.6,97.7z
		 M792.6,99.5c0,0-0.1,0.1-0.2,0.1c-0.1,0.1-0.1,0.1-0.2,0.2c-0.1,0.1-0.1,0.1-0.3,0.3c-0.2,0.3-0.2,0.3-0.5,1
		c-0.1,0.2-0.1,0.2-0.1,0.6c0,0.4-0.1,0.4,0,0.8c0.1,0.5,0.1,0.5,0.2,1c0.2,0.5,0.2,0.5,0.6,0.9c0.4,0.4,0.4,0.4,0.7,0.6
		c0.4,0.2,0.4,0.2,0.7,0.3c0.5,0.2,0.5,0.1,0.9,0.2c0.5,0,0.5,0,0.8,0c0.2,0,0.2,0,0.3-0.1c0.1,0,0.2,0,0.2-0.1c0,0,0.2-0.1,0.2-0.1
		c1.4-0.5,2.3-1.8,2.3-3.3c0-0.8-0.2-1.5-0.8-2.2c-0.6-0.7-1.4-1.1-2.3-1.2C794.2,98.7,793.3,98.9,792.6,99.5z M765,110.9
		c-0.1,0-0.1,0-0.2,0.1c-0.7,0.1-1.5,0.5-2,1.1c-1.2,1.4-1,3.6,0.4,4.7c0,0,0,0,0,0c0,0,0.1,0.1,0.1,0.1c0.1,0.1,0.2,0.2,0.4,0.3
		c0.4,0.3,0.9,0.5,1.6,0.5c1.4,0.1,2.6-0.7,3.2-1.9c0.3-0.6,0.4-1.1,0.4-1.5c0-0.2,0-0.3,0-0.5c0-0.1,0-0.1,0-0.2c0,0,0-0.1,0-0.1
		c-0.3-1.6-1.6-2.8-3.2-2.8C765.5,110.9,765.2,110.9,765,110.9z M716.8,116.2c0,0,0,0.1,0,0.2c-0.1,1.9,1.2,3.5,3.1,3.6
		c1.9,0.1,3.5-1.2,3.6-3.1c0,0,0-0.1,0-0.2c0.1-1.9-1.2-3.5-3.1-3.6C718.6,112.9,717,114.3,716.8,116.2z M741.2,135.4
		c0,0.1-0.1,0.2-0.1,0.2c-0.6,1.8,0.4,3.7,2.1,4.3c1.8,0.6,3.7-0.4,4.3-2.1c0-0.1,0.1-0.1,0.1-0.2c0.6-1.8-0.4-3.7-2.1-4.3
		c-0.4-0.1-0.9-0.2-1.3-0.2C742.8,133.2,741.6,134.1,741.2,135.4z"/>
</g>
<g id="Layer_9">
	<g>
		<path class="st26" d="M561.4,273.2c-1.9-0.1-3.9-1-4.4-2.8c-0.4-1.5,0.5-3.1,1.4-4.4c1.6-2.2,3.4-4.3,5.8-5.5
			c2.7-1.4,5.8-1.5,8.8-1.6c2.8-0.1,6,0,7.8,2.1c4.6,5.4-3.3,6.1-6.3,7.2C570.2,269.9,566.4,273.4,561.4,273.2z"/>
		<linearGradient id="SVGID_17_" gradientUnits="userSpaceOnUse" x1="635.221" y1="255.0696" x2="566.1146" y2="263.3211">
			<stop  offset="0" style="stop-color:#3A77BC"/>
			<stop  offset="1" style="stop-color:#2B4057"/>
		</linearGradient>
		<path class="st37" d="M571.9,269.1c9.2,3,23.3,6.4,40.7,6.2c15.1-0.2,40.5-0.6,47.7-15c5-9.9,0.6-24.7-5-26.1
			c-4.1-1-6.7,5.6-13.9,11.7c-17.6,15.1-68.5,12-68.5,12l0,0C572.9,257.8,570.4,263.1,571.9,269.1z"/>
		<linearGradient id="SVGID_18_" gradientUnits="userSpaceOnUse" x1="641.2902" y1="254.8417" x2="664.3257" y2="174.0456">
			<stop  offset="0" style="stop-color:#3A77BC"/>
			<stop  offset="1" style="stop-color:#2B4057"/>
		</linearGradient>
		<path class="st38" d="M641.7,264.6c-1.9-5.7-5.9-6.6-5.5-16.8c6.1-13,3.6-75.4,24.4-64C666.3,187,660.8,270.4,641.7,264.6z"/>
	</g>
</g>
<g id="Layer_8">
	<g>
		<path class="st10" d="M679.1,291.3c1.5,21.3-2.6,35.6-6.5,55.8c-2.3,11.7-5,28.7-6.9,49.8c-2-0.3-9.8-1.7-15.8-9.8
			c-5.2-7-6.3-6.9-6.5-9.5l3.7-107.3c0.9-0.7,12.8-14.1,23.6-5.8C672.1,265.5,677.6,270.1,679.1,291.3z"/>
		<path class="st10" d="M648.6,481.9l-10.2,0.1c2.8-16.1,5-34.5,5.8-54.8c0.8-18.5,0.3-35.4-0.9-50.5c-0.3-3.6,0.5-7.3,2.5-10.3
			c1.6-2.6,3.8-4.4,6.3-5c3.3-0.8,6.7,2,11.5,3c1.8,0.4,3.1-0.3,5.7,2.7c0.3,12.1,0.9,27.5-1,42.4
			C664.4,439,656.4,463.4,648.6,481.9z"/>
		<polygon class="st10" points="649,489.4 631.6,486.7 640,478 649.8,479.5 		"/>
		
			<linearGradient id="SVGID_19_" gradientUnits="userSpaceOnUse" x1="596.5859" y1="493.1346" x2="637.6515" y2="493.1346" gradientTransform="matrix(0.9992 -3.966410e-02 3.966410e-02 0.9992 -6.05 23.6752)">
			<stop  offset="0" style="stop-color:#3A77BC"/>
			<stop  offset="1" style="stop-color:#2B4057"/>
		</linearGradient>
		<path class="st39" d="M611.3,499.2c14,0.2,19.1-0.7,20.8-1.8c0.2-0.1,1.5-1,3.5-1.4c2-0.5,3.1-0.2,3.5-0.1c1.2,0.4,2,1.1,2.4,1.3
			c1.3,1,3.6,1.9,8.2,1.2c0.5-1.4,1.1-3.8,1-6.9c0-1.5-0.3-4-1.3-6.8c-2.8-0.7-7.9-1.4-14,0.3c-6.2,1.7-10.5,5-12.7,7.1l-12.1,4
			C609.3,497.1,609.9,499.2,611.3,499.2z"/>
	</g>
</g>
<g id="Layer_7">
	<g>
		<path class="st10" d="M692.2,294.1c4.2,20.9,1.9,35.6,0.7,56.2c-0.7,11.9-1.3,29.1-0.4,50.2c-2,0-9.9-0.4-16.9-7.7
			c-6-6.2-7.2-6-7.7-8.6l-15.2-107.5c0.8-0.8,16.1-15,27.9-8.2C682,269.4,688,273.2,692.2,294.1z"/>
		<path class="st10" d="M685.4,487.2l-10.1,1.5c0.7-16.3,0.5-34.8-1.2-55.1c-1.6-18.4-4.3-35.2-7.3-50c-0.7-3.5-0.4-7.3,1.1-10.6
			c1.3-2.8,3.2-4.9,5.6-5.8c3.2-1.2,6.8,1.1,11.7,1.5c1.8,0.1,3.2-0.1,6.1,2.6c1.8,12,4.2,26.6,4.2,41.5
			C695.5,442.6,690.7,467.9,685.4,487.2z"/>
		<polygon class="st10" points="686.7,494.6 669.2,494.1 676.3,484.4 686.3,484.7 		"/>
		
			<linearGradient id="SVGID_20_" gradientUnits="userSpaceOnUse" x1="619.9169" y1="500.3548" x2="660.9825" y2="500.3548" gradientTransform="matrix(0.998 -6.280728e-02 6.280728e-02 0.998 -2.7816 39.6165)">
			<stop  offset="0" style="stop-color:#3A77BC"/>
			<stop  offset="1" style="stop-color:#2B4057"/>
		</linearGradient>
		<path class="st40" d="M649.1,506.4c14-0.1,19.1-1.1,20.8-2.2c0.2-0.1,1.5-1,3.4-1.5c1.9-0.5,3.1-0.3,3.5-0.1
			c1.2,0.3,2.1,1,2.4,1.3c1.3,1,3.6,1.8,8.2,1c0.4-1.4,1-3.8,0.9-6.9c-0.1-1.5-0.3-4-1.5-6.8c-2.8-0.6-8-1.2-14,0.6
			c-6.1,1.8-10.3,5.3-12.5,7.4l-12.1,4.3C647.1,504.4,647.7,506.5,649.1,506.4z"/>
	</g>
</g>
<g id="Layer_6">
	<path class="st41" d="M699,256.3l-16.5-40.8c-4.6-11.4-0.6-23.8,8.9-27.7c0.2-0.1,0.4-0.1,0.5-0.2c3.5,3.4,5.4,7.1,6.4,9.3
		c1.2,4.3,2.5,10.2,3.3,17.3C702.6,222.3,702.5,228.7,699,256.3z"/>
</g>
<g id="Layer_5">
	<g>
		<linearGradient id="SVGID_21_" gradientUnits="userSpaceOnUse" x1="637.0546" y1="246.2098" x2="699.0409" y2="246.2098">
			<stop  offset="0" style="stop-color:#3A77BC"/>
			<stop  offset="1" style="stop-color:#2B4057"/>
		</linearGradient>
		<path class="st42" d="M695.9,253.3c-8.1,29.2-1.8,42-0.6,49.2c1,5.8-1.4,5.6-17.2,10c-23,2.4-36.5,4.6-41-1.5
			c3.5-13.5,10.4-37.8,9.5-44.9c-3.5-28.3-3.3-46.1,0.7-68c3.8-26.1,33.1-22.6,47.9-15.8c6.4,9.2,2.7,16.1,3.4,28.9
			C699.5,219.3,699.4,225.7,695.9,253.3z"/>
		<path class="st6" d="M679.4,178.7c-2.8,3.8-5.9,7.6-9.3,11.6c-4.2,5-7.5,10-11.5,14.2c-0.2-7.9-1.3-16.3-1.4-24.1
			c1.9-1,4.5-2.2,7.8-2.8C671.4,176.4,676.7,177.8,679.4,178.7z"/>
		<path class="st26" d="M659.1,159.2c1,3.2,3.1,8.2,3.8,12.4c0.1,0.8,0.3,1.6,0.4,2.3c0.5,3.6-1.5,6.7-4.4,9.1
			c0.6,0.4,5.8,3.6,11.9,1.5c4.6-1.6,6.8-5.3,7.3-6.2c-1.6-1.8-2.8-3-3.4-6.7c-0.9-5.8-0.5-10.7-0.7-13.7c-0.6,0.1-5.4,0.6-6,0.7
			C663.6,158.9,663.4,158.8,659.1,159.2z"/>
		<linearGradient id="SVGID_22_" gradientUnits="userSpaceOnUse" x1="652.3984" y1="192.7773" x2="658.4825" y2="192.7773">
			<stop  offset="0" style="stop-color:#3A77BC"/>
			<stop  offset="1" style="stop-color:#2B4057"/>
		</linearGradient>
		<path class="st43" d="M657.9,181c-1.4,1-2.6,2.2-3.6,3.5c-0.8,1-1.5,2.1-1.8,3.4c-0.2,1.3,0.1,2.7,1,3.5c0.2,0.2,0.4,0.3,0.5,0.5
			c0.5,0.7,0,1.7-0.4,2.5c-0.7,1.9-0.2,4.1,0.9,5.7s2.3,3.2,3.9,4.4L657.9,181z"/>
		<g>
			<path class="st41" d="M658.5,204.8c-0.7,14.2,1.3,28.4,0.8,42.6c-0.5,13.9-3.7,27.4-5.2,41.2c-0.8,7.7-1.1,15.4-0.1,23.1
				c0.1,0.6,1.1,0.6,1,0c-2.1-15.8,0.9-29.6,2.7-41.2c1.5-9.7,2.3-16.5,2.5-20.2c0.4-7.1,0.2-14.2-0.2-21.3
				c-0.4-8.1-0.8-16.1-0.4-24.2C659.5,204.2,658.5,204.2,658.5,204.8L658.5,204.8z"/>
		</g>
		<linearGradient id="SVGID_23_" gradientUnits="userSpaceOnUse" x1="658.4825" y1="191.5873" x2="686.0437" y2="191.5873">
			<stop  offset="0" style="stop-color:#3A77BC"/>
			<stop  offset="1" style="stop-color:#2B4057"/>
		</linearGradient>
		<path class="st44" d="M658.5,204.5c4-0.5,7.9-1,11.9-1.5c1.5-0.2,3-0.4,4.3-1.1c1.3-0.7,2.4-2.1,2.4-3.6c0-1.2-0.7-2.3-0.5-3.4
			c0.2-1.3,1.5-2.1,2.7-2.5c1.2-0.4,2.5-0.4,3.7-1c2.3-1.1,3.6-4.1,2.8-6.5c-0.3-0.9-0.9-1.7-1.5-2.5c-1.1-1.4-2.5-2.7-3.9-3.9
			L658.5,204.5z"/>
	</g>
</g>
<g id="Layer_4">
	<g>
		<path class="st26" d="M653.1,160c2.2,2.2,1.6,6.1,3.6,8.4c1.9,2.2,5.3,2,8.1,1.3c4-1,7.9-3.1,9.9-6.7c1.4-2.5,1.7-5.4,1.8-8.2
			c0.3-4.8,0.1-10.1-3.1-13.7c-2.8-3.2-7.3-4.3-11.5-3.8c-4.8,0.6-9.9,3.8-10.1,9c-0.1,1.9,0.4,3.8,0.2,5.8
			C651.8,155.6,650.3,157.3,653.1,160z"/>
		<linearGradient id="SVGID_24_" gradientUnits="userSpaceOnUse" x1="649.9542" y1="148.9398" x2="685.0562" y2="148.9398">
			<stop  offset="0" style="stop-color:#3A77BC"/>
			<stop  offset="1" style="stop-color:#2B4057"/>
		</linearGradient>
		<path class="st45" d="M675,169.2c1.3-0.7,2.8-1.4,4.5-2c0.8-0.3,1.7-0.6,2.5-0.8c-0.8-1.1-1.9-3-2.1-5.5c-0.3-3.9,2.3-5.9,4-11.3
			c0.9-2.8,1.1-5.3,1.2-7.1c0.6-5-1.3-9.8-4.9-12.2c-3.5-2.3-7.6-1.6-8.7-1.5c-3.9,0.6-5.1,2.6-8.5,3.9c-2.7,1-6.8,1.7-12.9-0.2
			c-0.2,1.9-0.4,6.6,2.6,10.6c3.1,4,8.7,6,13.3,5.6c3.5-0.3,5.8-1.8,7.4-0.4c1.1,1,1.3,2.9,0.8,4.3c-0.7,1.7-2.3,1.9-3.2,3
			C669.7,157.1,669.8,160.7,675,169.2z"/>
	</g>
</g>
<g id="Layer_3">
	<g>
		<path class="st26" d="M706.7,344.9c-2.9-3.3-3.5-7.8-3.6-8.6c-0.4-3.5,0.4-6.2,0.8-7.4c2.3,0.4,4.6,0.8,6.9,1.2
			c0,1.2,0.1,3.3,0.4,5.8c0.9,7.6,2.4,10.7,1.4,11.9C711.6,349,708.5,346.8,706.7,344.9z"/>
		
			<linearGradient id="SVGID_25_" gradientUnits="userSpaceOnUse" x1="703.4547" y1="264.2143" x2="701.7357" y2="328.8512" gradientTransform="matrix(0.9979 -6.549978e-02 6.549978e-02 0.9979 -15.8844 46.0569)">
			<stop  offset="0" style="stop-color:#3A77BC"/>
			<stop  offset="1" style="stop-color:#2B4057"/>
		</linearGradient>
		<path class="st46" d="M711,331.8c3.4-8.7,3.9-22.8,3.6-40.3c-0.1-4.4,1.5-45.5-9.4-52.1c-4-2.4-10.1-0.3-12.2,4.3
			c-1.9,4.1-0.2,9.3,0.6,12.8c6.1,25.3,10.4,62.8,9.3,72.3c-0.1,1.2,0.5,2.2,1.4,2.3C706.5,331.5,708.7,331.7,711,331.8z"/>
		
			<linearGradient id="SVGID_26_" gradientUnits="userSpaceOnUse" x1="700.5451" y1="258.2608" x2="696.0755" y2="171.2761" gradientTransform="matrix(0.9979 -6.549978e-02 6.549978e-02 0.9979 -15.8844 46.0569)">
			<stop  offset="0" style="stop-color:#3A77BC"/>
			<stop  offset="1" style="stop-color:#2B4057"/>
		</linearGradient>
		<path class="st47" d="M704.2,263l-5.1-0.9c-3-0.6-5.7-3.9-6.7-8.5l-10.3-45.3c-2.7-11.8,1.1-23.7,8.4-26.7l0,0
			c3.2-1.3,6.9,1.5,8.5,6.4c3.2,10,6.6,22.3,9.1,36.7c1.7,9.8,2.8,18.9,3.4,26.9C712,258.4,708.6,263.8,704.2,263z"/>
	</g>
</g>
<g id="Layer_2">
	<g>
		<ellipse class="st48" cx="490.3" cy="151.4" rx="10.8" ry="14"/>
		<g>
			<path class="st48" d="M487.8,150.9h7.6c8.7,0,15.9-7.1,15.9-15.9v-0.6c0-2.3-1.9-4.2-4.2-4.2h-11.6c-7.8,0-17.4,10.3-14.7,19.1
				l0,0C480.7,152.8,484.2,150.9,487.8,150.9z"/>
			<path class="st26" d="M499,174.3h1.3c3.6,0,6.5-0.8,6.5-4.4c0-1.3,0.7-8.5,1.1-9.8c0.4-1.4,2.5-16.3-3.3-16.3
				c-0.5,0-0.4,1.8-1.6,2.2c-1.6,0.5-4.9-0.1-6.5-1l-0.2-0.1c-2-1.2-4.3-1.7-6.5-1.4c-2.9,0.4-4.6,4.4-4.7,9.7c0,0.3,0,0.6-0.1,1
				l-0.9,4.6c-0.1,0.4-0.1,0.8-0.1,1.2C484.3,167.9,491,174.3,499,174.3z"/>
		</g>
		<path class="st26" d="M482.5,151.4c0,1.3,0.7,2.3,1.5,2.3s1.5-1,1.5-2.3c0-1.3-0.7-2.3-1.5-2.3S482.5,150.1,482.5,151.4z"/>
	</g>
</g>
</svg>
