<svg xmlns="http://www.w3.org/2000/svg" xmlns:xlink="http://www.w3.org/1999/xlink" width="1350" height="446.5" viewBox="0 0 1350 446.5">
  <defs>
    <clipPath id="clip-path">
      <path id="Teaser_2_active" data-name="Teaser 2 active" d="M0,0H1350V446.5H0Z" transform="translate(170 1283)" fill="#f4faff"/>
    </clipPath>
  </defs>
  <g id="Mask_Group_15" data-name="Mask Group 15" transform="translate(-170 -1283)" opacity="0.4" clip-path="url(#clip-path)">
    <path id="Union_8" data-name="Union 8" d="M0,921.356,1418.326,2354.964Zm5.732-5.794,1418.326,1433.61Zm5.732-5.793L1429.791,2343.378Zm5.735-5.8L1435.526,2337.582Zm5.732-5.794L1441.258,2331.788Zm5.732-5.8L1446.991,2325.992Zm5.732-5.794L1452.723,2320.2ZM40.13,880.8,1458.455,2314.4Zm5.732-5.8L1464.188,2308.609Zm5.732-5.794L1469.92,2302.814Zm5.735-5.8L1475.656,2297.019Zm5.732-5.794L1481.388,2291.225Zm5.732-5.794L1487.12,2285.431Zm5.735-5.8L1492.856,2279.635Zm5.732-5.794L1498.588,2273.841Zm5.732-5.8L1504.321,2268.045Zm5.732-5.794L1510.053,2262.251Zm5.732-5.794L1515.785,2256.457Zm5.732-5.8L1521.518,2250.661Zm5.732-5.794L1527.25,2244.867Zm5.732-5.794L1532.982,2239.073Zm5.735-5.8L1538.718,2233.277Zm5.732-5.794L1544.45,2227.483Zm5.735-5.8L1550.185,2221.688Zm5.732-5.794L1555.918,2215.894Zm5.732-5.794L1561.65,2210.1Zm5.732-5.8L1567.383,2204.3Zm5.732-5.794L1573.115,2198.509Zm5.731-5.8L1578.846,2192.714Zm5.732-5.794L1584.578,2186.919Zm5.732-5.794L1590.311,2181.125Zm5.737-5.8L1596.046,2175.33Zm5.731-5.794L1601.778,2169.536Zm5.732-5.794L1607.51,2163.741Zm5.737-5.8L1613.248,2157.946Zm5.731-5.794L1618.978,2152.151Zm5.732-5.8L1624.711,2146.356Zm5.732-5.794L1630.443,2140.562Zm5.732-5.794L1636.175,2134.768Zm5.732-5.8L1641.908,2128.972Zm5.732-5.794L1647.64,2123.178Zm5.735-5.8L1653.375,2117.383Zm5.732-5.794L1659.108,2111.588Zm5.732-5.794L1664.84,2105.794Zm5.735-5.8L1670.576,2100Zm5.732-5.794L1676.308,2094.2Zm5.732-5.794L1682.041,2088.41Zm5.732-5.8L1687.773,2082.615Zm5.732-5.794L1693.505,2076.82Zm5.732-5.8L1699.238,2071.024Zm5.732-5.794L1704.97,2065.23Zm5.732-5.794L1710.7,2059.437Zm5.735-5.8L1716.438,2053.641Zm5.732-5.794L1722.17,2047.847Zm5.735-5.8L1727.906,2042.051Zm5.732-5.794L1733.638,2036.257Zm5.732-5.794L1739.37,2030.463Zm5.732-5.8L1745.1,2024.667Zm5.732-5.794L1750.835,2018.873Zm5.732-5.8L1756.567,2013.077Zm5.732-5.794L1762.3,2007.283Zm5.732-5.794L1768.032,2001.49Zm5.735-5.8L1773.767,1995.693Zm5.732-5.794L1779.5,1989.9Zm5.732-5.793L1785.232,1984.106Zm5.735-5.8,1418.326,1433.61Zm5.732-5.793L1796.7,1972.517Zm5.732-5.8,1418.326,1433.61Zm5.732-5.793L1808.165,1960.927Zm5.732-5.794L1813.9,1955.133Zm5.732-5.8L1819.629,1949.337Zm5.732-5.794L1825.362,1943.543Zm5.735-5.8L1831.1,1937.747Zm5.732-5.794L1836.829,1931.953Zm5.732-5.794L1842.562,1926.159Zm5.735-5.8L1848.3,1920.364Zm5.732-5.794L1854.03,1914.569Zm5.732-5.794L1859.762,1908.775Zm5.732-5.8L1865.494,1902.979Zm5.732-5.794L1871.227,1897.186Zm5.732-5.8L1876.959,1891.39Zm5.732-5.794L1882.692,1885.6Zm5.732-5.794L1888.424,1879.8Zm5.735-5.8L1894.159,1874.006Zm5.732-5.794L1899.891,1868.212Zm5.735-5.8L1905.627,1862.416Zm5.732-5.794L1911.359,1856.622Zm5.732-5.794L1917.092,1850.828Zm5.732-5.8L1922.824,1845.032Zm5.732-5.794L1928.556,1839.238Zm5.732-5.8L1934.289,1833.443Zm5.731-5.794L1940.021,1827.648Zm5.732-5.794L1945.752,1821.854Zm5.737-5.8L1951.489,1816.058Zm5.731-5.794L1957.221,1810.264Zm5.732-5.794L1962.952,1804.47Zm5.737-5.8L1968.689,1798.674Zm5.732-5.794L1974.421,1792.88Zm5.731-5.8L1980.154,1787.084Zm5.732-5.794L1985.884,1781.29Zm5.732-5.794L1991.617,1775.5Zm5.732-5.8L1997.349,1769.7Zm5.732-5.794L2003.082,1763.906Zm5.735-5.8L2008.817,1758.111Zm5.732-5.794L2014.55,1752.317Zm5.732-5.794L2020.282,1746.523Zm5.735-5.8L2026.017,1740.727Zm5.732-5.794L2031.749,1734.933Zm5.732-5.794L2037.482,1729.139Zm5.732-5.8L2043.214,1723.343Zm5.732-5.794L2048.947,1717.549Zm5.732-5.8L2054.679,1711.753Zm5.732-5.794L2060.411,1705.959Zm5.732-5.794L2066.144,1700.165Zm5.735-5.8L2071.879,1694.37Zm5.732-5.794L2077.612,1688.575Zm5.735-5.8L2083.347,1682.78Zm5.732-5.794L2089.079,1676.985Zm5.732-5.794L2094.812,1671.191Zm5.732-5.8L2100.544,1665.4Zm5.732-5.794L2106.276,1659.6Zm5.732-5.794L2112.009,1653.807Zm5.732-5.8L2117.741,1648.012Zm5.732-5.794L2123.474,1642.218Zm5.735-5.8L2129.209,1636.422Zm5.732-5.794L2134.941,1630.628Zm5.732-5.794L2140.674,1624.834Zm5.735-5.8L2146.409,1619.038Zm5.732-5.793L2152.141,1613.244Zm5.732-5.8L2157.873,1607.448Zm5.732-5.793L2163.606,1601.656Zm5.732-5.794L2169.338,1595.861Zm5.732-5.8L2175.071,1590.066Zm5.732-5.794L2180.8,1584.272Zm5.735-5.8L2186.538,1578.476Zm5.732-5.794L2192.271,1572.682Zm5.732-5.794L2198,1566.888Zm5.735-5.8L2203.739,1561.092Zm5.732-5.794L2209.471,1555.3Zm5.732-5.794L2215.2,1549.5Zm5.732-5.8L2220.936,1543.708Zm5.732-5.794L2226.668,1537.914Zm5.732-5.8L2232.4,1532.118Zm5.732-5.794L2238.133,1526.324Zm5.732-5.794L2243.865,1520.53Zm5.735-5.8L2249.6,1514.734Zm5.732-5.794L2255.333,1508.94Zm5.735-5.8L2261.068,1503.145Zm5.733-5.794L2266.8,1497.35Zm5.732-5.794L2272.533,1491.556Zm5.732-5.8L2278.265,1485.761Zm5.732-5.794L2284,1479.966Zm5.732-5.794L2289.73,1474.172Zm5.731-5.8L2295.462,1468.377Zm5.732-5.794L2301.193,1462.582Zm5.737-5.8L2306.93,1456.787Zm5.732-5.794L2312.662,1450.993Zm5.731-5.794L2318.395,1445.2Zm5.737-5.8L2324.13,1439.4ZM911.537,0,2329.863,1433.609Z" transform="translate(-377.69 265.233)" fill="#f4faff" stroke="#2fb5fc" stroke-width="1"/>
  </g>
</svg>
