<?xml version="1.0" encoding="utf-8"?>
<!-- Generator: Adobe Illustrator 24.2.3, SVG Export Plug-In . SVG Version: 6.00 Build 0)  -->
<svg version="1.1" xmlns="http://www.w3.org/2000/svg" xmlns:xlink="http://www.w3.org/1999/xlink" x="0px" y="0px"
	 viewBox="0 0 856 570" style="enable-background:new 0 0 856 570;" xml:space="preserve">
<style type="text/css">
	.st0{opacity:0.35;clip-path:url(#SVGID_2_);}
	.st1{fill:#D9F0F8;}
	.st2{opacity:0.35;clip-path:url(#SVGID_4_);}
	.st3{fill:#EAD065;}
	.st4{fill:#A3D2F1;}
	.st5{fill:url(#SVGID_5_);}
	.st6{fill:#EAF6F7;}
	.st7{fill:#FFFFFF;}
	.st8{fill:#CADD68;}
	.st9{fill:#EDBF65;}
	.st10{fill:#CBE6F8;}
	.st11{fill:url(#SVGID_6_);}
	.st12{fill:#4E8FB8;}
	.st13{fill:#71B2DD;}
	.st14{fill:#ADDAF5;}
	.st15{fill:#B1D469;}
	.st16{fill:url(#SVGID_7_);}
	.st17{fill:url(#SVGID_8_);}
	.st18{fill:url(#SVGID_9_);}
	.st19{fill:#126592;}
	.st20{fill:#FBC4B2;}
	.st21{fill:url(#SVGID_10_);}
</style>
<g id="Layer_1">
</g>
<g id="Layer_37">
	<g>
		<defs>
			<path id="SVGID_1_" d="M446.1,450.4H93.4c-6.6,0-12-5.4-12-12V94.6c0-6.6,5.4-12,12-12h352.8c6.6,0,12,5.4,12,12v343.8
				C458.1,445,452.7,450.4,446.1,450.4z"/>
		</defs>
		<clipPath id="SVGID_2_">
			<use xlink:href="#SVGID_1_"  style="overflow:visible;"/>
		</clipPath>
		<g class="st0">
			<g>
				<path class="st1" d="M29.9,144c15.4-21,33.6-40.4,54.5-57.5c20.9-17.2,43.3-31.2,66.6-42L29.9,144z"/>
				<path class="st1" d="M202.8,25.9c7.1-1.9,14.3-3.5,21.4-4.9L-8.4,212.2c2.8-6.9,6-13.7,9.3-20.4L202.8,25.9z"/>
				<path class="st1" d="M-24.1,262c1.3-5.4,2.7-10.8,4.2-16.2L258.7,16.7c5.5-0.4,10.9-0.6,16.4-0.7L-24.1,262z"/>
				<path class="st1" d="M317.2,18.2L-31.2,304.5c0.5-4.7,1-9.5,1.7-14.2L303.3,16.8C307.9,17.2,312.5,17.6,317.2,18.2z"/>
				<path class="st1" d="M-32.7,342.6c-0.1-4.3-0.1-8.5,0-12.8L341.6,22.1c4.1,0.8,8.1,1.8,12.1,2.8L-32.7,342.6z"/>
				<path class="st1" d="M-30.3,377.4c-0.5-3.9-0.9-7.8-1.2-11.8L375.4,31.1c3.7,1.2,7.3,2.4,10.9,3.8L-30.3,377.4z"/>
				<path class="st1" d="M-24.7,409.6c-0.8-3.6-1.5-7.3-2.2-10.9L405.9,42.9c3.3,1.5,6.7,3,9.9,4.6L-24.7,409.6z"/>
				<path class="st1" d="M-16.3,439.5c-1.1-3.4-2.1-6.8-3.1-10.2L433.5,57c3,1.7,6.1,3.5,9,5.3L-16.3,439.5z"/>
				<path class="st1" d="M-5.6,467.5c-1.4-3.2-2.7-6.3-3.9-9.5L458.6,73.1c2.8,2,5.5,3.9,8.2,6L-5.6,467.5z"/>
				<path class="st1" d="M20.8,469.8h15.5L489,97.7c-2.5-2.3-4.9-4.5-7.4-6.7L20.8,469.8z"/>
				<path class="st1" d="M65.6,469.8h15.5l428-351.8c-2.2-2.4-4.4-4.9-6.7-7.3L65.6,469.8z"/>
				<path class="st1" d="M110.4,469.8h15.5l401.4-330c-1-1.3-1.9-2.7-2.9-4c-1-1.3-2.1-2.5-3.1-3.8L110.4,469.8z"/>
				<path class="st1" d="M155.1,469.8h15.5l372.9-306.5c-1.8-2.8-3.6-5.5-5.5-8.3L155.1,469.8z"/>
				<path class="st1" d="M199.9,469.8h15.5l342.3-281.4c-1.5-3-3.1-5.9-4.7-8.9L199.9,469.8z"/>
				<path class="st1" d="M244.6,469.8h15.5l309.7-254.6c-1.3-3.2-2.5-6.4-3.9-9.5L244.6,469.8z"/>
				<path class="st1" d="M289.4,469.8h15.5l274.9-226c-1-3.4-2-6.8-3.1-10.2L289.4,469.8z"/>
				<path class="st1" d="M334.2,469.8h15.5l237.5-195.3c-0.7-3.7-1.4-7.3-2.2-10.9L334.2,469.8z"/>
				<path class="st1" d="M378.9,469.8h15.5l197.4-162.3c-0.3-3.9-0.7-7.8-1.2-11.8L378.9,469.8z"/>
				<path class="st1" d="M423.7,469.8h15.5l153.8-126.5c0.1-4.2,0.1-8.5,0-12.8L423.7,469.8z"/>
				<path class="st1" d="M468.5,469.8H484l105.8-87c0.7-4.7,1.2-9.4,1.7-14.2L468.5,469.8z"/>
				<path class="st1" d="M513.2,469.8h15.5l51.5-42.4c1.5-5.4,2.9-10.8,4.2-16.2L513.2,469.8z"/>
				<path class="st1" d="M558,469.8h6.9c1.3-2.9,2.6-5.9,3.8-8.8L558,469.8z"/>
			</g>
		</g>
	</g>
</g>
<g id="Layer_36">
	<g>
		<defs>
			<path id="SVGID_3_" d="M839.8,435.2H659.9c-6.6,0-12-5.4-12-12V79.4c0-6.6,5.4-12,12-12h179.9c6.6,0,12,5.4,12,12v343.8
				C851.8,429.8,846.4,435.2,839.8,435.2z"/>
		</defs>
		<clipPath id="SVGID_4_">
			<use xlink:href="#SVGID_3_"  style="overflow:visible;"/>
		</clipPath>
		<g class="st2">
			<g>
				<path class="st1" d="M423.5,128.7c15.4-21,33.6-40.4,54.5-57.5c20.9-17.2,43.3-31.2,66.6-42L423.5,128.7z"/>
				<path class="st1" d="M596.4,10.6c7.1-1.9,14.3-3.5,21.4-4.9L385.3,197c2.8-6.9,6-13.7,9.3-20.4L596.4,10.6z"/>
				<path class="st1" d="M369.5,246.7c1.3-5.4,2.7-10.8,4.2-16.2L652.3,1.5c5.5-0.4,10.9-0.6,16.4-0.7L369.5,246.7z"/>
				<path class="st1" d="M710.8,3L362.5,289.3c0.5-4.7,1-9.5,1.7-14.2L696.9,1.6C701.6,1.9,706.2,2.4,710.8,3z"/>
				<path class="st1" d="M361,327.3c-0.1-4.3-0.1-8.5,0-12.8L735.2,6.9c4.1,0.8,8.1,1.8,12.1,2.8L361,327.3z"/>
				<path class="st1" d="M363.4,362.2c-0.5-3.9-0.9-7.8-1.2-11.8L769.1,15.9c3.7,1.2,7.3,2.4,10.9,3.8L363.4,362.2z"/>
				<path class="st1" d="M369,394.3c-0.8-3.6-1.5-7.3-2.2-10.9L799.5,27.7c3.3,1.5,6.7,3,9.9,4.6L369,394.3z"/>
				<path class="st1" d="M377.3,424.3c-1.1-3.4-2.1-6.8-3.1-10.2L827.1,41.8c3,1.7,6.1,3.5,9,5.3L377.3,424.3z"/>
				<path class="st1" d="M388,452.3c-1.4-3.2-2.7-6.3-3.9-9.5L852.3,57.9c2.8,2,5.5,3.9,8.2,6L388,452.3z"/>
				<path class="st1" d="M414.5,454.6H430L882.6,82.5c-2.5-2.3-4.9-4.5-7.4-6.7L414.5,454.6z"/>
				<path class="st1" d="M459.2,454.6h15.5l428-351.8c-2.2-2.4-4.4-4.9-6.7-7.3L459.2,454.6z"/>
				<path class="st1" d="M504,454.6h15.5l401.4-330c-1-1.3-1.9-2.7-2.9-4c-1-1.3-2.1-2.5-3.1-3.8L504,454.6z"/>
				<path class="st1" d="M548.8,454.6h15.5L937.2,148c-1.8-2.8-3.6-5.5-5.5-8.3L548.8,454.6z"/>
				<path class="st1" d="M593.5,454.6h15.5l342.3-281.4c-1.5-3-3.1-5.9-4.7-8.9L593.5,454.6z"/>
				<path class="st1" d="M638.3,454.6h15.5L963.5,200c-1.3-3.2-2.5-6.4-3.9-9.5L638.3,454.6z"/>
				<path class="st1" d="M683.1,454.6h15.5l274.9-226c-1-3.4-2-6.8-3.1-10.2L683.1,454.6z"/>
				<path class="st1" d="M727.8,454.6h15.5l237.5-195.3c-0.7-3.7-1.4-7.3-2.2-10.9L727.8,454.6z"/>
				<path class="st1" d="M772.6,454.6h15.5l197.4-162.3c-0.3-3.9-0.7-7.8-1.2-11.8L772.6,454.6z"/>
				<path class="st1" d="M817.3,454.6h15.5l153.8-126.5c0.1-4.2,0.1-8.5,0-12.8L817.3,454.6z"/>
				<path class="st1" d="M862.1,454.6h15.5l105.8-87c0.7-4.7,1.2-9.4,1.7-14.2L862.1,454.6z"/>
				<path class="st1" d="M906.9,454.6h15.5l51.5-42.4c1.5-5.4,2.9-10.8,4.2-16.2L906.9,454.6z"/>
				<path class="st1" d="M951.6,454.6h6.9c1.3-2.9,2.6-5.9,3.8-8.8L951.6,454.6z"/>
			</g>
		</g>
	</g>
</g>
<g id="Layer_35">
	<rect x="491.1" y="13" class="st3" width="81.8" height="518.2"/>
</g>
<g id="Layer_34">
	<rect x="371.1" y="171.1" class="st3" width="67" height="360.2"/>
</g>
<g id="Layer_33">
	<rect x="607" y="125.3" class="st3" width="81.8" height="405.9"/>
</g>
<g id="Layer_32">
	<rect x="262.6" y="109.3" class="st3" width="81.8" height="421.9"/>
</g>
<g id="Layer_31">
	<rect x="148.4" y="234.4" class="st3" width="81.8" height="296.8"/>
</g>
<g id="Layer_30">
	<rect x="513.7" y="132.4" class="st4" width="82.7" height="398.8"/>
</g>
<g id="Layer_29">
	<rect x="398.1" y="254.1" class="st4" width="82.7" height="277.1"/>
</g>
<g id="Layer_28">
	<rect x="630.9" y="218.8" class="st4" width="82.7" height="312.4"/>
</g>
<g id="Layer_27">
	<rect x="282.6" y="206.6" class="st4" width="82.7" height="324.7"/>
</g>
<g id="Layer_26">
	<rect x="167.1" y="302.8" class="st4" width="82.7" height="228.4"/>
</g>
<g id="Layer_25">
	<linearGradient id="SVGID_5_" gradientUnits="userSpaceOnUse" x1="144.4174" y1="254.0001" x2="733.0129" y2="254.0001">
		<stop  offset="0" style="stop-color:#F16A7E"/>
		<stop  offset="1" style="stop-color:#DD2376"/>
	</linearGradient>
	<polygon class="st5" points="733,36.6 672,73.8 692.1,78.2 534.2,302.3 446.8,196.6 323.1,429.3 243.6,338.2 144.4,451.2 
		150.7,471.4 243.5,366.1 327.6,462.4 450.8,230.6 535.6,333.2 710.5,85 722.3,104 	"/>
</g>
<g id="Layer_24">
	<g>
		<path class="st6" d="M782.2,500.3c5.9-6.9,8.9-17.2,4.7-25.2c-2.2-4.3-6.2-7.6-7.5-12.3c-2.1-7.6,3.7-14.8,6.8-22
			c4.2-10.1,1.6-23.9-8.4-28.2c-6.9-3-15-0.7-21.6,2.8c-6.7,3.5-12.9,8.1-20.2,10c-10,2.6-21-0.1-30.5,3.8
			c-8.9,3.7-14.8,12.9-16.3,22.4c-1.4,9.5,1.1,19.3,5.2,28.1c2.1,4.4,4.6,8.6,5.8,13.4c1.7,6.8,0.5,14,0.3,21
			c-0.8,23.9,20.1,29.5,38.2,17.9c5.8-3.7,10.2-9.4,15.9-13.2C764,512.3,774.7,509,782.2,500.3z"/>
		<path class="st7" d="M712.2,531c7.6-38.6,29.2-74.3,59.9-99L712.2,531z"/>
		<path class="st7" d="M727.5,487.1c-1.2-16.5-8.7-32.4-20.8-43.7L727.5,487.1z"/>
		<path class="st7" d="M728.6,486.6c17.3-7.9,38.5-7,55.1,2.4L728.6,486.6z"/>
		<path class="st7" d="M752.1,512.5c-10.9-6.3-25.5-5.5-35.7,1.8L752.1,512.5z"/>
		<path class="st7" d="M701.3,487.6c7.5,6.1,13.2,14.4,16.2,23.5L701.3,487.6z"/>
		<path class="st7" d="M772.9,458c-8.2-4.2-18.6-3.9-26.5,0.9L772.9,458z"/>
		<path class="st7" d="M745.9,458.6c0.5-8.6-3.2-17.3-9.7-22.9L745.9,458.6z"/>
	</g>
</g>
<g id="Layer_23">
	<g>
		<path class="st8" d="M799,525.1c6.3-3.4,11.3-10.2,10.6-17.3c-0.4-3.8-2.4-7.4-2-11.2c0.6-6.2,6.9-9.8,11.2-14.3
			c5.9-6.2,7.9-17.2,1.7-23.2c-4.2-4.1-10.8-4.7-16.7-4s-11.8,2.4-17.7,1.7c-8.1-0.9-15.4-6-23.5-5.8c-7.6,0.2-14.5,5.3-18.3,11.9
			c-3.7,6.6-4.6,14.5-4,22.1c0.3,3.8,1,7.7,0.5,11.5c-0.6,5.5-3.5,10.4-5.7,15.5c-7.3,17.4,6.5,27.4,23.1,23.9
			c5.3-1.1,10.1-4.1,15.5-5.3C782.2,528.8,791,529.4,799,525.1z"/>
		<path class="st7" d="M738.8,528.1c16.4-26.3,42.4-46.5,71.9-56.1L738.8,528.1z"/>
		<path class="st7" d="M762.4,500c3.8-12.5,2.7-26.3-3-38L762.4,500z"/>
		<path class="st7" d="M763.3,500c15-1,30.3,5.6,39.9,17.2L763.3,500z"/>
		<path class="st7" d="M773.4,525.7c-6.3-7.7-17.2-11.2-26.8-8.7L773.4,525.7z"/>
		<path class="st7" d="M742.9,493c3.8,6.6,5.7,14.3,5.3,21.9L742.9,493z"/>
		<path class="st7" d="M804,491.4c-4.9-5.4-12.6-8.1-19.8-6.8L804,491.4z"/>
		<path class="st7" d="M783.9,484.2c2.8-6.2,2.5-13.6-0.8-19.6L783.9,484.2z"/>
	</g>
</g>
<g id="Layer_22">
	<g>
		<path class="st6" d="M69,500.3c-5.9-6.9-8.9-17.2-4.7-25.2c2.2-4.3,6.2-7.6,7.5-12.3c2.1-7.6-3.7-14.8-6.8-22
			c-4.2-10.1-1.6-23.9,8.4-28.2c6.9-3,15-0.7,21.6,2.8c6.7,3.5,12.9,8.1,20.2,10c10,2.6,21-0.1,30.5,3.8
			c8.9,3.7,14.8,12.9,16.3,22.4c1.4,9.5-1.1,19.3-5.2,28.1c-2.1,4.4-4.6,8.6-5.8,13.4c-1.7,6.8-0.5,14-0.3,21
			c0.8,23.9-20.1,29.5-38.2,17.9c-5.8-3.7-10.2-9.4-15.9-13.2C87.2,512.3,76.5,509,69,500.3z"/>
		<path class="st7" d="M139,531c-7.6-38.6-29.2-74.3-59.9-99L139,531z"/>
		<path class="st9" d="M123.7,487.1c1.2-16.5,8.7-32.4,20.8-43.7L123.7,487.1z"/>
		<path class="st7" d="M122.6,486.6c-17.3-7.9-38.5-7-55.1,2.4L122.6,486.6z"/>
		<path class="st7" d="M99.1,512.5c10.9-6.3,25.5-5.5,35.7,1.8L99.1,512.5z"/>
		<path class="st7" d="M149.9,487.6c-7.5,6.1-13.2,14.4-16.2,23.5L149.9,487.6z"/>
		<path class="st7" d="M78.3,458c8.2-4.2,18.6-3.9,26.5,0.9L78.3,458z"/>
		<path class="st7" d="M105.3,458.6c-0.5-8.6,3.2-17.3,9.7-22.9L105.3,458.6z"/>
	</g>
</g>
<g id="Layer_21">
	<g>
		<path class="st8" d="M52.2,525.1c-6.3-3.4-11.3-10.2-10.6-17.3c0.4-3.8,2.4-7.4,2-11.2c-0.6-6.2-6.9-9.8-11.2-14.3
			c-5.9-6.2-7.9-17.2-1.7-23.2c4.2-4.1,10.8-4.7,16.7-4c5.9,0.7,11.8,2.4,17.7,1.7c8.1-0.9,15.4-6,23.5-5.8
			c7.6,0.2,14.5,5.3,18.3,11.9c3.7,6.6,4.6,14.5,4,22.1c-0.3,3.8-1,7.7-0.5,11.5c0.6,5.5,3.5,10.4,5.7,15.5
			c7.3,17.4-6.5,27.4-23.1,23.9c-5.3-1.1-10.1-4.1-15.5-5.3C69,528.8,60.2,529.4,52.2,525.1z"/>
		<path class="st7" d="M112.4,528.1C95.9,501.7,70,481.5,40.5,472L112.4,528.1z"/>
		<path class="st7" d="M88.8,500c-3.8-12.5-2.7-26.3,3-38L88.8,500z"/>
		<path class="st7" d="M87.8,500c-15-1-30.3,5.6-39.9,17.2L87.8,500z"/>
		<path class="st7" d="M77.8,525.7c6.3-7.7,17.2-11.2,26.8-8.7L77.8,525.7z"/>
		<path class="st7" d="M108.2,493c-3.8,6.6-5.7,14.3-5.3,21.9L108.2,493z"/>
		<path class="st7" d="M47.2,491.4c4.9-5.4,12.6-8.1,19.8-6.8L47.2,491.4z"/>
		<path class="st7" d="M67.2,484.2c-2.8-6.2-2.5-13.6,0.8-19.6L67.2,484.2z"/>
	</g>
</g>
<g id="Layer_20">
	<path class="st10" d="M314.8,530.8h-194v-57.8c0-15.1,12.2-27.3,27.3-27.3h139.5c15.1,0,27.3,12.2,27.3,27.3V530.8z"/>
</g>
<g id="Layer_19">
	<path class="st10" d="M521.7,530.8h-194v-91.1c0-15.1,12.2-27.3,27.3-27.3h139.5c15.1,0,27.3,12.2,27.3,27.3V530.8z"/>
</g>
<g id="Layer_18">
	<path class="st10" d="M733.7,530.8h-194V397c0-15.1,12.2-27.3,27.3-27.3h139.5c15.1,0,27.3,12.2,27.3,27.3V530.8z"/>
</g>
<g id="Layer_17">
	<g>
		<path class="st1" d="M24.6,530.8c0,0,35.3,25,83.6,29.3c48.3,4.2,102-18,139.7-16.3c37.8,1.8,68.1,16,163.7-1.4
			c38.9-7.1,89.1,18.7,131.1,19.1c73.7,0.8,93.4-17.3,129.8-16.6c35.7,0.6,92.8,31.7,152.5-14"/>
		<linearGradient id="SVGID_6_" gradientUnits="userSpaceOnUse" x1="22" y1="530.7544" x2="828" y2="530.7544">
			<stop  offset="0" style="stop-color:#3A77BC"/>
			<stop  offset="1" style="stop-color:#2B4057"/>
		</linearGradient>
		<path class="st11" d="M826.1,532.1H23.9c-1,0-1.9-0.6-1.9-1.4l0,0c0-0.7,0.8-1.4,1.9-1.4h802.3c1,0,1.9,0.6,1.9,1.4l0,0
			C828,531.5,827.2,532.1,826.1,532.1z"/>
	</g>
</g>
<g id="Layer_16">
	<g>
		<g>
			<path class="st9" d="M752.8,179.9c0-7.8-6.3-14.1-14.1-14.1c-7.8,0-14.1,6.4-14.1,14.2c0,3.9,1.6,7.4,4.1,9.9
				c2,2,3.4,1.2,4.1,3.9l1.1,4.2h9.2l1.1-4c0.7-2.8,2.2-2.1,4.3-4.1C751.2,187.4,752.8,183.8,752.8,179.9z"/>
			<g>
				<path class="st7" d="M735,180.2c-1.4,0-2.5,1.1-2.5,2.5c0,1.4,1.1,2.5,2.5,2.5c0.5,0,1-0.2,1.4-0.4v15.6h1.1v-17.7
					C737.5,181.3,736.4,180.2,735,180.2z M735,184.1c-0.8,0-1.4-0.6-1.4-1.4c0-0.8,0.6-1.4,1.4-1.4s1.4,0.6,1.4,1.4
					C736.5,183.5,735.8,184.1,735,184.1z"/>
				<path class="st7" d="M742.4,182.4c-1.4,0-2.5,1.1-2.5,2.5l-0.1,15.5h1.1l0.1-13.5c0.4,0.3,0.9,0.4,1.4,0.4
					c1.4,0,2.5-1.1,2.5-2.5C744.9,183.5,743.8,182.4,742.4,182.4z M742.4,186.3c-0.8,0-1.4-0.6-1.4-1.4c0-0.8,0.6-1.4,1.4-1.4
					c0.8,0,1.4,0.6,1.4,1.4C743.8,185.7,743.2,186.3,742.4,186.3z"/>
			</g>
			<path class="st12" d="M738.7,203.3L738.7,203.3c-2.7,0-4.8-2.2-4.8-4.8v-1.1h9.6v1.1C743.5,201.1,741.3,203.3,738.7,203.3z"/>
			<path class="st13" d="M743.5,199.6h-9.7c-0.2,0-0.4-0.2-0.4-0.4l0,0c0-0.2,0.2-0.4,0.4-0.4h9.7c0.2,0,0.4,0.2,0.4,0.4l0,0
				C743.9,199.4,743.7,199.6,743.5,199.6z"/>
			<path class="st13" d="M743.6,201.1h-9.7c-0.2,0-0.4-0.2-0.4-0.4l0,0c0-0.2,0.2-0.4,0.4-0.4h9.7c0.2,0,0.4,0.2,0.4,0.4l0,0
				C743.9,201,743.8,201.1,743.6,201.1z"/>
		</g>
		<path class="st14" d="M721.6,179.2h-3.7c-0.4,0-0.7-0.3-0.7-0.7l0,0c0-0.4,0.3-0.7,0.7-0.7h3.7c0.4,0,0.7,0.3,0.7,0.7l0,0
			C722.3,178.9,722,179.2,721.6,179.2z"/>
		<path class="st14" d="M722.7,172.6l-3.3-1.7c-0.3-0.2-0.5-0.6-0.3-1l0,0c0.2-0.3,0.6-0.5,1-0.3l3.3,1.7c0.3,0.2,0.5,0.6,0.3,1l0,0
			C723.5,172.7,723.1,172.8,722.7,172.6z"/>
		<path class="st14" d="M723,184.4l-3.3,1.7c-0.3,0.2-0.5,0.6-0.3,1l0,0c0.2,0.3,0.6,0.5,1,0.3l3.3-1.7c0.3-0.2,0.5-0.6,0.3-1l0,0
			C723.8,184.3,723.3,184.2,723,184.4z"/>
		<path class="st14" d="M726.7,167.1l-2.6-2.6c-0.3-0.3-0.3-0.7,0-1l0,0c0.3-0.3,0.7-0.3,1,0l2.6,2.6c0.3,0.3,0.3,0.7,0,1l0,0
			C727.5,167.4,727,167.4,726.7,167.1z"/>
		<path class="st14" d="M731.3,163.6l-1.3-3.5c-0.1-0.4,0.1-0.8,0.4-0.9l0,0c0.4-0.1,0.8,0.1,0.9,0.4l1.3,3.5
			c0.1,0.4-0.1,0.8-0.4,0.9l0,0C731.8,164.2,731.4,164,731.3,163.6z"/>
		<path class="st14" d="M756,178.8h3.7c0.4,0,0.7-0.3,0.7-0.7l0,0c0-0.4-0.3-0.7-0.7-0.7H756c-0.4,0-0.7,0.3-0.7,0.7l0,0
			C755.3,178.4,755.6,178.8,756,178.8z"/>
		<path class="st14" d="M754.8,172.1l3.3-1.7c0.3-0.2,0.5-0.6,0.3-1l0,0c-0.2-0.3-0.6-0.5-1-0.3l-3.3,1.7c-0.3,0.2-0.5,0.6-0.3,1
			l0,0C754.1,172.2,754.5,172.3,754.8,172.1z"/>
		<path class="st14" d="M754.6,183.9l3.3,1.7c0.3,0.2,0.5,0.6,0.3,1l0,0c-0.2,0.3-0.6,0.5-1,0.3l-3.3-1.7c-0.3-0.2-0.5-0.6-0.3-1
			l0,0C753.8,183.8,754.3,183.7,754.6,183.9z"/>
		<path class="st14" d="M750.9,166.7l2.6-2.6c0.3-0.3,0.3-0.7,0-1l0,0c-0.3-0.3-0.7-0.3-1,0l-2.6,2.6c-0.3,0.3-0.3,0.7,0,1l0,0
			C750.1,166.9,750.6,166.9,750.9,166.7z"/>
		<path class="st14" d="M746.3,163.2l1.3-3.5c0.1-0.4-0.1-0.8-0.4-0.9l0,0c-0.4-0.1-0.8,0.1-0.9,0.4l-1.3,3.5
			c-0.1,0.4,0.1,0.8,0.4,0.9l0,0C745.8,163.7,746.2,163.5,746.3,163.2z"/>
		<path class="st14" d="M738,162.1v-3.7c0-0.4,0.3-0.7,0.7-0.7l0,0c0.4,0,0.7,0.3,0.7,0.7v3.7c0,0.4-0.3,0.7-0.7,0.7l0,0
			C738.3,162.8,738,162.5,738,162.1z"/>
	</g>
</g>
<g id="Layer_15">
	<g>
		<path class="st14" d="M538.1,118.7h-32.9c-1.4,0-2.6-1.2-2.6-2.6V83.2c0-1.4,1.2-2.6,2.6-2.6h32.9c1.4,0,2.6,1.2,2.6,2.6v32.9
			C540.7,117.5,539.5,118.7,538.1,118.7z"/>
		<g>
			<path class="st12" d="M532.2,86.7l0.2,0.2c-0.1,1.1-0.2,3-0.2,5.7l-0.1,0.1h-0.9l-0.1-0.2l-0.2-1.7c-0.1-0.9-0.2-1.5-0.2-1.7
				c-0.1-0.2-0.1-0.3-0.3-0.4c-0.1-0.1-0.5-0.2-1.2-0.2s-1.4-0.1-2.2-0.1h-3.5c-0.1,2.8-0.1,4.3-0.1,4.8v10.6l0,3.6
				c0,1.4,0,2.3,0.1,2.7c0.1,0.4,0.1,0.7,0.3,0.8c0.1,0.1,0.3,0.2,0.7,0.3c0.3,0.1,1.1,0.2,2.4,0.2l0.1,0.1v0.9l-0.1,0.1
				c-3.1-0.1-4.9-0.1-5.2-0.1c-0.4,0-2.1,0-5.2,0.1l-0.1-0.1v-0.9l0.1-0.1c1.1,0,1.9-0.1,2.3-0.2c0.4-0.1,0.6-0.2,0.7-0.3
				c0.1-0.1,0.2-0.4,0.3-0.7s0.1-1.2,0.1-2.5l0-3.9V93.2c0-0.2,0-1.8-0.1-4.8h-2.7c-1.1,0-2.1,0-2.9,0.1c-0.8,0-1.3,0.2-1.4,0.4
				c-0.1,0.2-0.2,0.9-0.4,2l-0.2,1.7l-0.2,0.2h-0.8l-0.1-0.1c0-2.9-0.1-4.8-0.2-5.7l0.2-0.2c2.1,0.1,5.6,0.1,10.6,0.1
				C526.7,86.8,530.2,86.8,532.2,86.7z"/>
		</g>
	</g>
</g>
<g id="Layer_14">
	<g>
		<path class="st13" d="M230.8,236.8c-0.6,0-1.2-0.2-1.6-0.6c-0.6-0.7-0.5-1.7,0.4-2.2c3.9-2.3,6.3-3.4,6.4-3.5
			c0.9-0.4,2.1-0.2,2.7,0.6c0.5,0.7,0.2,1.7-0.7,2.1c0,0-2.3,1.1-6,3.3C231.6,236.7,231.2,236.8,230.8,236.8z"/>
		<path class="st13" d="M239.1,397.2c-1.7,0-3.5,0-5.3-0.1c-1.1,0-1.9-0.8-1.8-1.6c0.1-0.9,1-1.5,2.1-1.5c1.8,0.1,3.5,0.1,5.2,0.1
			c3.3,0,6.4-0.2,9.4-0.5c1.1-0.1,2,0.5,2.2,1.3c0.1,0.9-0.6,1.6-1.7,1.7C245.9,397,242.6,397.2,239.1,397.2z M219,395.5
			c-0.1,0-0.3,0-0.4,0c-5.2-0.9-10.1-2.2-14.6-3.9c-1-0.4-1.4-1.3-1-2.1c0.4-0.8,1.6-1.1,2.6-0.8c4.2,1.5,8.9,2.8,13.9,3.7
			c1,0.2,1.7,1,1.5,1.9C220.7,395,219.9,395.5,219,395.5z M263.4,393.7c-0.8,0-1.5-0.4-1.8-1c-0.4-0.8,0.1-1.7,1.1-2
			c4.5-1.5,8.6-3.5,12.3-6c0.8-0.6,2-0.5,2.7,0.2c0.7,0.7,0.6,1.6-0.2,2.2c-3.9,2.7-8.4,4.9-13.3,6.5
			C263.9,393.7,263.6,393.7,263.4,393.7z M192,385.4c-0.4,0-0.9-0.1-1.2-0.4c-4-2.6-7.5-5.7-10.5-9.1c-0.6-0.7-0.4-1.7,0.5-2.2
			c0.9-0.5,2.1-0.3,2.7,0.4c2.8,3.2,6.1,6.1,9.8,8.5c0.8,0.5,0.9,1.5,0.3,2.2C193.2,385.2,192.6,385.4,192,385.4z M285.9,378.5
			c-0.4,0-0.7-0.1-1-0.2c-0.9-0.5-1.2-1.4-0.6-2.1c2.5-3.1,4.6-6.6,6.4-10.5c0.4-0.8,1.5-1.2,2.5-0.9c1,0.3,1.5,1.2,1.2,2
			c-1.9,4.1-4.1,7.8-6.8,11.1C287.2,378.2,286.6,378.5,285.9,378.5z M174.9,365.9c-0.8,0-1.5-0.4-1.8-1c-1.7-3.7-3.1-7.7-4-11.9
			c-0.2-0.8,0.5-1.7,1.6-1.8c1.1-0.1,2.1,0.4,2.2,1.3c0.9,4,2.2,7.8,3.8,11.3c0.4,0.8-0.1,1.7-1.1,2
			C175.4,365.9,175.2,365.9,174.9,365.9z M296.5,356.1c-0.1,0-0.3,0-0.4,0c-1.1-0.2-1.7-1-1.5-1.8c0.9-3.6,1.6-7.6,2.1-11.7
			c0.1-0.9,1.1-1.5,2.1-1.4c1.1,0.1,1.9,0.8,1.8,1.7c-0.5,4.3-1.2,8.3-2.2,12.1C298.2,355.6,297.4,356.1,296.5,356.1z M169.6,342.4
			c-1.1,0-1.9-0.7-1.9-1.5c0-0.8,0-1.6,0-2.4c0-3.2,0.2-6.5,0.6-9.8c0.1-0.9,1.1-1.5,2.1-1.4c1.1,0.1,1.9,0.8,1.8,1.7
			c-0.4,3.3-0.6,6.5-0.6,9.6c0,0.8,0,1.5,0,2.3C171.6,341.6,170.7,342.3,169.6,342.4C169.6,342.4,169.6,342.4,169.6,342.4z
			 M299.4,332.2C299.4,332.2,299.4,332.2,299.4,332.2c-1.1,0-2-0.7-1.9-1.6c0-0.9,0-1.8,0-2.7c0-2.9-0.1-6-0.3-9.2
			c0-0.9,0.8-1.6,1.9-1.6c1.1,0,2,0.6,2,1.5c0.2,3.2,0.3,6.4,0.3,9.3c0,0.9,0,1.8,0,2.8C301.3,331.5,300.4,332.2,299.4,332.2z
			 M172.2,318.4c-0.1,0-0.2,0-0.4,0c-1.1-0.2-1.8-1-1.6-1.8c0.9-3.9,2-7.8,3.4-11.8c0.3-0.8,1.3-1.3,2.4-1.1c1,0.2,1.7,1.1,1.4,1.9
			c-1.3,3.9-2.4,7.8-3.3,11.6C174,317.9,173.1,318.4,172.2,318.4z M298.2,308.1c-1,0-1.8-0.6-1.9-1.4c-0.2-1.5-0.3-3-0.5-4.4
			c-0.2-2-0.4-4-0.4-6c0-0.6,0-1.1,0-1.7c0-0.9,0.9-1.6,2-1.5c1.1,0,1.9,0.7,1.9,1.6c0,0.5,0,1.1,0,1.6c0,1.9,0.1,3.9,0.3,5.7
			c0.2,1.5,0.4,3,0.5,4.5c0.1,0.9-0.7,1.6-1.8,1.7C298.3,308.1,298.2,308.1,298.2,308.1z M180,295.2c-0.2,0-0.4,0-0.6-0.1
			c-1-0.3-1.6-1.2-1.2-2c0.5-1.1,1-2.3,1.5-3.4c1.2-2.7,2.5-5.3,4-7.9c0.4-0.8,1.6-1.1,2.6-0.8c1,0.3,1.4,1.3,1,2.1
			c-1.4,2.5-2.7,5.1-3.9,7.7c-0.5,1.1-1,2.3-1.5,3.4C181.5,294.8,180.8,295.2,180,295.2z M299.2,284.2c-0.1,0-0.3,0-0.4,0
			c-1-0.2-1.7-1-1.5-1.9c1.2-4.1,2.8-8.1,4.9-11.7c0.5-0.8,1.6-1.1,2.6-0.8c1,0.4,1.4,1.3,0.9,2.1c-2,3.4-3.6,7.1-4.7,11.1
			C300.9,283.7,300.1,284.2,299.2,284.2z M192,273.2c-0.3,0-0.6-0.1-0.9-0.2c-0.9-0.4-1.3-1.4-0.8-2.1c2.5-3.6,5.2-7,8-10.4
			c0.6-0.7,1.8-0.9,2.7-0.4c0.9,0.5,1.1,1.5,0.5,2.2c-2.8,3.2-5.4,6.6-7.8,10.1C193.4,272.9,192.7,273.2,192,273.2z M312.1,262.7
			c-0.5,0-0.9-0.1-1.3-0.4c-0.8-0.6-0.9-1.6-0.2-2.2c3.9-3.5,8.2-6,12.8-7.4c1-0.3,2.1,0.1,2.5,0.9c0.4,0.8-0.1,1.7-1.1,2
			c-4,1.3-7.8,3.5-11.3,6.6C313.2,262.5,312.6,262.7,312.1,262.7z M351.9,260.9c-0.4,0-0.9-0.1-1.3-0.4c-4-2.8-8.2-4.6-12.3-5.5
			c-1-0.2-1.6-1.1-1.4-1.9c0.3-0.8,1.4-1.3,2.4-1.1c4.7,1,9.3,3.1,13.8,6.1c0.8,0.6,0.9,1.5,0.2,2.2
			C353,260.7,352.4,260.9,351.9,260.9z M209.1,253.4c-0.4,0-0.9-0.1-1.3-0.4c-0.8-0.6-0.9-1.5-0.2-2.2c3.3-3.1,6.8-6.1,10.4-8.9
			c0.8-0.6,2-0.6,2.7,0c0.7,0.6,0.7,1.6-0.1,2.2c-3.5,2.7-6.9,5.6-10.1,8.7C210.2,253.2,209.6,253.4,209.1,253.4z"/>
		<path class="st13" d="M366.3,275c-0.7,0-1.3-0.3-1.7-0.7c-1.3-1.7-2.7-3.4-4.1-4.9c-0.6-0.7-0.4-1.7,0.4-2.2
			c0.9-0.5,2.1-0.4,2.7,0.3c1.4,1.6,2.9,3.3,4.2,5.1c0.6,0.7,0.3,1.7-0.6,2.1C367,274.9,366.7,275,366.3,275z"/>
	</g>
</g>
<g id="Layer_13">
	<g>
		<path class="st13" d="M274.4,206.4l-16.8,11.1c0.7,1.2,0.1,2.9-1.6,4c-1.9,1.3-4.5,1.2-5.8,0c-1.3-1.3-0.8-3.3,1.1-4.5
			c1.5-1,3.3-1.2,4.7-0.7l17.2-11.4l-41.9,9.5l6.1,6l-11.7,7.8l11.1,10.9l11.7-7.8l6.5,6.4L274.4,206.4z"/>
		<polygon class="st12" points="235.6,242.4 221.3,228.2 227.2,224.3 241.6,238.4 		"/>
	</g>
</g>
<g id="Layer_12">
	<g>
		<path class="st13" d="M438,235.6c-0.6,0-1.2-0.4-1.4-1.1c-0.2-0.8,0.3-1.5,1-1.7c0.1,0,2.1-0.5,5.6-1c0.8-0.1,1.5,0.5,1.6,1.2
			c0.1,0.8-0.5,1.5-1.2,1.6c-3.3,0.4-5.2,0.9-5.2,0.9C438.3,235.6,438.2,235.6,438,235.6z"/>
		<path class="st13" d="M558.8,281.9c-2.2,0-4.5-0.1-6.7-0.3c-0.8-0.1-1.4-0.8-1.3-1.5c0.1-0.8,0.8-1.4,1.5-1.3
			c3.6,0.3,7.3,0.4,10.9,0.1c0.8,0,1.5,0.5,1.5,1.3c0.1,0.8-0.5,1.5-1.3,1.5C562,281.9,560.4,281.9,558.8,281.9z M574.4,280.2
			c-0.7,0-1.2-0.5-1.4-1.1c-0.2-0.8,0.3-1.5,1.1-1.7c3.6-0.8,7.1-1.9,10.4-3.3c0.7-0.3,1.6,0,1.9,0.8c0.3,0.7,0,1.6-0.8,1.9
			c-3.4,1.4-7.1,2.6-10.9,3.5C574.7,280.2,574.5,280.2,574.4,280.2z M541.3,279.8c-0.1,0-0.2,0-0.3,0c-3.7-0.9-7.3-2.1-10.8-3.6
			c-0.7-0.3-1.1-1.1-0.8-1.9c0.3-0.7,1.1-1.1,1.9-0.8c3.3,1.4,6.8,2.6,10.4,3.4c0.8,0.2,1.2,1,1,1.7
			C542.5,279.4,541.9,279.8,541.3,279.8z M594.8,271.5c-0.5,0-0.9-0.2-1.2-0.6c-0.5-0.6-0.3-1.5,0.4-2c3-2.1,5.7-4.5,8-7.2
			c0.5-0.6,1.4-0.7,2-0.2c0.6,0.5,0.7,1.4,0.2,2c-2.4,2.8-5.3,5.4-8.5,7.7C595.4,271.4,595.1,271.5,594.8,271.5z M520.8,271.1
			c-0.3,0-0.5-0.1-0.8-0.2c-3.2-2.1-6.2-4.5-9-7.1c-0.6-0.5-0.6-1.4,0-2s1.4-0.6,2,0c2.6,2.5,5.5,4.7,8.5,6.7c0.7,0.4,0.9,1.3,0.4,2
			C521.8,270.9,521.3,271.1,520.8,271.1z M504.4,256.1c-0.4,0-0.7-0.1-1-0.4c-2.6-2.6-5.4-5-8.2-7.2c-0.6-0.5-0.8-1.4-0.3-2
			c0.5-0.6,1.4-0.8,2-0.3c3,2.2,5.8,4.7,8.5,7.5c0.6,0.6,0.6,1.5,0,2C505.1,255.9,504.8,256.1,504.4,256.1z M609.1,254.7
			c-0.2,0-0.4,0-0.6-0.1c-0.7-0.3-1-1.2-0.7-1.9c1.4-3.1,2.4-6.5,2.9-9.9l0.1-0.4c0.1-0.8,0.8-1.3,1.6-1.2c0.8,0.1,1.3,0.8,1.2,1.6
			l-0.1,0.4c-0.5,3.7-1.6,7.3-3.1,10.7C610.1,254.4,609.6,254.7,609.1,254.7z M486.6,242.7c-0.2,0-0.5-0.1-0.7-0.2
			c-3.2-1.7-6.6-3.2-10-4.4c-0.7-0.3-1.1-1.1-0.9-1.8c0.3-0.7,1.1-1.1,1.8-0.9c3.6,1.3,7.1,2.8,10.4,4.6c0.7,0.4,1,1.2,0.6,1.9
			C487.6,242.5,487.1,242.7,486.6,242.7z M465.7,235.4c-0.1,0-0.2,0-0.3,0c-3.6-0.7-7.2-1.1-10.9-1.2c-0.8,0-1.4-0.7-1.4-1.5
			c0-0.8,0.7-1.4,1.5-1.4c3.8,0.1,7.6,0.5,11.3,1.2c0.8,0.1,1.3,0.9,1.1,1.7C466.9,234.9,466.3,235.4,465.7,235.4z M612.7,232.9
			c-0.8,0-1.4-0.6-1.4-1.4c-0.1-3.5-0.5-7.1-1.2-10.9c-0.1-0.8,0.4-1.5,1.2-1.7c0.8-0.1,1.5,0.4,1.7,1.2c0.7,3.9,1.1,7.7,1.2,11.3
			C614.1,232.2,613.5,232.8,612.7,232.9C612.7,232.9,612.7,232.9,612.7,232.9z M608.8,210.9c-0.6,0-1.2-0.4-1.4-1
			c-1-3.3-2.1-6.7-3.5-10.5c-0.3-0.7,0.1-1.6,0.8-1.8c0.7-0.3,1.6,0.1,1.8,0.8c1.4,3.8,2.6,7.3,3.6,10.7c0.2,0.8-0.2,1.5-1,1.8
			C609.1,210.9,609,210.9,608.8,210.9z M601.2,190c-0.6,0-1.1-0.3-1.3-0.9c-0.9-2.3-1.9-4.5-2.8-6.7l-1.5-3.6
			c-0.3-0.7,0-1.6,0.8-1.9c0.7-0.3,1.6,0,1.9,0.8l1.5,3.6c0.9,2.2,1.9,4.5,2.8,6.7c0.3,0.7,0,1.6-0.8,1.9
			C601.5,189.9,601.4,190,601.2,190z M592.6,169.4c-0.6,0-1.1-0.3-1.3-0.9c-1.5-4-2.7-7.5-3.6-10.7c-0.2-0.8,0.2-1.5,1-1.8
			c0.8-0.2,1.6,0.2,1.8,1c0.9,3.1,2.1,6.6,3.6,10.4c0.3,0.7-0.1,1.6-0.8,1.8C593,169.3,592.8,169.4,592.6,169.4z M586.7,147.9
			c-0.7,0-1.3-0.5-1.4-1.3c-0.3-2.1-0.4-4.1-0.4-6.1c0-1.9,0.1-3.7,0.4-5.4c0.1-0.8,0.8-1.3,1.6-1.2c0.8,0.1,1.3,0.8,1.2,1.6
			c-0.2,1.6-0.3,3.3-0.3,5c0,1.8,0.1,3.7,0.4,5.7c0.1,0.8-0.5,1.5-1.2,1.6C586.8,147.9,586.7,147.9,586.7,147.9z M589.9,126.2
			c-0.2,0-0.4,0-0.6-0.2c-0.7-0.4-1-1.2-0.6-1.9c1.7-3.4,3.9-6.4,6.8-9.3c0.6-0.6,1.5-0.6,2,0c0.6,0.6,0.6,1.5,0,2
			c-2.7,2.7-4.7,5.5-6.3,8.6C590.9,125.9,590.4,126.2,589.9,126.2z M605.1,110.2c-0.5,0-0.9-0.2-1.2-0.6c-0.4-0.7-0.3-1.5,0.4-2
			c2.3-1.5,4.6-3,6.9-4.4l2.6-1.6c0.7-0.4,1.6-0.2,2,0.5c0.4,0.7,0.2,1.5-0.4,2l-2.6,1.6c-2.2,1.4-4.5,2.8-6.8,4.3
			C605.7,110.1,605.4,110.2,605.1,110.2z M623.6,97.8c-0.4,0-0.8-0.2-1.1-0.5c-0.5-0.6-0.5-1.5,0.1-2c3-2.7,5-5.4,6.1-8.3
			c0.3-0.7,1.1-1.1,1.8-0.8c0.7,0.3,1.1,1.1,0.8,1.8c-1.3,3.4-3.5,6.5-6.9,9.5C624.3,97.6,624,97.8,623.6,97.8z"/>
		<path class="st13" d="M631,77.7c-0.7,0-1.3-0.5-1.4-1.2c-0.3-1.6-0.7-3.3-1.3-5.1c-0.2-0.8,0.2-1.6,0.9-1.8
			c0.8-0.2,1.6,0.2,1.8,0.9c0.6,1.9,1.1,3.8,1.4,5.5c0.1,0.8-0.4,1.5-1.2,1.6C631.1,77.7,631,77.7,631,77.7z"/>
	</g>
</g>
<g id="Layer_11">
	<path class="st9" d="M625,55.2l0.3,7.6c0.1,1.4-0.8,2.6-2.1,3l-11.3,3.7c-0.8,0.3-1.6-0.4-1.6-1.2l2.4-39.1c0.1-1,1.3-1.5,2.1-0.8
		L643.1,57c0.6,0.6,0.4,1.7-0.5,2l-8.4,2.9c-1.1,0.4-2.3,0.1-3.1-0.7L625,55.2z"/>
</g>
<g id="Layer_10">
	<g>
		<path class="st12" d="M384.5,103.4L384.5,103.4c-1.8,1.1-4.1,0.5-5.2-1.3l-9.5-15.7l6.4-3.9l9.5,15.7
			C386.9,100,386.3,102.3,384.5,103.4z"/>
		<path class="st13" d="M380.5,65.3c-4.7-7.7-14.7-10.2-22.4-5.5c-7.7,4.7-10.2,14.7-5.5,22.4c4.7,7.7,14.7,10.2,22.4,5.5
			C382.7,83.1,385.2,73,380.5,65.3z M372.3,83.3c-5.2,3.2-12.1,1.5-15.3-3.8c-3.2-5.2-1.5-12.1,3.8-15.3c5.2-3.2,12.1-1.5,15.3,3.7
			C379.3,73.3,377.6,80.1,372.3,83.3z"/>
	</g>
</g>
<g id="Layer_9">
	<g>
		<path class="st14" d="M208.2,62.4v40.9c0,2.7-2.1,4.8-4.8,4.8h-53.6c-2.6,0-4.8-2.1-4.8-4.8V62.4c0-2.6,2.1-4.8,4.8-4.8h53.6
			C206.1,57.6,208.2,59.8,208.2,62.4z"/>
		<path class="st15" d="M208.2,91.4v11.9c0,2.7-2.1,4.8-4.8,4.8h-53.6c-2.6,0-4.8-2.1-4.8-4.8V92.1c0,0,13.5-19.2,21.9-19.2
			c9.7,0,16.2,22.2,21.2,22.2s6.2-9.1,12.5-9.1C204,85.9,206.6,88.9,208.2,91.4z"/>
		<linearGradient id="SVGID_7_" gradientUnits="userSpaceOnUse" x1="186.2495" y1="73.6168" x2="199.1397" y2="73.6168">
			<stop  offset="0" style="stop-color:#F16A7E"/>
			<stop  offset="1" style="stop-color:#DD2376"/>
		</linearGradient>
		<path class="st16" d="M199.1,73.6c0,3.6-2.9,6.4-6.4,6.4c-3.6,0-6.4-2.9-6.4-6.4c0-3.6,2.9-6.4,6.4-6.4
			C196.3,67.2,199.1,70.1,199.1,73.6z"/>
	</g>
</g>
<g id="Layer_8">
	<g>
		<path class="st6" d="M475.5,299.1l-61.2-41l-31.8,25.4c24.8,17,60.4,33.8,88.9,45.2l7.5-10.5C483.4,312,481.9,303.4,475.5,299.1z"
			/>
		<path class="st6" d="M457,302.2c-6.2,31.2-5.9,60.9-4,98.3c0.1,1.8,1.5,3.3,3.3,3.5l0,0c1.9,0.2,3.6-1,4.1-2.8l20.9-85.6
			c1.6-6.7-2.7-13.3-9.5-14.5l-10.4-1.9C459.3,299,457.4,300.3,457,302.2z"/>
		<linearGradient id="SVGID_8_" gradientUnits="userSpaceOnUse" x1="452.2303" y1="406.498" x2="478.2455" y2="406.498">
			<stop  offset="0" style="stop-color:#3A77BC"/>
			<stop  offset="1" style="stop-color:#2B4057"/>
		</linearGradient>
		<polygon class="st17" points="453.1,400.3 459.6,400.4 469.6,407.2 478,408.6 478.2,412.6 452.2,412.6 		"/>
	</g>
</g>
<g id="Layer_7">
	<polygon class="st6" points="372.2,242.5 369.3,278.7 410.8,294.1 414.4,258.1 	"/>
</g>
<g id="Layer_6">
	<g>
		<path class="st6" d="M365.9,324.3c-22.6,24.1-39,52-57.1,84.5c-0.9,1.6-0.5,3.7,1,4.8l0,0c1.5,1.1,3.5,0.9,4.8-0.4l64.5-65.4
			c6.3-6.4,4.7-17-3.2-21.2l-5.6-3C368.9,322.8,367,323.1,365.9,324.3z"/>
		<linearGradient id="SVGID_9_" gradientUnits="userSpaceOnUse" x1="299.4822" y1="420.6698" x2="317.9749" y2="420.6698">
			<stop  offset="0" style="stop-color:#3A77BC"/>
			<stop  offset="1" style="stop-color:#2B4057"/>
		</linearGradient>
		<polygon class="st18" points="310,407.2 312.9,412.9 311.5,425 318,430.5 316.1,434.1 307,428.6 299.5,413.5 		"/>
		<path class="st6" d="M381.8,344l33.7-100.1l-43.3-1.3c-8.5,28.6-6,61.2-8.1,90.1L381.8,344z"/>
	</g>
</g>
<g id="Layer_5">
	<g>
		<g>
			<polygon class="st19" points="384.2,197.5 372.2,242.5 414.4,258.1 429.8,218.3 			"/>
			<path class="st19" d="M427.3,223c8.6-16.7,23.1-33.1,32.1-44.6c5-6.4,2.7-15.9-4.8-19.2c-16.2-7.3-35.9-11.7-54.1-7.6
				c-4.5,1-8,4.4-9.3,8.8c-4.6,15.9-7.4,39.1-8.8,53.2c-0.7,6.8,4.2,12.9,11,13.7l21.2,2.5C419.8,230.4,424.8,227.7,427.3,223z"/>
		</g>
		<polygon class="st20" points="441.6,144.8 435.3,164.3 424,151.1 433.3,134.7 		"/>
	</g>
</g>
<g id="Layer_4">
	<g>
		<path class="st20" d="M449.9,141.9c0.3,3.2-2.7,6.3-8.8,4.4l-10.1-5.5l-5.6-13.4l4.5-12.1l17.9-0.2L449.9,141.9z"/>
		<linearGradient id="SVGID_10_" gradientUnits="userSpaceOnUse" x1="421.692" y1="126.1665" x2="451.8746" y2="126.1665">
			<stop  offset="0" style="stop-color:#3A77BC"/>
			<stop  offset="1" style="stop-color:#2B4057"/>
		</linearGradient>
		<path class="st21" d="M432.2,131.4c3.2,3.9,4.3,1,3.7-6.6l13.1-4.5l2.8-10.2l-4.4,1.2l-17.2,1.2c-7.7,0.5-10.4,6.4-7.5,14.7
			l4,10.1c1.1,2.7,1.4,4.2,4.2,5l2-6.6L432.2,131.4z"/>
		<path class="st20" d="M434,131.5c0.9,1.8,0.8,3.6-0.2,4.1c-1,0.5-2.5-0.5-3.4-2.3c-0.9-1.8-0.8-3.6,0.2-4.1
			C431.6,128.7,433.2,129.7,434,131.5z"/>
	</g>
</g>
<g id="Layer_3">
	<g>
		<path class="st19" d="M482.3,231.3L482.3,231.3c-1.4-0.2-2.6-0.9-3.5-2c-5.4-6.4-25.2-30.5-34.5-47.9c-1.7-3.1-0.2-7,3.2-8.3
			l0.6-13.2c3-1.1,10.5,0.7,11.7,3.6l30.2,57.3c0.6,1.5,0.6,3.3-0.1,4.8l-1.2,2.4C487.4,230.4,484.9,231.7,482.3,231.3z"/>
		<path class="st20" d="M548.4,213.3c-7.7-3.6-12.2,2.8-12.2,2.8l-0.4,0.1l0,0l-49.9-3l-2.3,18.2c19.4-1.8,38.3-5.7,50.6-9.7
			l2.1,0.1c2.4,1.1,6,0.2,8.8-2.1c2.8-2.3,2.3-1.4,4.3-3C551.4,215,548.4,213.3,548.4,213.3z"/>
	</g>
</g>
<g id="Layer_2">
	<g>
		<path class="st19" d="M325.8,178.4l0.7-1.9c1.3-3.6,4.3-6.3,7.9-7.4c12.6-3.6,52.3-14.6,68.6-18.1L391.5,183l-60.1,7.2
			L325.8,178.4z"/>
		<path class="st20" d="M331.3,235l-0.3-2l11-45l-16.2-9.6c-5.3,17.6-2.7,42.4-1,55.4l-0.1,1.3c-1.3,2.8-0.2,7.1,2.5,10.3
			c2.7,3.3,1.7,2.7,3.6,5c1.9,2.4,3.9-1.2,3.9-1.2C338.8,240.2,331.3,235,331.3,235z"/>
	</g>
</g>
</svg>
