<?xml version="1.0" encoding="utf-8"?>
<!-- Generator: Adobe Illustrator 24.2.3, SVG Export Plug-In . SVG Version: 6.00 Build 0)  -->
<svg version="1.1" xmlns="http://www.w3.org/2000/svg" xmlns:xlink="http://www.w3.org/1999/xlink" x="0px" y="0px"
	 viewBox="0 0 2000 2000" style="enable-background:new 0 0 2000 2000;" xml:space="preserve">
<style type="text/css">
	.st0{fill:#D4DDF1;}
	.st1{fill:#BFD5DF;}
	.st2{fill:#C4D1EB;}
	.st3{fill:#FFFFFF;}
	.st4{fill:#CADD68;}
	.st5{fill:#D9F0F8;}
	.st6{fill:url(#SVGID_1_);}
	.st7{opacity:0.43;fill:#F9EFC5;}
	.st8{opacity:0.35;clip-path:url(#SVGID_3_);}
	.st9{fill:#D4EBDA;}
	.st10{opacity:0.6;}
	.st11{fill:#4A9AD4;}
	.st12{fill:#A3D2F1;}
	.st13{clip-path:url(#SVGID_5_);}
	.st14{fill:#91B2CC;}
	.st15{fill:#CBE6F8;}
	.st16{fill:url(#SVGID_6_);}
	.st17{fill:url(#SVGID_7_);}
	.st18{fill:url(#SVGID_8_);}
	.st19{fill:url(#SVGID_9_);}
	.st20{fill:url(#SVGID_10_);}
	.st21{fill:url(#SVGID_11_);}
	.st22{fill:url(#SVGID_12_);}
	.st23{fill:url(#SVGID_13_);}
	.st24{fill:#D6A54F;}
	.st25{fill:url(#SVGID_14_);}
	.st26{fill:#EDBF65;}
	.st27{fill:#46988A;}
	.st28{fill:url(#SVGID_15_);}
	.st29{fill:url(#SVGID_16_);}
	.st30{fill:url(#SVGID_17_);}
	.st31{fill:url(#SVGID_18_);}
	.st32{fill:url(#SVGID_19_);}
	.st33{fill:url(#SVGID_20_);}
	.st34{fill:url(#SVGID_21_);}
	.st35{fill:url(#SVGID_22_);}
	.st36{fill:url(#SVGID_23_);}
	.st37{fill:url(#SVGID_24_);}
	.st38{fill:url(#SVGID_25_);}
	.st39{fill:url(#SVGID_26_);}
	.st40{fill:url(#SVGID_27_);}
	.st41{fill:url(#SVGID_28_);}
	.st42{fill:url(#SVGID_29_);}
	.st43{fill:#B1D469;}
	.st44{fill:#FBC4B2;}
	.st45{fill:#EBF7FD;stroke:#B9DAE8;stroke-miterlimit:10;}
	.st46{fill:#0E1524;}
	.st47{fill:url(#SVGID_36_);}
	.st48{opacity:0.5;}
	.st49{fill:url(#SVGID_37_);}
	.st50{fill:url(#SVGID_38_);}
</style>
<g id="tlo">
	<g>
		<g>
			<g>
				<g>
					<path class="st0" d="M1669.6,1526.7c-3.3,7.5-8,14.5-12.5,21.3c-6.6,9.9-13.4,19.6-20.3,29.3c-8.3,11.8-16.5,23.6-24.5,35.6
						c-8.6,12.8-16.9,25.9-24.7,39.2c-7.8,13.3-15.2,27-21.5,41.1c-0.7,1.6-1.4,3.2-2,4.8c-0.1,0.3,0.3,0.4,0.5,0.2
						c6.4-14,13.4-27.7,21.1-41c7.7-13.4,16-26.5,24.6-39.5c8-12.1,16.3-24,24.6-35.9c7-10,14.1-20.1,20.9-30.2
						c4.8-7.3,9.7-14.6,13.5-22.5c0.3-0.7,0.6-1.4,0.9-2.1C1670.2,1526.7,1669.8,1526.4,1669.6,1526.7L1669.6,1526.7z"/>
				</g>
			</g>
			<path class="st1" d="M1690.8,1506.8c-2.1,3.8-5.5,5.6-9.7,8.3c1.4-7.1,1.9-16.1-0.7-18.1c-2.2-1.7-7.9,4.4-12.5,12.7
				c-4.2-12.8-1.4-16.7-3.6-16.8c-5.1-0.4-16.1,38.2,0.4,46.7c21.3,3.5,29-28.7,29-28.7C1695,1505.3,1693.9,1501,1690.8,1506.8z"/>
			<g>
				<path class="st2" d="M1670,1504.1c-0.8,0.8-0.7,2.1,0,2.9c0.8,0.8,2,0.8,2.8,0c0.8-0.8,0.7-2.1,0-2.9
					C1672.1,1503.3,1670.8,1503.3,1670,1504.1z"/>
				<path class="st2" d="M1682.2,1505.3c-0.8,0.8-0.7,2.1,0,2.9c0.8,0.8,2,0.8,2.8,0c0.8-0.8,0.7-2.1,0-2.9
					C1684.2,1504.4,1683,1504.5,1682.2,1505.3z"/>
				<path class="st2" d="M1672.6,1496.5c-0.8,0.8-0.7,2.1,0,2.9c0.8,0.8,2,0.8,2.8,0c0.8-0.8,0.7-2.1,0-2.9
					C1674.7,1495.6,1673.4,1495.6,1672.6,1496.5z"/>
				<path class="st2" d="M1683.7,1501.7c-0.4,0.5-0.4,1.2,0,1.7c0.5,0.5,1.2,0.4,1.6,0c0.4-0.5,0.4-1.2,0-1.7
					C1684.9,1501.2,1684.1,1501.3,1683.7,1501.7z"/>
				<path class="st2" d="M1667.9,1499.9c-0.4,0.5-0.4,1.2,0,1.7c0.4,0.5,1.2,0.4,1.6,0c0.4-0.5,0.4-1.2,0-1.7
					C1669.1,1499.4,1668.3,1499.4,1667.9,1499.9z"/>
			</g>
		</g>
		<g>
			<g>
				<g>
					<path class="st0" d="M299.5,1588.4c5.4,6,11.9,11,18.3,15.9c9.3,7.2,18.8,14,28.3,20.9c11.4,8.3,22.8,16.6,34.1,25.1
						c12.2,9.2,24.2,18.7,35.8,28.6c11.6,9.9,22.7,20.2,33.2,31.2c1.2,1.3,2.5,2.6,3.7,3.9c0.2,0.2,0.6-0.1,0.4-0.4
						c-9.9-11.4-21.1-21.8-32.5-31.8c-11.5-10.1-23.5-19.7-35.6-29c-11.4-8.7-22.9-17.2-34.5-25.6c-9.8-7.1-19.6-14.1-29.3-21.4
						c-6.8-5.2-13.8-10.4-19.9-16.5c-0.5-0.5-1-1.1-1.6-1.6C299.7,1587.7,299.3,1588.2,299.5,1588.4L299.5,1588.4z"/>
				</g>
			</g>
			<path class="st1" d="M273.7,1576.4c3.2,2.9,6.9,3.4,11.7,4.5c-3.5-6.2-6.9-14.6-5-17.3c1.6-2.4,8.9,1.5,15.8,7.7
				c-0.1-13.5-3.9-16.3-1.8-17.1c4.7-2.1,27.1,30.6,14.2,44.2c-19,10.5-36.4-17.2-36.4-17.2C269.3,1576.4,268.9,1572,273.7,1576.4z"
				/>
			<g>
				<path class="st2" d="M292.5,1566.8c1,0.5,1.4,1.8,0.9,2.8c-0.5,1-1.7,1.4-2.7,0.9c-1-0.5-1.4-1.8-0.9-2.8
					C290.3,1566.7,291.5,1566.3,292.5,1566.8z"/>
				<path class="st2" d="M281.3,1572.1c1,0.5,1.4,1.8,0.9,2.8c-0.5,1-1.7,1.4-2.7,0.9c-1-0.5-1.4-1.8-0.9-2.8
					C279.2,1572,280.3,1571.5,281.3,1572.1z"/>
				<path class="st2" d="M287.6,1560.5c1,0.5,1.4,1.8,0.9,2.8c-0.5,1-1.7,1.4-2.7,0.9c-1-0.5-1.4-1.8-0.9-2.8
					C285.4,1560.3,286.6,1559.9,287.6,1560.5z"/>
				<path class="st2" d="M278.8,1569.2c0.6,0.3,0.8,1,0.5,1.6c-0.3,0.6-1,0.8-1.5,0.5s-0.8-1-0.5-1.6
					C277.6,1569.2,278.2,1568.9,278.8,1569.2z"/>
				<path class="st2" d="M293.1,1562c0.6,0.3,0.8,1,0.5,1.6c-0.3,0.6-1,0.8-1.5,0.5c-0.6-0.3-0.8-1-0.5-1.6
					C291.9,1562,292.6,1561.8,293.1,1562z"/>
			</g>
		</g>
		<g>
			<path class="st1" d="M503.9,1707c0,0-74.3-220.6-169.5-272.2c-20.1-10.9-34-14.9-42.7-13.6c-32.6,4.9,11.3,81.3,81,155.7
				c71.5,76.3,66.5,83.2,107.3,138.8"/>
			<path class="st3" d="M291.6,1427.3c17.3,16,33.8,33.2,49.5,51.3c0.3-12.2-2.2-24.1-3.6-36.2c-0.1-0.8,1-1.4,1.4-0.5
				c4.4,10.9,6.5,26.8,4.1,38.9c10.9,12.7,21.5,25.8,31.7,39.2c-0.1-5.3,0.4-10.5,0.5-15.8c0.2-9.6-1.6-18.7-2.9-28.1
				c-0.1-0.8,1-1.4,1.4-0.5c5.7,15.1,4.3,31,2.8,46.7c11.6,15.3,22.8,31,33.5,46.9c0.1-4.4,0.5-8.8,0.5-13.2
				c0.2-9.6-1.6-18.7-2.9-28.1c-0.1-0.8,1-1.4,1.4-0.5c5.5,14.5,4.4,29.7,3,44.8c9.1,13.6,17.9,27.3,26.4,41
				c0.1-4.2,0.5-8.5,0.5-12.7c0.2-9.6-1.6-18.7-2.9-28.1c-0.1-0.8,1-1.4,1.4-0.5c5.4,14.4,4.4,29.5,3,44.5c0.3,0.5,0.6,0.9,0.8,1.4
				c13.9,22.6,27.3,45.7,39.2,69.6c2,4,13.2,21.2,10.6,26.1c-0.5,1-1.9,0.1-1.4-0.9c0.6-1.2-3.6-8.8-4.3-10.3
				c-3.3-7-6.8-13.9-10.4-20.7c-11.2-21.3-23.3-41.9-35.9-62.3c-0.3-0.1-0.5-0.4-0.5-0.7c0,0,0,0,0-0.1c-1.3-2.1-2.6-4.2-3.9-6.3
				c-4.3-6.8-8.7-13.5-13.1-20.2c-1.8,0.6-3.9,0.5-5.7,0.5c-4.1-0.2-8.9-0.8-12.4-3c-0.7-0.4-0.3-1.4,0.4-1.4c5.5,0,10.9,2,16.4,1.9
				c-7.6-11.4-15.4-22.6-23.3-33.6c-1.6,0.3-3.3,0.3-4.8,0.3c-4.1-0.2-8.9-0.8-12.4-3c-0.7-0.4-0.3-1.4,0.4-1.4
				c5.1,0,10.1,1.7,15.1,1.8c-1.7-2.3-3.4-4.6-5-6.9c-12.8,4.5-32.4-5.2-40.7-14.6c-0.6-0.6,0.2-1.6,0.9-1.2
				c10.6,6.9,25.1,16.2,38.6,14.1c-9.3-12.6-18.9-25-28.7-37.2c-12.8,4.1-32.1-5.5-40.2-14.7c-0.6-0.6,0.2-1.6,0.9-1.2
				c10.4,6.8,24.7,15.9,37.9,14.2c-21.6-26.8-44.2-52.6-68-77.8C289.9,1427.6,290.9,1426.6,291.6,1427.3z"/>
		</g>
		<g>
			<path class="st1" d="M1562.9,1717.6c0,0,155.5-168.1,262.6-173.6c22.6-1.1,36.8,1.3,44.2,6.3c27.7,18.6-42.7,69-135.7,106.3
				c-95.5,38.2-93.6,46.6-152.9,79.5"/>
			<path class="st3" d="M1867.3,1555.8c-22.1,7-44,15.4-65.5,25c4.7-11.2,11.6-20.9,17.7-31.4c0.4-0.7-0.4-1.7-1-1.1
				c-8.4,8-16.6,21.6-19.3,33.6c-15,6.8-29.8,14.1-44.4,21.8c2.2-4.7,3.8-9.7,5.8-14.6c3.7-8.8,8.9-16.3,13.9-24.3
				c0.4-0.7-0.4-1.7-1-1.1c-11.2,11.2-16.3,26.3-21.2,41.3c-16.7,8.9-33.1,18.3-49.1,28.1c1.7-4,3.1-8.2,4.8-12.3
				c3.7-8.8,8.9-16.3,13.9-24.3c0.4-0.7-0.4-1.7-1-1.1c-10.7,10.8-15.8,25.1-20.5,39.4c-13.7,8.4-27.1,17-40.4,25.8
				c1.6-3.9,3-7.9,4.6-11.8c3.7-8.8,8.9-16.3,13.9-24.3c0.4-0.7-0.4-1.7-1-1.1c-10.7,10.7-15.8,24.9-20.5,39.2
				c-0.4,0.3-0.9,0.6-1.3,0.9c-21.7,14.5-43,29.7-63.4,46.2c-3.4,2.8-20.4,13.5-20.1,19.1c0.1,1.1,1.7,0.9,1.7-0.2
				c-0.1-1.4,6.7-6.4,8-7.5c5.8-5,11.8-9.7,17.7-14.3c18.6-14.5,37.9-28,57.5-40.9c0.3,0,0.6-0.1,0.7-0.5c0,0,0,0,0,0
				c2-1.3,4.1-2.7,6.1-4.1c6.6-4.3,13.3-8.5,20-12.7c1.5,1.3,3.3,2.2,5,2.9c3.8,1.6,8.4,3.1,12.5,2.7c0.8-0.1,0.8-1.2,0.2-1.5
				c-5-2.3-10.7-3-15.7-5.5c11.4-7.1,23-13.8,34.6-20.4c1.3,1,2.9,1.7,4.3,2.3c3.8,1.6,8.4,3.1,12.5,2.7c0.8-0.1,0.8-1.2,0.2-1.5
				c-4.6-2.2-9.8-2.9-14.5-4.9c2.4-1.4,4.9-2.8,7.4-4.1c9.9,9.6,31.6,9.4,42.8,4.5c0.8-0.3,0.4-1.6-0.4-1.5
				c-12.4,1.6-29.3,3.8-40.7-4c13.5-7.4,27.2-14.5,40.9-21.3c10,9.3,31.3,9,42.5,4.1c0.8-0.3,0.4-1.6-0.4-1.5
				c-12.2,1.6-28.8,3.7-40.1-3.6c30.3-14.9,61.2-28.6,92.8-41.1C1868.8,1556.8,1868.2,1555.5,1867.3,1555.8z"/>
		</g>
		<g>
			<g>
				<path class="st4" d="M529.7,1724.8c0,0-21.4-278.3-108.8-280c-87.3-1.7,41.2,190.4,62.6,253.3c0,0-100.5-189.5-144.2-143
					c-43.7,46.5,82.6,111.9,113.3,154.8c0,0-193.6-141.2-200.2-51.9c-0.9,12.9,11.7,30.3,55.5,39.2c43.7,8.9,103.3,11.7,140.9,54.3"
					/>
				<g>
					<g>
						<path class="st3" d="M423.9,1476c8.4,14.2,15.7,29.1,22.3,44.2c7.4,16.9,14,34.1,20.2,51.5c6.4,18,12.2,36.2,17.7,54.4
							c5.3,17.8,10.3,35.7,15,53.7c4.2,16.2,8.1,32.4,11.9,48.7c0.4,1.8,0.9,3.6,1.3,5.4c0.1,0.5,0.8,0.3,0.7-0.2
							c-3.2-16.1-7.1-32.1-11.1-47.9c-4.5-17.9-9.4-35.8-14.6-53.6c-5.4-18.4-11.2-36.7-17.4-54.7c-6.1-17.5-12.6-34.8-19.9-51.8
							c-6.7-15.5-13.9-30.8-22.4-45.3c-0.9-1.6-1.9-3.2-2.9-4.8C424.3,1475.2,423.6,1475.6,423.9,1476L423.9,1476z"/>
					</g>
				</g>
				<g>
					<g>
						<path class="st3" d="M353.2,1571.4c10.4,9.4,20.4,19.3,30.1,29.5c10.2,10.8,20.1,21.9,29.6,33.2c9.7,11.5,19.1,23.2,28.2,35.1
							c8.8,11.4,17.4,23.1,25.8,34.8c7.7,10.8,15.2,21.8,22.6,32.8c0.9,1.3,1.7,2.5,2.6,3.8c0.3,0.4,0.9,0,0.6-0.4
							c-6.8-11.2-14.3-22-21.8-32.7c-8.3-11.8-16.7-23.4-25.4-34.8c-9.1-11.9-18.4-23.7-28-35.2c-9.5-11.4-19.4-22.6-29.6-33.5
							c-9.7-10.3-19.7-20.4-30.3-29.8c-1.2-1.1-2.5-2.2-3.7-3.3C353.3,1570.5,352.8,1571,353.2,1571.4L353.2,1571.4z"/>
					</g>
				</g>
				<g>
					<g>
						<path class="st3" d="M284.1,1656.1c10.8,1.6,21.5,4,32,6.8c12.1,3.2,24,7.2,35.7,11.6c13.1,5,26,10.7,38.5,17
							c13.6,6.9,26.9,14.4,39.8,22.7c13.9,8.9,27.2,18.6,40,28.9c1.6,1.3,3.3,2.6,4.9,3.9c0.4,0.3,0.9-0.2,0.5-0.5
							c-6.2-5.6-12.8-10.8-19.5-15.8c-6.6-4.9-13.3-9.7-20.1-14.2c-12.9-8.6-26.3-16.5-40.1-23.7c-12.6-6.5-25.5-12.5-38.7-17.7
							c-11.9-4.7-24.1-8.8-36.4-12.2c-10.8-3-21.7-5.4-32.8-7.1c-1.2-0.2-2.5-0.4-3.7-0.5C283.8,1655.2,283.5,1656,284.1,1656.1
							L284.1,1656.1z"/>
					</g>
				</g>
			</g>
			<g>
				<path class="st4" d="M1518.1,1724.8c0,0,21.4-278.3,108.8-280c87.3-1.7-41.2,190.4-62.6,253.3c0,0,100.5-189.5,144.2-143
					c43.7,46.5-82.6,111.9-113.3,154.8c0,0,193.6-141.2,200.2-51.9c0.9,12.9-11.7,30.3-55.5,39.2c-43.7,8.9-103.3,11.7-140.9,54.3"
					/>
				<g>
					<g>
						<path class="st3" d="M1623.3,1475.6c-8.6,14.1-15.9,28.9-22.6,44c-7.5,16.8-14.2,34-20.3,51.4c-6.4,18-12.3,36.3-17.8,54.6
							c-5.3,17.8-10.3,35.8-14.9,53.8c-4.2,16.3-8.2,32.6-11.7,49c-0.4,1.8-0.8,3.6-1.1,5.4c-0.1,0.5,0.6,0.6,0.7,0.2
							c3.9-15.9,7.6-31.9,11.6-47.8c4.5-17.8,9.4-35.5,14.6-53.2c5.4-18.3,11.1-36.5,17.4-54.6c6.1-17.6,12.7-35.1,20-52.3
							c6.6-15.4,13.8-30.7,22.1-45.3c0.9-1.6,1.9-3.2,2.8-4.8C1624.2,1475.6,1623.5,1475.2,1623.3,1475.6L1623.3,1475.6z"/>
					</g>
				</g>
				<g>
					<g>
						<path class="st3" d="M1694.1,1570.8c-10.6,9.3-20.7,19.1-30.4,29.3c-10.3,10.7-20.1,21.8-29.7,33.2
							c-9.7,11.5-19.1,23.2-28.2,35.1c-8.8,11.5-17.4,23.2-25.8,35c-7.7,10.8-15.2,21.8-22.3,32.9c-0.8,1.3-1.6,2.6-2.4,3.9
							c-0.2,0.4,0.4,0.7,0.6,0.4c7.5-10.7,14.7-21.7,22.2-32.3c8.3-11.8,16.8-23.4,25.5-34.8c9.1-11.9,18.4-23.6,28-35.1
							c9.5-11.4,19.3-22.6,29.4-33.5c9.7-10.4,19.7-20.4,30.1-30c1.2-1.1,2.5-2.3,3.7-3.4C1695.1,1571,1694.5,1570.5,1694.1,1570.8
							L1694.1,1570.8z"/>
					</g>
				</g>
				<g>
					<g>
						<path class="st3" d="M1763.6,1655.3c-10.9,1.5-21.6,3.7-32.3,6.5c-12.2,3.2-24.3,7.1-36.1,11.6c-13.1,5-25.9,10.7-38.5,17
							c-13.7,6.9-27,14.6-39.9,22.9c-13.8,8.9-27.1,18.6-39.8,29.1c-1.6,1.3-3.2,2.7-4.8,4.1c-0.4,0.3,0.2,0.8,0.5,0.5
							c6.7-5.3,13.3-10.6,20.1-15.7c6.5-4.9,13.2-9.6,20-14.1c12.8-8.5,26.1-16.3,39.7-23.3c12.6-6.6,25.6-12.5,38.8-17.7
							c11.9-4.7,23.9-8.8,36.2-12.3c10.7-3,21.5-5.5,32.5-7.3c1.2-0.2,2.5-0.4,3.7-0.6C1764.3,1656,1764.1,1655.2,1763.6,1655.3
							L1763.6,1655.3z"/>
					</g>
				</g>
			</g>
		</g>
	</g>
	<g>
		<path class="st5" d="M99.6,1726.2c0,0,79.9,80.8,189.3,94.5c109.5,13.7,230.9-58.3,316.4-52.6c85.5,5.7,154.2,51.8,370.8-4.6
			c88.1-22.9,201.9,60.3,296.8,61.7c167,2.5,211.4-55.8,294-53.8c80.7,2,210.1,102.5,345.4-45.3"/>
		<linearGradient id="SVGID_1_" gradientUnits="userSpaceOnUse" x1="93.833" y1="1726.2499" x2="1918.954" y2="1726.2499">
			<stop  offset="0" style="stop-color:#3A77BC"/>
			<stop  offset="1" style="stop-color:#2B4057"/>
		</linearGradient>
		<path class="st6" d="M1914.8,1730.6H98c-2.3,0-4.2-2-4.2-4.4l0,0c0-2.4,1.9-4.4,4.2-4.4h1816.7c2.3,0,4.2,2,4.2,4.4l0,0
			C1919,1728.7,1917.1,1730.6,1914.8,1730.6z"/>
	</g>
</g>
<g id="Layer_30">
	<polygon class="st7" points="1757.8,831.2 1014.5,46.8 271.2,831.2 513.9,831.2 513.9,1719.8 1534,1719.8 1534,831.2 	"/>
	<g>
		<defs>
			<polygon id="SVGID_2_" points="1756.8,834 1013.5,49.7 270.2,834 512.9,834 512.9,1722.7 1533,1722.7 1533,834 			"/>
		</defs>
		<clipPath id="SVGID_3_">
			<use xlink:href="#SVGID_2_"  style="overflow:visible;"/>
		</clipPath>
		<g class="st8">
			<g>
				<path class="st9" d="M272.5,480.9c58.4-79.5,127.2-152.9,206.4-218c79.2-65.1,164.1-118.1,252.5-159.2L272.5,480.9z"/>
				<path class="st9" d="M927.8,33.2c27-7,54-13.4,81.3-18.5L127.6,739.4c10.7-26.2,22.7-51.9,35.2-77.3L927.8,33.2z"/>
				<path class="st9" d="M67.8,928c4.8-20.6,10.1-41.1,15.9-61.5l1056-868.1c20.7-1.4,41.3-2.3,62-2.6L67.8,928z"/>
				<path class="st9" d="M1361.4,4.1L41.1,1089.5c1.8-18,4-35.8,6.5-53.7L1308.8-1C1326.4,0.3,1343.9,2,1361.4,4.1z"/>
				<path class="st9" d="M35.4,1233.6c-0.3-16.1-0.4-32.2,0-48.3L1453.9,19.2c15.4,3.2,30.7,6.7,46,10.5L35.4,1233.6z"/>
				<path class="st9" d="M44.6,1365.6c-1.8-14.8-3.3-29.7-4.6-44.6L1582.2,53.1c13.9,4.5,27.7,9.2,41.4,14.3L44.6,1365.6z"/>
				<path class="st9" d="M65.9,1487.5c-3.1-13.8-5.8-27.6-8.4-41.4L1697.6,97.8c12.6,5.7,25.2,11.3,37.7,17.4L65.9,1487.5z"/>
				<path class="st9" d="M97.5,1601c-4.2-12.8-8-25.8-11.8-38.7L1802.2,151.2c11.5,6.6,23,13.2,34.3,20.2L97.5,1601z"/>
				<path class="st9" d="M138.1,1707.1c-5.2-12-10.1-24-14.9-36.1L1897.6,212.3c10.5,7.4,20.9,14.9,31.2,22.7L138.1,1707.1z"/>
				<path class="st9" d="M238.3,1715.9h58.8L2012.6,305.6c-9.3-8.6-18.7-17-28.2-25.2L238.3,1715.9z"/>
				<path class="st9" d="M407.9,1715.9h58.8l1622-1333.4c-8.4-9.3-16.7-18.6-25.4-27.5L407.9,1715.9z"/>
				<path class="st9" d="M577.6,1715.9h58.8L2157.6,465.3c-3.8-5-7.3-10.1-11.2-15c-3.9-4.9-8-9.6-11.9-14.4L577.6,1715.9z"/>
				<path class="st9" d="M747.2,1715.9h58.8L2219.3,554c-6.6-10.6-13.7-20.9-20.7-31.3L747.2,1715.9z"/>
				<path class="st9" d="M916.9,1715.9h58.8L2273.2,649.2c-5.8-11.3-11.8-22.5-17.9-33.6L916.9,1715.9z"/>
				<path class="st9" d="M1086.5,1715.9h58.8l1173.8-965c-4.8-12.1-9.7-24.2-14.9-36.1L1086.5,1715.9z"/>
				<path class="st9" d="M1256.2,1715.9h58.8l1041.7-856.4c-3.8-12.9-7.5-25.9-11.8-38.7L1256.2,1715.9z"/>
				<path class="st9" d="M1425.8,1715.9h58.8L2385,975.8c-2.7-13.8-5.3-27.7-8.4-41.4L1425.8,1715.9z"/>
				<path class="st9" d="M1595.5,1715.9h58.8l748.2-615c-1.3-14.9-2.8-29.7-4.6-44.6L1595.5,1715.9z"/>
				<path class="st9" d="M1765.2,1715.9h58.8l583-479.3c0.3-16.1,0.3-32.2,0-48.3L1765.2,1715.9z"/>
				<path class="st9" d="M1934.8,1715.9h58.8l401.1-329.8c2.5-17.9,4.7-35.7,6.5-53.7L1934.8,1715.9z"/>
				<path class="st9" d="M2104.5,1715.9h58.8l195.4-160.6c5.9-20.4,11.1-40.9,15.9-61.5L2104.5,1715.9z"/>
				<path class="st9" d="M2274.1,1715.9h26.2c5-11.1,9.9-22.2,14.5-33.4L2274.1,1715.9z"/>
			</g>
		</g>
	</g>
</g>
<g id="tarcza">
	<g class="st10">
		<path class="st11" d="M1178.5,976.5c-1.9,0-3.5-1.6-3.5-3.5v-2.6c0-1.9,1.6-3.5,3.5-3.5s3.5,1.6,3.5,3.5v2.6
			C1182,975,1180.4,976.5,1178.5,976.5z M1178.5,950.9c-1.9,0-3.5-1.6-3.5-3.5v-12c0-1.9,1.6-3.5,3.5-3.5s3.5,1.6,3.5,3.5v12
			C1182,949.4,1180.4,950.9,1178.5,950.9z M1178.5,915.9c-1.9,0-3.5-1.6-3.5-3.5v-12c0-1.9,1.6-3.5,3.5-3.5s3.5,1.6,3.5,3.5v12
			C1182,914.4,1180.4,915.9,1178.5,915.9z M1178.5,880.9c-1.9,0-3.5-1.6-3.5-3.5v-12c0-1.9,1.6-3.5,3.5-3.5s3.5,1.6,3.5,3.5v12
			C1182,879.4,1180.4,880.9,1178.5,880.9z M1178.5,845.9c-1.9,0-3.5-1.6-3.5-3.5v-12c0-1.9,1.6-3.5,3.5-3.5s3.5,1.6,3.5,3.5v12
			C1182,844.4,1180.4,845.9,1178.5,845.9z M1178.5,810.9c-1.9,0-3.5-1.6-3.5-3.5v-12c0-1.9,1.6-3.5,3.5-3.5s3.5,1.6,3.5,3.5v12
			C1182,809.4,1180.4,810.9,1178.5,810.9z M1178.5,775.9c-1.9,0-3.5-1.6-3.5-3.5v-12c0-1.9,1.6-3.5,3.5-3.5s3.5,1.6,3.5,3.5v12
			C1182,774.4,1180.4,775.9,1178.5,775.9z M1178.5,740.9c-1.9,0-3.5-1.6-3.5-3.5v-12c0-1.9,1.6-3.5,3.5-3.5s3.5,1.6,3.5,3.5v12
			C1182,739.4,1180.4,740.9,1178.5,740.9z M1178.5,705.9c-1.9,0-3.5-1.6-3.5-3.5v-12c0-1.9,1.6-3.5,3.5-3.5s3.5,1.6,3.5,3.5v12
			C1182,704.4,1180.4,705.9,1178.5,705.9z M1178.5,670.9c-1.9,0-3.5-1.6-3.5-3.5v-12c0-1.9,1.6-3.5,3.5-3.5s3.5,1.6,3.5,3.5v12
			C1182,669.4,1180.4,670.9,1178.5,670.9z M1448.8,651C1448.8,651,1448.7,651,1448.8,651l-12-0.1c-1.9,0-3.5-1.6-3.5-3.5
			c0-1.9,1.6-3.5,3.5-3.5c0,0,0,0,0,0l12,0.1c1.9,0,3.5,1.6,3.5,3.5C1452.3,649.5,1450.7,651,1448.8,651z M1413.8,650.8
			C1413.8,650.8,1413.7,650.8,1413.8,650.8l-12-0.1c-1.9,0-3.5-1.6-3.5-3.5c0-1.9,1.6-3.5,3.5-3.5c0,0,0,0,0,0l12,0.1
			c1.9,0,3.5,1.6,3.5,3.5C1417.3,649.3,1415.7,650.8,1413.8,650.8z M1378.8,650.6C1378.8,650.6,1378.7,650.6,1378.8,650.6l-12-0.1
			c-1.9,0-3.5-1.6-3.5-3.5c0-1.9,1.6-3.5,3.5-3.5c0,0,0,0,0,0l12,0.1c1.9,0,3.5,1.6,3.5,3.5C1382.3,649,1380.7,650.6,1378.8,650.6z
			 M1343.8,650.4C1343.8,650.4,1343.7,650.4,1343.8,650.4l-12-0.1c-1.9,0-3.5-1.6-3.5-3.5c0-1.9,1.6-3.5,3.5-3.5c0,0,0,0,0,0l12,0.1
			c1.9,0,3.5,1.6,3.5,3.5C1347.3,648.8,1345.7,650.4,1343.8,650.4z M1308.8,650.1C1308.8,650.1,1308.8,650.1,1308.8,650.1l-12-0.1
			c-1.9,0-3.5-1.6-3.5-3.5c0-1.9,1.6-3.5,3.5-3.5c0,0,0,0,0,0l12,0.1c1.9,0,3.5,1.6,3.5,3.5C1312.3,648.6,1310.7,650.1,1308.8,650.1
			z M1273.8,649.9C1273.8,649.9,1273.8,649.9,1273.8,649.9l-12-0.1c-1.9,0-3.5-1.6-3.5-3.5c0-1.9,1.6-3.5,3.5-3.5c0,0,0,0,0,0
			l12,0.1c1.9,0,3.5,1.6,3.5,3.5C1277.3,648.3,1275.7,649.9,1273.8,649.9z M1238.8,649.7C1238.8,649.7,1238.8,649.7,1238.8,649.7
			l-12-0.1c-1.9,0-3.5-1.6-3.5-3.5c0-1.9,1.6-3.5,3.5-3.5c0,0,0,0,0,0l12,0.1c1.9,0,3.5,1.6,3.5,3.5
			C1242.3,648.1,1240.7,649.7,1238.8,649.7z M1203.8,649.4C1203.8,649.4,1203.8,649.4,1203.8,649.4l-12-0.1c-1.9,0-3.5-1.6-3.5-3.5
			c0-1.9,1.6-3.5,3.5-3.5c0,0,0,0,0,0l12,0.1c1.9,0,3.5,1.6,3.5,3.5C1207.3,647.9,1205.7,649.4,1203.8,649.4z"/>
	</g>
	<g class="st10">
		<path class="st11" d="M954.3,871.6c-1.9,0-3.5-1.6-3.5-3.5v-12c0-1.9,1.6-3.5,3.5-3.5s3.5,1.6,3.5,3.5v12
			C957.8,870,956.2,871.6,954.3,871.6z M954.3,836.6c-1.9,0-3.5-1.6-3.5-3.5v-12c0-1.9,1.6-3.5,3.5-3.5s3.5,1.6,3.5,3.5v12
			C957.8,835,956.2,836.6,954.3,836.6z M954.3,801.6c-1.9,0-3.5-1.6-3.5-3.5v-12c0-1.9,1.6-3.5,3.5-3.5s3.5,1.6,3.5,3.5v12
			C957.8,800,956.2,801.6,954.3,801.6z M954.3,766.6c-1.9,0-3.5-1.6-3.5-3.5v-12c0-1.9,1.6-3.5,3.5-3.5s3.5,1.6,3.5,3.5v12
			C957.8,765,956.2,766.6,954.3,766.6z M954.3,731.6c-1.9,0-3.5-1.6-3.5-3.5v-12c0-1.9,1.6-3.5,3.5-3.5s3.5,1.6,3.5,3.5v12
			C957.8,730,956.2,731.6,954.3,731.6z M954.3,696.6c-1.9,0-3.5-1.6-3.5-3.5v-12c0-1.9,1.6-3.5,3.5-3.5s3.5,1.6,3.5,3.5v12
			C957.8,695,956.2,696.6,954.3,696.6z M954.3,661.6c-1.9,0-3.5-1.6-3.5-3.5v-12c0-1.9,1.6-3.5,3.5-3.5s3.5,1.6,3.5,3.5v12
			C957.8,660,956.2,661.6,954.3,661.6z M954.3,626.6c-1.9,0-3.5-1.6-3.5-3.5v-12c0-1.9,1.6-3.5,3.5-3.5s3.5,1.6,3.5,3.5v12
			C957.8,625,956.2,626.6,954.3,626.6z M954.3,591.6c-1.9,0-3.5-1.6-3.5-3.5v-12c0-1.9,1.6-3.5,3.5-3.5s3.5,1.6,3.5,3.5v12
			C957.8,590,956.2,591.6,954.3,591.6z M954.3,556.6c-1.9,0-3.5-1.6-3.5-3.5v-12c0-1.9,1.6-3.5,3.5-3.5s3.5,1.6,3.5,3.5v12
			C957.8,555,956.2,556.6,954.3,556.6z M954.3,521.6c-1.9,0-3.5-1.6-3.5-3.5v-12c0-1.9,1.6-3.5,3.5-3.5s3.5,1.6,3.5,3.5v12
			C957.8,520,956.2,521.6,954.3,521.6z M954.3,486.6c-1.9,0-3.5-1.6-3.5-3.5V479h-0.9c-1.9,0-3.5-1.6-3.5-3.5s1.6-3.5,3.5-3.5h7.9
			v11.1C957.8,485,956.2,486.6,954.3,486.6z M926.9,479h-12c-1.9,0-3.5-1.6-3.5-3.5s1.6-3.5,3.5-3.5h12c1.9,0,3.5,1.6,3.5,3.5
			S928.8,479,926.9,479z M891.9,479h-12c-1.9,0-3.5-1.6-3.5-3.5s1.6-3.5,3.5-3.5h12c1.9,0,3.5,1.6,3.5,3.5S893.8,479,891.9,479z
			 M856.9,479h-12c-1.9,0-3.5-1.6-3.5-3.5s1.6-3.5,3.5-3.5h12c1.9,0,3.5,1.6,3.5,3.5S858.8,479,856.9,479z M821.9,479h-12
			c-1.9,0-3.5-1.6-3.5-3.5s1.6-3.5,3.5-3.5h12c1.9,0,3.5,1.6,3.5,3.5S823.8,479,821.9,479z M786.9,479h-12c-1.9,0-3.5-1.6-3.5-3.5
			s1.6-3.5,3.5-3.5h12c1.9,0,3.5,1.6,3.5,3.5S788.8,479,786.9,479z M751.9,479h-12c-1.9,0-3.5-1.6-3.5-3.5s1.6-3.5,3.5-3.5h12
			c1.9,0,3.5,1.6,3.5,3.5S753.8,479,751.9,479z M716.9,479h-12c-1.9,0-3.5-1.6-3.5-3.5s1.6-3.5,3.5-3.5h12c1.9,0,3.5,1.6,3.5,3.5
			S718.8,479,716.9,479z"/>
	</g>
	<g class="st10">
		<path class="st11" d="M838.7,983.2h-10.6c-1.9,0-3.5-1.6-3.5-3.5s1.6-3.5,3.5-3.5h10.6c1.9,0,3.5,1.6,3.5,3.5
			S840.6,983.2,838.7,983.2z M805.1,983.2h-12c-1.9,0-3.5-1.6-3.5-3.5s1.6-3.5,3.5-3.5h12c1.9,0,3.5,1.6,3.5,3.5
			S807,983.2,805.1,983.2z M770.1,983.2h-12c-1.9,0-3.5-1.6-3.5-3.5s1.6-3.5,3.5-3.5h12c1.9,0,3.5,1.6,3.5,3.5
			S772,983.2,770.1,983.2z M735.1,983.2h-12c-1.9,0-3.5-1.6-3.5-3.5s1.6-3.5,3.5-3.5h12c1.9,0,3.5,1.6,3.5,3.5
			S737,983.2,735.1,983.2z M700.1,983.2h-12c-1.9,0-3.5-1.6-3.5-3.5s1.6-3.5,3.5-3.5h12c1.9,0,3.5,1.6,3.5,3.5
			S702,983.2,700.1,983.2z M665.1,983.2h-12c-1.9,0-3.5-1.6-3.5-3.5s1.6-3.5,3.5-3.5h12c1.9,0,3.5,1.6,3.5,3.5
			S667,983.2,665.1,983.2z M630.1,983.2h-12c-1.9,0-3.5-1.6-3.5-3.5s1.6-3.5,3.5-3.5h12c1.9,0,3.5,1.6,3.5,3.5
			S632,983.2,630.1,983.2z M595.1,983.2h-12c-1.9,0-3.5-1.6-3.5-3.5s1.6-3.5,3.5-3.5h12c1.9,0,3.5,1.6,3.5,3.5
			S597,983.2,595.1,983.2z M560.1,983.2h-12c-1.9,0-3.5-1.6-3.5-3.5s1.6-3.5,3.5-3.5h12c1.9,0,3.5,1.6,3.5,3.5
			S562,983.2,560.1,983.2z M525.1,983.2h-12c-1.9,0-3.5-1.6-3.5-3.5s1.6-3.5,3.5-3.5h12c1.9,0,3.5,1.6,3.5,3.5
			S527,983.2,525.1,983.2z M490.1,983.2h-12c-1.9,0-3.5-1.6-3.5-3.5s1.6-3.5,3.5-3.5h12c1.9,0,3.5,1.6,3.5,3.5
			S492,983.2,490.1,983.2z M455.1,983.2h-12c-1.9,0-3.5-1.6-3.5-3.5s1.6-3.5,3.5-3.5h12c1.9,0,3.5,1.6,3.5,3.5
			S457,983.2,455.1,983.2z"/>
	</g>
	<g class="st10">
		<g>
			<path class="st11" d="M1685,991.9C1685,991.9,1685,991.9,1685,991.9l-6-0.1c-1.9,0-3.5-1.6-3.5-3.5c0-1.9,1.6-3.5,3.5-3.5
				c0,0,0,0,0,0l6,0.1c1.9,0,3.5,1.6,3.5,3.5C1688.5,990.4,1686.9,991.9,1685,991.9z"/>
		</g>
		<g>
			<path class="st11" d="M1656.2,991.7C1656.2,991.7,1656.2,991.7,1656.2,991.7l-11.9-0.1c-1.9,0-3.5-1.6-3.5-3.5
				c0-1.9,1.6-3.5,3.5-3.5c0,0,0,0,0,0l11.9,0.1c1.9,0,3.5,1.6,3.5,3.5C1659.7,990.1,1658.1,991.7,1656.2,991.7z M1621.5,991.4
				C1621.5,991.4,1621.5,991.4,1621.5,991.4l-11.9-0.1c-1.9,0-3.5-1.6-3.5-3.5c0-1.9,1.6-3.5,3.5-3.5c0,0,0,0,0,0l11.9,0.1
				c1.9,0,3.5,1.6,3.5,3.5C1625,989.8,1623.5,991.4,1621.5,991.4z M1586.9,991.1C1586.9,991.1,1586.8,991.1,1586.9,991.1l-11.9-0.1
				c-1.9,0-3.5-1.6-3.5-3.5c0-1.9,1.6-3.5,3.5-3.5c0,0,0,0,0,0l11.9,0.1c1.9,0,3.5,1.6,3.5,3.5
				C1590.3,989.5,1588.8,991.1,1586.9,991.1z M1552.2,990.8C1552.2,990.8,1552.2,990.8,1552.2,990.8l-11.9-0.1
				c-1.9,0-3.5-1.6-3.5-3.5c0-1.9,1.6-3.5,3.5-3.5c0,0,0,0,0,0l11.9,0.1c1.9,0,3.5,1.6,3.5,3.5
				C1555.7,989.2,1554.1,990.8,1552.2,990.8z M1517.5,990.5C1517.5,990.5,1517.5,990.5,1517.5,990.5l-11.9-0.1
				c-1.9,0-3.5-1.6-3.5-3.5c0-1.9,1.6-3.5,3.5-3.5c0,0,0,0,0,0l11.9,0.1c1.9,0,3.5,1.6,3.5,3.5
				C1521,988.9,1519.4,990.5,1517.5,990.5z M1482.8,990.2C1482.8,990.2,1482.8,990.2,1482.8,990.2l-11.9-0.1c-1.9,0-3.5-1.6-3.5-3.5
				c0-1.9,1.6-3.5,3.5-3.5c0,0,0,0,0,0l11.9,0.1c1.9,0,3.5,1.6,3.5,3.5C1486.3,988.6,1484.7,990.2,1482.8,990.2z M1448.2,989.9
				C1448.1,989.9,1448.1,989.9,1448.2,989.9l-11.9-0.1c-1.9,0-3.5-1.6-3.5-3.5c0-1.9,1.6-3.5,3.5-3.5c0,0,0,0,0,0l11.9,0.1
				c1.9,0,3.5,1.6,3.5,3.5C1451.6,988.3,1450.1,989.9,1448.2,989.9z M1413.5,989.6C1413.5,989.6,1413.5,989.6,1413.5,989.6
				l-11.9-0.1c-1.9,0-3.5-1.6-3.5-3.5c0-1.9,1.6-3.5,3.5-3.5c0,0,0,0,0,0l11.9,0.1c1.9,0,3.5,1.6,3.5,3.5
				C1417,988,1415.4,989.6,1413.5,989.6z M1378.8,989.3C1378.8,989.3,1378.8,989.3,1378.8,989.3l-11.9-0.1c-1.9,0-3.5-1.6-3.5-3.5
				c0-1.9,1.6-3.5,3.5-3.5c0,0,0,0,0,0l11.9,0.1c1.9,0,3.5,1.6,3.5,3.5C1382.3,987.7,1380.7,989.3,1378.8,989.3z M1344.1,989
				C1344.1,989,1344.1,989,1344.1,989l-11.9-0.1c-1.9,0-3.5-1.6-3.5-3.5c0-1.9,1.6-3.5,3.5-3.5c0,0,0,0,0,0l11.9,0.1
				c1.9,0,3.5,1.6,3.5,3.5C1347.6,987.4,1346,989,1344.1,989z M1309.4,988.7C1309.4,988.7,1309.4,988.7,1309.4,988.7l-11.9-0.1
				c-1.9,0-3.5-1.6-3.5-3.5c0-1.9,1.6-3.5,3.5-3.5c0,0,0,0,0,0l11.9,0.1c1.9,0,3.5,1.6,3.5,3.5
				C1312.9,987.1,1311.4,988.7,1309.4,988.7z M1274.8,988.4C1274.8,988.4,1274.7,988.4,1274.8,988.4l-11.9-0.1
				c-1.9,0-3.5-1.6-3.5-3.5c0-1.9,1.6-3.5,3.5-3.5c0,0,0,0,0,0l11.9,0.1c1.9,0,3.5,1.6,3.5,3.5
				C1278.2,986.8,1276.7,988.4,1274.8,988.4z M1240.1,988.1C1240.1,988.1,1240.1,988.1,1240.1,988.1l-11.9-0.1
				c-1.9,0-3.5-1.6-3.5-3.5c0-1.9,1.6-3.5,3.5-3.5c0,0,0,0,0,0l11.9,0.1c1.9,0,3.5,1.6,3.5,3.5
				C1243.6,986.5,1242,988.1,1240.1,988.1z M1205.4,987.8C1205.4,987.8,1205.4,987.8,1205.4,987.8l-11.9-0.1c-1.9,0-3.5-1.6-3.5-3.5
				c0-1.9,1.6-3.5,3.5-3.5c0,0,0,0,0,0l11.9,0.1c1.9,0,3.5,1.6,3.5,3.5C1208.9,986.2,1207.3,987.8,1205.4,987.8z M1170.7,987.5
				C1170.7,987.5,1170.7,987.5,1170.7,987.5l-11.9-0.1c-1.9,0-3.5-1.6-3.5-3.5c0-1.9,1.6-3.5,3.5-3.5c0,0,0,0,0,0l11.9,0.1
				c1.9,0,3.5,1.6,3.5,3.5C1174.2,985.9,1172.6,987.5,1170.7,987.5z"/>
		</g>
		<g>
			<path class="st11" d="M1136,987.2C1136,987.2,1136,987.2,1136,987.2l-6-0.1c-1.9,0-3.5-1.6-3.5-3.5c0-1.9,1.6-3.5,3.5-3.5l6,0.1
				c1.9,0,3.5,1.6,3.5,3.5C1139.5,985.6,1138,987.2,1136,987.2z"/>
		</g>
	</g>
	<g>
		<g id="Group_40536" transform="translate(334.43 1)">
			<path id="Path_77" class="st12" d="M502.6,698.9h412.8v412.8l-182.7,147.6l-230.1-147.6V698.9z"/>
		</g>
		<g>
			<defs>
				<rect id="SVGID_4_" x="1065" y="699.9" width="185.6" height="560.3"/>
			</defs>
			<clipPath id="SVGID_5_">
				<use xlink:href="#SVGID_4_"  style="overflow:visible;"/>
			</clipPath>
			<g id="Mask_Group_3" transform="translate(138 -563)" class="st13">
				<g id="Group_40595" transform="translate(196.43 564)">
					<path id="Path_77-2" class="st14" d="M502.6,698.9h412.8v412.8l-182.7,147.6l-230.1-147.6V698.9z"/>
				</g>
			</g>
		</g>
		<g id="Group_40594" transform="translate(384.43 60)">
			<path id="Path_77-3" class="st15" d="M540.9,744.2h235.6v235.6l-104.3,84.3l-131.4-84.3V744.2z"/>
		</g>
	</g>
</g>
<g id="laptop_1_">
	<g>
		<linearGradient id="SVGID_6_" gradientUnits="userSpaceOnUse" x1="1604.8191" y1="1686.3486" x2="1665.8801" y2="1686.3486">
			<stop  offset="0" style="stop-color:#3A77BC"/>
			<stop  offset="1" style="stop-color:#2B4057"/>
		</linearGradient>
		<polygon class="st16" points="1665.9,1664.2 1604.8,1664.2 1619.5,1708.5 1651.2,1708.5 		"/>
		<linearGradient id="SVGID_7_" gradientUnits="userSpaceOnUse" x1="755.438" y1="1686.3486" x2="816.4992" y2="1686.3486">
			<stop  offset="0" style="stop-color:#3A77BC"/>
			<stop  offset="1" style="stop-color:#2B4057"/>
		</linearGradient>
		<polygon class="st17" points="755.4,1664.2 816.5,1664.2 801.8,1708.5 770.1,1708.5 		"/>
		<linearGradient id="SVGID_8_" gradientUnits="userSpaceOnUse" x1="1210.6591" y1="1257.2126" x2="1210.6591" y2="1536.5228">
			<stop  offset="0" style="stop-color:#F27789"/>
			<stop  offset="1" style="stop-color:#EF4B7D"/>
		</linearGradient>
		<path class="st18" d="M1628.4,1199.8H792.9c-21.7,0-40.2,14.4-43.9,34.2l-46.2,245.1h1015.8l-46.2-245.1
			C1668.6,1214.2,1650.1,1199.8,1628.4,1199.8z"/>
		<linearGradient id="SVGID_9_" gradientUnits="userSpaceOnUse" x1="1210.6592" y1="1269.7458" x2="1210.6592" y2="1479.1132">
			<stop  offset="0" style="stop-color:#F16A7E"/>
			<stop  offset="1" style="stop-color:#DD2376"/>
		</linearGradient>
		<path class="st19" d="M1553.8,1269.7H867.5c-17.8,0-33,10.8-36.1,25.6l-38,183.7h834.5l-38-183.7
			C1586.9,1280.6,1571.6,1269.7,1553.8,1269.7z"/>
		<linearGradient id="SVGID_10_" gradientUnits="userSpaceOnUse" x1="1210.6591" y1="1177.0928" x2="1210.6591" y2="1624.2303">
			<stop  offset="0" style="stop-color:#F16A7E"/>
			<stop  offset="1" style="stop-color:#DD2376"/>
		</linearGradient>
		<path class="st20" d="M1783.3,1664.2H638.1c-4.2,0-7.6-3.4-7.6-7.6v-177.6h1160.3v177.6
			C1790.8,1660.8,1787.4,1664.2,1783.3,1664.2z"/>
		<linearGradient id="SVGID_11_" gradientUnits="userSpaceOnUse" x1="1210.6592" y1="1479.1132" x2="1210.6592" y2="1559.7872">
			<stop  offset="0" style="stop-color:#F27789"/>
			<stop  offset="1" style="stop-color:#EF4B7D"/>
		</linearGradient>
		<path class="st21" d="M1631.9,1559.8H789.4c-6.4,0-11.7-5.2-11.7-11.7v-69h865.8v69C1643.6,1554.6,1638.3,1559.8,1631.9,1559.8z"
			/>
		<linearGradient id="SVGID_12_" gradientUnits="userSpaceOnUse" x1="1717.1897" y1="1366.9585" x2="1717.1897" y2="1479.1132">
			<stop  offset="0" style="stop-color:#F27789"/>
			<stop  offset="1" style="stop-color:#EF4B7D"/>
		</linearGradient>
		<path class="st22" d="M1784,1367h-133.6c-3.8,0-6.8,3.1-6.8,6.8v105.3h147.3v-105.3C1790.8,1370,1787.8,1367,1784,1367z"/>
		<linearGradient id="SVGID_13_" gradientUnits="userSpaceOnUse" x1="704.1284" y1="1366.9585" x2="704.1284" y2="1479.1132">
			<stop  offset="0" style="stop-color:#F27789"/>
			<stop  offset="1" style="stop-color:#EF4B7D"/>
		</linearGradient>
		<path class="st23" d="M637.3,1367h133.6c3.8,0,6.8,3.1,6.8,6.8v105.3H630.5v-105.3C630.5,1370,633.6,1367,637.3,1367z"/>
	</g>
</g>
<g id="ekran">
</g>
<g id="box4">
	<path class="st5" d="M1855.1,1117.7h-166c-26.3,0-47.9-21.6-47.9-47.9V909.4c0-26.3,21.6-47.9,47.9-47.9h166
		c26.3,0,47.9,21.6,47.9,47.9v160.5C1903,1096.2,1881.4,1117.7,1855.1,1117.7z"/>
</g>
<g id="box1">
	<path class="st5" d="M436.5,1107.8h-166c-26.3,0-47.9-21.6-47.9-47.9V899.5c0-26.3,21.6-47.9,47.9-47.9h166
		c26.3,0,47.9,21.6,47.9,47.9v160.5C484.3,1086.3,462.8,1107.8,436.5,1107.8z"/>
</g>
<g id="box2">
	<path class="st5" d="M728.7,600.1h-166c-26.3,0-47.9-21.6-47.9-47.9V391.7c0-26.3,21.6-47.9,47.9-47.9h166
		c26.3,0,47.9,21.6,47.9,47.9v160.5C776.6,578.6,755,600.1,728.7,600.1z"/>
</g>
<g id="box3">
	<path class="st5" d="M1629.2,771.9h-166c-26.3,0-47.9-21.6-47.9-47.9V563.5c0-26.3,21.6-47.9,47.9-47.9h166
		c26.3,0,47.9,21.6,47.9,47.9V724C1677.1,750.3,1655.6,771.9,1629.2,771.9z"/>
</g>
<g id="pies">
	<g>
		<path class="st24" d="M513.7,511.6c-78.6,41.9-78.1-27.5-55.3-31.8c-1.3,12-5.1,16.2,6.9,26.8C477.3,517.1,519.1,490,513.7,511.6z
			"/>
		<linearGradient id="SVGID_14_" gradientUnits="userSpaceOnUse" x1="622.4575" y1="352.1775" x2="739.4216" y2="352.1775">
			<stop  offset="0" style="stop-color:#3A77BC"/>
			<stop  offset="1" style="stop-color:#2B4057"/>
		</linearGradient>
		<path class="st25" d="M701.4,413.5c2.7,4,5.9,7.6,9.8,8.5c4.1,0.9,8.3-0.8,11.7-3c7.3-4.7,12.5-12.8,15-21
			c4.5-14.3-2.2-29.6-10.1-41.5c-5.8-8.8-12.7-17-19-25.4c-13.2-17.7-29.4-34.8-49.6-44.4c-7.8-3.7-20.6-6.5-28.9-2.3
			c-17.8,9.1-1.2,33.9,5.8,44.3c14.3,21.4,32.3,39.6,47.9,59.9c3.6,4.8,7,9.7,10.6,14.5C696.7,405.8,698.9,409.8,701.4,413.5z"/>
		<path class="st24" d="M661.6,427.4c0,0-12.7,89.9,0,99.6c12.7,9.7-30.5,2.5-30.5,2.5l5.9-74.6L661.6,427.4z"/>
		<path class="st24" d="M590.7,433.6c0,0-12.7,89.9,0,99.6c12.7,9.7-30.5,2.5-30.5,2.5l5.9-74.6L590.7,433.6z"/>
		<path class="st26" d="M510.1,452c17.6-17.2,38.7-30.3,56.3-47.5c30.6-29.9,48.2-68.6,63-108c5.8-15.5,14.8-14,29.3-12.1
			c22.6,3,45.5,2.1,68.3,2.3c10,0.1,23.3,0.8,22.4,14.2c-0.7,9.4-6.7,19.2-13.7,25.2c-12.2,10.5-26.8,14-42.3,15.5
			c-3.8,0.4-7.4,0.8-11.1,0.6c0,0,4.9,74.2-42.2,120.2c-3,33.7-15.3,65.5,2.1,75.7c17.4,10.2-29.7,11.9-32.8,4.7
			c-3.2-7.2-1.3-53.6-1.3-53.6s-23.5,22.3-41.1,15.3c8.7,12.1-1.9,29-1.9,29s-0.8,3,5.5,7.8c6.4,4.9-53.6,3.6-69.5-0.2
			C485.1,537.2,478.5,482.9,510.1,452z"/>
		<path class="st27" d="M625.5,356.9c-3.7-2.3-13.1-10-18.5-14.7c-5.4-4.7,6.9-17.2,10-13.9c-0.5,1.8-2.5,5.3-2.5,5.3
			c30.2,26.4,66.9,18.8,70.8,17.4c3.9-1.4,6.5,9.8,0.7,12C680.2,365.2,657.3,376.6,625.5,356.9z"/>
		<linearGradient id="SVGID_15_" gradientUnits="userSpaceOnUse" x1="608.7791" y1="371.3603" x2="673.7787" y2="371.3603">
			<stop  offset="0" style="stop-color:#3A77BC"/>
			<stop  offset="1" style="stop-color:#2B4057"/>
		</linearGradient>
		<path class="st28" d="M608.8,439.7c-0.4,7.4,7.5,16.8,14.1,18.8c8.6,2.7,18.8-0.4,26.3-4.9c15.2-9,18.8-27.1,21.8-43.2
			c1.8-9.7,1.8-19.1,2.3-28.9c1.2-25.3,1-51.6-9.3-75.3c-3.8-8.8-12-20.2-22.1-22.6c-18.3-4.4-23.1,19.4-25.3,32.1
			c-4.2,24.1-4,48.7-3.8,73.1c0,7.1-0.2,14.2-0.7,21.3c-0.7,9.3-1.9,18.3-3.1,27.5C608.9,438.4,608.8,439.1,608.8,439.7z"/>
		<g>
			<linearGradient id="SVGID_16_" gradientUnits="userSpaceOnUse" x1="740.8947" y1="297.8833" x2="752.1008" y2="297.8833">
				<stop  offset="0" style="stop-color:#3A77BC"/>
				<stop  offset="1" style="stop-color:#2B4057"/>
			</linearGradient>
			<path class="st29" d="M746.4,303.4c0.1,0,0.1,0,0.2,0c0.8,0,1.5-0.1,2.1-0.5c0.7-0.2,1.3-0.6,1.8-1.1c0.5-0.5,0.9-1.1,1.1-1.8
				c0.3-0.7,0.5-1.4,0.5-2.1c-0.1-0.5-0.1-1-0.2-1.5c-0.3-0.9-0.7-1.7-1.4-2.4c-0.4-0.3-0.7-0.6-1.1-0.9c-0.9-0.5-1.8-0.7-2.8-0.8
				c-0.1,0-0.1,0-0.2,0c-0.8,0-1.5,0.1-2.1,0.5c-0.7,0.2-1.3,0.6-1.8,1.1c-0.5,0.5-0.9,1.1-1.1,1.8c-0.3,0.7-0.5,1.4-0.5,2.1
				c0.1,0.5,0.1,1,0.2,1.5c0.3,0.9,0.7,1.7,1.4,2.4c0.4,0.3,0.7,0.6,1.1,0.9C744.5,303.1,745.4,303.4,746.4,303.4L746.4,303.4z"/>
		</g>
	</g>
</g>
<g id="ogień">
	<g>
		<linearGradient id="SVGID_17_" gradientUnits="userSpaceOnUse" x1="1557.7355" y1="475.3956" x2="1552.233" y2="906.4207">
			<stop  offset="0" style="stop-color:#F16A7E"/>
			<stop  offset="1" style="stop-color:#DD2376"/>
		</linearGradient>
		<path class="st30" d="M1631.9,585.9c-6.7-27.3-21.1-53.4-37.9-74.8c-8.4-10.8-18.4-19.2-28.6-27.7c-6.8-5.6-14.3-14.2-23-16.2
			c-0.1-0.2-1.6-0.2-1.6-0.2l0.5,1.8c4.6,10.7,6.6,23.1,6.3,34.8c-0.3,13.5-5,24.6-13.3,34.4c-1.1,1.4-2.3,2.7-3.5,4.1
			c-0.2,0-0.4,0.2-0.5,0.4c-0.1,0.1-0.2,0.3-0.3,0.4c-1.1,1.2-2.2,2.4-3.3,3.7c-2.2,1.8-4.9,3.3-6.8,4.1c-3.8,1.5-7.8-1.8-7.2-6.3
			c0.3-2.1,1.1-3.8,1.1-6c0,0,0,0,0-0.1c0-0.7-0.8-1.2-1.3-0.6c-7.1,7.5-11.6,17.3-16,26.8c-5.1,10.8-10.8,21.2-14.7,32.6
			c-3.7,10.8-6.1,23.3-6.2,35.6c-1.1,7.5-1.3,15.2-0.5,22.8c1.9,17.8,10.8,36,24,46.9c13.7,11.2,30.3,14.3,47,14.1
			c19.9-0.3,40.1-3.9,57-15.9c16-11.4,27.3-29.7,31.5-49.9C1638.7,629.6,1636.9,606.2,1631.9,585.9z"/>
		<linearGradient id="SVGID_18_" gradientUnits="userSpaceOnUse" x1="1546.6296" y1="757.9595" x2="1559.4686" y2="523.1884">
			<stop  offset="0" style="stop-color:#F16A7E"/>
			<stop  offset="1" style="stop-color:#DD2376"/>
		</linearGradient>
		<path class="st31" d="M1604.3,607.7c-2.8-10.8-7.2-21.2-12.2-31.2c-4.9-10.1-11.1-19.4-17.1-28.8c-4-6.4-7.9-16.8-15.3-20
			c-0.6-0.2,1.3,5.2,2,10.1c0.9,8.3-5.1,16.9-10.6,22.9c-7.6,8.3-17.4,14.2-25.5,22c-15.2,14.8-25.5,36.9-28.3,57.8
			c-2.4,17.5,1.1,36.1,11.8,50.4c11,14.6,28.8,22,46.8,20.3c15.5-1.5,30.2-9.6,40.1-21.5c12.1-14.6,13.2-34.2,12.4-52.2
			C1607.9,627.4,1606.8,617.5,1604.3,607.7z"/>
		<linearGradient id="SVGID_19_" gradientUnits="userSpaceOnUse" x1="1553.7034" y1="596.8444" x2="1551.8693" y2="719.7324">
			<stop  offset="0" style="stop-color:#F16A7E"/>
			<stop  offset="1" style="stop-color:#DD2376"/>
		</linearGradient>
		<path class="st32" d="M1587,678.2c-3.1,11.3-8.8,20.2-19.7,25.2c-10.7,4.9-21.3,3.8-31.4-1.9c-9.4-5.4-16.5-14.5-19.5-24.8
			c-6.7-23.3,13.3-40.6,28.6-54.5c5.3-4.8,10.2-9.9,14.3-15.7c2.2-3.1,3.9-6.5,5.2-10c1.4-3.8,1.2-7.9,1.5-11.9
			c0.1,0,0.2,0.1,0.2,0.1c1.6,1.1,8.5,8.8,9.2,18.1c2.3-0.5-0.2-7.4,0.2-7.8c4.1,6,4.2,7.2,6.5,13.6c4.1,11.5,6.6,22.9,7.8,35.1
			C1591.1,655.5,1590.1,667,1587,678.2z"/>
	</g>
</g>
<g id="kamera">
	<g>
		<path class="st14" d="M1857.8,958.7c0,36.1,11.9,110-65.3,110c-76.8,0-65.3-73.9-65.3-110s29.2-65.3,65.3-65.3
			C1828.6,893.4,1857.8,922.6,1857.8,958.7z"/>
		<path class="st12" d="M1860.6,878.2c0-37.1-30.5-67.1-68-67.1s-68,30-68,67.1l-1.1,159.7c0,0,8.1,14.2,69.5,14.2
			s69.3-15.6,69.3-15.6L1860.6,878.2z"/>
		<path class="st15" d="M1857.8,879.1c0,36.1,11.9,110-65.3,110c-76.8,0-65.3-73.9-65.3-110s29.2-65.3,65.3-65.3
			C1828.6,813.9,1857.8,843.1,1857.8,879.1z"/>
		<linearGradient id="SVGID_20_" gradientUnits="userSpaceOnUse" x1="1735.4951" y1="881.3127" x2="1849.6216" y2="881.3127">
			<stop  offset="0" style="stop-color:#3A77BC"/>
			<stop  offset="1" style="stop-color:#2B4057"/>
		</linearGradient>
		<circle class="st33" cx="1792.6" cy="881.3" r="57.1"/>
		<linearGradient id="SVGID_21_" gradientUnits="userSpaceOnUse" x1="1772.0676" y1="881.2081" x2="1813.6443" y2="881.2081">
			<stop  offset="0" style="stop-color:#3A77BC"/>
			<stop  offset="1" style="stop-color:#2B4057"/>
		</linearGradient>
		<circle class="st34" cx="1792.9" cy="881.2" r="20.8"/>
		<circle class="st15" cx="1792.7" cy="881.2" r="16"/>
		<linearGradient id="SVGID_22_" gradientUnits="userSpaceOnUse" x1="1784.6918" y1="881.2081" x2="1800.6667" y2="881.2081">
			<stop  offset="0" style="stop-color:#3A77BC"/>
			<stop  offset="1" style="stop-color:#2B4057"/>
		</linearGradient>
		<circle class="st35" cx="1792.7" cy="881.2" r="8"/>
	</g>
</g>
<g id="chmura">
	<g>
		<g>
			<linearGradient id="SVGID_23_" gradientUnits="userSpaceOnUse" x1="294.9256" y1="1047.4802" x2="357.8334" y2="1047.4802">
				<stop  offset="0" style="stop-color:#57A7DC"/>
				<stop  offset="0.1023" style="stop-color:#539CD5"/>
				<stop  offset="0.3609" style="stop-color:#4B86C6"/>
				<stop  offset="0.6042" style="stop-color:#4677BB"/>
				<stop  offset="0.8241" style="stop-color:#426FB6"/>
				<stop  offset="1" style="stop-color:#416CB4"/>
			</linearGradient>
			<polygon class="st36" points="357.8,1082.7 294.9,1082.7 294.9,1069.9 345,1069.9 345,1012.2 357.8,1012.2 			"/>
			<g>
				<linearGradient id="SVGID_24_" gradientUnits="userSpaceOnUse" x1="267.3376" y1="1076.308" x2="300.5353" y2="1076.308">
					<stop  offset="0" style="stop-color:#57A7DC"/>
					<stop  offset="0.1023" style="stop-color:#539CD5"/>
					<stop  offset="0.3609" style="stop-color:#4B86C6"/>
					<stop  offset="0.6042" style="stop-color:#4677BB"/>
					<stop  offset="0.8241" style="stop-color:#426FB6"/>
					<stop  offset="1" style="stop-color:#416CB4"/>
				</linearGradient>
				<polygon class="st37" points="300.5,1057.1 267.3,1076.3 300.5,1095.5 				"/>
			</g>
		</g>
		<g>
			<linearGradient id="SVGID_25_" gradientUnits="userSpaceOnUse" x1="424.4016" y1="1053.9194" x2="487.3062" y2="1053.9194">
				<stop  offset="0" style="stop-color:#57A7DC"/>
				<stop  offset="0.1023" style="stop-color:#539CD5"/>
				<stop  offset="0.3609" style="stop-color:#4B86C6"/>
				<stop  offset="0.6042" style="stop-color:#4677BB"/>
				<stop  offset="0.8241" style="stop-color:#426FB6"/>
				<stop  offset="1" style="stop-color:#416CB4"/>
			</linearGradient>
			<polygon class="st38" points="487.3,1089.2 424.4,1089.2 424.4,1018.7 437.2,1018.7 437.2,1076.3 487.3,1076.3 			"/>
			<g>
				<linearGradient id="SVGID_26_" gradientUnits="userSpaceOnUse" x1="481.6974" y1="1082.7469" x2="514.8951" y2="1082.7469">
					<stop  offset="0" style="stop-color:#57A7DC"/>
					<stop  offset="0.1023" style="stop-color:#539CD5"/>
					<stop  offset="0.3609" style="stop-color:#4B86C6"/>
					<stop  offset="0.6042" style="stop-color:#4677BB"/>
					<stop  offset="0.8241" style="stop-color:#426FB6"/>
					<stop  offset="1" style="stop-color:#416CB4"/>
				</linearGradient>
				<polygon class="st39" points="481.7,1101.9 514.9,1082.7 481.7,1063.6 				"/>
			</g>
		</g>
		<g>
			<linearGradient id="SVGID_27_" gradientUnits="userSpaceOnUse" x1="384.7095" y1="1060.0337" x2="397.5251" y2="1060.0337">
				<stop  offset="0" style="stop-color:#57A7DC"/>
				<stop  offset="0.1023" style="stop-color:#539CD5"/>
				<stop  offset="0.3609" style="stop-color:#4B86C6"/>
				<stop  offset="0.6042" style="stop-color:#4677BB"/>
				<stop  offset="0.8241" style="stop-color:#426FB6"/>
				<stop  offset="1" style="stop-color:#416CB4"/>
			</linearGradient>
			<rect x="384.7" y="1024.5" class="st40" width="12.8" height="71.1"/>
			<g>
				<linearGradient id="SVGID_28_" gradientUnits="userSpaceOnUse" x1="371.9475" y1="1106.5607" x2="410.2852" y2="1106.5607">
					<stop  offset="0" style="stop-color:#57A7DC"/>
					<stop  offset="0.1023" style="stop-color:#539CD5"/>
					<stop  offset="0.3609" style="stop-color:#4B86C6"/>
					<stop  offset="0.6042" style="stop-color:#4677BB"/>
					<stop  offset="0.8241" style="stop-color:#426FB6"/>
					<stop  offset="1" style="stop-color:#416CB4"/>
				</linearGradient>
				<polygon class="st41" points="371.9,1090 391.1,1123.2 410.3,1090 				"/>
			</g>
		</g>
		<linearGradient id="SVGID_29_" gradientUnits="userSpaceOnUse" x1="385.6708" y1="852.2548" x2="403.0041" y2="1260.2548">
			<stop  offset="0" style="stop-color:#3A77BC"/>
			<stop  offset="1" style="stop-color:#2B4057"/>
		</linearGradient>
		<path class="st42" d="M467.8,927c-5.4,0-10.6,0.8-15.6,2.3c-4.5-29.7-30.1-52.5-61.1-52.5s-56.6,22.8-61.1,52.5
			c-4.9-1.5-10.2-2.3-15.6-2.3c-29.5,0-53.4,23.9-53.4,53.4s23.9,53.4,53.4,53.4h153.3c29.5,0,53.4-23.9,53.4-53.4
			S497.3,927,467.8,927z"/>
	</g>
</g>
<g id="kule">
	<g>
		<polygon class="st15" points="1780.5,564.9 1825.1,473 1815.7,468.4 1768.2,566.3 1850.2,665.3 1858.2,658.7 		"/>
		<circle class="st4" cx="1777.6" cy="566.7" r="25"/>
		<circle class="st4" cx="1818.6" cy="468.8" r="27.9"/>
		<circle class="st4" cx="1853" cy="659.2" r="27.9"/>
	</g>
</g>
<g id="z1">
</g>
<g id="z2">
</g>
<g id="Layer_29">
	<g>
		<g>
			
				<rect x="1146.8" y="413.3" transform="matrix(6.123234e-17 -1 1 6.123234e-17 760.3762 1611.3445)" class="st43" width="78.2" height="24.4"/>
			
				<rect x="1169.2" y="396.9" transform="matrix(6.123234e-17 -1 1 6.123234e-17 815.6379 1633.7478)" class="st43" width="111" height="24.4"/>
			
				<rect x="1220.7" y="409.6" transform="matrix(6.123234e-17 -1 1 6.123234e-17 841.7753 1685.2758)" class="st43" width="85.6" height="24.4"/>
			
				<rect x="1221.5" y="371.5" transform="matrix(6.123234e-17 -1 1 6.123234e-17 918.6937 1686.0226)" class="st43" width="161.8" height="24.4"/>
			
				<rect x="1240.6" y="351.8" transform="matrix(6.123234e-17 -1 1 6.123234e-17 977.1916 1705.1899)" class="st43" width="201.1" height="24.4"/>
		</g>
		
			<rect x="1078.8" y="267.2" transform="matrix(6.123234e-17 -1 1 6.123234e-17 906.4965 1465.2242)" class="st12" width="214.1" height="24.4"/>
		
			<rect x="1117.7" y="234.3" transform="matrix(6.123234e-17 -1 1 6.123234e-17 978.1873 1471.1985)" class="st12" width="214.1" height="24.4"/>
		
			<rect x="1156.5" y="259.7" transform="matrix(6.123234e-17 -1 1 6.123234e-17 991.6294 1535.4216)" class="st12" width="214.1" height="24.4"/>
		
			<rect x="1195.3" y="183.5" transform="matrix(6.123234e-17 -1 1 6.123234e-17 1106.6337 1498.0826)" class="st12" width="214.1" height="24.4"/>
		
			<rect x="1234.2" y="144.2" transform="matrix(6.123234e-17 -1 1 6.123234e-17 1184.7968 1497.5847)" class="st12" width="214.1" height="24.4"/>
	</g>
</g>
<g id="neon">
	<g>
		
			<rect x="101.4" y="912.5" transform="matrix(-1.836970e-16 1 -1 -1.836970e-16 1029.6887 812.8453)" class="st15" width="14.1" height="17.6"/>
		
			<rect x="101.4" y="947.7" transform="matrix(-1.836970e-16 1 -1 -1.836970e-16 1064.876 848.0327)" class="st15" width="14.1" height="17.6"/>
		
			<rect x="101.4" y="982.8" transform="matrix(-1.836970e-16 1 -1 -1.836970e-16 1100.0634 883.22)" class="st15" width="14.1" height="17.6"/>
		
			<rect x="101.4" y="1018" transform="matrix(-1.836970e-16 1 -1 -1.836970e-16 1135.2506 918.4073)" class="st15" width="14.1" height="17.6"/>
		
			<rect x="101.4" y="1053.2" transform="matrix(-1.836970e-16 1 -1 -1.836970e-16 1170.4379 953.5946)" class="st15" width="14.1" height="17.6"/>
		
			<rect x="101.4" y="1088.4" transform="matrix(-1.836970e-16 1 -1 -1.836970e-16 1205.6252 988.7819)" class="st15" width="14.1" height="17.6"/>
		
			<rect x="101.4" y="1123.6" transform="matrix(-1.836970e-16 1 -1 -1.836970e-16 1240.8125 1023.9692)" class="st15" width="14.1" height="17.6"/>
		
			<rect x="101.4" y="1158.8" transform="matrix(-1.836970e-16 1 -1 -1.836970e-16 1275.9999 1059.1565)" class="st15" width="14.1" height="17.6"/>
		
			<rect x="101.4" y="1194" transform="matrix(-1.836970e-16 1 -1 -1.836970e-16 1311.1873 1094.3439)" class="st12" width="14.1" height="17.6"/>
		
			<rect x="101.4" y="1229.2" transform="matrix(-1.836970e-16 1 -1 -1.836970e-16 1346.3745 1129.5313)" class="st12" width="14.1" height="17.6"/>
		
			<rect x="101.4" y="1264.3" transform="matrix(-1.836970e-16 1 -1 -1.836970e-16 1381.5618 1164.7185)" class="st12" width="14.1" height="17.6"/>
		
			<rect x="101.4" y="1299.5" transform="matrix(-1.836970e-16 1 -1 -1.836970e-16 1416.7491 1199.9058)" class="st12" width="14.1" height="17.6"/>
		
			<rect x="101.4" y="1334.7" transform="matrix(-1.836970e-16 1 -1 -1.836970e-16 1451.9364 1235.0931)" class="st14" width="14.1" height="17.6"/>
		
			<rect x="101.4" y="1369.9" transform="matrix(-1.836970e-16 1 -1 -1.836970e-16 1487.1238 1270.2804)" class="st14" width="14.1" height="17.6"/>
		
			<rect x="101.4" y="1405.1" transform="matrix(-1.836970e-16 1 -1 -1.836970e-16 1522.311 1305.4678)" class="st14" width="14.1" height="17.6"/>
	</g>
</g>
<g id="k1">
	<g>
		<path class="st15" d="M296.9,619.2c0,0.3,0,0.7,0,1h22.6c0-0.3,0-0.7,0-1c0-26.9-22.1-48.7-49.3-48.7v22.3
			C285,592.8,296.9,604.6,296.9,619.2z"/>
		<path class="st14" d="M296.9,620.2c-0.5,14.1-12.3,25.4-26.7,25.4c-14.4,0-26.1-11.3-26.7-25.4c0-0.3,0-0.7,0-1
			c0-14.6,12-26.4,26.7-26.4v-22.3c-27.2,0-49.3,21.8-49.3,48.7c0,0.3,0,0.7,0,1c0.5,26.4,22.4,47.7,49.3,47.7s48.7-21.2,49.3-47.7
			H296.9z"/>
	</g>
</g>
<g id="k2">
	<g>
		<path class="st14" d="M317.9,496.6c0-27.2-21.8-49.3-48.7-49.3c-0.3,0-0.7,0-1,0V470c0.3,0,0.7,0,1,0c14.6,0,26.4,12,26.4,26.7
			s-11.8,26.7-26.4,26.7c-0.3,0-0.7,0-1,0v22.6c0.3,0,0.7,0,1,0C296.1,545.9,317.9,523.8,317.9,496.6z"/>
		<path class="st15" d="M268.2,523.3c-14.1-0.5-25.3-12.3-25.3-26.7c0-14.4,11.3-26.1,25.3-26.7v-22.6
			c-26.4,0.5-47.7,22.4-47.7,49.3c0,26.9,21.2,48.7,47.7,49.3V523.3z"/>
	</g>
</g>
<g id="k3">
	<g>
		<path class="st15" d="M243.5,251.5c0-0.3,0-0.7,0-1H221c0,0.3,0,0.7,0,1c0,26.9,22.1,48.7,49.3,48.7v-22.3
			C255.5,277.9,243.5,266.1,243.5,251.5z"/>
		<path class="st14" d="M243.6,250.5c0.5-14.1,12.3-25.4,26.7-25.4c14.4,0,26.1,11.3,26.7,25.4c0,0.3,0,0.7,0,1
			c0,14.6-12,26.4-26.7,26.4v22.3c27.2,0,49.3-21.8,49.3-48.7c0-0.3,0-0.7,0-1c-0.5-26.4-22.4-47.7-49.3-47.7
			c-26.9,0-48.7,21.2-49.3,47.7H243.6z"/>
	</g>
</g>
<g id="k4">
	<g>
		<path class="st15" d="M269.2,400.8c-0.3,0-0.7,0-1,0v22.6c0.3,0,0.7,0,1,0c26.9,0,48.7-22.1,48.7-49.3h-22.3
			C295.6,388.8,283.8,400.8,269.2,400.8z"/>
		<path class="st14" d="M268.2,400.7c-14.1-0.5-25.3-12.3-25.3-26.7s11.3-26.1,25.3-26.7c0.3,0,0.7,0,1,0c14.6,0,26.4,12,26.4,26.7
			h22.3c0-27.2-21.8-49.3-48.7-49.3c-0.3,0-0.7,0-1,0c-26.4,0.5-47.7,22.4-47.7,49.3s21.2,48.7,47.7,49.3V400.7z"/>
	</g>
</g>
<g id="krzesło">
</g>
<g id="reka_p">
	<g>
		<path class="st44" d="M1494.4,1109.9c71-5,1.2,20.9-12.6,113.6c-13.8,92.7-18.5,108.9-38.6,121.8c-20.1,12.9-144,11.3-144,11.3
			l-15-39.5c0,0,102.2,6,119-19.4C1420.2,1272.2,1423.5,1114.9,1494.4,1109.9z"/>
		<path class="st12" d="M1494.4,1109.9c-47.7,3.4-64.8,75.6-76.1,130.3c0,0,15.4,33.9,58.4,13.4c0.2-0.1,0.4-0.2,0.5-0.3
			c1.4-8.9,2.9-18.8,4.5-29.7C1495.7,1130.8,1565.4,1104.9,1494.4,1109.9z"/>
		<path class="st3" d="M1475.9,1250.4c-0.1,0-0.4,0.2-0.5,0.3c-13.7,6.5-25.8,8-35.9,4.3c-12.8-4.6-18.2-16-18.2-16.2
			c-0.4-1-1.3-1.5-2.3-1.7c-0.2,1-0.4,2.1-0.6,3.1c0,0,15.4,33.9,58.4,13.4c0.2-0.1,0.4-0.2,0.5-0.3c0.2-1,0.3-2.1,0.5-3.1
			C1477.2,1250.1,1476.5,1250.1,1475.9,1250.4z"/>
		<path class="st44" d="M1305.5,1336.8c0.3,17.2-13.4,31.3-30.6,31.5c-17.2,0.3-31.3-13.4-31.5-30.6c-0.3-17.2,13.4-31.3,30.6-31.5
			C1291.2,1305.9,1305.3,1319.6,1305.5,1336.8z"/>
	</g>
</g>
<g id="tlow">
	<g>
		<path class="st3" d="M1525,1446.1c-22.6,0-51.3-6.5-62.8-9.3l0.5-2c11.7,2.9,41.4,9.6,64,9.3c26.2-0.4,74.5-12.8,81.2-14.5
			l-8.2-316.1l2-0.1l8.3,317.7l-0.8,0.2c-0.5,0.1-54.2,14.4-82.5,14.8C1526.2,1446.1,1525.6,1446.1,1525,1446.1z"/>
	</g>
	<path class="st15" d="M1609,1420.3c0,0-53.8,14.3-82.3,14.8c-28.5,0.4-68.5-10.4-68.5-10.4s0.5-261.9,1.6-272
		c1.2-10,13.1-47.4,62-48.1c48.8-0.7,79-1.2,79-1.2L1609,1420.3z"/>
	<g>
		<path class="st3" d="M1462.2,1426.8c-2.7-0.7-4.3-1.1-4.3-1.1l-0.8-0.2l0-0.8c0-33.3,0.1-66.6,0.2-99.8c0.1-25.5,0.2-51,0.4-76.5
			c0.1-8-0.5-16.3-1.1-24.3c-1.3-19.1-2.7-38.8,4-56.9l1.9,0.7c-6.5,17.6-5.2,37.2-3.9,56c0.6,8.1,1.1,16.4,1.1,24.4
			c-0.2,25.5-0.3,51-0.4,76.5c-0.1,33-0.2,66-0.2,99c0.7,0.2,1.9,0.5,3.5,0.9L1462.2,1426.8z"/>
	</g>
	<g>
		<path class="st44" d="M1590.6,1103.6c0,0-11.6,30-39.3,30.4c-27.7,0.4-30.8-29.4-30.8-29.4l-0.4-26.4l55.1-34.4L1590.6,1103.6z"/>
		<path class="st3" d="M1514.5,1105.1c1.9-0.2,3.9-0.3,5.9-0.4c0.1,0.5,3.4,29.7,30.8,29.3c27.7-0.4,39.3-30.4,39.3-30.4
			c2.5,0,4.5-0.1,6.1-0.1l0.1,0.5l-0.7,1.8c-0.5,1.4-13.4,33.7-44.7,34.2c-26.2,0.4-35.5-22.5-36.8-34.6L1514.5,1105.1z"/>
		<path class="st44" d="M1563.9,1052.4l12.3-4.3l8,30.9c-12,22.6-54.6,23.8-63.8,23.9l-0.1-8.9l1.8-9.4L1563.9,1052.4z"/>
	</g>
</g>
<g id="laptop_2_">
	<g>
		<path class="st15" d="M1236.1,1256.5l30.3,100.2c0.2,0.5,0.5,0.9,1.1,1.1l81.4,28.3c0.4,0.1,0.8,0.1,1.1,0l85.6-30.6
			c0.9-0.3,1.3-1.2,1-2.1l-33.2-100.4c-0.2-0.7-0.9-1.2-1.6-1.2l-164.2,2.4C1236.5,1254.3,1235.7,1255.4,1236.1,1256.5z"/>
		<path class="st14" d="M1341.6,1309.4c1.9,6.5-1.9,11.8-8.4,11.9c-6.5,0.1-13.3-5.1-15.1-11.5c-1.9-6.5,1.9-11.8,8.4-11.9
			C1332.9,1297.8,1339.7,1302.9,1341.6,1309.4z"/>
	</g>
</g>
<g id="reka_l">
	<g>
		<g>
			<g>
				<defs>
					<path id="SVGID_30_" d="M1502.2,1108c-1.3,0.1-2.7,0.3-3.9,0.5c-0.4,0.1-0.7,0.1-1.1,0.2c-1,0.2-1.9,0.4-2.8,0.6
						c-0.4,0.1-0.7,0.2-1.1,0.3c-1.2,0.3-2.4,0.7-3.6,1.1c-0.1,0-0.2,0.1-0.3,0.1c-1.1,0.4-2.2,0.9-3.2,1.4c-0.3,0.2-0.7,0.3-1,0.5
						c-0.8,0.4-1.7,0.9-2.5,1.3c-0.3,0.2-0.6,0.3-0.9,0.5c-1.1,0.6-2.1,1.3-3.2,2.1c-0.1,0.1-0.3,0.2-0.4,0.3
						c-0.9,0.6-1.8,1.3-2.7,2c-0.3,0.2-0.6,0.5-0.9,0.8c-0.7,0.6-1.5,1.3-2.2,2c-0.3,0.2-0.5,0.5-0.8,0.7c-0.9,0.9-1.9,1.8-2.8,2.8
						c-0.2,0.2-0.3,0.4-0.5,0.5c-0.8,0.8-1.5,1.7-2.2,2.6c-0.3,0.3-0.5,0.7-0.8,1c-0.7,0.8-1.3,1.7-1.9,2.5
						c-0.2,0.3-0.4,0.6-0.6,0.9c-0.8,1.1-1.6,2.3-2.4,3.5c-0.2,0.2-0.3,0.5-0.5,0.8c-0.6,1-1.3,2-1.9,3c-0.2,0.4-0.5,0.8-0.7,1.2
						c-0.6,1-1.2,2-1.7,3c-0.2,0.3-0.3,0.6-0.5,0.9c-0.7,1.3-1.4,2.7-2.1,4c-0.2,0.3-0.3,0.6-0.5,1c-0.5,1.1-1.1,2.2-1.6,3.3
						c-0.2,0.4-0.4,0.9-0.6,1.3c-0.5,1.1-1,2.3-1.5,3.4c-0.1,0.3-0.3,0.6-0.4,0.9c-0.6,1.5-1.2,2.9-1.8,4.4
						c-0.2,0.4-0.3,0.8-0.4,1.2c-0.4,1.2-0.9,2.3-1.3,3.5c-0.2,0.5-0.4,0.9-0.5,1.4c-0.5,1.3-0.9,2.5-1.4,3.8
						c-0.1,0.3-0.2,0.6-0.3,0.8c-0.5,1.6-1.1,3.1-1.6,4.7c-0.1,0.4-0.3,0.8-0.4,1.3c-0.4,1.2-0.8,2.4-1.1,3.6
						c-0.2,0.5-0.3,1-0.4,1.5c-0.4,1.4-0.8,2.8-1.2,4.2c-0.1,0.2-0.1,0.4-0.2,0.7c-0.5,1.6-0.9,3.3-1.4,4.9
						c-0.1,0.4-0.2,0.9-0.4,1.3c-0.3,1.2-0.7,2.5-1,3.8c-0.1,0.5-0.2,0.9-0.4,1.4c-0.4,1.5-0.8,3-1.1,4.5c0,0.1-0.1,0.2-0.1,0.4
						c-0.4,1.7-0.8,3.3-1.2,5c-0.1,0.4-0.2,0.9-0.3,1.3c-0.3,1.3-0.6,2.5-0.9,3.8c-0.1,0.4-0.2,0.9-0.3,1.3
						c-0.7,3.3-1.5,6.6-2.1,9.8c-0.1,0.4-0.2,0.7-0.2,1.1c-0.3,1.3-0.5,2.6-0.8,3.9c-0.1,0.4-0.2,0.8-0.2,1.1
						c-6,28.7-10.2,53.4-16,62.2c-16.8,25.4-119,19.4-119,19.4l15,39.5c0,0,123.9,1.7,144-11.3c19.5-12.5,24.5-28.1,37.4-113.8
						c0.4-2.6,0.8-5.3,1.2-8c9.3-62.3,43.8-94.4,43.9-107.3C1533.6,1108.1,1525.4,1106.4,1502.2,1108z"/>
				</defs>
				<clipPath id="SVGID_31_">
					<use xlink:href="#SVGID_30_"  style="overflow:visible;"/>
				</clipPath>
			</g>
		</g>
		<g>
			<defs>
				<path id="SVGID_32_" d="M1608.2,1421.3c0,0-53.8,14.3-82.3,14.8c-28.5,0.4-68.5-10.4-68.5-10.4s0.5-261.9,1.6-272
					c1.2-10,13.1-47.4,62-48.1c48.8-0.7,79-1.2,79-1.2L1608.2,1421.3z"/>
			</defs>
			<clipPath id="SVGID_33_">
				<use xlink:href="#SVGID_32_"  style="overflow:visible;"/>
			</clipPath>
		</g>
	</g>
	<g>
		<path class="st44" d="M1599.9,1103.8c0,0,79.2,21.9,65.4,114.6c-13.8,92.7-16.3,117.4-45,130.7c-28.7,13.3-155.8,19.3-155.8,19.3
			l-8.5-40.2c0,0,114.2-6.7,131-32.1C1603.7,1270.5,1599.9,1103.8,1599.9,1103.8z"/>
		<path class="st12" d="M1599.9,1103.8c0,0-18.1,91.8-3.8,151.2c0,0,30.7,32,62.3,9.2c2.1-13.1,4.3-28.2,6.9-45.8
			C1679.1,1125.7,1599.9,1103.8,1599.9,1103.8z"/>
		<g>
			<path class="st3" d="M1594.8,1254.2c-13.7-59-1.9-112.7-1.7-113.2l2,0.5c-0.1,0.5-11.9,53.8,1.7,112.3L1594.8,1254.2z"/>
		</g>
		<g>
			<path class="st3" d="M1659.4,1264.4l-2-0.3c1.6-10.3,3.3-21.7,5.3-35l1.6-10.8c13.5-90.8-63.8-113.3-64.6-113.5l0.5-2
				c0.8,0.2,79.9,23.2,66.1,115.7l-1.6,10.8C1662.7,1242.6,1661,1254.1,1659.4,1264.4z"/>
		</g>
		<g>
			<path class="st3" d="M1634.4,1273.4c-21.7,0-38.8-17.4-39-17.7l-0.2-0.2l-0.3-1.3l2-0.5l0.2,0.7c2.8,2.9,31.2,30.3,60.8,8.9
				l1.2,1.7C1650.6,1271.1,1642.2,1273.4,1634.4,1273.4z"/>
		</g>
		<path class="st3" d="M1598.4,1252.8c-0.6-0.6-1.3-0.9-2-0.9c-0.1,1.1-0.2,2.1-0.3,3.2c0,0,30.7,32,62.3,9.2c0.2-1,0.3-2.1,0.5-3.2
			c-0.8-0.1-1.7,0-2.4,0.6C1627.6,1282.5,1599.6,1254,1598.4,1252.8z"/>
		<path class="st44" d="M1477.2,1351.2c0.2,15.3-17.4,27.9-39.3,28.3c-21.9,0.3-39.9-11.8-40.1-27.1c-0.2-15.3,17.4-27.9,39.3-28.3
			C1459,1323.8,1477,1335.9,1477.2,1351.2z"/>
	</g>
	<g>
		<g>
			<g>
				<defs>
					<path id="SVGID_34_" d="M1502.2,1108c-1.3,0.1-2.7,0.3-3.9,0.5c-0.4,0.1-0.7,0.1-1.1,0.2c-1,0.2-1.9,0.4-2.8,0.6
						c-0.4,0.1-0.7,0.2-1.1,0.3c-1.2,0.3-2.4,0.7-3.6,1.1c-0.1,0-0.2,0.1-0.3,0.1c-1.1,0.4-2.2,0.9-3.2,1.4c-0.3,0.2-0.7,0.3-1,0.5
						c-0.8,0.4-1.7,0.9-2.5,1.3c-0.3,0.2-0.6,0.3-0.9,0.5c-1.1,0.6-2.1,1.3-3.2,2.1c-0.1,0.1-0.3,0.2-0.4,0.3
						c-0.9,0.6-1.8,1.3-2.7,2c-0.3,0.2-0.6,0.5-0.9,0.8c-0.7,0.6-1.5,1.3-2.2,2c-0.3,0.2-0.5,0.5-0.8,0.7c-0.9,0.9-1.9,1.8-2.8,2.8
						c-0.2,0.2-0.3,0.4-0.5,0.5c-0.8,0.8-1.5,1.7-2.2,2.6c-0.3,0.3-0.5,0.7-0.8,1c-0.7,0.8-1.3,1.7-1.9,2.5
						c-0.2,0.3-0.4,0.6-0.6,0.9c-0.8,1.1-1.6,2.3-2.4,3.5c-0.2,0.2-0.3,0.5-0.5,0.8c-0.6,1-1.3,2-1.9,3c-0.2,0.4-0.5,0.8-0.7,1.2
						c-0.6,1-1.2,2-1.7,3c-0.2,0.3-0.3,0.6-0.5,0.9c-0.7,1.3-1.4,2.7-2.1,4c-0.2,0.3-0.3,0.6-0.5,1c-0.5,1.1-1.1,2.2-1.6,3.3
						c-0.2,0.4-0.4,0.9-0.6,1.3c-0.5,1.1-1,2.3-1.5,3.4c-0.1,0.3-0.3,0.6-0.4,0.9c-0.6,1.5-1.2,2.9-1.8,4.4
						c-0.2,0.4-0.3,0.8-0.4,1.2c-0.4,1.2-0.9,2.3-1.3,3.5c-0.2,0.5-0.4,0.9-0.5,1.4c-0.5,1.3-0.9,2.5-1.4,3.8
						c-0.1,0.3-0.2,0.6-0.3,0.8c-0.5,1.6-1.1,3.1-1.6,4.7c-0.1,0.4-0.3,0.8-0.4,1.3c-0.4,1.2-0.8,2.4-1.1,3.6
						c-0.2,0.5-0.3,1-0.4,1.5c-0.4,1.4-0.8,2.8-1.2,4.2c-0.1,0.2-0.1,0.4-0.2,0.7c-0.5,1.6-0.9,3.3-1.4,4.9
						c-0.1,0.4-0.2,0.9-0.4,1.3c-0.3,1.2-0.7,2.5-1,3.8c-0.1,0.5-0.2,0.9-0.4,1.4c-0.4,1.5-0.8,3-1.1,4.5c0,0.1-0.1,0.2-0.1,0.4
						c-0.4,1.7-0.8,3.3-1.2,5c-0.1,0.4-0.2,0.9-0.3,1.3c-0.3,1.3-0.6,2.5-0.9,3.8c-0.1,0.4-0.2,0.9-0.3,1.3
						c-0.7,3.3-1.5,6.6-2.1,9.8c-0.1,0.4-0.2,0.7-0.2,1.1c-0.3,1.3-0.5,2.6-0.8,3.9c-0.1,0.4-0.2,0.8-0.2,1.1
						c-6,28.7-10.2,53.4-16,62.2c-16.8,25.4-119,19.4-119,19.4l15,39.5c0,0,123.9,1.7,144-11.3c19.5-12.5,24.5-28.1,37.4-113.8
						c0.4-2.6,0.8-5.3,1.2-8c9.3-62.3,43.8-94.4,43.9-107.3C1533.6,1108.1,1525.4,1106.4,1502.2,1108z"/>
				</defs>
				<clipPath id="SVGID_35_">
					<use xlink:href="#SVGID_34_"  style="overflow:visible;"/>
				</clipPath>
			</g>
		</g>
	</g>
</g>
<g id="nog1">
	<g>
		<polygon class="st45" points="1190.4,1677.4 1182.9,1718.1 1216.2,1723.5 1224.1,1689.8 		"/>
		<path class="st46" d="M1157.9,1732.6l65.2-1c3.1,0,5.6-2.6,5.5-5.7l-0.1-5.3c0-2.8-2.3-5-5.1-4.9l-49.9,0.7
			c-8.8,0.1-28.2,7.5-28.1,16.3L1157.9,1732.6z"/>
		<linearGradient id="SVGID_36_" gradientUnits="userSpaceOnUse" x1="1185.4587" y1="1526.7396" x2="1532.8101" y2="1526.7396">
			<stop  offset="0" style="stop-color:#3A77BC"/>
			<stop  offset="1" style="stop-color:#2B4057"/>
		</linearGradient>
		<path class="st47" d="M1457.8,1397.2c0,0,98.9,53.1,69.6,60.8c-29.3,7.8-158.3,38.8-244.8-20.1c28.9,39.4-18.2,137.5-56.8,258.1
			l-40.3-4.8c0,0,10.8-292.9,42.9-324.9C1260.5,1334.5,1457.8,1397.2,1457.8,1397.2z"/>
		<path class="st46" d="M1181.8,1696.1c-19.5,0-35.4,15.8-35.4,35.4h41.4C1187.8,1731.5,1197.6,1701,1181.8,1696.1z"/>
	</g>
</g>
<g id="glowa">
	<path class="st48" d="M1566.8,1037.6c-4.3,7.3-12.4,8.2-12.4,8.2s-0.3,11.8,6.2,11.8C1567.1,1057.6,1566.8,1037.6,1566.8,1037.6z"
		/>
	<path class="st48" d="M1558.7,1013.4c0.7-0.7,1.6-0.9,2.4-1c0.8-0.1,1.7-0.3,2.3,0.3c0.3,0.3,0.5,0.7,0.6,1.1
		c1.2,3.1,1.8,7.1,0.7,10.9c-0.7,2.5-2.2,4.7-3.7,6.6c-0.9,1.1-1.9,2.2-3,2.8c-1.1,0.5-2.4,0.4-3-0.8c-0.8-1.5,0-3.9,1.2-5.4
		c2.3-2.8,2.2-4.3,0.9-7.1C1556,1018.7,1556.8,1015.4,1558.7,1013.4z"/>
	<path class="st44" d="M1584.1,1048.7c0,0-3.1-1-7.1-4.7c-4-3.6-10.3-16.4-10.3-16.4c4.7-7,6.6-20.3,3.4-27.6
		c-4.4-10.3-11.7-5.3-16.1-0.3c0,0-3.6,20.5-5.5,21.4c-1.9,0.9-5.9-21.9-7-25.8c-1.1-3.9-7-2.6-11.7-10.3c-4.8-7.7-6.5-9-6.5-9
		l-50.7,12.3c-0.2,6.5,0.1,14.1,0.9,22.2c2,22,7.1,47,12.9,59.7l6.2,13.5c1,2.2,3.4,3.5,5.7,3c8-1.6,26.9-3.6,32.4-6.1
		C1530.8,1080.7,1579.5,1066.8,1584.1,1048.7"/>
	
		<linearGradient id="SVGID_37_" gradientUnits="userSpaceOnUse" x1="1503.667" y1="908.2805" x2="1503.667" y2="1008.3949" gradientTransform="matrix(0.8822 0.2724 -0.2879 0.9327 481.6243 -340.7231)">
		<stop  offset="0" style="stop-color:#3A77BC"/>
		<stop  offset="1" style="stop-color:#2B4057"/>
	</linearGradient>
	<path class="st49" d="M1594.6,1003.9c-3.7,19.7-10.5,44.7-10.5,44.7s-3.1-1-7.1-4.7c-4-3.6-10.3-16.4-10.3-16.4
		c4.7-7,6.6-20.3,3.4-27.6c-4.4-10.3-11.7-5.3-16.1-0.3c0,0-3.6,20.5-5.5,21.4c-1.9,0.9-5.9-21.9-7-25.8c-1.1-3.9-7-2.6-11.7-10.3
		c-4.8-7.7-6.5-9-6.5-9l-50.7,12.3c-0.2,6.5,0.1,14.1,0.9,22.2c-1.7,0.2-4.8,0.1-7.6-2c-2.8-2.3-3.6-5.4-3.8-6.3
		c-7.6-0.4-13.7-6.1-14.9-13.5c-1-6.2,1.7-12.6,6.9-16.6c-0.1-0.5-1.3-6.7,3.1-11.7c4.5-5,10.5-4.1,11-4.1
		c-0.1-0.7-0.7-11.4,6.1-16.8c7-5.5,19.5-3.7,26.7,6.8c0.2-0.6,2.3-5.5,7.5-7c6-1.8,10.4,2.6,10.6,2.8c1-1.6,3.8-5.9,9-7.5
		c6.8-2,14.8,1.7,19.1,9.6c2.4-1.5,8.4-4.8,15.9-4c9.7,1.1,18,8.8,21.4,19.7c1.4,0,5.3,0.4,8.2,3.5c3.9,4,4.5,11.3,1.2,17.7
		c1.2,0.6,4.5,2.5,5.9,6.5C1601.8,992.9,1599.8,999.6,1594.6,1003.9z"/>
</g>
<g id="nog2">
	<g>
		<polygon class="st45" points="1295.4,1677.5 1284.9,1718.3 1315.6,1723.3 1326.4,1689.4 		"/>
		<path class="st46" d="M1255.8,1732.6l65.2-1c3.1,0,5.6-2.6,5.5-5.7l-0.1-5.3c0-2.8-2.3-5-5.1-4.9l-49.9,0.7
			c-8.8,0.1-28.2,7.5-28.1,16.3L1255.8,1732.6z"/>
		<linearGradient id="SVGID_38_" gradientUnits="userSpaceOnUse" x1="1286.9481" y1="1526.7325" x2="1613.5077" y2="1526.7325">
			<stop  offset="0" style="stop-color:#3A77BC"/>
			<stop  offset="1" style="stop-color:#2B4057"/>
		</linearGradient>
		<path class="st50" d="M1609.5,1396.4c0,0,15.2,45.1-13.7,65.3c-49.3,34.5-169.9-6-190.4-23.1c25.1,63.1-45.1,173.2-81.2,263
			c-24-3-37.2-5.7-37.2-5.7s29.5-303.6,61.6-335.6C1380.6,1328.4,1609.5,1396.4,1609.5,1396.4z"/>
		<path class="st46" d="M1278.7,1696.1c-19.5,0-35.4,15.8-35.4,35.4h41.4C1284.8,1731.5,1294.5,1701,1278.7,1696.1z"/>
	</g>
</g>
</svg>
