<svg xmlns="http://www.w3.org/2000/svg" width="62.797" height="66.506" viewBox="0 0 62.797 66.506">
  <g id="fire-alarm" transform="translate(-14.277)">
    <g id="Group_40954" data-name="Group 40954" transform="translate(72.147 7.616)">
      <g id="Group_40953" data-name="Group 40953">
        <path id="Path_44689" data-name="Path 44689" d="M461.6,59.063a.988.988,0,0,0-1.636,1.106,16.167,16.167,0,0,1,2.782,9.089.988.988,0,0,0,1.975,0A18.135,18.135,0,0,0,461.6,59.063Z" transform="translate(-459.794 -58.629)" fill="#17416d"/>
      </g>
    </g>
    <g id="Group_40956" data-name="Group 40956" transform="translate(57.84 0)">
      <g id="Group_40955" data-name="Group 40955" transform="translate(0 0)">
        <path id="Path_44690" data-name="Path 44690" d="M362.9,4.746A18.194,18.194,0,0,0,350.64,0a.988.988,0,0,0,0,1.975,16.224,16.224,0,0,1,10.934,4.232A.988.988,0,1,0,362.9,4.746Z" transform="translate(-349.652 0)" fill="#17416d"/>
      </g>
    </g>
    <g id="Group_40958" data-name="Group 40958" transform="translate(57.84 5.721)">
      <g id="Group_40957" data-name="Group 40957">
        <path id="Path_44691" data-name="Path 44691" d="M350.64,44.043a.988.988,0,0,0,0,1.975,10.561,10.561,0,0,1,10.549,10.55.988.988,0,1,0,1.975,0A12.539,12.539,0,0,0,350.64,44.043Z" transform="translate(-349.652 -44.043)" fill="#17416d"/>
      </g>
    </g>
    <g id="Group_40960" data-name="Group 40960" transform="translate(57.84 11.442)">
      <g id="Group_40959" data-name="Group 40959">
        <path id="Path_44692" data-name="Path 44692" d="M350.64,88.087a.988.988,0,0,0,0,1.975,4.834,4.834,0,0,1,4.829,4.829.988.988,0,1,0,1.975,0A6.812,6.812,0,0,0,350.64,88.087Z" transform="translate(-349.652 -88.087)" fill="#17416d"/>
      </g>
    </g>
    <g id="Group_40962" data-name="Group 40962" transform="translate(57.843 17.261)">
      <g id="Group_40961" data-name="Group 40961">
        <path id="Path_44693" data-name="Path 44693" d="M351.057,132.968a.987.987,0,1,0,.58,1.024A1,1,0,0,0,351.057,132.968Z" transform="translate(-349.673 -132.885)" fill="#17416d"/>
      </g>
    </g>
    <g id="Group_40964" data-name="Group 40964" transform="translate(23.829 4.196)">
      <g id="Group_40963" data-name="Group 40963">
        <path id="Path_44694" data-name="Path 44694" d="M124.5,57.438a49.658,49.658,0,0,0-9.977-13.466A72.764,72.764,0,0,0,99.134,32.421a.988.988,0,0,0-1.449.874c0,7.43-.739,15.389-9.565,23.827a.988.988,0,0,0,1.365,1.428c4.942-4.724,9.771-10.446,10.151-23.567a73.692,73.692,0,0,1,13.5,10.4A47.705,47.705,0,0,1,122.721,58.3a29.768,29.768,0,0,1,3.015,16.731,18.751,18.751,0,0,1-2.725,7.87.988.988,0,1,0,1.671,1.054,20.71,20.71,0,0,0,3.016-8.692A31.711,31.711,0,0,0,124.5,57.438Z" transform="translate(-87.814 -32.307)" fill="#17416d"/>
      </g>
    </g>
    <g id="Group_40966" data-name="Group 40966" transform="translate(14.277 32.154)">
      <g id="Group_40965" data-name="Group 40965" transform="translate(0)">
        <path id="Path_44695" data-name="Path 44695" d="M57.841,273.4a.987.987,0,0,0-1.4,0,22.474,22.474,0,0,1-8.572,5.183,17.678,17.678,0,0,0,.746-5.365c0-3.983-2.1-6.464-4.316-9.09-2.414-2.856-4.911-5.81-5.179-11.239a.988.988,0,0,0-1.539-.77c-5.576,3.761-8.743,8.224-9.412,13.264-.783,5.892,2.076,11.18,4.172,14.157A23.391,23.391,0,0,1,21.9,274.7a15.656,15.656,0,0,1-5.642-11.868c-.148-6.466,2.058-10,5.663-13.605a.988.988,0,1,0-1.4-1.4c-3.865,3.864-6.4,7.9-6.242,15.047a17.581,17.581,0,0,0,6.336,13.327,26.366,26.366,0,0,0,13.925,5.681.972.972,0,0,0,.116.007.988.988,0,0,0,.747-1.634c-1.468-1.7-6.188-7.768-5.277-14.623.536-4.037,2.951-7.7,7.184-10.9.7,5.013,3.226,8,5.479,10.665,2.066,2.444,3.849,4.554,3.849,7.815a13.39,13.39,0,0,1-1.364,6.442.988.988,0,0,0,1.116,1.431,25.183,25.183,0,0,0,11.441-6.29A.988.988,0,0,0,57.841,273.4Z" transform="translate(-14.277 -247.544)" fill="#17416d"/>
      </g>
    </g>
  </g>
</svg>
