<?xml version="1.0" standalone="no"?>
<!DOCTYPE svg PUBLIC "-//W3C//DTD SVG 1.1//EN" "http://www.w3.org/Graphics/SVG/1.1/DTD/svg11.dtd" >
<svg xmlns="http://www.w3.org/2000/svg" xmlns:xlink="http://www.w3.org/1999/xlink" version="1.1">
<metadata>
Created by FontForge 20170731 at Tue Sep  1 17:04:42 2015
 By Aleksey,,,
Copyright (c) 2015 by Galin Kastelov. All rights reserved.
</metadata>
<defs>
<font id="Nolan-Heavy" horiz-adv-x="679" >
  <font-face 
    font-family="Nolan Heavy"
    font-weight="900"
    font-stretch="normal"
    units-per-em="1000"
    panose-1="0 0 10 0 0 0 0 0 0 0"
    ascent="760"
    descent="-240"
    x-height="519"
    cap-height="706"
    bbox="-102 -311.409 1340 959"
    underline-thickness="50"
    underline-position="-150"
    unicode-range="U+000D-25CA"
  />
<missing-glyph horiz-adv-x="130" 
 />
    <glyph glyph-name=".notdef" horiz-adv-x="130" 
 />
    <glyph glyph-name=".null" horiz-adv-x="0" 
 />
    <glyph glyph-name="nonmarkingreturn" unicode="&#xd;" horiz-adv-x="130" 
 />
    <glyph glyph-name="space" unicode=" " horiz-adv-x="220" 
 />
    <glyph glyph-name="exclam" unicode="!" horiz-adv-x="412" 
d="M104 573v133h206v-133l-31 -358h-144zM106 171h202v-171h-202v171z" />
    <glyph glyph-name="quotedbl" unicode="&#x22;" horiz-adv-x="521" 
d="M79 617v86h160v-86l-30 -193h-100zM282 617v86h160v-86l-30 -193h-100z" />
    <glyph glyph-name="numbersign" unicode="#" horiz-adv-x="783" 
d="M611 402l-17 -82h81v-155h-114l-35 -165h-162l35 165h-92l-35 -165h-162l35 165h-73v155h106l17 82h-87v155h120l35 165h162l-35 -165h92l35 165h162l-35 -165h67v-155h-100zM449 402h-92l-17 -82h92z" />
    <glyph glyph-name="dollar" unicode="$" horiz-adv-x="659" 
d="M570 68.5q-55 -54.5 -151 -73.5v-107h-186v101q-61 8 -119 28t-100 47l65 148q43 -22 110 -40.5t120 -18.5q124 0 124 39q0 24 -31 36.5t-92 26.5q-22 4 -33 7q-83 19 -136 44.5t-83 71t-30 120.5q0 89 55 142.5t150 71.5v102h186v-97q115 -16 200 -63l-61 -149
q-52 23 -115 35t-112 12q-53 0 -82 -11.5t-29 -32.5q0 -23 25 -33.5t73 -19.5l32 -7q90 -20 148.5 -46.5t92.5 -71.5t34 -116q0 -91 -55 -145.5z" />
    <glyph glyph-name="percent" unicode="%" horiz-adv-x="988" 
d="M642 735h140l-441 -744h-140zM100.5 391.5q-47.5 55.5 -47.5 142.5t48 143.5t131 56.5t130.5 -56.5t47.5 -143.5t-48 -142.5t-131 -55.5t-130.5 55.5zM291 534q0 90 -59 90q-60 0 -60 -89t59 -89q60 0 60 88zM625.5 48q-47.5 56 -47.5 143t47.5 143t131.5 56
q83 0 130.5 -56t47.5 -143t-48 -143t-131 -56t-130.5 56zM816 191q0 89 -60 89q-59 0 -59 -88q0 -90 59 -90q60 0 60 89z" />
    <glyph glyph-name="ampersand" unicode="&#x26;" horiz-adv-x="767" 
d="M647 170q38 -26 69 -45q8 -6 24 -16l-88 -124l-84 59l-29 19q-105 -79 -237 -79q-89 0 -149 30t-89 78t-29 104q0 63 33.5 109t91.5 82q-36 63 -36 125q0 66 33.5 114t88 72t116.5 24q52 0 96.5 -20.5t72 -60.5t27.5 -96q0 -66 -44.5 -109.5t-123.5 -84.5q18 -16 58 -46
t68 -50q45 53 97 142l132 -87q-56 -85 -98 -140zM298.5 551.5q-18.5 -17.5 -18.5 -45.5q0 -21 17 -50q48 22 71.5 39.5t23.5 38.5q0 15 -13 25t-32 10q-30 0 -48.5 -17.5zM393 160q-93 68 -140 113q-37 -34 -37 -64q0 -31 24.5 -48.5t66.5 -17.5q46 0 86 17z" />
    <glyph glyph-name="quotesingle" unicode="'" horiz-adv-x="318" 
d="M79 617v86h160v-86l-30 -193h-100z" />
    <glyph glyph-name="parenleft" unicode="(" horiz-adv-x="451" 
d="M118.5 -46q-60.5 150 -60.5 297t60.5 297t169.5 251l115 -121q-72 -105 -112.5 -206t-40.5 -221t40.5 -221t112.5 -206l-115 -121q-109 101 -169.5 251z" />
    <glyph glyph-name="parenright" unicode=")" horiz-adv-x="451" 
d="M58 -176q72 105 112.5 206t40.5 221t-40.5 221t-112.5 206l115 121q109 -101 169.5 -251t60.5 -297t-60.5 -297t-169.5 -251z" />
    <glyph glyph-name="asterisk" unicode="*" horiz-adv-x="566" 
d="M221 379l12 90l-72 -55l-14 -7l-61 106l13 8l84 35l-84 35l-13 8l61 106l14 -8l72 -54l-12 89v16h123v-16l-11 -89l72 54l13 8l62 -106l-14 -8l-83 -35l83 -35l14 -8l-62 -106l-13 7l-72 55l11 -90v-15h-123v15z" />
    <glyph glyph-name="plus" unicode="+" horiz-adv-x="658" 
d="M572 272h-166v-165h-154v165h-166v155h166v165h154v-165h166v-155z" />
    <glyph glyph-name="comma" unicode="," horiz-adv-x="376" 
d="M98 -71q44 38 52 71h-56v178h188v-150q0 -39 -25 -95t-103 -97z" />
    <glyph glyph-name="hyphen" unicode="-" horiz-adv-x="565" 
d="M79 404h407v-167h-407v167z" />
    <glyph glyph-name="period" unicode="." horiz-adv-x="376" 
d="M94 178h188v-178h-188v178z" />
    <glyph glyph-name="slash" unicode="/" horiz-adv-x="650" 
d="M424 750h171l-361 -802h-179z" />
    <glyph glyph-name="zero" unicode="0" horiz-adv-x="716" 
d="M128 86.5q-82 95.5 -82 263.5t82 263t230 95t230 -95t82 -263t-82 -263.5t-230 -95.5t-230 95.5zM445.5 200q31.5 49 31.5 150t-31.5 149.5t-87.5 48.5t-87 -48.5t-31 -149.5t31 -150t87 -49t87.5 49z" />
    <glyph glyph-name="one" unicode="1" horiz-adv-x="510" 
d="M402 701v-701h-183v493l-119 -49l-65 148l237 109h130z" />
    <glyph glyph-name="two" unicode="2" horiz-adv-x="652" 
d="M582 155v-155h-514v76q0 78 19 125t65 93q28 28 61.5 52t80.5 54l35 23q54 34 54 66q0 29 -23.5 44t-58.5 15q-45 0 -91 -15t-107 -45l-43 146q125 74 257 74q70 0 128 -22t92.5 -67t34.5 -109q0 -48 -15 -84.5t-46 -67.5q-21 -21 -46.5 -40.5t-66.5 -47.5q-4 -2 -38 -26
l-18 -13q-39 -27 -56.5 -43.5t-17.5 -32.5h314z" />
    <glyph glyph-name="three" unicode="3" horiz-adv-x="608" 
d="M529.5 290.5q32.5 -48.5 32.5 -102.5q0 -55 -32 -100t-91 -71t-137 -26q-72 0 -140 22t-127 67l72 128q49 -30 86.5 -45.5t86.5 -15.5q40 0 65 15.5t25 48.5q0 37 -35 55t-83 18h-72v153h55q52 0 87 10.5t35 42.5q0 23 -23.5 40t-68.5 17q-56 0 -138 -40l-68 122
q58 42 113.5 60.5t118.5 18.5q64 0 120.5 -23t91 -67.5t34.5 -104.5q0 -43 -23.5 -82.5t-72.5 -64.5q56 -27 88.5 -75.5z" />
    <glyph glyph-name="four" unicode="4" horiz-adv-x="670" 
d="M633 129h-82v-130h-183v130h-331v137l347 429h167v-419h82v-147zM368 276v178l-144 -178h144z" />
    <glyph glyph-name="five" unicode="5" horiz-adv-x="631" 
d="M474 430.5q52 -28.5 79.5 -79.5t27.5 -117q0 -76 -37 -131t-102.5 -83.5t-149.5 -28.5q-133 0 -257 73l57 135q40 -20 95 -35.5t101 -15.5q47 0 75.5 20.5t28.5 61.5q0 34 -23 56.5t-64 22.5q-46 0 -85 -26l-144 26l31 386h428v-155h-270l-10 -104q45 23 97 23
q70 0 122 -28.5z" />
    <glyph glyph-name="six" unicode="6" horiz-adv-x="631" 
d="M161.5 38q-63.5 47 -94 127.5t-30.5 182.5q0 68 17 128.5t50 108.5q41 58 103.5 90.5t144.5 32.5q55 0 116.5 -17.5t105.5 -41.5l-42 -138q-34 16 -78.5 27t-87.5 11q-78 0 -125 -39t-48 -110q28 31 73 50t93 19q71 0 125 -29.5t83 -81.5t29 -118q0 -78 -35.5 -134.5
t-98 -85.5t-141.5 -29q-96 0 -159.5 47zM393.5 172q22.5 24 22.5 58t-22.5 58.5t-67.5 24.5q-41 0 -63.5 -25t-22.5 -58t22 -57.5t64 -24.5q45 0 67.5 24z" />
    <glyph glyph-name="seven" unicode="7" horiz-adv-x="567" 
d="M538 695v-135q-98 -113 -152 -257t-73 -303h-211q19 135 76 272t141 268h-293v155h512z" />
    <glyph glyph-name="eight" unicode="8" horiz-adv-x="660" 
d="M579.5 306q37.5 -48 37.5 -107q0 -52 -29.5 -99.5t-94 -78t-163.5 -30.5t-163.5 30.5t-94 78t-29.5 99.5q0 59 37.5 107t102.5 67q-53 18 -81.5 58t-28.5 86q0 61 36 104t94.5 65t126.5 22t126.5 -22t94.5 -65t36 -104q0 -46 -28.5 -86t-81.5 -58q65 -19 102.5 -67z
M249 498q0 -58 81 -58q82 0 82 58q0 59 -82 59q-81 0 -81 -59zM406 168q27 17 27 50q0 34 -27 51t-76 17t-76 -17t-27 -51q0 -33 27.5 -50t75.5 -17q49 0 76 17z" />
    <glyph glyph-name="nine" unicode="9" horiz-adv-x="625" 
d="M166 5.5q-58 14.5 -104 36.5l37 133q37 -16 82.5 -25.5t88.5 -9.5q118 0 151 85q12 28 12 57q0 14 -4 28q-25 -34 -68.5 -55.5t-96.5 -21.5q-73 0 -125 30t-78 79.5t-26 109.5q0 78 36 136t97 89t133 31q155 0 226 -116q61 -99 61 -255q0 -88 -28.5 -166t-96 -129
t-177.5 -51q-62 0 -120 14.5zM360.5 410.5q22.5 24.5 22.5 58.5q0 33 -22 57.5t-65 24.5q-44 0 -66.5 -24.5t-22.5 -57.5q0 -35 22.5 -59t66.5 -24q42 0 64.5 24.5z" />
    <glyph glyph-name="colon" unicode=":" horiz-adv-x="376" 
d="M94 499h188v-178h-188v178zM94 178h188v-178h-188v178z" />
    <glyph glyph-name="semicolon" unicode=";" horiz-adv-x="376" 
d="M94 499h188v-178h-188v178zM98 -71q44 38 52 71h-56v178h188v-150q0 -39 -25 -95t-103 -97z" />
    <glyph glyph-name="less" unicode="&#x3c;" horiz-adv-x="648" 
d="M79 240v159l490 217v-168l-310 -129l310 -127v-169z" />
    <glyph glyph-name="equal" unicode="=" horiz-adv-x="676" 
d="M86 516h504v-155h-504v155zM86 273h504v-154h-504v154z" />
    <glyph glyph-name="greater" unicode="&#x3e;" horiz-adv-x="648" 
d="M79 192l310 127l-310 129v168l490 -217v-159l-490 -217v169z" />
    <glyph glyph-name="question" unicode="?" horiz-adv-x="635" 
d="M215 289.5q12 32.5 53 67.5l29 19q45 28 68 51.5t23 56.5t-30 55.5t-76 22.5t-81.5 -22t-66.5 -52l-102 110q59 65 131.5 94.5t147.5 29.5q73 0 136 -28.5t100.5 -80.5t37.5 -120q0 -54 -28.5 -103t-83.5 -82q-47 -32 -64 -51t-17 -51h-189q0 51 12 83.5zM197 160h202
v-160h-202v160z" />
    <glyph glyph-name="at" unicode="@" horiz-adv-x="1053" 
d="M706.5 -54.5q77.5 23.5 150.5 69.5l68 -102q-80 -61 -177 -93t-196 -32q-158 0 -269 65.5t-167 172.5t-56 229q0 126 59 238.5t175 182t278 69.5q116 0 215 -45t159.5 -133.5t60.5 -213.5q0 -88 -38 -156t-96.5 -105t-118.5 -37q-44 0 -81.5 22.5t-56.5 59.5
q-28 -36 -68.5 -59t-83.5 -23q-51 0 -88.5 25.5t-57 68t-19.5 91.5q0 75 32.5 134t83.5 92t103 33q69 0 108 -52l11 37h134l-50 -185q-10 -38 -10 -55q0 -30 13.5 -48t35.5 -18q27 0 52 22.5t40.5 62t15.5 87.5q0 84 -40 143t-106 89t-143 30q-117 0 -201.5 -51.5
t-127.5 -134t-43 -174.5q0 -87 39 -162t118 -121.5t191 -46.5q74 0 151.5 23.5zM587 320q-23 49 -57 49q-25 0 -45.5 -19t-32 -47.5t-11.5 -55.5q0 -25 12 -41.5t34 -16.5q31 0 51 23.5t35 64.5q12 34 14 43z" />
    <glyph glyph-name="A" unicode="A" horiz-adv-x="820" 
d="M537 125h-262l-43 -125h-219l280 706h235l279 -706h-227zM483 282l-77 225l-77 -225h154z" />
    <glyph glyph-name="B" unicode="B" horiz-adv-x="794" 
d="M703 54q-66 -54 -200 -54h-417v706h402q128 0 189 -61q51 -50 51 -128q0 -53 -23.5 -90t-67.5 -57q59 -21 93.5 -65.5t34.5 -102.5q0 -97 -62 -148zM290 540v-101h160q38 0 56.5 10.5t18.5 39.5q0 25 -18 38t-47 13h-170zM532 267.5q-22 14.5 -59 14.5h-183v-115h185
q40 0 59.5 12.5t19.5 44.5q0 29 -22 43.5z" />
    <glyph glyph-name="C" unicode="C" horiz-adv-x="792" 
d="M252.5 27.5q-87.5 43.5 -140 127.5t-52.5 198q0 118 54 201.5t141.5 125.5t187.5 42q94 0 177 -34t137 -90l-102 -119q-44 34 -96 53t-104 19q-84 0 -135.5 -52.5t-51.5 -145.5t51.5 -146t136.5 -53q51 0 103 19.5t96 52.5l102 -118q-54 -56 -136.5 -90t-177.5 -34
q-103 0 -190.5 43.5z" />
    <glyph glyph-name="D" unicode="D" horiz-adv-x="856" 
d="M615.5 662.5q86.5 -43.5 131 -123.5t44.5 -187t-44.5 -186.5t-131 -122.5t-208.5 -43h-321v706h321q122 0 208.5 -43.5zM539.5 213.5q43.5 46.5 43.5 138.5q0 94 -43.5 141t-134.5 47h-115v-373h115q91 0 134.5 46.5z" />
    <glyph glyph-name="E" unicode="E" horiz-adv-x="780" 
d="M701 167v-167h-615v706h609v-166h-405v-97h374v-170h-374v-106h411z" />
    <glyph glyph-name="F" unicode="F" horiz-adv-x="738" 
d="M290 540v-124h348v-170h-348v-246h-204v706h590v-166h-386z" />
    <glyph glyph-name="G" unicode="G" horiz-adv-x="828" 
d="M245 27q-87 44 -136 127.5t-49 197.5t48.5 197.5t136 128t202.5 44.5q86 0 157 -29t138 -84l-100 -123q-48 32 -89.5 48.5t-88.5 16.5q-56 0 -100.5 -23t-70 -68t-25.5 -108q0 -93 51.5 -145t135.5 -52q41 0 75 11.5t51 27.5v81h-157v162h346v-315q-58 -66 -148 -102.5
t-179 -36.5q-111 0 -198 44z" />
    <glyph glyph-name="H" unicode="H" horiz-adv-x="895" 
d="M809 706v-706h-204v279h-315v-279h-204v706h204v-257h315v257h204z" />
    <glyph glyph-name="I" unicode="I" horiz-adv-x="376" 
d="M86 706h204v-706h-204v706z" />
    <glyph glyph-name="J" unicode="J" horiz-adv-x="568" 
d="M124.5 6.5q-65.5 22.5 -101.5 51.5l71 138q74 -35 129 -35q48 0 67 26t19 77v442h204v-489q0 -113 -70.5 -173t-190.5 -60q-62 0 -127.5 22.5z" />
    <glyph glyph-name="K" unicode="K" horiz-adv-x="746" 
d="M335 274l-61 -64v-210h-188v706h188v-252l229 252h246l-282 -295l287 -411h-235z" />
    <glyph glyph-name="L" unicode="L" horiz-adv-x="698" 
d="M662 167v-167h-576v706h204v-539h372z" />
    <glyph glyph-name="M" unicode="M" horiz-adv-x="1091" 
d="M1005 706v-706h-202v378l-145 -378h-225l-145 378v-378h-202v706h273l187 -477l187 477h272z" />
    <glyph glyph-name="N" unicode="N" horiz-adv-x="882" 
d="M796 706v-706h-209l-297 398v-398h-204v706h211l295 -396v396h204z" />
    <glyph glyph-name="O" unicode="O" horiz-adv-x="895" 
d="M242 29.5q-86 45.5 -131.5 128.5t-45.5 194t45.5 194.5t131.5 129.5t206 46t206 -46t131 -129.5t45 -194.5t-45 -194t-131 -128.5t-206 -45.5t-206 45.5zM577.5 205q44.5 50 44.5 147q0 99 -44.5 149.5t-129.5 50.5t-130 -51t-45 -149q0 -97 45 -147t130 -50t129.5 50z
" />
    <glyph glyph-name="P" unicode="P" horiz-adv-x="793" 
d="M656.5 643q78.5 -63 78.5 -182t-79 -182.5t-226 -63.5h-140v-215h-204v706h345q147 0 225.5 -63zM505.5 399.5q21.5 17.5 21.5 61.5t-22.5 61.5t-70.5 17.5h-144v-158h146q48 0 69.5 17.5z" />
    <glyph glyph-name="Q" unicode="Q" horiz-adv-x="895" 
d="M420 -33q-18 6 -27 8q-76 24 -122.5 43.5t-89 53t-70.5 86.5q-46 82 -46 194q0 111 45.5 194.5t131.5 129.5t206 46t206 -46t131 -129.5t45 -194.5q0 -102 -46 -178.5t-136 -114.5v-9q30 -11 79 -33t69 -35l-85 -134q-130 63 -291 119zM577.5 205q44.5 50 44.5 147
q0 99 -44.5 149.5t-129.5 50.5t-130 -51t-45 -149q0 -97 45 -147t130 -50t129.5 50z" />
    <glyph glyph-name="R" unicode="R" horiz-adv-x="812" 
d="M404 225h-114v-225h-204v706h340q88 0 149.5 -14t100.5 -54q30 -31 45.5 -76t15.5 -92q0 -73 -33 -126t-96 -82l155 -262h-240zM290 392h155q40 0 63 18.5t23 56.5q0 30 -21 51.5t-67 21.5h-153v-148z" />
    <glyph glyph-name="S" unicode="S" horiz-adv-x="736" 
d="M185 6q-84 22 -143 58l68 148q46 -23 115.5 -40.5t132.5 -17.5q121 0 121 39q0 22 -31.5 34.5t-90.5 24.5q-16 2 -38 8q-85 19 -141 44.5t-88.5 72t-32.5 121.5q0 113 91 168.5t237 55.5q76 0 155 -18t140 -50l-65 -149q-55 22 -119.5 34t-115.5 12q-56 0 -86.5 -11.5
t-30.5 -32.5q0 -22 29 -33t84 -21l29 -6q134 -28 207.5 -79.5t73.5 -153.5q0 -116 -93 -173t-243 -57q-81 0 -165 22z" />
    <glyph glyph-name="T" unicode="T" horiz-adv-x="678" 
d="M692 539h-233v-539h-204v539h-233v167h670v-167z" />
    <glyph glyph-name="U" unicode="U" horiz-adv-x="863" 
d="M173 65q-98 81 -98 252v389h204v-404q0 -58 35 -103t118 -45q84 0 119 45t35 103v404h204v-389q0 -171 -98.5 -252t-259.5 -81t-259 81z" />
    <glyph glyph-name="V" unicode="V" horiz-adv-x="796" 
d="M786 706l-261 -706h-254l-261 706h230l163 -489l163 489h220z" />
    <glyph glyph-name="W" unicode="W" horiz-adv-x="1044" 
d="M1030 706l-170 -706h-232l-106 391l-107 -391h-232l-170 706h197l103 -462l112 408h193l112 -408l103 462h197z" />
    <glyph glyph-name="X" unicode="X" horiz-adv-x="729" 
d="M486 0l-129 229l-111 -229h-239l214 376l-205 330h243l121 -204l102 204h229l-200 -344l217 -362h-242z" />
    <glyph glyph-name="Y" unicode="Y" horiz-adv-x="680" 
d="M682 706l-240 -478v-228h-204v228l-240 478h214l129 -285l136 285h205z" />
    <glyph glyph-name="Z" unicode="Z" horiz-adv-x="711" 
d="M675 167v-167h-639v140l343 399h-338v167h617v-142l-343 -397h360z" />
    <glyph glyph-name="bracketleft" unicode="[" horiz-adv-x="510" 
d="M101 759h329v-157h-137v-685h137v-156h-329v998z" />
    <glyph glyph-name="backslash" unicode="\" horiz-adv-x="569" 
d="M-49 750h171l369 -802h-179z" />
    <glyph glyph-name="bracketright" unicode="]" horiz-adv-x="480" 
d="M101 -83h137v685h-137v157h329v-998h-329v156z" />
    <glyph glyph-name="asciicircum" unicode="^" horiz-adv-x="735" 
d="M282 706h171l188 -337h-187l-86 177l-87 -177h-187z" />
    <glyph glyph-name="underscore" unicode="_" horiz-adv-x="564" 
d="M7 -33h550v-154h-550v154z" />
    <glyph glyph-name="grave" unicode="`" horiz-adv-x="520" 
d="M108 762h212l56 -158h-152z" />
    <glyph glyph-name="a" unicode="a" horiz-adv-x="636" 
d="M570 371.5q7 -36.5 7 -107.5v-264h-166l-7 40q-27 -24 -72 -40t-86 -16q-95 0 -150.5 47.5t-55.5 135.5q0 93 76.5 132t187.5 39q48 0 88 -6q-1 36 -26.5 50t-73.5 14t-98.5 -12t-82.5 -26l-49 124q50 26 116 41t132 15q178 0 236 -101q17 -29 24 -65.5zM342.5 137.5
q28.5 6.5 49.5 17.5v63q-42 5 -79 5q-39 0 -64 -12.5t-25 -36.5q0 -23 18 -33t47 -10q25 0 53.5 6.5z" />
    <glyph glyph-name="b" unicode="b" horiz-adv-x="685" 
d="M532 500q56 -38 83 -101t27 -138t-27 -138t-83 -101t-137 -38q-51 0 -95 19t-75 57l-10 -60h-157v706h191v-219q60 51 146 51q81 0 137 -38zM430 176q25 33 25 85t-25.5 85t-78.5 33t-78.5 -33t-25.5 -85t25.5 -85t78.5 -33q54 0 79 33z" />
    <glyph glyph-name="c" unicode="c" horiz-adv-x="602" 
d="M191 17.5q-69 33.5 -108.5 96t-39.5 147.5q0 84 38.5 147t107.5 96.5t158 33.5q127 0 224 -62l-66 -127q-29 17 -64.5 27t-69.5 10q-63 0 -101.5 -33t-38.5 -92t38.5 -92t101.5 -33q34 0 69.5 10.5t64.5 27.5l66 -127q-99 -63 -224 -63q-87 0 -156 33.5z" />
    <glyph glyph-name="d" unicode="d" horiz-adv-x="685" 
d="M627 706v-706h-157l-10 60q-31 -38 -75 -57t-95 -19q-81 0 -137 38t-83 101t-27 137q0 75 27 138t83 101.5t137 38.5q86 0 146 -51v219h191zM411.5 175q26.5 33 26.5 85q0 51 -25 84.5t-77 33.5q-54 0 -80 -33t-26 -85t25 -85t77 -33q53 0 79.5 33z" />
    <glyph glyph-name="e" unicode="e" horiz-adv-x="653" 
d="M591 202h-351q14 -41 49.5 -60t86.5 -19q63 0 155 30l45 -121q-48 -23 -106 -35.5t-113 -12.5q-93 0 -164 33t-110.5 95.5t-39.5 148.5q0 83 39 146t106 97t150 34q76 0 136.5 -30t94.5 -86t34 -131q0 -44 -12 -89zM398 375q-25 23 -61 23q-33 0 -60 -20t-38 -62h183
q1 36 -24 59z" />
    <glyph glyph-name="f" unicode="f" horiz-adv-x="453" 
d="M295 572q-9 -9 -12.5 -21.5t-3.5 -31.5h138v-140h-138v-379h-185v379h-58v140h58q2 42 7 70q14 73 73 103t138 30q44 0 85.5 -6.5t60.5 -13.5l-31 -123q-40 10 -74 10q-41 0 -58 -17z" />
    <glyph glyph-name="g" unicode="g" horiz-adv-x="687" 
d="M627 519v-482q0 -86 -39.5 -148.5t-110.5 -95.5t-164 -33q-57 0 -123 15t-112 40l44 140q33 -16 85 -27.5t97 -11.5q81 0 109 28.5t28 81.5v19q-63 -61 -150 -61q-81 0 -137 38.5t-83.5 101.5t-27.5 137t27.5 137t83.5 101.5t137 38.5q51 0 96.5 -23t77.5 -65l12 69h150z
M412.5 176.5q25.5 32.5 25.5 84.5t-25.5 85t-78.5 33t-78.5 -33t-25.5 -85t25.5 -84.5t78.5 -32.5t78.5 32.5z" />
    <glyph glyph-name="h" unicode="h" 
d="M619 0h-194v276q0 50 -18 78.5t-61 28.5q-48 0 -94 -48v-335h-193v706h183v-237q85 69 179 69q95 0 146.5 -58t51.5 -165v-315z" />
    <glyph glyph-name="i" unicode="i" horiz-adv-x="321" 
d="M65 706h191v-140h-191v140zM65 519h191v-519h-191v519z" />
    <glyph glyph-name="j" unicode="j" horiz-adv-x="362" 
d="M91 706h191v-137h-191v137zM-35 -89q40 5 62 12t36 21q17 17 22 34t5 43v498h193v-486q0 -125 -76 -201q-36 -37 -89.5 -55t-138.5 -19z" />
    <glyph glyph-name="k" unicode="k" horiz-adv-x="613" 
d="M285 169l-37 -37v-132h-188v706h188v-351l134 164h224l-189 -218l201 -301h-223z" />
    <glyph glyph-name="l" unicode="l" horiz-adv-x="314" 
d="M62 706h190v-706h-190v706z" />
    <glyph glyph-name="m" unicode="m" horiz-adv-x="1045" 
d="M985 0h-193v276q0 53 -19 80t-60 27q-50 0 -96 -37q1 -10 1 -31v-315h-193v276q0 53 -19.5 80t-60.5 27q-46 0 -94 -37v-346h-193v519h166l10 -56q88 75 186 75q42 0 79 -13.5t62 -38.5q9 -8 16 -19q90 71 196 71q103 0 157.5 -57t54.5 -166v-315z" />
    <glyph glyph-name="n" unicode="n" 
d="M619 0h-194v276q0 50 -18 78.5t-61 28.5q-46 0 -95 -49v-334h-193v519h167l9 -56q90 75 187 75q94 0 146 -58.5t52 -164.5v-315z" />
    <glyph glyph-name="o" unicode="o" horiz-adv-x="692" 
d="M185.5 18q-67.5 34 -102.5 96.5t-35 146.5t35 146.5t102.5 96.5t160.5 34t160.5 -34t102.5 -96.5t35 -146.5t-35 -146.5t-102.5 -96.5t-160.5 -34t-160.5 34zM427.5 166q29.5 30 29.5 95t-29.5 95.5t-81.5 30.5q-51 0 -81 -31t-30 -95t30 -94.5t81 -30.5q52 0 81.5 30z
" />
    <glyph glyph-name="p" unicode="p" horiz-adv-x="685" 
d="M532 499.5q56 -38.5 83 -101.5t27 -138q0 -74 -27 -137t-83 -101t-137 -38q-86 0 -146 51v-209h-191v693h157l10 -57q31 38 75 57t95 19q81 0 137 -38.5zM429.5 175q25.5 33 25.5 85t-25 85t-79 33q-53 0 -78.5 -33t-25.5 -85t25.5 -85t78.5 -33t78.5 33z" />
    <glyph glyph-name="q" unicode="q" horiz-adv-x="685" 
d="M627 519v-693h-191v209q-60 -51 -146 -51q-81 0 -137 38t-83 101t-27 137q0 75 27 138t83 101.5t137 38.5q51 0 95 -19t75 -57l10 57h157zM412.5 175q25.5 33 25.5 85t-25.5 85t-78.5 33q-54 0 -79 -33t-25 -85t25.5 -85t78.5 -33t78.5 33z" />
    <glyph glyph-name="r" unicode="r" horiz-adv-x="475" 
d="M453 523l-20 -151q-31 9 -60 9q-44 0 -76 -21t-47 -54v-306h-192v519h155l15 -61q55 76 150 76q31 0 75 -11z" />
    <glyph glyph-name="s" unicode="s" horiz-adv-x="587" 
d="M146 1q-67 17 -116 47l61 122q44 -22 96.5 -35.5t92.5 -13.5q66 0 66 29q0 12 -16 18.5t-66 20.5l-34 9q-61 16 -100.5 35.5t-62 52.5t-22.5 84q0 85 73.5 126.5t189.5 41.5q61 0 123.5 -13.5t112.5 -37.5l-53 -123q-31 15 -80 25t-86 10q-70 0 -70 -25q0 -13 20 -21
t87 -24q84 -21 135.5 -58t51.5 -114q0 -87 -75 -130t-193 -43q-68 0 -135 17z" />
    <glyph glyph-name="t" unicode="t" horiz-adv-x="444" 
d="M451 21q-29 -15 -80 -26t-90 -11q-77 0 -121.5 23t-63.5 69.5t-19 121.5v181h-68v140h73l5 150h175v-150h154v-140h-154v-176q0 -40 15.5 -56.5t55.5 -16.5t85 14z" />
    <glyph glyph-name="u" unicode="u" 
d="M621 519v-519h-165l-9 49q-40 -31 -83.5 -48t-97.5 -17q-99 0 -152.5 57t-53.5 166v312h194v-281q0 -43 19.5 -71t62.5 -28q49 0 92 33v347h193z" />
    <glyph glyph-name="v" unicode="v" horiz-adv-x="637" 
d="M618 519l-186 -519h-224l-186 519h211l89 -321l89 321h207z" />
    <glyph glyph-name="w" unicode="w" horiz-adv-x="937" 
d="M930 519l-170 -519h-219l-71 271l-71 -271h-222l-170 519h190l96 -319l89 319h181l88 -317l96 317h183z" />
    <glyph glyph-name="x" unicode="x" horiz-adv-x="588" 
d="M378 0l-88 138l-84 -138h-207l169 268l-162 251h216l75 -130l78 130h205l-166 -251l176 -268h-212z" />
    <glyph glyph-name="y" unicode="y" horiz-adv-x="677" 
d="M617 519v-484q0 -54 -19 -103t-55 -86q-43 -45 -107.5 -65.5t-136.5 -20.5q-60 0 -120 13t-104 34l40 144q33 -16 80 -25t92 -9q73 0 106 25.5t37 90.5q-74 -49 -166 -49q-41 0 -82 15.5t-66 40.5q-58 56 -58 171v308h194v-281q0 -43 19.5 -71t62.5 -28q51 0 90 31v349
h193z" />
    <glyph glyph-name="z" unicode="z" horiz-adv-x="622" 
d="M573 157v-157h-520v123l228 239h-216v157h494v-126l-232 -236h246z" />
    <glyph glyph-name="braceleft" unicode="{" horiz-adv-x="482" 
d="M250.5 -211q-49.5 31 -76 85.5t-26.5 122.5v86q0 53 -11 79t-31 35t-56 13v101q36 4 56 13t31 35t11 79v86q0 68 26.5 122.5t76 85.5t115.5 31h70v-140h-21q-35 0 -55 -25t-20 -66v-116q0 -61 -22 -96.5t-78 -55.5v-7q56 -20 78 -55.5t22 -96.5v-116q0 -41 20 -66t55 -25
h21v-140h-70q-66 0 -115.5 31z" />
    <glyph glyph-name="bar" unicode="|" horiz-adv-x="432" 
d="M131 869h170v-1037h-170v1037z" />
    <glyph glyph-name="braceright" unicode="}" horiz-adv-x="472" 
d="M36 -102h21q35 0 55 25t20 66v116q0 61 22 96.5t78 55.5v7q-56 20 -78 55.5t-22 96.5v116q0 41 -20 66t-55 25h-21v140h70q66 0 115.5 -31t76 -85.5t26.5 -122.5v-86q0 -53 11 -79t31 -35t56 -13v-101q-36 -4 -56 -13t-31 -35t-11 -79v-86q0 -68 -26.5 -122.5t-76 -85.5
t-115.5 -31h-70v140z" />
    <glyph glyph-name="asciitilde" unicode="~" horiz-adv-x="690" 
d="M367.5 250.5q-24.5 9.5 -56.5 28.5q-21 13 -35 19.5t-30 6.5q-25 0 -40.5 -12.5t-25 -25.5t-12.5 -17l-105 64q30 60 79 101.5t118 41.5q35 0 60.5 -10.5t55.5 -28.5q23 -14 36 -20t28 -6q27 0 42 12t23.5 25.5t12.5 18.5l105 -64q-73 -143 -196 -143q-35 0 -59.5 9.5z
" />
    <glyph glyph-name="exclamdown" unicode="&#xa1;" horiz-adv-x="412" 
d="M308 526v-171h-202v171h202zM279 311l31 -358v-133h-206v133l31 358h144z" />
    <glyph glyph-name="cent" unicode="&#xa2;" horiz-adv-x="580" 
d="M558 47q-68 -43 -146 -56v-94h-146v92q-107 18 -171.5 90.5t-64.5 181.5t64.5 181.5t171.5 90.5v93h146v-94q82 -15 146 -56l-66 -127q-29 17 -68 27t-73 10q-63 0 -101.5 -33.5t-38.5 -91.5q0 -59 38 -92t102 -33q34 0 73.5 10.5t67.5 27.5z" />
    <glyph glyph-name="sterling" unicode="&#xa3;" horiz-adv-x="671" 
d="M611 167v-167h-546v170q66 21 66 107v13h-56v131h56v52q0 74 31.5 126.5t87 80t128.5 27.5q60 0 103 -19t64 -39t60 -63l-121 -97q-26 40 -74 40q-36 0 -55.5 -21.5t-19.5 -57.5v-29h162v-131h-162q0 -42 -6 -71t-20 -52h302z" />
    <glyph glyph-name="currency" unicode="&#xa4;" horiz-adv-x="758" 
d="M588 274l69 -66l-107 -107l-65 68q-50 -24 -106 -24t-106 24l-65 -68l-107 107l69 66q-22 49 -22 104q0 57 23 105l-70 67l107 107l65 -69q50 25 106 25t106 -25l65 69l107 -107l-69 -66q23 -49 23 -106q0 -56 -23 -104zM316 307q24 -24 63 -24t64 24t25 72t-25 72
t-64 24q-38 0 -62.5 -24t-24.5 -72t24 -72z" />
    <glyph glyph-name="yen" unicode="&#xa5;" horiz-adv-x="689" 
d="M501 374h118v-102h-172v-50h172v-102h-172v-120h-204v120h-168v102h168v50h-168v102h114l-167 310h214l110 -244l116 244h205z" />
    <glyph glyph-name="brokenbar" unicode="&#xa6;" horiz-adv-x="432" 
d="M131 868h170v-386h-170v386zM131 217h170v-386h-170v386z" />
    <glyph glyph-name="section" unicode="&#xa7;" horiz-adv-x="666" 
d="M521 141q37 -40 37 -94q0 -87 -63 -130t-168 -43q-63 0 -127 17.5t-110 46.5l55 122q40 -21 92 -35t91 -14q75 0 75 29q0 14 -21.5 25t-86.5 35q-111 42 -163.5 84.5t-52.5 108.5q0 74 66 110q-38 40 -38 94q0 87 63.5 130t167.5 43q64 0 128 -17.5t110 -46.5l-55 -122
q-40 21 -92 35t-91 14q-76 0 -76 -29q0 -12 16 -21t60 -26l33 -13q76 -31 121 -56.5t70 -58.5t25 -77q0 -75 -66 -111zM234 291.5q12 -10.5 38 -22.5t89 -39q46 -19 67 -28q16 11 16 27q0 15 -19 27.5t-79 39.5q-14 5 -41 18l-25 11q-22 8 -41 18q-17 -14 -17 -28
q0 -13 12 -23.5z" />
    <glyph glyph-name="dieresis" unicode="&#xa8;" horiz-adv-x="533" 
d="M79 741h154v-149h-154v149zM300 741h154v-149h-154v149z" />
    <glyph glyph-name="copyright" unicode="&#xa9;" horiz-adv-x="908" 
d="M256 15q-89 51 -140 140t-51 198t51 198t140 140t198 51t198 -51t140 -140t51 -198t-51 -198t-140.5 -140t-197.5 -51q-109 0 -198 51zM591.5 118.5q61.5 35.5 97 97t35.5 137.5t-35.5 138t-97 97.5t-137.5 35.5t-137.5 -35.5t-97 -97.5t-35.5 -138t35.5 -137.5t97 -97
t137.5 -35.5t137.5 35.5zM350 181q-47 25 -72 69.5t-25 102.5t25 102.5t72 69.5t110 25q87 0 152 -44l-45 -91q-20 12 -44 19.5t-47 7.5q-43 0 -69 -23.5t-26 -65.5t26 -65.5t69 -23.5q23 0 47.5 7.5t43.5 19.5l45 -91q-67 -44 -152 -44q-63 0 -110 25z" />
    <glyph glyph-name="ordfeminine" unicode="&#xaa;" horiz-adv-x="378" 
d="M350.5 604q4.5 -23 4.5 -67v-163h-107l-4 25q-17 -15 -45 -25t-53 -10q-59 0 -94.5 29.5t-35.5 83.5q0 59 47.5 82.5t118.5 23.5q28 0 52 -3q0 20 -15.5 28t-46.5 8q-56 0 -112 -20l-31 76q34 17 75 26t82 9q113 0 150 -63q10 -17 14.5 -40zM205.5 463q17.5 4 28.5 11v33
q-22 3 -46 3q-23 0 -36.5 -7t-13.5 -20q0 -24 35 -24q15 0 32.5 4z" />
    <glyph glyph-name="guillemotleft" unicode="&#xab;" horiz-adv-x="655" 
d="M79 261l108 185h155l-89 -185l89 -184h-155zM303 261l108 185h155l-89 -185l89 -184h-155z" />
    <glyph glyph-name="logicalnot" unicode="&#xac;" horiz-adv-x="667" 
d="M566 400v-294h-156v127h-309v167h465z" />
    <glyph glyph-name="uni00AD" unicode="&#xad;" horiz-adv-x="565" 
d="M79 404h407v-167h-407v167z" />
    <glyph glyph-name="registered" unicode="&#xae;" horiz-adv-x="623" 
d="M446.5 734q60.5 -35 95.5 -95.5t35 -135.5q0 -74 -35 -135t-95.5 -96t-134.5 -35t-135 35t-96 96t-35 135q0 75 35 135.5t96 95.5t135 35t134.5 -35zM409 337q44 25 69 68.5t25 97.5t-25 97.5t-69 68.5t-97 25q-54 0 -98 -25t-69 -68.5t-25 -97.5t25 -97.5t69 -68.5
t98 -25q53 0 97 25zM424 388h-78l-38 73h-33v-73h-66v230h109q49 0 75 -17t26 -60q0 -28 -11.5 -43t-33.5 -27zM275 516h50q28 0 28 24q0 10 -6.5 17t-21.5 7h-50v-48z" />
    <glyph glyph-name="macron" unicode="&#xaf;" horiz-adv-x="472" 
d="M53 741h366v-127h-366v127z" />
    <glyph glyph-name="degree" unicode="&#xb0;" horiz-adv-x="378" 
d="M114.5 453.5q-33.5 18.5 -52.5 51t-19 71.5q0 40 19 72.5t52.5 51t74.5 18.5q42 0 75 -18.5t52 -51t19 -72.5q0 -39 -19 -71.5t-52 -51t-75 -18.5q-41 0 -74.5 18.5zM220.5 544.5q13.5 12.5 13.5 31.5q0 20 -13.5 33t-32.5 13t-32 -13t-13 -33q0 -19 13.5 -31.5
t31.5 -12.5q19 0 32.5 12.5z" />
    <glyph glyph-name="plusminus" unicode="&#xb1;" horiz-adv-x="644" 
d="M240 313h-166v155h166v165h154v-165h166v-155h-166v-165h-154v165zM573 113v-155h-504v155h504z" />
    <glyph glyph-name="uni00B2" unicode="&#xb2;" horiz-adv-x="353" 
d="M170 590h152v-97h-280v52q0 30 8.5 55t37.5 54q28 28 79 62q22 15 30 22t8 16q0 11 -12 18.5t-35 7.5q-45 0 -98 -31l-34 81q32 22 71 33.5t72 11.5q50 0 84.5 -15.5t51.5 -41t17 -53.5q0 -46 -33 -79q-16 -16 -57 -44q-7 -4 -21 -14q-36 -26 -41 -38z" />
    <glyph glyph-name="uni00B3" unicode="&#xb3;" horiz-adv-x="316" 
d="M274.5 517q-41.5 -29 -103.5 -29q-79 0 -145 45l38 78q54 -29 92 -29q17 0 30 7t13 20q0 14 -12.5 23t-40.5 9h-41v92h39q22 0 36 4.5t14 19.5q0 12 -13 17.5t-30 5.5q-31 0 -76 -15l-34 77q69 33 124 33q60 0 99.5 -28t39.5 -77q0 -24 -13 -45.5t-36 -33.5
q29 -13 45 -37.5t16 -55.5q0 -52 -41.5 -81z" />
    <glyph glyph-name="acute" unicode="&#xb4;" horiz-adv-x="508" 
d="M210 762h212l-116 -158h-152z" />
    <glyph glyph-name="paragraph" unicode="&#xb6;" horiz-adv-x="811" 
d="M761 578h-72v-650h-140v650h-81v-650h-140v302h-11q-84 0 -140.5 33.5t-84 88t-27.5 117.5q0 62 27 116t84 87.5t141 33.5h444v-128z" />
    <glyph glyph-name="periodcentered" unicode="&#xb7;" horiz-adv-x="344" 
d="M78 353h188v-178h-188v178z" />
    <glyph glyph-name="cedilla" unicode="&#xb8;" horiz-adv-x="348" 
d="M100 -241q-32 7 -56 23l23 76q9 -5 26 -9t32 -4q20 0 31.5 4.5t11.5 18.5q0 25 -53 25h-35l-3 45l23 74h127l-17 -54q37 -2 66.5 -28t29.5 -64q0 -48 -39 -81t-105 -33q-30 0 -62 7z" />
    <glyph glyph-name="uni00B9" unicode="&#xb9;" horiz-adv-x="263" 
d="M234 866v-373h-112v255l-63 -27l-37 90l124 55h88z" />
    <glyph glyph-name="ordmasculine" unicode="&#xba;" horiz-adv-x="399" 
d="M65 410.5q-49 46.5 -49 125.5t49 125t136 46t135.5 -46t48.5 -125q0 -80 -48.5 -126t-135.5 -46t-136 46.5zM261 536q0 38 -16 56t-44 18t-44.5 -18t-16.5 -56t16.5 -56t44.5 -18q60 0 60 74z" />
    <glyph glyph-name="guillemotright" unicode="&#xbb;" horiz-adv-x="655" 
d="M178 261l-89 185h155l108 -185l-108 -184h-155zM402 261l-89 185h155l108 -185l-108 -184h-155z" />
    <glyph glyph-name="onequarter" unicode="&#xbc;" horiz-adv-x="864" 
d="M750 735l-441 -744h-140l441 744h140zM136 430v158l-63 -27l-37 90l124 55h88v-276h75v-97h-264v97h77zM840 55h-41v-64h-112v64h-182v102l166 209h128v-218h41v-93zM687 148v102l-81 -102h81z" />
    <glyph glyph-name="onehalf" unicode="&#xbd;" horiz-adv-x="877" 
d="M745 735l-441 -744h-140l441 744h140zM136 430v158l-63 -27l-37 90l124 55h88v-276h75v-97h-264v97h77zM689 88h152v-97h-280v52q0 30 8.5 55t37.5 54q28 28 79 62q22 15 30 22t8 16q0 11 -12 18.5t-35 7.5q-45 0 -98 -31l-34 81q32 22 71 33.5t72 11.5q50 0 84.5 -15.5
t51.5 -41t17 -53.5q0 -46 -33 -79q-16 -16 -57 -44q-7 -4 -21 -14q-36 -26 -41 -38z" />
    <glyph glyph-name="threequarters" unicode="&#xbe;" horiz-adv-x="836" 
d="M720 735l-441 -744h-140l441 744h140zM184 429q13 7 13 20q0 14 -12.5 23t-40.5 9h-41v92h39q22 0 36 4.5t14 19.5q0 12 -13 17.5t-30 5.5q-31 0 -76 -15l-34 77q69 33 124 33q60 0 99.5 -28t39.5 -77q0 -24 -13 -46q-14 -22 -36 -33q27 -12 42 -33q19 -26 19 -60
q0 -52 -41.5 -81t-103.5 -29q-79 0 -145 45l38 78q54 -29 92 -29q17 0 30 7zM812 55h-41v-64h-112v64h-182v102l166 209h128v-218h41v-93zM659 148v102l-81 -102h81z" />
    <glyph glyph-name="questiondown" unicode="&#xbf;" horiz-adv-x="636" 
d="M440 366h-202v160h202v-160zM422 236.5q-12 -32.5 -53 -67.5l-29 -19q-45 -28 -68 -51.5t-23 -56.5t30 -55.5t76 -22.5t81.5 22t66.5 52l102 -110q-59 -65 -131.5 -94.5t-147.5 -29.5q-73 0 -136 28.5t-100.5 80.5t-37.5 120q0 54 28.5 103t83.5 82q47 32 64 51t17 51
h189q0 -51 -12 -83.5z" />
    <glyph glyph-name="Agrave" unicode="&#xc0;" horiz-adv-x="820" 
d="M335 753l-94 149h209l42 -149h-157zM537 125h-262l-43 -125h-219l280 706h235l279 -706h-227zM483 282l-77 225l-77 -225h154z" />
    <glyph glyph-name="Aacute" unicode="&#xc1;" horiz-adv-x="820" 
d="M472 753h-157l53 148h209zM537 125h-262l-43 -125h-219l280 706h235l279 -706h-227zM483 282l-77 225l-77 -225h154z" />
    <glyph glyph-name="Acircumflex" unicode="&#xc2;" horiz-adv-x="820" 
d="M359 753h-169l124 161h184l124 -161h-169l-47 70zM537 125h-262l-43 -125h-219l280 706h235l279 -706h-227zM483 282l-77 225l-77 -225h154z" />
    <glyph glyph-name="Atilde" unicode="&#xc3;" horiz-adv-x="820" 
d="M341 769h-155q2 75 37 118.5t108 43.5q23 0 39 -5.5t35 -15.5q11 -5 22.5 -9.5t22.5 -4.5q27 0 34 31h155q-2 -75 -37 -118.5t-109 -43.5q-22 0 -38.5 5.5t-35.5 15.5q-15 8 -24.5 11.5t-20.5 3.5q-26 0 -33 -32zM537 125h-262l-43 -125h-219l280 706h235l279 -706h-227z
M483 282l-77 225l-77 -225h154z" />
    <glyph glyph-name="Adieresis" unicode="&#xc4;" horiz-adv-x="820" 
d="M379 767h-166v161h166v-161zM600 767h-166v161h166v-161zM537 125h-262l-43 -125h-219l280 706h235l279 -706h-227zM483 282l-77 225l-77 -225h154z" />
    <glyph glyph-name="Aring" unicode="&#xc5;" horiz-adv-x="820" 
d="M317 752.5q-40 27.5 -40 84.5t40 85t93 28t93 -28t40 -85t-40 -84.5t-93 -27.5t-93 27.5zM378 837q0 -41 32 -41t32 41q0 22 -7.5 32t-24.5 10q-32 0 -32 -42zM537 125h-262l-43 -125h-219l280 706h235l279 -706h-227zM483 282l-77 225l-77 -225h154z" />
    <glyph glyph-name="AE" unicode="&#xc6;" horiz-adv-x="1195" 
d="M1130 167v-167h-576v147h-228l-85 -147h-228l434 706h677v-166h-366v-97h335v-170h-335v-106h372zM554 304v236l-136 -236h136z" />
    <glyph glyph-name="Ccedilla" unicode="&#xc7;" horiz-adv-x="792" 
d="M559 173.5q52 19.5 96 52.5l102 -118q-47 -49 -118 -82t-153 -40l-9 -28q42 -7 69 -31.5t27 -67.5q0 -26 -17.5 -51t-50 -40.5t-76.5 -15.5q-30 0 -62 7t-56 23l23 76q9 -5 26 -9t32 -4q20 0 31.5 4.5t11.5 18.5q0 25 -53 25h-35l-3 45l17 53q-85 16 -153.5 63.5
t-108 123.5t-39.5 175q0 118 54 201.5t141.5 125.5t187.5 42q94 0 177 -34t137 -90l-102 -119q-44 34 -96 53t-104 19q-84 0 -135.5 -52.5t-51.5 -145.5t51.5 -146t136.5 -53q51 0 103 19.5z" />
    <glyph glyph-name="Egrave" unicode="&#xc8;" horiz-adv-x="780" 
d="M337 753l-94 149h209l42 -149h-157zM701 167v-167h-615v706h609v-166h-405v-97h374v-170h-374v-106h411z" />
    <glyph glyph-name="Eacute" unicode="&#xc9;" horiz-adv-x="780" 
d="M455 753h-157l53 148h209zM701 167v-167h-615v706h609v-166h-405v-97h374v-170h-374v-106h411z" />
    <glyph glyph-name="Ecircumflex" unicode="&#xca;" horiz-adv-x="780" 
d="M345 753h-169l124 161h184l124 -161h-169l-47 70zM701 167v-167h-615v706h609v-166h-405v-97h374v-170h-374v-106h411z" />
    <glyph glyph-name="Edieresis" unicode="&#xcb;" horiz-adv-x="780" 
d="M367 767h-166v161h166v-161zM588 767h-166v161h166v-161zM701 167v-167h-615v706h609v-166h-405v-97h374v-170h-374v-106h411z" />
    <glyph glyph-name="Igrave" unicode="&#xcc;" horiz-adv-x="376" 
d="M16 902h209l42 -149h-157zM86 706h204v-706h-204v706z" />
    <glyph glyph-name="Iacute" unicode="&#xcd;" horiz-adv-x="376" 
d="M159 901h209l-105 -148h-157zM86 706h204v-706h-204v706z" />
    <glyph glyph-name="Icircumflex" unicode="&#xce;" horiz-adv-x="376" 
d="M96 905h184l124 -161h-169l-47 70l-47 -70h-169zM86 706h204v-706h-204v706z" />
    <glyph glyph-name="Idieresis" unicode="&#xcf;" horiz-adv-x="376" 
d="M-5 928h166v-161h-166v161zM216 928h166v-161h-166v161zM86 706h204v-706h-204v706z" />
    <glyph glyph-name="Eth" unicode="&#xd0;" horiz-adv-x="856" 
d="M615.5 662.5q86.5 -43.5 131 -123.5t44.5 -187t-44.5 -186.5t-131 -122.5t-208.5 -43h-321v286h-94v138h94v282h321q122 0 208.5 -43.5zM539.5 213.5q43.5 46.5 43.5 138.5q0 94 -43.5 141t-134.5 47h-115v-116h124v-138h-124v-119h115q91 0 134.5 46.5z" />
    <glyph glyph-name="Ntilde" unicode="&#xd1;" horiz-adv-x="882" 
d="M370 769h-155q2 75 37 118.5t108 43.5q23 0 39 -5.5t35 -15.5q11 -5 22.5 -9.5t22.5 -4.5q27 0 34 31h155q-2 -75 -37 -118.5t-109 -43.5q-22 0 -38.5 5.5t-35.5 15.5q-15 8 -24.5 11.5t-20.5 3.5q-26 0 -33 -32zM796 706v-706h-209l-297 398v-398h-204v706h211l295 -396
v396h204z" />
    <glyph glyph-name="Ograve" unicode="&#xd2;" horiz-adv-x="895" 
d="M291 907h209l42 -149h-157zM242 29.5q-86 45.5 -131.5 128.5t-45.5 194t45.5 194.5t131.5 129.5t206 46t206 -46t131 -129.5t45 -194.5t-45 -194t-131 -128.5t-206 -45.5t-206 45.5zM577.5 205q44.5 50 44.5 147q0 99 -44.5 149.5t-129.5 50.5t-130 -51t-45 -149
q0 -97 45 -147t130 -50t129.5 50z" />
    <glyph glyph-name="Oacute" unicode="&#xd3;" horiz-adv-x="895" 
d="M404 906h209l-105 -148h-157zM242 29.5q-86 45.5 -131.5 128.5t-45.5 194t45.5 194.5t131.5 129.5t206 46t206 -46t131 -129.5t45 -194.5t-45 -194t-131 -128.5t-206 -45.5t-206 45.5zM577.5 205q44.5 50 44.5 147q0 99 -44.5 149.5t-129.5 50.5t-130 -51t-45 -149
q0 -97 45 -147t130 -50t129.5 50z" />
    <glyph glyph-name="Ocircumflex" unicode="&#xd4;" horiz-adv-x="895" 
d="M356 919h184l124 -161h-169l-47 70l-47 -70h-169zM242 29.5q-86 45.5 -131.5 128.5t-45.5 194t45.5 194.5t131.5 129.5t206 46t206 -46t131 -129.5t45 -194.5t-45 -194t-131 -128.5t-206 -45.5t-206 45.5zM577.5 205q44.5 50 44.5 147q0 99 -44.5 149.5t-129.5 50.5
t-130 -51t-45 -149q0 -97 45 -147t130 -50t129.5 50z" />
    <glyph glyph-name="Otilde" unicode="&#xd5;" horiz-adv-x="895" 
d="M485.5 774.5q-16.5 5.5 -35.5 15.5q-15 8 -24.5 11.5t-20.5 3.5q-26 0 -33 -32h-155q2 75 37 118.5t108 43.5q23 0 39 -5.5t35 -15.5q11 -5 22.5 -9.5t22.5 -4.5q27 0 34 31h155q-2 -75 -37 -118.5t-109 -43.5q-22 0 -38.5 5.5zM242 29.5q-86 45.5 -131.5 128.5
t-45.5 194t45.5 194.5t131.5 129.5t206 46t206 -46t131 -129.5t45 -194.5t-45 -194t-131 -128.5t-206 -45.5t-206 45.5zM577.5 205q44.5 50 44.5 147q0 99 -44.5 149.5t-129.5 50.5t-130 -51t-45 -149q0 -97 45 -147t130 -50t129.5 50z" />
    <glyph glyph-name="Odieresis" unicode="&#xd6;" horiz-adv-x="895" 
d="M254 930h166v-161h-166v161zM475 930h166v-161h-166v161zM242 29.5q-86 45.5 -131.5 128.5t-45.5 194t45.5 194.5t131.5 129.5t206 46t206 -46t131 -129.5t45 -194.5t-45 -194t-131 -128.5t-206 -45.5t-206 45.5zM577.5 205q44.5 50 44.5 147q0 99 -44.5 149.5
t-129.5 50.5t-130 -51t-45 -149q0 -97 45 -147t130 -50t129.5 50z" />
    <glyph glyph-name="multiply" unicode="&#xd7;" horiz-adv-x="727" 
d="M473 315l117 -118l-109 -109l-117 117l-117 -117l-110 109l118 118l-118 117l110 109l117 -117l117 117l109 -109z" />
    <glyph glyph-name="Oslash" unicode="&#xd8;" horiz-adv-x="895" 
d="M803.5 506q26.5 -69 26.5 -154q0 -111 -45 -194t-131 -128.5t-206 -45.5q-87 0 -155 24l-46 -65l-131 82l45 64q-47 48 -71.5 115t-24.5 148q0 111 45.5 194.5t131.5 129.5t206 46q80 0 145 -21l62 89l131 -82l-59 -84q50 -49 76.5 -118zM285 265l200 284q-16 3 -37 3
q-85 0 -130 -51t-45 -149q0 -49 12 -87zM577.5 205q44.5 50 44.5 147q0 60 -16 101l-206 -293q25 -5 48 -5q85 0 129.5 50z" />
    <glyph glyph-name="Ugrave" unicode="&#xd9;" horiz-adv-x="863" 
d="M274 902h209l42 -149h-157zM173 65q-98 81 -98 252v389h204v-404q0 -58 35 -103t118 -45q84 0 119 45t35 103v404h204v-389q0 -171 -98.5 -252t-259.5 -81t-259 81z" />
    <glyph glyph-name="Uacute" unicode="&#xda;" horiz-adv-x="863" 
d="M391 901h209l-105 -148h-157zM173 65q-98 81 -98 252v389h204v-404q0 -58 35 -103t118 -45q84 0 119 45t35 103v404h204v-389q0 -171 -98.5 -252t-259.5 -81t-259 81z" />
    <glyph glyph-name="Ucircumflex" unicode="&#xdb;" horiz-adv-x="863" 
d="M341 914h184l124 -161h-169l-47 70l-47 -70h-169zM173 65q-98 81 -98 252v389h204v-404q0 -58 35 -103t118 -45q84 0 119 45t35 103v404h204v-389q0 -171 -98.5 -252t-259.5 -81t-259 81z" />
    <glyph glyph-name="Udieresis" unicode="&#xdc;" horiz-adv-x="863" 
d="M243 928h166v-161h-166v161zM464 928h166v-161h-166v161zM173 65q-98 81 -98 252v389h204v-404q0 -58 35 -103t118 -45q84 0 119 45t35 103v404h204v-389q0 -171 -98.5 -252t-259.5 -81t-259 81z" />
    <glyph glyph-name="Yacute" unicode="&#xdd;" horiz-adv-x="680" 
d="M413 753h-157l53 148h209zM682 706l-240 -478v-228h-204v228l-240 478h214l129 -285l136 285h205z" />
    <glyph glyph-name="Thorn" unicode="&#xde;" horiz-adv-x="780" 
d="M643.5 550q78.5 -63 78.5 -182t-79 -182.5t-226 -63.5h-127v-122h-204v706h204v-93h128q147 0 225.5 -63zM492.5 306.5q21.5 17.5 21.5 61.5t-22.5 61.5t-70.5 17.5h-131v-158h133q48 0 69.5 17.5z" />
    <glyph glyph-name="germandbls" unicode="&#xdf;" horiz-adv-x="697" 
d="M359.5 -8q-37.5 8 -70.5 32v158q30 -21 54.5 -30.5t53.5 -9.5q30 0 51.5 10.5t21.5 32.5q0 14 -13.5 24.5t-44.5 28.5l-28 16q-37 22 -59.5 48.5t-22.5 65.5q0 23 12 42.5t33 40.5q19 19 28.5 33.5t9.5 32.5t-16 32t-41 14q-47 0 -63 -37t-16 -108v-418h-191v446
q0 135 69 205.5t199 70.5q82 0 135.5 -22.5t78 -58.5t24.5 -79q0 -35 -17 -61t-48 -56q-20 -20 -31 -34.5t-11 -27.5q0 -16 20 -30.5t61 -34.5q37 -19 61 -36.5t40.5 -47.5t16.5 -75t-28.5 -85t-81 -65t-119.5 -25q-30 0 -67.5 8z" />
    <glyph glyph-name="agrave" unicode="&#xe0;" horiz-adv-x="636" 
d="M266 598l-116 158h212l56 -158h-152zM570 371.5q7 -36.5 7 -107.5v-264h-166l-7 40q-27 -24 -72 -40t-86 -16q-95 0 -150.5 47.5t-55.5 135.5q0 93 76.5 132t187.5 39q48 0 88 -6q-1 36 -26.5 50t-73.5 14t-98.5 -12t-82.5 -26l-49 124q50 26 116 41t132 15
q178 0 236 -101q17 -29 24 -65.5zM342.5 137.5q28.5 6.5 49.5 17.5v63q-42 5 -79 5q-39 0 -64 -12.5t-25 -36.5q0 -23 18 -33t47 -10q25 0 53.5 6.5z" />
    <glyph glyph-name="aacute" unicode="&#xe1;" horiz-adv-x="636" 
d="M371 598h-152l56 158h212zM570 371.5q7 -36.5 7 -107.5v-264h-166l-7 40q-27 -24 -72 -40t-86 -16q-95 0 -150.5 47.5t-55.5 135.5q0 93 76.5 132t187.5 39q48 0 88 -6q-1 36 -26.5 50t-73.5 14t-98.5 -12t-82.5 -26l-49 124q50 26 116 41t132 15q178 0 236 -101
q17 -29 24 -65.5zM342.5 137.5q28.5 6.5 49.5 17.5v63q-42 5 -79 5q-39 0 -64 -12.5t-25 -36.5q0 -23 18 -33t47 -10q25 0 53.5 6.5z" />
    <glyph glyph-name="acircumflex" unicode="&#xe2;" horiz-adv-x="636" 
d="M266 598h-167l136 174h168l136 -174h-167l-53 87zM570 371.5q7 -36.5 7 -107.5v-264h-166l-7 40q-27 -24 -72 -40t-86 -16q-95 0 -150.5 47.5t-55.5 135.5q0 93 76.5 132t187.5 39q48 0 88 -6q-1 36 -26.5 50t-73.5 14t-98.5 -12t-82.5 -26l-49 124q50 26 116 41t132 15
q178 0 236 -101q17 -29 24 -65.5zM342.5 137.5q28.5 6.5 49.5 17.5v63q-42 5 -79 5q-39 0 -64 -12.5t-25 -36.5q0 -23 18 -33t47 -10q25 0 53.5 6.5z" />
    <glyph glyph-name="atilde" unicode="&#xe3;" horiz-adv-x="636" 
d="M239 591h-145q2 76 34.5 119t100.5 43q27 0 46 -5.5t41 -15.5q13 -5 26 -9.5t26 -4.5q27 0 34 31h145q-2 -75 -34.5 -118.5t-101.5 -43.5q-26 0 -45 5.5t-41 15.5q-17 8 -28.5 11.5t-24.5 3.5q-26 0 -33 -32zM570 371.5q7 -36.5 7 -107.5v-264h-166l-7 40
q-27 -24 -72 -40t-86 -16q-95 0 -150.5 47.5t-55.5 135.5q0 93 76.5 132t187.5 39q48 0 88 -6q-1 36 -26.5 50t-73.5 14t-98.5 -12t-82.5 -26l-49 124q50 26 116 41t132 15q178 0 236 -101q17 -29 24 -65.5zM342.5 137.5q28.5 6.5 49.5 17.5v63q-42 5 -79 5q-39 0 -64 -12.5
t-25 -36.5q0 -23 18 -33t47 -10q25 0 53.5 6.5z" />
    <glyph glyph-name="adieresis" unicode="&#xe4;" horiz-adv-x="636" 
d="M289 592h-154v149h154v-149zM510 592h-154v149h154v-149zM570 371.5q7 -36.5 7 -107.5v-264h-166l-7 40q-27 -24 -72 -40t-86 -16q-95 0 -150.5 47.5t-55.5 135.5q0 93 76.5 132t187.5 39q48 0 88 -6q-1 36 -26.5 50t-73.5 14t-98.5 -12t-82.5 -26l-49 124q50 26 116 41
t132 15q178 0 236 -101q17 -29 24 -65.5zM342.5 137.5q28.5 6.5 49.5 17.5v63q-42 5 -79 5q-39 0 -64 -12.5t-25 -36.5q0 -23 18 -33t47 -10q25 0 53.5 6.5z" />
    <glyph glyph-name="aring" unicode="&#xe5;" horiz-adv-x="636" 
d="M225 608.5q-39 28.5 -39 87.5t39 88t92 29t92 -29t39 -88t-39 -87.5t-92 -28.5t-92 28.5zM283 696q0 -44 34 -44q18 0 26 10.5t8 33.5t-8 34t-26 11q-34 0 -34 -45zM570 371.5q7 -36.5 7 -107.5v-264h-166l-7 40q-27 -24 -72 -40t-86 -16q-95 0 -150.5 47.5t-55.5 135.5
q0 93 76.5 132t187.5 39q48 0 88 -6q-1 36 -26.5 50t-73.5 14t-98.5 -12t-82.5 -26l-49 124q50 26 116 41t132 15q178 0 236 -101q17 -29 24 -65.5zM342.5 137.5q28.5 6.5 49.5 17.5v63q-42 5 -79 5q-39 0 -64 -12.5t-25 -36.5q0 -23 18 -33t47 -10q25 0 53.5 6.5z" />
    <glyph glyph-name="ae" unicode="&#xe6;" horiz-adv-x="992" 
d="M928 202h-351q14 -41 49.5 -60t86.5 -19q63 0 155 30l45 -121q-48 -23 -106 -35.5t-113 -12.5q-65 0 -125 18t-102 55q-88 -73 -211 -73q-96 0 -156 48t-60 135q0 93 76.5 132t187.5 39q42 0 84 -5l3 11q-4 28 -29.5 40t-69.5 12q-48 0 -98.5 -12t-82.5 -26l-49 124
q50 26 116 41t132 15q123 0 190 -49q37 24 82.5 36.5t92.5 12.5q76 0 136.5 -30t94.5 -86t34 -131q0 -44 -12 -89zM735 375q-25 23 -61 23q-33 0 -60 -20t-38 -62h183q1 36 -24 59zM242 141q18 -10 47 -10q57 0 109 26q-10 30 -15 62q-31 4 -70 4t-64 -12.5t-25 -36.5
q0 -23 18 -33z" />
    <glyph glyph-name="ccedilla" unicode="&#xe7;" horiz-adv-x="602" 
d="M370 -15l-9 -27q37 -3 66.5 -29t29.5 -70q0 -26 -17.5 -51t-50 -40.5t-76.5 -15.5q-30 0 -62 7t-56 23l23 76q9 -5 26 -9t32 -4q20 0 31.5 4.5t11.5 18.5q0 25 -53 25h-35l-3 45l18 58q-93 27 -148 94t-55 171q0 84 38.5 147t107.5 96.5t158 33.5q127 0 224 -62l-66 -127
q-29 17 -64.5 27t-69.5 10q-63 0 -101.5 -33t-38.5 -92t38.5 -92t101.5 -33q34 0 69.5 10.5t64.5 27.5l66 -127q-90 -57 -201 -62z" />
    <glyph glyph-name="egrave" unicode="&#xe8;" horiz-adv-x="653" 
d="M277 598l-116 158h212l56 -158h-152zM591 202h-351q14 -41 49.5 -60t86.5 -19q63 0 155 30l45 -121q-48 -23 -106 -35.5t-113 -12.5q-93 0 -164 33t-110.5 95.5t-39.5 148.5q0 83 39 146t106 97t150 34q76 0 136.5 -30t94.5 -86t34 -131q0 -44 -12 -89zM398 375
q-25 23 -61 23q-33 0 -60 -20t-38 -62h183q1 36 -24 59z" />
    <glyph glyph-name="eacute" unicode="&#xe9;" horiz-adv-x="653" 
d="M393 598h-152l56 158h212zM591 202h-351q14 -41 49.5 -60t86.5 -19q63 0 155 30l45 -121q-48 -23 -106 -35.5t-113 -12.5q-93 0 -164 33t-110.5 95.5t-39.5 148.5q0 83 39 146t106 97t150 34q76 0 136.5 -30t94.5 -86t34 -131q0 -44 -12 -89zM398 375q-25 23 -61 23
q-33 0 -60 -20t-38 -62h183q1 36 -24 59z" />
    <glyph glyph-name="ecircumflex" unicode="&#xea;" horiz-adv-x="653" 
d="M274 598h-167l136 174h168l136 -174h-167l-53 87zM591 202h-351q14 -41 49.5 -60t86.5 -19q63 0 155 30l45 -121q-48 -23 -106 -35.5t-113 -12.5q-93 0 -164 33t-110.5 95.5t-39.5 148.5q0 83 39 146t106 97t150 34q76 0 136.5 -30t94.5 -86t34 -131q0 -44 -12 -89z
M398 375q-25 23 -61 23q-33 0 -60 -20t-38 -62h183q1 36 -24 59z" />
    <glyph glyph-name="edieresis" unicode="&#xeb;" horiz-adv-x="653" 
d="M303 592h-154v149h154v-149zM524 592h-154v149h154v-149zM591 202h-351q14 -41 49.5 -60t86.5 -19q63 0 155 30l45 -121q-48 -23 -106 -35.5t-113 -12.5q-93 0 -164 33t-110.5 95.5t-39.5 148.5q0 83 39 146t106 97t150 34q76 0 136.5 -30t94.5 -86t34 -131
q0 -44 -12 -89zM398 375q-25 23 -61 23q-33 0 -60 -20t-38 -62h183q1 36 -24 59z" />
    <glyph glyph-name="igrave" unicode="&#xec;" horiz-adv-x="321" 
d="M-29 727h212l56 -158h-152zM65 519h191v-519h-191v519z" />
    <glyph glyph-name="iacute" unicode="&#xed;" horiz-adv-x="321" 
d="M134 726h212l-116 -158h-152zM65 519h191v-519h-191v519z" />
    <glyph glyph-name="icircumflex" unicode="&#xee;" horiz-adv-x="321" 
d="M78 743h168l136 -174h-167l-53 87l-53 -87h-167zM65 519h191v-519h-191v519z" />
    <glyph glyph-name="idieresis" unicode="&#xef;" horiz-adv-x="321" 
d="M-28 718h154v-149h-154v149zM193 718h154v-149h-154v149zM65 519h191v-519h-191v519z" />
    <glyph glyph-name="eth" unicode="&#xf0;" horiz-adv-x="702" 
d="M617 176q-39 -88 -113 -140t-174 -52q-73 0 -136.5 31.5t-102.5 93.5t-39 147q0 73 32 133.5t89.5 95.5t130.5 35q99 0 164 -71q-15 101 -96 155l-127 -70l-53 96l53 30q-50 15 -116 23l32 146q151 -12 265 -66l121 68l53 -103l-65 -36q61 -54 91 -133t30 -191
q0 -104 -39 -192zM414.5 171q32.5 29 32.5 81q0 56 -31 84t-76 28t-76 -28t-30 -84q0 -55 30.5 -82.5t75.5 -27.5q42 0 74.5 29z" />
    <glyph glyph-name="ntilde" unicode="&#xf1;" 
d="M260 591h-145q2 76 34.5 119t100.5 43q27 0 46 -5.5t41 -15.5q13 -5 26 -9.5t26 -4.5q27 0 34 31h145q-2 -75 -34.5 -118.5t-101.5 -43.5q-26 0 -45 5.5t-41 15.5q-17 8 -28.5 11.5t-24.5 3.5q-26 0 -33 -32zM619 0h-194v276q0 50 -18 78.5t-61 28.5q-46 0 -95 -49v-334
h-193v519h167l9 -56q90 75 187 75q94 0 146 -58.5t52 -164.5v-315z" />
    <glyph glyph-name="ograve" unicode="&#xf2;" horiz-adv-x="692" 
d="M176 756h212l56 -158h-152zM185.5 18q-67.5 34 -102.5 96.5t-35 146.5t35 146.5t102.5 96.5t160.5 34t160.5 -34t102.5 -96.5t35 -146.5t-35 -146.5t-102.5 -96.5t-160.5 -34t-160.5 34zM427.5 166q29.5 30 29.5 95t-29.5 95.5t-81.5 30.5q-51 0 -81 -31t-30 -95
t30 -94.5t81 -30.5q52 0 81.5 30z" />
    <glyph glyph-name="oacute" unicode="&#xf3;" horiz-adv-x="692" 
d="M319 756h212l-116 -158h-152zM185.5 18q-67.5 34 -102.5 96.5t-35 146.5t35 146.5t102.5 96.5t160.5 34t160.5 -34t102.5 -96.5t35 -146.5t-35 -146.5t-102.5 -96.5t-160.5 -34t-160.5 34zM427.5 166q29.5 30 29.5 95t-29.5 95.5t-81.5 30.5q-51 0 -81 -31t-30 -95
t30 -94.5t81 -30.5q52 0 81.5 30z" />
    <glyph glyph-name="ocircumflex" unicode="&#xf4;" horiz-adv-x="692" 
d="M262 772h168l136 -174h-167l-53 87l-53 -87h-167zM185.5 18q-67.5 34 -102.5 96.5t-35 146.5t35 146.5t102.5 96.5t160.5 34t160.5 -34t102.5 -96.5t35 -146.5t-35 -146.5t-102.5 -96.5t-160.5 -34t-160.5 34zM427.5 166q29.5 30 29.5 95t-29.5 95.5t-81.5 30.5
q-51 0 -81 -31t-30 -95t30 -94.5t81 -30.5q52 0 81.5 30z" />
    <glyph glyph-name="otilde" unicode="&#xf5;" horiz-adv-x="692" 
d="M392 592.5q-19 5.5 -41 15.5q-17 8 -28.5 11.5t-24.5 3.5q-26 0 -33 -32h-145q2 76 34.5 119t100.5 43q27 0 46 -5.5t41 -15.5q13 -5 26 -9.5t26 -4.5q27 0 34 31h145q-2 -75 -34.5 -118.5t-101.5 -43.5q-26 0 -45 5.5zM185.5 18q-67.5 34 -102.5 96.5t-35 146.5
t35 146.5t102.5 96.5t160.5 34t160.5 -34t102.5 -96.5t35 -146.5t-35 -146.5t-102.5 -96.5t-160.5 -34t-160.5 34zM427.5 166q29.5 30 29.5 95t-29.5 95.5t-81.5 30.5q-51 0 -81 -31t-30 -95t30 -94.5t81 -30.5q52 0 81.5 30z" />
    <glyph glyph-name="odieresis" unicode="&#xf6;" horiz-adv-x="692" 
d="M159 741h154v-149h-154v149zM380 741h154v-149h-154v149zM185.5 18q-67.5 34 -102.5 96.5t-35 146.5t35 146.5t102.5 96.5t160.5 34t160.5 -34t102.5 -96.5t35 -146.5t-35 -146.5t-102.5 -96.5t-160.5 -34t-160.5 34zM427.5 166q29.5 30 29.5 95t-29.5 95.5t-81.5 30.5
q-51 0 -81 -31t-30 -95t30 -94.5t81 -30.5q52 0 81.5 30z" />
    <glyph glyph-name="divide" unicode="&#xf7;" horiz-adv-x="674" 
d="M260 569h151v-142h-151v142zM86 389h502v-155h-502v155zM260 196h152v-142h-152v142z" />
    <glyph glyph-name="oslash" unicode="&#xf8;" horiz-adv-x="692" 
d="M622 381q22 -53 22 -120q0 -84 -35 -146.5t-102.5 -96.5t-160.5 -34q-61 0 -112 15l-45 -66l-95 62l39 57q-41 37 -63 90t-22 119q0 84 35 146.5t102.5 96.5t160.5 34q62 0 111 -15l48 70l95 -62l-42 -61q42 -36 64 -89zM241 210l122 176q-6 1 -17 1q-51 0 -81 -31
t-30 -95q0 -30 6 -51zM427.5 166q29.5 30 29.5 95q0 31 -7 52l-121 -176q6 -1 17 -1q52 0 81.5 30z" />
    <glyph glyph-name="ugrave" unicode="&#xf9;" 
d="M282 598l-116 158h212l56 -158h-152zM621 519v-519h-165l-9 49q-40 -31 -83.5 -48t-97.5 -17q-99 0 -152.5 57t-53.5 166v312h194v-281q0 -43 19.5 -71t62.5 -28q49 0 92 33v347h193z" />
    <glyph glyph-name="uacute" unicode="&#xfa;" 
d="M400 598h-152l56 158h212zM621 519v-519h-165l-9 49q-40 -31 -83.5 -48t-97.5 -17q-99 0 -152.5 57t-53.5 166v312h194v-281q0 -43 19.5 -71t62.5 -28q49 0 92 33v347h193z" />
    <glyph glyph-name="ucircumflex" unicode="&#xfb;" 
d="M289 598h-167l136 174h168l136 -174h-167l-53 87zM621 519v-519h-165l-9 49q-40 -31 -83.5 -48t-97.5 -17q-99 0 -152.5 57t-53.5 166v312h194v-281q0 -43 19.5 -71t62.5 -28q49 0 92 33v347h193z" />
    <glyph glyph-name="udieresis" unicode="&#xfc;" 
d="M307 592h-154v149h154v-149zM528 592h-154v149h154v-149zM621 519v-519h-165l-9 49q-40 -31 -83.5 -48t-97.5 -17q-99 0 -152.5 57t-53.5 166v312h194v-281q0 -43 19.5 -71t62.5 -28q49 0 92 33v347h193z" />
    <glyph glyph-name="yacute" unicode="&#xfd;" horiz-adv-x="677" 
d="M408 598h-152l56 158h212zM617 519v-484q0 -54 -19 -103t-55 -86q-43 -45 -107.5 -65.5t-136.5 -20.5q-60 0 -120 13t-104 34l40 144q33 -16 80 -25t92 -9q73 0 106 25.5t37 90.5q-74 -49 -166 -49q-41 0 -82 15.5t-66 40.5q-58 56 -58 171v308h194v-281q0 -43 19.5 -71
t62.5 -28q51 0 90 31v349h193z" />
    <glyph glyph-name="thorn" unicode="&#xfe;" horiz-adv-x="685" 
d="M532 500q56 -38 83 -101t27 -138t-27 -138t-83 -101t-137 -38q-93 0 -151 52v-210h-186v880h186v-223q61 55 151 55q81 0 137 -38zM430 176q25 33 25 85t-25.5 85t-78.5 33t-78.5 -33t-25.5 -85t25.5 -85t78.5 -33q54 0 79 33z" />
    <glyph glyph-name="ydieresis" unicode="&#xff;" horiz-adv-x="677" 
d="M303 592h-154v149h154v-149zM524 592h-154v149h154v-149zM617 519v-484q0 -54 -19 -103t-55 -86q-43 -45 -107.5 -65.5t-136.5 -20.5q-60 0 -120 13t-104 34l40 144q33 -16 80 -25t92 -9q73 0 106 25.5t37 90.5q-74 -49 -166 -49q-41 0 -82 15.5t-66 40.5q-58 56 -58 171
v308h194v-281q0 -43 19.5 -71t62.5 -28q51 0 90 31v349h193z" />
    <glyph glyph-name="Amacron" unicode="&#x100;" horiz-adv-x="820" 
d="M594 747h-368v131h368v-131zM537 125h-262l-43 -125h-219l280 706h235l279 -706h-227zM483 282l-77 225l-77 -225h154z" />
    <glyph glyph-name="amacron" unicode="&#x101;" horiz-adv-x="636" 
d="M504 598h-366v127h366v-127zM570 371.5q7 -36.5 7 -107.5v-264h-166l-7 40q-27 -24 -72 -40t-86 -16q-95 0 -150.5 47.5t-55.5 135.5q0 93 76.5 132t187.5 39q48 0 88 -6q-1 36 -26.5 50t-73.5 14t-98.5 -12t-82.5 -26l-49 124q50 26 116 41t132 15q178 0 236 -101
q17 -29 24 -65.5zM342.5 137.5q28.5 6.5 49.5 17.5v63q-42 5 -79 5q-39 0 -64 -12.5t-25 -36.5q0 -23 18 -33t47 -10q25 0 53.5 6.5z" />
    <glyph glyph-name="Abreve" unicode="&#x102;" horiz-adv-x="820" 
d="M268.5 793q-54.5 41 -54.5 123h154q0 -25 9.5 -39.5t28.5 -14.5q20 0 29.5 15t9.5 39h154q0 -81 -55.5 -122.5t-137.5 -41.5q-83 0 -137.5 41zM537 125h-262l-43 -125h-219l280 706h235l279 -706h-227zM483 282l-77 225l-77 -225h154z" />
    <glyph glyph-name="abreve" unicode="&#x103;" horiz-adv-x="636" 
d="M188.5 626q-55.5 42 -55.5 124h150q0 -25 10.5 -40.5t29.5 -15.5q20 0 30.5 15.5t10.5 40.5h150q0 -56 -27 -93t-70.5 -55t-93.5 -18q-79 0 -134.5 42zM570 371.5q7 -36.5 7 -107.5v-264h-166l-7 40q-27 -24 -72 -40t-86 -16q-95 0 -150.5 47.5t-55.5 135.5
q0 93 76.5 132t187.5 39q48 0 88 -6q-1 36 -26.5 50t-73.5 14t-98.5 -12t-82.5 -26l-49 124q50 26 116 41t132 15q178 0 236 -101q17 -29 24 -65.5zM342.5 137.5q28.5 6.5 49.5 17.5v63q-42 5 -79 5q-39 0 -64 -12.5t-25 -36.5q0 -23 18 -33t47 -10q25 0 53.5 6.5z" />
    <glyph glyph-name="Aogonek" unicode="&#x104;" horiz-adv-x="845" 
d="M832 -218q-17 -13 -47 -22t-63 -9q-68 0 -108.5 35t-40.5 87q0 39 21.5 71.5t56.5 55.5h-71l-43 125h-262l-43 -125h-219l280 706h235l279 -706q-41 -15 -68 -33.5t-27 -46.5q0 -15 12 -24t30 -9q21 0 48 9zM483 282l-77 225l-77 -225h154z" />
    <glyph glyph-name="aogonek" unicode="&#x105;" horiz-adv-x="661" 
d="M602 -218q-17 -13 -47 -22t-63 -9q-68 0 -108.5 35t-40.5 87q0 39 21.5 71.5t56.5 55.5h-10l-7 40q-27 -24 -72 -40t-86 -16q-95 0 -150.5 47.5t-55.5 135.5q0 93 76.5 132t187.5 39q48 0 88 -6q-1 36 -26.5 50t-73.5 14t-98.5 -12t-82.5 -26l-49 124q50 26 116 41
t132 15q178 0 236 -101q17 -29 24 -65.5t7 -107.5v-264q-41 -15 -68 -33.5t-27 -46.5q0 -15 12 -24t30 -9q21 0 48 9zM342.5 137.5q28.5 6.5 49.5 17.5v63q-42 5 -79 5q-39 0 -64 -12.5t-25 -36.5q0 -23 18 -33t47 -10q25 0 53.5 6.5z" />
    <glyph glyph-name="Cacute" unicode="&#x106;" horiz-adv-x="792" 
d="M400 906h209l-105 -148h-157zM252.5 27.5q-87.5 43.5 -140 127.5t-52.5 198q0 118 54 201.5t141.5 125.5t187.5 42q94 0 177 -34t137 -90l-102 -119q-44 34 -96 53t-104 19q-84 0 -135.5 -52.5t-51.5 -145.5t51.5 -146t136.5 -53q51 0 103 19.5t96 52.5l102 -118
q-54 -56 -136.5 -90t-177.5 -34q-103 0 -190.5 43.5z" />
    <glyph glyph-name="cacute" unicode="&#x107;" horiz-adv-x="602" 
d="M295 756h212l-116 -158h-152zM191 17.5q-69 33.5 -108.5 96t-39.5 147.5q0 84 38.5 147t107.5 96.5t158 33.5q127 0 224 -62l-66 -127q-29 17 -64.5 27t-69.5 10q-63 0 -101.5 -33t-38.5 -92t38.5 -92t101.5 -33q34 0 69.5 10.5t64.5 27.5l66 -127q-99 -63 -224 -63
q-87 0 -156 33.5z" />
    <glyph glyph-name="Ccircumflex" unicode="&#x108;" horiz-adv-x="792" 
d="M345 919h184l124 -161h-169l-47 70l-47 -70h-169zM252.5 27.5q-87.5 43.5 -140 127.5t-52.5 198q0 118 54 201.5t141.5 125.5t187.5 42q94 0 177 -34t137 -90l-102 -119q-44 34 -96 53t-104 19q-84 0 -135.5 -52.5t-51.5 -145.5t51.5 -146t136.5 -53q51 0 103 19.5
t96 52.5l102 -118q-54 -56 -136.5 -90t-177.5 -34q-103 0 -190.5 43.5z" />
    <glyph glyph-name="ccircumflex" unicode="&#x109;" horiz-adv-x="602" 
d="M242 772h168l136 -174h-167l-53 87l-53 -87h-167zM191 17.5q-69 33.5 -108.5 96t-39.5 147.5q0 84 38.5 147t107.5 96.5t158 33.5q127 0 224 -62l-66 -127q-29 17 -64.5 27t-69.5 10q-63 0 -101.5 -33t-38.5 -92t38.5 -92t101.5 -33q34 0 69.5 10.5t64.5 27.5l66 -127
q-99 -63 -224 -63q-87 0 -156 33.5z" />
    <glyph glyph-name="Cdotaccent" unicode="&#x10a;" horiz-adv-x="792" 
d="M333 944h198v-173h-198v173zM252.5 27.5q-87.5 43.5 -140 127.5t-52.5 198q0 118 54 201.5t141.5 125.5t187.5 42q94 0 177 -34t137 -90l-102 -119q-44 34 -96 53t-104 19q-84 0 -135.5 -52.5t-51.5 -145.5t51.5 -146t136.5 -53q51 0 103 19.5t96 52.5l102 -118
q-54 -56 -136.5 -90t-177.5 -34q-103 0 -190.5 43.5z" />
    <glyph glyph-name="cdotaccent" unicode="&#x10b;" horiz-adv-x="602" 
d="M231 706h191v-137h-191v137zM191 17.5q-69 33.5 -108.5 96t-39.5 147.5q0 84 38.5 147t107.5 96.5t158 33.5q127 0 224 -62l-66 -127q-29 17 -64.5 27t-69.5 10q-63 0 -101.5 -33t-38.5 -92t38.5 -92t101.5 -33q34 0 69.5 10.5t64.5 27.5l66 -127q-99 -63 -224 -63
q-87 0 -156 33.5z" />
    <glyph glyph-name="Ccaron" unicode="&#x10c;" horiz-adv-x="792" 
d="M212 916h170l46 -70l46 70h170l-122 -161h-188zM252.5 27.5q-87.5 43.5 -140 127.5t-52.5 198q0 118 54 201.5t141.5 125.5t187.5 42q94 0 177 -34t137 -90l-102 -119q-44 34 -96 53t-104 19q-84 0 -135.5 -52.5t-51.5 -145.5t51.5 -146t136.5 -53q51 0 103 19.5t96 52.5
l102 -118q-54 -56 -136.5 -90t-177.5 -34q-103 0 -190.5 43.5z" />
    <glyph glyph-name="ccaron" unicode="&#x10d;" horiz-adv-x="602" 
d="M115 758h177l46 -70l46 70h177l-135 -166h-176zM191 17.5q-69 33.5 -108.5 96t-39.5 147.5q0 84 38.5 147t107.5 96.5t158 33.5q127 0 224 -62l-66 -127q-29 17 -64.5 27t-69.5 10q-63 0 -101.5 -33t-38.5 -92t38.5 -92t101.5 -33q34 0 69.5 10.5t64.5 27.5l66 -127
q-99 -63 -224 -63q-87 0 -156 33.5z" />
    <glyph glyph-name="Dcaron" unicode="&#x10e;" horiz-adv-x="856" 
d="M286 753l-122 161h170l46 -70l46 70h170l-122 -161h-188zM615.5 662.5q86.5 -43.5 131 -123.5t44.5 -187t-44.5 -186.5t-131 -122.5t-208.5 -43h-321v706h321q122 0 208.5 -43.5zM539.5 213.5q43.5 46.5 43.5 138.5q0 94 -43.5 141t-134.5 47h-115v-373h115
q91 0 134.5 46.5z" />
    <glyph glyph-name="dcaron" unicode="&#x10f;" horiz-adv-x="836" 
d="M854 744l-75 -235h-111l16 235h170zM436 706h191v-706h-157l-10 60q-31 -38 -75 -57t-95 -19q-81 0 -137 38t-83 101t-27 137q0 75 27 138t83 101.5t137 38.5q86 0 146 -51v219zM411.5 175q26.5 33 26.5 85q0 51 -25 84.5t-77 33.5q-54 0 -80 -33t-26 -85t25 -85t77 -33
q53 0 79.5 33z" />
    <glyph glyph-name="Dcroat" unicode="&#x110;" horiz-adv-x="856" 
d="M615.5 662.5q86.5 -43.5 131 -123.5t44.5 -187t-44.5 -186.5t-131 -122.5t-208.5 -43h-321v286h-94v138h94v282h321q122 0 208.5 -43.5zM539.5 213.5q43.5 46.5 43.5 138.5q0 94 -43.5 141t-134.5 47h-115v-116h124v-138h-124v-119h115q91 0 134.5 46.5z" />
    <glyph glyph-name="dcroat" unicode="&#x111;" horiz-adv-x="671" 
d="M679 550h-52v-550h-157l-10 60q-31 -38 -75 -57t-95 -19q-82 0 -137.5 35.5t-82.5 95t-27 133.5q0 75 27 138t83 101.5t137 38.5q86 0 146 -51v75h-114v107h114v49h191v-49h52v-107zM412 170q26 28 26 78q0 51 -25 84.5t-77 33.5q-54 0 -80 -33t-26 -85q0 -106 102 -106
q54 0 80 28z" />
    <glyph glyph-name="Emacron" unicode="&#x112;" horiz-adv-x="780" 
d="M633 763h-478v131h478v-131zM701 167v-167h-615v706h609v-166h-405v-97h374v-170h-374v-106h411z" />
    <glyph glyph-name="emacron" unicode="&#x113;" horiz-adv-x="653" 
d="M518 598h-366v127h366v-127zM591 202h-351q14 -41 49.5 -60t86.5 -19q63 0 155 30l45 -121q-48 -23 -106 -35.5t-113 -12.5q-93 0 -164 33t-110.5 95.5t-39.5 148.5q0 83 39 146t106 97t150 34q76 0 136.5 -30t94.5 -86t34 -131q0 -44 -12 -89zM398 375q-25 23 -61 23
q-33 0 -60 -20t-38 -62h183q1 36 -24 59z" />
    <glyph glyph-name="Ebreve" unicode="&#x114;" horiz-adv-x="780" 
d="M255.5 794q-54.5 41 -54.5 123h154q0 -25 9.5 -39.5t28.5 -14.5q20 0 29.5 15t9.5 39h154q0 -81 -55.5 -122.5t-137.5 -41.5q-83 0 -137.5 41zM701 167v-167h-615v706h609v-166h-405v-97h374v-170h-374v-106h411z" />
    <glyph glyph-name="ebreve" unicode="&#x115;" horiz-adv-x="653" 
d="M202.5 628q-55.5 42 -55.5 124h150q0 -25 10.5 -40.5t29.5 -15.5q20 0 30.5 15.5t10.5 40.5h150q0 -56 -27 -93t-70.5 -55t-93.5 -18q-79 0 -134.5 42zM591 202h-351q14 -41 49.5 -60t86.5 -19q63 0 155 30l45 -121q-48 -23 -106 -35.5t-113 -12.5q-93 0 -164 33
t-110.5 95.5t-39.5 148.5q0 83 39 146t106 97t150 34q76 0 136.5 -30t94.5 -86t34 -131q0 -44 -12 -89zM398 375q-25 23 -61 23q-33 0 -60 -20t-38 -62h183q1 36 -24 59z" />
    <glyph glyph-name="Edotaccent" unicode="&#x116;" horiz-adv-x="780" 
d="M490 771h-198v173h198v-173zM701 167v-167h-615v706h609v-166h-405v-97h374v-170h-374v-106h411z" />
    <glyph glyph-name="edotaccent" unicode="&#x117;" horiz-adv-x="653" 
d="M431 567h-191v139h191v-139zM591 202h-351q14 -41 49.5 -60t86.5 -19q63 0 155 30l45 -121q-48 -23 -106 -35.5t-113 -12.5q-93 0 -164 33t-110.5 95.5t-39.5 148.5q0 83 39 146t106 97t150 34q76 0 136.5 -30t94.5 -86t34 -131q0 -44 -12 -89zM398 375q-25 23 -61 23
q-33 0 -60 -20t-38 -62h183q1 36 -24 59z" />
    <glyph glyph-name="Eogonek" unicode="&#x118;" horiz-adv-x="780" 
d="M726 -218q-17 -13 -47 -22t-63 -9q-68 0 -108.5 35t-40.5 87q0 39 21.5 71.5t56.5 55.5h-459v706h609v-166h-405v-97h374v-170h-374v-106h411v-167q-41 -15 -68 -33.5t-27 -46.5q0 -15 12 -24t30 -9q21 0 48 9z" />
    <glyph glyph-name="eogonek" unicode="&#x119;" horiz-adv-x="653" 
d="M591 202h-351q14 -41 49.5 -60t86.5 -19q63 0 155 30l45 -121l-45 -19q-46 -18 -73.5 -39t-27.5 -52q0 -14 10 -24.5t31 -10.5t48 9l30 -114q-17 -13 -47 -22t-63 -9q-68 0 -108.5 35t-40.5 87q0 33 15.5 61.5t41.5 49.5q-91 2 -159.5 35.5t-106.5 95.5t-38 146
q0 83 39 146t106 97t150 34q76 0 136.5 -30t94.5 -86t34 -131q0 -44 -12 -89zM398 375q-25 23 -61 23q-33 0 -60 -20t-38 -62h183q1 36 -24 59z" />
    <glyph glyph-name="Ecaron" unicode="&#x11a;" horiz-adv-x="780" 
d="M300 753l-122 161h170l46 -70l46 70h170l-122 -161h-188zM701 167v-167h-615v706h609v-166h-405v-97h374v-170h-374v-106h411z" />
    <glyph glyph-name="ecaron" unicode="&#x11b;" horiz-adv-x="653" 
d="M248 592l-135 166h177l46 -70l46 70h177l-135 -166h-176zM591 202h-351q14 -41 49.5 -60t86.5 -19q63 0 155 30l45 -121q-48 -23 -106 -35.5t-113 -12.5q-93 0 -164 33t-110.5 95.5t-39.5 148.5q0 83 39 146t106 97t150 34q76 0 136.5 -30t94.5 -86t34 -131
q0 -44 -12 -89zM398 375q-25 23 -61 23q-33 0 -60 -20t-38 -62h183q1 36 -24 59z" />
    <glyph glyph-name="Gcircumflex" unicode="&#x11c;" horiz-adv-x="828" 
d="M342 920h184l124 -161h-169l-47 70l-47 -70h-169zM245 27q-87 44 -136 127.5t-49 197.5t48.5 197.5t136 128t202.5 44.5q86 0 157 -29t138 -84l-100 -123q-48 32 -89.5 48.5t-88.5 16.5q-56 0 -100.5 -23t-70 -68t-25.5 -108q0 -93 51.5 -145t135.5 -52q41 0 75 11.5
t51 27.5v81h-157v162h346v-315q-58 -66 -148 -102.5t-179 -36.5q-111 0 -198 44z" />
    <glyph glyph-name="gcircumflex" unicode="&#x11d;" horiz-adv-x="687" 
d="M293 598h-167l136 174h168l136 -174h-167l-53 87zM627 519v-482q0 -86 -39.5 -148.5t-110.5 -95.5t-164 -33q-57 0 -123 15t-112 40l44 140q33 -16 85 -27.5t97 -11.5q81 0 109 28.5t28 81.5v19q-63 -61 -150 -61q-81 0 -137 38.5t-83.5 101.5t-27.5 137t27.5 137
t83.5 101.5t137 38.5q51 0 96.5 -23t77.5 -65l12 69h150zM412.5 176.5q25.5 32.5 25.5 84.5t-25.5 85t-78.5 33t-78.5 -33t-25.5 -85t25.5 -84.5t78.5 -32.5t78.5 32.5z" />
    <glyph glyph-name="Gbreve" unicode="&#x11e;" horiz-adv-x="828" 
d="M292.5 798q-54.5 41 -54.5 123h154q0 -25 9.5 -39.5t28.5 -14.5q20 0 29.5 15t9.5 39h154q0 -81 -55.5 -122.5t-137.5 -41.5q-83 0 -137.5 41zM245 27q-87 44 -136 127.5t-49 197.5t48.5 197.5t136 128t202.5 44.5q86 0 157 -29t138 -84l-100 -123q-48 32 -89.5 48.5
t-88.5 16.5q-56 0 -100.5 -23t-70 -68t-25.5 -108q0 -93 51.5 -145t135.5 -52q41 0 75 11.5t51 27.5v81h-157v162h346v-315q-58 -66 -148 -102.5t-179 -36.5q-111 0 -198 44z" />
    <glyph glyph-name="gbreve" unicode="&#x11f;" horiz-adv-x="687" 
d="M210.5 628q-55.5 42 -55.5 124h150q0 -25 10.5 -40.5t29.5 -15.5q20 0 30.5 15.5t10.5 40.5h150q0 -56 -27 -93t-70.5 -55t-93.5 -18q-79 0 -134.5 42zM627 519v-482q0 -86 -39.5 -148.5t-110.5 -95.5t-164 -33q-57 0 -123 15t-112 40l44 140q33 -16 85 -27.5t97 -11.5
q81 0 109 28.5t28 81.5v19q-63 -61 -150 -61q-81 0 -137 38.5t-83.5 101.5t-27.5 137t27.5 137t83.5 101.5t137 38.5q51 0 96.5 -23t77.5 -65l12 69h150zM412.5 176.5q25.5 32.5 25.5 84.5t-25.5 85t-78.5 33t-78.5 -33t-25.5 -85t25.5 -84.5t78.5 -32.5t78.5 32.5z" />
    <glyph glyph-name="Gdotaccent" unicode="&#x120;" horiz-adv-x="828" 
d="M331 944h198v-173h-198v173zM245 27q-87 44 -136 127.5t-49 197.5t48.5 197.5t136 128t202.5 44.5q86 0 157 -29t138 -84l-100 -123q-48 32 -89.5 48.5t-88.5 16.5q-56 0 -100.5 -23t-70 -68t-25.5 -108q0 -93 51.5 -145t135.5 -52q41 0 75 11.5t51 27.5v81h-157v162h346
v-315q-58 -66 -148 -102.5t-179 -36.5q-111 0 -198 44z" />
    <glyph glyph-name="gdotaccent" unicode="&#x121;" horiz-adv-x="687" 
d="M450 595h-191v160h191v-160zM627 519v-482q0 -86 -39.5 -148.5t-110.5 -95.5t-164 -33q-57 0 -123 15t-112 40l44 140q33 -16 85 -27.5t97 -11.5q81 0 109 28.5t28 81.5v19q-63 -61 -150 -61q-81 0 -137 38.5t-83.5 101.5t-27.5 137t27.5 137t83.5 101.5t137 38.5
q51 0 96.5 -23t77.5 -65l12 69h150zM412.5 176.5q25.5 32.5 25.5 84.5t-25.5 85t-78.5 33t-78.5 -33t-25.5 -85t25.5 -84.5t78.5 -32.5t78.5 32.5z" />
    <glyph glyph-name="Gcommaaccent" unicode="&#x122;" horiz-adv-x="828" 
d="M245 27q-87 44 -136 127.5t-49 197.5t48.5 197.5t136 128t202.5 44.5q86 0 157 -29t138 -84l-100 -123q-48 32 -89.5 48.5t-88.5 16.5q-56 0 -100.5 -23t-70 -68t-25.5 -108q0 -93 51.5 -145t135.5 -52q41 0 75 11.5t51 27.5v81h-157v162h346v-315q-58 -66 -148 -102.5
t-179 -36.5q-111 0 -198 44zM372 -69h182l-36 -233h-156z" />
    <glyph glyph-name="gcommaaccent" unicode="&#x123;" horiz-adv-x="687" 
d="M422 600h-181l31 215h161zM627 519v-482q0 -86 -39.5 -148.5t-110.5 -95.5t-164 -33q-57 0 -123 15t-112 40l44 140q33 -16 85 -27.5t97 -11.5q81 0 109 28.5t28 81.5v19q-63 -61 -150 -61q-81 0 -137 38.5t-83.5 101.5t-27.5 137t27.5 137t83.5 101.5t137 38.5
q51 0 96.5 -23t77.5 -65l12 69h150zM412.5 176.5q25.5 32.5 25.5 84.5t-25.5 85t-78.5 33t-78.5 -33t-25.5 -85t25.5 -84.5t78.5 -32.5t78.5 32.5z" />
    <glyph glyph-name="Hcircumflex" unicode="&#x124;" horiz-adv-x="895" 
d="M401 753h-169l124 161h184l124 -161h-169l-47 70zM809 706v-706h-204v279h-315v-279h-204v706h204v-257h315v257h204z" />
    <glyph glyph-name="hcircumflex" unicode="&#x125;" 
d="M226 753h-167l136 174h168l136 -174h-167l-53 87zM619 0h-194v276q0 50 -18 78.5t-61 28.5q-48 0 -94 -48v-335h-193v706h183v-237q85 69 179 69q95 0 146.5 -58t51.5 -165v-315z" />
    <glyph glyph-name="Hbar" unicode="&#x126;" horiz-adv-x="846" 
d="M847 516h-63v-516h-204v279h-315v-279h-204v516h-57v123h57v67h204v-67h315v67h204v-67h63v-123zM580 516h-315v-67h315v67z" />
    <glyph glyph-name="hbar" unicode="&#x127;" horiz-adv-x="689" 
d="M601 0h-194v276q0 50 -18 78.5t-61 28.5q-48 0 -94 -48v-335h-193v550h-41v107h41v49h183v-49h111v-107h-111v-81q85 69 179 69q95 0 146.5 -58t51.5 -165v-315z" />
    <glyph glyph-name="Itilde" unicode="&#x128;" horiz-adv-x="376" 
d="M229.5 770.5q-16.5 5.5 -35.5 15.5q-15 8 -24.5 11.5t-20.5 3.5q-26 0 -33 -32h-155q2 75 37 118.5t108 43.5q23 0 39 -5.5t35 -15.5q11 -5 22.5 -9.5t22.5 -4.5q27 0 34 31h155q-2 -75 -37 -118.5t-109 -43.5q-22 0 -38.5 5.5zM86 706h204v-706h-204v706z" />
    <glyph glyph-name="itilde" unicode="&#x129;" horiz-adv-x="321" 
d="M214 570.5q-19 5.5 -41 15.5q-17 8 -28.5 11.5t-24.5 3.5q-26 0 -33 -32h-145q2 76 34.5 119t100.5 43q27 0 46 -5.5t41 -15.5q13 -5 26 -9.5t26 -4.5q27 0 34 31h145q-2 -75 -34.5 -118.5t-101.5 -43.5q-26 0 -45 5.5zM65 519h191v-519h-191v519z" />
    <glyph glyph-name="Imacron" unicode="&#x12a;" horiz-adv-x="376" 
d="M5 917h366v-127h-366v127zM86 706h204v-706h-204v706z" />
    <glyph glyph-name="imacron" unicode="&#x12b;" horiz-adv-x="321" 
d="M-22 706h366v-127h-366v127zM65 519h191v-519h-191v519z" />
    <glyph glyph-name="Ibreve" unicode="&#x12c;" horiz-adv-x="376" 
d="M50.5 794q-54.5 41 -54.5 123h154q0 -25 9.5 -39.5t28.5 -14.5q20 0 29.5 15t9.5 39h154q0 -81 -55.5 -122.5t-137.5 -41.5q-83 0 -137.5 41zM86 706h204v-706h-204v706z" />
    <glyph glyph-name="ibreve" unicode="&#x12d;" horiz-adv-x="321" 
d="M25.5 611q-55.5 42 -55.5 124h150q0 -25 10.5 -40.5t29.5 -15.5q20 0 30.5 15.5t10.5 40.5h150q0 -56 -27 -93t-70.5 -55t-93.5 -18q-79 0 -134.5 42zM65 519h191v-519h-191v519z" />
    <glyph glyph-name="Iogonek" unicode="&#x12e;" horiz-adv-x="376" 
d="M315 -218q-17 -13 -47 -22t-63 -9q-68 0 -108.5 35t-40.5 87q0 39 21.5 71.5t56.5 55.5h-48v706h204v-706q-41 -15 -68 -33.5t-27 -46.5q0 -15 12 -24t30 -9q21 0 48 9z" />
    <glyph glyph-name="iogonek" unicode="&#x12f;" horiz-adv-x="325" 
d="M260 569h-195v137h195v-137zM283 -218q-17 -13 -47 -22t-63 -9q-68 0 -108.5 35t-40.5 87q0 39 21.5 71.5t56.5 55.5h-35v519h191v-519q-41 -15 -68 -33.5t-27 -46.5q0 -15 12 -24t30 -9q21 0 48 9z" />
    <glyph glyph-name="Idotaccent" unicode="&#x130;" horiz-adv-x="377" 
d="M86 944h204v-173h-204v173zM87 706h204v-706h-204v706z" />
    <glyph glyph-name="dotlessi" unicode="&#x131;" horiz-adv-x="321" 
d="M256 0h-191v519h191v-519z" />
    <glyph glyph-name="IJ" unicode="&#x132;" horiz-adv-x="897" 
d="M86 706h204v-706h-204v706zM455.5 6.5q-65.5 22.5 -101.5 51.5l71 138q74 -35 129 -35q48 0 67 26t19 77v442h204v-489q0 -113 -70.5 -173t-190.5 -60q-62 0 -127.5 22.5z" />
    <glyph glyph-name="ij" unicode="&#x133;" horiz-adv-x="619" 
d="M65 706h191v-137h-191v137zM363 706h191v-137h-191v137zM65 519h191v-519h-191v519zM226 -94q47 4 72.5 10.5t40.5 20.5q24 22 24 79v503h191v-491q0 -134 -68 -202q-77 -77 -248 -71z" />
    <glyph glyph-name="Jcircumflex" unicode="&#x134;" horiz-adv-x="580" 
d="M322 914h184l124 -161h-169l-47 70l-47 -70h-169zM124.5 6.5q-65.5 22.5 -101.5 51.5l71 138q74 -35 129 -35q48 0 67 26t19 77v442h204v-489q0 -113 -70.5 -173t-190.5 -60q-62 0 -127.5 22.5z" />
    <glyph glyph-name="jcircumflex" unicode="&#x135;" horiz-adv-x="375" 
d="M117 743h168l136 -174h-167l-53 87l-53 -87h-167zM-18 -89q40 5 62 12t36 21q17 17 22 34t5 43v498h193v-486q0 -125 -76 -201q-36 -37 -89.5 -55t-138.5 -19z" />
    <glyph glyph-name="Kcommaaccent" unicode="&#x136;" horiz-adv-x="746" 
d="M754 0h-235l-184 274l-61 -64v-210h-188v706h188v-252l229 252h246l-282 -295zM310 -69h182l-36 -233h-156z" />
    <glyph glyph-name="kcommaaccent" unicode="&#x137;" horiz-adv-x="613" 
d="M248 0h-188v706h188v-351l134 164h224l-189 -218l201 -301h-223l-110 169l-37 -37v-132zM225 -54h181l-31 -215h-161z" />
    <glyph glyph-name="kgreenlandic" unicode="&#x138;" horiz-adv-x="613" 
d="M285 169l-37 -37v-132h-188v519h188v-164l134 164h224l-189 -218l201 -301h-223z" />
    <glyph glyph-name="Lacute" unicode="&#x139;" horiz-adv-x="698" 
d="M259 753h-157l53 148h209zM662 167v-167h-576v706h204v-539h372z" />
    <glyph glyph-name="lacute" unicode="&#x13a;" horiz-adv-x="362" 
d="M153 911h212l-116 -158h-152zM86 706h190v-706h-190v706z" />
    <glyph glyph-name="Lcommaaccent" unicode="&#x13b;" horiz-adv-x="698" 
d="M662 167v-167h-576v706h204v-539h372zM303 -69h182l-36 -233h-156z" />
    <glyph glyph-name="lcommaaccent" unicode="&#x13c;" horiz-adv-x="314" 
d="M62 706h190v-706h-190v706zM64 -54h181l-31 -215h-161z" />
    <glyph glyph-name="Lcaron" unicode="&#x13d;" horiz-adv-x="698" 
d="M536 509h-161l16 235h181zM662 167v-167h-576v706h204v-539h372z" />
    <glyph glyph-name="lcaron" unicode="&#x13e;" horiz-adv-x="456" 
d="M410 509h-111l16 235h170zM62 706h190v-706h-190v706z" />
    <glyph glyph-name="Ldot" unicode="&#x13f;" horiz-adv-x="698" 
d="M662 167v-167h-576v706h204v-539h372zM609 282h-188v178h188v-178z" />
    <glyph glyph-name="ldot" unicode="&#x140;" horiz-adv-x="461" 
d="M62 706h190v-706h-190v706zM282 452h188v-178h-188v178z" />
    <glyph glyph-name="Lslash" unicode="&#x141;" horiz-adv-x="676" 
d="M640 167v-167h-576v229l-71 -40v170l71 40v307h204v-191l81 46v-170l-81 -46v-178h372z" />
    <glyph glyph-name="lslash" unicode="&#x142;" horiz-adv-x="390" 
d="M368 345l-70 -39v-306h-190v201l-70 -39v171l70 39v334h190v-229l70 39v-171z" />
    <glyph glyph-name="Nacute" unicode="&#x143;" horiz-adv-x="882" 
d="M508 753h-157l53 148h209zM796 706v-706h-209l-297 398v-398h-204v706h211l295 -396v396h204z" />
    <glyph glyph-name="nacute" unicode="&#x144;" 
d="M409 598h-152l56 158h212zM619 0h-194v276q0 50 -18 78.5t-61 28.5q-46 0 -95 -49v-334h-193v519h167l9 -56q90 75 187 75q94 0 146 -58.5t52 -164.5v-315z" />
    <glyph glyph-name="Ncommaaccent" unicode="&#x145;" horiz-adv-x="882" 
d="M796 706v-706h-209l-297 398v-398h-204v706h211l295 -396v396h204zM347 -70h182l-36 -233h-156z" />
    <glyph glyph-name="ncommaaccent" unicode="&#x146;" 
d="M619 0h-194v276q0 50 -18 78.5t-61 28.5q-46 0 -95 -49v-334h-193v519h167l9 -56q90 75 187 75q94 0 146 -58.5t52 -164.5v-315zM250 -54h181l-31 -215h-161z" />
    <glyph glyph-name="Ncaron" unicode="&#x147;" horiz-adv-x="882" 
d="M348 753l-122 161h170l46 -70l46 70h170l-122 -161h-188zM796 706v-706h-209l-297 398v-398h-204v706h211l295 -396v396h204z" />
    <glyph glyph-name="ncaron" unicode="&#x148;" 
d="M251 592l-135 166h177l46 -70l46 70h177l-135 -166h-176zM619 0h-194v276q0 50 -18 78.5t-61 28.5q-46 0 -95 -49v-334h-193v519h167l9 -56q90 75 187 75q94 0 146 -58.5t52 -164.5v-315z" />
    <glyph glyph-name="napostrophe" unicode="&#x149;" horiz-adv-x="677" 
d="M108 578h-136l26 197h166zM617 0h-194v276q0 50 -18 78.5t-61 28.5q-46 0 -95 -49v-334h-193v519h167l9 -56q90 75 187 75q94 0 146 -58.5t52 -164.5v-315z" />
    <glyph glyph-name="Eng" unicode="&#x14a;" horiz-adv-x="866" 
d="M796 706v-685q0 -127 -68 -195q-80 -77 -260 -80l-14 177q69 6 98 24q28 19 34 54l-296 397v-398h-204v706h211l295 -397v397h204z" />
    <glyph glyph-name="eng" unicode="&#x14b;" horiz-adv-x="689" 
d="M619 21q0 -125 -76 -201q-36 -37 -89.5 -55t-138.5 -19l-14 153q40 5 61.5 12t35.5 21q17 17 22 34t5 43v267q0 50 -18 78.5t-61 28.5q-46 0 -95 -49v-334h-193v519h167l9 -56q90 75 187 75q94 0 146 -58.5t52 -164.5v-294z" />
    <glyph glyph-name="Omacron" unicode="&#x14c;" horiz-adv-x="895" 
d="M266 894h368v-131h-368v131zM242 29.5q-86 45.5 -131.5 128.5t-45.5 194t45.5 194.5t131.5 129.5t206 46t206 -46t131 -129.5t45 -194.5t-45 -194t-131 -128.5t-206 -45.5t-206 45.5zM577.5 205q44.5 50 44.5 147q0 99 -44.5 149.5t-129.5 50.5t-130 -51t-45 -149
q0 -97 45 -147t130 -50t129.5 50z" />
    <glyph glyph-name="omacron" unicode="&#x14d;" horiz-adv-x="692" 
d="M163 725h366v-127h-366v127zM185.5 18q-67.5 34 -102.5 96.5t-35 146.5t35 146.5t102.5 96.5t160.5 34t160.5 -34t102.5 -96.5t35 -146.5t-35 -146.5t-102.5 -96.5t-160.5 -34t-160.5 34zM427.5 166q29.5 30 29.5 95t-29.5 95.5t-81.5 30.5q-51 0 -81 -31t-30 -95
t30 -94.5t81 -30.5q52 0 81.5 30z" />
    <glyph glyph-name="Obreve" unicode="&#x14e;" horiz-adv-x="895" 
d="M309.5 798q-54.5 41 -54.5 123h154q0 -25 9.5 -39.5t28.5 -14.5q20 0 29.5 15t9.5 39h154q0 -81 -55.5 -122.5t-137.5 -41.5q-83 0 -137.5 41zM242 29.5q-86 45.5 -131.5 128.5t-45.5 194t45.5 194.5t131.5 129.5t206 46t206 -46t131 -129.5t45 -194.5t-45 -194
t-131 -128.5t-206 -45.5t-206 45.5zM577.5 205q44.5 50 44.5 147q0 99 -44.5 149.5t-129.5 50.5t-130 -51t-45 -149q0 -97 45 -147t130 -50t129.5 50z" />
    <glyph glyph-name="obreve" unicode="&#x14f;" horiz-adv-x="692" 
d="M211.5 628q-55.5 42 -55.5 124h150q0 -25 10.5 -40.5t29.5 -15.5q20 0 30.5 15.5t10.5 40.5h150q0 -56 -27 -93t-70.5 -55t-93.5 -18q-79 0 -134.5 42zM185.5 18q-67.5 34 -102.5 96.5t-35 146.5t35 146.5t102.5 96.5t160.5 34t160.5 -34t102.5 -96.5t35 -146.5
t-35 -146.5t-102.5 -96.5t-160.5 -34t-160.5 34zM427.5 166q29.5 30 29.5 95t-29.5 95.5t-81.5 30.5q-51 0 -81 -31t-30 -95t30 -94.5t81 -30.5q52 0 81.5 30z" />
    <glyph glyph-name="Ohungarumlaut" unicode="&#x150;" horiz-adv-x="895" 
d="M272 927h199l-82 -168h-158zM518 927h199l-82 -168h-158zM242 29.5q-86 45.5 -131.5 128.5t-45.5 194t45.5 194.5t131.5 129.5t206 46t206 -46t131 -129.5t45 -194.5t-45 -194t-131 -128.5t-206 -45.5t-206 45.5zM577.5 205q44.5 50 44.5 147q0 99 -44.5 149.5
t-129.5 50.5t-130 -51t-45 -149q0 -97 45 -147t130 -50t129.5 50z" />
    <glyph glyph-name="ohungarumlaut" unicode="&#x151;" horiz-adv-x="728" 
d="M185 776h199l-86 -178h-158zM431 776h199l-86 -178h-158zM185.5 18q-67.5 34 -102.5 96.5t-35 146.5t35 146.5t102.5 96.5t160.5 34t160.5 -34t102.5 -96.5t35 -146.5t-35 -146.5t-102.5 -96.5t-160.5 -34t-160.5 34zM427.5 166q29.5 30 29.5 95t-29.5 95.5t-81.5 30.5
q-51 0 -81 -31t-30 -95t30 -94.5t81 -30.5q52 0 81.5 30z" />
    <glyph glyph-name="OE" unicode="&#x152;" horiz-adv-x="1189" 
d="M1124 167v-167h-675q-122 0 -208.5 43t-131 122.5t-44.5 186.5t44.5 187t131 123.5t208.5 43.5h669v-166h-366v-97h335v-170h-335v-106h372zM548 167v373h-97q-91 0 -134.5 -47t-43.5 -141q0 -92 43.5 -138.5t134.5 -46.5h97z" />
    <glyph glyph-name="oe" unicode="&#x153;" horiz-adv-x="1069" 
d="M1007 202h-351q14 -41 49.5 -60t86.5 -19q63 0 155 30l45 -121q-48 -23 -106 -35.5t-113 -12.5q-64 0 -124 18t-103 54q-74 -72 -200 -72q-93 0 -160.5 34t-102.5 96.5t-35 146.5t35 146.5t102.5 96.5t160.5 34q125 0 201 -73q41 36 95.5 54.5t111.5 18.5q76 0 136.5 -30
t94.5 -86t34 -131q0 -44 -12 -89zM814 375q-25 23 -61 23q-33 0 -60 -20t-38 -62h183q1 36 -24 59zM427.5 166q29.5 30 29.5 95t-29.5 95.5t-81.5 30.5q-51 0 -81 -31t-30 -95t30 -94.5t81 -30.5q52 0 81.5 30z" />
    <glyph glyph-name="Racute" unicode="&#x154;" horiz-adv-x="812" 
d="M444 753h-157l53 148h209zM404 225h-114v-225h-204v706h340q88 0 149.5 -14t100.5 -54q30 -31 45.5 -76t15.5 -92q0 -73 -33 -126t-96 -82l155 -262h-240zM290 392h155q40 0 63 18.5t23 56.5q0 30 -21 51.5t-67 21.5h-153v-148z" />
    <glyph glyph-name="racute" unicode="&#x155;" horiz-adv-x="475" 
d="M289 598h-152l56 158h212zM453 523l-20 -151q-31 9 -60 9q-44 0 -76 -21t-47 -54v-306h-192v519h155l15 -61q55 76 150 76q31 0 75 -11z" />
    <glyph glyph-name="Rcommaaccent" unicode="&#x156;" horiz-adv-x="812" 
d="M763 0h-240l-119 225h-114v-225h-204v706h340q88 0 149.5 -14t100.5 -54q30 -31 45.5 -76t15.5 -92q0 -73 -33 -126t-96 -82zM290 392h155q40 0 63 18.5t23 56.5q0 30 -21 51.5t-67 21.5h-153v-148zM315 -69h182l-36 -233h-156z" />
    <glyph glyph-name="rcommaaccent" unicode="&#x157;" horiz-adv-x="472" 
d="M450 523l-20 -151q-31 9 -60 9q-44 0 -76 -21t-47 -54v-306h-192v519h155l15 -61q55 76 150 76q31 0 75 -11zM61 -54h181l-31 -215h-161z" />
    <glyph glyph-name="Rcaron" unicode="&#x158;" horiz-adv-x="812" 
d="M294 753l-122 161h170l46 -70l46 70h170l-122 -161h-188zM404 225h-114v-225h-204v706h340q88 0 149.5 -14t100.5 -54q30 -31 45.5 -76t15.5 -92q0 -73 -33 -126t-96 -82l155 -262h-240zM290 392h155q40 0 63 18.5t23 56.5q0 30 -21 51.5t-67 21.5h-153v-148z" />
    <glyph glyph-name="rcaron" unicode="&#x159;" horiz-adv-x="454" 
d="M145 592l-135 166h177l46 -70l46 70h177l-135 -166h-176zM438 523l-20 -151q-31 9 -60 9q-44 0 -76 -21t-47 -54v-306h-192v519h155l15 -61q55 76 150 76q31 0 75 -11z" />
    <glyph glyph-name="Sacute" unicode="&#x15a;" horiz-adv-x="736" 
d="M328 901h209l-105 -148h-157zM185 6q-84 22 -143 58l68 148q46 -23 115.5 -40.5t132.5 -17.5q121 0 121 39q0 22 -31.5 34.5t-90.5 24.5q-16 2 -38 8q-85 19 -141 44.5t-88.5 72t-32.5 121.5q0 113 91 168.5t237 55.5q76 0 155 -18t140 -50l-65 -149q-55 22 -119.5 34
t-115.5 12q-56 0 -86.5 -11.5t-30.5 -32.5q0 -22 29 -33t84 -21l29 -6q134 -28 207.5 -79.5t73.5 -153.5q0 -116 -93 -173t-243 -57q-81 0 -165 22z" />
    <glyph glyph-name="sacute" unicode="&#x15b;" horiz-adv-x="587" 
d="M262 756h212l-116 -158h-152zM146 1q-67 17 -116 47l61 122q44 -22 96.5 -35.5t92.5 -13.5q66 0 66 29q0 12 -16 18.5t-66 20.5l-34 9q-61 16 -100.5 35.5t-62 52.5t-22.5 84q0 85 73.5 126.5t189.5 41.5q61 0 123.5 -13.5t112.5 -37.5l-53 -123q-31 15 -80 25t-86 10
q-70 0 -70 -25q0 -13 20 -21t87 -24q84 -21 135.5 -58t51.5 -114q0 -87 -75 -130t-193 -43q-68 0 -135 17z" />
    <glyph glyph-name="Scircumflex" unicode="&#x15c;" horiz-adv-x="736" 
d="M287 919h184l124 -161h-169l-47 70l-47 -70h-169zM185 6q-84 22 -143 58l68 148q46 -23 115.5 -40.5t132.5 -17.5q121 0 121 39q0 22 -31.5 34.5t-90.5 24.5q-16 2 -38 8q-85 19 -141 44.5t-88.5 72t-32.5 121.5q0 113 91 168.5t237 55.5q76 0 155 -18t140 -50l-65 -149
q-55 22 -119.5 34t-115.5 12q-56 0 -86.5 -11.5t-30.5 -32.5q0 -22 29 -33t84 -21l29 -6q134 -28 207.5 -79.5t73.5 -153.5q0 -116 -93 -173t-243 -57q-81 0 -165 22z" />
    <glyph glyph-name="scircumflex" unicode="&#x15d;" horiz-adv-x="587" 
d="M216 772h168l136 -174h-167l-53 87l-53 -87h-167zM146 1q-67 17 -116 47l61 122q44 -22 96.5 -35.5t92.5 -13.5q66 0 66 29q0 12 -16 18.5t-66 20.5l-34 9q-61 16 -100.5 35.5t-62 52.5t-22.5 84q0 85 73.5 126.5t189.5 41.5q61 0 123.5 -13.5t112.5 -37.5l-53 -123
q-31 15 -80 25t-86 10q-70 0 -70 -25q0 -13 20 -21t87 -24q84 -21 135.5 -58t51.5 -114q0 -87 -75 -130t-193 -43q-68 0 -135 17z" />
    <glyph glyph-name="Scedilla" unicode="&#x15e;" horiz-adv-x="736" 
d="M615.5 57.5q-70.5 -56.5 -189.5 -69.5l-10 -30q36 -4 66 -29.5t30 -68.5q0 -27 -17.5 -52t-50 -40.5t-76.5 -15.5q-30 0 -62 7t-56 23l23 76q9 -5 26 -9t32 -4q20 0 31.5 4.5t11.5 18.5q0 25 -53 25h-35l-3 45l15 48q-71 7 -139.5 27.5t-116.5 50.5l68 148
q46 -23 115.5 -40.5t131.5 -17.5q122 0 122 39q0 22 -31.5 34.5t-90.5 24.5q-16 2 -38 8q-68 15 -119.5 34.5t-85.5 53.5q-57 57 -57 150q0 113 91 168.5t237 55.5q76 0 155 -18t140 -50l-65 -149q-55 22 -119.5 34t-115.5 12q-56 0 -86.5 -11.5t-30.5 -32.5t25.5 -31
t80.5 -22l44 -9q85 -20 143.5 -46t94 -71t35.5 -114q0 -100 -70.5 -156.5z" />
    <glyph glyph-name="scedilla" unicode="&#x15f;" horiz-adv-x="587" 
d="M492.5 40q-56.5 -43 -149.5 -53l-10 -29q36 -2 66 -28.5t30 -70.5q0 -26 -17.5 -51t-50 -40.5t-76.5 -15.5q-30 0 -62 7t-56 23l23 76q9 -5 26 -9t32 -4q20 0 31.5 4.5t11.5 18.5q0 25 -53 25h-35l-3 45l16 50q-52 6 -100.5 21.5t-85.5 38.5l61 122q44 -22 96.5 -35.5
t92.5 -13.5q66 0 66 29q0 12 -16 18.5t-66 20.5l-34 9q-61 16 -100.5 35.5t-62 52.5t-22.5 84q0 85 73.5 126.5t189.5 41.5q61 0 123.5 -13.5t112.5 -37.5l-53 -123q-31 15 -80 25t-86 10q-70 0 -70 -25q0 -13 20 -21t87 -24q84 -21 135.5 -58t51.5 -114q0 -74 -56.5 -117z
" />
    <glyph glyph-name="Scaron" unicode="&#x160;" horiz-adv-x="736" 
d="M157 914h170l46 -70l46 70h170l-122 -161h-188zM185 6q-84 22 -143 58l68 148q46 -23 115.5 -40.5t132.5 -17.5q121 0 121 39q0 22 -31.5 34.5t-90.5 24.5q-16 2 -38 8q-85 19 -141 44.5t-88.5 72t-32.5 121.5q0 113 91 168.5t237 55.5q76 0 155 -18t140 -50l-65 -149
q-55 22 -119.5 34t-115.5 12q-56 0 -86.5 -11.5t-30.5 -32.5q0 -22 29 -33t84 -21l29 -6q134 -28 207.5 -79.5t73.5 -153.5q0 -116 -93 -173t-243 -57q-81 0 -165 22z" />
    <glyph glyph-name="scaron" unicode="&#x161;" horiz-adv-x="587" 
d="M79 758h177l46 -70l46 70h177l-135 -166h-176zM146 1q-67 17 -116 47l61 122q44 -22 96.5 -35.5t92.5 -13.5q66 0 66 29q0 12 -16 18.5t-66 20.5l-34 9q-61 16 -100.5 35.5t-62 52.5t-22.5 84q0 85 73.5 126.5t189.5 41.5q61 0 123.5 -13.5t112.5 -37.5l-53 -123
q-31 15 -80 25t-86 10q-70 0 -70 -25q0 -13 20 -21t87 -24q84 -21 135.5 -58t51.5 -114q0 -87 -75 -130t-193 -43q-68 0 -135 17z" />
    <glyph glyph-name="Tcaron" unicode="&#x164;" horiz-adv-x="678" 
d="M266 753l-122 161h170l46 -70l46 70h170l-122 -161h-188zM692 539h-233v-539h-204v539h-233v167h670v-167z" />
    <glyph glyph-name="tcaron" unicode="&#x165;" horiz-adv-x="499" 
d="M442 562h-111l16 235h170zM418 144l33 -123q-29 -15 -80 -26t-90 -11q-77 0 -121.5 23t-63.5 69.5t-19 121.5v181h-68v140h73l5 150h175v-150h154v-140h-154v-176q0 -40 15.5 -56.5t55.5 -16.5t85 14z" />
    <glyph glyph-name="Tbar" unicode="&#x166;" horiz-adv-x="726" 
d="M459 539v-119h141v-140h-141v-280h-204v280h-131v140h131v119h-233v167h670v-167h-233z" />
    <glyph glyph-name="tbar" unicode="&#x167;" horiz-adv-x="444" 
d="M451 21q-29 -15 -80 -26t-90 -11q-77 0 -121.5 23t-63.5 69.5t-19 121.5v1h-68v140h68v40h-68v140h73l5 150h175v-150h154v-140h-154v-40h154v-140h-154q0 -37 16.5 -53t54.5 -16q40 0 85 14z" />
    <glyph glyph-name="Utilde" unicode="&#x168;" horiz-adv-x="863" 
d="M483.5 770.5q-16.5 5.5 -35.5 15.5q-15 8 -24.5 11.5t-20.5 3.5q-26 0 -33 -32h-155q2 75 37 118.5t108 43.5q23 0 39 -5.5t35 -15.5q11 -5 22.5 -9.5t22.5 -4.5q27 0 34 31h155q-2 -75 -37 -118.5t-109 -43.5q-22 0 -38.5 5.5zM173 65q-98 81 -98 252v389h204v-404
q0 -58 35 -103t118 -45q84 0 119 45t35 103v404h204v-389q0 -171 -98.5 -252t-259.5 -81t-259 81z" />
    <glyph glyph-name="utilde" unicode="&#x169;" 
d="M267 591h-145q2 76 34.5 119t100.5 43q27 0 46 -5.5t41 -15.5q13 -5 26 -9.5t26 -4.5q27 0 34 31h145q-2 -75 -34.5 -118.5t-101.5 -43.5q-26 0 -45 5.5t-41 15.5q-17 8 -28.5 11.5t-24.5 3.5q-26 0 -33 -32zM621 519v-519h-165l-9 49q-40 -31 -83.5 -48t-97.5 -17
q-99 0 -152.5 57t-53.5 166v312h194v-281q0 -43 19.5 -71t62.5 -28q49 0 92 33v347h193z" />
    <glyph glyph-name="Umacron" unicode="&#x16a;" horiz-adv-x="863" 
d="M249 894h368v-131h-368v131zM173 65q-98 81 -98 252v389h204v-404q0 -58 35 -103t118 -45q84 0 119 45t35 103v404h204v-389q0 -171 -98.5 -252t-259.5 -81t-259 81z" />
    <glyph glyph-name="umacron" unicode="&#x16b;" 
d="M524 614h-366v127h366v-127zM621 519v-519h-165l-9 49q-40 -31 -83.5 -48t-97.5 -17q-99 0 -152.5 57t-53.5 166v312h194v-281q0 -43 19.5 -71t62.5 -28q49 0 92 33v347h193z" />
    <glyph glyph-name="Ubreve" unicode="&#x16c;" horiz-adv-x="863" 
d="M294.5 794q-54.5 41 -54.5 123h154q0 -25 9.5 -39.5t28.5 -14.5q20 0 29.5 15t9.5 39h154q0 -81 -55.5 -122.5t-137.5 -41.5q-83 0 -137.5 41zM173 65q-98 81 -98 252v389h204v-404q0 -58 35 -103t118 -45q84 0 119 45t35 103v404h204v-389q0 -171 -98.5 -252t-259.5 -81
t-259 81z" />
    <glyph glyph-name="ubreve" unicode="&#x16d;" 
d="M203.5 628q-55.5 42 -55.5 124h150q0 -25 10.5 -40.5t29.5 -15.5q20 0 30.5 15.5t10.5 40.5h150q0 -56 -27 -93t-70.5 -55t-93.5 -18q-79 0 -134.5 42zM621 519v-519h-165l-9 49q-40 -31 -83.5 -48t-97.5 -17q-99 0 -152.5 57t-53.5 166v312h194v-281q0 -43 19.5 -71
t62.5 -28q49 0 92 33v347h193z" />
    <glyph glyph-name="Uring" unicode="&#x16e;" horiz-adv-x="863" 
d="M340 752.5q-40 27.5 -40 84.5t40 85t93 28t93 -28t40 -85t-40 -84.5t-93 -27.5t-93 27.5zM401 837q0 -41 32 -41t32 41q0 22 -7.5 32t-24.5 10q-32 0 -32 -42zM173 65q-98 81 -98 252v389h204v-404q0 -58 35 -103t118 -45q84 0 119 45t35 103v404h204v-389
q0 -171 -98.5 -252t-259.5 -81t-259 81z" />
    <glyph glyph-name="uring" unicode="&#x16f;" 
d="M245 592.5q-39 28.5 -39 87.5t39 88t92 29t92 -29t39 -88t-39 -87.5t-92 -28.5t-92 28.5zM303 680q0 -44 34 -44q18 0 26 10.5t8 33.5t-8 34t-26 11q-34 0 -34 -45zM621 519v-519h-165l-9 49q-40 -31 -83.5 -48t-97.5 -17q-99 0 -152.5 57t-53.5 166v312h194v-281
q0 -43 19.5 -71t62.5 -28q49 0 92 33v347h193z" />
    <glyph glyph-name="Uhungarumlaut" unicode="&#x170;" horiz-adv-x="863" 
d="M257 922h199l-82 -168h-158zM503 922h199l-82 -168h-158zM173 65q-98 81 -98 252v389h204v-404q0 -58 35 -103t118 -45q84 0 119 45t35 103v404h204v-389q0 -171 -98.5 -252t-259.5 -81t-259 81z" />
    <glyph glyph-name="uhungarumlaut" unicode="&#x171;" horiz-adv-x="722" 
d="M283 598h-158l45 178h199zM529 598h-158l45 178h199zM621 519v-519h-165l-9 49q-40 -31 -83.5 -48t-97.5 -17q-99 0 -152.5 57t-53.5 166v312h194v-281q0 -43 19.5 -71t62.5 -28q49 0 92 33v347h193z" />
    <glyph glyph-name="Uogonek" unicode="&#x172;" horiz-adv-x="863" 
d="M790 706v-389q0 -123 -47 -191t-133 -109q-7 -3 -38 -17.5t-49.5 -34t-18.5 -43.5q0 -14 10 -24.5t31 -10.5t48 9l30 -114q-17 -13 -47 -22t-63 -9q-68 0 -108.5 35t-40.5 87q0 33 15.5 61.5t41.5 49.5q-156 3 -251 84.5t-95 248.5v389h204v-404q0 -58 35 -103t118 -45
q84 0 119 45t35 103v404h204z" />
    <glyph glyph-name="uogonek" unicode="&#x173;" horiz-adv-x="704" 
d="M646 -218q-17 -13 -47 -22t-63 -9q-68 0 -108.5 35t-40.5 87q0 39 21.5 71.5t56.5 55.5h-9l-9 49q-40 -31 -83.5 -48t-97.5 -17q-99 0 -152.5 57t-53.5 166v312h194v-281q0 -43 19.5 -71t62.5 -28q49 0 92 33v347h193v-519q-41 -15 -68 -33.5t-27 -46.5q0 -15 12 -24
t30 -9q21 0 48 9z" />
    <glyph glyph-name="Wcircumflex" unicode="&#x174;" horiz-adv-x="1043" 
d="M475 753h-169l124 161h184l124 -161h-169l-47 70zM1030 706l-170 -706h-232l-106 391l-107 -391h-232l-170 706h197l103 -462l112 408h193l112 -408l103 462h197z" />
    <glyph glyph-name="wcircumflex" unicode="&#x175;" horiz-adv-x="937" 
d="M419 598h-167l136 174h168l136 -174h-167l-53 87zM930 519l-170 -519h-219l-71 271l-71 -271h-222l-170 519h190l96 -319l89 319h181l88 -317l96 317h183z" />
    <glyph glyph-name="Ycircumflex" unicode="&#x176;" horiz-adv-x="680" 
d="M294 753h-169l124 161h184l124 -161h-169l-47 70zM682 706l-240 -478v-228h-204v228l-240 478h214l129 -285l136 285h205z" />
    <glyph glyph-name="ycircumflex" unicode="&#x177;" horiz-adv-x="677" 
d="M285 598h-167l136 174h168l136 -174h-167l-53 87zM617 519v-484q0 -54 -19 -103t-55 -86q-43 -45 -107.5 -65.5t-136.5 -20.5q-60 0 -120 13t-104 34l40 144q33 -16 80 -25t92 -9q73 0 106 25.5t37 90.5q-74 -49 -166 -49q-41 0 -82 15.5t-66 40.5q-58 56 -58 171v308
h194v-281q0 -43 19.5 -71t62.5 -28q51 0 90 31v349h193z" />
    <glyph glyph-name="Ydieresis" unicode="&#x178;" horiz-adv-x="680" 
d="M313 767h-166v161h166v-161zM534 767h-166v161h166v-161zM682 706l-240 -478v-228h-204v228l-240 478h214l129 -285l136 285h205z" />
    <glyph glyph-name="Zacute" unicode="&#x179;" horiz-adv-x="711" 
d="M406 753h-157l53 148h209zM675 167v-167h-639v140l343 399h-338v167h617v-142l-343 -397h360z" />
    <glyph glyph-name="zacute" unicode="&#x17a;" horiz-adv-x="622" 
d="M366 598h-152l56 158h212zM573 157v-157h-520v123l228 239h-216v157h494v-126l-232 -236h246z" />
    <glyph glyph-name="Zdotaccent" unicode="&#x17b;" horiz-adv-x="711" 
d="M449 771h-198v173h198v-173zM675 167v-167h-639v140l343 399h-338v167h617v-142l-343 -397h360z" />
    <glyph glyph-name="zdotaccent" unicode="&#x17c;" horiz-adv-x="622" 
d="M409 567h-191v139h191v-139zM573 157v-157h-520v123l228 239h-216v157h494v-126l-232 -236h246z" />
    <glyph glyph-name="Zcaron" unicode="&#x17d;" horiz-adv-x="711" 
d="M255 753l-122 161h170l46 -70l46 70h170l-122 -161h-188zM675 167v-167h-639v140l343 399h-338v167h617v-142l-343 -397h360z" />
    <glyph glyph-name="zcaron" unicode="&#x17e;" horiz-adv-x="622" 
d="M225 592l-135 166h177l46 -70l46 70h177l-135 -166h-176zM573 157v-157h-520v123l228 239h-216v157h494v-126l-232 -236h246z" />
    <glyph glyph-name="Scommaaccent" unicode="&#x218;" horiz-adv-x="736" 
d="M185 6q-84 22 -143 58l68 148q46 -23 115.5 -40.5t132.5 -17.5q121 0 121 39q0 22 -31.5 34.5t-90.5 24.5q-16 2 -38 8q-85 19 -141 44.5t-88.5 72t-32.5 121.5q0 113 91 168.5t237 55.5q76 0 155 -18t140 -50l-65 -149q-55 22 -119.5 34t-115.5 12q-56 0 -86.5 -11.5
t-30.5 -32.5q0 -22 29 -33t84 -21l29 -6q134 -28 207.5 -79.5t73.5 -153.5q0 -116 -93 -173t-243 -57q-81 0 -165 22zM290 -69h182l-36 -233h-156z" />
    <glyph glyph-name="scommaaccent" unicode="&#x219;" horiz-adv-x="587" 
d="M146 1q-67 17 -116 47l61 122q44 -22 96.5 -35.5t92.5 -13.5q66 0 66 29q0 12 -16 18.5t-66 20.5l-34 9q-61 16 -100.5 35.5t-62 52.5t-22.5 84q0 85 73.5 126.5t189.5 41.5q61 0 123.5 -13.5t112.5 -37.5l-53 -123q-31 15 -80 25t-86 10q-70 0 -70 -25q0 -13 20 -21
t87 -24q84 -21 135.5 -58t51.5 -114q0 -87 -75 -130t-193 -43q-68 0 -135 17zM209 -54h181l-31 -215h-161z" />
    <glyph glyph-name="uni021A" unicode="&#x21a;" horiz-adv-x="678" 
d="M692 539h-233v-539h-204v539h-233v167h670v-167zM263 -69h182l-58 -199h-156z" />
    <glyph glyph-name="uni021B" unicode="&#x21b;" horiz-adv-x="492" 
d="M371 -5q-51 -11 -90 -11q-77 0 -121.5 23t-63.5 69.5t-19 121.5v181h-68v140h73l5 150h175v-150h154v-140h-154v-176q0 -40 15.5 -56.5t55.5 -16.5t85 14l33 -123q-29 -15 -80 -26zM180 -60h181l-40 -208h-161z" />
    <glyph glyph-name="uni0237" unicode="&#x237;" horiz-adv-x="362" 
d="M-35 -89q40 5 62 12t36 21q17 17 22 34t5 43v498h193v-486q0 -125 -76 -201q-36 -37 -89.5 -55t-138.5 -19z" />
    <glyph glyph-name="circumflex" unicode="&#x2c6;" horiz-adv-x="527" 
d="M171 778h168l136 -174h-167l-53 87l-53 -87h-167z" />
    <glyph glyph-name="caron" unicode="&#x2c7;" horiz-adv-x="618" 
d="M86 758h177l46 -70l46 70h177l-135 -166h-176z" />
    <glyph glyph-name="breve" unicode="&#x2d8;" horiz-adv-x="453" 
d="M91.5 629q-55.5 42 -55.5 124h150q0 -25 10.5 -40.5t29.5 -15.5q20 0 30.5 15.5t10.5 40.5h150q0 -56 -27 -93t-70.5 -55t-93.5 -18q-79 0 -134.5 42z" />
    <glyph glyph-name="dotaccent" unicode="&#x2d9;" horiz-adv-x="302" 
d="M65 764h172v-160h-172v160z" />
    <glyph glyph-name="ring" unicode="&#x2da;" horiz-adv-x="358" 
d="M87 592.5q-39 28.5 -39 87.5t39 88t92 29t92 -29t39 -88t-39 -87.5t-92 -28.5t-92 28.5zM205 646.5q8 10.5 8 33.5t-8 34t-26 11q-34 0 -34 -45q0 -44 34 -44q18 0 26 10.5z" />
    <glyph glyph-name="ogonek" unicode="&#x2db;" horiz-adv-x="463" 
d="M148.5 -214q-40.5 35 -40.5 87q0 46 28.5 82t70 57t79.5 23l56 -35q-41 -15 -68 -33.5t-27 -46.5q0 -15 12 -24t30 -9q21 0 48 9l30 -114q-17 -13 -47 -22t-63 -9q-68 0 -108.5 35z" />
    <glyph glyph-name="tilde" unicode="&#x2dc;" horiz-adv-x="553" 
d="M322 605.5q-19 5.5 -41 15.5q-17 8 -28.5 11.5t-24.5 3.5q-26 0 -33 -32h-145q2 76 34.5 119t100.5 43q27 0 46 -5.5t41 -15.5q13 -5 26 -9.5t26 -4.5q27 0 34 31h145q-2 -75 -34.5 -118.5t-101.5 -43.5q-26 0 -45 5.5z" />
    <glyph glyph-name="hungarumlaut" unicode="&#x2dd;" horiz-adv-x="550" 
d="M77 782h199l-86 -178h-158zM323 782h199l-86 -178h-158z" />
    <glyph glyph-name="uni0394" unicode="&#x394;" horiz-adv-x="916" 
d="M58 37l313 685h174l313 -685v-150h-800v150zM665 57l-207 481l-206 -481h413z" />
    <glyph glyph-name="uni03A9" unicode="&#x3a9;" horiz-adv-x="858" 
d="M773.5 264q-24.5 -55 -73.5 -104h90v-160h-295v148q49 35 72 90t23 115q0 63 -21.5 107t-58 67t-81.5 23t-81.5 -23t-58 -67.5t-21.5 -106.5q0 -60 23 -115t72 -90v-148h-295v160h91q-49 49 -74 104t-25 125q0 107 50.5 182t134.5 113t184 38t184 -38t134.5 -113
t50.5 -182q0 -70 -24.5 -125z" />
    <glyph glyph-name="uni03BC" unicode="&#x3bc;" horiz-adv-x="732" 
d="M742 10q-29 -10 -68.5 -18t-77.5 -8q-87 0 -134 71q-41 -34 -85.5 -52.5t-98.5 -18.5q-18 0 -27 1v-217h-189v751h194v-281q0 -43 19.5 -71t62.5 -28q47 0 92 33v347h193v-324q0 -25 8.5 -39.5t28.5 -16.5q12 0 26 2.5t18 4.5z" />
    <glyph glyph-name="pi" unicode="&#x3c0;" horiz-adv-x="780" 
d="M770 42q-84 -49 -158 -49q-157 0 -157 173v202h-123v-368h-193v368q-42 0 -70 -32l-82 73q32 62 81.5 94t111.5 32h560v-167h-91v-153q0 -41 7.5 -59t29.5 -18q23 0 49 13z" />
    <glyph glyph-name="Wgrave" unicode="&#x1e80;" horiz-adv-x="1043" 
d="M445 750l-94 149h209l42 -149h-157zM1030 706l-170 -706h-232l-106 391l-107 -391h-232l-170 706h197l103 -462l112 408h193l112 -408l103 462h197z" />
    <glyph glyph-name="wgrave" unicode="&#x1e81;" horiz-adv-x="937" 
d="M389 598l-116 158h212l56 -158h-152zM930 519l-170 -519h-219l-71 271l-71 -271h-222l-170 519h190l96 -319l89 319h181l88 -317l96 317h183z" />
    <glyph glyph-name="Wacute" unicode="&#x1e82;" horiz-adv-x="1044" 
d="M601 747h-157l53 148h209zM1030 706l-170 -706h-232l-106 391l-107 -391h-232l-170 706h197l103 -462l112 408h193l112 -408l103 462h197z" />
    <glyph glyph-name="wacute" unicode="&#x1e83;" horiz-adv-x="937" 
d="M548 604h-152l56 158h212zM930 519l-170 -519h-219l-71 271l-71 -271h-222l-170 519h190l96 -319l89 319h181l88 -317l96 317h183z" />
    <glyph glyph-name="Wdieresis" unicode="&#x1e84;" horiz-adv-x="1043" 
d="M495 752h-166v161h166v-161zM716 752h-166v161h166v-161zM1030 706l-170 -706h-232l-106 391l-107 -391h-232l-170 706h197l103 -462l112 408h193l112 -408l103 462h197z" />
    <glyph glyph-name="wdieresis" unicode="&#x1e85;" horiz-adv-x="937" 
d="M437 592h-154v149h154v-149zM658 592h-154v149h154v-149zM930 519l-170 -519h-219l-71 271l-71 -271h-222l-170 519h190l96 -319l89 319h181l88 -317l96 317h183z" />
    <glyph glyph-name="Ygrave" unicode="&#x1ef2;" horiz-adv-x="680" 
d="M282 753l-94 149h209l42 -149h-157zM682 706l-240 -478v-228h-204v228l-240 478h214l129 -285l136 285h205z" />
    <glyph glyph-name="ygrave" unicode="&#x1ef3;" horiz-adv-x="677" 
d="M269 598l-116 158h212l56 -158h-152zM617 519v-484q0 -54 -19 -103t-55 -86q-43 -45 -107.5 -65.5t-136.5 -20.5q-60 0 -120 13t-104 34l40 144q33 -16 80 -25t92 -9q73 0 106 25.5t37 90.5q-74 -49 -166 -49q-41 0 -82 15.5t-66 40.5q-58 56 -58 171v308h194v-281
q0 -43 19.5 -71t62.5 -28q51 0 90 31v349h193z" />
    <glyph glyph-name="uni2009" unicode="&#x2009;" horiz-adv-x="75" 
 />
    <glyph glyph-name="endash" unicode="&#x2013;" horiz-adv-x="716" 
d="M58 401h600v-167h-600v167z" />
    <glyph glyph-name="emdash" unicode="&#x2014;" horiz-adv-x="956" 
d="M68 401h820v-167h-820v167z" />
    <glyph glyph-name="quoteleft" unicode="&#x2018;" horiz-adv-x="360" 
d="M86 536q0 39 25 95t103 97l56 -93q-44 -38 -52 -71h56v-178h-188v150z" />
    <glyph glyph-name="quoteright" unicode="&#x2019;" horiz-adv-x="360" 
d="M90 519q44 38 52 71h-56v178h188v-150q0 -39 -25 -95t-103 -97z" />
    <glyph glyph-name="quotesinglbase" unicode="&#x201a;" horiz-adv-x="360" 
d="M90 -71q44 38 52 71h-56v178h188v-150q0 -39 -25 -95t-103 -97z" />
    <glyph glyph-name="quotedblleft" unicode="&#x201c;" horiz-adv-x="591" 
d="M86 536q0 39 25 95t103 97l56 -93q-44 -38 -52 -71h56v-178h-188v150zM317 536q0 39 25 95t103 97l56 -93q-44 -38 -52 -71h56v-178h-188v150z" />
    <glyph glyph-name="quotedblright" unicode="&#x201d;" horiz-adv-x="591" 
d="M90 519q44 38 52 71h-56v178h188v-150q0 -39 -25 -95t-103 -97zM321 519q44 38 52 71h-56v178h188v-150q0 -39 -25 -95t-103 -97z" />
    <glyph glyph-name="quotedblbase" unicode="&#x201e;" horiz-adv-x="591" 
d="M90 -71q44 38 52 71h-56v178h188v-150q0 -39 -25 -95t-103 -97zM321 -71q44 38 52 71h-56v178h188v-150q0 -39 -25 -95t-103 -97z" />
    <glyph glyph-name="dagger" unicode="&#x2020;" horiz-adv-x="578" 
d="M506 351h-132v-468h-170v468h-132v150h132v161h170v-161h132v-150z" />
    <glyph glyph-name="daggerdbl" unicode="&#x2021;" horiz-adv-x="578" 
d="M374 351v-157h132v-150h-132v-161h-170v161h-132v150h132v157h-132v150h132v161h170v-161h132v-150h-132z" />
    <glyph glyph-name="bullet" unicode="&#x2022;" horiz-adv-x="609" 
d="M209 196q-43 26 -68.5 69.5t-25.5 95.5q0 51 25.5 95t68.5 69.5t95 25.5t95.5 -25.5t69 -69.5t25.5 -95q0 -52 -25.5 -95.5t-69 -69.5t-95.5 -26t-95 26z" />
    <glyph glyph-name="ellipsis" unicode="&#x2026;" horiz-adv-x="779" 
d="M1 178h188v-178h-188v178zM258 178h188v-178h-188v178zM514 178h188v-178h-188v178z" />
    <glyph glyph-name="perthousand" unicode="&#x2030;" horiz-adv-x="1393" 
d="M642 735h140l-441 -744h-140zM100.5 391.5q-47.5 55.5 -47.5 142.5t48 143.5t131 56.5t130.5 -56.5t47.5 -143.5t-48 -142.5t-131 -55.5t-130.5 55.5zM291 534q0 90 -59 90q-60 0 -60 -89t59 -89q60 0 60 88zM625.5 48q-47.5 56 -47.5 143t47.5 143t131.5 56
q83 0 130.5 -56t47.5 -143t-48 -143t-131 -56t-130.5 56zM1030.5 48q-47.5 56 -47.5 143t47.5 143t131.5 56q83 0 130.5 -56t47.5 -143t-48 -143t-131 -56t-130.5 56zM816 191q0 89 -60 89q-59 0 -59 -88q0 -90 59 -90q60 0 60 89zM1221 191q0 89 -60 89q-59 0 -59 -88
q0 -90 59 -90q60 0 60 89z" />
    <glyph glyph-name="guilsinglleft" unicode="&#x2039;" horiz-adv-x="431" 
d="M79 261l108 185h155l-89 -185l89 -184h-155z" />
    <glyph glyph-name="guilsinglright" unicode="&#x203a;" horiz-adv-x="431" 
d="M178 261l-89 185h155l108 -185l-108 -184h-155z" />
    <glyph glyph-name="fraction" unicode="&#x2044;" horiz-adv-x="331" 
d="M339 735h140l-441 -744h-140z" />
    <glyph glyph-name="uni2070" unicode="&#x2070;" horiz-adv-x="381" 
d="M60 539.5q-47 51.5 -47 142.5q0 90 47 141.5t130 51.5t130 -51.5t47 -141.5q0 -91 -47 -142.5t-130 -51.5t-130 51.5zM229 607.5q14 24.5 14 74.5q0 49 -14 73.5t-39 24.5t-39 -24.5t-14 -73.5q0 -50 14 -74.5t39 -24.5t39 24.5z" />
    <glyph glyph-name="uni2074" unicode="&#x2074;" horiz-adv-x="377" 
d="M358 557h-41v-64h-112v64h-182v102l166 209h128v-218h41v-93zM205 650v102l-81 -102h81z" />
    <glyph glyph-name="uni2075" unicode="&#x2075;" horiz-adv-x="345" 
d="M291 708.5q34 -34.5 34 -89.5q0 -61 -46.5 -96t-116.5 -35t-139 37l31 82q4 -1 24 -8t40 -11.5t37 -4.5q53 0 53 35q0 14 -11.5 23t-27.5 9q-20 0 -43 -15l-81 14l17 219h237v-97h-141l-3 -35q18 7 42 7q60 0 94 -34.5z" />
    <glyph glyph-name="uni2076" unicode="&#x2076;" horiz-adv-x="341" 
d="M65.5 542q-38.5 54 -38.5 139q0 75 36 127q22 31 56 49t78 18q29 0 62 -9.5t57 -22.5l-22 -83q-51 19 -90 19q-33 0 -59 -17.5t-26 -44.5q16 14 37.5 21.5t44.5 7.5q58 0 92.5 -34.5t34.5 -89.5q0 -63 -41 -98.5t-107 -35.5q-76 0 -114.5 54zM210 594q9 10 9 23
t-9.5 23.5t-26.5 10.5q-16 0 -25 -10.5t-9 -23.5t8.5 -23t25.5 -10q18 0 27 10z" />
    <glyph glyph-name="uni2077" unicode="&#x2077;" horiz-adv-x="304" 
d="M306 868v-83q-51 -55 -76.5 -128.5t-35.5 -163.5h-127q9 71 34.5 142.5t64.5 135.5h-137v97h277z" />
    <glyph glyph-name="uni2078" unicode="&#x2078;" horiz-adv-x="361" 
d="M317 658q20 -26 20 -58q0 -45 -38.5 -78.5t-118.5 -33.5t-118.5 33.5t-38.5 78.5q0 32 20.5 58t56.5 36q-29 9 -44.5 31t-15.5 47q0 49 41 76t99 27t99.5 -27t41.5 -76q0 -25 -15.5 -47t-44.5 -31q36 -10 56 -36zM156 780.5q-10 -6.5 -10 -18.5q0 -13 9.5 -19t24.5 -6
t25 6t10 19q0 12 -10 18.5t-25 6.5q-14 0 -24 -6.5zM212.5 589.5q12.5 7.5 12.5 21.5t-12.5 21.5t-32.5 7.5q-19 0 -31.5 -7.5t-12.5 -21.5t12.5 -21.5t31.5 -7.5q20 0 32.5 7.5z" />
    <glyph glyph-name="uni2079" unicode="&#x2079;" horiz-adv-x="352" 
d="M92 497.5q-33 9.5 -57 22.5l22 83q53 -20 91 -20q42 0 65 23q10 10 13.5 19.5t5.5 27.5q-30 -36 -82 -36q-58 0 -92.5 34.5t-34.5 89.5q0 63 41 98.5t107 35.5q74 0 114 -53q39 -51 39 -140q0 -76 -36 -128q-21 -31 -55.5 -48.5t-78.5 -17.5q-29 0 -62 9.5zM193 722.5
q9 10.5 9 23.5t-8.5 23t-25.5 10q-18 0 -27 -10t-9 -23t9.5 -23.5t26.5 -10.5q16 0 25 10.5z" />
    <glyph glyph-name="uni2080" unicode="&#x2080;" horiz-adv-x="381" 
d="M60 -122.5q-47 51.5 -47 142.5q0 90 47 141.5t130 51.5t130 -51.5t47 -141.5q0 -91 -47 -142.5t-130 -51.5t-130 51.5zM229 -54.5q14 24.5 14 74.5q0 49 -14 73.5t-39 24.5t-39 -24.5t-14 -73.5q0 -50 14 -74.5t39 -24.5t39 24.5z" />
    <glyph glyph-name="uni2081" unicode="&#x2081;" horiz-adv-x="263" 
d="M234 204v-373h-112v255l-63 -27l-37 90l124 55h88z" />
    <glyph glyph-name="uni2082" unicode="&#x2082;" horiz-adv-x="353" 
d="M170 -72h152v-97h-280v52q0 30 8.5 55t37.5 54q28 28 79 62q22 15 30 22t8 16q0 11 -12 18.5t-35 7.5q-45 0 -98 -31l-34 81q32 22 71 33.5t72 11.5q50 0 84.5 -15.5t51.5 -41t17 -53.5q0 -46 -33 -79q-16 -16 -57 -44q-7 -4 -21 -14q-36 -26 -41 -38z" />
    <glyph glyph-name="uni2083" unicode="&#x2083;" horiz-adv-x="316" 
d="M274.5 -145q-41.5 -29 -103.5 -29q-79 0 -145 45l38 78q54 -29 92 -29q17 0 30 7t13 20q0 14 -12.5 23t-40.5 9h-41v92h39q22 0 36 4.5t14 19.5q0 12 -13 17.5t-30 5.5q-31 0 -76 -15l-34 77q69 33 124 33q60 0 99.5 -28t39.5 -77q0 -24 -13 -45.5t-36 -33.5
q29 -13 45 -37.5t16 -55.5q0 -52 -41.5 -81z" />
    <glyph glyph-name="uni2084" unicode="&#x2084;" horiz-adv-x="377" 
d="M358 -105h-41v-64h-112v64h-182v102l166 209h128v-218h41v-93zM205 -12v102l-81 -102h81z" />
    <glyph glyph-name="uni2085" unicode="&#x2085;" horiz-adv-x="345" 
d="M291 46.5q34 -34.5 34 -89.5q0 -61 -46.5 -96t-116.5 -35t-139 37l31 82q4 -1 24 -8t40 -11.5t37 -4.5q53 0 53 35q0 14 -11.5 23t-27.5 9q-20 0 -43 -15l-81 14l17 219h237v-97h-141l-3 -35q18 7 42 7q60 0 94 -34.5z" />
    <glyph glyph-name="uni2086" unicode="&#x2086;" horiz-adv-x="341" 
d="M65.5 -120q-38.5 54 -38.5 139q0 75 36 127q22 31 56 49t78 18q29 0 62 -9.5t57 -22.5l-22 -83q-51 19 -90 19q-33 0 -58.5 -17.5t-26.5 -44.5q16 14 37.5 21.5t44.5 7.5q58 0 92.5 -34.5t34.5 -89.5q0 -63 -41 -98.5t-107 -35.5q-76 0 -114.5 54zM210 -68q9 10 9 23
t-9.5 23.5t-26.5 10.5q-16 0 -25 -10.5t-9 -23.5t8.5 -23t25.5 -10q18 0 27 10z" />
    <glyph glyph-name="uni2087" unicode="&#x2087;" horiz-adv-x="304" 
d="M306 206v-83q-51 -55 -76.5 -128.5t-35.5 -163.5h-127q9 71 34.5 142.5t64.5 135.5h-137v97h277z" />
    <glyph glyph-name="uni2088" unicode="&#x2088;" horiz-adv-x="361" 
d="M317 -4q20 -26 20 -58q0 -45 -38.5 -78.5t-118.5 -33.5t-118.5 33.5t-38.5 78.5q0 32 20.5 58t56.5 36q-29 9 -44.5 31t-15.5 47q0 49 41 76t99 27t99.5 -27t41.5 -76q0 -25 -15.5 -47t-44.5 -31q36 -10 56 -36zM156 118.5q-10 -6.5 -10 -18.5q0 -13 9.5 -19t24.5 -6
t25 6t10 19q0 12 -10 18.5t-25 6.5q-14 0 -24 -6.5zM212.5 -72.5q12.5 7.5 12.5 21.5t-12.5 21.5t-32.5 7.5q-19 0 -31.5 -7.5t-12.5 -21.5t12.5 -21.5t31.5 -7.5q20 0 32.5 7.5z" />
    <glyph glyph-name="uni2089" unicode="&#x2089;" horiz-adv-x="352" 
d="M92 -164.5q-33 9.5 -57 22.5l22 83q53 -20 91 -20q42 0 65 23q10 10 13.5 19.5t5.5 27.5q-30 -36 -82 -36q-58 0 -92.5 34.5t-34.5 89.5q0 63 41 98.5t107 35.5q74 0 114 -53q39 -51 39 -140q0 -76 -36 -128q-21 -31 -55.5 -48.5t-78.5 -17.5q-29 0 -62 9.5zM193 60.5
q9 10.5 9 23.5t-8.5 23t-25.5 10q-18 0 -27 -10t-9 -23t9.5 -23.5t26.5 -10.5q16 0 25 10.5z" />
    <glyph glyph-name="Euro" unicode="&#x20ac;" horiz-adv-x="680" 
d="M606 166l48 -141q-29 -17 -83 -29t-110 -12q-136 0 -219.5 59.5t-110.5 169.5h-94l25 102h55q-1 9 -1 26v25h-63l25 102h52q29 113 111.5 172.5t219.5 59.5q56 0 110 -12.5t83 -29.5l-48 -139q-59 16 -133 16q-51 0 -82 -17t-49 -50h251l-25 -102h-248q-1 -8 -1 -25
q0 -18 1 -26h242l-26 -102h-191q32 -63 128 -63q74 0 133 16z" />
    <glyph glyph-name="trademark" unicode="&#x2122;" horiz-adv-x="888" 
d="M36 707h300v-113h-87v-209h-126v209h-87v113zM823 707v-322h-121v169l-57 -169h-87l-58 170v-170h-121v322h174l48 -138l48 138h174z" />
    <glyph glyph-name="estimated" unicode="&#x212e;" horiz-adv-x="1060" 
d="M316.5 32q-96.5 48 -152.5 132t-56 188t56 188.5t152.5 133t213.5 48.5q114 0 210.5 -47t154 -132.5t57.5 -195.5v-20q0 -3 -1 -4t-6 -1h-659v-221q0 -2 3 -4q49 -34 110.5 -51.5t130.5 -17.5q99 0 181.5 35.5t131.5 100.5l34 -27q-58 -71 -149 -112t-198 -41
q-117 0 -213.5 48zM774 370v235q0 3 -3 4q-49 34 -110.5 52t-130.5 18t-130.5 -18t-111.5 -52q-2 -2 -2 -5v-234h488z" />
    <glyph glyph-name="uni2150" unicode="&#x2150;" horiz-adv-x="877" 
d="M745 735l-441 -744h-140l441 744h140zM136 430v158l-63 -27l-37 90l124 55h88v-276h75v-97h-264v97h77zM851 366v-83q-51 -55 -76.5 -128.5t-35.5 -163.5h-127q7 57 26 118q27 84 73 160h-137v97h277z" />
    <glyph glyph-name="uni2151" unicode="&#x2151;" horiz-adv-x="884" 
d="M745 735l-441 -744h-140l441 744h140zM136 430v158l-63 -27l-37 90l124 55h88v-276h75v-97h-264v97h77zM848 180q0 -76 -36 -128q-21 -31 -55.5 -48.5t-78.5 -17.5q-29 0 -62 9.5t-57 22.5l22 83q53 -20 91 -20q42 0 65 23q16 16 20 41l-1 6q-30 -36 -82 -36
q-58 0 -92.5 34.5t-34.5 89.5q0 63 41 98.5t107 35.5q74 0 114 -53q39 -51 39 -140zM717 220.5q9 10.5 9 23.5t-8.5 23t-25.5 10q-18 0 -27 -10t-9 -23t9.5 -23.5t26.5 -10.5q16 0 25 10.5z" />
    <glyph glyph-name="uni2153" unicode="&#x2153;" horiz-adv-x="884" 
d="M750 735l-441 -744h-140l441 744h140zM136 430v158l-63 -27l-37 90l124 55h88v-276h75v-97h-264v97h77zM853 96q0 -52 -41.5 -81t-103.5 -29q-79 0 -145 45l38 78q54 -29 92 -29q17 0 30 7t13 20q0 14 -12.5 23t-40.5 9h-41v92h39q22 0 36 4.5t14 19.5q0 12 -13 17.5
t-30 5.5q-31 0 -76 -15l-34 77q69 33 124 33q60 0 99.5 -28t39.5 -77q0 -24 -13 -46q-14 -22 -36 -33q27 -12 42 -33q19 -26 19 -60z" />
    <glyph glyph-name="uni2154" unicode="&#x2154;" horiz-adv-x="888" 
d="M755 735l-441 -744h-140l441 744h140zM203 578q8 7 8 16q0 11 -12 18.5t-35 7.5q-45 0 -98 -31l-34 81q32 22 71 33.5t72 11.5q50 0 84.5 -15.5t51.5 -41t17 -53.5q0 -46 -33 -79q-16 -16 -57 -44q-7 -4 -21 -14q-36 -26 -41 -38h152v-97h-280v52q0 30 8.5 55t37.5 54
q28 28 79 62q22 15 30 22zM858 96q0 -52 -41.5 -81t-103.5 -29q-79 0 -145 45l38 78q54 -29 92 -29q17 0 30 7t13 20q0 14 -12.5 23t-40.5 9h-41v92h39q22 0 36 4.5t14 19.5q0 12 -13 17.5t-30 5.5q-31 0 -76 -15l-34 77q69 33 124 33q60 0 99.5 -28t39.5 -77q0 -24 -13 -46
q-14 -22 -36 -33q27 -12 42 -33q19 -26 19 -60z" />
    <glyph glyph-name="uni2155" unicode="&#x2155;" horiz-adv-x="886" 
d="M745 735l-441 -744h-140l441 744h140zM136 430v158l-63 -27l-37 90l124 55h88v-276h75v-97h-264v97h77zM809 206.5q34 -34.5 34 -89.5q0 -61 -46.5 -96t-116.5 -35t-139 37l31 82q4 -1 24 -8t40 -11.5t37 -4.5q53 0 53 35q0 14 -11.5 23t-27.5 9q-20 0 -43 -15l-81 14
l17 219h237v-97h-141l-3 -35q18 7 42 7q60 0 94 -34.5z" />
    <glyph glyph-name="uni2156" unicode="&#x2156;" horiz-adv-x="878" 
d="M737 735l-441 -744h-140l441 744h140zM198 578q8 7 8 16q0 11 -12 18.5t-35 7.5q-45 0 -98 -31l-34 81q32 22 71 33.5t72 11.5q50 0 84.5 -15.5t51.5 -41t17 -53.5q0 -46 -33 -79q-16 -16 -57 -44q-7 -4 -21 -14q-36 -26 -41 -38h152v-97h-280v52q0 30 8.5 55t37.5 54
q28 28 79 62q22 15 30 22zM800 206.5q34 -34.5 34 -89.5q0 -61 -46.5 -96t-116.5 -35t-139 37l31 82q4 -1 24 -8t40 -11.5t37 -4.5q53 0 53 35q0 14 -11.5 23t-27.5 9q-20 0 -43 -15l-81 14l17 219h237v-97h-141l-3 -35q18 7 42 7q60 0 94 -34.5z" />
    <glyph glyph-name="uni2157" unicode="&#x2157;" horiz-adv-x="856" 
d="M715 735l-441 -744h-140l441 744h140zM184 429q13 7 13 20q0 14 -12.5 23t-40.5 9h-41v92h39q22 0 36 4.5t14 19.5q0 12 -13 17.5t-30 5.5q-31 0 -76 -15l-34 77q69 33 124 33q60 0 99.5 -28t39.5 -77q0 -24 -13 -46q-14 -22 -36 -33q27 -12 42 -33q19 -26 19 -60
q0 -52 -41.5 -81t-103.5 -29q-79 0 -145 45l38 78q54 -29 92 -29q17 0 30 7zM779 206.5q34 -34.5 34 -89.5q0 -61 -46.5 -96t-116.5 -35t-139 37l31 82q4 -1 24 -8t40 -11.5t37 -4.5q53 0 53 35q0 14 -11.5 23t-27.5 9q-20 0 -43 -15l-81 14l17 219h237v-97h-141l-3 -35
q18 7 42 7q60 0 94 -34.5z" />
    <glyph glyph-name="uni2158" unicode="&#x2158;" horiz-adv-x="906" 
d="M765 735l-441 -744h-140l441 744h140zM212 397h-182v102l166 209h128v-218h41v-93h-41v-64h-112v64zM212 490v102l-81 -102h81zM829 206.5q34 -34.5 34 -89.5q0 -61 -46.5 -96t-116.5 -35t-139 37l31 82q4 -1 24 -8t40 -11.5t37 -4.5q53 0 53 35q0 14 -11.5 23t-27.5 9
q-20 0 -43 -15l-81 14l17 219h237v-97h-141l-3 -35q18 7 42 7q60 0 94 -34.5z" />
    <glyph glyph-name="uni2159" unicode="&#x2159;" horiz-adv-x="893" 
d="M745 735l-441 -744h-140l441 744h140zM136 430v158l-63 -27l-37 90l124 55h88v-276h75v-97h-264v97h77zM808.5 209.5q34.5 -34.5 34.5 -89.5q0 -63 -41 -98.5t-107 -35.5q-76 0 -114.5 54t-38.5 139q0 75 36 127q22 31 56 49t78 18q29 0 62 -9.5t57 -22.5l-22 -83
q-51 19 -90 19q-20 0 -39 -7t-31 -20q-9 -9 -13 -20q-2 -7 -2 -15q16 14 37.5 21.5t44.5 7.5q58 0 92.5 -34.5zM725 92q9 10 9 23t-9.5 23.5t-26.5 10.5q-16 0 -25 -10.5t-9 -23.5t8.5 -23t25.5 -10q18 0 27 10z" />
    <glyph glyph-name="uni215A" unicode="&#x215a;" horiz-adv-x="888" 
d="M740 735l-441 -744h-140l441 744h140zM214 458q0 14 -11.5 23t-27.5 9q-20 0 -43 -15l-81 14l17 219h237v-97h-141l-3 -35q18 7 42 7q60 0 94 -34.5t34 -89.5q0 -61 -46.5 -96t-116.5 -35t-139 37l31 82q4 -1 24 -8t40 -11.5t37 -4.5q53 0 53 35zM803.5 209.5
q34.5 -34.5 34.5 -89.5q0 -63 -41 -98.5t-107 -35.5q-76 0 -114.5 54t-38.5 139q0 75 36 127q22 31 56 49t78 18q29 0 62 -9.5t57 -22.5l-22 -83q-51 19 -90 19q-20 0 -39 -7t-31 -20q-9 -9 -13 -20q-2 -7 -2 -15q16 14 37.5 21.5t44.5 7.5q58 0 92.5 -34.5zM720 92
q9 10 9 23t-9.5 23.5t-26.5 10.5q-16 0 -25 -10.5t-9 -23.5t8.5 -23t25.5 -10q18 0 27 10z" />
    <glyph glyph-name="oneeighth" unicode="&#x215b;" horiz-adv-x="876" 
d="M750 735l-441 -744h-140l441 744h140zM136 430v158l-63 -27l-37 90l124 55h88v-276h75v-97h-264v97h77zM833 156q20 -26 20 -58q0 -45 -38.5 -78.5t-118.5 -33.5t-118.5 33.5t-38.5 78.5q0 32 20.5 58t56.5 36q-29 9 -44.5 31t-15.5 47q0 49 41 76t99 27t99.5 -27
t41.5 -76q0 -25 -15.5 -47t-44.5 -31q36 -10 56 -36zM672 278.5q-10 -6.5 -10 -18.5q0 -13 9.5 -19t24.5 -6t25 6t10 19q0 12 -10 18.5t-25 6.5q-14 0 -24 -6.5zM728.5 87.5q12.5 7.5 12.5 21.5t-12.5 21.5t-32.5 7.5q-19 0 -31.5 -7.5t-12.5 -21.5t12.5 -21.5t31.5 -7.5
q20 0 32.5 7.5z" />
    <glyph glyph-name="threeeighths" unicode="&#x215c;" horiz-adv-x="859" 
d="M726 735l-441 -744h-140l441 744h140zM184 429q13 7 13 20q0 14 -12.5 23t-40.5 9h-41v92h39q22 0 36 4.5t14 19.5q0 12 -13 17.5t-30 5.5q-31 0 -76 -15l-34 77q69 33 124 33q60 0 99.5 -28t39.5 -77q0 -24 -13 -46q-14 -22 -36 -33q27 -12 42 -33q19 -26 19 -60
q0 -52 -41.5 -81t-103.5 -29q-79 0 -145 45l38 78q54 -29 92 -29q17 0 30 7zM816 156q20 -26 20 -58q0 -45 -38.5 -78.5t-118.5 -33.5t-118.5 33.5t-38.5 78.5q0 32 20.5 58t56.5 36q-29 9 -44.5 31t-15.5 47q0 49 41 76t99 27t99.5 -27t41.5 -76q0 -25 -15.5 -47t-44.5 -31
q36 -10 56 -36zM655 278.5q-10 -6.5 -10 -18.5q0 -13 9.5 -19t24.5 -6t25 6t10 19q0 12 -10 18.5t-25 6.5q-14 0 -24 -6.5zM711.5 87.5q12.5 7.5 12.5 21.5t-12.5 21.5t-32.5 7.5q-19 0 -31.5 -7.5t-12.5 -21.5t12.5 -21.5t31.5 -7.5q20 0 32.5 7.5z" />
    <glyph glyph-name="fiveeighths" unicode="&#x215d;" horiz-adv-x="843" 
d="M707 735l-441 -744h-140l441 744h140zM197 458q0 14 -11.5 23t-27.5 9q-21 0 -43 -15l-81 14l17 219h237v-97h-141l-3 -35q18 7 42 7q60 0 94 -34.5t34 -89.5q0 -61 -46.5 -96t-116.5 -35t-139 37l31 82q4 -1 24 -8t40 -11.5t37 -4.5q53 0 53 35zM800 156q20 -26 20 -58
q0 -45 -38.5 -78.5t-118.5 -33.5t-118.5 33.5t-38.5 78.5q0 32 20.5 58t56.5 36q-29 9 -44.5 31t-15.5 47q0 49 41 76t99 27t99.5 -27t41.5 -76q0 -25 -15.5 -47t-44.5 -31q36 -10 56 -36zM639 278.5q-10 -6.5 -10 -18.5q0 -13 9.5 -19t24.5 -6t25 6t10 19q0 12 -10 18.5
t-25 6.5q-14 0 -24 -6.5zM695.5 87.5q12.5 7.5 12.5 21.5t-12.5 21.5t-32.5 7.5q-19 0 -31.5 -7.5t-12.5 -21.5t12.5 -21.5t31.5 -7.5q20 0 32.5 7.5z" />
    <glyph glyph-name="seveneighths" unicode="&#x215e;" horiz-adv-x="806" 
d="M667 735l-441 -744h-140l441 744h140zM96 451q27 84 73 160h-137v97h277v-83q-51 -55 -76.5 -128.5t-35.5 -163.5h-127q7 57 26 118zM764 156q20 -26 20 -58q0 -45 -38.5 -78.5t-118.5 -33.5t-118.5 33.5t-38.5 78.5q0 32 20.5 58t56.5 36q-29 9 -44.5 31t-15.5 47
q0 49 41 76t99 27t99.5 -27t41.5 -76q0 -25 -15.5 -47t-44.5 -31q36 -10 56 -36zM603 278.5q-10 -6.5 -10 -18.5q0 -13 9.5 -19t24.5 -6t25 6t10 19q0 12 -10 18.5t-25 6.5q-14 0 -24 -6.5zM659.5 87.5q12.5 7.5 12.5 21.5t-12.5 21.5t-32.5 7.5q-19 0 -31.5 -7.5
t-12.5 -21.5t12.5 -21.5t31.5 -7.5q20 0 32.5 7.5z" />
    <glyph glyph-name="partialdiff" unicode="&#x2202;" horiz-adv-x="702" 
d="M656 368q0 -104 -39 -192t-113 -140t-174 -52q-73 0 -136.5 31.5t-102.5 93.5t-39 147q0 73 32 133.5t89.5 95.5t130.5 35q53 0 96 -18t69 -53q-9 53 -32 89q-39 63 -121.5 97.5t-186.5 47.5l32 146q124 -1 243 -52t183 -143q69 -100 69 -266zM414.5 171q32.5 29 32.5 81
q0 56 -31 84t-76 28t-75.5 -28t-30.5 -84q0 -55 30.5 -82.5t75.5 -27.5q42 0 74.5 29z" />
    <glyph glyph-name="product" unicode="&#x220f;" horiz-adv-x="975" 
d="M910 539h-88v-641h-202v641h-265v-641h-202v641h-88v167h845v-167z" />
    <glyph glyph-name="summation" unicode="&#x2211;" horiz-adv-x="701" 
d="M636 536h-330l135 -234l-135 -234h330v-170h-571v131l171 273l-171 273v131h571v-170z" />
    <glyph glyph-name="minus" unicode="&#x2212;" horiz-adv-x="676" 
d="M86 427h504v-155h-504v155z" />
    <glyph glyph-name="radical" unicode="&#x221a;" horiz-adv-x="802" 
d="M783 734l-291 -847h-222l-136 384h-102v170h232l114 -338l205 631h200z" />
    <glyph glyph-name="infinity" unicode="&#x221e;" horiz-adv-x="873" 
d="M152.5 128.5q-41.5 24.5 -64.5 65t-23 88.5t23 88.5t64.5 65t95.5 24.5q61 0 105 -25.5t83 -70.5q38 45 83 70.5t106 25.5q54 0 95.5 -24.5t64.5 -65t23 -88.5t-23 -88.5t-64.5 -65t-95.5 -24.5q-61 0 -106 25.5t-83 69.5q-38 -44 -82.5 -69.5t-105.5 -25.5
q-54 0 -95.5 24.5zM309 232.5q23 17.5 48 49.5q-25 32 -48 49t-50 17t-48 -18.5t-21 -47.5t21 -48t48 -19t50 17.5zM662 234q21 19 21 48t-21 47.5t-48 18.5t-50 -17t-48 -49q25 -32 48 -49.5t50 -17.5t48 19z" />
    <glyph glyph-name="integral" unicode="&#x222b;" horiz-adv-x="441" 
d="M22 -179v162q7 -2 22.5 -3.5t27.5 -1.5q38 0 53.5 16t15.5 56q0 28 -18 232q-20 222 -20 264q0 74 10 112.5t32 64.5q27 32 71.5 47.5t96.5 15.5q60 0 106 -23v-162q-27 5 -50 5q-37 0 -52.5 -16t-15.5 -56q0 -28 18 -234q2 -23 10.5 -126.5t8.5 -135.5q0 -75 -9.5 -113
t-31.5 -65q-27 -33 -71.5 -48t-96.5 -15q-63 0 -107 24z" />
    <glyph glyph-name="approxequal" unicode="&#x2248;" horiz-adv-x="732" 
d="M390.5 343.5q-24.5 9.5 -56.5 28.5q-21 13 -35 19.5t-30 6.5q-25 0 -40.5 -12.5t-25 -25.5t-12.5 -17l-105 64q30 60 79 101.5t118 41.5q35 0 60.5 -10.5t55.5 -28.5q23 -14 36 -20t28 -6q27 0 42 12t23.5 25.5t12.5 18.5l105 -64q-73 -143 -196 -143q-35 0 -59.5 9.5z
M390.5 98.5q-24.5 9.5 -56.5 28.5q-21 13 -35 19.5t-30 6.5q-25 0 -40.5 -12.5t-25 -25.5t-12.5 -17l-105 64q30 60 79 101.5t118 41.5q35 0 60.5 -10.5t55.5 -28.5q23 -14 36 -20t28 -6q27 0 42 12t23.5 25.5t12.5 18.5l105 -64q-73 -143 -196 -143q-35 0 -59.5 9.5z" />
    <glyph glyph-name="notequal" unicode="&#x2260;" horiz-adv-x="676" 
d="M439 361l-27 -88h178v-154h-226l-22 -72h-176l22 72h-102v154h150l27 88h-177v155h225l22 71h176l-22 -71h103v-155h-151z" />
    <glyph glyph-name="lessequal" unicode="&#x2264;" horiz-adv-x="658" 
d="M86 391v180l486 163v-173l-298 -81l298 -78v-174zM86 200h486v-154h-486v154z" />
    <glyph glyph-name="greaterequal" unicode="&#x2265;" horiz-adv-x="658" 
d="M86 402l298 78l-298 81v173l486 -163v-180l-486 -163v174zM86 200h486v-154h-486v154z" />
    <glyph glyph-name="lozenge" unicode="&#x25ca;" horiz-adv-x="819" 
d="M65 304l240 418h210l239 -418l-239 -417h-210zM549 304l-139 249l-139 -249l139 -248z" />
    <glyph glyph-name="NULL" horiz-adv-x="0" 
 />
    <glyph glyph-name="J.loclNLD" horiz-adv-x="558" 
d="M361 910h209l-105 -148h-157zM124.5 6.5q-65.5 22.5 -101.5 51.5l71 138q74 -35 129 -35q48 0 67 26t19 77v442h204v-489q0 -113 -70.5 -173t-190.5 -60q-62 0 -127.5 22.5z" />
    <glyph glyph-name="i.loclTRK" horiz-adv-x="321" 
d="M65 706h191v-137h-191v137zM65 519h191v-519h-191v519z" />
    <glyph glyph-name="a.alt" horiz-adv-x="685" 
d="M627 519v-519h-157l-10 60q-31 -38 -75 -57t-95 -19q-81 0 -137 38t-83 101t-27 138t27 138t83 101t137 38q53 0 98 -20.5t77 -60.5l3 62h159zM412.5 176q25.5 33 25.5 85t-25.5 85t-78.5 33t-78.5 -33t-25.5 -85t25 -85t79 -33q53 0 78.5 33z" />
    <glyph glyph-name="j.loclNLD" horiz-adv-x="352" 
d="M163 727h212l-116 -158h-152zM-35 -89q40 5 62 12t36 21q17 17 22 34t5 43v498h193v-486q0 -125 -76 -201q-36 -37 -89.5 -55t-138.5 -19z" />
    <glyph glyph-name="f_f" horiz-adv-x="794" 
d="M636 573q-9 -9 -12.5 -22t-3.5 -32h139v-140h-139v-379h-185v379h-156v-379h-185v379h-58v140h58q2 43 7 71q14 73 73 103.5t138 30.5q38 0 74 -5.5t55 -11.5l-33 -124q-23 7 -55 7q-41 0 -58 -17q-9 -9 -12.5 -22t-3.5 -32h156q2 43 7 71q14 73 73 103.5t138 30.5
q44 0 85.5 -7t60.5 -14l-31 -123q-42 10 -74 10q-41 0 -58 -17z" />
    <glyph glyph-name="f_f_i" horiz-adv-x="1027" 
d="M962 519v-519h-185v379h-156v-379h-185v379h-156v-379h-185v379h-59v140h59q2 43 7 71q14 73 73 103.5t138 30.5q38 0 73.5 -5.5t54.5 -11.5l-33 -124q-21 7 -54 7q-41 0 -58 -17q-10 -9 -13 -21.5t-3 -32.5h156q0 42 8.5 74.5t38.5 62.5q38 38 88.5 53t118.5 15
q92 0 182 -23l-32 -126q-64 16 -121 16q-60 0 -83 -23q-15 -16 -15 -49h341z" />
    <glyph glyph-name="f_f_j" horiz-adv-x="1042" 
d="M964 519v-557q0 -121 -71 -202q-37 -36 -96 -55t-137 -16l-14 151q51 4 76 11.5t39 21.5q17 17 22 34t5 43v429h-162v-379h-185v379h-162v-379h-185v379h-58v140h58q2 43 7 71q14 73 73 103.5t138 30.5q38 0 74 -5.5t55 -11.5l-33 -124q-23 7 -55 7q-41 0 -58 -17
q-9 -9 -12.5 -22t-3.5 -32h162q0 40 9 73.5t39 63.5q38 38 88.5 53t117.5 15q92 0 182 -23l-32 -126q-21 6 -54.5 11t-66.5 5q-60 0 -83 -23q-15 -16 -15 -49h338z" />
    <glyph glyph-name="f_f_l" horiz-adv-x="1075" 
d="M515 693.5q59 30.5 138 30.5q44 0 85.5 -7t60.5 -14l-31 -123q-42 10 -74 10q-41 0 -58 -17q-9 -9 -12.5 -22t-3.5 -32h126v-140h-126v-379h-185v379h-156v-379h-185v379h-58v140h58q2 43 7 71q14 73 73 103.5t138 30.5q38 0 74 -5.5t55 -11.5l-33 -124q-23 7 -55 7
q-41 0 -58 -17q-9 -9 -12.5 -22t-3.5 -32h156q2 43 7 71q14 73 73 103.5zM1013 706v-706h-185v706h185z" />
    <glyph glyph-name="f_i" horiz-adv-x="686" 
d="M621 519v-519h-185v379h-156v-379h-185v379h-59v140h59q0 42 8.5 74.5t38.5 62.5q38 38 88.5 53t118.5 15q92 0 182 -23l-32 -126q-64 16 -121 16q-60 0 -83 -23q-9 -9 -12 -20.5t-3 -28.5h341z" />
    <glyph glyph-name="f_j" horiz-adv-x="706" 
d="M628 519v-557q0 -121 -71 -202q-37 -36 -96 -55t-137 -16l-14 151q48 4 70.5 11.5t35.5 21.5q17 17 22 34t5 43v429h-159v-379h-185v379h-63v140h63q0 40 9 73.5t39 63.5q40 38 93 53t123 15q87 0 172 -23l-32 -126q-21 6 -54.5 11t-66.5 5q-60 0 -83 -23
q-15 -16 -15 -49h344z" />
    <glyph glyph-name="f_l" horiz-adv-x="737" 
d="M174 693.5q59 30.5 138 30.5q44 0 85.5 -7t60.5 -14l-31 -123q-42 10 -74 10q-41 0 -58 -17q-9 -9 -12.5 -22t-3.5 -32h136v-140h-136v-379h-185v379h-58v140h58q2 43 7 71q14 73 73 103.5zM675 706v-706h-185v706h185z" />
    <glyph glyph-name="t_t" horiz-adv-x="758" 
d="M765 21q-29 -15 -80 -26t-90 -11q-101 0 -147 49q-76 -49 -177 -49q-77 0 -121.5 23t-63.5 69.5t-19 121.5v181h-58v140h63l5 150h175v-150h144l5 150h175v-150h154v-140h-154v-176q0 -40 15.5 -56.5t55.5 -16.5t85 14zM393 149q-2 32 -2 49v181h-139v-176
q0 -40 15.5 -56.5t55.5 -16.5q36 0 70 19z" />
    <glyph glyph-name="one.dnomalt" horiz-adv-x="306" 
d="M300 90v-97h-264v97h77v158l-63 -27l-37 90l124 55h88v-276h75z" />
    <glyph glyph-name="zero.lf" horiz-adv-x="716" 
d="M128 86.5q-82 95.5 -82 263.5t82 263t230 95t230 -95t82 -263t-82 -263.5t-230 -95.5t-230 95.5zM445.5 200q31.5 49 31.5 150t-31.5 149.5t-87.5 48.5t-87 -48.5t-31 -149.5t31 -150t87 -49t87.5 49z" />
    <glyph glyph-name="one.lf" horiz-adv-x="510" 
d="M402 701v-701h-183v493l-119 -49l-65 148l237 109h130z" />
    <glyph glyph-name="two.lf" horiz-adv-x="652" 
d="M582 155v-155h-514v76q0 78 19 125t65 93q28 28 61.5 52t80.5 54l35 23q54 34 54 66q0 29 -23.5 44t-58.5 15q-45 0 -91 -15t-107 -45l-43 146q125 74 257 74q70 0 128 -22t92.5 -67t34.5 -109q0 -48 -15 -84.5t-46 -67.5q-21 -21 -46.5 -40.5t-66.5 -47.5q-4 -2 -38 -26
l-18 -13q-39 -27 -56.5 -43.5t-17.5 -32.5h314z" />
    <glyph glyph-name="three.lf" horiz-adv-x="608" 
d="M529.5 290.5q32.5 -48.5 32.5 -102.5q0 -55 -32 -100t-91 -71t-137 -26q-72 0 -140 22t-127 67l72 128q49 -30 86.5 -45.5t86.5 -15.5q40 0 65 15.5t25 48.5q0 37 -35 55t-83 18h-72v153h55q52 0 87 10.5t35 42.5q0 23 -23.5 40t-68.5 17q-56 0 -138 -40l-68 122
q58 42 113.5 60.5t118.5 18.5q64 0 120.5 -23t91 -67.5t34.5 -104.5q0 -43 -23.5 -82.5t-72.5 -64.5q56 -27 88.5 -75.5z" />
    <glyph glyph-name="four.lf" horiz-adv-x="670" 
d="M633 129h-82v-130h-183v130h-331v137l347 429h167v-419h82v-147zM368 276v178l-144 -178h144z" />
    <glyph glyph-name="five.lf" horiz-adv-x="631" 
d="M474 430.5q52 -28.5 79.5 -79.5t27.5 -117q0 -76 -37 -131t-102.5 -83.5t-149.5 -28.5q-133 0 -257 73l57 135q40 -20 95 -35.5t101 -15.5q47 0 75.5 20.5t28.5 61.5q0 34 -23 56.5t-64 22.5q-46 0 -85 -26l-144 26l31 386h428v-155h-270l-10 -104q45 23 97 23
q70 0 122 -28.5z" />
    <glyph glyph-name="six.lf" horiz-adv-x="631" 
d="M161.5 38q-63.5 47 -94 127.5t-30.5 182.5q0 68 17 128.5t50 108.5q41 58 103.5 90.5t144.5 32.5q55 0 116.5 -17.5t105.5 -41.5l-42 -138q-34 16 -78.5 27t-87.5 11q-78 0 -125 -39t-48 -110q28 31 73 50t93 19q71 0 125 -29.5t83 -81.5t29 -118q0 -78 -35.5 -134.5
t-98 -85.5t-141.5 -29q-96 0 -159.5 47zM393.5 172q22.5 24 22.5 58t-22.5 58.5t-67.5 24.5q-41 0 -63.5 -25t-22.5 -58t22 -57.5t64 -24.5q45 0 67.5 24z" />
    <glyph glyph-name="seven.lf" horiz-adv-x="567" 
d="M538 695v-135q-98 -113 -152 -257t-73 -303h-211q19 135 76 272t141 268h-293v155h512z" />
    <glyph glyph-name="eight.lf" horiz-adv-x="660" 
d="M579.5 306q37.5 -48 37.5 -107q0 -52 -29.5 -99.5t-94 -78t-163.5 -30.5t-163.5 30.5t-94 78t-29.5 99.5q0 59 37.5 107t102.5 67q-53 18 -81.5 58t-28.5 86q0 61 36 104t94.5 65t126.5 22t126.5 -22t94.5 -65t36 -104q0 -46 -28.5 -86t-81.5 -58q65 -19 102.5 -67z
M249 498q0 -58 81 -58q82 0 82 58q0 59 -82 59q-81 0 -81 -59zM406 168q27 17 27 50q0 34 -27 51t-76 17t-76 -17t-27 -51q0 -33 27.5 -50t75.5 -17q49 0 76 17z" />
    <glyph glyph-name="nine.lf" horiz-adv-x="625" 
d="M166 5.5q-58 14.5 -104 36.5l37 133q37 -16 82.5 -25.5t88.5 -9.5q118 0 151 85q12 28 12 56q0 13 -4 29q-25 -34 -68.5 -55.5t-96.5 -21.5q-73 0 -125 30t-78 79.5t-26 109.5q0 78 36 136t97 89t133 31q155 0 226 -116q61 -99 61 -255q0 -88 -28.5 -166t-96 -129
t-177.5 -51q-62 0 -120 14.5zM360.5 410.5q22.5 24.5 22.5 58.5q0 33 -22 57.5t-65 24.5q-44 0 -66.5 -24.5t-22.5 -57.5q0 -35 22.5 -59t66.5 -24q42 0 64.5 24.5z" />
    <glyph glyph-name="zero.num" horiz-adv-x="381" 
d="M60 379.5q-47 51.5 -47 142.5q0 90 47 141.5t130 51.5t130 -51.5t47 -141.5q0 -91 -47 -142.5t-130 -51.5t-130 51.5zM229 447.5q14 24.5 14 74.5q0 49 -14 73.5t-39 24.5t-39 -24.5t-14 -73.5q0 -50 14 -74.5t39 -24.5t39 24.5z" />
    <glyph glyph-name="one.num" horiz-adv-x="263" 
d="M234 706v-373h-112v255l-63 -27l-37 90l124 55h88z" />
    <glyph glyph-name="two.num" horiz-adv-x="353" 
d="M170 430h152v-97h-280v52q0 30 8.5 55t37.5 54q28 28 79 62q22 15 30 22t8 16q0 11 -12 18.5t-35 7.5q-45 0 -98 -31l-34 81q32 22 71 33.5t72 11.5q50 0 84.5 -15.5t51.5 -41t17 -53.5q0 -46 -33 -79q-16 -16 -57 -44q-7 -4 -21 -14q-36 -26 -41 -38z" />
    <glyph glyph-name="three.num" horiz-adv-x="345" 
d="M274.5 357q-41.5 -29 -103.5 -29q-79 0 -145 45l38 78q54 -29 92 -29q17 0 30 7t13 20q0 14 -12.5 23t-40.5 9h-41v92h39q22 0 36 4.5t14 19.5q0 12 -13 17.5t-30 5.5q-31 0 -76 -15l-34 77q69 33 124 33q60 0 99.5 -28t39.5 -77q0 -24 -13 -45.5t-36 -33.5
q29 -13 45 -37.5t16 -55.5q0 -52 -41.5 -81z" />
    <glyph glyph-name="four.num" horiz-adv-x="377" 
d="M358 397h-41v-64h-112v64h-182v102l166 209h128v-218h41v-93zM205 490v102l-81 -102h81z" />
    <glyph glyph-name="five.num" horiz-adv-x="353" 
d="M291 548.5q34 -34.5 34 -89.5q0 -61 -46.5 -96t-116.5 -35t-139 37l31 82q4 -1 24 -8t40 -11.5t37 -4.5q53 0 53 35q0 14 -11.5 23t-27.5 9q-20 0 -43 -15l-81 14l17 219h237v-97h-141l-3 -35q18 7 42 7q60 0 94 -34.5z" />
    <glyph glyph-name="six.num" horiz-adv-x="352" 
d="M65.5 382q-38.5 54 -38.5 139q0 75 36 127q22 31 56 49t78 18q29 0 62 -9.5t57 -22.5l-22 -83q-51 19 -90 19q-33 0 -58 -17.5t-27 -44.5q16 14 37.5 21.5t44.5 7.5q58 0 92.5 -34.5t34.5 -89.5q0 -63 -41 -98.5t-107 -35.5q-76 0 -114.5 54zM210 434q9 10 9 23
t-9.5 23.5t-26.5 10.5q-16 0 -25 -10.5t-9 -23.5t8.5 -23t25.5 -10q18 0 27 10z" />
    <glyph glyph-name="seven.num" horiz-adv-x="326" 
d="M306 708v-83q-51 -55 -76.5 -128.5t-35.5 -163.5h-127q7 57 26 118q27 84 73 160h-137v97h277z" />
    <glyph glyph-name="eight.num" horiz-adv-x="361" 
d="M317 498q20 -26 20 -58q0 -45 -38.5 -78.5t-118.5 -33.5t-118.5 33.5t-38.5 78.5q0 32 20.5 58t56.5 36q-29 9 -44.5 31t-15.5 47q0 49 41 76t99 27t99.5 -27t41.5 -76q0 -25 -15.5 -47t-44.5 -31q36 -10 56 -36zM156 620.5q-10 -6.5 -10 -18.5q0 -13 9.5 -19t24.5 -6
t25 6t10 19q0 12 -10 18.5t-25 6.5q-14 0 -24 -6.5zM212.5 429.5q12.5 7.5 12.5 21.5t-12.5 21.5t-32.5 7.5q-19 0 -31.5 -7.5t-12.5 -21.5t12.5 -21.5t31.5 -7.5q20 0 32.5 7.5z" />
    <glyph glyph-name="nine.num" horiz-adv-x="352" 
d="M92 337.5q-33 9.5 -57 22.5l22 83q53 -20 91 -20q42 0 65 23q17 17 19 47q-30 -36 -82 -36q-58 0 -92.5 34.5t-34.5 89.5q0 63 41 98.5t107 35.5q74 0 114 -53q39 -51 39 -140q0 -76 -36 -128q-21 -31 -55.5 -48.5t-78.5 -17.5q-29 0 -62 9.5zM193 562.5q9 10.5 9 23.5
t-8.5 23t-25.5 10q-18 0 -27 -10t-9 -23t9.5 -23.5t26.5 -10.5q16 0 25 10.5z" />
    <glyph glyph-name="one.numalt" horiz-adv-x="323" 
d="M309 430v-97h-264v97h77v158l-63 -27l-37 90l124 55h88v-276h75z" />
    <glyph glyph-name="zero.slash" horiz-adv-x="716" 
d="M588 613q82 -95 82 -263t-82 -263.5t-230 -95.5t-230 95.5t-82 263.5t82 263t230 95t230 -95zM271 499.5q-31 -48.5 -31 -149.5q0 -15 2 -43l162 231q-20 10 -46 10q-56 0 -87 -48.5zM445.5 200q31.5 49 31.5 150q0 15 -2 43l-163 -232q20 -10 46 -10q56 0 87.5 49z" />
    <glyph glyph-name="zero.tf" horiz-adv-x="608" 
d="M74 86.5q-82 95.5 -82 263.5t82 263t230 95t230 -95t82 -263t-82 -263.5t-230 -95.5t-230 95.5zM391.5 200q31.5 49 31.5 150t-31.5 149.5t-87.5 48.5t-87 -48.5t-31 -149.5t31 -150t87 -49t87.5 49z" />
    <glyph glyph-name="one.tf" horiz-adv-x="635" 
d="M571 155v-155h-497v155h158v338l-119 -49l-65 148l237 109h130v-546h156z" />
    <glyph glyph-name="two.tf" horiz-adv-x="634" 
d="M582 155v-155h-514v76q0 78 19 125t65 93q28 28 61.5 52t80.5 54l35 23q54 34 54 66q0 29 -23.5 44t-58.5 15q-45 0 -91 -15t-107 -45l-43 146q125 74 257 74q70 0 128 -22t92.5 -67t34.5 -109q0 -48 -15 -84.5t-46 -67.5q-21 -21 -46.5 -40.5t-66.5 -47.5q-4 -2 -38 -26
l-18 -13q-39 -27 -56.5 -43.5t-17.5 -32.5h314z" />
    <glyph glyph-name="three.tf" horiz-adv-x="631" 
d="M531.5 290.5q32.5 -48.5 32.5 -102.5q0 -55 -32 -100t-91 -71t-137 -26q-72 0 -140 22t-127 67l72 128q49 -30 86.5 -45.5t86.5 -15.5q40 0 65 15.5t25 48.5q0 37 -35 55t-83 18h-72v153h55q52 0 87 10.5t35 42.5q0 23 -23.5 40t-68.5 17q-56 0 -138 -40l-68 122
q58 42 113.5 60.5t118.5 18.5q64 0 120.5 -23t91 -67.5t34.5 -104.5q0 -43 -23.5 -82.5t-72.5 -64.5q56 -27 88.5 -75.5z" />
    <glyph glyph-name="four.tf" horiz-adv-x="602" 
d="M600 129h-82v-130h-183v130h-331v137l347 429h167v-419h82v-147zM335 276v178l-144 -178h144z" />
    <glyph glyph-name="five.tf" horiz-adv-x="624" 
d="M474 430.5q52 -28.5 79.5 -79.5t27.5 -117q0 -76 -37 -131t-102.5 -83.5t-149.5 -28.5q-133 0 -257 73l57 135q40 -20 95 -35.5t101 -15.5q47 0 75.5 20.5t28.5 61.5q0 34 -23 56.5t-64 22.5q-46 0 -85 -26l-144 26l31 386h428v-155h-270l-10 -104q45 23 97 23
q70 0 122 -28.5z" />
    <glyph glyph-name="six.tf" horiz-adv-x="618" 
d="M154.5 38q-63.5 47 -94 127.5t-30.5 182.5q0 68 17 128.5t50 108.5q41 58 103.5 90.5t144.5 32.5q55 0 116.5 -17.5t105.5 -41.5l-42 -138q-34 16 -78.5 27t-87.5 11q-78 0 -125 -39t-48 -110q28 31 73 50t93 19q71 0 125 -29.5t83 -81.5t29 -118q0 -78 -35.5 -134.5
t-98 -85.5t-141.5 -29q-96 0 -159.5 47zM386.5 172q22.5 24 22.5 58t-22.5 58.5t-67.5 24.5q-41 0 -63.5 -25t-22.5 -58t22 -57.5t64 -24.5q45 0 67.5 24z" />
    <glyph glyph-name="seven.tf" horiz-adv-x="640" 
d="M575 695v-135q-98 -113 -152 -257t-73 -303h-211q19 135 76 272t141 268h-293v155h512z" />
    <glyph glyph-name="eight.tf" horiz-adv-x="612" 
d="M555.5 306q37.5 -48 37.5 -107q0 -52 -29.5 -99.5t-94 -78t-163.5 -30.5t-163.5 30.5t-94 78t-29.5 99.5q0 59 37.5 107t102.5 67q-53 18 -81.5 58t-28.5 86q0 61 36 104t94.5 65t126.5 22t126.5 -22t94.5 -65t36 -104q0 -46 -28.5 -86t-81.5 -58q65 -19 102.5 -67z
M225 498q0 -58 81 -58q82 0 82 58q0 59 -82 59q-81 0 -81 -59zM382 168q27 17 27 50q0 34 -27 51t-76 17t-76 -17t-27 -51q0 -33 27.5 -50t75.5 -17q49 0 76 17z" />
    <glyph glyph-name="nine.tf" horiz-adv-x="622" 
d="M164 5.5q-58 14.5 -104 36.5l37 133q37 -16 82.5 -25.5t88.5 -9.5q118 0 151 85q12 28 12 57q0 14 -4 28q-25 -33 -67 -55t-89 -22q-77 0 -130.5 32t-80.5 84.5t-27 112.5q0 73 36.5 129t97 86.5t132.5 30.5q75 0 132 -33t93 -93q62 -100 62 -255q0 -87 -28.5 -163
t-96 -124.5t-177.5 -48.5q-62 0 -120 14.5zM358.5 410.5q22.5 24.5 22.5 58.5q0 33 -22 57.5t-65 24.5q-44 0 -66.5 -24.5t-22.5 -57.5q0 -35 22.5 -59t66.5 -24q42 0 64.5 24.5z" />
    <glyph glyph-name="twosevenths" horiz-adv-x="870" 
d="M736 735l-441 -744h-140l441 744h140zM198 578q8 7 8 16q0 11 -12 18.5t-35 7.5q-45 0 -98 -31l-34 81q32 22 71 33.5t72 11.5q50 0 84.5 -15.5t51.5 -41t17 -53.5q0 -46 -33 -79q-16 -16 -57 -44q-7 -4 -21 -14q-36 -26 -41 -38h152v-97h-280v52q0 30 8.5 55t37.5 54
q28 28 79 62q22 15 30 22zM842 366v-83q-51 -55 -76.5 -128.5t-35.5 -163.5h-127q7 57 26 118q27 84 73 160h-137v97h277z" />
    <glyph glyph-name="threesevenths" horiz-adv-x="847" 
d="M715 735l-441 -744h-140l441 744h140zM184 429q13 7 13 20q0 14 -12.5 23t-40.5 9h-41v92h39q22 0 36 4.5t14 19.5q0 12 -13 17.5t-30 5.5q-31 0 -76 -15l-34 77q69 33 124 33q60 0 99.5 -28t39.5 -77q0 -24 -13 -46q-14 -22 -36 -33q27 -12 42 -33q19 -26 19 -60
q0 -52 -41.5 -81t-103.5 -29q-79 0 -145 45l38 78q54 -29 92 -29q17 0 30 7zM821 366v-83q-51 -55 -76.5 -128.5t-35.5 -163.5h-127q7 57 26 118q27 84 73 160h-137v97h277z" />
    <glyph glyph-name="foursevenths" horiz-adv-x="918" 
d="M782 735l-441 -744h-140l441 744h140zM212 397h-182v102l166 209h128v-218h41v-93h-41v-64h-112v64zM212 490v102l-81 -102h81zM892 366v-83q-51 -55 -76.5 -128.5t-35.5 -163.5h-127q7 57 26 118q27 84 73 160h-137v97h277z" />
    <glyph glyph-name="fivesevenths" horiz-adv-x="871" 
d="M730 735l-441 -744h-140l441 744h140zM214 458q0 14 -11.5 23t-27.5 9q-20 0 -43 -15l-81 14l17 219h237v-97h-141l-3 -35q18 7 42 7q60 0 94 -34.5t34 -89.5q0 -61 -46.5 -96t-116.5 -35t-139 37l31 82q4 -1 24 -8t40 -11.5t37 -4.5q53 0 53 35zM845 366v-83
q-51 -55 -76.5 -128.5t-35.5 -163.5h-127q7 57 26 118q27 84 73 160h-137v97h277z" />
    <glyph glyph-name="sixsevenths" horiz-adv-x="886" 
d="M740 735l-441 -744h-140l441 744h140zM296 363.5q-41 -35.5 -107 -35.5q-76 0 -114.5 54t-38.5 139q0 75 36 127q22 31 56 49t78 18q29 0 62 -9.5t57 -22.5l-22 -83q-51 19 -90 19q-20 0 -39 -7t-31 -20q-9 -9 -13 -20q-2 -7 -2 -15q16 14 37.5 21.5t44.5 7.5
q58 0 92.5 -34.5t34.5 -89.5q0 -63 -41 -98.5zM166.5 434q8.5 -10 25.5 -10q18 0 27 10t9 23t-9.5 23.5t-26.5 10.5q-16 0 -25 -10.5t-9 -23.5t8.5 -23zM860 366v-83q-51 -55 -76.5 -128.5t-35.5 -163.5h-127q7 57 26 118q27 84 73 160h-137v97h277z" />
    <glyph glyph-name="twoninths" horiz-adv-x="889" 
d="M751 735l-441 -744h-140l441 744h140zM203 578q8 7 8 16q0 11 -12 18.5t-35 7.5q-45 0 -98 -31l-34 81q32 22 71 33.5t72 11.5q50 0 84.5 -15.5t51.5 -41t17 -53.5q0 -46 -33 -79q-16 -16 -57 -44q-7 -4 -21 -14q-36 -26 -41 -38h152v-97h-280v52q0 30 8.5 55t37.5 54
q28 28 79 62q22 15 30 22zM854 180q0 -76 -36 -128q-21 -31 -55.5 -48.5t-78.5 -17.5q-29 0 -62 9.5t-57 22.5l22 83q53 -20 91 -20q42 0 65 23q16 16 20 41l-1 6q-30 -36 -82 -36q-58 0 -92.5 34.5t-34.5 89.5q0 63 41 98.5t107 35.5q74 0 114 -53q39 -51 39 -140z
M723 220.5q9 10.5 9 23.5t-8.5 23t-25.5 10q-18 0 -27 -10t-9 -23t9.5 -23.5t26.5 -10.5q16 0 25 10.5z" />
    <glyph glyph-name="fourninths" horiz-adv-x="912" 
d="M770 735l-441 -744h-140l441 744h140zM212 397h-182v102l166 209h128v-218h41v-93h-41v-64h-112v64zM212 490v102l-81 -102h81zM876 180q0 -76 -36 -128q-21 -31 -55.5 -48.5t-78.5 -17.5q-29 0 -62 9.5t-57 22.5l22 83q53 -20 91 -20q42 0 65 23q16 16 20 41l-1 6
q-30 -36 -82 -36q-58 0 -92.5 34.5t-34.5 89.5q0 63 41 98.5t107 35.5q74 0 114 -53q39 -51 39 -140zM745 220.5q9 10.5 9 23.5t-8.5 23t-25.5 10q-18 0 -27 -10t-9 -23t9.5 -23.5t26.5 -10.5q16 0 25 10.5z" />
    <glyph glyph-name="fiveninths" horiz-adv-x="874" 
d="M729 735l-441 -744h-140l441 744h140zM214 458q0 14 -11.5 23t-27.5 9q-20 0 -43 -15l-81 14l17 219h237v-97h-141l-3 -35q18 7 42 7q60 0 94 -34.5t34 -89.5q0 -61 -46.5 -96t-116.5 -35t-139 37l31 82q4 -1 24 -8t40 -11.5t37 -4.5q53 0 53 35zM838 180q0 -76 -36 -128
q-21 -31 -55.5 -48.5t-78.5 -17.5q-29 0 -62 9.5t-57 22.5l22 83q53 -20 91 -20q42 0 65 23q16 15 20 41l-1 6q-30 -36 -82 -36q-58 0 -92.5 34.5t-34.5 89.5q0 63 41 98.5t107 35.5q74 0 114 -53q39 -51 39 -140zM707 220.5q9 10.5 9 23.5t-8.5 23t-25.5 10q-18 0 -27 -10
t-9 -23t9.5 -23.5t26.5 -10.5q16 0 25 10.5z" />
    <glyph glyph-name="sevenninths" horiz-adv-x="857" 
d="M683 735l-441 -744h-140l441 744h140zM96 451q27 84 73 160h-137v97h277v-83q-51 -55 -76.5 -128.5t-35.5 -163.5h-127q7 57 26 118zM822 180q0 -76 -36 -128q-21 -31 -55.5 -48.5t-78.5 -17.5q-29 0 -62 9.5t-57 22.5l22 83q53 -20 91 -20q42 0 65 23q16 16 20 41l-1 6
q-30 -36 -82 -36q-58 0 -92.5 34.5t-34.5 89.5q0 63 41 98.5t107 35.5q74 0 114 -53q39 -51 39 -140zM691 220.5q9 10.5 9 23.5t-8.5 23t-25.5 10q-18 0 -27 -10t-9 -23t9.5 -23.5t26.5 -10.5q16 0 25 10.5z" />
    <glyph glyph-name="eightninths" horiz-adv-x="888" 
d="M741 735l-441 -744h-140l441 744h140zM304.5 361.5q-38.5 -33.5 -118.5 -33.5t-118.5 33.5t-38.5 78.5q0 32 20.5 58t56.5 36q-29 9 -44.5 31t-15.5 47q0 49 41 76t99 27t99.5 -27t41.5 -76q0 -25 -15.5 -47t-44.5 -31q36 -10 56 -36t20 -58q0 -45 -38.5 -78.5z
M162 620.5q-10 -6.5 -10 -18.5q0 -13 9.5 -19t24.5 -6t25 6t10 19q0 12 -10 18.5t-25 6.5q-14 0 -24 -6.5zM154.5 429.5q12.5 -7.5 31.5 -7.5q20 0 32.5 7.5t12.5 21.5t-12.5 21.5t-32.5 7.5q-19 0 -31.5 -7.5t-12.5 -21.5t12.5 -21.5zM852 180q0 -76 -36 -128
q-21 -31 -55.5 -48.5t-78.5 -17.5q-29 0 -62 9.5t-57 22.5l22 83q53 -20 91 -20q42 0 65 23q16 16 20 41l-1 6q-30 -36 -82 -36q-58 0 -92.5 34.5t-34.5 89.5q0 63 41 98.5t107 35.5q74 0 114 -53q39 -51 39 -140zM721 220.5q9 10.5 9 23.5t-8.5 23t-25.5 10q-18 0 -27 -10
t-9 -23t9.5 -23.5t26.5 -10.5q16 0 25 10.5z" />
    <glyph glyph-name="zero.dnom" horiz-adv-x="381" 
d="M60 37.5q-47 51.5 -47 142.5q0 90 47 141.5t130 51.5t130 -51.5t47 -141.5q0 -91 -47 -142.5t-130 -51.5t-130 51.5zM229 105.5q14 24.5 14 74.5q0 49 -14 73.5t-39 24.5t-39 -24.5t-14 -73.5q0 -50 14 -74.5t39 -24.5t39 24.5z" />
    <glyph glyph-name="one.dnom" horiz-adv-x="263" 
d="M234 364v-373h-112v255l-63 -27l-37 90l124 55h88z" />
    <glyph glyph-name="two.dnom" horiz-adv-x="353" 
d="M170 88h152v-97h-280v52q0 30 8.5 55t37.5 54q28 28 79 62q22 15 30 22t8 16q0 11 -12 18.5t-35 7.5q-45 0 -98 -31l-34 81q32 22 71 33.5t72 11.5q50 0 84.5 -15.5t51.5 -41t17 -53.5q0 -46 -33 -79q-16 -16 -57 -44q-7 -4 -21 -14q-36 -26 -41 -38z" />
    <glyph glyph-name="three.dnom" horiz-adv-x="345" 
d="M274.5 15q-41.5 -29 -103.5 -29q-79 0 -145 45l38 78q54 -29 92 -29q17 0 30 7t13 20q0 14 -12.5 23t-40.5 9h-41v92h39q22 0 36 4.5t14 19.5q0 12 -13 17.5t-30 5.5q-31 0 -76 -15l-34 77q69 33 124 33q60 0 99.5 -28t39.5 -77q0 -24 -13 -45.5t-36 -33.5
q29 -13 45 -37.5t16 -55.5q0 -52 -41.5 -81z" />
    <glyph glyph-name="four.dnom" horiz-adv-x="377" 
d="M358 55h-41v-64h-112v64h-182v102l166 209h128v-218h41v-93zM205 148v102l-81 -102h81z" />
    <glyph glyph-name="five.dnom" horiz-adv-x="353" 
d="M291 206.5q34 -34.5 34 -89.5q0 -61 -46.5 -96t-116.5 -35t-139 37l31 82q4 -1 24 -8t40 -11.5t37 -4.5q53 0 53 35q0 14 -11.5 23t-27.5 9q-20 0 -43 -15l-81 14l17 219h237v-97h-141l-3 -35q18 7 42 7q60 0 94 -34.5z" />
    <glyph glyph-name="six.dnom" horiz-adv-x="352" 
d="M65.5 40q-38.5 54 -38.5 139q0 75 36 127q22 31 56 49t78 18q29 0 62 -9.5t57 -22.5l-22 -83q-51 19 -90 19q-33 0 -58.5 -17.5t-26.5 -44.5q16 14 37.5 21.5t44.5 7.5q58 0 92.5 -34.5t34.5 -89.5q0 -63 -41 -98.5t-107 -35.5q-76 0 -114.5 54zM210 92q9 10 9 23
t-9.5 23.5t-26.5 10.5q-16 0 -25 -10.5t-9 -23.5t8.5 -23t25.5 -10q18 0 27 10z" />
    <glyph glyph-name="seven.dnom" horiz-adv-x="326" 
d="M306 366v-83q-51 -55 -76.5 -128.5t-35.5 -163.5h-127q9 71 34.5 142.5t64.5 135.5h-137v97h277z" />
    <glyph glyph-name="eight.dnom" horiz-adv-x="361" 
d="M317 156q20 -26 20 -58q0 -45 -38.5 -78.5t-118.5 -33.5t-118.5 33.5t-38.5 78.5q0 32 20.5 58t56.5 36q-29 9 -44.5 31t-15.5 47q0 49 41 76t99 27t99.5 -27t41.5 -76q0 -25 -15.5 -47t-44.5 -31q36 -10 56 -36zM156 278.5q-10 -6.5 -10 -18.5q0 -13 9.5 -19t24.5 -6
t25 6t10 19q0 12 -10 18.5t-25 6.5q-14 0 -24 -6.5zM212.5 87.5q12.5 7.5 12.5 21.5t-12.5 21.5t-32.5 7.5q-19 0 -31.5 -7.5t-12.5 -21.5t12.5 -21.5t31.5 -7.5q20 0 32.5 7.5z" />
    <glyph glyph-name="nine.dnom" horiz-adv-x="352" 
d="M92 -4.5q-33 9.5 -57 22.5l22 83q53 -20 91 -20q42 0 65 23q10 10 13.5 19.5t5.5 27.5q-30 -36 -82 -36q-58 0 -92.5 34.5t-34.5 89.5q0 63 41 98.5t107 35.5q74 0 114 -53q39 -51 39 -140q0 -76 -36 -128q-21 -31 -55.5 -48.5t-78.5 -17.5q-29 0 -62 9.5zM193 220.5
q9 10.5 9 23.5t-8.5 23t-25.5 10q-18 0 -27 -10t-9 -23t9.5 -23.5t26.5 -10.5q16 0 25 10.5z" />
    <glyph glyph-name="caron.alt" horiz-adv-x="287" 
d="M203 724h-131l16 235h170z" />
    <glyph glyph-name="acute.case" horiz-adv-x="324" 
d="M85 910h209l-105 -148h-157z" />
    <glyph glyph-name="breve.case" horiz-adv-x="386" 
d="M55.5 798q-54.5 41 -54.5 123h154q0 -25 9.5 -39.5t28.5 -14.5q20 0 29.5 15t9.5 39h154q0 -81 -55.5 -122.5t-137.5 -41.5q-83 0 -137.5 41z" />
    <glyph glyph-name="caron.case" horiz-adv-x="422" 
d="M-4 917h170l46 -70l46 70h170l-122 -161h-188z" />
    <glyph glyph-name="cedilla.case" horiz-adv-x="348" 
d="M100 -241q-32 7 -56 23l23 76q9 -5 26 -9t32 -4q20 0 31.5 4.5t11.5 18.5q0 25 -53 25h-35l-3 45l23 74h127l-17 -54q37 -2 66.5 -28t29.5 -64q0 -48 -39 -81t-105 -33q-30 0 -62 7z" />
    <glyph glyph-name="circumflex.case" horiz-adv-x="504" 
d="M160 923h184l124 -161h-169l-47 70l-47 -70h-169z" />
    <glyph glyph-name="dieresis.case" horiz-adv-x="368" 
d="M-8 928h166v-161h-166v161zM213 928h166v-161h-166v161z" />
    <glyph glyph-name="dotaccent.case" horiz-adv-x="314" 
d="M58 944h198v-173h-198v173z" />
    <glyph glyph-name="grave.case" horiz-adv-x="311" 
d="M36 911h209l42 -149h-157z" />
    <glyph glyph-name="hungarumlaut.case" horiz-adv-x="548" 
d="M73 931h199l-82 -168h-158zM319 931h199l-82 -168h-158z" />
    <glyph glyph-name="macron.case" horiz-adv-x="474" 
d="M53 894h368v-131h-368v131z" />
    <glyph glyph-name="ogonek.case" horiz-adv-x="463" 
d="M148.5 -214q-40.5 35 -40.5 87q0 46 28.5 82t70 57t79.5 23l56 -35q-41 -15 -68 -33.5t-27 -46.5q0 -15 12 -24t30 -9q21 0 48 9l30 -114q-17 -13 -47 -22t-63 -9q-68 0 -108.5 35z" />
    <glyph glyph-name="ring.case" horiz-adv-x="278" 
d="M46 752.5q-40 27.5 -40 84.5t40 85t93 28t93 -28t40 -85t-40 -84.5t-93 -27.5t-93 27.5zM107 837q0 -41 32 -41t32 41q0 22 -7.5 32t-24.5 10q-32 0 -32 -42z" />
    <glyph glyph-name="tilde.case" horiz-adv-x="553" 
d="M318.5 786.5q-16.5 5.5 -35.5 15.5q-15 8 -24.5 11.5t-20.5 3.5q-26 0 -33 -32h-155q2 75 37 118.5t108 43.5q23 0 39 -5.5t35 -15.5q11 -5 22.5 -9.5t22.5 -4.5q27 0 34 31h155q-2 -75 -37 -118.5t-109 -43.5q-22 0 -38.5 5.5z" />
    <glyph glyph-name="commaccent" horiz-adv-x="251" 
d="M40 -84h181l-31 -215h-161z" />
    <glyph glyph-name="commaccent.case" horiz-adv-x="251" 
d="M37 -66h182l-36 -233h-156z" />
    </font>
</defs>
</svg>
