<?xml version="1.0" standalone="no"?>
<!DOCTYPE svg PUBLIC "-//W3C//DTD SVG 1.1//EN" "http://www.w3.org/Graphics/SVG/1.1/DTD/svg11.dtd" >
<svg xmlns="http://www.w3.org/2000/svg" xmlns:xlink="http://www.w3.org/1999/xlink" version="1.1">
<metadata>
Created by FontForge 20170731 at Tue Sep  1 17:04:59 2015
 By Aleksey,,,
Copyright (c) 2015 by Galin Kastelov. All rights reserved.
</metadata>
<defs>
<font id="Nolan-Bold" horiz-adv-x="669" >
  <font-face 
    font-family="Nolan"
    font-weight="700"
    font-stretch="normal"
    units-per-em="1000"
    panose-1="0 0 8 0 0 0 0 0 0 0"
    ascent="760"
    descent="-240"
    x-height="519"
    cap-height="706"
    bbox="-150 -302 1260 950"
    underline-thickness="50"
    underline-position="-150"
    unicode-range="U+000D-25CA"
  />
<missing-glyph horiz-adv-x="130" 
 />
    <glyph glyph-name=".notdef" horiz-adv-x="130" 
 />
    <glyph glyph-name=".null" horiz-adv-x="0" 
 />
    <glyph glyph-name="nonmarkingreturn" unicode="&#xd;" horiz-adv-x="130" 
 />
    <glyph glyph-name="space" unicode=" " horiz-adv-x="220" 
 />
    <glyph glyph-name="exclam" unicode="!" horiz-adv-x="352" 
d="M104 586v120h144v-120l-24 -369h-96zM105 133h143v-133h-143v133z" />
    <glyph glyph-name="quotedbl" unicode="&#x22;" horiz-adv-x="471" 
d="M82 617v86h118v-86l-21 -180h-76zM269 617v86h118v-86l-21 -180h-76z" />
    <glyph glyph-name="numbersign" unicode="#" horiz-adv-x="790" 
d="M594 429l-29 -136h100v-101h-121l-41 -192h-109l41 192h-145l-41 -192h-109l41 192h-92v101h113l29 136h-106v101h127l41 192h109l-41 -192h145l41 192h109l-41 -192h86v-101h-107zM485 429h-145l-29 -136h145z" />
    <glyph glyph-name="dollar" unicode="$" horiz-adv-x="643" 
d="M535 51q-62 -51 -163 -63v-83h-110v81q-67 6 -130.5 29.5t-112.5 62.5l49 94q40 -29 91 -48t103 -26v204q-100 26 -160 75t-60 141q0 90 60 139.5t160 60.5v81h110v-80q114 -12 213 -74l-46 -93q-87 43 -167 54v-203q110 -27 167.5 -72.5t57.5 -137.5q0 -91 -62 -142z
M262 606q-50 -9 -73.5 -31.5t-23.5 -53.5q0 -37 27 -56.5t70 -32.5v174zM448 133q25 24 25 54q0 34 -28 54t-73 33v-174q51 9 76 33z" />
    <glyph glyph-name="percent" unicode="%" horiz-adv-x="920" 
d="M100.5 408q-44.5 53 -44.5 135q0 81 45 134.5t123 53.5q79 0 124 -53.5t45 -135.5t-45 -134.5t-124 -52.5t-123.5 53zM654 729h103l-497 -732h-103zM283.5 465.5q20.5 27.5 20.5 77.5q0 49 -20.5 77t-59.5 28q-38 0 -58.5 -27.5t-20.5 -77.5t20.5 -77.5t58.5 -27.5
q39 0 59.5 27.5zM572.5 45.5q-44.5 52.5 -44.5 134.5t45 135t123 53q79 0 123.5 -53t44.5 -135q0 -83 -44.5 -135t-124.5 -52q-78 0 -122.5 52.5zM754.5 103q20.5 28 20.5 77q0 50 -20.5 77.5t-58.5 27.5t-59 -27.5t-21 -76.5q0 -50 20.5 -78t58.5 -28q39 0 59.5 28z" />
    <glyph glyph-name="ampersand" unicode="&#x26;" horiz-adv-x="729" 
d="M602 130l90 -63l-64 -82q-1 1 -32 23q-37 26 -69 49q-95 -73 -219 -73q-92 0 -152.5 33.5t-88 83.5t-27.5 102q0 69 37 116t101 80q-36 66 -36 127q0 59 30 103.5t79.5 68.5t104.5 24q49 0 90.5 -19t66 -55.5t24.5 -86.5q0 -54 -29.5 -90t-68.5 -56.5t-113 -50.5
q29 -35 80 -81q42 -38 116 -94q50 55 97 141l85 -53q-59 -96 -102 -147zM276.5 596.5q-28.5 -27.5 -28.5 -69.5q0 -40 25 -87q59 22 88 35t49.5 32t20.5 46q0 32 -25 51.5t-59 19.5q-42 0 -70.5 -27.5zM439 123q-57 45 -102 86q-61 54 -106 110q-71 -45 -71 -110
q0 -50 40.5 -84t113.5 -34q66 0 125 32z" />
    <glyph glyph-name="quotesingle" unicode="'" horiz-adv-x="284" 
d="M82 617v86h118v-86l-21 -180h-76z" />
    <glyph glyph-name="parenleft" unicode="(" horiz-adv-x="413" 
d="M129.5 -35.5q-57.5 141.5 -57.5 286.5t57.5 286.5t165.5 241.5l69 -77q-78 -96 -121.5 -211.5t-43.5 -239.5t43.5 -239.5t121.5 -211.5l-69 -77q-108 100 -165.5 241.5z" />
    <glyph glyph-name="parenright" unicode=")" horiz-adv-x="413" 
d="M52 -200q78 96 121.5 211.5t43.5 239.5t-43.5 239.5t-121.5 211.5l69 77q108 -100 165.5 -241.5t57.5 -286.5t-57.5 -286.5t-165.5 -241.5z" />
    <glyph glyph-name="asterisk" unicode="*" horiz-adv-x="550" 
d="M232 396l10 102l-84 -60l-21 -12l-43 75l20 13l95 42l-95 42l-20 12l43 76l21 -12l84 -61l-10 103v25h86v-25l-10 -103l84 61l21 12l43 -76l-20 -12l-95 -42l95 -42l20 -13l-43 -75l-21 12l-84 60l10 -102v-25h-86v25z" />
    <glyph glyph-name="plus" unicode="+" horiz-adv-x="643" 
d="M549 297h-176v-175h-104v175h-175v105h175v175h104v-175h176v-105z" />
    <glyph glyph-name="comma" unicode="," horiz-adv-x="321" 
d="M91 -93q26 23 39 44t16 49h-52v135h139v-94q0 -63 -20.5 -108t-84.5 -88z" />
    <glyph glyph-name="hyphen" unicode="-" horiz-adv-x="530" 
d="M75 371h380v-108h-380v108z" />
    <glyph glyph-name="period" unicode="." horiz-adv-x="316" 
d="M89 135h138v-135h-138v135z" />
    <glyph glyph-name="slash" unicode="/" horiz-adv-x="592" 
d="M421 750h116l-364 -802h-118z" />
    <glyph glyph-name="zero" unicode="0" horiz-adv-x="681" 
d="M179 40.5q-65 49.5 -95.5 131t-30.5 178.5q0 96 30.5 177.5t95.5 131t162 49.5t162 -49.5t95.5 -131t30.5 -177.5q0 -97 -30.5 -178.5t-95.5 -131t-162 -49.5t-162 49.5zM460.5 169q40.5 68 40.5 181q0 112 -40.5 180t-119.5 68q-80 0 -120 -67.5t-40 -180.5
q0 -114 40 -181.5t120 -67.5q79 0 119.5 68z" />
    <glyph glyph-name="one" unicode="1" horiz-adv-x="453" 
d="M357 701v-701h-122v558l-140 -75l-44 98l214 120h92z" />
    <glyph glyph-name="two" unicode="2" horiz-adv-x="657" 
d="M562 108v-108h-483v67q0 62 19.5 105t60.5 84q30 30 66 56t84 56l35 23q42 28 64.5 54.5t22.5 58.5q0 41 -35.5 67.5t-91.5 26.5q-87 0 -193 -64l-35 97q113 77 232 77q72 0 128.5 -25t88.5 -70t32 -102q0 -43 -16 -77t-47 -65q-22 -23 -48.5 -42.5t-72.5 -50.5
q-65 -41 -99 -72q-31 -27 -47.5 -50t-16.5 -46h352z" />
    <glyph glyph-name="three" unicode="3" horiz-adv-x="587" 
d="M496 290.5q36 -46.5 36 -104.5q0 -51 -30 -96t-86 -72t-132 -27q-65 0 -128.5 22t-115.5 67l48 86q43 -30 91.5 -47.5t96.5 -17.5q55 0 91 25.5t36 72.5q0 52 -43 80t-104 28h-64v107h67q58 0 94.5 26t36.5 69q0 36 -32 62t-93 26q-39 0 -77 -14.5t-71 -39.5l-55 74
q44 46 99.5 68.5t115.5 22.5q71 0 124.5 -25.5t82.5 -69t29 -98.5q0 -49 -29.5 -89.5t-82.5 -64.5q59 -24 95 -70.5z" />
    <glyph glyph-name="four" unicode="4" horiz-adv-x="645" 
d="M599 151h-85v-151h-121v151h-347v92l360 452h108v-442h85v-102zM393 253v265l-215 -265h215z" />
    <glyph glyph-name="five" unicode="5" horiz-adv-x="600" 
d="M441 422q52 -28 81 -79t29 -118q0 -69 -32.5 -122t-91.5 -82.5t-136 -29.5q-130 0 -251 80l44 92q44 -27 99 -44.5t104 -17.5q64 0 101.5 33.5t37.5 88.5t-38 90t-96 35q-64 0 -118 -36l-94 20l36 363h385v-106h-283l-19 -170q58 31 123 31q67 0 119 -28z" />
    <glyph glyph-name="six" unicode="6" horiz-adv-x="608" 
d="M112 86q-66 95 -66 245q0 123 42 207q40 81 105 125.5t147 44.5q51 0 105.5 -17.5t99.5 -47.5l-42 -86q-34 22 -75.5 35.5t-81.5 13.5q-60 0 -102.5 -34t-64 -88.5t-20.5 -112.5q28 40 76 62.5t99 22.5q67 0 120 -29t82 -80.5t29 -115.5q0 -69 -32 -124t-89 -85.5
t-130 -30.5q-136 0 -202 95zM410.5 132q35.5 37 35.5 90q0 54 -35.5 91.5t-96.5 37.5q-57 0 -92.5 -38t-35.5 -91q0 -52 35 -89.5t93 -37.5q61 0 96.5 37z" />
    <glyph glyph-name="seven" unicode="7" horiz-adv-x="538" 
d="M507 695v-99q-106 -130 -167 -273.5t-88 -322.5h-139q30 161 91 305t158 284h-331v106h476z" />
    <glyph glyph-name="eight" unicode="8" horiz-adv-x="635" 
d="M552 302q40 -46 40 -110q0 -52 -30 -97.5t-92 -74.5t-153 -29q-90 0 -152 29t-92 74.5t-30 97.5q0 62 39.5 109t106.5 68q-56 21 -86.5 59t-30.5 94q0 52 30.5 94.5t86 67t128.5 24.5q74 0 129.5 -24.5t85.5 -67t30 -94.5q0 -56 -30.5 -94t-86.5 -59q67 -21 107 -67z
M226 581q-36 -23 -36 -70t36 -70t91 -23q54 0 90.5 23t36.5 70t-36.5 70t-90.5 23q-55 0 -91 -23zM423 127.5q42 26.5 42 77.5q0 53 -42 79.5t-106 26.5q-63 0 -105.5 -27t-42.5 -79q0 -51 42.5 -77.5t105.5 -26.5q64 0 106 26.5z" />
    <glyph glyph-name="nine" unicode="9" horiz-adv-x="606" 
d="M166 5q-51 14 -97 39l34 88q34 -19 76 -29.5t79 -10.5q105 0 150 72t45 167q-33 -42 -81 -64.5t-100 -22.5q-68 0 -120 29t-80 79.5t-28 113.5q0 69 32 124t88.5 86.5t127.5 31.5q61 0 111 -22.5t84 -64.5q40 -47 57 -112t17 -148q0 -160 -70 -265t-226 -105
q-48 0 -99 14zM384.5 385.5q35.5 37.5 35.5 91.5t-35.5 91t-94.5 37t-94.5 -37t-35.5 -91t35.5 -91.5t94.5 -37.5t94.5 37.5z" />
    <glyph glyph-name="colon" unicode=":" horiz-adv-x="316" 
d="M89 499h138v-135h-138v135zM89 135h138v-135h-138v135z" />
    <glyph glyph-name="semicolon" unicode=";" horiz-adv-x="321" 
d="M94 499h138v-135h-138v135zM91 -93q26 23 39 44t16 49h-52v135h139v-94q0 -63 -20.5 -108t-84.5 -88z" />
    <glyph glyph-name="less" unicode="&#x3c;" horiz-adv-x="639" 
d="M88 267v105l462 221v-117l-341 -157l341 -155v-117z" />
    <glyph glyph-name="equal" unicode="=" horiz-adv-x="649" 
d="M94 476h462v-104h-462v104zM94 261h462v-104h-462v104z" />
    <glyph glyph-name="greater" unicode="&#x3e;" horiz-adv-x="639" 
d="M88 164l341 155l-341 157v117l462 -221v-105l-462 -220v117z" />
    <glyph glyph-name="question" unicode="?" horiz-adv-x="581" 
d="M198 216q0 46 20.5 77.5t75.5 70.5q37 25 58.5 42t37.5 41.5t16 55.5q0 49 -38 79.5t-94 30.5q-47 0 -90.5 -24t-74.5 -66l-75 75q49 62 115.5 93t137.5 31q65 0 121 -27t89.5 -76.5t33.5 -114.5t-33 -111t-93 -85q-44 -30 -61.5 -48t-17.5 -43v-22h-128v21zM192 125h140
v-125h-140v125z" />
    <glyph glyph-name="at" unicode="@" horiz-adv-x="1003" 
d="M837 2l42 -64q-52 -40 -149 -81.5t-222 -41.5q-131 0 -232.5 56t-158 153.5t-56.5 217.5q0 132 62 241t173.5 172t254.5 63q118 0 210 -50t143 -135.5t51 -186.5q0 -83 -37.5 -149t-97.5 -102.5t-125 -36.5q-43 0 -71.5 22.5t-40.5 56.5q-28 -35 -68 -57t-81 -22
q-71 0 -111 49.5t-40 123.5q0 70 31 130.5t81 96t105 35.5q39 0 69 -17.5t49 -48.5l16 51h90l-54 -201q-15 -56 -15 -79q0 -27 15 -44.5t38 -17.5q34 0 70 28t60 75.5t24 104.5q0 77 -38 141.5t-108 102.5t-161 38q-119 0 -208.5 -52.5t-137.5 -140t-48 -189.5
q0 -93 42.5 -171t122.5 -124.5t187 -46.5q179 0 324 100zM560.5 390.5q-21.5 18.5 -49.5 18.5q-35 0 -65.5 -26.5t-48 -68t-17.5 -82.5q0 -39 17 -63t51 -24q68 0 106 77q18 35 41 121q-13 29 -34.5 47.5z" />
    <glyph glyph-name="A" unicode="A" horiz-adv-x="780" 
d="M546 177h-316l-71 -177h-141l303 706h141l300 -706h-146zM503 288l-114 289l-115 -289h229z" />
    <glyph glyph-name="B" unicode="B" horiz-adv-x="782" 
d="M666.5 47.5q-67.5 -47.5 -189.5 -47.5h-384v706h378q108 0 168 -51t60 -137q0 -54 -26 -94.5t-68 -53.5q58 -21 93.5 -65.5t35.5 -109.5q0 -100 -67.5 -147.5zM224 592v-172h238q107 0 107 81q0 47 -31.5 69t-81.5 22h-232zM565 284q-34 25 -91 25h-250v-194h242
q66 0 99.5 20.5t33.5 75.5q0 48 -34 73z" />
    <glyph glyph-name="C" unicode="C" horiz-adv-x="788" 
d="M249.5 29q-85.5 45 -135.5 128.5t-50 195.5q0 113 50.5 197t136.5 128t188 44q86 0 165.5 -31.5t138.5 -88.5l-72 -81q-45 40 -103 62.5t-118 22.5q-71 0 -128.5 -31t-90.5 -88.5t-33 -133.5t33.5 -133.5t91 -88.5t128.5 -31q60 0 117.5 22t102.5 62l72 -79
q-59 -57 -138.5 -89t-165.5 -32q-104 0 -189.5 45z" />
    <glyph glyph-name="D" unicode="D" horiz-adv-x="839" 
d="M592 661.5q87 -44.5 132 -124t45 -185.5t-45 -185t-132 -123t-209 -44h-290v706h290q122 0 209 -44.5zM569 174.5q66 62.5 66 177.5q0 116 -66 179t-178 63h-167v-482h167q112 0 178 62.5z" />
    <glyph glyph-name="E" unicode="E" horiz-adv-x="747" 
d="M674 115v-115h-581v706h579v-114h-448v-172h406v-114h-406v-191h450z" />
    <glyph glyph-name="F" unicode="F" horiz-adv-x="705" 
d="M224 592v-185h388v-116h-388v-291h-131v706h558v-114h-427z" />
    <glyph glyph-name="G" unicode="G" horiz-adv-x="837" 
d="M249 28q-86 44 -135.5 127.5t-49.5 197.5q0 112 49 195.5t136 128.5t198 45q85 0 160.5 -30t134.5 -86l-71 -82q-42 40 -98.5 61.5t-114.5 21.5q-73 0 -132.5 -30t-94 -87.5t-34.5 -136.5q0 -78 34 -135.5t92.5 -88t131.5 -30.5q51 0 98 14t84 38v143h-204v108h327v-309
q-70 -53 -151.5 -81t-165.5 -28q-108 0 -194 44z" />
    <glyph glyph-name="H" unicode="H" horiz-adv-x="866" 
d="M772 706v-706h-131v307h-417v-307h-131v706h131v-284h417v284h131z" />
    <glyph glyph-name="I" unicode="I" horiz-adv-x="327" 
d="M98 706h131v-706h-131v706z" />
    <glyph glyph-name="J" unicode="J" horiz-adv-x="557" 
d="M122 5.5q-60 21.5 -95 54.5l48 86q83 -46 153 -46q119 0 119 134v472h131v-497q0 -109 -63 -167t-172 -58q-61 0 -121 21.5z" />
    <glyph glyph-name="K" unicode="K" horiz-adv-x="721" 
d="M329 319l-111 -115v-204h-126v706h126v-340l324 340h163l-289 -298l309 -408h-159z" />
    <glyph glyph-name="L" unicode="L" horiz-adv-x="680" 
d="M641 115v-115h-548v706h131v-591h417z" />
    <glyph glyph-name="M" unicode="M" horiz-adv-x="1066" 
d="M973 706v-706h-130v502l-240 -502h-140l-240 502v-502h-130v706h160l280 -575l280 575h160z" />
    <glyph glyph-name="N" unicode="N" horiz-adv-x="863" 
d="M770 706v-706h-134l-412 512v-512h-131v706h135l411 -510v510h131z" />
    <glyph glyph-name="O" unicode="O" horiz-adv-x="880" 
d="M244 30q-85 46 -131.5 129.5t-46.5 192.5q0 110 46.5 193.5t131.5 130t197 46.5t197 -46.5t131 -130t46 -193.5t-46 -193t-131 -129t-197 -46t-197 46zM615 165q65 65 65 187q0 123 -65 189t-174 66t-174.5 -66t-65.5 -189q0 -121 65.5 -186.5t174.5 -65.5t174 65z" />
    <glyph glyph-name="P" unicode="P" horiz-adv-x="770" 
d="M642.5 645.5q70.5 -60.5 70.5 -166.5q0 -114 -70.5 -172t-201.5 -58h-217v-249h-131v706h349q130 0 200.5 -60.5zM547 390q34 27 34 89q0 63 -35 88t-109 25h-213v-229h214q75 0 109 27z" />
    <glyph glyph-name="Q" unicode="Q" horiz-adv-x="880" 
d="M568 -80q-64 24 -142 49q-83 25 -128.5 42t-85.5 44q-73 47 -109.5 123t-36.5 174q0 110 46.5 193.5t131.5 130t197 46.5t197 -46.5t131 -130t46 -193.5q0 -118 -58.5 -203.5t-165.5 -122.5v-5q51 -15 103.5 -36.5t63.5 -29.5l-61 -94q-65 35 -129 59zM615 165
q65 65 65 187q0 123 -65 189t-174 66t-174.5 -66t-65.5 -189q0 -121 65.5 -186.5t174.5 -65.5t174 65z" />
    <glyph glyph-name="R" unicode="R" horiz-adv-x="777" 
d="M411 257h-187v-257h-131v706h347q147 0 215 -68q58 -59 58 -156q0 -171 -164 -209l186 -273h-157zM224 371h216q74 0 108 25t34 85q0 58 -35 84.5t-108 26.5h-215v-221z" />
    <glyph glyph-name="S" unicode="S" horiz-adv-x="733" 
d="M196.5 8.5q-82.5 24.5 -145.5 69.5l50 98q55 -36 126 -56t137 -20q73 0 122 19.5t49 65.5q0 39 -48 61t-136 43q-87 19 -145.5 43t-95.5 68t-37 115q0 106 84 156.5t214 50.5q75 0 148 -20t135 -55l-47 -98q-129 58 -245 58q-66 0 -111.5 -21.5t-45.5 -64.5q0 -41 44 -62
t122 -39l24 -6q126 -27 199.5 -75t73.5 -140q0 -108 -87 -161.5t-219 -53.5q-83 0 -165.5 24.5z" />
    <glyph glyph-name="T" unicode="T" horiz-adv-x="674" 
d="M666 591h-257v-591h-131v591h-257v115h645v-115z" />
    <glyph glyph-name="U" unicode="U" horiz-adv-x="848" 
d="M177 64.5q-91 80.5 -91 235.5v406h131v-401q0 -97 52 -151t155 -54q102 0 154.5 54t52.5 151v401h131v-406q0 -155 -91.5 -235.5t-246.5 -80.5q-156 0 -247 80.5z" />
    <glyph glyph-name="V" unicode="V" horiz-adv-x="755" 
d="M738 706l-284 -706h-151l-288 706h148l218 -560l215 560h142z" />
    <glyph glyph-name="W" unicode="W" horiz-adv-x="1031" 
d="M1010 706l-197 -706h-144l-151 490l-152 -490h-143l-203 706h136l145 -537l155 483h125l154 -486l144 540h131z" />
    <glyph glyph-name="X" unicode="X" horiz-adv-x="696" 
d="M528 0l-186 273l-175 -273h-153l245 366l-230 340h158l168 -251l164 251h150l-232 -341l248 -365h-157z" />
    <glyph glyph-name="Y" unicode="Y" horiz-adv-x="652" 
d="M650 706l-258 -451v-255h-131v255l-259 451h144l181 -329l185 329h138z" />
    <glyph glyph-name="Z" unicode="Z" horiz-adv-x="687" 
d="M649 113v-113h-611v97l422 496h-414v113h589v-100l-421 -493h435z" />
    <glyph glyph-name="bracketleft" unicode="[" horiz-adv-x="446" 
d="M107 759h276v-105h-152v-788h152v-105h-276v998z" />
    <glyph glyph-name="backslash" unicode="\" horiz-adv-x="544" 
d="M10 750h115l367 -802h-118z" />
    <glyph glyph-name="bracketright" unicode="]" horiz-adv-x="423" 
d="M94 -134h152v788h-152v105h276v-998h-276v105z" />
    <glyph glyph-name="asciicircum" unicode="^" horiz-adv-x="666" 
d="M279 706h108l190 -337h-121l-123 225l-123 -225h-121z" />
    <glyph glyph-name="underscore" unicode="_" horiz-adv-x="531" 
d="M6 -66h517v-102h-517v102z" />
    <glyph glyph-name="grave" unicode="`" horiz-adv-x="473" 
d="M113 755h147l66 -151h-97z" />
    <glyph glyph-name="a" unicode="a" horiz-adv-x="629" 
d="M557 286v-286h-104l-6 50q-34 -30 -89.5 -48t-105.5 -18q-87 0 -145 45.5t-58 128.5q0 94 78.5 134t193.5 40q49 0 116 -9v8q0 57 -33 81t-100 24q-94 0 -184 -42l-36 85q47 28 108 43.5t123 15.5q79 0 138.5 -27t84.5 -85q19 -44 19 -140zM362.5 99q44.5 13 74.5 41v100
q-54 8 -102 8q-72 0 -117.5 -18.5t-45.5 -68.5q0 -75 104 -75q42 0 86.5 13z" />
    <glyph glyph-name="b" unicode="b" horiz-adv-x="670" 
d="M502.5 504q57.5 -34 89 -96.5t31.5 -144.5t-31.5 -145.5t-88.5 -98.5t-132 -35q-58 0 -106.5 24t-80.5 69l-3 -77h-107v706h122v-242q32 36 76.5 55t97.5 19q75 0 132.5 -34zM459.5 137q40.5 44 40.5 126t-40.5 124.5t-111.5 42.5q-72 0 -112.5 -42.5t-40.5 -124.5
t41 -126t112 -44t111.5 44z" />
    <glyph glyph-name="c" unicode="c" horiz-adv-x="607" 
d="M187.5 19.5q-66.5 35.5 -103.5 99t-37 142.5q0 80 37 143t103 98.5t152 35.5q64 0 122.5 -20.5t104.5 -63.5l-58 -78q-29 27 -71 42t-87 15q-54 0 -95 -22.5t-63 -62t-22 -88.5q0 -77 49.5 -124t130.5 -47q45 0 87 15t71 42l58 -78q-46 -43 -104.5 -63.5t-122.5 -20.5
q-85 0 -151.5 35.5z" />
    <glyph glyph-name="d" unicode="d" horiz-adv-x="672" 
d="M598 706v-706h-107l-3 73q-32 -43 -80 -66t-108 -23q-75 0 -132.5 34t-89 96.5t-31.5 144.5t31.5 145.5t88.5 98.5t132 35q56 0 101 -19.5t76 -56.5v244h122zM432 136q43 44 43 128q0 78 -41 121.5t-112 43.5t-111.5 -44t-40.5 -126t40 -124.5t111 -42.5q68 0 111 44z
" />
    <glyph glyph-name="e" unicode="e" horiz-adv-x="644" 
d="M575 213h-401q13 -65 58 -97.5t117 -32.5q44 0 89.5 14t82.5 41l44 -77q-47 -38 -106 -57.5t-120 -19.5q-88 0 -154 34.5t-102 97t-36 144.5q0 79 34.5 142.5t100 99.5t155.5 36q68 0 125.5 -28t92 -82t34.5 -127q0 -51 -14 -88zM435 403.5q-41 36.5 -103 36.5
q-65 0 -107 -36.5t-52 -102.5h300q3 66 -38 102.5z" />
    <glyph glyph-name="f" unicode="f" horiz-adv-x="418" 
d="M230 568.5q-4 -20.5 -4 -53.5h160v-97h-160v-418h-120v418h-76v97h76q0 40 4 66.5t19 52.5q51 88 180 88q59 0 121 -16l-21 -89q-53 11 -84 11q-53 0 -75 -23q-16 -16 -20 -36.5z" />
    <glyph glyph-name="g" unicode="g" horiz-adv-x="670" 
d="M597 519v-487q0 -85 -36.5 -146.5t-102.5 -93.5t-153 -32q-57 0 -116 16t-115 46l36 93q107 -49 191 -49q87 0 131.5 42.5t45.5 122.5v35q-34 -40 -80 -61t-98 -21q-75 0 -132.5 34t-89 96.5t-31.5 144.5t31 145.5t88 98.5t132 35q57 0 106 -26t83 -73l3 80h107z
M435 134.5q41 42.5 41 124.5t-41.5 126t-112.5 44t-111.5 -43.5t-40.5 -126.5q0 -82 40.5 -124.5t111.5 -42.5q72 0 113 42.5z" />
    <glyph glyph-name="h" unicode="h" horiz-adv-x="667" 
d="M595 316v-316h-124v291q0 69 -27 104.5t-92 35.5q-39 0 -81.5 -19.5t-73.5 -53.5v-358h-125v706h119v-245q89 77 205 77q42 0 78 -13.5t62 -39.5q59 -59 59 -169z" />
    <glyph glyph-name="i" unicode="i" horiz-adv-x="280" 
d="M76 706h127v-116h-127v116zM78 519h124v-519h-124v519z" />
    <glyph glyph-name="j" unicode="j" horiz-adv-x="294" 
d="M86 706h127v-115h-127v115zM-41 -150q47 15 73 35t41 55q9 22 12 47.5t3 60.5v471h124v-474q0 -57 -8 -97.5t-29 -74.5q-27 -45 -75.5 -78t-112.5 -45z" />
    <glyph glyph-name="k" unicode="k" horiz-adv-x="569" 
d="M252 217l-57 -53v-164h-120v706h120v-402l206 215h150l-217 -222l238 -297h-149z" />
    <glyph glyph-name="l" unicode="l" horiz-adv-x="273" 
d="M75 706h122v-706h-122v706z" />
    <glyph glyph-name="m" unicode="m" horiz-adv-x="1016" 
d="M942 0h-124v290q0 69 -27.5 105.5t-87.5 36.5q-78 0 -134 -62q1 -7 1 -22v-348h-124v291q0 141 -115 141q-35 0 -70 -17t-62 -49v-366h-125v519h109l7 -62q77 81 183 81q54 0 95.5 -22t67.5 -57q87 79 192 79q101 0 157.5 -57.5t56.5 -164.5v-316z" />
    <glyph glyph-name="n" unicode="n" 
d="M595 0h-124v291q0 68 -27 104t-90 36q-38 0 -79 -21.5t-76 -62.5v-347h-125v519h109l7 -70q87 89 207 89q92 0 145 -59.5t53 -162.5v-316z" />
    <glyph glyph-name="o" unicode="o" horiz-adv-x="678" 
d="M184.5 19.5q-65.5 35.5 -100.5 98t-35 143.5t35 143.5t100.5 98t154.5 35.5t155 -35t101 -97.5t35 -143.5t-35 -144t-100.5 -98.5t-154.5 -35.5q-90 0 -155.5 35.5zM461.5 132q44.5 44 44.5 131q0 86 -44.5 128.5t-122.5 42.5t-122.5 -42.5t-44.5 -128.5q0 -87 45 -131
t122 -44q78 0 122.5 44z" />
    <glyph glyph-name="p" unicode="p" horiz-adv-x="670" 
d="M503 503q57 -35 88.5 -98.5t31.5 -145.5t-31.5 -144.5t-89 -96.5t-132.5 -34q-53 0 -97.5 19t-76.5 55v-232h-122v693h107l3 -74q32 45 80.5 69t106.5 24q75 0 132 -35zM459.5 134.5q40.5 42.5 40.5 124.5t-40.5 126t-111.5 44t-112 -44t-41 -126t40.5 -124.5
t112.5 -42.5q71 0 111.5 42.5z" />
    <glyph glyph-name="q" unicode="q" horiz-adv-x="670" 
d="M596 519v-693h-122v232q-32 -36 -76.5 -55t-97.5 -19q-75 0 -132.5 34t-89 96.5t-31.5 144.5t31.5 145.5t88.5 98.5t132 35q58 0 106.5 -24t80.5 -69l3 74h107zM434.5 134.5q40.5 42.5 40.5 124.5t-41 126t-112 44t-111.5 -44t-40.5 -126t40.5 -124.5t111.5 -42.5
q72 0 112.5 42.5z" />
    <glyph glyph-name="r" unicode="r" horiz-adv-x="465" 
d="M401 526.5q23 -4.5 40 -12.5l-28 -106q-14 6 -33.5 9.5t-35.5 3.5q-46 0 -76.5 -17.5t-61.5 -64.5v-339h-124v519h109l6 -76q27 40 65.5 64t95.5 24q20 0 43 -4.5z" />
    <glyph glyph-name="s" unicode="s" horiz-adv-x="566" 
d="M150 5.5q-65 21.5 -106 55.5l51 81q38 -27 89 -42.5t102 -15.5q55 0 81.5 17t26.5 42q0 27 -25.5 39.5t-87.5 27.5l-48 12q-78 22 -123 57t-45 100q0 46 28.5 82.5t81.5 56.5t124 20q60 0 116 -15.5t101 -46.5l-51 -81q-37 23 -81.5 34t-84.5 11q-54 0 -80 -14.5
t-26 -38.5q0 -30 29 -44t98 -29q64 -16 104.5 -31.5t70 -47.5t29.5 -83q0 -48 -27.5 -86t-80.5 -60t-128 -22q-73 0 -138 21.5z" />
    <glyph glyph-name="t" unicode="t" horiz-adv-x="447" 
d="M434 24q-29 -18 -71.5 -29t-81.5 -11q-90 0 -132 48t-42 147v239h-78v97h83l6 154h109v-154h167v-97h-167v-222q0 -57 15.5 -83.5t60.5 -26.5q24 0 52.5 6.5t46.5 15.5z" />
    <glyph glyph-name="u" unicode="u" 
d="M595 519v-519h-109l-7 68q-42 -40 -92 -62t-113 -22q-41 0 -78.5 14t-63.5 39q-30 30 -44.5 70.5t-14.5 98.5v313h125v-290q0 -68 27 -103t91 -35q40 0 80.5 19t73.5 57v352h125z" />
    <glyph glyph-name="v" unicode="v" horiz-adv-x="581" 
d="M569 519l-209 -519h-137l-209 519h137l142 -392l143 392h133z" />
    <glyph glyph-name="w" unicode="w" horiz-adv-x="890" 
d="M877 519l-182 -519h-137l-113 359l-113 -359h-138l-182 519h129l125 -382l122 382h116l124 -381l123 381h126z" />
    <glyph glyph-name="x" unicode="x" horiz-adv-x="552" 
d="M404 0l-132 187l-129 -187h-137l188 268l-179 251h145l117 -172l121 172h137l-179 -250l192 -269h-144z" />
    <glyph glyph-name="y" unicode="y" horiz-adv-x="655" 
d="M581 519v-488q0 -129 -78.5 -200t-215.5 -71q-106 0 -209 50l35 96q39 -17 85.5 -28.5t89.5 -11.5q172 0 175 162v31q-82 -75 -192 -75q-42 0 -81 15.5t-65 41.5q-29 28 -44.5 70.5t-15.5 98.5v309h125v-281q0 -72 29 -109.5t93 -37.5q39 0 77 18.5t69 55.5v354h123z" />
    <glyph glyph-name="z" unicode="z" horiz-adv-x="574" 
d="M533 105v-105h-489v83l299 333h-287v103h463v-82l-303 -332h317z" />
    <glyph glyph-name="braceleft" unicode="{" horiz-adv-x="445" 
d="M201 -176q-50 66 -50 173v86q0 54 -10.5 82t-30.5 39t-57 17v79q37 6 57 17t30.5 39t10.5 82v86q0 107 50 173t148 66h50v-97h-29q-97 0 -97 -134v-116q0 -61 -21.5 -98.5t-70.5 -53.5v-7q49 -16 70.5 -53t21.5 -99v-116q0 -134 97 -134h29v-97h-50q-98 0 -148 66z" />
    <glyph glyph-name="bar" unicode="|" horiz-adv-x="369" 
d="M129 869h110v-1037h-110v1037z" />
    <glyph glyph-name="braceright" unicode="}" horiz-adv-x="441" 
d="M49 -145h29q96 0 96 134v116q0 62 21.5 99t70.5 53v7q-49 16 -70.5 53.5t-21.5 98.5v116q0 134 -96 134h-29v97h49q98 0 148.5 -66t50.5 -173v-86q0 -54 10.5 -82t30.5 -39t57 -17v-79q-37 -6 -57 -17t-30.5 -39t-10.5 -82v-86q0 -107 -50.5 -173t-148.5 -66h-49v97z" />
    <glyph glyph-name="asciitilde" unicode="~" horiz-adv-x="645" 
d="M357.5 267.5q-25.5 9.5 -59.5 28.5q-26 14 -43 21t-35 7q-29 0 -48 -13.5t-43 -43.5l-67 46q31 54 73.5 82t93.5 28q31 0 57 -10t60 -28q25 -14 42.5 -21t35.5 -7q30 0 48.5 13.5t42.5 43.5l67 -46q-64 -110 -167 -110q-32 0 -57.5 9.5z" />
    <glyph glyph-name="exclamdown" unicode="&#xa1;" horiz-adv-x="352" 
d="M248 525v-133h-143v133h143zM224 308l24 -369v-120h-144v120l24 369h96z" />
    <glyph glyph-name="cent" unicode="&#xa2;" horiz-adv-x="589" 
d="M556 68q-76 -70 -182 -81v-90h-91v90q-73 8 -129 45.5t-86.5 97t-30.5 131.5t31 131.5t87 97t128 45.5v91h91v-91q106 -11 182 -81l-58 -78q-29 27 -72 42t-88 15q-54 0 -95 -22.5t-63 -61.5t-22 -89q0 -77 49 -124t131 -47q45 0 88 15t72 42z" />
    <glyph glyph-name="sterling" unicode="&#xa3;" horiz-adv-x="633" 
d="M573 107v-107h-503v110q31 7 49.5 23t28 48.5t9.5 88.5v52h-59v92h59v78q0 101 55.5 157.5t156.5 56.5q68 0 113.5 -27.5t80.5 -76.5l-83 -61q-40 57 -100 57q-48 0 -72 -29.5t-24 -76.5v-78h187v-92h-187v-66q0 -56 -10.5 -90.5t-33.5 -58.5h333z" />
    <glyph glyph-name="currency" unicode="&#xa4;" horiz-adv-x="677" 
d="M516 267l58 -56l-67 -67l-55 58q-52 -33 -114 -33q-63 0 -113 33l-55 -58l-67 67l59 56q-31 50 -31 111q0 62 31 113l-59 56l67 67l55 -58q50 33 113 33q62 0 114 -33l55 58l67 -67l-59 -56q32 -53 32 -113q0 -61 -31 -111zM419 291q33 32 33 88q0 55 -33 87.5t-81 32.5
q-47 0 -79.5 -32.5t-32.5 -87.5q0 -56 32.5 -88t79.5 -32q48 0 81 32z" />
    <glyph glyph-name="yen" unicode="&#xa5;" horiz-adv-x="683" 
d="M459 361h129v-82h-174v-66h174v-82h-174v-131h-131v131h-175v82h175v66h-175v82h130l-185 323h142l154 -290l158 290h136z" />
    <glyph glyph-name="brokenbar" unicode="&#xa6;" horiz-adv-x="369" 
d="M129 868h110v-386h-110v386zM129 217h110v-386h-110v386z" />
    <glyph glyph-name="section" unicode="&#xa7;" horiz-adv-x="636" 
d="M539 172q-17 -27 -49 -43q32 -37 32 -88q0 -47 -25.5 -85t-74.5 -60t-116 -22q-113 0 -214 60l40 84q92 -44 173 -44q53 0 81 18t28 43q0 28 -28.5 46t-92.5 43q-17 6 -37 14q-83 34 -130 73.5t-47 100.5q0 33 17 60t50 43q-32 37 -32 88q0 47 25.5 85t74.5 60t116 22
q59 0 113.5 -16.5t93.5 -41.5l-41 -85q-79 43 -166 43q-53 0 -81 -18t-28 -43q0 -27 27.5 -44.5t87.5 -41.5q23 -8 44 -18q61 -26 97 -47.5t57.5 -52t21.5 -73.5q0 -33 -17 -60zM208 278q28 -19 97 -48q9 -3 27 -11l22 -9q56 -24 77 -36q25 19 25 42q0 30 -27.5 49t-94.5 47
l-31 13q-70 30 -98 45q-25 -19 -25 -42q0 -31 28 -50z" />
    <glyph glyph-name="dieresis" unicode="&#xa8;" horiz-adv-x="491" 
d="M79 726h119v-116h-119v116zM291 726h119v-116h-119v116z" />
    <glyph glyph-name="copyright" unicode="&#xa9;" horiz-adv-x="893" 
d="M255 26.5q-86 49.5 -135.5 136t-49.5 191.5t49.5 191t135.5 135.5t191 49.5q106 0 192 -49.5t135.5 -135.5t49.5 -191t-49.5 -191.5t-136 -136t-191.5 -49.5t-191 49.5zM599 94q68 39 107 107.5t39 152.5t-39 152.5t-107 107.5t-152 39t-152.5 -39t-107.5 -107.5
t-39 -152.5t39 -152.5t107.5 -107.5t152.5 -39t152 39zM344.5 179.5q-47.5 24.5 -74 70t-26.5 104.5t27 104t74 70t106 25q43 0 84.5 -16.5t71.5 -44.5l-44 -58q-22 19 -50.5 30t-57.5 11q-55 0 -89 -32.5t-34 -88.5q0 -57 34 -89t89 -32q29 0 57.5 11t50.5 30l44 -59
q-30 -28 -71.5 -44t-84.5 -16q-59 0 -106.5 24.5z" />
    <glyph glyph-name="ordfeminine" unicode="&#xaa;" horiz-adv-x="379" 
d="M343 546v-172h-75l-4 33q-23 -20 -54 -32t-61 -12q-51 0 -86.5 29t-35.5 80q0 59 47 84.5t115 25.5q36 0 69 -5q0 34 -21 47.5t-61 13.5q-47 0 -106 -23l-24 58q31 16 70 25t74 9q50 0 87 -18.5t53 -55.5q13 -28 13 -87zM215.5 443q24.5 8 42.5 26v49q-35 5 -58 5
q-88 0 -88 -47q0 -20 15.5 -30.5t39.5 -10.5t48.5 8z" />
    <glyph glyph-name="guillemotleft" unicode="&#xab;" horiz-adv-x="569" 
d="M84 261l109 185h96l-85 -185l85 -184h-96zM273 261l109 185h96l-85 -185l85 -184h-96z" />
    <glyph glyph-name="logicalnot" unicode="&#xac;" horiz-adv-x="646" 
d="M443 135v127h-344v108h448l1 -235h-105z" />
    <glyph glyph-name="uni00AD" unicode="&#xad;" horiz-adv-x="530" 
d="M75 371h380v-108h-380v108z" />
    <glyph glyph-name="registered" unicode="&#xae;" horiz-adv-x="559" 
d="M402 712.5q55 -31.5 87 -86.5t32 -123q0 -67 -32 -122.5t-87 -87t-123 -31.5t-123 31.5t-86.5 86.5t-31.5 123t31.5 123t86.5 86.5t123 31.5t123 -31.5zM375.5 338.5q43.5 24.5 68 68t24.5 96.5t-24.5 96.5t-68 68t-96.5 24.5t-96 -24.5t-68 -68t-25 -96.5t25 -96.5
t68 -68t96 -24.5t96.5 24.5zM388 388h-56l-55 84h-44v-84h-47v230h102q45 0 69 -19t24 -54q0 -57 -54 -69zM233 514h55q23 0 34.5 7t11.5 24q0 16 -11 23.5t-35 7.5h-55v-62z" />
    <glyph glyph-name="macron" unicode="&#xaf;" horiz-adv-x="443" 
d="M54 718h335v-92h-335v92z" />
    <glyph glyph-name="degree" unicode="&#xb0;" horiz-adv-x="385" 
d="M89 477.5q-41 39.5 -41 98.5t41 99t102 40q63 0 103.5 -39.5t40.5 -99.5q0 -59 -40.5 -98.5t-103.5 -39.5q-61 0 -102 39.5zM241 527q20 19 20 49q0 31 -20 50.5t-49 19.5t-49.5 -19.5t-20.5 -50.5q0 -30 20.5 -49t49.5 -19t49 19z" />
    <glyph glyph-name="plusminus" unicode="&#xb1;" horiz-adv-x="641" 
d="M265 311h-175v105h175v175h104v-175h176v-105h-176v-175h-104v175zM553 95v-104h-462v104h462z" />
    <glyph glyph-name="uni00B2" unicode="&#xb2;" horiz-adv-x="343" 
d="M317 567v-74h-261v40q0 61 46 107q15 15 33.5 28t35.5 24l22 15q23 15 32.5 26.5t9.5 27.5q0 17 -17 29.5t-44 12.5q-45 0 -95 -34l-32 61q28 21 63 33t68 12q43 0 74 -16t47.5 -42t16.5 -55q0 -45 -33 -78q-16 -14 -50 -38q-42 -28 -57 -43q-13 -10 -19 -18t-9 -18h169z
" />
    <glyph glyph-name="uni00B3" unicode="&#xb3;" horiz-adv-x="310" 
d="M262 515q-37 -28 -95 -28q-32 0 -66 10.5t-63 30.5l29 60q54 -29 92 -29q23 0 40 12.5t17 30.5t-18.5 31t-44.5 13h-39v72h39q21 0 38.5 11.5t17.5 30.5q0 18 -16 30.5t-41 12.5q-36 0 -77 -25l-29 58q26 18 56 28.5t59 10.5q60 0 95 -31t35 -75q0 -28 -16 -50t-44 -34
q30 -10 49 -34.5t19 -57.5q0 -50 -37 -78z" />
    <glyph glyph-name="acute" unicode="&#xb4;" horiz-adv-x="499" 
d="M224 755h147l-105 -151h-97z" />
    <glyph glyph-name="paragraph" unicode="&#xb6;" horiz-adv-x="682" 
d="M627 621h-61v-693h-92v693h-90v-693h-92v372h-11q-72 0 -120 28.5t-71.5 75t-23.5 100.5q0 53 23 99t71.5 74.5t120.5 28.5h346v-85z" />
    <glyph glyph-name="periodcentered" unicode="&#xb7;" horiz-adv-x="337" 
d="M99 332h138v-135h-138v135z" />
    <glyph glyph-name="cedilla" unicode="&#xb8;" horiz-adv-x="319" 
d="M43 -211l20 50q32 -14 63 -14q52 0 52 36q0 16 -18 26t-49 10l-23 -1l-4 27l33 84h83l-23 -63q44 0 71.5 -26t27.5 -63q0 -39 -33.5 -68t-86.5 -29q-60 0 -113 31z" />
    <glyph glyph-name="uni00B9" unicode="&#xb9;" horiz-adv-x="254" 
d="M207 866v-373h-81v285l-71 -35l-30 63l121 60h61z" />
    <glyph glyph-name="ordmasculine" unicode="&#xba;" horiz-adv-x="401" 
d="M74 411q-47 48 -47 125q0 76 46.5 123.5t127.5 47.5q80 0 126.5 -47.5t46.5 -123.5q0 -77 -46.5 -125t-126.5 -48t-127 48zM263.5 461.5q24.5 26.5 24.5 75.5t-24.5 73.5t-62.5 24.5q-39 0 -63.5 -24.5t-24.5 -73.5t24.5 -75.5t63.5 -26.5q38 0 62.5 26.5z" />
    <glyph glyph-name="guillemotright" unicode="&#xbb;" horiz-adv-x="569" 
d="M176 261l-85 185h96l109 -185l-109 -184h-96zM365 261l-85 185h96l109 -185l-109 -184h-96z" />
    <glyph glyph-name="onequarter" unicode="&#xbc;" horiz-adv-x="838" 
d="M739 716l-499 -725h-97l499 725h97zM144 405v213l-71 -35l-30 63l121 60h61v-301h83v-72h-250v72h86zM784 69h-41v-78h-80v78h-178l-11 63l183 233h86v-228h41v-68zM663 137v130l-99 -130h99z" />
    <glyph glyph-name="onehalf" unicode="&#xbd;" horiz-adv-x="838" 
d="M729 716l-499 -725h-97l499 725h97zM140 405v213l-71 -35l-30 63l121 60h61v-301h83v-72h-250v72h86zM798 65v-74h-261v40q0 61 46 107q15 15 33.5 28t35.5 24l22 15q23 15 32.5 26.5t9.5 27.5q0 17 -17 29.5t-44 12.5q-45 0 -95 -34l-32 61q28 21 63 33t68 12
q43 0 74 -16t47.5 -42t16.5 -55q0 -45 -33 -78q-16 -14 -50 -38q-42 -28 -57 -43q-13 -10 -19 -18t-9 -18h169z" />
    <glyph glyph-name="threequarters" unicode="&#xbe;" horiz-adv-x="831" 
d="M731 716l-499 -725h-97l499 725h97zM213 411.5q17 12.5 17 30.5q0 17 -18.5 30.5t-44.5 13.5h-39v72h39q21 0 38.5 11.5t17.5 30.5q0 18 -16 30.5t-41 12.5q-36 0 -77 -25l-29 58q26 18 56 28.5t59 10.5q60 0 95 -31t35 -75q0 -26 -15 -49q-16 -23 -45 -35q29 -10 48 -33
q20 -25 20 -59q0 -50 -37 -78t-95 -28q-32 0 -66 10.5t-63 30.5l29 60q54 -29 92 -29q23 0 40 12.5zM778 69h-41v-78h-80v78h-178l-11 63l183 233h86v-228h41v-68zM657 137v130l-99 -130h99z" />
    <glyph glyph-name="questiondown" unicode="&#xbf;" horiz-adv-x="582" 
d="M380 400h-140v125h140v-125zM375 310q0 -46 -20.5 -78t-76.5 -71q-39 -26 -59.5 -42t-36.5 -41t-16 -56q0 -49 38 -79.5t94 -30.5q48 0 91 24t74 66l75 -75q-49 -62 -115.5 -93t-137.5 -31q-65 0 -121 27t-89.5 76.5t-33.5 114.5t33.5 111.5t93.5 84.5q43 30 60.5 48
t17.5 43v22h129v-20z" />
    <glyph glyph-name="Agrave" unicode="&#xc0;" horiz-adv-x="780" 
d="M336 753l-102 156h145l62 -156h-105zM546 177h-316l-71 -177h-141l303 706h141l300 -706h-146zM503 288l-114 289l-115 -289h229z" />
    <glyph glyph-name="Aacute" unicode="&#xc1;" horiz-adv-x="780" 
d="M439 753h-105l79 157h145zM546 177h-316l-71 -177h-141l303 706h141l300 -706h-146zM503 288l-114 289l-115 -289h229z" />
    <glyph glyph-name="Acircumflex" unicode="&#xc2;" horiz-adv-x="780" 
d="M323 753h-117l123 152h121l122 -152h-116l-67 85zM546 177h-316l-71 -177h-141l303 706h141l300 -706h-146zM503 288l-114 289l-115 -289h229z" />
    <glyph glyph-name="Atilde" unicode="&#xc3;" horiz-adv-x="780" 
d="M288 761h-93q10 71 43.5 104.5t83.5 33.5q22 0 40 -7.5t44 -22.5q20 -11 31.5 -16.5t24.5 -5.5q33 0 43 48h93q-9 -70 -43 -104t-84 -34q-23 0 -41 7.5t-42 22.5q-21 12 -32 17.5t-24 5.5q-34 0 -44 -49zM546 177h-316l-71 -177h-141l303 706h141l300 -706h-146zM503 288
l-114 289l-115 -289h229z" />
    <glyph glyph-name="Adieresis" unicode="&#xc4;" horiz-adv-x="780" 
d="M347 772h-126v123h126v-123zM556 772h-126v123h126v-123zM546 177h-316l-71 -177h-141l303 706h141l300 -706h-146zM503 288l-114 289l-115 -289h229z" />
    <glyph glyph-name="Aring" unicode="&#xc5;" horiz-adv-x="780" 
d="M309 763q-34 29 -34 78q0 50 34 79.5t82 29.5t81.5 -29.5t33.5 -79.5t-33.5 -78.5t-81.5 -28.5t-82 29zM359 877.5q-13 -12.5 -13 -36.5q0 -23 13 -35t32 -12t31.5 12t12.5 35q0 24 -12.5 36.5t-31.5 12.5t-32 -12.5zM546 177h-316l-71 -177h-141l303 706h141l300 -706
h-146zM503 288l-114 289l-115 -289h229z" />
    <glyph glyph-name="AE" unicode="&#xc6;" horiz-adv-x="1161" 
d="M1097 115v-115h-546v184h-263l-123 -184h-147l476 706h601v-114h-413v-172h371v-114h-371v-191h415zM551 295v300l-195 -300h195z" />
    <glyph glyph-name="Ccedilla" unicode="&#xc7;" horiz-adv-x="788" 
d="M616.5 21q-72.5 -31 -152.5 -36l-15 -42q45 0 72 -27t27 -63q0 -24 -15 -46t-42.5 -36t-62.5 -14q-58 0 -113 32l20 50q30 -15 63 -15q52 0 52 37q0 16 -18 26t-49 10l-23 -1l-4 27l25 65q-90 12 -162 59.5t-113.5 126t-41.5 179.5q0 113 50.5 197t136.5 128t188 44
q86 0 165.5 -31.5t138.5 -88.5l-72 -81q-45 40 -103 62.5t-118 22.5q-71 0 -128.5 -31t-90.5 -88.5t-33 -133.5t33.5 -133.5t91 -88.5t128.5 -31q60 0 117.5 22t102.5 62l72 -79q-54 -53 -126.5 -84z" />
    <glyph glyph-name="Egrave" unicode="&#xc8;" horiz-adv-x="747" 
d="M364 753l-102 156h145l62 -156h-105zM674 115v-115h-581v706h579v-114h-448v-172h406v-114h-406v-191h450z" />
    <glyph glyph-name="Eacute" unicode="&#xc9;" horiz-adv-x="747" 
d="M414 753h-105l79 157h145zM674 115v-115h-581v706h579v-114h-448v-172h406v-114h-406v-191h450z" />
    <glyph glyph-name="Ecircumflex" unicode="&#xca;" horiz-adv-x="747" 
d="M321 753h-117l123 152h121l122 -152h-116l-67 85zM674 115v-115h-581v706h579v-114h-448v-172h406v-114h-406v-191h450z" />
    <glyph glyph-name="Edieresis" unicode="&#xcb;" horiz-adv-x="747" 
d="M346 772h-126v123h126v-123zM555 772h-126v123h126v-123zM674 115v-115h-581v706h579v-114h-448v-172h406v-114h-406v-191h450z" />
    <glyph glyph-name="Igrave" unicode="&#xcc;" horiz-adv-x="327" 
d="M8 909h145l62 -156h-105zM98 706h131v-706h-131v706z" />
    <glyph glyph-name="Iacute" unicode="&#xcd;" horiz-adv-x="327" 
d="M185 910h145l-119 -157h-105zM98 706h131v-706h-131v706z" />
    <glyph glyph-name="Icircumflex" unicode="&#xce;" horiz-adv-x="327" 
d="M103 902h121l122 -152h-116l-67 85l-66 -85h-117zM98 706h131v-706h-131v706z" />
    <glyph glyph-name="Idieresis" unicode="&#xcf;" horiz-adv-x="327" 
d="M-4 895h126v-123h-126v123zM206 895h126v-123h-126v123zM98 706h131v-706h-131v706z" />
    <glyph glyph-name="Eth" unicode="&#xd0;" horiz-adv-x="839" 
d="M592 661.5q87 -44.5 132 -124t45 -185.5t-45 -185t-132 -123t-209 -44h-290v309h-103v102h103v295h290q122 0 209 -44.5zM569 174.5q66 62.5 66 177.5q0 116 -66 179t-178 63h-167v-183h164v-102h-164v-197h167q112 0 178 62.5z" />
    <glyph glyph-name="Ntilde" unicode="&#xd1;" horiz-adv-x="863" 
d="M329 761h-93q10 71 43.5 104.5t83.5 33.5q22 0 40 -7.5t44 -22.5q20 -11 31.5 -16.5t24.5 -5.5q33 0 43 48h93q-9 -70 -43 -104t-84 -34q-23 0 -41 7.5t-42 22.5q-21 12 -32 17.5t-24 5.5q-34 0 -44 -49zM770 706v-706h-134l-412 512v-512h-131v706h135l411 -510v510h131
z" />
    <glyph glyph-name="Ograve" unicode="&#xd2;" horiz-adv-x="880" 
d="M304 914h145l62 -156h-105zM244 30q-85 46 -131.5 129.5t-46.5 192.5q0 110 46.5 193.5t131.5 130t197 46.5t197 -46.5t131 -130t46 -193.5t-46 -193t-131 -129t-197 -46t-197 46zM615 165q65 65 65 187q0 123 -65 189t-174 66t-174.5 -66t-65.5 -189q0 -121 65.5 -186.5
t174.5 -65.5t174 65z" />
    <glyph glyph-name="Oacute" unicode="&#xd3;" horiz-adv-x="880" 
d="M451 915h145l-119 -157h-105zM244 30q-85 46 -131.5 129.5t-46.5 192.5q0 110 46.5 193.5t131.5 130t197 46.5t197 -46.5t131 -130t46 -193.5t-46 -193t-131 -129t-197 -46t-197 46zM615 165q65 65 65 187q0 123 -65 189t-174 66t-174.5 -66t-65.5 -189
q0 -121 65.5 -186.5t174.5 -65.5t174 65z" />
    <glyph glyph-name="Ocircumflex" unicode="&#xd4;" horiz-adv-x="880" 
d="M380 910h121l122 -152h-116l-67 85l-66 -85h-117zM244 30q-85 46 -131.5 129.5t-46.5 192.5q0 110 46.5 193.5t131.5 130t197 46.5t197 -46.5t131 -130t46 -193.5t-46 -193t-131 -129t-197 -46t-197 46zM615 165q65 65 65 187q0 123 -65 189t-174 66t-174.5 -66
t-65.5 -189q0 -121 65.5 -186.5t174.5 -65.5t174 65z" />
    <glyph glyph-name="Otilde" unicode="&#xd5;" horiz-adv-x="880" 
d="M472 768.5q-18 7.5 -42 22.5q-21 12 -32 17.5t-24 5.5q-34 0 -44 -49h-93q10 71 43.5 104.5t83.5 33.5q22 0 40 -7.5t44 -22.5q20 -11 31.5 -16.5t24.5 -5.5q33 0 43 48h93q-9 -70 -43 -104t-84 -34q-23 0 -41 7.5zM244 30q-85 46 -131.5 129.5t-46.5 192.5
q0 110 46.5 193.5t131.5 130t197 46.5t197 -46.5t131 -130t46 -193.5t-46 -193t-131 -129t-197 -46t-197 46zM615 165q65 65 65 187q0 123 -65 189t-174 66t-174.5 -66t-65.5 -189q0 -121 65.5 -186.5t174.5 -65.5t174 65z" />
    <glyph glyph-name="Odieresis" unicode="&#xd6;" horiz-adv-x="880" 
d="M274 897h126v-123h-126v123zM483 897h126v-123h-126v123zM244 30q-85 46 -131.5 129.5t-46.5 192.5q0 110 46.5 193.5t131.5 130t197 46.5t197 -46.5t131 -130t46 -193.5t-46 -193t-131 -129t-197 -46t-197 46zM615 165q65 65 65 187q0 123 -65 189t-174 66t-174.5 -66
t-65.5 -189q0 -121 65.5 -186.5t174.5 -65.5t174 65z" />
    <glyph glyph-name="multiply" unicode="&#xd7;" horiz-adv-x="666" 
d="M407 315l124 -125l-74 -73l-124 124l-124 -124l-74 74l124 124l-124 124l74 73l124 -123l124 124l74 -74z" />
    <glyph glyph-name="Oslash" unicode="&#xd8;" horiz-adv-x="880" 
d="M785.5 510.5q29.5 -71.5 29.5 -158.5q0 -110 -46 -193t-131 -129t-197 -46q-96 0 -173 34l-53 -75l-94 61l53 76q-52 48 -80 117.5t-28 154.5q0 110 46.5 193.5t131.5 130t197 46.5q90 0 164 -31l55 78l95 -61l-54 -77q55 -49 84.5 -120.5zM249 186l286 406
q-42 15 -94 15q-109 0 -174.5 -66t-65.5 -189q0 -103 48 -166zM615 165q65 65 65 187q0 110 -53 175l-288 -409q45 -18 102 -18q109 0 174 65z" />
    <glyph glyph-name="Ugrave" unicode="&#xd9;" horiz-adv-x="848" 
d="M301 909h145l62 -156h-105zM177 64.5q-91 80.5 -91 235.5v406h131v-401q0 -97 52 -151t155 -54q102 0 154.5 54t52.5 151v401h131v-406q0 -155 -91.5 -235.5t-246.5 -80.5q-156 0 -247 80.5z" />
    <glyph glyph-name="Uacute" unicode="&#xda;" horiz-adv-x="848" 
d="M422 910h145l-119 -157h-105zM177 64.5q-91 80.5 -91 235.5v406h131v-401q0 -97 52 -151t155 -54q102 0 154.5 54t52.5 151v401h131v-406q0 -155 -91.5 -235.5t-246.5 -80.5q-156 0 -247 80.5z" />
    <glyph glyph-name="Ucircumflex" unicode="&#xdb;" horiz-adv-x="848" 
d="M365 905h121l122 -152h-116l-67 85l-66 -85h-117zM177 64.5q-91 80.5 -91 235.5v406h131v-401q0 -97 52 -151t155 -54q102 0 154.5 54t52.5 151v401h131v-406q0 -155 -91.5 -235.5t-246.5 -80.5q-156 0 -247 80.5z" />
    <glyph glyph-name="Udieresis" unicode="&#xdc;" horiz-adv-x="848" 
d="M258 895h126v-123h-126v123zM467 895h126v-123h-126v123zM177 64.5q-91 80.5 -91 235.5v406h131v-401q0 -97 52 -151t155 -54q102 0 154.5 54t52.5 151v401h131v-406q0 -155 -91.5 -235.5t-246.5 -80.5q-156 0 -247 80.5z" />
    <glyph glyph-name="Yacute" unicode="&#xdd;" horiz-adv-x="652" 
d="M358 753h-105l79 157h145zM650 706l-258 -451v-255h-131v255l-259 451h144l181 -329l185 329h138z" />
    <glyph glyph-name="Thorn" unicode="&#xde;" horiz-adv-x="757" 
d="M629.5 535.5q70.5 -60.5 70.5 -166.5q0 -114 -70.5 -172t-201.5 -58h-204v-139h-131v706h131v-110h205q130 0 200.5 -60.5zM534 280.5q34 26.5 34 88.5q0 63 -35 88t-109 25h-200v-228h201q75 0 109 26.5z" />
    <glyph glyph-name="germandbls" unicode="&#xdf;" horiz-adv-x="668" 
d="M330.5 -8q-41.5 8 -74.5 32v106q37 -21 72.5 -30t60.5 -9q51 0 82.5 22.5t31.5 55.5q0 29 -20 48.5t-64 47.5q-7 4 -42 23t-54 43t-19 51q0 22 13.5 41t38.5 40q6 5 25.5 21t29.5 30.5t10 29.5q0 29 -28 53t-71 24q-58 0 -88.5 -42.5t-30.5 -116.5v-462h-122v472
q0 124 65 187t174 63q71 0 120.5 -22.5t74 -59t24.5 -77.5q0 -34 -14.5 -59t-39.5 -47l-23 -18q-22 -17 -32 -27.5t-10 -21.5t14 -20.5t48 -27.5l43 -23q48 -29 76 -65.5t28 -94.5q0 -45 -27.5 -85t-79 -65t-118.5 -25q-32 0 -73.5 8z" />
    <glyph glyph-name="agrave" unicode="&#xe0;" horiz-adv-x="629" 
d="M302 598l-116 151h147l66 -151h-97zM557 286v-286h-104l-6 50q-34 -30 -89.5 -48t-105.5 -18q-87 0 -145 45.5t-58 128.5q0 94 78.5 134t193.5 40q49 0 116 -9v8q0 57 -33 81t-100 24q-94 0 -184 -42l-36 85q47 28 108 43.5t123 15.5q79 0 138.5 -27t84.5 -85
q19 -44 19 -140zM362.5 99q44.5 13 74.5 41v100q-54 8 -102 8q-72 0 -117.5 -18.5t-45.5 -68.5q0 -75 104 -75q42 0 86.5 13z" />
    <glyph glyph-name="aacute" unicode="&#xe1;" horiz-adv-x="631" 
d="M345 598h-97l55 151h147zM557 286v-286h-104l-6 50q-34 -30 -89.5 -48t-105.5 -18q-87 0 -145 45.5t-58 128.5q0 94 78.5 134t193.5 40q49 0 116 -9v8q0 57 -33 81t-100 24q-94 0 -184 -42l-36 85q47 28 108 43.5t123 15.5q79 0 138.5 -27t84.5 -85q19 -44 19 -140z
M362.5 99q44.5 13 74.5 41v100q-54 8 -102 8q-72 0 -117.5 -18.5t-45.5 -68.5q0 -75 104 -75q42 0 86.5 13z" />
    <glyph glyph-name="acircumflex" unicode="&#xe2;" horiz-adv-x="631" 
d="M253 598h-117l127 160h113l127 -160h-117l-67 96zM557 286v-286h-104l-6 50q-34 -30 -89.5 -48t-105.5 -18q-87 0 -145 45.5t-58 128.5q0 94 78.5 134t193.5 40q49 0 116 -9v8q0 57 -33 81t-100 24q-94 0 -184 -42l-36 85q47 28 108 43.5t123 15.5q79 0 138.5 -27
t84.5 -85q19 -44 19 -140zM362.5 99q44.5 13 74.5 41v100q-54 8 -102 8q-72 0 -117.5 -18.5t-45.5 -68.5q0 -75 104 -75q42 0 86.5 13z" />
    <glyph glyph-name="atilde" unicode="&#xe3;" horiz-adv-x="629" 
d="M204 605h-87q10 71 43 104.5t82 33.5q23 0 41.5 -7.5t45.5 -22.5q21 -12 34 -17.5t27 -5.5q36 0 46 49h87q-9 -70 -42.5 -104t-82.5 -34q-24 0 -42.5 7.5t-45.5 22.5q-22 12 -34 17.5t-25 5.5q-37 0 -47 -49zM557 286v-286h-104l-6 50q-34 -30 -89.5 -48t-105.5 -18
q-87 0 -145 45.5t-58 128.5q0 94 78.5 134t193.5 40q49 0 116 -9v8q0 57 -33 81t-100 24q-94 0 -184 -42l-36 85q47 28 108 43.5t123 15.5q79 0 138.5 -27t84.5 -85q19 -44 19 -140zM362.5 99q44.5 13 74.5 41v100q-54 8 -102 8q-72 0 -117.5 -18.5t-45.5 -68.5
q0 -75 104 -75q42 0 86.5 13z" />
    <glyph glyph-name="adieresis" unicode="&#xe4;" horiz-adv-x="631" 
d="M275 610h-119v116h119v-116zM487 610h-119v116h119v-116zM557 286v-286h-104l-6 50q-34 -30 -89.5 -48t-105.5 -18q-87 0 -145 45.5t-58 128.5q0 94 78.5 134t193.5 40q49 0 116 -9v8q0 57 -33 81t-100 24q-94 0 -184 -42l-36 85q47 28 108 43.5t123 15.5q79 0 138.5 -27
t84.5 -85q19 -44 19 -140zM362.5 99q44.5 13 74.5 41v100q-54 8 -102 8q-72 0 -117.5 -18.5t-45.5 -68.5q0 -75 104 -75q42 0 86.5 13z" />
    <glyph glyph-name="aring" unicode="&#xe5;" horiz-adv-x="629" 
d="M242 619.5q-33 27.5 -33 76.5t33 77t79 28t79 -28t33 -77t-33 -76.5t-79 -27.5t-79 27.5zM288.5 731.5q-12.5 -12.5 -12.5 -35.5q0 -22 12.5 -34.5t31.5 -12.5t31 12.5t12 34.5q0 23 -12 35.5t-31 12.5t-31.5 -12.5zM557 286v-286h-104l-6 50q-34 -30 -89.5 -48
t-105.5 -18q-87 0 -145 45.5t-58 128.5q0 94 78.5 134t193.5 40q49 0 116 -9v8q0 57 -33 81t-100 24q-94 0 -184 -42l-36 85q47 28 108 43.5t123 15.5q79 0 138.5 -27t84.5 -85q19 -44 19 -140zM362.5 99q44.5 13 74.5 41v100q-54 8 -102 8q-72 0 -117.5 -18.5t-45.5 -68.5
q0 -75 104 -75q42 0 86.5 13z" />
    <glyph glyph-name="ae" unicode="&#xe6;" horiz-adv-x="1023" 
d="M953 213h-401q13 -64 57.5 -97t117.5 -33q44 0 89.5 14t82.5 41l48 -73q-47 -39 -108 -60t-122 -21q-74 0 -129 22t-99 69q-42 -40 -98 -65.5t-135 -25.5q-88 0 -147.5 45.5t-59.5 128.5q0 94 78.5 134t193.5 40q54 0 110 -8l6 24q-6 47 -39 67.5t-94 20.5
q-92 0 -184 -42l-36 85q47 28 108 43.5t123 15.5q63 0 113.5 -17t81.5 -53q39 34 91.5 52t113.5 18q68 0 125.5 -28t92 -82t34.5 -127q0 -51 -14 -88zM813 403.5q-41 36.5 -103 36.5q-66 0 -107.5 -36t-51.5 -103h300q3 66 -38 102.5zM446 146q-18 46 -20 96q-50 6 -91 6
q-72 0 -117.5 -18.5t-45.5 -68.5q0 -75 104 -75q96 0 170 60z" />
    <glyph glyph-name="ccedilla" unicode="&#xe7;" horiz-adv-x="607" 
d="M352 -16l-15 -41q36 0 67.5 -22t31.5 -66q0 -25 -15 -47.5t-42 -36.5t-63 -14q-58 0 -113 32l20 50q30 -15 63 -15q52 0 52 37q0 16 -18 26t-49 10l-23 -1l-4 27l26 67q-65 13 -116 50.5t-79 94.5t-28 126q0 80 37 143t103 98.5t152 35.5q64 0 122.5 -20.5t104.5 -63.5
l-58 -78q-29 27 -71 42t-87 15q-54 0 -95 -22.5t-63 -62t-22 -88.5q0 -77 49.5 -124t130.5 -47q45 0 87 15t71 42l58 -78q-86 -79 -214 -84z" />
    <glyph glyph-name="egrave" unicode="&#xe8;" horiz-adv-x="644" 
d="M310 598l-116 151h147l66 -151h-97zM575 213h-401q13 -65 58 -97.5t117 -32.5q44 0 89.5 14t82.5 41l44 -77q-47 -38 -106 -57.5t-120 -19.5q-88 0 -154 34.5t-102 97t-36 144.5q0 79 34.5 142.5t100 99.5t155.5 36q68 0 125.5 -28t92 -82t34.5 -127q0 -51 -14 -88z
M435 403.5q-41 36.5 -103 36.5q-65 0 -107 -36.5t-52 -102.5h300q3 66 -38 102.5z" />
    <glyph glyph-name="eacute" unicode="&#xe9;" horiz-adv-x="644" 
d="M363 598h-97l55 151h147zM575 213h-401q13 -65 58 -97.5t117 -32.5q44 0 89.5 14t82.5 41l44 -77q-47 -38 -106 -57.5t-120 -19.5q-88 0 -154 34.5t-102 97t-36 144.5q0 79 34.5 142.5t100 99.5t155.5 36q68 0 125.5 -28t92 -82t34.5 -127q0 -51 -14 -88zM435 403.5
q-41 36.5 -103 36.5q-65 0 -107 -36.5t-52 -102.5h300q3 66 -38 102.5z" />
    <glyph glyph-name="ecircumflex" unicode="&#xea;" horiz-adv-x="644" 
d="M257 598h-117l127 160h113l127 -160h-117l-66 96zM575 213h-401q13 -65 58 -97.5t117 -32.5q44 0 89.5 14t82.5 41l44 -77q-47 -38 -106 -57.5t-120 -19.5q-88 0 -154 34.5t-102 97t-36 144.5q0 79 34.5 142.5t100 99.5t155.5 36q68 0 125.5 -28t92 -82t34.5 -127
q0 -51 -14 -88zM435 403.5q-41 36.5 -103 36.5q-65 0 -107 -36.5t-52 -102.5h300q3 66 -38 102.5z" />
    <glyph glyph-name="edieresis" unicode="&#xeb;" horiz-adv-x="644" 
d="M283 610h-119v116h119v-116zM494 610h-119v116h119v-116zM575 213h-401q13 -65 58 -97.5t117 -32.5q44 0 89.5 14t82.5 41l44 -77q-47 -38 -106 -57.5t-120 -19.5q-88 0 -154 34.5t-102 97t-36 144.5q0 79 34.5 142.5t100 99.5t155.5 36q68 0 125.5 -28t92 -82t34.5 -127
q0 -51 -14 -88zM435 403.5q-41 36.5 -103 36.5q-65 0 -107 -36.5t-52 -102.5h300q3 66 -38 102.5z" />
    <glyph glyph-name="igrave" unicode="&#xec;" horiz-adv-x="278" 
d="M-23 740h147l66 -152h-97zM77 519h124v-519h-124v519z" />
    <glyph glyph-name="iacute" unicode="&#xed;" horiz-adv-x="278" 
d="M140 728h147l-105 -151h-97zM77 519h124v-519h-124v519z" />
    <glyph glyph-name="icircumflex" unicode="&#xee;" horiz-adv-x="278" 
d="M84 748h114l126 -160h-116l-67 97l-67 -97h-117zM77 519h124v-519h-124v519z" />
    <glyph glyph-name="idieresis" unicode="&#xef;" horiz-adv-x="278" 
d="M-23 718h119v-116h-119v116zM182 718h119v-116h-119v116zM77 519h124v-519h-124v519z" />
    <glyph glyph-name="eth" unicode="&#xf0;" horiz-adv-x="652" 
d="M568.5 161.5q-40.5 -86.5 -109.5 -132t-153 -45.5q-75 0 -133 33t-90 90.5t-32 127.5q0 68 32 126t89 92t130 34q59 0 110 -28.5t77 -78.5q0 68 -24.5 120t-68.5 87l-129 -70l-38 75l84 46q-67 30 -158 42l20 99q148 -17 252 -78l124 68l38 -77l-87 -47q52 -52 79.5 -120
t27.5 -159q0 -118 -40.5 -204.5zM415.5 133.5q42.5 41.5 42.5 108.5q0 61 -40.5 99.5t-100.5 38.5q-66 0 -105 -41.5t-39 -103.5t38.5 -102.5t98.5 -40.5q63 0 105.5 41.5z" />
    <glyph glyph-name="ntilde" unicode="&#xf1;" 
d="M220 605h-87q10 71 43 104.5t82 33.5q23 0 41.5 -7.5t45.5 -22.5q21 -12 34 -17.5t27 -5.5q36 0 46 49h87q-9 -70 -42.5 -104t-83.5 -34q-23 0 -41.5 7.5t-45.5 22.5q-19 11 -32.5 17t-26.5 6q-37 0 -47 -49zM595 0h-124v291q0 68 -27 104t-90 36q-38 0 -79 -21.5
t-76 -62.5v-347h-125v519h109l7 -70q87 89 207 89q92 0 145 -59.5t53 -162.5v-316z" />
    <glyph glyph-name="ograve" unicode="&#xf2;" horiz-adv-x="678" 
d="M203 749h147l66 -151h-97zM184.5 19.5q-65.5 35.5 -100.5 98t-35 143.5t35 143.5t100.5 98t154.5 35.5t155 -35t101 -97.5t35 -143.5t-35 -144t-100.5 -98.5t-154.5 -35.5q-90 0 -155.5 35.5zM461.5 132q44.5 44 44.5 131q0 86 -44.5 128.5t-122.5 42.5t-122.5 -42.5
t-44.5 -128.5q0 -87 45 -131t122 -44q78 0 122.5 44z" />
    <glyph glyph-name="oacute" unicode="&#xf3;" horiz-adv-x="678" 
d="M334 749h147l-105 -151h-97zM184.5 19.5q-65.5 35.5 -100.5 98t-35 143.5t35 143.5t100.5 98t154.5 35.5t155 -35t101 -97.5t35 -143.5t-35 -144t-100.5 -98.5t-154.5 -35.5q-90 0 -155.5 35.5zM461.5 132q44.5 44 44.5 131q0 86 -44.5 128.5t-122.5 42.5t-122.5 -42.5
t-44.5 -128.5q0 -87 45 -131t122 -44q78 0 122.5 44z" />
    <glyph glyph-name="ocircumflex" unicode="&#xf4;" horiz-adv-x="678" 
d="M283 758h113l127 -160h-117l-66 96l-67 -96h-117zM184.5 19.5q-65.5 35.5 -100.5 98t-35 143.5t35 143.5t100.5 98t154.5 35.5t155 -35t101 -97.5t35 -143.5t-35 -144t-100.5 -98.5t-154.5 -35.5q-90 0 -155.5 35.5zM461.5 132q44.5 44 44.5 131q0 86 -44.5 128.5
t-122.5 42.5t-122.5 -42.5t-44.5 -128.5q0 -87 45 -131t122 -44q78 0 122.5 44z" />
    <glyph glyph-name="otilde" unicode="&#xf5;" horiz-adv-x="678" 
d="M375.5 608.5q-18.5 7.5 -45.5 22.5q-22 12 -34 17.5t-25 5.5q-37 0 -47 -49h-87q10 71 43 104.5t82 33.5q23 0 41.5 -7.5t45.5 -22.5q21 -12 34 -17.5t27 -5.5q36 0 46 49h87q-9 -70 -42.5 -104t-82.5 -34q-24 0 -42.5 7.5zM184.5 19.5q-65.5 35.5 -100.5 98t-35 143.5
t35 143.5t100.5 98t154.5 35.5t155 -35t101 -97.5t35 -143.5t-35 -144t-100.5 -98.5t-154.5 -35.5q-90 0 -155.5 35.5zM461.5 132q44.5 44 44.5 131q0 86 -44.5 128.5t-122.5 42.5t-122.5 -42.5t-44.5 -128.5q0 -87 45 -131t122 -44q78 0 122.5 44z" />
    <glyph glyph-name="odieresis" unicode="&#xf6;" horiz-adv-x="678" 
d="M174 726h119v-116h-119v116zM386 726h119v-116h-119v116zM184.5 19.5q-65.5 35.5 -100.5 98t-35 143.5t35 143.5t100.5 98t154.5 35.5t155 -35t101 -97.5t35 -143.5t-35 -144t-100.5 -98.5t-154.5 -35.5q-90 0 -155.5 35.5zM461.5 132q44.5 44 44.5 131q0 86 -44.5 128.5
t-122.5 42.5t-122.5 -42.5t-44.5 -128.5q0 -87 45 -131t122 -44q78 0 122.5 44z" />
    <glyph glyph-name="divide" unicode="&#xf7;" horiz-adv-x="649" 
d="M268 538h111v-107h-111v107zM94 364h461v-105h-461v105zM268 192h111v-107h-111v107z" />
    <glyph glyph-name="oslash" unicode="&#xf8;" horiz-adv-x="678" 
d="M606.5 382q23.5 -54 23.5 -120q0 -81 -35 -144t-100.5 -98.5t-154.5 -35.5q-69 0 -123 21l-46 -67l-76 50l43 63q-43 37 -66 91t-23 119q0 81 35 143.5t100.5 98t154.5 35.5q66 0 120 -20l47 68l76 -50l-43 -63q44 -37 67.5 -91zM204 147l193 280q-25 7 -58 7
q-78 0 -122.5 -42.5t-44.5 -128.5q0 -71 32 -116zM461.5 132q44.5 44 44.5 131q0 71 -33 115l-193 -282q29 -8 59 -8q78 0 122.5 44z" />
    <glyph glyph-name="ugrave" unicode="&#xf9;" 
d="M313 598l-116 151h147l66 -151h-97zM595 519v-519h-109l-7 68q-42 -40 -92 -62t-113 -22q-41 0 -78.5 14t-63.5 39q-30 30 -44.5 70.5t-14.5 98.5v313h125v-290q0 -68 27 -103t91 -35q40 0 80.5 19t73.5 57v352h125z" />
    <glyph glyph-name="uacute" unicode="&#xfa;" 
d="M353 598h-97l55 151h147zM595 519v-519h-109l-7 68q-42 -40 -92 -62t-113 -22q-41 0 -78.5 14t-63.5 39q-30 30 -44.5 70.5t-14.5 98.5v313h125v-290q0 -68 27 -103t91 -35q40 0 80.5 19t73.5 57v352h125z" />
    <glyph glyph-name="ucircumflex" unicode="&#xfb;" 
d="M268 598h-117l127 160h113l127 -160h-117l-66 96zM595 519v-519h-109l-7 68q-42 -40 -92 -62t-113 -22q-41 0 -78.5 14t-63.5 39q-30 30 -44.5 70.5t-14.5 98.5v313h125v-290q0 -68 27 -103t91 -35q40 0 80.5 19t73.5 57v352h125z" />
    <glyph glyph-name="udieresis" unicode="&#xfc;" 
d="M287 610h-119v116h119v-116zM499 610h-119v116h119v-116zM595 519v-519h-109l-7 68q-42 -40 -92 -62t-113 -22q-41 0 -78.5 14t-63.5 39q-30 30 -44.5 70.5t-14.5 98.5v313h125v-290q0 -68 27 -103t91 -35q40 0 80.5 19t73.5 57v352h125z" />
    <glyph glyph-name="yacute" unicode="&#xfd;" horiz-adv-x="655" 
d="M362 598h-97l55 151h147zM581 519v-488q0 -129 -78.5 -200t-215.5 -71q-106 0 -209 50l35 96q39 -17 85.5 -28.5t89.5 -11.5q172 0 175 162v31q-82 -75 -192 -75q-42 0 -81 15.5t-65 41.5q-29 28 -44.5 70.5t-15.5 98.5v309h125v-281q0 -72 29 -109.5t93 -37.5
q39 0 77 18.5t69 55.5v354h123z" />
    <glyph glyph-name="thorn" unicode="&#xfe;" horiz-adv-x="670" 
d="M502.5 504q57.5 -34 89 -96.5t31.5 -144.5t-31.5 -145.5t-88.5 -98.5t-132 -35q-113 0 -177 75v-232h-120v879h120v-245q32 38 77 57.5t99 19.5q75 0 132.5 -34zM459.5 137q40.5 44 40.5 126t-40.5 124.5t-111.5 42.5q-72 0 -112.5 -42.5t-40.5 -124.5t41 -126t112 -44
t111.5 44z" />
    <glyph glyph-name="ydieresis" unicode="&#xff;" horiz-adv-x="655" 
d="M274 610h-119v116h119v-116zM486 610h-119v116h119v-116zM581 519v-488q0 -129 -78.5 -200t-215.5 -71q-106 0 -209 50l35 96q39 -17 85.5 -28.5t89.5 -11.5q172 0 175 162v31q-82 -75 -192 -75q-42 0 -81 15.5t-65 41.5q-29 28 -44.5 70.5t-15.5 98.5v309h125v-281
q0 -72 29 -109.5t93 -37.5q39 0 77 18.5t69 55.5v354h123z" />
    <glyph glyph-name="Amacron" unicode="&#x100;" horiz-adv-x="780" 
d="M558 764h-335v95h335v-95zM546 177h-316l-71 -177h-141l303 706h141l300 -706h-146zM503 288l-114 289l-115 -289h229z" />
    <glyph glyph-name="amacron" unicode="&#x101;" horiz-adv-x="631" 
d="M489 610h-335v92h335v-92zM557 286v-286h-104l-6 50q-34 -30 -89.5 -48t-105.5 -18q-87 0 -145 45.5t-58 128.5q0 94 78.5 134t193.5 40q49 0 116 -9v8q0 57 -33 81t-100 24q-94 0 -184 -42l-36 85q47 28 108 43.5t123 15.5q79 0 138.5 -27t84.5 -85q19 -44 19 -140z
M362.5 99q44.5 13 74.5 41v100q-54 8 -102 8q-72 0 -117.5 -18.5t-45.5 -68.5q0 -75 104 -75q42 0 86.5 13z" />
    <glyph glyph-name="Abreve" unicode="&#x102;" horiz-adv-x="780" 
d="M268.5 791.5q-48.5 39.5 -48.5 108.5h102q0 -30 20.5 -50.5t49.5 -20.5t49.5 20.5t20.5 50.5h103q0 -68 -49 -108t-124 -40t-123.5 39.5zM546 177h-316l-71 -177h-141l303 706h141l300 -706h-146zM503 288l-114 289l-115 -289h229z" />
    <glyph glyph-name="abreve" unicode="&#x103;" horiz-adv-x="631" 
d="M198 634q-49 42 -49 115h99q0 -38 20 -59.5t53 -21.5t53.5 22t20.5 59h99q0 -73 -49.5 -115t-123.5 -42t-123 42zM557 286v-286h-104l-6 50q-34 -30 -89.5 -48t-105.5 -18q-87 0 -145 45.5t-58 128.5q0 94 78.5 134t193.5 40q49 0 116 -9v8q0 57 -33 81t-100 24
q-94 0 -184 -42l-36 85q47 28 108 43.5t123 15.5q79 0 138.5 -27t84.5 -85q19 -44 19 -140zM362.5 99q44.5 13 74.5 41v100q-54 8 -102 8q-72 0 -117.5 -18.5t-45.5 -68.5q0 -75 104 -75q42 0 86.5 13z" />
    <glyph glyph-name="Aogonek" unicode="&#x104;" horiz-adv-x="788" 
d="M766 -209q-41 -31 -96 -31q-54 0 -86 31.5t-32 77.5q0 41 24 74t64 57h-24l-70 177h-316l-71 -177h-141l303 706h141l300 -706q-57 -18 -85 -45t-28 -54q0 -21 14.5 -33t34.5 -12t38 8zM503 288l-114 289l-115 -289h229z" />
    <glyph glyph-name="aogonek" unicode="&#x105;" horiz-adv-x="642" 
d="M570 -209q-41 -31 -96 -31q-54 0 -86 31.5t-32 77.5q0 44 26.5 78t69.5 58l-5 45q-34 -30 -89.5 -48t-105.5 -18q-87 0 -145 45.5t-58 128.5q0 94 78.5 134t193.5 40q49 0 116 -9v8q0 57 -33 81t-100 24q-94 0 -184 -42l-36 85q47 28 108 43.5t123 15.5q79 0 138.5 -27
t84.5 -85q19 -44 19 -140v-286q-52 -19 -78 -45.5t-26 -53.5q0 -21 14.5 -33t34.5 -12t38 8zM362.5 99q44.5 13 74.5 41v100q-54 8 -102 8q-72 0 -117.5 -18.5t-45.5 -68.5q0 -75 104 -75q42 0 86.5 13z" />
    <glyph glyph-name="Cacute" unicode="&#x106;" horiz-adv-x="788" 
d="M445 915h145l-119 -157h-105zM249.5 29q-85.5 45 -135.5 128.5t-50 195.5q0 113 50.5 197t136.5 128t188 44q86 0 165.5 -31.5t138.5 -88.5l-72 -81q-45 40 -103 62.5t-118 22.5q-71 0 -128.5 -31t-90.5 -88.5t-33 -133.5t33.5 -133.5t91 -88.5t128.5 -31q60 0 117.5 22
t102.5 62l72 -79q-59 -57 -138.5 -89t-165.5 -32q-104 0 -189.5 45z" />
    <glyph glyph-name="cacute" unicode="&#x107;" horiz-adv-x="607" 
d="M320 749h147l-105 -151h-97zM186.5 19.5q-66.5 35.5 -103 98.5t-36.5 143q0 79 37 142.5t103.5 99t151.5 35.5q64 0 122.5 -20.5t104.5 -63.5l-58 -78q-29 27 -71 42t-87 15q-53 0 -94 -23t-63.5 -62.5t-22.5 -87.5q0 -78 49 -124.5t131 -46.5q45 0 87 15t71 42l58 -78
q-46 -43 -104.5 -63.5t-122.5 -20.5q-86 0 -152.5 35.5z" />
    <glyph glyph-name="Ccircumflex" unicode="&#x108;" horiz-adv-x="788" 
d="M375 910h121l122 -152h-116l-67 85l-66 -85h-117zM249.5 29q-85.5 45 -135.5 128.5t-50 195.5q0 113 50.5 197t136.5 128t188 44q86 0 165.5 -31.5t138.5 -88.5l-72 -81q-45 40 -103 62.5t-118 22.5q-71 0 -128.5 -31t-90.5 -88.5t-33 -133.5t33.5 -133.5t91 -88.5
t128.5 -31q60 0 117.5 22t102.5 62l72 -79q-59 -57 -138.5 -89t-165.5 -32q-104 0 -189.5 45z" />
    <glyph glyph-name="ccircumflex" unicode="&#x109;" horiz-adv-x="607" 
d="M268 758h113l127 -160h-117l-66 96l-67 -96h-117zM187.5 19.5q-66.5 35.5 -103.5 99t-37 142.5q0 80 37 143t103 98.5t152 35.5q64 0 122.5 -20.5t104.5 -63.5l-58 -78q-29 27 -71 42t-87 15q-54 0 -95 -22.5t-63 -62t-22 -88.5q0 -77 49.5 -124t130.5 -47q45 0 87 15
t71 42l58 -78q-46 -43 -104.5 -63.5t-122.5 -20.5q-85 0 -151.5 35.5z" />
    <glyph glyph-name="Cdotaccent" unicode="&#x10a;" horiz-adv-x="788" 
d="M360 900h137v-126h-137v126zM249.5 29q-85.5 45 -135.5 128.5t-50 195.5q0 113 50.5 197t136.5 128t188 44q86 0 165.5 -31.5t138.5 -88.5l-72 -81q-45 40 -103 62.5t-118 22.5q-71 0 -128.5 -31t-90.5 -88.5t-33 -133.5t33.5 -133.5t91 -88.5t128.5 -31q60 0 117.5 22
t102.5 62l72 -79q-59 -57 -138.5 -89t-165.5 -32q-104 0 -189.5 45z" />
    <glyph glyph-name="cdotaccent" unicode="&#x10b;" horiz-adv-x="607" 
d="M262 706h127v-115h-127v115zM187.5 19.5q-66.5 35.5 -103.5 99t-37 142.5q0 80 37 143t103 98.5t152 35.5q64 0 122.5 -20.5t104.5 -63.5l-58 -78q-29 27 -71 42t-87 15q-54 0 -95 -22.5t-63 -62t-22 -88.5q0 -77 49.5 -124t130.5 -47q45 0 87 15t71 42l58 -78
q-46 -43 -104.5 -63.5t-122.5 -20.5q-85 0 -151.5 35.5z" />
    <glyph glyph-name="Ccaron" unicode="&#x10c;" horiz-adv-x="788" 
d="M245 907h117l66 -86l66 86h117l-122 -152h-122zM249.5 29q-85.5 45 -135.5 128.5t-50 195.5q0 113 50.5 197t136.5 128t188 44q86 0 165.5 -31.5t138.5 -88.5l-72 -81q-45 40 -103 62.5t-118 22.5q-71 0 -128.5 -31t-90.5 -88.5t-33 -133.5t33.5 -133.5t91 -88.5
t128.5 -31q60 0 117.5 22t102.5 62l72 -79q-59 -57 -138.5 -89t-165.5 -32q-104 0 -189.5 45z" />
    <glyph glyph-name="ccaron" unicode="&#x10d;" horiz-adv-x="607" 
d="M148 753h119l65 -90l65 90h119l-125 -157h-117zM187.5 19.5q-66.5 35.5 -103.5 99t-37 142.5q0 80 37 143t103 98.5t152 35.5q64 0 122.5 -20.5t104.5 -63.5l-58 -78q-29 27 -71 42t-87 15q-54 0 -95 -22.5t-63 -62t-22 -88.5q0 -77 49.5 -124t130.5 -47q45 0 87 15
t71 42l58 -78q-46 -43 -104.5 -63.5t-122.5 -20.5q-85 0 -151.5 35.5z" />
    <glyph glyph-name="Dcaron" unicode="&#x10e;" horiz-adv-x="839" 
d="M314 753l-122 152h117l66 -86l66 86h117l-122 -152h-122zM592 661.5q87 -44.5 132 -124t45 -185.5t-45 -185t-132 -123t-209 -44h-290v706h290q122 0 209 -44.5zM569 174.5q66 62.5 66 177.5q0 116 -66 179t-178 63h-167v-482h167q112 0 178 62.5z" />
    <glyph glyph-name="dcaron" unicode="&#x10f;" horiz-adv-x="774" 
d="M792 719l-60 -185h-86l26 185h120zM476 706h122v-706h-107l-3 73q-32 -43 -80 -66t-108 -23q-75 0 -132.5 34t-89 96.5t-31.5 144.5t31.5 145.5t88.5 98.5t132 35q56 0 101 -19.5t76 -56.5v244zM432 136q43 44 43 128q0 78 -41 121.5t-112 43.5t-111.5 -44t-40.5 -126
t40 -124.5t111 -42.5q68 0 111 44z" />
    <glyph glyph-name="Dcroat" unicode="&#x110;" horiz-adv-x="839" 
d="M592 661.5q87 -44.5 132 -124t45 -185.5t-45 -185t-132 -123t-209 -44h-290v309h-103v102h103v295h290q122 0 209 -44.5zM569 174.5q66 62.5 66 177.5q0 116 -66 179t-178 63h-167v-183h164v-102h-164v-197h167q112 0 178 62.5z" />
    <glyph glyph-name="dcroat" unicode="&#x111;" horiz-adv-x="657" 
d="M659 561h-61v-561h-107l-3 73q-32 -43 -80 -66t-108 -23q-76 0 -133 32.5t-88.5 93.5t-31.5 143t31.5 145.5t88.5 98.5t132 35q56 0 101 -19.5t76 -56.5v105h-155v79h155v66h122v-66h61v-79zM432.5 133q42.5 41 42.5 125q0 78 -41 121.5t-112 43.5t-111.5 -44t-40.5 -126
q0 -81 40 -121t111 -40q69 0 111.5 41z" />
    <glyph glyph-name="Emacron" unicode="&#x112;" horiz-adv-x="747" 
d="M602 779h-436v95h436v-95zM674 115v-115h-581v706h579v-114h-448v-172h406v-114h-406v-191h450z" />
    <glyph glyph-name="emacron" unicode="&#x113;" horiz-adv-x="644" 
d="M496 610h-335v92h335v-92zM575 213h-401q13 -65 58 -97.5t117 -32.5q44 0 89.5 14t82.5 41l44 -77q-47 -38 -106 -57.5t-120 -19.5q-88 0 -154 34.5t-102 97t-36 144.5q0 79 34.5 142.5t100 99.5t155.5 36q68 0 125.5 -28t92 -82t34.5 -127q0 -51 -14 -88zM435 403.5
q-41 36.5 -103 36.5q-65 0 -107 -36.5t-52 -102.5h300q3 66 -38 102.5z" />
    <glyph glyph-name="Ebreve" unicode="&#x114;" horiz-adv-x="747" 
d="M259.5 792.5q-48.5 39.5 -48.5 108.5h102q0 -30 20.5 -50.5t49.5 -20.5t49.5 20.5t20.5 50.5h103q0 -68 -49 -108t-124 -40t-123.5 39.5zM674 115v-115h-581v706h579v-114h-448v-172h406v-114h-406v-191h450z" />
    <glyph glyph-name="ebreve" unicode="&#x115;" horiz-adv-x="644" 
d="M208 636q-49 42 -49 115h99q0 -38 20 -59.5t53 -21.5t53.5 22t20.5 59h99q0 -73 -49.5 -115t-123.5 -42t-123 42zM575 213h-401q13 -65 58 -97.5t117 -32.5q44 0 89.5 14t82.5 41l44 -77q-47 -38 -106 -57.5t-120 -19.5q-88 0 -154 34.5t-102 97t-36 144.5
q0 79 34.5 142.5t100 99.5t155.5 36q68 0 125.5 -28t92 -82t34.5 -127q0 -51 -14 -88zM435 403.5q-41 36.5 -103 36.5q-65 0 -107 -36.5t-52 -102.5h300q3 66 -38 102.5z" />
    <glyph glyph-name="Edotaccent" unicode="&#x116;" horiz-adv-x="747" 
d="M454 774h-137v126h137v-126zM674 115v-115h-581v706h579v-114h-448v-172h406v-114h-406v-191h450z" />
    <glyph glyph-name="edotaccent" unicode="&#x117;" horiz-adv-x="644" 
d="M392 590h-127v116h127v-116zM575 213h-401q13 -65 58 -97.5t117 -32.5q44 0 89.5 14t82.5 41l44 -77q-47 -38 -106 -57.5t-120 -19.5q-88 0 -154 34.5t-102 97t-36 144.5q0 79 34.5 142.5t100 99.5t155.5 36q68 0 125.5 -28t92 -82t34.5 -127q0 -51 -14 -88zM435 403.5
q-41 36.5 -103 36.5q-65 0 -107 -36.5t-52 -102.5h300q3 66 -38 102.5z" />
    <glyph glyph-name="Eogonek" unicode="&#x118;" horiz-adv-x="747" 
d="M686 -209q-41 -31 -96 -31q-54 0 -86 31.5t-32 77.5q0 41 24 74t64 57h-467v706h579v-114h-448v-172h406v-114h-406v-191h450v-115q-52 -19 -78.5 -45.5t-26.5 -53.5q0 -21 14.5 -33t34.5 -12t38 8z" />
    <glyph glyph-name="eogonek" unicode="&#x119;" horiz-adv-x="644" 
d="M575 213h-401q13 -65 58 -97.5t117 -32.5q44 0 89.5 14t82.5 41l44 -77q-10 -8 -26 -18.5t-23 -15.5q-97 -66 -97 -124q0 -21 13.5 -34t37.5 -13q20 0 38 8l30 -73q-41 -31 -97 -31q-55 0 -87.5 31t-32.5 75q0 69 70 122q-24 -4 -52 -4q-88 0 -154 34.5t-102 97
t-36 144.5q0 79 34.5 142.5t100 99.5t155.5 36q68 0 125.5 -28t92 -82t34.5 -127q0 -51 -14 -88zM435 403.5q-41 36.5 -103 36.5q-65 0 -107 -36.5t-52 -102.5h300q3 66 -38 102.5z" />
    <glyph glyph-name="Ecaron" unicode="&#x11a;" horiz-adv-x="747" 
d="M327 753l-122 152h117l66 -86l66 86h117l-122 -152h-122zM674 115v-115h-581v706h579v-114h-448v-172h406v-114h-406v-191h450z" />
    <glyph glyph-name="ecaron" unicode="&#x11b;" horiz-adv-x="644" 
d="M270 596l-126 157h119l65 -90l65 90h119l-125 -157h-117zM575 213h-401q13 -65 58 -97.5t117 -32.5q44 0 89.5 14t82.5 41l44 -77q-47 -38 -106 -57.5t-120 -19.5q-88 0 -154 34.5t-102 97t-36 144.5q0 79 34.5 142.5t100 99.5t155.5 36q68 0 125.5 -28t92 -82t34.5 -127
q0 -51 -14 -88zM435 403.5q-41 36.5 -103 36.5q-65 0 -107 -36.5t-52 -102.5h300q3 66 -38 102.5z" />
    <glyph glyph-name="Gcircumflex" unicode="&#x11c;" horiz-adv-x="837" 
d="M375 911h121l122 -152h-116l-67 85l-66 -85h-117zM249 28q-86 44 -135.5 127.5t-49.5 197.5q0 112 49 195.5t136 128.5t198 45q85 0 160.5 -30t134.5 -86l-71 -82q-42 40 -98.5 61.5t-114.5 21.5q-73 0 -132.5 -30t-94 -87.5t-34.5 -136.5q0 -78 34 -135.5t92.5 -88
t131.5 -30.5q51 0 98 14t84 38v143h-204v108h327v-309q-70 -53 -151.5 -81t-165.5 -28q-108 0 -194 44z" />
    <glyph glyph-name="gcircumflex" unicode="&#x11d;" horiz-adv-x="670" 
d="M264 598h-117l127 160h113l127 -160h-117l-66 96zM597 519v-487q0 -85 -36.5 -146.5t-102.5 -93.5t-153 -32q-57 0 -116 16t-115 46l36 93q107 -49 191 -49q87 0 131.5 42.5t45.5 122.5v35q-34 -40 -80 -61t-98 -21q-75 0 -132.5 34t-89 96.5t-31.5 144.5t31 145.5
t88 98.5t132 35q57 0 106 -26t83 -73l3 80h107zM435 134.5q41 42.5 41 124.5t-41.5 126t-112.5 44t-111.5 -43.5t-40.5 -126.5q0 -82 40.5 -124.5t111.5 -42.5q72 0 113 42.5z" />
    <glyph glyph-name="Gbreve" unicode="&#x11e;" horiz-adv-x="837" 
d="M311.5 796.5q-48.5 39.5 -48.5 108.5h102q0 -30 20.5 -50.5t49.5 -20.5t49.5 20.5t20.5 50.5h103q0 -68 -49 -108t-124 -40t-123.5 39.5zM249 28q-86 44 -135.5 127.5t-49.5 197.5q0 112 49 195.5t136 128.5t198 45q85 0 160.5 -30t134.5 -86l-71 -82q-42 40 -98.5 61.5
t-114.5 21.5q-73 0 -132.5 -30t-94 -87.5t-34.5 -136.5q0 -78 34 -135.5t92.5 -88t131.5 -30.5q51 0 98 14t84 38v143h-204v108h327v-309q-70 -53 -151.5 -81t-165.5 -28q-108 0 -194 44z" />
    <glyph glyph-name="gbreve" unicode="&#x11f;" horiz-adv-x="670" 
d="M207 636q-49 42 -49 115h99q0 -38 20 -59.5t53 -21.5t53.5 22t20.5 59h99q0 -73 -49.5 -115t-123.5 -42t-123 42zM597 519v-487q0 -85 -36.5 -146.5t-102.5 -93.5t-153 -32q-57 0 -116 16t-115 46l36 93q107 -49 191 -49q87 0 131.5 42.5t45.5 122.5v35q-34 -40 -80 -61
t-98 -21q-75 0 -132.5 34t-89 96.5t-31.5 144.5t31 145.5t88 98.5t132 35q57 0 106 -26t83 -73l3 80h107zM435 134.5q41 42.5 41 124.5t-41.5 126t-112.5 44t-111.5 -43.5t-40.5 -126.5q0 -82 40.5 -124.5t111.5 -42.5q72 0 113 42.5z" />
    <glyph glyph-name="Gdotaccent" unicode="&#x120;" horiz-adv-x="837" 
d="M368 900h137v-126h-137v126zM249 28q-86 44 -135.5 127.5t-49.5 197.5q0 112 49 195.5t136 128.5t198 45q85 0 160.5 -30t134.5 -86l-71 -82q-42 40 -98.5 61.5t-114.5 21.5q-73 0 -132.5 -30t-94 -87.5t-34.5 -136.5q0 -78 34 -135.5t92.5 -88t131.5 -30.5q51 0 98 14
t84 38v143h-204v108h327v-309q-70 -53 -151.5 -81t-165.5 -28q-108 0 -194 44z" />
    <glyph glyph-name="gdotaccent" unicode="&#x121;" horiz-adv-x="670" 
d="M401 600h-127v122h127v-122zM597 519v-487q0 -85 -36.5 -146.5t-102.5 -93.5t-153 -32q-57 0 -116 16t-115 46l36 93q107 -49 191 -49q87 0 131.5 42.5t45.5 122.5v35q-34 -40 -80 -61t-98 -21q-75 0 -132.5 34t-89 96.5t-31.5 144.5t31 145.5t88 98.5t132 35
q57 0 106 -26t83 -73l3 80h107zM435 134.5q41 42.5 41 124.5t-41.5 126t-112.5 44t-111.5 -43.5t-40.5 -126.5q0 -82 40.5 -124.5t111.5 -42.5q72 0 113 42.5z" />
    <glyph glyph-name="Gcommaaccent" unicode="&#x122;" horiz-adv-x="837" 
d="M249 28q-86 44 -135.5 127.5t-49.5 197.5q0 112 49 195.5t136 128.5t198 45q85 0 160.5 -30t134.5 -86l-71 -82q-42 40 -98.5 61.5t-114.5 21.5q-73 0 -132.5 -30t-94 -87.5t-34.5 -136.5q0 -78 34 -135.5t92.5 -88t131.5 -30.5q51 0 98 14t84 38v143h-204v108h327v-309
q-70 -53 -151.5 -81t-165.5 -28q-108 0 -194 44zM387 -58h126l-31 -203h-105z" />
    <glyph glyph-name="gcommaaccent" unicode="&#x123;" horiz-adv-x="670" 
d="M384 599h-123l30 194h103zM597 519v-487q0 -85 -36.5 -146.5t-102.5 -93.5t-153 -32q-57 0 -116 16t-115 46l36 93q107 -49 191 -49q87 0 131.5 42.5t45.5 122.5v35q-34 -40 -80 -61t-98 -21q-75 0 -132.5 34t-89 96.5t-31.5 144.5t31 145.5t88 98.5t132 35q57 0 106 -26
t83 -73l3 80h107zM435 134.5q41 42.5 41 124.5t-41.5 126t-112.5 44t-111.5 -43.5t-40.5 -126.5q0 -82 40.5 -124.5t111.5 -42.5q72 0 113 42.5z" />
    <glyph glyph-name="Hcircumflex" unicode="&#x124;" horiz-adv-x="866" 
d="M367 753h-117l123 152h121l122 -152h-116l-67 85zM772 706v-706h-131v307h-417v-307h-131v706h131v-284h417v284h131z" />
    <glyph glyph-name="hcircumflex" unicode="&#x125;" horiz-adv-x="666" 
d="M187 753h-117l127 160h113l127 -160h-117l-66 96zM595 316v-316h-124v291q0 69 -27 104.5t-92 35.5q-39 0 -81.5 -19.5t-73.5 -53.5v-358h-125v706h119v-245q89 77 205 77q42 0 78 -13.5t62 -39.5q59 -59 59 -169z" />
    <glyph glyph-name="Hbar" unicode="&#x126;" horiz-adv-x="829" 
d="M834 529h-80v-529h-131v307h-417v-307h-131v529h-79v92h79v85h131v-85h417v85h131v-85h80v-92zM623 529h-417v-107h417v107z" />
    <glyph glyph-name="hbar" unicode="&#x127;" horiz-adv-x="666" 
d="M580 308v-308h-124v283q0 69 -27 104.5t-92 35.5q-39 0 -80.5 -19t-73.5 -52v-352h-125v563h-60v79h60v64h119v-64h162v-79h-162v-110q89 77 204 77q42 0 78 -13.5t62 -39.5q59 -59 59 -169z" />
    <glyph glyph-name="Itilde" unicode="&#x128;" horiz-adv-x="327" 
d="M198 764.5q-18 7.5 -42 22.5q-18 12 -30.5 17.5t-25.5 5.5q-34 0 -44 -49h-93q10 71 43.5 104.5t83.5 33.5q22 0 39.5 -7.5t43.5 -22.5q20 -11 31.5 -16.5t24.5 -5.5q34 0 44 48h93q-9 -70 -43 -104t-85 -34q-22 0 -40 7.5zM98 706h131v-706h-131v706z" />
    <glyph glyph-name="itilde" unicode="&#x129;" horiz-adv-x="278" 
d="M181.5 601.5q-18.5 7.5 -45.5 22.5q-19 11 -32.5 17t-27.5 6q-37 0 -47 -49h-87q10 70 43.5 104t81.5 34q23 0 42.5 -7.5t45.5 -22.5q21 -12 34 -17.5t26 -5.5q38 0 47 49h86q-9 -70 -42.5 -104t-82.5 -34q-23 0 -41.5 7.5zM77 519h124v-519h-124v519z" />
    <glyph glyph-name="Imacron" unicode="&#x12a;" horiz-adv-x="327" 
d="M-4 894h335v-92h-335v92zM98 706h131v-706h-131v706z" />
    <glyph glyph-name="imacron" unicode="&#x12b;" horiz-adv-x="278" 
d="M-28 695h335v-91h-335v91zM77 519h124v-519h-124v519z" />
    <glyph glyph-name="Ibreve" unicode="&#x12c;" horiz-adv-x="327" 
d="M39.5 792.5q-48.5 39.5 -48.5 108.5h103q0 -30 20.5 -50.5t48.5 -20.5q29 0 50 20.5t21 50.5h102q0 -69 -49 -108.5t-124 -39.5t-123.5 39.5zM98 706h131v-706h-131v706z" />
    <glyph glyph-name="ibreve" unicode="&#x12d;" horiz-adv-x="278" 
d="M16 630.5q-49 42.5 -49 115.5h99q0 -38 20 -60t53 -22t53.5 22.5t20.5 59.5h99q0 -73 -49.5 -115.5t-123.5 -42.5t-123 42.5zM77 519h124v-519h-124v519z" />
    <glyph glyph-name="Iogonek" unicode="&#x12e;" horiz-adv-x="327" 
d="M276 -209q-41 -31 -97 -31q-55 0 -87.5 31t-32.5 77q0 75 77 132h-38v706h131v-706q-32 -23 -52.5 -46.5t-20.5 -50.5q0 -22 14.5 -34.5t37.5 -12.5q20 0 38 8z" />
    <glyph glyph-name="iogonek" unicode="&#x12f;" horiz-adv-x="285" 
d="M208 591h-129v115h129v-115zM252 -209q-41 -31 -97 -31q-55 0 -87.5 31t-32.5 77q0 75 77 132h-31v519h124v-519q-32 -23 -52.5 -46.5t-20.5 -50.5q0 -22 14.5 -34.5t37.5 -12.5q20 0 38 8z" />
    <glyph glyph-name="Idotaccent" unicode="&#x130;" horiz-adv-x="327" 
d="M98 900h131v-128h-131v128zM98 706h131v-706h-131v706z" />
    <glyph glyph-name="dotlessi" unicode="&#x131;" horiz-adv-x="281" 
d="M202 0h-124v519h124v-519z" />
    <glyph glyph-name="IJ" unicode="&#x132;" horiz-adv-x="788" 
d="M93 706h131v-706h-131v706zM373 5.5q-60 21.5 -95 54.5l48 86q83 -46 153 -46q119 0 119 134v472h131v-497q0 -109 -63 -167t-172 -58q-61 0 -121 21.5z" />
    <glyph glyph-name="ij" unicode="&#x133;" horiz-adv-x="534" 
d="M330 707h127v-115h-127v115zM77 706h127v-115h-127v115zM171 -138q53 6 84 16.5t48 30.5q18 19 23.5 46.5t5.5 72.5v492h123v-485q0 -72 -12.5 -122t-46.5 -86q-62 -65 -212 -72zM79 519h124v-519h-124v519z" />
    <glyph glyph-name="Jcircumflex" unicode="&#x134;" horiz-adv-x="567" 
d="M357 905h121l122 -152h-116l-67 85l-66 -85h-117zM122 5.5q-60 21.5 -95 54.5l48 86q83 -46 153 -46q119 0 119 134v472h131v-497q0 -109 -63 -167t-172 -58q-61 0 -121 21.5z" />
    <glyph glyph-name="jcircumflex" unicode="&#x135;" horiz-adv-x="321" 
d="M110 748h113l127 -160h-117l-67 97l-66 -97h-117zM-30 -150q47 15 73 35t41 55q9 22 12 47.5t3 60.5v471h124v-474q0 -57 -8 -97.5t-29 -74.5q-27 -45 -75.5 -78t-112.5 -45z" />
    <glyph glyph-name="Kcommaaccent" unicode="&#x136;" horiz-adv-x="721" 
d="M725 0h-159l-237 319l-111 -115v-204h-126v706h126v-340l324 340h163l-289 -298zM321 -58h126l-31 -203h-105z" />
    <glyph glyph-name="kcommaaccent" unicode="&#x137;" horiz-adv-x="569" 
d="M572 0h-149l-171 217l-57 -53v-164h-120v706h120v-402l206 215h150l-217 -222zM242 -53h123l-30 -194h-103z" />
    <glyph glyph-name="kgreenlandic" unicode="&#x138;" horiz-adv-x="569" 
d="M252 218l-57 -54v-164h-120v519h120v-215l206 215h150l-216 -222l237 -297h-149z" />
    <glyph glyph-name="Lacute" unicode="&#x139;" horiz-adv-x="680" 
d="M204 753h-105l79 157h145zM641 115v-115h-548v706h131v-591h417z" />
    <glyph glyph-name="lacute" unicode="&#x13a;" horiz-adv-x="318" 
d="M159 904h147l-105 -151h-97zM98 706h122v-706h-122v706z" />
    <glyph glyph-name="Lcommaaccent" unicode="&#x13b;" horiz-adv-x="680" 
d="M641 115v-115h-548v706h131v-591h417zM314 -58h126l-31 -203h-105z" />
    <glyph glyph-name="lcommaaccent" unicode="&#x13c;" horiz-adv-x="274" 
d="M76 706h122v-706h-122v706zM74 -53h123l-30 -194h-103z" />
    <glyph glyph-name="Lcaron" unicode="&#x13d;" horiz-adv-x="680" 
d="M446 534h-103l26 185h124zM641 115v-115h-548v706h131v-591h417z" />
    <glyph glyph-name="lcaron" unicode="&#x13e;" horiz-adv-x="362" 
d="M331 535h-86l26 184h120zM75 706h122v-706h-122v706z" />
    <glyph glyph-name="Ldot" unicode="&#x13f;" horiz-adv-x="680" 
d="M641 115v-115h-548v706h131v-591h417zM546 304h-138v135h138v-135z" />
    <glyph glyph-name="ldot" unicode="&#x140;" horiz-adv-x="413" 
d="M75 706h122v-706h-122v706zM263 431h138v-135h-138v135z" />
    <glyph glyph-name="Lslash" unicode="&#x141;" horiz-adv-x="661" 
d="M622 115v-115h-548v254l-77 -49v116l77 49v336h131v-253l122 77v-116l-122 -77v-222h417z" />
    <glyph glyph-name="lslash" unicode="&#x142;" horiz-adv-x="303" 
d="M297 371l-70 -41v-330h-122v260l-70 -41v109l70 41v337h122v-267l70 41v-109z" />
    <glyph glyph-name="Nacute" unicode="&#x143;" horiz-adv-x="863" 
d="M464 753h-105l79 157h145zM770 706v-706h-134l-412 512v-512h-131v706h135l411 -510v510h131z" />
    <glyph glyph-name="nacute" unicode="&#x144;" 
d="M367 598h-97l55 151h147zM595 0h-124v291q0 68 -27 104t-90 36q-38 0 -79 -21.5t-76 -62.5v-347h-125v519h109l7 -70q87 89 207 89q92 0 145 -59.5t53 -162.5v-316z" />
    <glyph glyph-name="Ncommaaccent" unicode="&#x145;" horiz-adv-x="863" 
d="M770 706v-706h-134l-412 512v-512h-131v706h135l411 -510v510h131zM366 -58h126l-31 -203h-105z" />
    <glyph glyph-name="ncommaaccent" unicode="&#x146;" 
d="M595 0h-124v291q0 68 -27 104t-90 36q-38 0 -79 -21.5t-76 -62.5v-347h-125v519h109l7 -70q87 89 207 89q92 0 145 -59.5t53 -162.5v-316zM272 -53h123l-30 -194h-103z" />
    <glyph glyph-name="Ncaron" unicode="&#x147;" horiz-adv-x="863" 
d="M377 753l-122 152h117l66 -86l66 86h117l-122 -152h-122zM770 706v-706h-134l-412 512v-512h-131v706h135l411 -510v510h131z" />
    <glyph glyph-name="ncaron" unicode="&#x148;" 
d="M277 596l-126 157h119l65 -90l65 90h119l-125 -157h-117zM595 0h-124v291q0 68 -27 104t-90 36q-38 0 -79 -21.5t-76 -62.5v-347h-125v519h109l7 -70q87 89 207 89q92 0 145 -59.5t53 -162.5v-316z" />
    <glyph glyph-name="napostrophe" unicode="&#x149;" horiz-adv-x="662" 
d="M102 578h-93l18 171h123zM588 0h-124v291q0 68 -27 104t-90 36q-38 0 -79 -21.5t-76 -62.5v-347h-125v519h109l7 -70q87 89 207 89q92 0 145 -59.5t53 -162.5v-316z" />
    <glyph glyph-name="Eng" unicode="&#x14a;" horiz-adv-x="856" 
d="M770 706v-654q0 -115 -33 -178q-54 -104 -200 -128l-28 116q76 15 104 59q19 29 22 81l-411 510v-512h-131v706h135l411 -511v511h131z" />
    <glyph glyph-name="eng" unicode="&#x14b;" horiz-adv-x="667" 
d="M593 52q0 -122 -28 -176q-30 -58 -75.5 -87t-121.5 -43l-27 100q48 16 75.5 37t39.5 49q8 21 10.5 46t2.5 66v247q0 68 -27 104t-90 36q-38 0 -79 -21.5t-76 -62.5v-347h-125v519h109l7 -70q87 89 207 89q92 0 145 -59.5t53 -162.5v-264z" />
    <glyph glyph-name="Omacron" unicode="&#x14c;" horiz-adv-x="880" 
d="M275 874h335v-95h-335v95zM244 30q-85 46 -131.5 129.5t-46.5 192.5q0 110 46.5 193.5t131.5 130t197 46.5t197 -46.5t131 -130t46 -193.5t-46 -193t-131 -129t-197 -46t-197 46zM615 165q65 65 65 187q0 123 -65 189t-174 66t-174.5 -66t-65.5 -189q0 -121 65.5 -186.5
t174.5 -65.5t174 65z" />
    <glyph glyph-name="omacron" unicode="&#x14d;" horiz-adv-x="678" 
d="M172 702h335v-92h-335v92zM184.5 19.5q-65.5 35.5 -100.5 98t-35 143.5t35 143.5t100.5 98t154.5 35.5t155 -35t101 -97.5t35 -143.5t-35 -144t-100.5 -98.5t-154.5 -35.5q-90 0 -155.5 35.5zM461.5 132q44.5 44 44.5 131q0 86 -44.5 128.5t-122.5 42.5t-122.5 -42.5
t-44.5 -128.5q0 -87 45 -131t122 -44q78 0 122.5 44z" />
    <glyph glyph-name="Obreve" unicode="&#x14e;" horiz-adv-x="880" 
d="M316.5 796.5q-48.5 39.5 -48.5 108.5h102q0 -30 20.5 -50.5t49.5 -20.5t49.5 20.5t20.5 50.5h103q0 -68 -49 -108t-124 -40t-123.5 39.5zM244 30q-85 46 -131.5 129.5t-46.5 192.5q0 110 46.5 193.5t131.5 130t197 46.5t197 -46.5t131 -130t46 -193.5t-46 -193t-131 -129
t-197 -46t-197 46zM615 165q65 65 65 187q0 123 -65 189t-174 66t-174.5 -66t-65.5 -189q0 -121 65.5 -186.5t174.5 -65.5t174 65z" />
    <glyph glyph-name="obreve" unicode="&#x14f;" horiz-adv-x="678" 
d="M216 636q-49 42 -49 115h99q0 -38 20 -59.5t53 -21.5t53.5 22t20.5 59h99q0 -73 -49.5 -115t-123.5 -42t-123 42zM184.5 19.5q-65.5 35.5 -100.5 98t-35 143.5t35 143.5t100.5 98t154.5 35.5t155 -35t101 -97.5t35 -143.5t-35 -144t-100.5 -98.5t-154.5 -35.5
q-90 0 -155.5 35.5zM461.5 132q44.5 44 44.5 131q0 86 -44.5 128.5t-122.5 42.5t-122.5 -42.5t-44.5 -128.5q0 -87 45 -131t122 -44q78 0 122.5 44z" />
    <glyph glyph-name="Ohungarumlaut" unicode="&#x150;" horiz-adv-x="880" 
d="M332 920h141l-98 -162h-105zM537 920h141l-98 -162h-105zM244 30q-85 46 -131.5 129.5t-46.5 192.5q0 110 46.5 193.5t131.5 130t197 46.5t197 -46.5t131 -130t46 -193.5t-46 -193t-131 -129t-197 -46t-197 46zM615 165q65 65 65 187q0 123 -65 189t-174 66t-174.5 -66
t-65.5 -189q0 -121 65.5 -186.5t174.5 -65.5t174 65z" />
    <glyph glyph-name="ohungarumlaut" unicode="&#x151;" horiz-adv-x="690" 
d="M227 756h140l-90 -158h-100zM429 756h139l-90 -158h-99zM184.5 19.5q-65.5 35.5 -100.5 98t-35 143.5t35 143.5t100.5 98t154.5 35.5t155 -35t101 -97.5t35 -143.5t-35 -144t-100.5 -98.5t-154.5 -35.5q-90 0 -155.5 35.5zM461.5 132q44.5 44 44.5 131q0 86 -44.5 128.5
t-122.5 42.5t-122.5 -42.5t-44.5 -128.5q0 -87 45 -131t122 -44q78 0 122.5 44z" />
    <glyph glyph-name="OE" unicode="&#x152;" horiz-adv-x="1172" 
d="M1108 115v-115h-653q-122 0 -208.5 44t-131.5 123t-45 185t45 185.5t131.5 124t208.5 44.5h651v-114h-413v-172h371v-114h-371v-191h415zM562 112v482h-114q-112 0 -178 -63t-66 -179q0 -115 66 -177.5t178 -62.5h114z" />
    <glyph glyph-name="oe" unicode="&#x153;" horiz-adv-x="1098" 
d="M1029 213h-400q13 -64 57.5 -97t116.5 -33q45 0 90 14t82 41l49 -73q-47 -39 -108.5 -60t-122.5 -21q-74 0 -132.5 25.5t-96.5 72.5q-36 -46 -93 -72t-131 -26q-90 0 -155.5 35.5t-100.5 98t-35 143.5t35 143.5t100.5 98t154.5 35.5q74 0 130.5 -25.5t93.5 -71.5
q38 46 96.5 71.5t131.5 25.5q68 0 125.5 -28t92 -82t34.5 -127q0 -51 -14 -88zM889.5 403.5q-41.5 36.5 -102.5 36.5q-66 0 -107.5 -36.5t-51.5 -102.5h299q4 66 -37.5 102.5zM459.5 130.5q46.5 42.5 46.5 132.5q0 86 -44.5 128.5t-122.5 42.5t-122.5 -42.5t-44.5 -128.5
q0 -85 43 -130t116 -45q82 0 128.5 42.5z" />
    <glyph glyph-name="Racute" unicode="&#x154;" horiz-adv-x="777" 
d="M399 753h-105l79 157h145zM411 257h-187v-257h-131v706h347q147 0 215 -68q58 -59 58 -156q0 -171 -164 -209l186 -273h-157zM224 371h216q74 0 108 25t34 85q0 58 -35 84.5t-108 26.5h-215v-221z" />
    <glyph glyph-name="racute" unicode="&#x155;" horiz-adv-x="457" 
d="M267 598h-97l55 151h147zM401 526.5q23 -4.5 40 -12.5l-28 -106q-14 6 -33.5 9.5t-35.5 3.5q-46 0 -76.5 -17.5t-61.5 -64.5v-339h-124v519h109l6 -76q27 40 65.5 64t95.5 24q20 0 43 -4.5z" />
    <glyph glyph-name="Rcommaaccent" unicode="&#x156;" horiz-adv-x="777" 
d="M735 0h-157l-167 257h-187v-257h-131v706h347q147 0 215 -68q58 -59 58 -156q0 -171 -164 -209zM224 371h216q74 0 108 25t34 85q0 58 -35 84.5t-108 26.5h-215v-221zM329 -58h126l-31 -203h-105z" />
    <glyph glyph-name="rcommaaccent" unicode="&#x157;" horiz-adv-x="463" 
d="M399 526.5q23 -4.5 40 -12.5l-28 -106q-14 6 -33.5 9.5t-35.5 3.5q-46 0 -76.5 -17.5t-61.5 -64.5v-339h-124v519h109l6 -76q27 40 65.5 64t95.5 24q20 0 43 -4.5zM81 -53h123l-30 -194h-103z" />
    <glyph glyph-name="Rcaron" unicode="&#x158;" horiz-adv-x="777" 
d="M321 753l-122 152h117l66 -86l66 86h117l-122 -152h-122zM411 257h-187v-257h-131v706h347q147 0 215 -68q58 -59 58 -156q0 -171 -164 -209l186 -273h-157zM224 371h216q74 0 108 25t34 85q0 58 -35 84.5t-108 26.5h-215v-221z" />
    <glyph glyph-name="rcaron" unicode="&#x159;" horiz-adv-x="451" 
d="M184 596l-126 157h119l65 -90l65 90h119l-125 -157h-117zM395 526.5q23 -4.5 40 -12.5l-28 -106q-14 6 -33.5 9.5t-35.5 3.5q-46 0 -76.5 -17.5t-61.5 -64.5v-339h-124v519h109l6 -76q27 40 65.5 64t95.5 24q20 0 43 -4.5z" />
    <glyph glyph-name="Sacute" unicode="&#x15a;" horiz-adv-x="733" 
d="M361 910h145l-119 -157h-105zM196.5 8.5q-82.5 24.5 -145.5 69.5l50 98q55 -36 126 -56t137 -20q73 0 122 19.5t49 65.5q0 39 -48 61t-136 43q-87 19 -145.5 43t-95.5 68t-37 115q0 106 84 156.5t214 50.5q75 0 148 -20t135 -55l-47 -98q-129 58 -245 58
q-66 0 -111.5 -21.5t-45.5 -64.5q0 -41 44 -62t122 -39l24 -6q126 -27 199.5 -75t73.5 -140q0 -108 -87 -161.5t-219 -53.5q-83 0 -165.5 24.5z" />
    <glyph glyph-name="sacute" unicode="&#x15b;" horiz-adv-x="566" 
d="M279 749h147l-105 -151h-97zM150 5.5q-65 21.5 -106 55.5l51 81q38 -27 89 -42.5t102 -15.5q55 0 81.5 17t26.5 42q0 27 -25.5 39.5t-87.5 27.5l-48 12q-78 22 -123 57t-45 100q0 46 28.5 82.5t81.5 56.5t124 20q60 0 116 -15.5t101 -46.5l-51 -81q-37 23 -81.5 34
t-84.5 11q-54 0 -80 -14.5t-26 -38.5q0 -30 29 -44t98 -29q64 -16 104.5 -31.5t70 -47.5t29.5 -83q0 -48 -27.5 -86t-80.5 -60t-128 -22q-73 0 -138 21.5z" />
    <glyph glyph-name="Scircumflex" unicode="&#x15c;" horiz-adv-x="733" 
d="M309 910h121l122 -152h-116l-67 85l-66 -85h-117zM196.5 8.5q-82.5 24.5 -145.5 69.5l50 98q55 -36 126 -56t137 -20q73 0 122 19.5t49 65.5q0 39 -48 61t-136 43q-87 19 -145.5 43t-95.5 68t-37 115q0 106 84 156.5t214 50.5q75 0 148 -20t135 -55l-47 -98
q-129 58 -245 58q-66 0 -111.5 -21.5t-45.5 -64.5q0 -41 44 -62t122 -39l24 -6q126 -27 199.5 -75t73.5 -140q0 -108 -87 -161.5t-219 -53.5q-83 0 -165.5 24.5z" />
    <glyph glyph-name="scircumflex" unicode="&#x15d;" horiz-adv-x="566" 
d="M236 758h113l127 -160h-117l-66 96l-67 -96h-117zM150 5.5q-65 21.5 -106 55.5l51 81q38 -27 89 -42.5t102 -15.5q55 0 81.5 17t26.5 42q0 27 -25.5 39.5t-87.5 27.5l-48 12q-78 22 -123 57t-45 100q0 46 28.5 82.5t81.5 56.5t124 20q60 0 116 -15.5t101 -46.5l-51 -81
q-37 23 -81.5 34t-84.5 11q-54 0 -80 -14.5t-26 -38.5q0 -30 29 -44t98 -29q64 -16 104.5 -31.5t70 -47.5t29.5 -83q0 -48 -27.5 -86t-80.5 -60t-128 -22q-73 0 -138 21.5z" />
    <glyph glyph-name="Scedilla" unicode="&#x15e;" horiz-adv-x="733" 
d="M593.5 46.5q-74.5 -53.5 -192.5 -61.5l-15 -42q37 0 68 -23.5t31 -64.5q0 -25 -15 -47.5t-42 -36.5t-63 -14q-58 0 -113 32l20 50q30 -15 63 -15q52 0 52 37q0 16 -18 26t-49 10l-23 -1l-4 27l25 63q-73 5 -143 28.5t-124 63.5l50 98q55 -36 126 -56t137 -20
q73 0 122 19.5t49 65.5q0 39 -48 61t-136 43q-87 19 -145.5 43t-95.5 68t-37 115q0 106 84 156.5t214 50.5q75 0 148 -20t135 -55l-47 -98q-129 58 -245 58q-66 0 -111.5 -21.5t-45.5 -64.5q0 -41 44 -62t122 -39l24 -6q126 -27 199.5 -75t73.5 -140q0 -99 -74.5 -152.5z
" />
    <glyph glyph-name="scedilla" unicode="&#x15f;" horiz-adv-x="566" 
d="M470.5 38.5q-53.5 -46.5 -150.5 -53.5l-15 -42q39 0 69 -23t30 -65q0 -25 -15 -47.5t-42 -36.5t-63 -14q-58 0 -113 32l20 50q30 -15 63 -15q52 0 52 37q0 16 -18 26t-49 10l-23 -1l-4 27l25 64q-59 7 -109.5 26.5t-83.5 47.5l51 81q38 -27 89 -42.5t102 -15.5
q55 0 81.5 17t26.5 42q0 27 -25.5 39.5t-87.5 27.5l-48 12q-78 22 -123 57t-45 100q0 46 28.5 82.5t81.5 56.5t124 20q60 0 116 -15.5t101 -46.5l-51 -81q-37 23 -81.5 34t-84.5 11q-54 0 -80 -14.5t-26 -38.5q0 -30 29 -44t98 -29q64 -16 104.5 -31.5t70 -47.5t29.5 -83
q0 -67 -53.5 -113.5z" />
    <glyph glyph-name="Scaron" unicode="&#x160;" horiz-adv-x="733" 
d="M183 905h117l66 -86l66 86h117l-122 -152h-122zM196.5 8.5q-82.5 24.5 -145.5 69.5l50 98q55 -36 126 -56t137 -20q73 0 122 19.5t49 65.5q0 39 -48 61t-136 43q-87 19 -145.5 43t-95.5 68t-37 115q0 106 84 156.5t214 50.5q75 0 148 -20t135 -55l-47 -98
q-129 58 -245 58q-66 0 -111.5 -21.5t-45.5 -64.5q0 -41 44 -62t122 -39l24 -6q126 -27 199.5 -75t73.5 -140q0 -108 -87 -161.5t-219 -53.5q-83 0 -165.5 24.5z" />
    <glyph glyph-name="scaron" unicode="&#x161;" horiz-adv-x="566" 
d="M105 753h119l65 -90l65 90h119l-125 -157h-117zM150 5.5q-65 21.5 -106 55.5l51 81q38 -27 89 -42.5t102 -15.5q55 0 81.5 17t26.5 42q0 27 -25.5 39.5t-87.5 27.5l-48 12q-78 22 -123 57t-45 100q0 46 28.5 82.5t81.5 56.5t124 20q60 0 116 -15.5t101 -46.5l-51 -81
q-37 23 -81.5 34t-84.5 11q-54 0 -80 -14.5t-26 -38.5q0 -30 29 -44t98 -29q64 -16 104.5 -31.5t70 -47.5t29.5 -83q0 -48 -27.5 -86t-80.5 -60t-128 -22q-73 0 -138 21.5z" />
    <glyph glyph-name="Tcaron" unicode="&#x164;" horiz-adv-x="674" 
d="M283 753l-122 152h117l66 -86l66 86h117l-122 -152h-122zM666 591h-257v-591h-131v591h-257v115h645v-115z" />
    <glyph glyph-name="tcaron" unicode="&#x165;" horiz-adv-x="466" 
d="M391 587h-86l26 184h120zM355.5 92.5q28.5 6.5 46.5 15.5l32 -84q-29 -18 -71.5 -29t-81.5 -11q-90 0 -132 48t-42 147v239h-78v97h83l6 154h109v-154h167v-97h-167v-222q0 -57 15.5 -83.5t60.5 -26.5q24 0 52.5 6.5z" />
    <glyph glyph-name="Tbar" unicode="&#x166;" horiz-adv-x="690" 
d="M409 591v-196h155v-102h-155v-293h-131v293h-150v102h150v196h-257v115h645v-115h-257z" />
    <glyph glyph-name="tbar" unicode="&#x167;" horiz-adv-x="447" 
d="M434 24q-29 -18 -71.5 -29t-81.5 -11q-90 0 -132 48t-42 147v50h-78v95h78v94h-78v97h83l6 154h109v-154h167v-97h-167v-94h167v-95h-167v-33q0 -57 15.5 -83.5t60.5 -26.5q24 0 52.5 6.5t46.5 15.5z" />
    <glyph glyph-name="Utilde" unicode="&#x168;" horiz-adv-x="848" 
d="M461 764.5q-18 7.5 -42 22.5q-21 12 -32 17.5t-24 5.5q-34 0 -44 -49h-93q10 71 43.5 104.5t83.5 33.5q22 0 40 -7.5t44 -22.5q20 -11 31.5 -16.5t24.5 -5.5q33 0 43 48h93q-9 -70 -43 -104t-84 -34q-23 0 -41 7.5zM177 64.5q-91 80.5 -91 235.5v406h131v-401
q0 -97 52 -151t155 -54q102 0 154.5 54t52.5 151v401h131v-406q0 -155 -91.5 -235.5t-246.5 -80.5q-156 0 -247 80.5z" />
    <glyph glyph-name="utilde" unicode="&#x169;" 
d="M221 605h-87q10 71 43 104.5t82 33.5q23 0 41.5 -7.5t45.5 -22.5q21 -12 34 -17.5t27 -5.5q36 0 46 49h87q-9 -70 -42.5 -104t-82.5 -34q-24 0 -42.5 7.5t-45.5 22.5q-22 12 -34 17.5t-25 5.5q-37 0 -47 -49zM595 519v-519h-109l-7 68q-42 -40 -92 -62t-113 -22
q-41 0 -78.5 14t-63.5 39q-30 30 -44.5 70.5t-14.5 98.5v313h125v-290q0 -68 27 -103t91 -35q40 0 80.5 19t73.5 57v352h125z" />
    <glyph glyph-name="Umacron" unicode="&#x16a;" horiz-adv-x="848" 
d="M257 874h335v-95h-335v95zM177 64.5q-91 80.5 -91 235.5v406h131v-401q0 -97 52 -151t155 -54q102 0 154.5 54t52.5 151v401h131v-406q0 -155 -91.5 -235.5t-246.5 -80.5q-156 0 -247 80.5z" />
    <glyph glyph-name="umacron" unicode="&#x16b;" 
d="M502 626h-335v92h335v-92zM595 519v-519h-109l-7 68q-42 -40 -92 -62t-113 -22q-41 0 -78.5 14t-63.5 39q-30 30 -44.5 70.5t-14.5 98.5v313h125v-290q0 -68 27 -103t91 -35q40 0 80.5 19t73.5 57v352h125z" />
    <glyph glyph-name="Ubreve" unicode="&#x16c;" horiz-adv-x="848" 
d="M300.5 792.5q-48.5 39.5 -48.5 108.5h102q0 -30 20.5 -50.5t49.5 -20.5t49.5 20.5t20.5 50.5h103q0 -68 -49 -108t-124 -40t-123.5 39.5zM177 64.5q-91 80.5 -91 235.5v406h131v-401q0 -97 52 -151t155 -54q102 0 154.5 54t52.5 151v401h131v-406q0 -155 -91.5 -235.5
t-246.5 -80.5q-156 0 -247 80.5z" />
    <glyph glyph-name="ubreve" unicode="&#x16d;" 
d="M211 636q-49 42 -49 115h99q0 -38 20 -59.5t53 -21.5t53.5 22t20.5 59h98q0 -73 -49 -115t-123 -42t-123 42zM595 519v-519h-109l-7 68q-42 -40 -92 -62t-113 -22q-41 0 -78.5 14t-63.5 39q-30 30 -44.5 70.5t-14.5 98.5v313h125v-290q0 -68 27 -103t91 -35q40 0 80.5 19
t73.5 57v352h125z" />
    <glyph glyph-name="Uring" unicode="&#x16e;" horiz-adv-x="848" 
d="M343 763q-34 29 -34 79t34 79t82 29q47 0 81 -29t34 -79t-33.5 -79t-81.5 -29t-82 29zM456.5 806q12.5 12 12.5 36t-12.5 36t-31.5 12t-32 -12.5t-13 -35.5t13 -35.5t32 -12.5t31.5 12zM177 64.5q-91 80.5 -91 235.5v406h131v-401q0 -97 52 -151t155 -54q102 0 154.5 54
t52.5 151v401h131v-406q0 -155 -91.5 -235.5t-246.5 -80.5q-156 0 -247 80.5z" />
    <glyph glyph-name="uring" unicode="&#x16f;" 
d="M254 603.5q-33 27.5 -33 76.5t33 77t79 28t79 -28t33 -77t-33 -76.5t-79 -27.5t-79 27.5zM301.5 715.5q-12.5 -12.5 -12.5 -35.5q0 -22 12.5 -34.5t31.5 -12.5t31 12.5t12 34.5q0 23 -12 35.5t-31 12.5t-31.5 -12.5zM595 519v-519h-109l-7 68q-42 -40 -92 -62t-113 -22
q-41 0 -78.5 14t-63.5 39q-30 30 -44.5 70.5t-14.5 98.5v313h125v-290q0 -68 27 -103t91 -35q40 0 80.5 19t73.5 57v352h125z" />
    <glyph glyph-name="Uhungarumlaut" unicode="&#x170;" horiz-adv-x="848" 
d="M308 915h141l-98 -162h-105zM513 915h141l-98 -162h-105zM177 64.5q-91 80.5 -91 235.5v406h131v-401q0 -97 52 -151t155 -54q102 0 154.5 54t52.5 151v401h131v-406q0 -155 -91.5 -235.5t-246.5 -80.5q-156 0 -247 80.5z" />
    <glyph glyph-name="uhungarumlaut" unicode="&#x171;" horiz-adv-x="684" 
d="M263 598h-100l50 158h140zM464 598h-99l50 158h139zM595 519v-519h-109l-7 68q-42 -40 -92 -62t-113 -22q-41 0 -78.5 14t-63.5 39q-30 30 -44.5 70.5t-14.5 98.5v313h125v-290q0 -68 27 -103t91 -35q40 0 80.5 19t73.5 57v352h125z" />
    <glyph glyph-name="Uogonek" unicode="&#x172;" horiz-adv-x="848" 
d="M762 706v-406q0 -72 -16 -120t-47.5 -83t-86.5 -73q-46 -34 -69.5 -61t-23.5 -59q0 -21 13 -34.5t38 -13.5q20 0 38 8l30 -73q-41 -31 -97 -31t-88 31t-32 78q0 65 58 118q-27 -3 -55 -3q-156 0 -247 80.5t-91 235.5v406h131v-401q0 -97 52 -151t155 -54q102 0 154.5 54
t52.5 151v401h131z" />
    <glyph glyph-name="uogonek" unicode="&#x173;" horiz-adv-x="680" 
d="M606 -209q-41 -31 -96 -31q-54 0 -86 31.5t-32 77.5q0 81 94 135l-7 64q-42 -40 -92 -62t-113 -22q-41 0 -78.5 14t-63.5 39q-30 30 -44.5 70.5t-14.5 98.5v313h125v-290q0 -68 27 -103t91 -35q40 0 80.5 19t73.5 57v352h125v-519q-53 -19 -79.5 -45.5t-26.5 -53.5
q0 -21 14.5 -33t34.5 -12t38 8z" />
    <glyph glyph-name="Wcircumflex" unicode="&#x174;" horiz-adv-x="1030" 
d="M449 753h-117l123 152h121l122 -152h-116l-67 85zM1010 706l-197 -706h-144l-151 490l-152 -490h-143l-203 706h136l145 -537l155 483h125l154 -486l144 540h131z" />
    <glyph glyph-name="wcircumflex" unicode="&#x175;" horiz-adv-x="890" 
d="M380 598h-117l127 160h113l127 -160h-117l-66 96zM877 519l-182 -519h-137l-113 359l-113 -359h-138l-182 519h129l125 -382l122 382h116l124 -381l123 381h126z" />
    <glyph glyph-name="Ycircumflex" unicode="&#x176;" horiz-adv-x="652" 
d="M261 753h-117l123 152h121l122 -152h-116l-67 85zM650 706l-258 -451v-255h-131v255l-259 451h144l181 -329l185 329h138z" />
    <glyph glyph-name="ycircumflex" unicode="&#x177;" horiz-adv-x="655" 
d="M257 598h-117l127 160h113l127 -160h-117l-66 96zM581 519v-488q0 -129 -78.5 -200t-215.5 -71q-106 0 -209 50l35 96q39 -17 85.5 -28.5t89.5 -11.5q172 0 175 162v31q-82 -75 -192 -75q-42 0 -81 15.5t-65 41.5q-29 28 -44.5 70.5t-15.5 98.5v309h125v-281
q0 -72 29 -109.5t93 -37.5q39 0 77 18.5t69 55.5v354h123z" />
    <glyph glyph-name="Ydieresis" unicode="&#x178;" horiz-adv-x="652" 
d="M284 772h-126v123h126v-123zM493 772h-126v123h126v-123zM650 706l-258 -451v-255h-131v255l-259 451h144l181 -329l185 329h138z" />
    <glyph glyph-name="Zacute" unicode="&#x179;" horiz-adv-x="687" 
d="M365 753h-105l79 157h145zM649 113v-113h-611v97l422 496h-414v113h589v-100l-421 -493h435z" />
    <glyph glyph-name="zacute" unicode="&#x17a;" horiz-adv-x="574" 
d="M311 598h-97l55 151h147zM533 105v-105h-489v83l299 333h-287v103h463v-82l-303 -332h317z" />
    <glyph glyph-name="Zdotaccent" unicode="&#x17b;" horiz-adv-x="687" 
d="M410 774h-137v126h137v-126zM649 113v-113h-611v97l422 496h-414v113h589v-100l-421 -493h435z" />
    <glyph glyph-name="zdotaccent" unicode="&#x17c;" horiz-adv-x="574" 
d="M352 590h-127v116h127v-116zM533 105v-105h-489v83l299 333h-287v103h463v-82l-303 -332h317z" />
    <glyph glyph-name="Zcaron" unicode="&#x17d;" horiz-adv-x="687" 
d="M280 753l-122 152h117l66 -86l66 86h117l-122 -152h-122zM649 113v-113h-611v97l422 496h-414v113h589v-100l-421 -493h435z" />
    <glyph glyph-name="zcaron" unicode="&#x17e;" horiz-adv-x="574" 
d="M231 596l-126 157h119l65 -90l65 90h119l-125 -157h-117zM533 105v-105h-489v83l299 333h-287v103h463v-82l-303 -332h317z" />
    <glyph glyph-name="Scommaaccent" unicode="&#x218;" horiz-adv-x="733" 
d="M196.5 8.5q-82.5 24.5 -145.5 69.5l50 98q55 -36 126 -56t137 -20q73 0 122 19.5t49 65.5q0 39 -48 61t-136 43q-87 19 -145.5 43t-95.5 68t-37 115q0 106 84 156.5t214 50.5q75 0 148 -20t135 -55l-47 -98q-129 58 -245 58q-66 0 -111.5 -21.5t-45.5 -64.5q0 -41 44 -62
t122 -39l24 -6q126 -27 199.5 -75t73.5 -140q0 -108 -87 -161.5t-219 -53.5q-83 0 -165.5 24.5zM300 -58h126l-31 -203h-105z" />
    <glyph glyph-name="scommaaccent" unicode="&#x219;" horiz-adv-x="566" 
d="M150 5.5q-65 21.5 -106 55.5l51 81q38 -27 89 -42.5t102 -15.5q55 0 81.5 17t26.5 42q0 27 -25.5 39.5t-87.5 27.5l-48 12q-78 22 -123 57t-45 100q0 46 28.5 82.5t81.5 56.5t124 20q60 0 116 -15.5t101 -46.5l-51 -81q-37 23 -81.5 34t-84.5 11q-54 0 -80 -14.5
t-26 -38.5q0 -30 29 -44t98 -29q64 -16 104.5 -31.5t70 -47.5t29.5 -83q0 -48 -27.5 -86t-80.5 -60t-128 -22q-73 0 -138 21.5zM230 -53h123l-30 -194h-103z" />
    <glyph glyph-name="uni021A" unicode="&#x21a;" horiz-adv-x="674" 
d="M666 591h-257v-591h-131v591h-257v115h645v-115zM280 -58h126l-38 -191h-105z" />
    <glyph glyph-name="uni021B" unicode="&#x21b;" horiz-adv-x="463" 
d="M362.5 -5q-42.5 -11 -81.5 -11q-90 0 -132 48t-42 147v239h-78v97h83l6 154h109v-154h167v-97h-167v-222q0 -57 15.5 -83.5t60.5 -26.5q24 0 52.5 6.5t46.5 15.5l32 -84q-29 -18 -71.5 -29zM200 -59h123l-33 -192h-103z" />
    <glyph glyph-name="uni0237" unicode="&#x237;" horiz-adv-x="292" 
d="M-41 -150q47 15 73 35t41 55q9 22 12 47.5t3 60.5v471h124v-474q0 -57 -8 -97.5t-29 -74.5q-27 -45 -75.5 -78t-112.5 -45z" />
    <glyph glyph-name="circumflex" unicode="&#x2c6;" horiz-adv-x="534" 
d="M208 764h113l127 -160h-117l-67 96l-66 -96h-117z" />
    <glyph glyph-name="caron" unicode="&#x2c7;" horiz-adv-x="548" 
d="M90 753h119l65 -90l65 90h119l-125 -157h-117z" />
    <glyph glyph-name="breve" unicode="&#x2d8;" horiz-adv-x="418" 
d="M86 637q-49 42 -49 115h99q0 -38 20 -59.5t53 -21.5t53.5 22t20.5 59h98q0 -73 -49 -115t-123 -42t-123 42z" />
    <glyph glyph-name="dotaccent" unicode="&#x2d9;" horiz-adv-x="303" 
d="M88 733h126v-119h-126v119z" />
    <glyph glyph-name="ring" unicode="&#x2da;" horiz-adv-x="357" 
d="M100 603.5q-33 27.5 -33 76.5t33 77t79 28t79 -28t33 -77t-33 -76.5t-79 -27.5t-79 27.5zM209 645.5q12 12.5 12 34.5q0 23 -12 35.5t-31 12.5t-31.5 -12.5t-12.5 -35.5q0 -22 12.5 -34.5t31.5 -12.5t31 12.5z" />
    <glyph glyph-name="ogonek" unicode="&#x2db;" horiz-adv-x="411" 
d="M135.5 -209q-32.5 31 -32.5 75q0 95 133 160l35 -26q-38 -33 -54.5 -55.5t-16.5 -43.5t15 -33t37 -12q20 0 38 8l30 -73q-41 -31 -97 -31q-55 0 -87.5 31z" />
    <glyph glyph-name="tilde" unicode="&#x2dc;" horiz-adv-x="515" 
d="M292.5 621.5q-18.5 7.5 -45.5 22.5q-22 12 -34 17.5t-25 5.5q-37 0 -47 -49h-87q10 71 43 104.5t82 33.5q23 0 41.5 -7.5t45.5 -22.5q21 -12 34 -17.5t27 -5.5q36 0 46 49h87q-9 -70 -42.5 -104t-82.5 -34q-24 0 -42.5 7.5z" />
    <glyph glyph-name="hungarumlaut" unicode="&#x2dd;" horiz-adv-x="492" 
d="M101 762h140l-90 -158h-100zM303 762h139l-90 -158h-99z" />
    <glyph glyph-name="uni0394" unicode="&#x394;" horiz-adv-x="889" 
d="M52 -3l326 725h133l326 -725v-110h-785v110zM706 -1l-262 602l-260 -602h522z" />
    <glyph glyph-name="uni03A9" unicode="&#x3a9;" horiz-adv-x="878" 
d="M765.5 219q-35.5 -62 -95.5 -109h115v-110h-273v104q73 30 111 99t38 149q0 123 -60 188.5t-163 65.5q-102 0 -162 -65.5t-60 -188.5q0 -80 38 -149t111 -99v-104h-274v110h116q-60 47 -95.5 109t-35.5 157q0 97 45 176t127 124.5t190 45.5t190.5 -45.5t127.5 -124.5
t45 -176q0 -95 -35.5 -157z" />
    <glyph glyph-name="uni03BC" unicode="&#x3bc;" horiz-adv-x="705" 
d="M695 2q-49 -18 -92 -18q-44 0 -73.5 24t-43.5 63q-43 -42 -93 -64.5t-114 -22.5q-44 0 -82 15v-231h-122v751h125v-290q0 -68 27 -103t91 -35q40 0 80 19.5t74 57.5v351h125v-372q0 -27 8.5 -40.5t30.5 -15.5q12 0 22 1.5t16 3.5z" />
    <glyph glyph-name="pi" unicode="&#x3c0;" horiz-adv-x="780" 
d="M745 46q-23 -21 -61 -37t-74 -16q-124 0 -124 158v275h-197v-426h-125v426q-52 0 -97 -53l-59 51q41 59 82 85t108 26h523v-109h-111v-247q0 -43 8.5 -65t32.5 -22q15 0 33.5 6.5t33.5 16.5z" />
    <glyph glyph-name="Wgrave" unicode="&#x1e80;" horiz-adv-x="1030" 
d="M474 750l-102 156h145l62 -156h-105zM1010 706l-197 -706h-144l-151 490l-152 -490h-143l-203 706h136l145 -537l155 483h125l154 -486l144 540h131z" />
    <glyph glyph-name="wgrave" unicode="&#x1e81;" horiz-adv-x="890" 
d="M398 598l-116 151h147l66 -151h-97zM877 519l-182 -519h-137l-113 359l-113 -359h-138l-182 519h129l125 -382l122 382h116l124 -381l123 381h126z" />
    <glyph glyph-name="Wacute" unicode="&#x1e82;" horiz-adv-x="1031" 
d="M563 747h-105l79 157h145zM1010 706l-197 -706h-144l-151 490l-152 -490h-143l-203 706h136l145 -537l155 483h125l154 -486l144 540h131z" />
    <glyph glyph-name="wacute" unicode="&#x1e83;" horiz-adv-x="890" 
d="M489 604h-97l55 151h147zM877 519l-182 -519h-137l-113 359l-113 -359h-138l-182 519h129l125 -382l122 382h116l124 -381l123 381h126z" />
    <glyph glyph-name="Wdieresis" unicode="&#x1e84;" horiz-adv-x="1030" 
d="M474 757h-126v123h126v-123zM683 757h-126v123h126v-123zM1010 706l-197 -706h-144l-151 490l-152 -490h-143l-203 706h136l145 -537l155 483h125l154 -486l144 540h131z" />
    <glyph glyph-name="wdieresis" unicode="&#x1e85;" horiz-adv-x="890" 
d="M399 610h-119v116h119v-116zM611 610h-119v116h119v-116zM877 519l-182 -519h-137l-113 359l-113 -359h-138l-182 519h129l125 -382l122 382h116l124 -381l123 381h126z" />
    <glyph glyph-name="Ygrave" unicode="&#x1ef2;" horiz-adv-x="652" 
d="M304 753l-102 156h145l62 -156h-105zM650 706l-258 -451v-255h-131v255l-259 451h144l181 -329l185 329h138z" />
    <glyph glyph-name="ygrave" unicode="&#x1ef3;" horiz-adv-x="655" 
d="M292 598l-116 151h147l66 -151h-97zM581 519v-488q0 -129 -78.5 -200t-215.5 -71q-106 0 -209 50l35 96q39 -17 85.5 -28.5t89.5 -11.5q172 0 175 162v31q-82 -75 -192 -75q-42 0 -81 15.5t-65 41.5q-29 28 -44.5 70.5t-15.5 98.5v309h125v-281q0 -72 29 -109.5t93 -37.5
q39 0 77 18.5t69 55.5v354h123z" />
    <glyph glyph-name="uni2009" unicode="&#x2009;" horiz-adv-x="75" 
 />
    <glyph glyph-name="endash" unicode="&#x2013;" horiz-adv-x="701" 
d="M51 372h600v-111h-600v111z" />
    <glyph glyph-name="emdash" unicode="&#x2014;" horiz-adv-x="928" 
d="M54 372h820v-111h-820v111z" />
    <glyph glyph-name="quoteleft" unicode="&#x2018;" horiz-adv-x="331" 
d="M94 523q0 63 20.5 108t84.5 88l37 -62q-27 -23 -39.5 -44t-16.5 -49h52v-135h-138v94z" />
    <glyph glyph-name="quoteright" unicode="&#x2019;" horiz-adv-x="331" 
d="M95 499q26 23 39 44t16 49h-52v135h139v-94q0 -63 -20.5 -108t-84.5 -88z" />
    <glyph glyph-name="quotesinglbase" unicode="&#x201a;" horiz-adv-x="331" 
d="M95 -93q26 23 39 44t16 49h-52v135h139v-94q0 -63 -20.5 -108t-84.5 -88z" />
    <glyph glyph-name="quotedblleft" unicode="&#x201c;" horiz-adv-x="533" 
d="M94 523q0 63 20.5 108t84.5 88l37 -62q-27 -23 -39.5 -44t-16.5 -49h52v-135h-138v94zM296 523q0 63 20.5 108t84.5 88l37 -62q-27 -23 -39.5 -44t-16.5 -49h52v-135h-138v94z" />
    <glyph glyph-name="quotedblright" unicode="&#x201d;" horiz-adv-x="533" 
d="M95 499q26 23 39 44t16 49h-52v135h139v-94q0 -63 -20.5 -108t-84.5 -88zM297 499q26 23 39 44t16 49h-52v135h139v-94q0 -63 -20.5 -108t-84.5 -88z" />
    <glyph glyph-name="quotedblbase" unicode="&#x201e;" horiz-adv-x="533" 
d="M95 -93q26 23 39 44t16 49h-52v135h139v-94q0 -63 -20.5 -108t-84.5 -88zM297 -93q26 23 39 44t16 49h-52v135h139v-94q0 -63 -20.5 -108t-84.5 -88z" />
    <glyph glyph-name="dagger" unicode="&#x2020;" horiz-adv-x="562" 
d="M484 372h-148v-489h-109v489h-148v100h148v189h109v-189h148v-100z" />
    <glyph glyph-name="daggerdbl" unicode="&#x2021;" horiz-adv-x="562" 
d="M336 372v-200h148v-99h-148v-190h-109v190h-148v99h148v200h-148v100h148v189h109v-189h148v-100h-148z" />
    <glyph glyph-name="bullet" unicode="&#x2022;" horiz-adv-x="537" 
d="M191 227.5q-35 20.5 -55.5 56t-20.5 77.5t20.5 77.5t55.5 56t77 20.5t77.5 -20.5t56 -56t20.5 -77.5t-20.5 -77.5t-56 -56t-77.5 -20.5t-77 20.5z" />
    <glyph glyph-name="ellipsis" unicode="&#x2026;" horiz-adv-x="784" 
d="M39 135h138v-135h-138v135zM290 135h138v-135h-138v135zM540 135h138v-135h-138v135z" />
    <glyph glyph-name="perthousand" unicode="&#x2030;" horiz-adv-x="1316" 
d="M100.5 408q-44.5 53 -44.5 135q0 81 45 134.5t123 53.5q79 0 124 -53.5t45 -135.5t-45 -134.5t-124 -52.5t-123.5 53zM654 729h103l-497 -732h-103zM283.5 465.5q20.5 27.5 20.5 77.5q0 49 -20.5 77t-59.5 28q-38 0 -58.5 -27.5t-20.5 -77.5t20.5 -77.5t58.5 -27.5
q39 0 59.5 27.5zM572.5 45.5q-44.5 52.5 -44.5 134.5t45 135t123 53q79 0 123.5 -53t44.5 -135q0 -83 -44.5 -135t-124.5 -52q-78 0 -122.5 52.5zM968.5 45.5q-44.5 52.5 -44.5 134.5t45 135t123 53q79 0 123.5 -53t44.5 -135q0 -83 -44.5 -135t-124.5 -52
q-78 0 -122.5 52.5zM754.5 103q20.5 28 20.5 77q0 50 -20.5 77.5t-58.5 27.5t-59 -27.5t-21 -76.5q0 -50 20.5 -78t58.5 -28q39 0 59.5 28zM1150.5 103q20.5 28 20.5 77q0 50 -20.5 77.5t-58.5 27.5t-59 -27.5t-21 -76.5q0 -50 20.5 -78t58.5 -28q39 0 59.5 28z" />
    <glyph glyph-name="guilsinglleft" unicode="&#x2039;" horiz-adv-x="371" 
d="M79 261l109 185h96l-85 -185l85 -184h-96z" />
    <glyph glyph-name="guilsinglright" unicode="&#x203a;" horiz-adv-x="372" 
d="M172 261l-85 185h96l109 -185l-109 -184h-96z" />
    <glyph glyph-name="fraction" unicode="&#x2044;" horiz-adv-x="276" 
d="M349 716h97l-499 -725h-97z" />
    <glyph glyph-name="uni2070" unicode="&#x2070;" horiz-adv-x="377" 
d="M71 543.5q-40 56.5 -40 137.5t40 137.5t118 56.5t118 -56.5t40 -137.5t-40 -137.5t-118 -56.5t-118 56.5zM241.5 594.5q18.5 33.5 18.5 86.5q0 52 -18.5 85.5t-52.5 33.5q-35 0 -53 -33.5t-18 -85.5q0 -53 18 -86.5t53 -33.5q34 0 52.5 33.5z" />
    <glyph glyph-name="uni2074" unicode="&#x2074;" horiz-adv-x="354" 
d="M337 571h-41v-78h-80v78h-178l-11 63l183 233h86v-228h41v-68zM216 639v130l-99 -130h99z" />
    <glyph glyph-name="uni2075" unicode="&#x2075;" horiz-adv-x="334" 
d="M277.5 699q34.5 -33 34.5 -88q0 -54 -40.5 -89t-108.5 -35q-71 0 -130 45l28 60q52 -33 99 -33q28 0 48 15t20 37q0 20 -17 35t-43 15q-33 0 -65 -18l-48 26l20 199h209v-72h-142l-7 -73q21 9 51 9q57 0 91.5 -33z" />
    <glyph glyph-name="uni2076" unicode="&#x2076;" horiz-adv-x="335" 
d="M72 539.5q-36 52.5 -36 132.5q0 54 18.5 100t54.5 74.5t86 28.5q28 0 57 -9t54 -26l-26 -61q-46 24 -82 24q-41 0 -64.5 -29t-23.5 -72q34 35 81 35q55 0 90 -34t35 -88q0 -56 -37.5 -92t-98.5 -36q-72 0 -108 52.5zM221.5 573q15.5 16 15.5 37q0 23 -15.5 39t-40.5 16
t-39.5 -16t-14.5 -39q0 -21 15 -37t39 -16q25 0 40.5 16z" />
    <glyph glyph-name="uni2077" unicode="&#x2077;" horiz-adv-x="295" 
d="M286 867v-61q-53 -63 -87 -143t-48 -170h-89q13 81 42 153.5t80 147.5h-156v73h258z" />
    <glyph glyph-name="uni2078" unicode="&#x2078;" horiz-adv-x="352" 
d="M300 655q22 -24 22 -60q0 -44 -38 -76t-109 -32q-70 0 -108 32t-38 76q0 38 22.5 61.5t55.5 34.5q-30 13 -46 32.5t-16 50.5q0 42 36 71.5t94 29.5t94.5 -29.5t36.5 -71.5q0 -58 -60 -83q32 -12 54 -36zM137.5 794.5q-15.5 -10.5 -15.5 -30.5t15.5 -30t37.5 -10t38 10
t16 30t-16 30.5t-38 10.5t-37.5 -10.5zM221 570.5q18 12.5 18 34.5t-18 35t-46 13t-46 -13t-18 -35t18 -34.5t46 -12.5t46 12.5z" />
    <glyph glyph-name="uni2079" unicode="&#x2079;" horiz-adv-x="337" 
d="M92.5 496.5q-29.5 9.5 -53.5 25.5l23 62q44 -27 86 -27q44 0 67 30.5t23 77.5q-12 -18 -35 -29t-51 -11q-55 0 -89.5 34t-34.5 87q0 56 38 92.5t97 36.5q64 0 100 -41q45 -48 45 -146q0 -88 -40 -144.5t-118 -56.5q-28 0 -57.5 9.5zM203 711.5q15 16.5 15 38.5
q0 23 -15 38.5t-41 15.5q-25 0 -40 -15.5t-15 -38.5q0 -22 15 -38.5t40 -16.5q26 0 41 16.5z" />
    <glyph glyph-name="uni2080" unicode="&#x2080;" horiz-adv-x="377" 
d="M71 -118.5q-40 56.5 -40 137.5t40 137.5t118 56.5t118 -56.5t40 -137.5t-40 -137.5t-118 -56.5t-118 56.5zM241.5 -67.5q18.5 33.5 18.5 86.5q0 52 -18.5 85.5t-52.5 33.5q-35 0 -53 -33.5t-18 -85.5q0 -53 18 -86.5t53 -33.5q34 0 52.5 33.5z" />
    <glyph glyph-name="uni2081" unicode="&#x2081;" horiz-adv-x="254" 
d="M207 204v-373h-81v285l-71 -35l-30 63l121 60h61z" />
    <glyph glyph-name="uni2082" unicode="&#x2082;" horiz-adv-x="343" 
d="M317 -95v-74h-261v40q0 61 46 107q15 15 33.5 28t35.5 24l22 15q23 15 32.5 26.5t9.5 27.5q0 17 -17 29.5t-44 12.5q-45 0 -95 -34l-32 61q28 21 63 33t68 12q43 0 74 -16t47.5 -42t16.5 -55q0 -45 -33 -78q-16 -14 -50 -38q-42 -28 -57 -43q-13 -10 -19 -18t-9 -18h169z
" />
    <glyph glyph-name="uni2083" unicode="&#x2083;" horiz-adv-x="310" 
d="M262 -147q-37 -28 -95 -28q-32 0 -66 10.5t-63 30.5l29 60q54 -29 92 -29q23 0 40 12.5t17 30.5q0 17 -18.5 30.5t-44.5 13.5h-39v72h39q21 0 38.5 11.5t17.5 30.5q0 18 -16 30.5t-41 12.5q-36 0 -77 -25l-29 58q26 18 56 28.5t59 10.5q60 0 95 -31t35 -75q0 -28 -16 -50
t-44 -34q30 -10 49 -34.5t19 -57.5q0 -50 -37 -78z" />
    <glyph glyph-name="uni2084" unicode="&#x2084;" horiz-adv-x="354" 
d="M337 -91h-41v-78h-80v78h-178l-11 63l183 233h86v-228h41v-68zM216 -23v130l-99 -130h99z" />
    <glyph glyph-name="uni2085" unicode="&#x2085;" horiz-adv-x="334" 
d="M277.5 37q34.5 -33 34.5 -88q0 -54 -40.5 -89t-108.5 -35q-71 0 -130 45l28 60q52 -33 99 -33q28 0 48 15t20 37q0 20 -17 35t-43 15q-33 0 -65 -18l-48 26l20 199h209v-72h-142l-7 -73q21 9 51 9q57 0 91.5 -33z" />
    <glyph glyph-name="uni2086" unicode="&#x2086;" horiz-adv-x="335" 
d="M72 -122.5q-36 52.5 -36 132.5q0 54 18.5 100t54.5 74.5t86 28.5q28 0 57 -9t54 -26l-26 -61q-46 24 -82 24q-41 0 -64.5 -29t-23.5 -72q34 35 81 35q55 0 90 -34t35 -88q0 -56 -37.5 -92t-98.5 -36q-72 0 -108 52.5zM221.5 -89q15.5 16 15.5 37q0 23 -15.5 39t-40.5 16
t-39.5 -16t-14.5 -39q0 -21 15 -37t39 -16q25 0 40.5 16z" />
    <glyph glyph-name="uni2087" unicode="&#x2087;" horiz-adv-x="295" 
d="M286 205v-61q-53 -63 -87 -143t-48 -170h-89q13 81 42 153.5t80 147.5h-156v73h258z" />
    <glyph glyph-name="uni2088" unicode="&#x2088;" horiz-adv-x="352" 
d="M300 -7q22 -24 22 -60q0 -44 -38 -76t-109 -32q-70 0 -108 32t-38 76q0 38 22.5 61.5t55.5 34.5q-30 13 -46 32.5t-16 50.5q0 42 36 71.5t94 29.5t94.5 -29.5t36.5 -71.5q0 -58 -60 -83q32 -12 54 -36zM137.5 132.5q-15.5 -10.5 -15.5 -30.5t15.5 -30t37.5 -10t38 10
t16 30t-16 30.5t-38 10.5t-37.5 -10.5zM221 -91.5q18 12.5 18 34.5t-18 35t-46 13t-46 -13t-18 -35t18 -34.5t46 -12.5t46 12.5z" />
    <glyph glyph-name="uni2089" unicode="&#x2089;" horiz-adv-x="337" 
d="M92.5 -165.5q-29.5 9.5 -53.5 25.5l23 62q44 -27 86 -27q44 0 67 30.5t23 77.5q-12 -18 -35 -29t-51 -11q-55 0 -89.5 34t-34.5 87q0 56 38 92.5t97 36.5q64 0 100 -41q45 -48 45 -146q0 -88 -40 -144.5t-118 -56.5q-28 0 -57.5 9.5zM203 49.5q15 16.5 15 38.5
q0 23 -15 38.5t-41 15.5q-25 0 -40 -15.5t-15 -38.5q0 -22 15 -38.5t40 -16.5q26 0 41 16.5z" />
    <glyph glyph-name="Euro" unicode="&#x20ac;" horiz-adv-x="634" 
d="M611 34q-36 -23 -84.5 -36.5t-99.5 -13.5q-127 0 -203 64t-100 178h-90l18 78h61q-1 12 -1 38q0 23 1 34h-70l18 79h62q25 117 101 181t203 64q50 0 98 -13.5t85 -36.5l-39 -89q-66 29 -137 29q-76 0 -120 -35.5t-61 -99.5h283l-18 -79h-277q-1 -11 -1 -34q0 -26 1 -38
h267l-18 -78h-236q17 -63 62 -97.5t118 -34.5q33 0 69.5 7.5t67.5 20.5z" />
    <glyph glyph-name="trademark" unicode="&#x2122;" horiz-adv-x="820" 
d="M33 706h280v-75h-98v-246h-83v246h-99v75zM761 706v-321h-81v211l-90 -211h-65l-90 213v-213h-81v321h110l94 -213l93 213h110z" />
    <glyph glyph-name="estimated" unicode="&#x212e;" horiz-adv-x="1039" 
d="M305.5 32q-96.5 48 -152.5 132t-56 188t56 188.5t152.5 133t213.5 48.5q114 0 210.5 -47t154 -132.5t57.5 -195.5v-20q0 -2 -2.5 -3.5t-4.5 -1.5h-659v-221q0 -2 3 -4q49 -34 110.5 -51.5t130.5 -17.5q99 0 181.5 35.5t131.5 100.5l34 -27q-58 -71 -149 -112t-198 -41
q-117 0 -213.5 48zM763 370v235q0 3 -3 4q-49 34 -110.5 52t-130.5 18t-130.5 -18t-111.5 -52q-2 -2 -2 -5v-234h488z" />
    <glyph glyph-name="uni2150" unicode="&#x2150;" horiz-adv-x="838" 
d="M726 716l-499 -725h-97l499 725h97zM140 405v213l-71 -35l-30 63l121 60h61v-301h83v-72h-250v72h86zM803 365v-61q-53 -63 -87 -143t-48 -170h-89q10 60 25 107q30 95 97 194h-156v73h258z" />
    <glyph glyph-name="uni2151" unicode="&#x2151;" horiz-adv-x="841" 
d="M717 716l-499 -725h-97l499 725h97zM128 405v213l-71 -35l-30 63l121 60h61v-301h83v-72h-250v72h86zM789 186q0 -74 -26 -123q-19 -37 -53.5 -57.5t-78.5 -20.5q-28 0 -57.5 9.5t-53.5 25.5l23 62q44 -27 86 -27q24 0 43.5 11t31.5 31q14 27 16 63l-1 3q-12 -18 -35 -29
t-51 -11q-55 0 -89.5 34t-34.5 87q0 56 38 92.5t97 36.5q64 0 100 -41q45 -48 45 -146zM684 209.5q15 16.5 15 38.5q0 23 -15 38.5t-41 15.5q-25 0 -40 -15.5t-15 -38.5q0 -22 15 -38.5t40 -16.5q26 0 41 16.5z" />
    <glyph glyph-name="uni2153" unicode="&#x2153;" horiz-adv-x="841" 
d="M729 716l-499 -725h-97l499 725h97zM140 405v213l-71 -35l-30 63l121 60h61v-301h83v-72h-250v72h86zM801 91q0 -50 -37 -78t-95 -28q-32 0 -66 10.5t-63 30.5l29 60q54 -29 92 -29q23 0 40 12.5t17 30.5t-18.5 31t-44.5 13h-39v72h39q21 0 38.5 11.5t17.5 30.5
q0 18 -16 30.5t-41 12.5q-36 0 -77 -25l-29 58q26 18 56 28.5t59 10.5q60 0 95 -31t35 -75q0 -26 -15 -49q-16 -23 -45 -35q29 -10 48 -33q20 -25 20 -59z" />
    <glyph glyph-name="uni2154" unicode="&#x2154;" horiz-adv-x="840" 
d="M731 716l-499 -725h-97l499 725h97zM217.5 573.5q9.5 11.5 9.5 27.5q0 17 -17 29.5t-44 12.5q-45 0 -95 -34l-32 61q28 21 63 33t68 12q43 0 74 -16t47.5 -42t16.5 -55q0 -45 -33 -78q-16 -14 -50 -38q-42 -28 -57 -43q-13 -10 -19 -18t-9 -18h169v-74h-261v40
q0 61 46 107q15 15 33.5 28t35.5 24l22 15q23 15 32.5 26.5zM800 91q0 -50 -37 -78t-95 -28q-32 0 -66 10.5t-63 30.5l29 60q54 -29 92 -29q23 0 40 12.5t17 30.5t-18.5 31t-44.5 13h-39v72h39q21 0 38.5 11.5t17.5 30.5q0 18 -16 30.5t-41 12.5q-36 0 -77 -25l-29 58
q26 18 56 28.5t59 10.5q60 0 95 -31t35 -75q0 -26 -15 -49q-16 -23 -45 -35q29 -10 48 -33q20 -25 20 -59z" />
    <glyph glyph-name="uni2155" unicode="&#x2155;" horiz-adv-x="841" 
d="M729 716l-499 -725h-97l499 725h97zM140 405v213l-71 -35l-30 63l121 60h61v-301h83v-72h-250v72h86zM768.5 197q34.5 -33 34.5 -88q0 -54 -40.5 -89t-108.5 -35q-71 0 -130 45l28 60q52 -33 99 -33q28 0 48 15t20 37q0 20 -17 35t-43 15q-33 0 -65 -18l-48 26l20 199
h209v-72h-142l-7 -73q21 9 51 9q57 0 91.5 -33z" />
    <glyph glyph-name="uni2156" unicode="&#x2156;" horiz-adv-x="840" 
d="M731 716l-499 -725h-97l499 725h97zM223.5 573.5q9.5 11.5 9.5 27.5q0 17 -17 29.5t-44 12.5q-45 0 -95 -34l-32 61q28 21 63 33t68 12q43 0 74 -16t47.5 -42t16.5 -55q0 -45 -33 -78q-16 -14 -50 -38q-42 -28 -57 -43q-13 -10 -19 -18t-9 -18h169v-74h-261v40
q0 61 46 107q15 15 33.5 28t35.5 24l22 15q23 15 32.5 26.5zM767.5 197q34.5 -33 34.5 -88q0 -54 -40.5 -89t-108.5 -35q-71 0 -130 45l28 60q52 -33 99 -33q28 0 48 15t20 37q0 20 -17 35t-43 15q-33 0 -65 -18l-48 26l20 199h209v-72h-142l-7 -73q21 9 51 9q57 0 91.5 -33
z" />
    <glyph glyph-name="uni2157" unicode="&#x2157;" horiz-adv-x="834" 
d="M720 716l-499 -725h-97l499 725h97zM213 411.5q17 12.5 17 30.5q0 17 -18.5 30.5t-44.5 13.5h-39v72h39q21 0 38.5 11.5t17.5 30.5q0 18 -16 30.5t-41 12.5q-36 0 -77 -25l-29 58q26 18 56 28.5t59 10.5q60 0 95 -31t35 -75q0 -26 -15 -49q-16 -23 -45 -35q29 -10 48 -33
q20 -25 20 -59q0 -50 -37 -78t-95 -28q-32 0 -66 10.5t-63 30.5l29 60q54 -29 92 -29q23 0 40 12.5zM761.5 197q34.5 -33 34.5 -88q0 -54 -40.5 -89t-108.5 -35q-71 0 -130 45l28 60q52 -33 99 -33q28 0 48 15t20 37q0 20 -17 35t-43 15q-33 0 -65 -18l-48 26l20 199h209
v-72h-142l-7 -73q21 9 51 9q57 0 91.5 -33z" />
    <glyph glyph-name="uni2158" unicode="&#x2158;" horiz-adv-x="845" 
d="M731 716l-499 -725h-97l499 725h97zM210 411h-178l-11 63l183 233h86v-228h41v-68h-41v-78h-80v78zM210 479v130l-99 -130h99zM772.5 197q34.5 -33 34.5 -88q0 -54 -40.5 -89t-108.5 -35q-71 0 -130 45l28 60q52 -33 99 -33q28 0 48 15t20 37q0 20 -17 35t-43 15
q-33 0 -65 -18l-48 26l20 199h209v-72h-142l-7 -73q21 9 51 9q57 0 91.5 -33z" />
    <glyph glyph-name="uni2159" unicode="&#x2159;" horiz-adv-x="845" 
d="M733 716l-499 -725h-97l499 725h97zM142 405v213l-71 -35l-30 63l121 60h61v-301h83v-72h-250v72h86zM764 201q35 -34 35 -88q0 -56 -37.5 -92t-98.5 -36q-72 0 -108 52.5t-36 132.5q0 65 23 111q19 43 55.5 67.5t80.5 24.5q28 0 57 -9t54 -26l-26 -61q-46 24 -82 24
q-20 0 -38 -8.5t-30 -24.5q-16 -23 -19 -50q-1 -8 -1 -18q34 35 81 35q55 0 90 -34zM704.5 71q15.5 16 15.5 37q0 23 -15.5 39t-40.5 16t-39.5 -16t-14.5 -39q0 -21 15 -37t39 -16q25 0 40.5 16z" />
    <glyph glyph-name="uni215A" unicode="&#x215a;" horiz-adv-x="844" 
d="M728 716l-499 -725h-97l499 725h97zM221 414q20 15 20 37q0 20 -17 35t-43 15q-33 0 -65 -18l-48 26l20 199h209v-72h-142l-7 -73q21 9 51 9q57 0 91.5 -33t34.5 -88q0 -54 -40.5 -89t-108.5 -35q-71 0 -130 45l28 60q52 -33 99 -33q28 0 48 15zM763 201q35 -34 35 -88
q0 -56 -37.5 -92t-98.5 -36q-72 0 -108 52.5t-36 132.5q0 65 23 111q19 43 55.5 67.5t80.5 24.5q28 0 57 -9t54 -26l-26 -61q-46 24 -82 24q-20 0 -38 -8.5t-30 -24.5q-16 -23 -19 -50q-1 -8 -1 -18q34 35 81 35q55 0 90 -34zM704.5 71q15.5 16 15.5 37q0 23 -15.5 39
t-40.5 16t-39.5 -16t-14.5 -39q0 -21 15 -37t39 -16q25 0 40.5 16z" />
    <glyph glyph-name="oneeighth" unicode="&#x215b;" horiz-adv-x="857" 
d="M730 716l-499 -725h-97l499 725h97zM139 405v213l-71 -35l-30 63l121 60h61v-301h83v-72h-250v72h86zM798 153q22 -24 22 -60q0 -44 -38 -76t-109 -32q-70 0 -108 32t-38 76q0 38 22.5 61.5t55.5 34.5q-30 13 -46 32.5t-16 50.5q0 42 36 71.5t94 29.5t94.5 -29.5
t36.5 -71.5q0 -58 -60 -83q32 -12 54 -36zM635.5 292.5q-15.5 -10.5 -15.5 -30.5t15.5 -30t37.5 -10t38 10t16 30t-16 30.5t-38 10.5t-37.5 -10.5zM720 68.5q18 12.5 18 34.5t-18 35t-46 13t-46 -13t-18 -35t18 -34.5t46 -12.5t46 12.5z" />
    <glyph glyph-name="threeeighths" unicode="&#x215c;" horiz-adv-x="843" 
d="M708 716l-499 -725h-97l499 725h97zM198 411.5q17 12.5 17 30.5t-18.5 31t-44.5 13h-39v72h39q21 0 38.5 11.5t17.5 30.5q0 18 -16 30.5t-41 12.5q-36 0 -77 -25l-29 58q26 18 56 28.5t59 10.5q60 0 95 -31t35 -75q0 -26 -15 -49q-16 -23 -45 -35q29 -10 48 -33
q20 -25 20 -59q0 -50 -37 -78t-95 -28q-32 0 -66 10.5t-63 30.5l29 60q54 -29 92 -29q23 0 40 12.5zM782 153q22 -24 22 -60q0 -44 -38 -76t-109 -32q-70 0 -108 32t-38 76q0 38 22.5 61.5t55.5 34.5q-30 13 -46 32.5t-16 50.5q0 42 36 71.5t94 29.5t94.5 -29.5t36.5 -71.5
q0 -58 -60 -83q32 -12 54 -36zM619.5 292.5q-15.5 -10.5 -15.5 -30.5t15.5 -30t37.5 -10t38 10t16 30t-16 30.5t-38 10.5t-37.5 -10.5zM703 68.5q18 12.5 18 34.5t-18 35t-46 13t-46 -13t-18 -35t18 -34.5t46 -12.5t46 12.5z" />
    <glyph glyph-name="fiveeighths" unicode="&#x215d;" horiz-adv-x="842" 
d="M707 716l-499 -725h-97l499 725h97zM208 414q20 15 20 37q0 20 -17 35t-43 15q-34 0 -65 -18l-48 26l20 199h209v-72h-142l-7 -73q21 9 51 9q57 0 91.5 -33t34.5 -88q0 -54 -40.5 -89t-108.5 -35q-71 0 -130 45l28 60q52 -33 99 -33q28 0 48 15zM784 153q22 -24 22 -60
q0 -44 -38 -76t-109 -32q-70 0 -108 32t-38 76q0 38 22.5 61.5t55.5 34.5q-30 13 -46 32.5t-16 50.5q0 42 36 71.5t94 29.5t94.5 -29.5t36.5 -71.5q0 -58 -60 -83q32 -12 54 -36zM621.5 292.5q-15.5 -10.5 -15.5 -30.5t15.5 -30t37.5 -10t38 10t16 30t-16 30.5t-38 10.5
t-37.5 -10.5zM705 68.5q18 12.5 18 34.5t-18 35t-46 13t-46 -13t-18 -35t18 -34.5t46 -12.5t46 12.5z" />
    <glyph glyph-name="seveneighths" unicode="&#x215e;" horiz-adv-x="839" 
d="M701 716l-499 -725h-97l499 725h97zM252 634h-156v73h258v-61q-53 -63 -87 -143t-48 -170h-89q10 60 25 107q30 95 97 194zM780 153q22 -24 22 -60q0 -44 -38 -76t-109 -32q-70 0 -108 32t-38 76q0 38 22.5 61.5t55.5 34.5q-30 13 -46 32.5t-16 50.5q0 42 36 71.5
t94 29.5t94.5 -29.5t36.5 -71.5q0 -58 -60 -83q32 -12 54 -36zM617.5 292.5q-15.5 -10.5 -15.5 -30.5t15.5 -30t37.5 -10t38 10t16 30t-16 30.5t-38 10.5t-37.5 -10.5zM702 68.5q18 12.5 18 34.5t-18 35t-46 13t-46 -13t-18 -35t18 -34.5t46 -12.5t46 12.5z" />
    <glyph glyph-name="partialdiff" unicode="&#x2202;" horiz-adv-x="652" 
d="M609 366q0 -118 -40.5 -204.5t-109.5 -132t-153 -45.5q-75 0 -133 33t-90 90.5t-32 127.5q0 68 32 126t89 92t130 34q59 0 110.5 -30.5t76.5 -77.5q-1 76 -30 130q-38 75 -119.5 116.5t-184.5 54.5l20 99q124 -11 221.5 -60t151.5 -129q61 -92 61 -224zM385.5 110.5
q33.5 18.5 53.5 53t20 78.5q0 61 -40.5 99.5t-101.5 38.5q-65 0 -104 -41.5t-39 -103.5t38.5 -102.5t98.5 -40.5q41 0 74.5 18.5z" />
    <glyph glyph-name="product" unicode="&#x220f;" horiz-adv-x="955" 
d="M884 595h-99v-697h-130v697h-355v-697h-130v697h-100v111h814v-111z" />
    <glyph glyph-name="summation" unicode="&#x2211;" horiz-adv-x="686" 
d="M616 594h-391l179 -292l-179 -292h391v-112h-546v93l198 311l-198 311v93h546v-112z" />
    <glyph glyph-name="minus" unicode="&#x2212;" horiz-adv-x="649" 
d="M94 402h462v-105h-462v105z" />
    <glyph glyph-name="radical" unicode="&#x221a;" horiz-adv-x="742" 
d="M723 734l-299 -847h-124l-168 442h-104v112h191l141 -390l232 683h131z" />
    <glyph glyph-name="infinity" unicode="&#x221e;" horiz-adv-x="866" 
d="M145 128.5q-42 24.5 -64.5 65.5t-22.5 89t22.5 88.5t64.5 65t96 24.5q113 0 191 -110q80 110 192 110q54 0 96 -24.5t64.5 -65t22.5 -88.5t-22.5 -89t-64.5 -65.5t-96 -24.5q-62 0 -108 29t-84 81q-38 -52 -83.5 -81t-107.5 -29q-54 0 -96 24.5zM378 283q-55 96 -132 96
q-39 0 -68 -26.5t-29 -69.5t30 -70.5t67 -27.5q74 0 132 98zM686.5 212.5q29.5 27.5 29.5 70.5t-28.5 69.5t-67.5 26.5q-41 0 -73 -24t-60 -72q29 -49 61 -73.5t72 -24.5q37 0 66.5 27.5z" />
    <glyph glyph-name="integral" unicode="&#x222b;" horiz-adv-x="449" 
d="M44 -191v106q22 -5 47 -5q47 0 69 20.5t22 69.5q0 56 -8.5 167t-10.5 135q-19 217 -19 287q0 53 10.5 87.5t33.5 58.5q45 51 144 51q40 0 73 -12v-106q-26 6 -47 6q-46 0 -68.5 -21.5t-22.5 -69.5q0 -65 20 -301q2 -29 10.5 -133.5t8.5 -154.5q0 -54 -10 -88.5t-33 -57.5
q-47 -51 -145 -51q-41 0 -74 12z" />
    <glyph glyph-name="approxequal" unicode="&#x2248;" horiz-adv-x="659" 
d="M364.5 363.5q-25.5 9.5 -59.5 28.5q-26 14 -43 21t-35 7q-29 0 -48 -13.5t-43 -42.5l-67 45q31 54 73.5 82t93.5 28q31 0 56 -9.5t61 -27.5q25 -14 42.5 -21t35.5 -7q30 0 48 13.5t43 42.5l67 -46q-64 -110 -167 -110q-32 0 -57.5 9.5zM364.5 146.5q-25.5 9.5 -59.5 28.5
q-26 14 -43 21t-35 7q-29 0 -48 -13.5t-43 -42.5l-67 46q31 54 73.5 82t93.5 28q31 0 57 -10t60 -28q25 -14 42.5 -21t35.5 -7q30 0 48.5 13.5t42.5 43.5l67 -46q-65 -111 -167 -111q-32 0 -57.5 9.5z" />
    <glyph glyph-name="notequal" unicode="&#x2260;" horiz-adv-x="649" 
d="M394 372l-34 -110h196v-105h-229l-28 -91h-112l28 91h-121v105h154l34 110h-188v105h221l28 91h112l-28 -91h129v-105h-162z" />
    <glyph glyph-name="lessequal" unicode="&#x2264;" horiz-adv-x="643" 
d="M94 368v94l455 182v-114l-309 -116l309 -114v-114zM94 150h455v-104h-455v104z" />
    <glyph glyph-name="greaterequal" unicode="&#x2265;" horiz-adv-x="643" 
d="M94 300l309 114l-309 116v114l455 -182v-94l-455 -182v114zM94 150h455v-104h-455v104z" />
    <glyph glyph-name="lozenge" unicode="&#x25ca;" horiz-adv-x="745" 
d="M61 305l241 417h143l241 -417l-241 -418h-143zM549 305l-175 308l-176 -308l176 -308z" />
    <glyph glyph-name="NULL" horiz-adv-x="0" 
 />
    <glyph glyph-name="J.loclNLD" horiz-adv-x="547" 
d="M430 919h145l-119 -157h-105zM122 5.5q-60 21.5 -95 54.5l48 86q83 -46 153 -46q119 0 119 134v472h131v-497q0 -109 -63 -167t-172 -58q-61 0 -121 21.5z" />
    <glyph glyph-name="i.loclTRK" horiz-adv-x="281" 
d="M77 706h127v-115h-127v115zM79 519h124v-519h-124v519z" />
    <glyph glyph-name="a.alt" horiz-adv-x="670" 
d="M596 519v-519h-107l-3 77q-32 -45 -80.5 -69t-106.5 -24q-75 0 -132 35t-88.5 98.5t-31.5 145.5t31.5 144.5t89 96.5t132.5 34q59 0 107 -23t80 -67l1 71h108zM434 137q41 44 41 126t-40.5 124.5t-112.5 42.5q-71 0 -111.5 -42.5t-40.5 -124.5t40.5 -126t111.5 -44
t112 44z" />
    <glyph glyph-name="j.loclNLD" horiz-adv-x="282" 
d="M153 744h147l-105 -152h-97zM-41 -150q47 15 73 35t41 55q9 22 12 47.5t3 60.5v471h124v-474q0 -57 -8 -97.5t-29 -74.5q-27 -45 -75.5 -78t-112.5 -45z" />
    <glyph glyph-name="f_f" horiz-adv-x="738" 
d="M706 515v-97h-161v-418h-120v418h-199v-418h-120v418h-76v97h76q0 43 3.5 72.5t18.5 54.5q47 81 172 81q60 0 110 -19l-24 -87q-30 11 -64 11q-53 0 -75 -25q-12 -13 -16.5 -34.5t-4.5 -53.5h199q0 41 4 71.5t19 55.5q28 48 72 64.5t108 16.5q33 0 65 -5t55 -14l-21 -89
q-39 13 -84 13q-32 0 -51.5 -7.5t-30.5 -23.5q-9 -13 -12.5 -32.5t-3.5 -49.5h161z" />
    <glyph glyph-name="f_f_i" horiz-adv-x="922" 
d="M846 515v-515h-121v418h-188v-418h-120v418h-191v-418h-120v418h-76v97h76q0 53 7.5 85.5t35.5 63.5q50 55 156 55q51 0 107 -17l-22 -89q-34 12 -69 12q-55 0 -76 -29q-19 -26 -19 -81h191q0 46 10 83t41 67q58 58 173 58q40 0 81 -9.5t75 -24.5l-30 -86q-65 26 -119 26
q-63 0 -89 -30q-22 -28 -22 -84h309z" />
    <glyph glyph-name="f_f_j" horiz-adv-x="927" 
d="M846 515v-516q0 -113 -36 -179q-20 -35 -57 -64t-97 -58l-41 88q40 27 61 48.5t33 43.5t15.5 46.5t3.5 67.5v426h-189v-418h-120v418h-194v-418h-120v418h-75v97h75q0 51 10 89t40 67q27 26 63.5 37t85.5 11q51 0 107 -17l-22 -89q-34 12 -69 12q-46 0 -69 -21
q-26 -25 -26 -89h194q1 47 11 83.5t40 66.5q58 58 172 58q41 0 82 -9.5t75 -24.5l-31 -86q-24 10 -55.5 18t-62.5 8q-60 0 -86 -27q-25 -26 -25 -87h307z" />
    <glyph glyph-name="f_f_l" horiz-adv-x="968" 
d="M512 705q46 18 108 18q55 0 121 -17l-21 -89q-55 11 -84 11q-53 0 -75 -22q-16 -16 -20 -37t-4 -54h157v-97h-157v-418h-120v418h-192v-418h-120v418h-75v97h75q0 54 6 79q16 68 66.5 96.5t126.5 28.5q51 0 107 -17l-22 -89q-34 12 -69 12q-46 0 -71 -23
q-16 -16 -20 -35.5t-4 -51.5h192q0 43 3.5 71.5t18.5 53.5q27 47 73 65zM893 706v-706h-121v706h121z" />
    <glyph glyph-name="f_i" horiz-adv-x="610" 
d="M534 515v-515h-121v418h-187v-418h-120v418h-76v97h76q0 46 10 83t41 67q58 58 173 58q40 0 81 -9.5t75 -24.5l-30 -86q-65 26 -119 26q-59 0 -85 -26q-16 -16 -21 -38t-5 -50h308z" />
    <glyph glyph-name="f_j" horiz-adv-x="617" 
d="M536 515v-516q0 -113 -36 -179q-20 -35 -57 -64t-97 -58l-41 88q39 27 59.5 48.5t31.5 43.5q12 22 15.5 46.5t3.5 67.5v426h-188v-418h-120v418h-77v97h77q1 47 11 83.5t40 66.5q59 58 176 58q39 0 79.5 -9.5t73.5 -24.5l-31 -86q-24 10 -55.5 18t-62.5 8q-59 0 -85 -26
q-26 -27 -26 -88h309z" />
    <glyph glyph-name="f_l" horiz-adv-x="657" 
d="M202.5 703.5q45.5 19.5 106.5 19.5q55 0 121 -17l-21 -89q-55 11 -84 11q-53 0 -75 -22q-16 -16 -20 -37t-4 -54h160v-97h-160v-418h-120v418h-76v97h76q0 39 4.5 67.5t19.5 54.5q27 47 72.5 66.5zM582 706v-706h-121v706h121z" />
    <glyph glyph-name="t_t" horiz-adv-x="738" 
d="M725 24q-29 -18 -71.5 -29t-81.5 -11q-55 0 -85 15.5t-56 47.5q-74 -63 -154 -63q-90 0 -132 48t-42 147v239h-74v97h79l6 154h109v-154h180l6 154h109v-154h167v-97h-167v-222q0 -57 15.5 -83.5t60.5 -26.5q24 0 52.5 6.5t46.5 15.5zM401 134q-3 21 -3 45v239h-175v-222
q0 -57 15.5 -83.5t60.5 -26.5q54 0 102 48z" />
    <glyph glyph-name="one.dnomalt" horiz-adv-x="325" 
d="M305 65v-72h-250v72h86v213l-71 -35l-30 63l121 60h61v-301h83z" />
    <glyph glyph-name="zero.lf" horiz-adv-x="681" 
d="M179 40.5q-65 49.5 -95.5 131t-30.5 178.5q0 96 30.5 177.5t95.5 131t162 49.5t162 -49.5t95.5 -131t30.5 -177.5q0 -97 -30.5 -178.5t-95.5 -131t-162 -49.5t-162 49.5zM460.5 169q40.5 68 40.5 181q0 112 -40.5 180t-119.5 68q-80 0 -120 -67.5t-40 -180.5
q0 -114 40 -181.5t120 -67.5q79 0 119.5 68z" />
    <glyph glyph-name="one.lf" horiz-adv-x="464" 
d="M357 701v-701h-122v558l-140 -75l-44 98l214 120h92z" />
    <glyph glyph-name="two.lf" horiz-adv-x="635" 
d="M562 108v-108h-483v67q0 62 19.5 105t60.5 84q30 30 66 56t84 56l35 23q42 28 64.5 54.5t22.5 58.5q0 41 -35.5 67.5t-91.5 26.5q-87 0 -193 -64l-35 97q113 77 232 77q72 0 128.5 -25t88.5 -70t32 -102q0 -43 -16 -77t-47 -65q-22 -23 -48.5 -42.5t-72.5 -50.5
q-65 -41 -99 -72q-31 -27 -47.5 -50t-16.5 -46h352z" />
    <glyph glyph-name="three.lf" horiz-adv-x="587" 
d="M496 290.5q36 -46.5 36 -104.5q0 -51 -30 -96t-86 -72t-132 -27q-65 0 -128.5 22t-115.5 67l48 86q43 -30 91.5 -47.5t96.5 -17.5q55 0 91 25.5t36 72.5q0 52 -43 80t-104 28h-64v107h67q58 0 94.5 26t36.5 69q0 36 -32 62t-93 26q-39 0 -77 -14.5t-71 -39.5l-55 74
q44 46 99.5 68.5t115.5 22.5q67 0 121 -24t84.5 -68t30.5 -101q0 -49 -29.5 -89.5t-82.5 -64.5q59 -24 95 -70.5z" />
    <glyph glyph-name="four.lf" horiz-adv-x="645" 
d="M599 151h-85v-151h-121v151h-347v92l360 452h108v-442h85v-102zM393 253v265l-215 -265h215z" />
    <glyph glyph-name="five.lf" horiz-adv-x="600" 
d="M441 422q52 -28 81 -79t29 -118q0 -69 -32.5 -122t-91.5 -82.5t-136 -29.5q-130 0 -251 80l44 92q44 -27 99 -44.5t104 -17.5q64 0 101.5 33.5t37.5 88.5t-38 90t-96 35q-64 0 -118 -36l-94 20l36 363h385v-106h-283l-19 -170q58 31 123 31q67 0 119 -28z" />
    <glyph glyph-name="six.lf" horiz-adv-x="608" 
d="M112 86q-66 95 -66 245q0 123 42 207q40 81 105 125.5t147 44.5q51 0 105.5 -17.5t99.5 -47.5l-42 -86q-34 22 -75.5 35.5t-81.5 13.5q-60 0 -102.5 -34t-64 -88.5t-20.5 -112.5q28 40 76 62.5t99 22.5q67 0 120 -29t82 -80.5t29 -115.5q0 -69 -32 -124t-89 -85.5
t-130 -30.5q-136 0 -202 95zM410.5 132q35.5 37 35.5 90q0 54 -35.5 91.5t-96.5 37.5q-57 0 -92.5 -38t-35.5 -91q0 -52 35 -89.5t93 -37.5q61 0 96.5 37z" />
    <glyph glyph-name="seven.lf" horiz-adv-x="538" 
d="M507 695v-99q-106 -130 -167 -273.5t-88 -322.5h-139q30 161 91 305t158 284h-331v106h476z" />
    <glyph glyph-name="eight.lf" horiz-adv-x="635" 
d="M552 302q40 -46 40 -110q0 -52 -30 -97.5t-92 -74.5t-153 -29q-90 0 -152 29t-92 74.5t-30 97.5q0 62 39.5 109t106.5 68q-56 21 -86.5 59t-30.5 94q0 52 30.5 94.5t86 67t128.5 24.5q74 0 129.5 -24.5t85.5 -67t30 -94.5q0 -56 -30.5 -94t-86.5 -59q67 -21 107 -67z
M226 581q-36 -23 -36 -70t36 -70t91 -23q54 0 90.5 23t36.5 70t-36.5 70t-90.5 23q-55 0 -91 -23zM423 127.5q42 26.5 42 77.5q0 53 -42 79.5t-106 26.5q-63 0 -105.5 -27t-42.5 -79q0 -51 42.5 -77.5t105.5 -26.5q64 0 106 26.5z" />
    <glyph glyph-name="nine.lf" horiz-adv-x="606" 
d="M166 5q-51 14 -97 39l34 88q34 -19 76 -29.5t79 -10.5q105 0 150 72t45 167q-33 -42 -81 -64.5t-100 -22.5q-68 0 -120 29t-80 79.5t-28 113.5q0 69 32 124t88.5 86.5t127.5 31.5q61 0 111 -22.5t84 -64.5q40 -47 57 -112t17 -148q0 -160 -70 -265t-226 -105
q-48 0 -99 14zM384.5 385.5q35.5 37.5 35.5 91.5t-35.5 91t-94.5 37t-94.5 -37t-35.5 -91t35.5 -91.5t94.5 -37.5t94.5 37.5z" />
    <glyph glyph-name="zero.num" horiz-adv-x="377" 
d="M71 383.5q-40 56.5 -40 137.5t40 137.5t118 56.5t118 -56.5t40 -137.5t-40 -137.5t-118 -56.5t-118 56.5zM241.5 434.5q18.5 33.5 18.5 86.5q0 52 -18.5 85.5t-52.5 33.5q-35 0 -53 -33.5t-18 -85.5q0 -53 18 -86.5t53 -33.5q34 0 52.5 33.5z" />
    <glyph glyph-name="one.num" horiz-adv-x="254" 
d="M207 706v-373h-81v285l-71 -35l-30 63l121 60h61z" />
    <glyph glyph-name="two.num" horiz-adv-x="343" 
d="M317 407v-74h-261v40q0 61 46 107q15 15 33.5 28t35.5 24l22 15q23 15 32.5 26.5t9.5 27.5q0 17 -17 29.5t-44 12.5q-45 0 -95 -34l-32 61q28 21 63 33t68 12q43 0 74 -16t47.5 -42t16.5 -55q0 -45 -33 -78q-16 -14 -50 -38q-42 -28 -57 -43q-13 -10 -19 -18t-9 -18h169z
" />
    <glyph glyph-name="three.num" horiz-adv-x="320" 
d="M262 355q-37 -28 -95 -28q-32 0 -66 10.5t-63 30.5l29 60q54 -29 92 -29q23 0 40 12.5t17 30.5q0 17 -18.5 30.5t-44.5 13.5h-39v72h39q21 0 38.5 11.5t17.5 30.5q0 18 -16 30.5t-41 12.5q-36 0 -77 -25l-29 58q26 18 56 28.5t59 10.5q60 0 95 -31t35 -75q0 -28 -16 -50
t-44 -34q30 -10 49 -34.5t19 -57.5q0 -50 -37 -78z" />
    <glyph glyph-name="four.num" horiz-adv-x="354" 
d="M337 411h-41v-78h-80v78h-178l-11 63l183 233h86v-228h41v-68zM216 479v130l-99 -130h99z" />
    <glyph glyph-name="five.num" horiz-adv-x="337" 
d="M277.5 539q34.5 -33 34.5 -88q0 -54 -40.5 -89t-108.5 -35q-71 0 -130 45l28 60q52 -33 99 -33q28 0 48 15t20 37q0 20 -17 35t-43 15q-34 0 -65 -18l-48 26l20 199h209v-72h-142l-7 -73q21 9 51 9q57 0 91.5 -33z" />
    <glyph glyph-name="six.num" horiz-adv-x="339" 
d="M72 379.5q-36 52.5 -36 132.5q0 54 18.5 100t54.5 74.5t86 28.5q28 0 57 -9t54 -26l-26 -61q-46 24 -82 24q-41 0 -64.5 -29t-23.5 -72q34 35 81 35q55 0 90 -34t35 -88q0 -56 -37.5 -92t-98.5 -36q-72 0 -108 52.5zM221.5 413q15.5 16 15.5 37q0 23 -15.5 39t-40.5 16
t-39.5 -16t-14.5 -39q0 -21 15 -37t39 -16q25 0 40.5 16z" />
    <glyph glyph-name="seven.num" horiz-adv-x="303" 
d="M286 707v-61q-53 -63 -87 -143t-48 -170h-89q13 81 42 153.5t80 147.5h-156v73h258z" />
    <glyph glyph-name="eight.num" horiz-adv-x="352" 
d="M300 495q22 -24 22 -60q0 -44 -38 -76t-109 -32q-70 0 -108 32t-38 76q0 38 22.5 61.5t55.5 34.5q-30 13 -46 32.5t-16 50.5q0 42 36 71.5t94 29.5t94.5 -29.5t36.5 -71.5q0 -58 -60 -83q32 -12 54 -36zM137.5 634.5q-15.5 -10.5 -15.5 -30.5t15.5 -30t37.5 -10t38 10
t16 30t-16 30.5t-38 10.5t-37.5 -10.5zM221 410.5q18 12.5 18 34.5t-18 35t-46 13t-46 -13t-18 -35t18 -34.5t46 -12.5t46 12.5z" />
    <glyph glyph-name="nine.num" horiz-adv-x="337" 
d="M92.5 336.5q-29.5 9.5 -53.5 25.5l23 62q44 -27 86 -27q44 0 67 30.5t23 77.5q-12 -18 -35 -29t-51 -11q-55 0 -89.5 34t-34.5 87q0 56 38 92.5t97 36.5q64 0 100 -41q45 -48 45 -146q0 -88 -40 -144.5t-118 -56.5q-28 0 -57.5 9.5zM203 551.5q15 16.5 15 38.5
q0 23 -15 38.5t-41 15.5q-25 0 -40 -15.5t-15 -38.5q0 -22 15 -38.5t40 -16.5q26 0 41 16.5z" />
    <glyph glyph-name="one.numalt" horiz-adv-x="314" 
d="M291 405v-72h-250v72h86v213l-71 -35l-30 63l121 60h61v-301h83z" />
    <glyph glyph-name="zero.slash" horiz-adv-x="681" 
d="M503 658.5q65 -49.5 95.5 -131t30.5 -177.5q0 -97 -30.5 -178.5t-95.5 -131t-162 -49.5t-162 49.5t-95.5 131t-30.5 178.5q0 96 30.5 177.5t95.5 131t162 49.5t162 -49.5zM221 530.5q-40 -67.5 -40 -180.5q0 -67 13 -116l235 333q-36 31 -88 31q-80 0 -120 -67.5z
M460.5 169q40.5 68 40.5 181q0 64 -14 117l-236 -334q37 -32 90 -32q79 0 119.5 68z" />
    <glyph glyph-name="zero.tf" horiz-adv-x="609" 
d="M143 40.5q-65 49.5 -95.5 131t-30.5 178.5q0 96 30.5 177.5t95.5 131t162 49.5t162 -49.5t95.5 -131t30.5 -177.5q0 -97 -30.5 -178.5t-95.5 -131t-162 -49.5t-162 49.5zM424.5 169q40.5 68 40.5 181q0 112 -40.5 180t-119.5 68q-80 0 -120 -67.5t-40 -180.5
q0 -114 40 -181.5t120 -67.5q79 0 119.5 68z" />
    <glyph glyph-name="one.tf" horiz-adv-x="633" 
d="M557 108v-108h-469v108h176v450l-140 -75l-44 98l214 120h92v-593h171z" />
    <glyph glyph-name="two.tf" horiz-adv-x="631" 
d="M562 108v-108h-483v67q0 62 19.5 105t60.5 84q30 30 66 56t84 56l35 23q42 28 64.5 54.5t22.5 58.5q0 41 -35.5 67.5t-91.5 26.5q-87 0 -193 -64l-35 97q113 77 232 77q72 0 128.5 -25t88.5 -70t32 -102q0 -43 -16 -77t-47 -65q-22 -23 -48.5 -42.5t-72.5 -50.5
q-65 -41 -99 -72q-31 -27 -47.5 -50t-16.5 -46h352z" />
    <glyph glyph-name="three.tf" horiz-adv-x="629" 
d="M509 290.5q36 -46.5 36 -104.5q0 -51 -30 -96t-86 -72t-132 -27q-65 0 -128.5 22t-115.5 67l48 86q43 -30 91.5 -47.5t96.5 -17.5q55 0 91 25.5t36 72.5q0 52 -43 80t-104 28h-64v107h67q58 0 94.5 26t36.5 69q0 36 -32 62t-93 26q-39 0 -77 -14.5t-71 -39.5l-55 74
q44 46 99.5 68.5t115.5 22.5q66 0 119.5 -23t85 -67t31.5 -103q0 -49 -29.5 -89.5t-82.5 -64.5q59 -24 95 -70.5z" />
    <glyph glyph-name="four.tf" horiz-adv-x="611" 
d="M582 151h-85v-151h-121v151h-347v92l360 452h108v-442h85v-102zM376 253v265l-215 -265h215z" />
    <glyph glyph-name="five.tf" horiz-adv-x="624" 
d="M448 422q52 -28 81 -79t29 -118q0 -69 -32.5 -122t-91.5 -82.5t-136 -29.5q-130 0 -251 80l44 92q44 -27 99 -44.5t104 -17.5q64 0 101.5 33.5t37.5 88.5t-38 90t-96 35q-64 0 -118 -36l-94 20l36 363h385v-106h-283l-19 -170q56 31 123 31t119 -28z" />
    <glyph glyph-name="six.tf" horiz-adv-x="621" 
d="M112 86q-66 95 -66 245q0 123 42 207q40 81 105 125.5t147 44.5q51 0 105.5 -17.5t99.5 -47.5l-42 -86q-34 22 -75.5 35.5t-81.5 13.5q-60 0 -102.5 -34t-64 -88.5t-20.5 -112.5q28 40 76 62.5t99 22.5q67 0 120 -29t82 -80.5t29 -115.5q0 -69 -32 -124t-89 -85.5
t-130 -30.5q-136 0 -202 95zM410.5 132q35.5 37 35.5 90q0 54 -35.5 91.5t-96.5 37.5q-57 0 -92.5 -38t-35.5 -91q0 -52 35 -89.5t93 -37.5q61 0 96.5 37z" />
    <glyph glyph-name="seven.tf" horiz-adv-x="635" 
d="M557 695v-99q-106 -130 -167 -273.5t-88 -322.5h-139q30 161 91 305t158 284h-331v106h476z" />
    <glyph glyph-name="eight.tf" horiz-adv-x="613" 
d="M541 302q40 -46 40 -110q0 -52 -30 -97.5t-92 -74.5t-153 -29q-90 0 -152 29t-92 74.5t-30 97.5q0 62 39.5 109t106.5 68q-56 21 -86.5 59t-30.5 94q0 52 30.5 94.5t86 67t128.5 24.5q74 0 129.5 -24.5t85.5 -67t30 -94.5q0 -56 -30.5 -94t-86.5 -59q67 -21 107 -67z
M215 581q-36 -23 -36 -70t36 -70t91 -23q54 0 90.5 23t36.5 70t-36.5 70t-90.5 23q-55 0 -91 -23zM412 127.5q42 26.5 42 77.5q0 53 -42 79.5t-106 26.5q-63 0 -105.5 -27t-42.5 -79q0 -51 42.5 -77.5t105.5 -26.5q64 0 106 26.5z" />
    <glyph glyph-name="nine.tf" horiz-adv-x="622" 
d="M174 5q-51 14 -97 39l34 88q34 -19 76 -29.5t79 -10.5q105 0 150 72t45 167q-33 -42 -81 -64.5t-100 -22.5q-68 0 -120 29t-80 79.5t-28 113.5q0 69 32 124t88.5 86.5t127.5 31.5q61 0 111 -22.5t84 -64.5q40 -47 57 -112t17 -148q0 -160 -70 -265t-226 -105
q-48 0 -99 14zM392.5 385.5q35.5 37.5 35.5 91.5t-35.5 91t-94.5 37t-94.5 -37t-35.5 -91t35.5 -91.5t94.5 -37.5t94.5 37.5z" />
    <glyph glyph-name="twosevenths" horiz-adv-x="838" 
d="M726 716l-499 -725h-97l499 725h97zM227.5 573.5q9.5 11.5 9.5 27.5q0 17 -17 29.5t-44 12.5q-45 0 -95 -34l-32 61q28 21 63 33t68 12q43 0 74 -16t47.5 -42t16.5 -55q0 -45 -33 -78q-16 -14 -50 -38q-42 -28 -57 -43q-13 -10 -19 -18t-9 -18h169v-74h-261v40
q0 61 46 107q15 15 33.5 28t35.5 24l22 15q23 15 32.5 26.5zM803 365v-61q-53 -63 -87 -143t-48 -170h-89q10 60 25 107q30 95 97 194h-156v73h258z" />
    <glyph glyph-name="threesevenths" horiz-adv-x="830" 
d="M711 716l-499 -725h-97l499 725h97zM210 411.5q17 12.5 17 30.5t-18.5 31t-44.5 13h-39v72h39q21 0 38.5 11.5t17.5 30.5q0 18 -16 30.5t-41 12.5q-36 0 -77 -25l-29 58q26 18 56 28.5t59 10.5q60 0 95 -31t35 -75q0 -26 -15 -49q-16 -23 -45 -35q29 -10 48 -33
q20 -25 20 -59q0 -50 -37 -78t-95 -28q-32 0 -66 10.5t-63 30.5l29 60q54 -29 92 -29q23 0 40 12.5zM796 365v-61q-53 -63 -87 -143t-48 -170h-89q10 60 25 107q30 95 97 194h-156v73h258z" />
    <glyph glyph-name="foursevenths" horiz-adv-x="848" 
d="M729 716l-499 -725h-97l499 725h97zM207 411h-178l-11 63l183 233h86v-228h41v-68h-41v-78h-80v78zM207 479v130l-99 -130h99zM815 365v-61q-53 -63 -87 -143t-48 -170h-89q10 60 25 107q30 95 97 194h-156v73h258z" />
    <glyph glyph-name="fivesevenths" horiz-adv-x="836" 
d="M710 716l-499 -725h-97l499 725h97zM211 414q20 15 20 37q0 20 -17 35t-43 15q-34 0 -65 -18l-48 26l20 199h209v-72h-142l-7 -73q21 9 51 9q57 0 91.5 -33t34.5 -88q0 -54 -40.5 -89t-108.5 -35q-71 0 -130 45l28 60q52 -33 99 -33q28 0 48 15zM803 365v-61
q-53 -63 -87 -143t-48 -170h-89q10 60 25 107q30 95 97 194h-156v73h258z" />
    <glyph glyph-name="sixsevenths" horiz-adv-x="841" 
d="M711 716l-499 -725h-97l499 725h97zM277.5 363q-37.5 -36 -98.5 -36q-72 0 -108 52.5t-36 132.5q0 65 23 111q19 43 55.5 67.5t80.5 24.5q28 0 57 -9t54 -26l-26 -61q-46 24 -82 24q-20 0 -38 -8.5t-30 -24.5q-16 -23 -19 -50q-1 -8 -1 -18q34 35 81 35q55 0 90 -34
t35 -88q0 -56 -37.5 -92zM142 413q15 -16 39 -16q25 0 40.5 16t15.5 37q0 23 -15.5 39t-40.5 16t-39.5 -16t-14.5 -39q0 -21 15 -37zM807 365v-61q-53 -63 -87 -143t-48 -170h-89q10 60 25 107q30 95 97 194h-156v73h258z" />
    <glyph glyph-name="twoninths" horiz-adv-x="843" 
d="M723 716l-499 -725h-97l499 725h97zM211.5 573.5q9.5 11.5 9.5 27.5q0 17 -17 29.5t-44 12.5q-45 0 -95 -34l-32 61q28 21 63 33t68 12q43 0 74 -16t47.5 -42t16.5 -55q0 -45 -33 -78q-16 -14 -50 -38q-42 -28 -57 -43q-13 -10 -19 -18t-9 -18h169v-74h-261v40
q0 61 46 107q15 15 33.5 28t35.5 24l22 15q23 15 32.5 26.5zM793 186q0 -74 -26 -123q-19 -37 -53.5 -57.5t-78.5 -20.5q-28 0 -57.5 9.5t-53.5 25.5l23 62q44 -27 86 -27q24 0 43.5 11t31.5 31q14 27 16 63l-1 3q-12 -18 -35 -29t-51 -11q-55 0 -89.5 34t-34.5 87
q0 56 38 92.5t97 36.5q64 0 100 -41q45 -48 45 -146zM688 209.5q15 16.5 15 38.5q0 23 -15 38.5t-41 15.5q-25 0 -40 -15.5t-15 -38.5q0 -22 15 -38.5t40 -16.5q26 0 41 16.5z" />
    <glyph glyph-name="fourninths" horiz-adv-x="848" 
d="M724 716l-499 -725h-97l499 725h97zM202 411h-178l-11 63l183 233h86v-228h41v-68h-41v-78h-80v78zM202 479v130l-99 -130h99zM797 186q0 -74 -26 -123q-19 -37 -53.5 -57.5t-78.5 -20.5q-28 0 -57.5 9.5t-53.5 25.5l23 62q44 -27 86 -27q24 0 43.5 11t31.5 31
q14 27 16 63l-1 3q-12 -18 -35 -29t-51 -11q-55 0 -89.5 34t-34.5 87q0 56 38 92.5t97 36.5q64 0 100 -41q45 -48 45 -146zM692 209.5q15 16.5 15 38.5q0 23 -15 38.5t-41 15.5q-25 0 -40 -15.5t-15 -38.5q0 -22 15 -38.5t40 -16.5q26 0 41 16.5z" />
    <glyph glyph-name="fiveninths" horiz-adv-x="838" 
d="M702 716l-499 -725h-97l499 725h97zM200 414q20 15 20 37q0 20 -17 35t-43 15q-34 0 -65 -18l-48 26l20 199h209v-72h-142l-7 -73q21 9 51 9q57 0 91.5 -33t34.5 -88q0 -54 -40.5 -89t-108.5 -35q-71 0 -130 45l28 60q52 -33 99 -33q28 0 48 15zM786 186q0 -74 -26 -123
q-19 -37 -53.5 -57.5t-78.5 -20.5q-28 0 -57.5 9.5t-53.5 25.5l23 62q44 -27 86 -27q24 0 43.5 11t31.5 31q14 27 16 63l-1 3q-12 -18 -35 -29t-51 -11q-55 0 -89.5 34t-34.5 87q0 56 38 92.5t97 36.5q64 0 100 -41q45 -48 45 -146zM681 209.5q15 16.5 15 38.5
q0 23 -15 38.5t-41 15.5q-25 0 -40 -15.5t-15 -38.5q0 -22 15 -38.5t40 -16.5q26 0 41 16.5z" />
    <glyph glyph-name="sevenninths" horiz-adv-x="836" 
d="M679 716l-499 -725h-97l499 725h97zM210 634h-156v73h258v-61q-53 -64 -87.5 -143.5t-47.5 -169.5h-89q10 60 25 107q30 95 97 194zM786 186q0 -74 -26 -123q-19 -37 -53.5 -57.5t-78.5 -20.5q-28 0 -57.5 9.5t-53.5 25.5l23 62q44 -27 86 -27q24 0 43.5 11t31.5 31
q14 27 16 63l-1 3q-12 -18 -35 -29t-51 -11q-55 0 -89.5 34t-34.5 87q0 56 38 92.5t97 36.5q64 0 100 -41q45 -48 45 -146zM681 209.5q15 16.5 15 38.5q0 23 -15 38.5t-41 15.5q-25 0 -40 -15.5t-15 -38.5q0 -22 15 -38.5t40 -16.5q26 0 41 16.5z" />
    <glyph glyph-name="eightninths" horiz-adv-x="840" 
d="M703 716l-499 -725h-97l499 725h97zM271 359q-38 -32 -109 -32q-70 0 -108 32t-38 76q0 38 22.5 61.5t55.5 34.5q-30 13 -46 32.5t-16 50.5q0 42 36 71.5t94 29.5t94.5 -29.5t36.5 -71.5q0 -58 -60 -83q32 -12 54 -36t22 -60q0 -44 -38 -76zM125.5 634.5
q-15.5 -10.5 -15.5 -30.5t15.5 -30t37.5 -10t38 10t16 30t-16 30.5t-38 10.5t-37.5 -10.5zM117 410.5q18 -12.5 46 -12.5t46 12.5t18 34.5t-18 35t-46 13t-46 -13t-18 -35t18 -34.5zM789 186q0 -74 -26 -123q-19 -37 -53.5 -57.5t-78.5 -20.5q-28 0 -57.5 9.5t-53.5 25.5
l23 62q44 -27 86 -27q24 0 43.5 11t31.5 31q14 27 16 63l-1 3q-12 -18 -35 -29t-51 -11q-55 0 -89.5 34t-34.5 87q0 56 38 92.5t97 36.5q64 0 100 -41q45 -48 45 -146zM684 209.5q15 16.5 15 38.5q0 23 -15 38.5t-41 15.5q-25 0 -40 -15.5t-15 -38.5q0 -22 15 -38.5
t40 -16.5q26 0 41 16.5z" />
    <glyph glyph-name="zero.dnom" horiz-adv-x="377" 
d="M71 41.5q-40 56.5 -40 137.5t40 137.5t118 56.5t118 -56.5t40 -137.5t-40 -137.5t-118 -56.5t-118 56.5zM241.5 92.5q18.5 33.5 18.5 86.5q0 52 -18.5 85.5t-52.5 33.5q-35 0 -53 -33.5t-18 -85.5q0 -53 18 -86.5t53 -33.5q34 0 52.5 33.5z" />
    <glyph glyph-name="one.dnom" horiz-adv-x="254" 
d="M207 364v-373h-81v285l-71 -35l-30 63l121 60h61z" />
    <glyph glyph-name="two.dnom" horiz-adv-x="343" 
d="M317 65v-74h-261v40q0 61 46 107q15 15 33.5 28t35.5 24l22 15q23 15 32.5 26.5t9.5 27.5q0 17 -17 29.5t-44 12.5q-45 0 -95 -34l-32 61q28 21 63 33t68 12q43 0 74 -16t47.5 -42t16.5 -55q0 -45 -33 -78q-16 -14 -50 -38q-42 -28 -57 -43q-13 -10 -19 -18t-9 -18h169z
" />
    <glyph glyph-name="three.dnom" horiz-adv-x="320" 
d="M262 13q-37 -28 -95 -28q-32 0 -66 10.5t-63 30.5l29 60q54 -29 92 -29q23 0 40 12.5t17 30.5t-18.5 31t-44.5 13h-39v72h39q21 0 38.5 11.5t17.5 30.5q0 18 -16 30.5t-41 12.5q-36 0 -77 -25l-29 58q26 18 56 28.5t59 10.5q60 0 95 -31t35 -75q0 -28 -16 -50t-44 -34
q30 -10 49 -34.5t19 -57.5q0 -50 -37 -78z" />
    <glyph glyph-name="four.dnom" horiz-adv-x="331" 
d="M313 69h-41v-78h-80v78h-178l-11 63l183 233h86v-228h41v-68zM192 137v130l-99 -130h99z" />
    <glyph glyph-name="five.dnom" horiz-adv-x="337" 
d="M277.5 197q34.5 -33 34.5 -88q0 -54 -40.5 -89t-108.5 -35q-71 0 -130 45l28 60q52 -33 99 -33q28 0 48 15t20 37q0 20 -17 35t-43 15q-33 0 -65 -18l-48 26l20 199h209v-72h-142l-7 -73q21 9 51 9q57 0 91.5 -33z" />
    <glyph glyph-name="six.dnom" horiz-adv-x="339" 
d="M72 37.5q-36 52.5 -36 132.5q0 54 18.5 100t54.5 74.5t86 28.5q28 0 57 -9t54 -26l-26 -61q-46 24 -82 24q-41 0 -64.5 -29t-23.5 -72q34 35 81 35q55 0 90 -34t35 -88q0 -56 -37.5 -92t-98.5 -36q-72 0 -108 52.5zM221.5 71q15.5 16 15.5 37q0 23 -15.5 39t-40.5 16
t-39.5 -16t-14.5 -39q0 -21 15 -37t39 -16q25 0 40.5 16z" />
    <glyph glyph-name="seven.dnom" horiz-adv-x="303" 
d="M286 365v-61q-53 -63 -87 -143t-48 -170h-89q13 81 42 153.5t80 147.5h-156v73h258z" />
    <glyph glyph-name="eight.dnom" horiz-adv-x="352" 
d="M300 153q22 -24 22 -60q0 -44 -38 -76t-109 -32q-70 0 -108 32t-38 76q0 38 22.5 61.5t55.5 34.5q-30 13 -46 32.5t-16 50.5q0 42 36 71.5t94 29.5t94.5 -29.5t36.5 -71.5q0 -58 -60 -83q32 -12 54 -36zM137.5 292.5q-15.5 -10.5 -15.5 -30.5t15.5 -30t37.5 -10t38 10
t16 30t-16 30.5t-38 10.5t-37.5 -10.5zM221 68.5q18 12.5 18 34.5t-18 35t-46 13t-46 -13t-18 -35t18 -34.5t46 -12.5t46 12.5z" />
    <glyph glyph-name="nine.dnom" horiz-adv-x="337" 
d="M92.5 -5.5q-29.5 9.5 -53.5 25.5l23 62q44 -27 86 -27q43 0 66 29t25 76q-12 -14 -36 -25.5t-51 -11.5q-55 0 -89.5 34t-34.5 87q0 56 38 92.5t97 36.5q64 0 100 -41q45 -48 45 -146q0 -88 -40 -144.5t-118 -56.5q-28 0 -57.5 9.5zM203 209.5q15 16.5 15 38.5
q0 23 -15 38.5t-41 15.5q-25 0 -40 -15.5t-15 -38.5q0 -22 15 -38.5t40 -16.5q26 0 41 16.5z" />
    <glyph glyph-name="caron.alt" horiz-adv-x="286" 
d="M170 749h-93l26 185h120z" />
    <glyph glyph-name="acute.case" horiz-adv-x="317" 
d="M130 919h145l-119 -157h-105z" />
    <glyph glyph-name="breve.case" horiz-adv-x="395" 
d="M74.5 796.5q-48.5 39.5 -48.5 108.5h102q0 -30 20.5 -50.5t49.5 -20.5t49.5 20.5t20.5 50.5h103q0 -68 -49 -108t-124 -40t-123.5 39.5z" />
    <glyph glyph-name="caron.case" horiz-adv-x="432" 
d="M33 908h117l66 -86l66 86h117l-122 -152h-122z" />
    <glyph glyph-name="cedilla.case" horiz-adv-x="319" 
d="M43 -206l20 50q32 -14 63 -14q52 0 52 36q0 16 -18 26t-49 10l-23 -1l-4 27l33 84h83l-23 -63q44 0 71.5 -26t27.5 -63q0 -39 -33.5 -68t-86.5 -29q-60 0 -113 31z" />
    <glyph glyph-name="circumflex.case" horiz-adv-x="460" 
d="M170 914h121l122 -152h-116l-67 85l-66 -85h-117z" />
    <glyph glyph-name="dieresis.case" horiz-adv-x="367" 
d="M17 895h126v-123h-126v123zM226 895h126v-123h-126v123z" />
    <glyph glyph-name="dotaccent.case" horiz-adv-x="306" 
d="M85 900h137v-126h-137v126z" />
    <glyph glyph-name="grave.case" horiz-adv-x="316" 
d="M57 918h145l62 -156h-105z" />
    <glyph glyph-name="hungarumlaut.case" horiz-adv-x="464" 
d="M91 924h141l-98 -162h-105zM296 924h141l-98 -162h-105z" />
    <glyph glyph-name="macron.case" horiz-adv-x="444" 
d="M54 874h335v-95h-335v95z" />
    <glyph glyph-name="ogonek.case" horiz-adv-x="373" 
d="M112.5 -217q-32.5 31 -32.5 75q0 95 133 160l35 -26q-38 -33 -54.5 -55.5t-16.5 -43.5t15 -33t37 -12q20 0 38 8l30 -73q-41 -31 -97 -31q-55 0 -87.5 31z" />
    <glyph glyph-name="ring.case" horiz-adv-x="285" 
d="M61 763q-34 29 -34 79t34 79t82 29q47 0 81 -29t34 -79t-33.5 -79t-81.5 -29t-82 29zM174.5 806q12.5 12 12.5 36t-12.5 36t-31.5 12t-32 -12.5t-13 -35.5t13 -35.5t32 -12.5t31.5 12z" />
    <glyph glyph-name="tilde.case" horiz-adv-x="516" 
d="M291 780.5q-18 7.5 -42 22.5q-21 12 -32 17.5t-24 5.5q-34 0 -44 -49h-93q10 71 43.5 104.5t83.5 33.5q22 0 40 -7.5t44 -22.5q20 -11 31.5 -16.5t24.5 -5.5q33 0 43 48h93q-9 -70 -43 -104t-84 -34q-23 0 -41 7.5z" />
    <glyph glyph-name="commaccent" horiz-adv-x="198" 
d="M35 -83h123l-30 -194h-103z" />
    <glyph glyph-name="commaccent.case" horiz-adv-x="197" 
d="M26 -55h126l-31 -203h-105z" />
    </font>
</defs>
</svg>
