<?xml version="1.0" standalone="no"?>
<!DOCTYPE svg PUBLIC "-//W3C//DTD SVG 1.1//EN" "http://www.w3.org/Graphics/SVG/1.1/DTD/svg11.dtd" >
<svg xmlns="http://www.w3.org/2000/svg" xmlns:xlink="http://www.w3.org/1999/xlink" version="1.1">
<metadata>
Created by FontForge 20170731 at Wed Oct  7 09:45:59 2020
 By Aleksey,,,
Copyright (c) 2015 by Galin Kastelov. All rights reserved.
</metadata>
<defs>
<font id="Nolan-Italic" horiz-adv-x="1300" >
  <font-face 
    font-family="Nolan"
    font-weight="400"
    font-style="italic"
    font-stretch="normal"
    units-per-em="2048"
    panose-1="0 0 5 0 0 0 0 0 0 0"
    ascent="1556"
    descent="-492"
    x-height="1063"
    cap-height="1446"
    bbox="-485 -604 2466 1911"
    underline-thickness="102"
    underline-position="-307"
    unicode-range="U+000D-25CA"
  />
<missing-glyph horiz-adv-x="266" 
 />
    <glyph glyph-name=".notdef" horiz-adv-x="266" 
 />
    <glyph glyph-name=".null" horiz-adv-x="0" 
 />
    <glyph glyph-name="nonmarkingreturn" horiz-adv-x="682" 
 />
    <glyph glyph-name="CR" unicode="&#xd;" horiz-adv-x="266" 
 />
    <glyph glyph-name="space" unicode=" " horiz-adv-x="450" 
 />
    <glyph glyph-name="exclam" unicode="!" horiz-adv-x="561" 
d="M193 416l167 790l60 240h172l-57 -240l-230 -790h-112zM57 0l52 203h174l-52 -203h-174z" />
    <glyph glyph-name="quotedbl" unicode="&#x22;" horiz-adv-x="831" 
d="M254 907l63 357l45 176h150l-45 -176l-113 -357h-100zM621 907l63 357l45 176h150l-45 -176l-113 -357h-100z" />
    <glyph glyph-name="numbersign" unicode="#" horiz-adv-x="1579" 
d="M1473 924h-222l-172 -371h250l-51 -115h-252l-203 -438h-129l203 438h-399l-203 -438h-129l203 438h-236l53 115h236l172 371h-266l53 114h266l203 441h129l-203 -441h400l202 441h129l-202 -441h219zM950 553l172 371h-399l-172 -371h399z" />
    <glyph glyph-name="dollar" unicode="$" horiz-adv-x="1267" 
d="M1202 1257q-167 75 -334 84l-127 -559q75 -24 128.5 -45t108.5 -53.5t88.5 -70t55 -91t21.5 -119.5q0 -136 -78 -235t-209 -150.5t-303 -58.5l-33 -141h-112l32 143q-121 9 -230.5 45t-182.5 90l65 107q85 -50 170.5 -80t206.5 -35l133 586q-89 29 -153 60t-119.5 75
t-84 105t-28.5 137q0 126 76 220.5t202.5 143t288.5 53.5l37 160h113l-37 -162q192 -15 358 -90zM360 1071q0 -97 67 -152.5t208 -103.5l121 524q-111 -7 -192 -35t-123.5 -68t-61.5 -81t-19 -84zM995 389q0 42 -17 77.5t-42 60t-66 47.5t-76 36.5t-85 30.5l-127 -551
q92 6 164.5 27t118 50.5t76 67.5t42.5 76t12 78z" />
    <glyph glyph-name="percent" unicode="%" horiz-adv-x="1769" 
d="M471 762q-128 0 -200 80t-72 209q0 79 27 156.5t75 141.5t124 104t165 40q129 0 200.5 -80.5t71.5 -210.5q0 -80 -26.5 -158t-74.5 -141t-124 -102t-166 -39zM143 0l1413 1487h146l-1417 -1487h-142zM479 870q65 0 118.5 31.5t85 81t48.5 105.5t17 110q0 87 -45.5 136.5
t-124.5 49.5q-64 0 -116 -31t-83.5 -80.5t-48.5 -105.5t-17 -110q0 -87 45 -137t121 -50zM1280 -12q-128 0 -200 79.5t-72 208.5q0 78 27 156t75 142.5t124 104.5t165 40q129 0 200.5 -80.5t71.5 -210.5q0 -80 -26.5 -158t-74 -141t-123.5 -102t-167 -39zM1288 96
q66 0 119 31.5t84.5 81t48 105.5t16.5 110q0 87 -45.5 136.5t-124.5 49.5q-51 0 -95.5 -20.5t-74.5 -54.5t-52 -77.5t-32 -88.5t-10 -88q0 -86 45 -135.5t121 -49.5z" />
    <glyph glyph-name="ampersand" unicode="&#x26;" horiz-adv-x="1429" 
d="M1366 481q-128 -179 -242 -282q74 -61 162 -121l-86 -101q-52 27 -180 136q-208 -146 -461 -146q-205 0 -340 110t-135 288q0 157 91.5 267.5t275.5 188.5q-41 115 -41 213q0 188 127.5 316.5t324.5 128.5q139 0 224 -71t85 -198q0 -40 -9.5 -76t-24 -65t-40.5 -57
t-49.5 -48.5t-62 -42.5t-67 -36.5t-75 -33t-76 -29t-79.5 -28.5t-76 -28q130 -239 424 -494q121 102 242 277zM842 1368q-135 0 -221 -99t-86 -235q0 -79 32 -170q30 11 89 31.5t89.5 31.5t79.5 31t75.5 35t60 38.5t50 46t28.5 52.5t12 64q0 80 -59 127t-150 47zM584 94
q182 0 346 101q-302 271 -432 526q-134 -61 -204.5 -138t-70.5 -194q0 -132 98.5 -213.5t262.5 -81.5z" />
    <glyph glyph-name="quotesingle" unicode="'" horiz-adv-x="419" 
d="M233 907l64 357l45 176h150l-46 -176l-112 -357h-101z" />
    <glyph glyph-name="parenleft" unicode="(" horiz-adv-x="751" 
d="M414 -541q-129 190 -202 408.5t-73 429.5q0 196 56 381t158 343.5t228 293t283 256.5l68 -92q-317 -271 -480 -563t-163 -592q0 -201 53.5 -379.5t167.5 -401.5z" />
    <glyph glyph-name="parenright" unicode=")" horiz-adv-x="743" 
d="M-156 -449q327 270 480 558t153 608q0 364 -223 764l84 80q134 -191 211.5 -414t77.5 -455q0 -688 -709 -1233z" />
    <glyph glyph-name="asterisk" unicode="*" horiz-adv-x="921" 
d="M403 768l91 301l-291 -162l-31 92l301 140l-233 137l77 94l211 -164l68 303h106l-92 -303l293 164l31 -94l-301 -137l233 -140l-78 -92l-213 162l-65 -301h-107z" />
    <glyph glyph-name="plus" unicode="+" horiz-adv-x="1277" 
d="M1155 778l-31 -125h-383l-94 -379h-123l94 379h-376l30 125h379l94 379h123l-94 -379h381z" />
    <glyph glyph-name="comma" unicode="," horiz-adv-x="536" 
d="M25 -289l-27 74q72 53 109 101t59 114h-76l51 209h176l-34 -139q-34 -132 -87.5 -207t-170.5 -152z" />
    <glyph glyph-name="hyphen" unicode="-" horiz-adv-x="1124" 
d="M188 586l31 123h752l-31 -123h-752z" />
    <glyph glyph-name="period" unicode="." horiz-adv-x="497" 
d="M47 0l51 203h174l-51 -203h-174z" />
    <glyph glyph-name="slash" unicode="/" horiz-adv-x="1091" 
d="M-25 -106l1160 1642h137l-1159 -1642h-138z" />
    <glyph glyph-name="zero" unicode="0" horiz-adv-x="1380" 
d="M621 -18q-98 0 -176.5 29.5t-130 80.5t-85.5 121.5t-48.5 149t-14.5 167.5q0 70 10.5 149.5t35 169.5t60.5 174.5t92 162.5t124.5 136.5t162 93t201.5 34.5q98 0 176.5 -30t130 -81t85.5 -122t48.5 -149t14.5 -167q0 -72 -10.5 -151.5t-35 -170t-61 -174.5t-92.5 -161.5
t-124.5 -135t-162 -92t-200.5 -34.5zM633 113q93 0 173 38.5t136.5 104t100.5 147.5t70 173.5t39 177.5t13 164q0 186 -81.5 293.5t-245.5 107.5q-91 0 -170 -38.5t-134.5 -103.5t-99 -146.5t-68.5 -171.5t-38 -174t-13 -159q0 -190 80 -301.5t238 -111.5z" />
    <glyph glyph-name="one" unicode="1" horiz-adv-x="733" 
d="M623 1423h116l-356 -1423h-141l313 1255l-381 -196l-39 115z" />
    <glyph glyph-name="two" unicode="2" horiz-adv-x="1183" 
d="M754 1450q195 0 311.5 -99.5t116.5 -248.5q0 -169 -162 -309q-88 -73 -324 -207t-323 -201q-159 -119 -187 -254h791l-31 -131h-926q13 78 24 123.5t30.5 96t49.5 89.5t75.5 83t113.5 97q94 69 301 187.5t273 169.5q151 121 151 250q0 96 -81 158.5t-214 62.5
q-216 0 -432 -133l-35 112q241 154 478 154z" />
    <glyph glyph-name="three" unicode="3" horiz-adv-x="1175" 
d="M807 735q106 -40 167.5 -120.5t61.5 -194.5q0 -183 -153.5 -310.5t-390.5 -127.5q-268 0 -445 168l74 102q168 -137 377 -137q169 0 278 89.5t109 223.5q0 66 -26 115.5t-70 77t-94 40.5t-105 13h-141l20 131h135q161 0 270 83.5t109 207.5q0 94 -73.5 157.5t-207.5 63.5
q-190 0 -366 -131l-64 80q193 184 455 184q188 0 293.5 -100.5t105.5 -241.5q0 -130 -88.5 -227.5t-230.5 -145.5z" />
    <glyph glyph-name="four" unicode="4" horiz-adv-x="1259" 
d="M1217 1423l-236 -940h172l-31 -123h-172l-90 -360h-139l90 360h-745l26 109l1002 954h123zM276 483h566l172 693z" />
    <glyph glyph-name="five" unicode="5" horiz-adv-x="1167" 
d="M1114 1296h-602l-141 -469q133 80 293 80q184 0 299.5 -110.5t115.5 -284.5q0 -69 -18 -139.5t-61.5 -141.5t-106.5 -125.5t-162.5 -89t-220.5 -34.5q-260 0 -465 170l76 108q172 -145 383 -145q201 0 315.5 110.5t114.5 270.5q0 134 -86 211t-227 77q-159 0 -304 -100
l-102 25l197 714h723z" />
    <glyph glyph-name="six" unicode="6" horiz-adv-x="1228" 
d="M862 1335q-244 0 -399 -211q-63 -86 -108 -206.5t-66 -235.5q75 116 194.5 177t249.5 61q186 0 296.5 -115t100.5 -299q-5 -101 -48 -195t-115 -167.5t-176.5 -117.5t-223.5 -44q-61 0 -119 15t-116 52.5t-101 93.5t-69.5 145t-26.5 201q0 181 65 388t191 350
q191 223 475 223q199 0 365 -125l-76 -94q-135 104 -293 104zM293 412q-4 -56 12 -110t50 -99t92.5 -73t132.5 -28q114 0 207.5 58t144.5 146.5t57 187.5q9 132 -68.5 217.5t-222.5 85.5q-88 0 -164 -34.5t-126 -90t-80 -123.5t-35 -137z" />
    <glyph glyph-name="seven" unicode="7" horiz-adv-x="1040" 
d="M240 1423h923l-20 -94q-124 -128 -227 -253.5t-212.5 -287.5t-209 -360.5t-183.5 -427.5h-164q164 405 360.5 719.5t455.5 576.5h-756z" />
    <glyph glyph-name="eight" unicode="8" horiz-adv-x="1294" 
d="M924 754q124 -41 193 -119t69 -189q0 -137 -84 -244.5t-221 -163.5t-301 -56q-222 0 -357 98t-135 262q1 107 58.5 196t145 143.5t193.5 78.5q-99 38 -155 108t-56 164q0 79 37 153t104 133.5t173.5 95.5t234.5 36q210 0 322 -91t112 -226q0 -268 -333 -379zM412 1030
q0 -106 87.5 -158.5t219.5 -52.5q188 0 293.5 86t105.5 211q0 74 -47.5 123t-114 67.5t-147.5 18.5q-106 0 -194 -32t-145.5 -100.5t-57.5 -162.5zM580 113q206 0 330 99t124 239q0 116 -98 176.5t-244 60.5q-206 0 -330 -99.5t-124 -240.5q0 -78 50 -133t125 -78.5
t167 -23.5z" />
    <glyph glyph-name="nine" unicode="9" horiz-adv-x="1247" 
d="M1188 930q0 -144 -36 -292.5t-99 -268.5q-43 -83 -97.5 -150t-127 -122t-167 -85t-202.5 -30q-196 0 -361 106l68 105q138 -89 295 -89q266 0 430 256q112 175 139 394q-69 -106 -195 -175t-262 -69q-172 0 -277.5 110.5t-105.5 282.5q0 105 42 204t115.5 175t181.5 122
t231 46q95 0 170 -28.5t122.5 -76.5t79 -116t44 -141t12.5 -158zM610 635q90 0 170 35t134.5 91.5t86 129.5t31.5 149q0 122 -77.5 206.5t-219.5 84.5q-118 0 -212 -61.5t-143.5 -156.5t-49.5 -202q0 -125 72 -200.5t208 -75.5z" />
    <glyph glyph-name="colon" unicode=":" horiz-adv-x="499" 
d="M225 793l51 211h177l-54 -211h-174zM27 0l51 211h176l-53 -211h-174z" />
    <glyph glyph-name="semicolon" unicode=";" horiz-adv-x="657" 
d="M326 793l51 211h176l-53 -211h-174zM70 -289l-29 74q71 52 106 100t54 115h-74l53 209h174l-35 -139q-33 -133 -83.5 -207t-165.5 -152z" />
    <glyph glyph-name="less" unicode="&#x3c;" horiz-adv-x="1271" 
d="M979 143l-782 449l30 125l1006 450l-37 -145l-844 -373l662 -366z" />
    <glyph glyph-name="equal" unicode="=" horiz-adv-x="1277" 
d="M276 791l31 124h883l-31 -124h-883zM174 379l31 125h882l-30 -125h-883z" />
    <glyph glyph-name="greater" unicode="&#x3e;" horiz-adv-x="1269" 
d="M119 143l37 150l843 366l-661 373l35 135l782 -450l-33 -125z" />
    <glyph glyph-name="question" unicode="?" horiz-adv-x="1099" 
d="M354 375q16 61 32 101t42 71t46 48t65 50q44 35 156.5 104.5t158.5 108.5q125 108 125 246q0 108 -79 177t-220 69q-197 0 -399 -150l-68 96q228 183 489 183q52 0 105 -10.5t110 -37t101 -66t72 -104t28 -145.5q0 -82 -27 -151.5t-81 -126.5t-112.5 -100.5t-143.5 -92.5
q-47 -27 -63 -36.5t-47.5 -29.5t-41.5 -30.5t-28.5 -30t-27 -38.5t-19 -45t-19.5 -60h-154zM305 195h168l-49 -195h-168z" />
    <glyph glyph-name="at" unicode="@" horiz-adv-x="2039" 
d="M1354 580q-78 -200 -78 -252q0 -54 33.5 -84.5t87.5 -30.5q114 0 216 84.5t160 211.5t58 255q0 115 -43.5 218t-125 183t-210.5 127t-289 47q-195 0 -367 -71t-293 -192.5t-191 -290t-70 -357.5q0 -200 93 -354t260 -238t382 -84q365 0 696 219l43 -73
q-366 -246 -760 -246q-136 0 -261 33.5t-229.5 99t-181.5 157.5t-120 216t-43 266q0 144 36.5 278.5t103 247t162.5 206t211.5 158.5t253.5 100.5t286 35.5q185 0 335 -55t244.5 -148.5t144.5 -211.5t50 -249q0 -126 -45.5 -247t-121.5 -212.5t-182.5 -147.5t-220.5 -56
q-97 0 -148.5 51t-53.5 127q-71 -81 -163 -129.5t-184 -48.5q-127 0 -197.5 79t-70.5 206q0 104 42 211.5t112 194t170 141.5t207 55q89 0 158 -45.5t96 -118.5l55 131l104 -4zM1300 727q-22 80 -79.5 133t-139.5 53q-106 0 -201.5 -80.5t-148.5 -192.5t-53 -214
q0 -96 45.5 -149.5t130.5 -53.5q66 0 130.5 34.5t117.5 90.5q47 50 86 118t59 118t53 143z" />
    <glyph glyph-name="A" unicode="A" horiz-adv-x="1488" 
d="M1194 0l-78 446h-735l-307 -446h-172l1018 1446h149l279 -1446h-154zM475 584h619l-125 716z" />
    <glyph glyph-name="B" unicode="B" horiz-adv-x="1554" 
d="M1241 741q93 -39 151 -119t58 -188q0 -61 -16.5 -118.5t-59 -116t-107 -102t-168.5 -70.5t-235 -27h-780l360 1446h709q189 0 288 -90t99 -236q0 -135 -75.5 -238t-223.5 -141zM555 1309l-121 -484h623q155 2 248.5 75t93.5 200q0 99 -71 154t-202 55h-571zM858 137
q97 0 173.5 17.5t126 46.5t82 69.5t46.5 85t14 95.5q0 115 -78.5 176t-201.5 61h-621l-137 -551h596z" />
    <glyph glyph-name="C" unicode="C" horiz-adv-x="1548" 
d="M1444 199q-130 -110 -303 -171t-344 -61q-297 0 -475.5 173.5t-178.5 471.5q0 177 64 336t177 276t276 186t352 69q105 0 198 -22.5t163 -62.5t119.5 -81t90.5 -90l-94 -95q-196 213 -473 213q-157 0 -293 -58.5t-229 -157t-146 -229.5t-53 -275q0 -236 140 -376.5
t378 -140.5q146 0 295 53t256 140z" />
    <glyph glyph-name="D" unicode="D" horiz-adv-x="1658" 
d="M946 1446q331 0 500.5 -155t169.5 -421q0 -191 -64.5 -352.5t-182 -275.5t-289.5 -178t-380 -64h-616l360 1446h502zM705 131q170 0 312 54t240 150.5t152.5 231.5t54.5 293q0 216 -138 335.5t-380 119.5h-389l-295 -1184h443z" />
    <glyph glyph-name="E" unicode="E" horiz-adv-x="1466" 
d="M1536 1309h-981l-123 -492h889l-33 -135h-889l-135 -545h981l-35 -137h-1126l360 1446h1127z" />
    <glyph glyph-name="F" unicode="F" horiz-adv-x="1388" 
d="M1497 1309h-942l-125 -502h858l-33 -137h-858l-168 -670h-145l360 1446h1088z" />
    <glyph glyph-name="G" unicode="G" horiz-adv-x="1669" 
d="M1522 1186l94 98q-105 96 -248 145.5t-301 49.5q-170 0 -319 -49t-258 -133.5t-187.5 -196.5t-118 -240t-39.5 -262q0 -132 44 -246.5t126 -200t208.5 -135t281.5 -49.5q163 0 328 51.5t292 151.5l160 602h-641l-31 -127h500l-100 -385q-93 -76 -229 -117t-271 -41
q-122 0 -221 40.5t-163 111t-98 162.5t-34 196q0 144 58.5 277.5t159 233.5t245 160t307.5 60q128 0 246 -40t209 -117z" />
    <glyph glyph-name="H" unicode="H" horiz-adv-x="1751" 
d="M1614 1446h145l-360 -1446h-146l170 680h-1024l-170 -680h-145l360 1446h146l-158 -629h1024z" />
    <glyph glyph-name="I" unicode="I" horiz-adv-x="579" 
d="M84 0l360 1446h146l-361 -1446h-145z" />
    <glyph glyph-name="J" unicode="J" horiz-adv-x="1087" 
d="M1116 1446l-254 -1022q-57 -229 -173.5 -343t-328.5 -114q-196 0 -380 152l75 100q150 -119 307 -119q80 0 140 22.5t101.5 70t68.5 107t51 146.5l248 1000h145z" />
    <glyph glyph-name="K" unicode="K" horiz-adv-x="1435" 
d="M1567 1446l-727 -600l448 -846h-166l-387 760l-397 -328l-109 -432h-145l360 1446h146l-203 -813l995 813h185z" />
    <glyph glyph-name="L" unicode="L" horiz-adv-x="1366" 
d="M264 137h922l-35 -137h-1067l360 1446h146z" />
    <glyph glyph-name="M" unicode="M" horiz-adv-x="2160" 
d="M2005 1446h168l-361 -1446h-145l299 1194l-944 -1194h-150l-344 1194l-299 -1194h-145l360 1446h152l383 -1299z" />
    <glyph glyph-name="N" unicode="N" horiz-adv-x="1755" 
d="M1620 1446h145l-360 -1446h-137l-727 1243l-312 -1243h-145l360 1446h140l727 -1239z" />
    <glyph glyph-name="O" unicode="O" horiz-adv-x="1712" 
d="M795 -33q-191 0 -337 72.5t-228.5 213t-82.5 331.5q0 142 40 275.5t117 245t182 196t242.5 131.5t291.5 47q297 0 472 -168t175 -449q0 -180 -63 -343t-174.5 -285t-276.5 -194.5t-358 -72.5zM801 104q164 0 301.5 62t228 167.5t140 242t49.5 286.5q0 226 -136.5 353.5
t-365.5 127.5q-157 0 -292.5 -61t-229 -164t-146.5 -242.5t-53 -293.5q0 -225 137 -351.5t367 -126.5z" />
    <glyph glyph-name="P" unicode="P" horiz-adv-x="1552" 
d="M1104 1446q219 0 332.5 -98t113.5 -265q0 -248 -161 -388t-443 -140h-577l-140 -555h-145l360 1446h660zM952 692q210 0 328.5 101.5t118.5 291.5q0 116 -83 170t-245 54h-516l-154 -617h551z" />
    <glyph glyph-name="Q" unicode="Q" horiz-adv-x="1716" 
d="M1022 1479q295 0 471 -168.5t176 -446.5q0 -170 -52.5 -316.5t-145 -252.5t-215.5 -177.5t-267 -101.5q156 -36 369 -147l-92 -113q-195 95 -369 146q-17 5 -145 38.5t-189 55.5q-204 73 -310 223.5t-106 362.5q0 178 63.5 341t175.5 286.5t277.5 196.5t358.5 73z
M1520 864q0 222 -137 350.5t-365 128.5q-209 0 -374.5 -103t-255 -275.5t-89.5 -380.5q0 -229 138.5 -354.5t361.5 -125.5q149 0 282.5 58t229.5 158t152.5 241.5t56.5 302.5z" />
    <glyph glyph-name="R" unicode="R" horiz-adv-x="1597" 
d="M1575 1087q0 -210 -118.5 -338t-332.5 -161l209 -588h-170l-200 578h-590l-144 -578h-145l360 1446h668q223 0 343 -95t120 -264zM971 715q218 0 334 91.5t116 270.5q0 232 -325 232h-541l-147 -594h563z" />
    <glyph glyph-name="S" unicode="S" horiz-adv-x="1425" 
d="M1358 1219q-220 124 -484 124q-133 0 -234 -29.5t-162.5 -93t-63.5 -153.5q-1 -45 20.5 -82t54 -64t93 -54t116 -46t144.5 -45q58 -16 101 -30.5t92.5 -34.5t85 -40.5t70 -49t55 -60t33 -72.5t11.5 -88q-1 -129 -82.5 -228t-223.5 -152.5t-320 -53.5q-173 0 -329.5 53
t-266.5 150l77 104q240 -170 525 -170q198 0 330 75t133 198q1 40 -16.5 73t-45 57t-79.5 48t-101 41t-129 41q-66 20 -113.5 35.5t-103.5 38.5t-94 45.5t-76.5 54t-61 66.5t-35.5 80.5t-12 97.5q5 138 93.5 235.5t228 143t313.5 45.5q287 0 518 -150z" />
    <glyph glyph-name="T" unicode="T" horiz-adv-x="1353" 
d="M1530 1446l-33 -137h-563l-328 -1309h-145l327 1309h-563l35 137h1270z" />
    <glyph glyph-name="U" unicode="U" horiz-adv-x="1697" 
d="M414 1446h147l-209 -838q-22 -83 -22 -153q0 -170 115.5 -260.5t320.5 -90.5q241 0 397 120.5t209 336.5l217 885h148l-226 -907q-65 -269 -260.5 -420.5t-492.5 -151.5q-170 0 -297.5 53.5t-201 162.5t-73.5 261q0 87 27 189z" />
    <glyph glyph-name="V" unicode="V" horiz-adv-x="1527" 
d="M1518 1446h168l-979 -1446h-158l-266 1446h153l228 -1274z" />
    <glyph glyph-name="W" unicode="W" horiz-adv-x="2101" 
d="M2101 1446h158l-805 -1446h-143l-107 1149l-680 -1149h-153l-88 1446h151l66 -1237l676 1126h139l106 -1132z" />
    <glyph glyph-name="X" unicode="X" horiz-adv-x="1439" 
d="M1546 1446l-700 -701l375 -745h-172l-312 629l-628 -629h-193l748 748l-340 698h174l278 -586l588 586h182z" />
    <glyph glyph-name="Y" unicode="Y" horiz-adv-x="1286" 
d="M1317 1446h172l-770 -893l-141 -553h-146l143 571l-329 875h162l268 -748z" />
    <glyph glyph-name="Z" unicode="Z" horiz-adv-x="1460" 
d="M1552 1446l-28 -125l-1262 -1188h998l-35 -133h-1186l29 117l1267 1198h-956l33 131h1140z" />
    <glyph glyph-name="bracketleft" unicode="[" horiz-adv-x="761" 
d="M-98 -489l510 2043h477l-31 -122h-338l-448 -1799h336l-29 -122h-477z" />
    <glyph glyph-name="backslash" unicode="\" horiz-adv-x="1036" 
d="M625 -106l-340 1642h137l340 -1642h-137z" />
    <glyph glyph-name="bracketright" unicode="]" horiz-adv-x="688" 
d="M-209 -489l29 122h338l448 1799h-338l31 122h477l-508 -2043h-477z" />
    <glyph glyph-name="asciicircum" unicode="^" horiz-adv-x="1046" 
d="M111 756l569 690h119l219 -690h-135l-168 557l-461 -557h-143z" />
    <glyph glyph-name="underscore" unicode="_" horiz-adv-x="1050" 
d="M-158 -287l29 119h1024l-29 -119h-1024z" />
    <glyph glyph-name="grave" unicode="`" horiz-adv-x="817" 
d="M389 1233l-166 303h174l103 -303h-111z" />
    <glyph glyph-name="a" unicode="a" horiz-adv-x="1298" 
d="M1153 1063h131l-264 -1063h-123l35 150q-163 -181 -422 -181q-217 0 -336 144t-92 385q28 271 197.5 438.5t422.5 167.5q154 0 255.5 -69.5t140.5 -194.5zM541 98q193 0 323 126.5t156 346.5q25 193 -64.5 298.5t-255.5 105.5q-192 0 -321.5 -129t-155.5 -344
q-27 -196 62 -300t256 -104z" />
    <glyph glyph-name="b" unicode="b" horiz-adv-x="1304" 
d="M799 1102q194 0 313 -116.5t119 -326.5q0 -142 -45.5 -268t-126 -220t-199 -149t-258.5 -55q-147 0 -250 67t-143 191l-55 -225h-138l361 1446h135l-131 -528q80 87 187 135.5t231 48.5zM598 96q149 0 263.5 78t172.5 203t58 272q0 156 -89.5 240t-240.5 84
q-145 0 -257.5 -78t-170.5 -204.5t-58 -278.5q0 -156 86 -236t236 -80z" />
    <glyph glyph-name="c" unicode="c" horiz-adv-x="1136" 
d="M1065 856q-59 56 -146.5 87.5t-185.5 31.5q-203 0 -348 -129q-89 -80 -128.5 -187t-39.5 -206q0 -160 102 -259.5t281 -99.5q198 0 367 127l71 -94q-102 -79 -225 -119.5t-240 -40.5q-224 0 -361.5 131t-137.5 344q0 128 53 258t166 232q186 170 450 170q125 0 233.5 -41
t182.5 -119z" />
    <glyph glyph-name="d" unicode="d" horiz-adv-x="1314" 
d="M1260 1448h135l-361 -1446h-137l35 143q-166 -176 -406 -176q-126 0 -224 49.5t-157 152.5t-59 245t44.5 267.5t124.5 218.5t199 147.5t259 54.5q151 0 253 -68t144 -190zM549 98q112 0 205.5 45.5t154.5 122t94 174.5t33 205q0 158 -89.5 244t-237.5 86q-113 0 -206 -45
t-153.5 -121.5t-93.5 -176t-33 -210.5q0 -157 88 -240.5t238 -83.5z" />
    <glyph glyph-name="e" unicode="e" horiz-adv-x="1239" 
d="M1128 467h-909q0 -185 98 -281t283 -96q214 0 406 143l59 -92q-108 -84 -235 -129t-255 -45q-120 0 -216 37.5t-156 103t-91.5 149.5t-31.5 181q0 100 29 197t85.5 181t134 148t182 101t222.5 37q206 0 329.5 -107.5t123.5 -296.5q0 -50 -16.5 -118t-41.5 -113zM731 983
q-181 0 -314.5 -114t-178.5 -285h802q17 60 17 114q0 130 -85.5 207.5t-240.5 77.5z" />
    <glyph glyph-name="f" unicode="f" horiz-adv-x="765" 
d="M598 1300q-36 -28 -62 -73t-35.5 -76.5t-23.5 -87.5h371l-29 -119h-373l-235 -944h-135l235 944h-174l29 119h176q14 55 20.5 77.5t23 68t38.5 80t53 65.5q120 125 330 125q111 0 194 -27l-36 -111q-82 21 -164 21q-128 0 -203 -62z" />
    <glyph glyph-name="g" unicode="g" 
d="M1159 1063h131l-252 -1016q-33 -130 -78.5 -224t-121.5 -161q-83 -75 -200 -114.5t-251 -39.5q-209 0 -383 91l62 116q147 -82 340 -82q221 0 350 123q103 100 151 299l29 113q-81 -94 -189 -147.5t-233 -53.5q-201 0 -319.5 114t-118.5 320q0 138 46 265.5t126.5 224
t198 154t253.5 57.5q151 0 257 -65.5t149 -186.5zM543 96q109 0 202.5 47t155.5 124t97 175t36 201q0 151 -84.5 240.5t-247.5 89.5q-112 0 -205 -46.5t-154 -124.5t-94.5 -178.5t-33.5 -209.5q0 -155 88.5 -236.5t239.5 -81.5z" />
    <glyph glyph-name="h" unicode="h" horiz-adv-x="1304" 
d="M858 1102q161 0 256.5 -86t95.5 -221q0 -64 -26 -166l-158 -629h-139l162 639q20 90 20 129t-12 73t-39 65t-79 49t-124 18q-125 0 -243.5 -59t-215.5 -160l-190 -754h-139l360 1446h133l-133 -543q233 199 471 199z" />
    <glyph glyph-name="i" unicode="i" horiz-adv-x="450" 
d="M336 1251l49 195h147l-49 -195h-147zM27 0l266 1063h139l-266 -1063h-139z" />
    <glyph glyph-name="j" unicode="j" horiz-adv-x="487" 
d="M354 1251l49 195h146l-47 -195h-148zM311 1063h140l-252 -1006q-49 -191 -107 -286q-134 -215 -395 -283l-31 115q112 35 178 81.5t119 118.5q51 68 96 246z" />
    <glyph glyph-name="k" unicode="k" horiz-adv-x="1087" 
d="M1169 1063l-585 -461l368 -602h-159l-318 526l-225 -172l-88 -354h-133l360 1446h133l-227 -914l698 531h176z" />
    <glyph glyph-name="l" unicode="l" horiz-adv-x="444" 
d="M29 0l360 1446h137l-360 -1446h-137z" />
    <glyph glyph-name="m" unicode="m" horiz-adv-x="2011" 
d="M1569 1102q163 0 253.5 -84.5t90.5 -229.5q0 -57 -19 -135l-159 -653l-140 2l158 639q16 66 16 113q0 104 -61 162.5t-178 58.5q-104 0 -206 -55t-191 -160q-2 -36 -17 -105l-162 -655l-139 2l158 635q16 63 16 127q0 211 -229 211q-101 0 -211.5 -59.5t-196.5 -170.5
l-186 -745h-139l266 1063h125l-31 -164q192 203 418 203q116 0 198 -56t113 -155q227 211 453 211z" />
    <glyph glyph-name="n" unicode="n" horiz-adv-x="1304" 
d="M858 1102q161 0 256.5 -86t95.5 -221q0 -64 -26 -166l-158 -629l-139 2l162 637q20 90 20 129t-12.5 73t-39.5 65t-79 49t-123 18q-126 0 -244 -59.5t-217 -161.5l-188 -752h-139l266 1063h125l-33 -160q233 199 473 199z" />
    <glyph glyph-name="o" unicode="o" horiz-adv-x="1288" 
d="M563 -33q-233 0 -362 125.5t-129 331.5q0 139 49 263t135.5 216t212.5 145.5t272 53.5q233 0 363.5 -125t130.5 -332q0 -138 -49 -261.5t-135.5 -216t-213 -146.5t-274.5 -54zM569 92q162 0 283.5 78t182.5 203.5t61 277.5q0 160 -96 243t-269 83q-121 0 -221 -43.5
t-165 -118.5t-100.5 -175t-35.5 -214q0 -162 95 -248t265 -86z" />
    <glyph glyph-name="p" unicode="p" horiz-adv-x="1298" 
d="M799 1102q194 0 313 -116.5t119 -326.5q0 -140 -45.5 -266t-126 -220.5t-199.5 -150t-258 -55.5q-146 0 -249 66.5t-144 189.5l-143 -579h-136l355 1419h133l-35 -143q171 182 416 182zM598 96q149 0 263.5 78t172.5 203t58 272q0 156 -88.5 240t-239.5 84
q-110 0 -203.5 -46.5t-155 -124.5t-95.5 -179t-34 -211q0 -156 86 -236t236 -80z" />
    <glyph glyph-name="q" unicode="q" horiz-adv-x="1304" 
d="M1165 1063h131l-354 -1419h-135l123 495q-167 -170 -414 -170q-186 0 -307 117.5t-121 329.5q0 138 43.5 262.5t122.5 219t198.5 150.5t262.5 56q152 0 254.5 -68t142.5 -190zM549 98q114 0 208.5 45.5t155 121.5t94 175t33.5 207q0 158 -88.5 243t-238.5 85
q-114 0 -207.5 -46t-153.5 -123.5t-92.5 -176.5t-32.5 -207q0 -157 86.5 -240.5t235.5 -83.5z" />
    <glyph glyph-name="r" unicode="r" horiz-adv-x="882" 
d="M793 1085q72 0 137 -26l-43 -137q-78 30 -158 30q-107 0 -205.5 -52.5t-169.5 -145.5l-188 -754h-139l266 1063h129l-41 -164q85 85 190.5 135.5t221.5 50.5z" />
    <glyph glyph-name="s" unicode="s" horiz-adv-x="1103" 
d="M27 133l77 94q80 -63 186.5 -99t215.5 -36q133 0 227 54t94 149q0 26 -9.5 47.5t-31 39t-42.5 30.5t-58.5 26.5t-64 21.5t-74 22t-74.5 22q-68 21 -118.5 44.5t-94.5 56.5t-67 78t-23 101q0 138 121 228t346 90q238 0 416 -127l-74 -98q-167 104 -356 104
q-147 0 -230.5 -49.5t-83.5 -130.5q0 -37 18.5 -66t56.5 -50.5t73 -34.5t90 -29q20 -6 58.5 -16.5t60.5 -17t57.5 -18t57.5 -21t51 -24.5t47 -29.5t38 -34.5t31 -42.5t18 -50.5t7 -60q0 -107 -67.5 -186t-173 -116.5t-232.5 -37.5q-134 0 -259.5 44t-213.5 122z" />
    <glyph glyph-name="t" unicode="t" horiz-adv-x="868" 
d="M449 944l-142 -569q-26 -98 -26 -156q0 -127 153 -127q112 0 232 49l-21 -116q-123 -58 -231 -58q-134 0 -203.5 60.5t-69.5 165.5q0 16 1.5 34t3.5 32t7 36.5t7.5 33t9 38t8.5 36.5l135 541h-170l31 119h174l86 307h121l-76 -307h373l-37 -119h-366z" />
    <glyph glyph-name="u" unicode="u" 
d="M1135 1063h139l-266 -1063h-125l37 176q-212 -209 -467 -209q-174 0 -264.5 89.5t-90.5 224.5q0 76 39 233l137 549l142 -2l-148 -592q-24 -105 -24 -156q0 -105 71 -161t185 -56q107 0 226.5 55.5t223.5 178.5z" />
    <glyph glyph-name="v" unicode="v" horiz-adv-x="1085" 
d="M1022 1063h162l-733 -1063h-148l-199 1063h146l158 -913z" />
    <glyph glyph-name="w" unicode="w" horiz-adv-x="1753" 
d="M1683 1063h158l-659 -1063h-150l-92 881l-532 -881h-152l-123 1063h143l93 -901l546 901h129l101 -901z" />
    <glyph glyph-name="x" unicode="x" horiz-adv-x="1136" 
d="M1196 1063l-541 -526l301 -537h-159l-250 446l-461 -446h-172l565 551l-291 512h162l238 -424l436 424h172z" />
    <glyph glyph-name="y" unicode="y" horiz-adv-x="1277" 
d="M1122 1063h138l-252 -1016q-68 -262 -189 -383q-80 -76 -198.5 -116t-251.5 -40q-106 0 -211 25t-183 70l52 110q150 -80 348 -80q137 0 248 52t172 163q77 137 112 322q-209 -203 -458 -203q-173 0 -265 90t-92 222q0 77 45 253l133 531h140l-144 -578
q-30 -131 -30 -174q0 -102 71 -158.5t187 -56.5q105 0 222.5 52.5t221.5 170.5z" />
    <glyph glyph-name="z" unicode="z" horiz-adv-x="1159" 
d="M1165 1063l-24 -94l-944 -846h761l-32 -123h-946l26 102l936 842h-704l30 119h897z" />
    <glyph glyph-name="braceleft" unicode="{" horiz-adv-x="854" 
d="M389 -496q-134 0 -197 73t-63 196q0 86 49 278q51 185 51 264q0 82 -37 118t-110 44l27 113q58 9 96 24.5t74 48t62 89.5t48 145l62 246q105 420 475 420h69l-26 -119h-62q-139 0 -212 -79t-124 -282l-55 -221q-70 -279 -272 -330l-2 -8q123 -42 123 -196q0 -95 -54 -285
q-49 -196 -49 -276q0 -81 40 -112.5t132 -31.5h76l-29 -119h-92z" />
    <glyph glyph-name="bar" unicode="|" horiz-adv-x="602" 
d="M14 -344l529 2124h123l-529 -2124h-123z" />
    <glyph glyph-name="braceright" unicode="}" horiz-adv-x="833" 
d="M-156 -496l29 119h61q73 0 128.5 26t94.5 76.5t65 112.5t46 146l62 245q34 139 95.5 210t168.5 91l2 9q-123 55 -123 198q0 24 3 50t10.5 62t12.5 57t17 69t16 63q39 139 39 228t-42 133.5t-138 44.5h-59l26 119h70q145 0 213 -73t68 -200q0 -93 -43 -250
q-2 -8 -11.5 -43t-12 -46t-9.5 -40.5t-9.5 -44.5t-6.5 -38t-5.5 -41.5t-1.5 -36.5q0 -70 36 -107.5t114 -52.5l-29 -113q-57 -9 -95 -24.5t-74 -48t-62.5 -89.5t-48.5 -145l-52 -203q-27 -109 -65.5 -191t-96 -144.5t-138.5 -95t-185 -32.5h-70z" />
    <glyph glyph-name="asciitilde" unicode="~" horiz-adv-x="1249" 
d="M825 551q-47 0 -90 16.5t-75.5 39.5t-63 46t-66 39.5t-71.5 16.5q-115 0 -248 -140l-64 58q162 198 338 198q49 0 92.5 -16t76.5 -39.5t64 -46.5t66.5 -39t71.5 -16q64 0 123.5 35t126.5 108l63 -59q-169 -201 -344 -201z" />
    <glyph glyph-name="exclamdown" unicode="&#xa1;" horiz-adv-x="561" 
d="M485 1073l-51 -201h-174l51 201h174zM350 657l-168 -788l-59 -242h-172l59 242l228 788h112z" />
    <glyph glyph-name="cent" unicode="&#xa2;" horiz-adv-x="1136" 
d="M1065 856q-106 99 -277 117l-219 -879h31q198 0 367 127l71 -94q-102 -79 -225 -119.5t-240 -40.5h-34l-45 -178h-101l47 193q-168 37 -266 159.5t-98 300.5q0 138 58.5 273t180.5 235q169 143 406 152l45 180h100l-45 -184q213 -22 338 -156zM217 451q0 -128 67.5 -218
t188.5 -122l215 862q-159 -12 -282 -111q-98 -78 -143.5 -191t-45.5 -220z" />
    <glyph glyph-name="sterling" unicode="&#xa3;" horiz-adv-x="1259" 
d="M971 1446q196 3 303 -150l-86 -82q-91 117 -230 117q-120 0 -201 -76t-110 -202l-53 -228h407l-28 -114h-406l-53 -226q-29 -143 -82 -228.5t-129 -137.5h754l-29 -119h-956l30 125q111 25 178 119t105 284l43 183h-154l29 114h152l51 213q45 192 164 299.5t301 108.5z
" />
    <glyph glyph-name="currency" unicode="&#xa4;" horiz-adv-x="1247" 
d="M1061 774q0 -135 -80 -242l109 -102l-74 -74l-103 107q-108 -84 -245 -84t-242 84l-102 -107l-74 74l106 102q-77 107 -77 242q0 139 79 244l-108 102l74 74l102 -107q105 84 242 84q138 0 243 -84l105 107l74 -74l-109 -102q80 -111 80 -244zM668 483q119 0 200.5 82.5
t81.5 210.5t-81.5 209.5t-200.5 81.5q-117 0 -198 -81.5t-81 -209.5t80.5 -210.5t198.5 -82.5z" />
    <glyph glyph-name="yen" unicode="&#xa5;" horiz-adv-x="1218" 
d="M1366 1401l-586 -692h303l-26 -115h-371l-43 -176h371l-29 -115h-371l-75 -303h-146l76 303h-369l29 115h369l43 176h-369l29 115h305l-242 692h156l225 -666l557 666h164z" />
    <glyph glyph-name="brokenbar" unicode="&#xa6;" horiz-adv-x="602" 
d="M346 987l197 791h123l-197 -791h-123zM14 -346l197 790h123l-197 -790h-123z" />
    <glyph glyph-name="section" unicode="&#xa7;" horiz-adv-x="1159" 
d="M788 1251q-137 0 -228 -58t-91 -151q0 -48 35 -88.5t66.5 -58t112.5 -55.5l22 -11q72 -33 109.5 -52.5t89 -52t77 -60.5t44.5 -68.5t19 -87.5q0 -92 -60 -164.5t-167 -105.5q45 -61 45 -142q0 -71 -31 -134t-89.5 -112.5t-151.5 -78.5t-207 -29q-214 0 -389 121l72 96
q149 -96 325 -96q161 0 248.5 61.5t87.5 149.5q0 30 -14.5 57t-33 46.5t-55.5 42.5t-62 35.5t-73 36t-71 34.5q-58 29 -99.5 55.5t-80.5 62t-59.5 79.5t-20.5 95q0 89 59.5 158t159.5 103q-47 66 -47 145q0 67 30 128t86.5 111t147.5 79.5t203 29.5q219 0 364 -110l-65 -97
q-150 86 -308 86zM911 475q0 36 -17 65.5t-54.5 55.5t-73.5 45.5t-99 48.5q-5 2 -8.5 3.5t-8.5 4l-9 4.5q-147 68 -211 121q-141 -54 -141 -170q0 -38 17.5 -69.5t57 -60t74.5 -47.5t98 -50q8 -4 13.5 -6.5t11.5 -5.5q143 -68 205 -121q75 31 110 81t35 101z" />
    <glyph glyph-name="dieresis" unicode="&#xa8;" horiz-adv-x="858" 
d="M168 1288l41 162h168l-41 -162h-168zM561 1288l41 162h168l-43 -162h-166z" />
    <glyph glyph-name="copyright" unicode="&#xa9;" horiz-adv-x="1714" 
d="M887 -33q-159 0 -299.5 58.5t-241 159t-159 241t-58.5 299.5t58.5 299.5t159 240.5t241 158t299.5 58t299 -58t240 -158.5t158 -240.5t58 -299t-58 -299.5t-158.5 -241t-240.5 -159t-298 -58.5zM885 59q141 0 264.5 51t211.5 139t138.5 211.5t50.5 264.5t-51 264.5
t-139 211.5t-211.5 139t-263.5 51q-187 0 -339.5 -86.5t-239.5 -239t-87 -340.5t87 -340.5t239.5 -239t339.5 -86.5zM893 315q-113 0 -207.5 48.5t-152.5 143.5t-58 218t58 218t152.5 143.5t207.5 48.5q90 0 176.5 -37.5t144.5 -98.5l-69 -67q-50 50 -117 77t-137 27
q-133 0 -221 -84.5t-88 -226.5t88 -225.5t221 -83.5q70 0 137 26.5t117 75.5l69 -67q-58 -61 -144.5 -98.5t-176.5 -37.5z" />
    <glyph glyph-name="ordfeminine" unicode="&#xaa;" horiz-adv-x="780" 
d="M795 1262q0 -46 -15 -109l-96 -387h-94l10 63q-115 -88 -246 -88q-103 0 -164 55t-61 134q0 121 99.5 184.5t269.5 63.5q63 0 180 -17q12 49 12 78q0 64 -47 90.5t-135 26.5q-125 0 -236 -53l-20 81q67 30 147.5 48t147.5 18q121 0 184.5 -50.5t63.5 -137.5zM236 946
q0 -52 39 -80t104 -28q121 0 242 96l34 143q-97 19 -161 19q-66 0 -121.5 -13.5t-96 -49t-40.5 -87.5z" />
    <glyph glyph-name="guillemotleft" unicode="&#xab;" horiz-adv-x="997" 
d="M276 158l-141 377l324 378h104l-299 -378l119 -377h-107zM629 158l-142 377l324 378h104l-299 -378l119 -377h-106z" />
    <glyph glyph-name="logicalnot" unicode="&#xac;" horiz-adv-x="1247" 
d="M1118 727l-98 -399h-125l70 276h-729l30 123h852z" />
    <glyph glyph-name="uni00AD" unicode="&#xad;" horiz-adv-x="1099" 
d="M188 586l31 123h752l-31 -123h-752z" />
    <glyph glyph-name="registered" unicode="&#xae;" horiz-adv-x="976" 
d="M557 1499q200 0 334.5 -134t134.5 -335q0 -200 -135 -334.5t-334 -134.5t-334 134.5t-135 334.5q0 201 134.5 335t334.5 134zM557 629q170 0 284.5 115.5t114.5 285.5q0 172 -114.5 287t-284.5 115q-172 0 -286.5 -115t-114.5 -287q0 -171 115 -286t286 -115zM635 987
l139 -192h-74l-135 188h-121v-188h-63v475h199q84 0 131 -40t47 -106q0 -122 -123 -137zM444 1208v-166h129q62 0 91.5 19t29.5 63q0 84 -119 84h-131z" />
    <glyph glyph-name="macron" unicode="&#xaf;" horiz-adv-x="858" 
d="M100 1305l29 116h631l-29 -116h-631z" />
    <glyph glyph-name="degree" unicode="&#xb0;" horiz-adv-x="626" 
d="M109 1133q0 137 102.5 233t241.5 96q111 0 180 -65.5t69 -167.5q0 -133 -101.5 -231.5t-242.5 -98.5q-111 0 -180 66t-69 168zM209 1143q0 -68 44 -110t114 -42q94 0 165.5 67t71.5 163q0 68 -44.5 109.5t-115.5 41.5q-94 0 -164.5 -68t-70.5 -161z" />
    <glyph glyph-name="plusminus" unicode="&#xb1;" horiz-adv-x="1277" 
d="M774 778h381l-31 -125h-383l-94 -379h-123l94 379h-376l30 125h379l94 379h123zM96 33l31 125h883l-31 -125h-883z" />
    <glyph glyph-name="uni00B2" unicode="&#xb2;" horiz-adv-x="686" 
d="M336 1198q-46 -41 -64 -88h394l-25 -100h-510q22 103 50 150.5t93 105.5q37 32 77 57.5t102 60t86 48.5q133 76 133 161q0 43 -36.5 72t-103.5 29q-96 0 -219 -68l-30 80q137 84 262 84q104 0 165.5 -53t61.5 -131q0 -114 -127 -209q-40 -29 -149 -92.5t-160 -106.5z" />
    <glyph glyph-name="uni00B3" unicode="&#xb3;" horiz-adv-x="614" 
d="M692 1610q0 -72 -52.5 -127.5t-133.5 -81.5q54 -19 87.5 -62t33.5 -100q0 -106 -82 -174t-211 -68q-136 0 -236 80l54 74q80 -59 178 -59q87 0 137.5 41.5t50.5 103.5q0 50 -39.5 80.5t-103.5 30.5h-68l25 98h67q74 0 131 38.5t58 100.5q0 49 -35.5 81t-97.5 32
q-87 0 -181 -62l-43 60q113 94 248 94q102 0 157.5 -53t55.5 -127z" />
    <glyph glyph-name="acute" unicode="&#xb4;" horiz-adv-x="903" 
d="M279 1237l188 303h172l-250 -303h-110z" />
    <glyph glyph-name="paragraph" unicode="&#xb6;" horiz-adv-x="1099" 
d="M1217 1446l-27 -100h-127l-373 -1498h-108l372 1498h-209l-372 -1498h-109l219 883h-24q-145 0 -221 86.5t-76 214.5q0 59 18.5 117t58 112t94.5 95t134.5 65.5t171.5 24.5h578z" />
    <glyph glyph-name="periodcentered" unicode="&#xb7;" horiz-adv-x="587" 
d="M178 440l49 201h176l-49 -201h-176z" />
    <glyph glyph-name="cedilla" unicode="&#xb8;" horiz-adv-x="606" 
d="M205 -485q-121 0 -197 63l47 60q61 -35 133 -35q79 0 120.5 32t41.5 74q0 41 -37 68.5t-104 27.5h-39l-4 29l115 168l96 -4l-86 -129h16q78 -3 121 -48t43 -108q0 -76 -71.5 -137t-194.5 -61z" />
    <glyph glyph-name="uni00B9" unicode="&#xb9;" horiz-adv-x="487" 
d="M446 1776h89l-191 -766h-102l159 647l-192 -94l-29 77z" />
    <glyph glyph-name="ordmasculine" unicode="&#xba;" horiz-adv-x="825" 
d="M412 743q-133 0 -208 77t-75 202q0 78 27.5 152.5t78 136t131 99.5t177.5 38q134 0 209 -76.5t75 -200.5q0 -79 -27.5 -154.5t-78 -137t-131.5 -99t-178 -37.5zM424 838q129 0 211 98.5t82 228.5q0 90 -51 139.5t-138 49.5q-89 0 -157 -48.5t-101.5 -122t-33.5 -157.5
q0 -90 50.5 -139t137.5 -49z" />
    <glyph glyph-name="guillemotright" unicode="&#xbb;" horiz-adv-x="997" 
d="M362 913l142 -376l-324 -379h-104l299 379l-119 376h106zM715 913l141 -376l-324 -379h-104l299 379l-119 376h107z" />
    <glyph glyph-name="onequarter" unicode="&#xbc;" horiz-adv-x="1589" 
d="M158 682l22 94h178l138 553l-193 -94l-29 78l267 135h88l-168 -672h205l-23 -94h-485zM1645 1446h122l-1429 -1464h-121zM1556 745h97l-121 -489h84l-21 -84h-84l-47 -188h-102l47 188h-375l-8 68zM1165 256h267l88 344z" />
    <glyph glyph-name="onehalf" unicode="&#xbd;" horiz-adv-x="1601" 
d="M143 682l23 94h182l137 553l-192 -94l-29 78l266 135h88l-167 -672h200l-22 -94h-486zM1585 1446h123l-1429 -1464h-121zM1413 762q104 0 165.5 -53t61.5 -131q0 -114 -127 -209q-40 -29 -149 -92.5t-160 -106.5q-45 -40 -63 -88h393l-25 -100h-510l13 59q21 98 131 197
q37 32 77 57.5t101 59t86 48.5q133 76 133 162q0 43 -36 72t-103 29q-96 0 -219 -68l-31 80q137 84 262 84z" />
    <glyph glyph-name="threequarters" unicode="&#xbe;" horiz-adv-x="1554" 
d="M631 911q0 -106 -82 -173.5t-211 -67.5q-136 0 -236 80l54 73q80 -59 178 -59q87 0 137.5 41.5t50.5 103.5q0 50 -39.5 80.5t-103.5 30.5h-68l25 98h67q74 0 131 38.5t58 100.5q0 49 -35.5 81t-97.5 32q-88 0 -180 -61l-43 59q113 94 247 94q102 0 157.5 -53t55.5 -127
q0 -76 -61 -137q-49 -49 -125 -72q53 -18 84 -57q37 -43 37 -105zM1571 1446h123l-1430 -1464h-121zM1489 745h96l-121 -489h84l-20 -84h-84l-47 -188h-103l47 188h-374l-9 68zM1098 256h266l88 344z" />
    <glyph glyph-name="questiondown" unicode="&#xbf;" horiz-adv-x="1101" 
d="M739 883h-168l50 194h167zM690 702q-17 -61 -33 -101t-41 -71t-46 -48.5t-64 -49.5q-44 -34 -156.5 -104t-159.5 -109q-124 -107 -124 -246q0 -108 79 -176.5t220 -68.5q201 0 399 147l67 -94q-227 -182 -489 -182q-52 0 -105 10.5t-110 36.5t-101 65.5t-72 104
t-28 145.5q0 66 19.5 125t50.5 104.5t80.5 90.5t98.5 78.5t116 72.5q50 28 72 41t52.5 33.5t43 35t29.5 39.5t27 52.5t22 68.5h153z" />
    <glyph glyph-name="Agrave" unicode="&#xc0;" horiz-adv-x="1488" 
d="M1057 1552h-125l-135 318h170zM1194 0l-78 446h-735l-307 -446h-172l1018 1446h149l279 -1446h-154zM475 584h619l-125 716z" />
    <glyph glyph-name="Aacute" unicode="&#xc1;" horiz-adv-x="1488" 
d="M1360 1888l-285 -321h-123l236 321h172zM920 1446h149l279 -1446h-154l-78 446h-735l-307 -446h-172zM475 584h619l-125 716z" />
    <glyph glyph-name="Acircumflex" unicode="&#xc2;" horiz-adv-x="1488" 
d="M1073 1772l-227 -207h-154l326 293h133l188 -293h-137zM1194 0l-78 446h-735l-307 -446h-172l1018 1446h149l279 -1446h-154zM475 584h619l-125 716z" />
    <glyph glyph-name="Atilde" unicode="&#xc3;" horiz-adv-x="1488" 
d="M1376 1798h97q-59 -133 -132.5 -191.5t-148.5 -58.5q-40 0 -76 15.5t-62.5 37.5t-51.5 44t-53.5 37.5t-57.5 15.5q-98 0 -172 -142h-103q58 130 133.5 190t153.5 60q49 0 91.5 -23.5t69 -51t64 -51t76.5 -23.5q100 0 172 141zM920 1446h149l279 -1446h-154l-78 446h-735
l-307 -446h-172zM475 584h619l-125 716z" />
    <glyph glyph-name="Adieresis" unicode="&#xc4;" horiz-adv-x="1488" 
d="M958 1761l-40 -170h-175l43 170h172zM1341 1761l-43 -170h-172l43 170h172zM1194 0l-78 446h-735l-307 -446h-172l1018 1446h149l279 -1446h-154zM475 584h619l-125 716z" />
    <glyph glyph-name="Aring" unicode="&#xc5;" horiz-adv-x="1488" 
d="M1018 1511q-76 0 -127 47.5t-51 120.5q0 101 72 166.5t169 65.5q74 0 126.5 -49.5t52.5 -122.5q0 -92 -68 -160t-174 -68zM1069 1831q-60 0 -100.5 -41t-40.5 -100q0 -42 27.5 -70.5t72.5 -28.5q58 0 99.5 40t41.5 104q0 44 -29 70t-71 26zM1194 0l-78 446h-735
l-307 -446h-172l1018 1446h149l279 -1446h-154zM475 584h619l-125 716z" />
    <glyph glyph-name="AE" unicode="&#xc6;" horiz-adv-x="2293" 
d="M2357 1309h-917l-123 -492h846l-33 -135h-846l-135 -545h946l-33 -137h-1093l112 449h-598l-424 -449h-182l1372 1446h1141zM600 586h514l182 727z" />
    <glyph glyph-name="Ccedilla" unicode="&#xc7;" horiz-adv-x="1548" 
d="M1012 1479q105 0 198 -22.5t163 -62.5t119.5 -81t90.5 -90l-94 -95q-196 213 -473 213q-157 0 -293 -58.5t-229 -157t-146 -229.5t-53 -275q0 -236 140 -376.5t378 -140.5q146 0 295 53t256 140l80 -98q-120 -102 -277.5 -162t-316.5 -68l-70 -106h17q78 -1 121 -46
t43 -108q0 -76 -71.5 -137t-195.5 -61q-55 0 -107.5 16.5t-88.5 44.5l47 61q55 -36 133 -36t120 33t42 75q0 41 -37.5 68.5t-104.5 27.5h-39l-4 29l95 139q-278 14 -442.5 185.5t-164.5 457.5q0 177 64 336t177 276t276 186t352 69z" />
    <glyph glyph-name="Egrave" unicode="&#xc8;" horiz-adv-x="1466" 
d="M1110 1546h-125l-135 318h170zM1536 1309h-981l-123 -492h889l-33 -135h-889l-135 -545h981l-35 -137h-1126l360 1446h1127z" />
    <glyph glyph-name="Eacute" unicode="&#xc9;" horiz-adv-x="1466" 
d="M1321 1870l-285 -322h-123l236 322h172zM1536 1309h-981l-123 -492h889l-33 -135h-889l-135 -545h981l-35 -137h-1126l360 1446h1127z" />
    <glyph glyph-name="Ecircumflex" unicode="&#xca;" horiz-adv-x="1466" 
d="M1075 1753l-227 -207h-154l326 293h133l188 -293h-137zM1536 1309h-981l-123 -492h889l-33 -135h-889l-135 -545h981l-35 -137h-1126l360 1446h1127z" />
    <glyph glyph-name="Edieresis" unicode="&#xcb;" horiz-adv-x="1466" 
d="M958 1761l-40 -170h-175l43 170h172zM1341 1761l-43 -170h-172l43 170h172zM1536 1309h-981l-123 -492h889l-33 -135h-889l-135 -545h981l-35 -137h-1126l360 1446h1127z" />
    <glyph glyph-name="Igrave" unicode="&#xcc;" horiz-adv-x="579" 
d="M463 1546l-135 318h170l90 -318h-125zM84 0l360 1446h146l-361 -1446h-145z" />
    <glyph glyph-name="Iacute" unicode="&#xcd;" horiz-adv-x="579" 
d="M469 1548l236 322h172l-285 -322h-123zM84 0l360 1446h146l-361 -1446h-145z" />
    <glyph glyph-name="Icircumflex" unicode="&#xce;" horiz-adv-x="579" 
d="M201 1546l325 293h133l189 -293h-137l-129 207l-228 -207h-153zM84 0l360 1446h146l-361 -1446h-145z" />
    <glyph glyph-name="Idieresis" unicode="&#xcf;" horiz-adv-x="579" 
d="M270 1591l43 170h172l-41 -170h-174zM653 1591l43 170h172l-43 -170h-172zM84 0l360 1446h146l-361 -1446h-145z" />
    <glyph glyph-name="Eth" unicode="&#xd0;" horiz-adv-x="1656" 
d="M942 1446q331 0 500.5 -155t169.5 -421q0 -191 -64.5 -352.5t-182 -275.5t-289.5 -178t-380 -64h-616l168 674h-250l31 129h252l159 643h502zM700 131q170 0 312 54t240.5 150.5t153 231.5t54.5 293q0 216 -138 335.5t-380 119.5h-389l-127 -512h393l-31 -129h-395
l-135 -543h442z" />
    <glyph glyph-name="Ntilde" unicode="&#xd1;" horiz-adv-x="1755" 
d="M985 1698q-98 0 -172 -142h-102q58 131 133 190.5t153 59.5q49 0 91.5 -23.5t69 -51t64 -51t76.5 -23.5q100 0 172 141h97q-59 -133 -132.5 -191.5t-148.5 -58.5q-40 0 -76 15.5t-62.5 37.5t-51.5 44t-53.5 37.5t-57.5 15.5zM1620 1446h145l-360 -1446h-137l-727 1243
l-312 -1243h-145l360 1446h140l727 -1239z" />
    <glyph glyph-name="Ograve" unicode="&#xd2;" horiz-adv-x="1712" 
d="M1014 1556l-135 318h170l90 -318h-125zM795 -33q-191 0 -337 72.5t-228.5 213t-82.5 331.5q0 142 40 275.5t117 245t182 196t242.5 131.5t291.5 47q297 0 472 -168t175 -449q0 -180 -63 -343t-174.5 -285t-276.5 -194.5t-358 -72.5zM801 104q164 0 301.5 62t228 167.5
t140 242t49.5 286.5q0 226 -136.5 353.5t-365.5 127.5q-157 0 -292.5 -61t-229 -164t-146.5 -242.5t-53 -293.5q0 -225 137 -351.5t367 -126.5z" />
    <glyph glyph-name="Oacute" unicode="&#xd3;" horiz-adv-x="1712" 
d="M973 1548l235 322h172l-284 -322h-123zM795 -33q-191 0 -337 72.5t-228.5 213t-82.5 331.5q0 142 40 275.5t117 245t182 196t242.5 131.5t291.5 47q297 0 472 -168t175 -449q0 -180 -63 -343t-174.5 -285t-276.5 -194.5t-358 -72.5zM801 104q164 0 301.5 62t228 167.5
t140 242t49.5 286.5q0 226 -136.5 353.5t-365.5 127.5q-157 0 -292.5 -61t-229 -164t-146.5 -242.5t-53 -293.5q0 -225 137 -351.5t367 -126.5z" />
    <glyph glyph-name="Ocircumflex" unicode="&#xd4;" horiz-adv-x="1712" 
d="M743 1556l326 293h133l189 -293h-138l-129 207l-227 -207h-154zM795 -33q-191 0 -337 72.5t-228.5 213t-82.5 331.5q0 142 40 275.5t117 245t182 196t242.5 131.5t291.5 47q297 0 472 -168t175 -449q0 -180 -63 -343t-174.5 -285t-276.5 -194.5t-358 -72.5zM801 104
q164 0 301.5 62t228 167.5t140 242t49.5 286.5q0 226 -136.5 353.5t-365.5 127.5q-157 0 -292.5 -61t-229 -164t-146.5 -242.5t-53 -293.5q0 -225 137 -351.5t367 -126.5z" />
    <glyph glyph-name="Otilde" unicode="&#xd5;" horiz-adv-x="1712" 
d="M1243 1556q-40 0 -76 15.5t-62.5 37.5t-51.5 44t-53.5 37.5t-57.5 15.5q-98 0 -172 -141h-102q58 131 133 190.5t153 59.5q40 0 75 -15.5t60 -37.5t49.5 -44t54 -37.5t62.5 -15.5q100 0 172 141h97q-59 -133 -132.5 -191.5t-148.5 -58.5zM795 -33q-191 0 -337 72.5
t-228.5 213t-82.5 331.5q0 142 40 275.5t117 245t182 196t242.5 131.5t291.5 47q297 0 472 -168t175 -449q0 -180 -63 -343t-174.5 -285t-276.5 -194.5t-358 -72.5zM801 104q164 0 301.5 62t228 167.5t140 242t49.5 286.5q0 226 -136.5 353.5t-365.5 127.5
q-157 0 -292.5 -61t-229 -164t-146.5 -242.5t-53 -293.5q0 -225 137 -351.5t367 -126.5z" />
    <glyph glyph-name="Odieresis" unicode="&#xd6;" horiz-adv-x="1712" 
d="M799 1591l43 170h172l-41 -170h-174zM1182 1591l43 170h172l-43 -170h-172zM795 -33q-191 0 -337 72.5t-228.5 213t-82.5 331.5q0 142 40 275.5t117 245t182 196t242.5 131.5t291.5 47q297 0 472 -168t175 -449q0 -180 -63 -343t-174.5 -285t-276.5 -194.5t-358 -72.5z
M801 104q164 0 301.5 62t228 167.5t140 242t49.5 286.5q0 226 -136.5 353.5t-365.5 127.5q-157 0 -292.5 -61t-229 -164t-146.5 -242.5t-53 -293.5q0 -225 137 -351.5t367 -126.5z" />
    <glyph glyph-name="multiply" unicode="&#xd7;" horiz-adv-x="1284" 
d="M1114 922l-350 -279l205 -274l-101 -88l-209 278l-342 -274l-71 88l346 276l-201 269l103 88l202 -273l344 277z" />
    <glyph glyph-name="Oslash" unicode="&#xd8;" horiz-adv-x="1712" 
d="M1454 1343q213 -169 213 -481q0 -180 -63 -343t-174.5 -285t-276.5 -194.5t-358 -72.5q-155 0 -279 47l-110 -155l-119 78l102 145q-116 78 -179 206t-63 296q0 142 40 275.5t117 245t182 196t242.5 131.5t291.5 47q170 0 313 -62l107 152l119 -78zM297 582
q0 -256 176 -383l778 1101q-101 43 -233 43q-157 0 -292.5 -61t-229 -164t-146.5 -242.5t-53 -293.5zM801 104q164 0 301.5 62t228 167.5t140 242t49.5 286.5q0 236 -148 365l-772 -1092q91 -31 201 -31z" />
    <glyph glyph-name="Ugrave" unicode="&#xd9;" horiz-adv-x="1697" 
d="M1038 1556l-135 318h170l90 -318h-125zM414 1446h147l-209 -838q-22 -83 -22 -153q0 -170 115.5 -260.5t320.5 -90.5q241 0 397 120.5t209 336.5l217 885h148l-226 -907q-65 -269 -260.5 -420.5t-492.5 -151.5q-170 0 -297.5 53.5t-201 162.5t-73.5 261q0 87 27 189z" />
    <glyph glyph-name="Uacute" unicode="&#xda;" horiz-adv-x="1697" 
d="M977 1548l235 322h172l-284 -322h-123zM414 1446h147l-209 -838q-22 -83 -22 -153q0 -170 115.5 -260.5t320.5 -90.5q241 0 397 120.5t209 336.5l217 885h148l-226 -907q-65 -269 -260.5 -420.5t-492.5 -151.5q-170 0 -297.5 53.5t-201 162.5t-73.5 261q0 87 27 189z" />
    <glyph glyph-name="Ucircumflex" unicode="&#xdb;" horiz-adv-x="1697" 
d="M774 1556l326 293h133l188 -293h-137l-129 207l-227 -207h-154zM414 1446h147l-209 -838q-22 -83 -22 -153q0 -170 115.5 -260.5t320.5 -90.5q241 0 397 120.5t209 336.5l217 885h148l-226 -907q-65 -269 -260.5 -420.5t-492.5 -151.5q-170 0 -297.5 53.5t-201 162.5
t-73.5 261q0 87 27 189z" />
    <glyph glyph-name="Udieresis" unicode="&#xdc;" horiz-adv-x="1697" 
d="M813 1591l43 170h172l-41 -170h-174zM1196 1591l43 170h172l-43 -170h-172zM414 1446h147l-209 -838q-22 -83 -22 -153q0 -170 115.5 -260.5t320.5 -90.5q241 0 397 120.5t209 336.5l217 885h148l-226 -907q-65 -269 -260.5 -420.5t-492.5 -151.5q-170 0 -297.5 53.5
t-201 162.5t-73.5 261q0 87 27 189z" />
    <glyph glyph-name="Yacute" unicode="&#xdd;" horiz-adv-x="1286" 
d="M1198 1870l-285 -322h-122l235 322h172zM1317 1446h172l-770 -893l-141 -553h-146l143 571l-329 875h162l268 -748z" />
    <glyph glyph-name="Thorn" unicode="&#xde;" horiz-adv-x="1466" 
d="M1032 1198q222 0 334.5 -98t112.5 -279q0 -227 -163.5 -369.5t-436.5 -142.5h-572l-78 -309h-145l360 1446h146l-62 -248h504zM1327 823q0 43 -7.5 76.5t-29 65t-57 52.5t-94.5 33.5t-138 12.5h-507l-154 -619h541q213 0 329.5 101.5t116.5 277.5z" />
    <glyph glyph-name="germandbls" unicode="&#xdf;" horiz-adv-x="1214" 
d="M147 -2l-135 2l246 989q60 238 209 364t344 126q161 0 262 -79t101 -194q0 -74 -38.5 -130t-113.5 -111q-149 -104 -173 -127q-24 -24 -24 -43q0 -10 8 -21t24 -24t32.5 -24.5t43 -30t46.5 -33.5q84 -62 128 -125.5t44 -155.5q0 -81 -37.5 -155.5t-105.5 -132t-172 -92
t-228 -34.5q-85 0 -166.5 18.5t-132.5 49.5l33 125q139 -66 266 -66q92 0 168.5 25t125 65t75.5 90t27 101q0 39 -13 71.5t-40 59.5t-53 46.5t-66 46.5q-11 7 -17 11q-39 26 -55 37t-42.5 34t-37 45t-10.5 48q0 49 41 90.5t135 106.5q42 30 53.5 38.5t42 32.5t39.5 36
t24.5 33t20 40.5t4.5 42.5q0 73 -59.5 122.5t-165.5 49.5q-148 0 -257.5 -102t-152.5 -279z" />
    <glyph glyph-name="agrave" unicode="&#xe0;" horiz-adv-x="1298" 
d="M846 1229h-111l-166 303h174zM1153 1063h131l-264 -1063h-123l35 150q-163 -181 -422 -181q-217 0 -336 144t-92 385q28 271 197.5 438.5t422.5 167.5q154 0 255.5 -69.5t140.5 -194.5zM541 98q193 0 323 126.5t156 346.5q25 193 -64.5 298.5t-255.5 105.5
q-192 0 -321.5 -129t-155.5 -344q-27 -196 62 -300t256 -104z" />
    <glyph glyph-name="aacute" unicode="&#xe1;" horiz-adv-x="1298" 
d="M1030 1532l-250 -303h-110l188 303h172zM1153 1063h131l-264 -1063h-123l35 150q-163 -181 -422 -181q-217 0 -336 144t-92 385q28 271 197.5 438.5t422.5 167.5q154 0 255.5 -69.5t140.5 -194.5zM541 98q193 0 323 126.5t156 346.5q25 193 -64.5 298.5t-255.5 105.5
q-192 0 -321.5 -129t-155.5 -344q-27 -196 62 -300t256 -104z" />
    <glyph glyph-name="acircumflex" unicode="&#xe2;" horiz-adv-x="1298" 
d="M868 1450l-235 -227h-152l330 309h137l174 -309h-133zM1153 1063h131l-264 -1063h-123l35 150q-163 -181 -422 -181q-217 0 -336 144t-92 385q28 271 197.5 438.5t422.5 167.5q154 0 255.5 -69.5t140.5 -194.5zM541 98q193 0 323 126.5t156 346.5q25 193 -64.5 298.5
t-255.5 105.5q-192 0 -321.5 -129t-155.5 -344q-27 -196 62 -300t256 -104z" />
    <glyph glyph-name="atilde" unicode="&#xe3;" horiz-adv-x="1298" 
d="M653 1389q-95 0 -172 -148h-102q54 130 134.5 190t160.5 60q40 0 74 -16t58 -39t47.5 -46t52 -39t61.5 -16q96 0 172 148h96q-55 -131 -132 -189.5t-155 -58.5q-40 0 -75.5 16t-61 38.5t-49.5 45t-52 38.5t-57 16zM1153 1063h131l-264 -1063h-123l35 150
q-163 -181 -422 -181q-217 0 -336 144t-92 385q28 271 197.5 438.5t422.5 167.5q154 0 255.5 -69.5t140.5 -194.5zM541 98q193 0 323 126.5t156 346.5q25 193 -64.5 298.5t-255.5 105.5q-192 0 -321.5 -129t-155.5 -344q-27 -196 62 -300t256 -104z" />
    <glyph glyph-name="adieresis" unicode="&#xe4;" horiz-adv-x="1298" 
d="M727 1450l-41 -162h-168l41 162h168zM1118 1450l-43 -162h-166l41 162h168zM1153 1063h131l-264 -1063h-123l35 150q-163 -181 -422 -181q-217 0 -336 144t-92 385q28 271 197.5 438.5t422.5 167.5q154 0 255.5 -69.5t140.5 -194.5zM541 98q193 0 323 126.5t156 346.5
q25 193 -64.5 298.5t-255.5 105.5q-192 0 -321.5 -129t-155.5 -344q-27 -196 62 -300t256 -104z" />
    <glyph glyph-name="aring" unicode="&#xe5;" horiz-adv-x="1298" 
d="M766 1194q-76 0 -126 46.5t-50 119.5q0 95 70.5 164t173.5 69q74 0 125 -49.5t51 -122.5q0 -91 -69 -159t-175 -68zM823 1513q-60 0 -101.5 -41t-41.5 -100q0 -46 28.5 -72t71.5 -26q56 0 99 40.5t43 102.5q0 44 -29.5 70t-69.5 26zM1153 1063h131l-264 -1063h-123
l35 150q-163 -181 -422 -181q-217 0 -336 144t-92 385q28 271 197.5 438.5t422.5 167.5q154 0 255.5 -69.5t140.5 -194.5zM541 98q193 0 323 126.5t156 346.5q25 193 -64.5 298.5t-255.5 105.5q-192 0 -321.5 -129t-155.5 -344q-27 -196 62 -300t256 -104z" />
    <glyph glyph-name="ae" unicode="&#xe6;" horiz-adv-x="2103" 
d="M1559 1102q199 0 322.5 -107.5t123.5 -287.5q0 -60 -14 -128.5t-39 -111.5h-885q-11 -170 84 -273.5t274 -103.5q215 0 404 143l59 -92q-106 -84 -233 -129t-254 -45q-138 0 -239.5 51t-160.5 142q-144 -104 -264.5 -148.5t-265.5 -44.5q-108 0 -192 30t-137.5 99
t-53.5 168q0 86 31.5 154t84.5 112t128 72.5t157 40.5t177 12q138 0 284 -34q19 59 23 79q8 50 8 76q0 201 -301 201q-191 0 -399 -80l-25 107q93 43 211 70.5t235 27.5q152 0 256.5 -51t139.5 -156q184 207 461 207zM1862 584q14 52 14 110q0 60 -18.5 111t-55.5 91.5
t-99 63.5t-144 23q-169 0 -299.5 -113.5t-174.5 -285.5h777zM483 86q126 0 233 39t236 133q-26 79 -26 184q0 36 4 72q-155 33 -283 33q-202 0 -317 -67t-115 -206q0 -91 75 -139.5t193 -48.5z" />
    <glyph glyph-name="ccedilla" unicode="&#xe7;" horiz-adv-x="1136" 
d="M385 846q-89 -80 -128.5 -187t-39.5 -206q0 -160 102 -259.5t281 -99.5q198 0 367 127l71 -94q-94 -71 -205.5 -111.5t-220.5 -46.5l-65 -100h16q78 -3 121 -48t43 -108q0 -76 -71.5 -137t-194.5 -61q-121 0 -197 63l47 60q61 -35 133 -35q79 0 120.5 32t41.5 74
q0 41 -37 68.5t-104 27.5h-39l-4 29l92 135q-200 19 -320 147.5t-120 325.5q0 128 53 258t166 232q186 170 450 170q125 0 233.5 -41t182.5 -119l-94 -86q-59 56 -146.5 87.5t-185.5 31.5q-203 0 -348 -129z" />
    <glyph glyph-name="egrave" unicode="&#xe8;" horiz-adv-x="1239" 
d="M854 1223h-111l-165 303h174zM1128 467h-909q0 -185 98 -281t283 -96q214 0 406 143l59 -92q-108 -84 -235 -129t-255 -45q-120 0 -216 37.5t-156 103t-91.5 149.5t-31.5 181q0 100 29 197t85.5 181t134 148t182 101t222.5 37q206 0 329.5 -107.5t123.5 -296.5
q0 -50 -16.5 -118t-41.5 -113zM731 983q-181 0 -314.5 -114t-178.5 -285h802q17 60 17 114q0 130 -85.5 207.5t-240.5 77.5z" />
    <glyph glyph-name="eacute" unicode="&#xe9;" horiz-adv-x="1239" 
d="M1057 1528l-250 -303h-111l189 303h172zM1128 467h-909q0 -185 98 -281t283 -96q214 0 406 143l59 -92q-108 -84 -235 -129t-255 -45q-120 0 -216 37.5t-156 103t-91.5 149.5t-31.5 181q0 100 29 197t85.5 181t134 148t182 101t222.5 37q206 0 329.5 -107.5t123.5 -296.5
q0 -50 -16.5 -118t-41.5 -113zM731 983q-181 0 -314.5 -114t-178.5 -285h802q17 60 17 114q0 130 -85.5 207.5t-240.5 77.5z" />
    <glyph glyph-name="ecircumflex" unicode="&#xea;" horiz-adv-x="1239" 
d="M864 1442l-235 -225h-152l330 309h137l174 -309h-133zM1128 467h-909q0 -185 98 -281t283 -96q214 0 406 143l59 -92q-108 -84 -235 -129t-255 -45q-120 0 -216 37.5t-156 103t-91.5 149.5t-31.5 181q0 100 29 197t85.5 181t134 148t182 101t222.5 37q206 0 329.5 -107.5
t123.5 -296.5q0 -50 -16.5 -118t-41.5 -113zM731 983q-181 0 -314.5 -114t-178.5 -285h802q17 60 17 114q0 130 -85.5 207.5t-240.5 77.5z" />
    <glyph glyph-name="edieresis" unicode="&#xeb;" horiz-adv-x="1239" 
d="M737 1450l-41 -162h-168l41 162h168zM1128 1450l-43 -162h-165l41 162h167zM1128 467h-909q0 -185 98 -281t283 -96q214 0 406 143l59 -92q-108 -84 -235 -129t-255 -45q-120 0 -216 37.5t-156 103t-91.5 149.5t-31.5 181q0 100 29 197t85.5 181t134 148t182 101
t222.5 37q206 0 329.5 -107.5t123.5 -296.5q0 -50 -16.5 -118t-41.5 -113zM731 983q-181 0 -314.5 -114t-178.5 -285h802q17 60 17 114q0 130 -85.5 207.5t-240.5 77.5z" />
    <glyph glyph-name="igrave" unicode="&#xec;" horiz-adv-x="450" 
d="M326 1223l-166 303h174l102 -303h-110zM27 0l266 1063h139l-266 -1063h-139z" />
    <glyph glyph-name="iacute" unicode="&#xed;" horiz-adv-x="450" 
d="M340 1225l188 303h172l-249 -303h-111zM27 0l266 1063h139l-266 -1063h-139z" />
    <glyph glyph-name="icircumflex" unicode="&#xee;" horiz-adv-x="450" 
d="M72 1217l329 309h138l174 -309h-133l-121 225l-236 -225h-151zM27 0l266 1063h139l-266 -1063h-139z" />
    <glyph glyph-name="idieresis" unicode="&#xef;" horiz-adv-x="450" 
d="M121 1270l41 164h168l-41 -164h-168zM512 1270l41 164h168l-43 -164h-166zM27 0l266 1063h139l-266 -1063h-139z" />
    <glyph glyph-name="eth" unicode="&#xf0;" horiz-adv-x="1245" 
d="M1278 1448l-231 -145q145 -164 145 -424q0 -185 -70.5 -374.5t-197.5 -322.5q-98 -104 -220 -159.5t-245 -55.5q-194 0 -310 118t-116 304q0 114 46 220.5t123.5 184.5t183.5 124.5t220 46.5q161 0 275.5 -84.5t140.5 -225.5q37 119 37 230q0 211 -127 346l-250 -158
l-59 84l227 141q-134 89 -342 117l22 119q271 -30 441 -160l254 158zM473 96q119 0 225.5 67t168 169.5t61.5 206.5q0 130 -89.5 213.5t-226.5 83.5q-94 0 -176.5 -37.5t-138.5 -99t-88.5 -141.5t-32.5 -165q0 -133 79 -215t218 -82z" />
    <glyph glyph-name="ntilde" unicode="&#xf1;" horiz-adv-x="1355" 
d="M682 1389q-95 0 -172 -148h-102q54 130 134 190t160 60q40 0 74 -16t58 -39t47.5 -46t52 -39t61.5 -16q96 0 172 148h97q-55 -131 -132 -189.5t-155 -58.5q-40 0 -75.5 16t-61 38.5t-49.5 45t-52 38.5t-57 16zM858 1102q161 0 256.5 -86t95.5 -221q0 -64 -26 -166
l-158 -629l-139 2l162 637q20 90 20 129t-12.5 73t-39.5 65t-79 49t-123 18q-126 0 -244 -59.5t-217 -161.5l-188 -752h-139l266 1063h125l-33 -160q233 199 473 199z" />
    <glyph glyph-name="ograve" unicode="&#xf2;" horiz-adv-x="1288" 
d="M743 1223l-165 303h174l102 -303h-111zM563 -33q-233 0 -362 125.5t-129 331.5q0 139 49 263t135.5 216t212.5 145.5t272 53.5q233 0 363.5 -125t130.5 -332q0 -138 -49 -261.5t-135.5 -216t-213 -146.5t-274.5 -54zM569 92q162 0 283.5 78t182.5 203.5t61 277.5
q0 160 -96 243t-269 83q-121 0 -221 -43.5t-165 -118.5t-100.5 -175t-35.5 -214q0 -162 95 -248t265 -86z" />
    <glyph glyph-name="oacute" unicode="&#xf3;" horiz-adv-x="1288" 
d="M709 1225l188 303h172l-250 -303h-110zM563 -33q-233 0 -362 125.5t-129 331.5q0 139 49 263t135.5 216t212.5 145.5t272 53.5q233 0 363.5 -125t130.5 -332q0 -138 -49 -261.5t-135.5 -216t-213 -146.5t-274.5 -54zM569 92q162 0 283.5 78t182.5 203.5t61 277.5
q0 160 -96 243t-269 83q-121 0 -221 -43.5t-165 -118.5t-100.5 -175t-35.5 -214q0 -162 95 -248t265 -86z" />
    <glyph glyph-name="ocircumflex" unicode="&#xf4;" horiz-adv-x="1288" 
d="M487 1217l330 309h137l174 -309h-133l-121 225l-235 -225h-152zM563 -33q-233 0 -362 125.5t-129 331.5q0 139 49 263t135.5 216t212.5 145.5t272 53.5q233 0 363.5 -125t130.5 -332q0 -138 -49 -261.5t-135.5 -216t-213 -146.5t-274.5 -54zM569 92q162 0 283.5 78
t182.5 203.5t61 277.5q0 160 -96 243t-269 83q-121 0 -221 -43.5t-165 -118.5t-100.5 -175t-35.5 -214q0 -162 95 -248t265 -86z" />
    <glyph glyph-name="otilde" unicode="&#xf5;" horiz-adv-x="1288" 
d="M991 1235q-40 0 -75.5 16t-61 38.5t-49.5 45t-52 38.5t-57 16q-95 0 -172 -148h-102q54 130 134.5 190t160.5 60q40 0 74 -16t58 -39t47.5 -46t52 -39t61.5 -16q96 0 172 148h96q-55 -131 -132 -189.5t-155 -58.5zM563 -33q-233 0 -362 125.5t-129 331.5q0 139 49 263
t135.5 216t212.5 145.5t272 53.5q233 0 363.5 -125t130.5 -332q0 -138 -49 -261.5t-135.5 -216t-213 -146.5t-274.5 -54zM569 92q162 0 283.5 78t182.5 203.5t61 277.5q0 160 -96 243t-269 83q-121 0 -221 -43.5t-165 -118.5t-100.5 -175t-35.5 -214q0 -162 95 -248t265 -86
z" />
    <glyph glyph-name="odieresis" unicode="&#xf6;" horiz-adv-x="1288" 
d="M522 1288l41 162h168l-41 -162h-168zM915 1288l41 162h168l-43 -162h-166zM563 -33q-233 0 -362 125.5t-129 331.5q0 139 49 263t135.5 216t212.5 145.5t272 53.5q233 0 363.5 -125t130.5 -332q0 -138 -49 -261.5t-135.5 -216t-213 -146.5t-274.5 -54zM569 92
q162 0 283.5 78t182.5 203.5t61 277.5q0 160 -96 243t-269 83q-121 0 -221 -43.5t-165 -118.5t-100.5 -175t-35.5 -214q0 -162 95 -248t265 -86z" />
    <glyph glyph-name="divide" unicode="&#xf7;" horiz-adv-x="1277" 
d="M672 887l47 184h139l-47 -184h-139zM225 575l31 125h883l-31 -125h-883zM502 205l47 184h139l-47 -184h-139z" />
    <glyph glyph-name="oslash" unicode="&#xf8;" horiz-adv-x="1288" 
d="M1055 1018q88 -60 134 -155.5t46 -217.5q0 -138 -49 -261.5t-135.5 -216t-213 -146.5t-274.5 -54q-108 0 -209 33l-75 -111l-105 68l70 100q-84 60 -128 154.5t-44 212.5q0 139 49 263t135.5 216t212.5 145.5t272 53.5q107 0 199 -29l76 109l104 -68zM209 426
q0 -175 108 -260l547 797q-55 14 -133 14q-121 0 -221 -43.5t-165 -118.5t-100.5 -175t-35.5 -214zM569 92q162 0 283.5 78t182.5 203.5t61 277.5q0 176 -115 258l-551 -798q65 -19 139 -19z" />
    <glyph glyph-name="ugrave" unicode="&#xf9;" 
d="M858 1223h-110l-166 303h174zM1135 1063h139l-266 -1063h-125l37 176q-212 -209 -467 -209q-174 0 -264.5 89.5t-90.5 224.5q0 76 39 233l137 549l142 -2l-148 -592q-24 -105 -24 -156q0 -105 71 -161t185 -56q107 0 226.5 55.5t223.5 178.5z" />
    <glyph glyph-name="uacute" unicode="&#xfa;" 
d="M1034 1528l-250 -303h-110l188 303h172zM1135 1063h139l-266 -1063h-125l37 176q-212 -209 -467 -209q-174 0 -264.5 89.5t-90.5 224.5q0 76 39 233l137 549l142 -2l-148 -592q-24 -105 -24 -156q0 -105 71 -161t185 -56q107 0 226.5 55.5t223.5 178.5z" />
    <glyph glyph-name="ucircumflex" unicode="&#xfb;" 
d="M868 1442l-235 -225h-152l330 309h137l174 -309h-133zM1135 1063h139l-266 -1063h-125l37 176q-212 -209 -467 -209q-174 0 -264.5 89.5t-90.5 224.5q0 76 39 233l137 549l142 -2l-148 -592q-24 -105 -24 -156q0 -105 71 -161t185 -56q107 0 226.5 55.5t223.5 178.5z" />
    <glyph glyph-name="udieresis" unicode="&#xfc;" 
d="M731 1450l-41 -162h-168l41 162h168zM1122 1450l-43 -162h-166l41 162h168zM1135 1063h139l-266 -1063h-125l37 176q-212 -209 -467 -209q-174 0 -264.5 89.5t-90.5 224.5q0 76 39 233l137 549l142 -2l-148 -592q-24 -105 -24 -156q0 -105 71 -161t185 -56
q107 0 226.5 55.5t223.5 178.5z" />
    <glyph glyph-name="yacute" unicode="&#xfd;" horiz-adv-x="1277" 
d="M1024 1528l-250 -303h-110l188 303h172zM1122 1063h138l-252 -1016q-68 -262 -189 -383q-80 -76 -198.5 -116t-251.5 -40q-106 0 -211 25t-183 70l52 110q150 -80 348 -80q137 0 248 52t172 163q77 137 112 322q-209 -203 -458 -203q-173 0 -265 90t-92 222q0 77 45 253
l133 531h140l-144 -578q-30 -131 -30 -174q0 -102 71 -158.5t187 -56.5q105 0 222.5 52.5t221.5 170.5z" />
    <glyph glyph-name="thorn" unicode="&#xfe;" horiz-adv-x="1298" 
d="M797 1102q195 0 314.5 -117t119.5 -328q0 -104 -26 -204t-79 -188t-127 -154.5t-177 -105t-222 -38.5q-145 0 -247.5 65.5t-143.5 186.5l-143 -575h-136l449 1802h135l-133 -522q161 178 416 178zM1092 647q0 158 -88.5 242t-241.5 84q-95 0 -175.5 -33t-137.5 -88
t-97 -127.5t-59 -152t-19 -160.5q0 -156 86 -236t236 -80q118 0 214.5 48t156.5 127t92.5 176t32.5 200z" />
    <glyph glyph-name="ydieresis" unicode="&#xff;" horiz-adv-x="1277" 
d="M731 1450l-41 -162h-168l41 162h168zM1122 1450l-43 -162h-166l41 162h168zM1122 1063h138l-252 -1016q-68 -262 -189 -383q-80 -76 -198.5 -116t-251.5 -40q-106 0 -211 25t-183 70l52 110q150 -80 348 -80q137 0 248 52t172 163q77 137 112 322q-209 -203 -458 -203
q-173 0 -265 90t-92 222q0 77 45 253l133 531h140l-144 -578q-30 -131 -30 -174q0 -102 71 -158.5t187 -56.5q105 0 222.5 52.5t221.5 170.5z" />
    <glyph glyph-name="Amacron" unicode="&#x100;" horiz-adv-x="1488" 
d="M1372 1716l-31 -121h-630l30 121h631zM920 1446h149l279 -1446h-154l-78 446h-735l-307 -446h-172zM475 584h619l-125 716z" />
    <glyph glyph-name="amacron" unicode="&#x101;" horiz-adv-x="1298" 
d="M1161 1421l-28 -116h-631l28 116h631zM1153 1063h131l-264 -1063h-123l35 150q-163 -181 -422 -181q-217 0 -336 144t-92 385q28 271 197.5 438.5t422.5 167.5q154 0 255.5 -69.5t140.5 -194.5zM541 98q193 0 323 126.5t156 346.5q25 193 -64.5 298.5t-255.5 105.5
q-192 0 -321.5 -129t-155.5 -344q-27 -196 62 -300t256 -104z" />
    <glyph glyph-name="Abreve" unicode="&#x102;" horiz-adv-x="1488" 
d="M1028 1550q-128 0 -194 65t-66 159q0 33 4 49h113q-4 -28 -4 -39q0 -65 40 -102t119 -37q87 0 147.5 46.5t86.5 131.5h117q-37 -128 -132 -200.5t-231 -72.5zM920 1446h149l279 -1446h-154l-78 446h-735l-307 -446h-172zM475 584h619l-125 716z" />
    <glyph glyph-name="abreve" unicode="&#x103;" horiz-adv-x="1298" 
d="M786 1217q-123 0 -192.5 62.5t-69.5 164.5q0 24 11 74h110q-6 -38 -6 -66q0 -70 40.5 -105.5t115.5 -35.5q94 0 159.5 54.5t87.5 152.5h113q-29 -140 -127 -220.5t-242 -80.5zM1153 1063h131l-264 -1063h-123l35 150q-163 -181 -422 -181q-217 0 -336 144t-92 385
q28 271 197.5 438.5t422.5 167.5q154 0 255.5 -69.5t140.5 -194.5zM541 98q193 0 323 126.5t156 346.5q25 193 -64.5 298.5t-255.5 105.5q-192 0 -321.5 -129t-155.5 -344q-27 -196 62 -300t256 -104z" />
    <glyph glyph-name="Aogonek" unicode="&#x104;" horiz-adv-x="1488" 
d="M1163 -350q43 0 92 22l31 -102q-73 -43 -160 -43q-88 0 -136 48t-48 120q0 177 252 309l-78 442h-735l-307 -446h-172l1018 1446h149l279 -1446q-122 -42 -199.5 -111t-77.5 -151q0 -42 24.5 -65t67.5 -23zM475 584h619l-125 716z" />
    <glyph glyph-name="aogonek" unicode="&#x105;" horiz-adv-x="1280" 
d="M1020 0q-118 -41 -189 -109.5t-71 -152.5q0 -42 24.5 -65t67.5 -23t92 22l31 -102q-73 -43 -160 -43q-88 0 -136 48t-48 120q0 182 268 317l33 138q-163 -181 -422 -181q-217 0 -336 144t-92 385q28 271 197.5 438.5t422.5 167.5q154 0 255.5 -69.5t140.5 -194.5l55 223
h131zM541 98q193 0 323 126.5t156 346.5q25 193 -64.5 298.5t-255.5 105.5q-192 0 -321.5 -129t-155.5 -344q-27 -196 62 -300t256 -104z" />
    <glyph glyph-name="Cacute" unicode="&#x106;" horiz-adv-x="1548" 
d="M893 1559l235 321h172l-284 -321h-123zM1444 199q-130 -110 -303 -171t-344 -61q-297 0 -475.5 173.5t-178.5 471.5q0 177 64 336t177 276t276 186t352 69q105 0 198 -22.5t163 -62.5t119.5 -81t90.5 -90l-94 -95q-196 213 -473 213q-157 0 -293 -58.5t-229 -157
t-146 -229.5t-53 -275q0 -236 140 -376.5t378 -140.5q146 0 295 53t256 140z" />
    <glyph glyph-name="cacute" unicode="&#x107;" horiz-adv-x="1136" 
d="M682 1225l188 303h172l-249 -303h-111zM1065 856q-59 56 -146.5 87.5t-185.5 31.5q-203 0 -348 -129q-89 -80 -128.5 -187t-39.5 -206q0 -160 102 -259.5t281 -99.5q198 0 367 127l71 -94q-102 -79 -225 -119.5t-240 -40.5q-224 0 -361.5 131t-137.5 344q0 128 53 258
t166 232q186 170 450 170q125 0 233.5 -41t182.5 -119z" />
    <glyph glyph-name="Ccircumflex" unicode="&#x108;" horiz-adv-x="1548" 
d="M686 1556l326 293h133l188 -293h-137l-129 207l-227 -207h-154zM1444 199q-130 -110 -303 -171t-344 -61q-297 0 -475.5 173.5t-178.5 471.5q0 177 64 336t177 276t276 186t352 69q105 0 198 -22.5t163 -62.5t119.5 -81t90.5 -90l-94 -95q-196 213 -473 213
q-157 0 -293 -58.5t-229 -157t-146 -229.5t-53 -275q0 -236 140 -376.5t378 -140.5q146 0 295 53t256 140z" />
    <glyph glyph-name="ccircumflex" unicode="&#x109;" horiz-adv-x="1136" 
d="M473 1217l330 309h137l174 -309h-133l-121 225l-235 -225h-152zM1065 856q-59 56 -146.5 87.5t-185.5 31.5q-203 0 -348 -129q-89 -80 -128.5 -187t-39.5 -206q0 -160 102 -259.5t281 -99.5q198 0 367 127l71 -94q-102 -79 -225 -119.5t-240 -40.5q-224 0 -361.5 131
t-137.5 344q0 128 53 258t166 232q186 170 450 170q125 0 233.5 -41t182.5 -119z" />
    <glyph glyph-name="Cdotaccent" unicode="&#x10a;" horiz-adv-x="1548" 
d="M938 1604l43 174h180l-45 -174h-178zM1444 199q-130 -110 -303 -171t-344 -61q-297 0 -475.5 173.5t-178.5 471.5q0 177 64 336t177 276t276 186t352 69q105 0 198 -22.5t163 -62.5t119.5 -81t90.5 -90l-94 -95q-196 213 -473 213q-157 0 -293 -58.5t-229 -157
t-146 -229.5t-53 -275q0 -236 140 -376.5t378 -140.5q146 0 295 53t256 140z" />
    <glyph glyph-name="cdotaccent" unicode="&#x10b;" horiz-adv-x="1136" 
d="M700 1253l48 193h151l-47 -193h-152zM1065 856q-59 56 -146.5 87.5t-185.5 31.5q-203 0 -348 -129q-89 -80 -128.5 -187t-39.5 -206q0 -160 102 -259.5t281 -99.5q198 0 367 127l71 -94q-102 -79 -225 -119.5t-240 -40.5q-224 0 -361.5 131t-137.5 344q0 128 53 258
t166 232q186 170 450 170q125 0 233.5 -41t182.5 -119z" />
    <glyph glyph-name="Ccaron" unicode="&#x10c;" horiz-adv-x="1548" 
d="M938 1548l-178 293h133l129 -207l233 207h144l-320 -293h-141zM1444 199q-130 -110 -303 -171t-344 -61q-297 0 -475.5 173.5t-178.5 471.5q0 177 64 336t177 276t276 186t352 69q105 0 198 -22.5t163 -62.5t119.5 -81t90.5 -90l-94 -95q-196 213 -473 213
q-157 0 -293 -58.5t-229 -157t-146 -229.5t-53 -275q0 -236 140 -376.5t378 -140.5q146 0 295 53t256 140z" />
    <glyph glyph-name="ccaron" unicode="&#x10d;" horiz-adv-x="1136" 
d="M713 1227l-168 311h135l115 -223l225 223h145l-321 -311h-131zM1065 856q-59 56 -146.5 87.5t-185.5 31.5q-203 0 -348 -129q-89 -80 -128.5 -187t-39.5 -206q0 -160 102 -259.5t281 -99.5q198 0 367 127l71 -94q-102 -79 -225 -119.5t-240 -40.5q-224 0 -361.5 131
t-137.5 344q0 128 53 258t166 232q186 170 450 170q125 0 233.5 -41t182.5 -119z" />
    <glyph glyph-name="Dcaron" unicode="&#x10e;" horiz-adv-x="1658" 
d="M1053 1544h-142l-178 293h133l129 -207l234 207h143zM946 1446q331 0 500.5 -155t169.5 -421q0 -191 -64.5 -352.5t-182 -275.5t-289.5 -178t-380 -64h-616l360 1446h502zM705 131q170 0 312 54t240 150.5t152.5 231.5t54.5 293q0 216 -138 335.5t-380 119.5h-389
l-295 -1184h443z" />
    <glyph glyph-name="dcaron" unicode="&#x10f;" horiz-adv-x="1447" 
d="M1110 846l150 602h135l-361 -1446h-137l35 143q-166 -176 -406 -176q-126 0 -224 49.5t-157 152.5t-59 245t44.5 267.5t124.5 218.5t199 147.5t259 54.5q151 0 253 -68t144 -190zM1563 1446h145l-156 -326h-116zM549 98q112 0 205.5 45.5t154.5 122t94 174.5t33 205
q0 158 -89.5 244t-237.5 86q-113 0 -206 -45t-153.5 -121.5t-93.5 -176t-33 -210.5q0 -157 88 -240.5t238 -83.5z" />
    <glyph glyph-name="Dcroat" unicode="&#x110;" horiz-adv-x="1656" 
d="M942 1446q331 0 500.5 -155t169.5 -421q0 -191 -64.5 -352.5t-182 -275.5t-289.5 -178t-380 -64h-616l168 674h-250l31 129h252l159 643h502zM700 131q170 0 312 54t240.5 150.5t153 231.5t54.5 293q0 216 -138 335.5t-380 119.5h-389l-127 -512h393l-31 -129h-395
l-135 -543h442z" />
    <glyph glyph-name="dcroat" unicode="&#x111;" horiz-adv-x="1288" 
d="M1518 1288l-25 -104h-176l-295 -1182h-137l35 143q-166 -176 -406 -176q-126 0 -224 49.5t-157 152.5t-59 245t44.5 267.5t124.5 218.5t198.5 147.5t258.5 54.5q151 0 253.5 -68t144.5 -190l84 338h-353l25 104h354l39 160h135l-39 -160h175zM539 98q98 0 180 33.5
t137.5 88.5t94.5 127t57 147.5t18 150.5q0 158 -89.5 244t-238.5 86t-261.5 -78t-168 -202t-55.5 -273q0 -157 88 -240.5t238 -83.5z" />
    <glyph glyph-name="Emacron" unicode="&#x112;" horiz-adv-x="1466" 
d="M1372 1747l-31 -121h-630l30 121h631zM1536 1309h-981l-123 -492h889l-33 -135h-889l-135 -545h981l-35 -137h-1126l360 1446h1127z" />
    <glyph glyph-name="emacron" unicode="&#x113;" horiz-adv-x="1239" 
d="M1137 1421l-29 -116h-631l29 116h631zM1128 467h-909q0 -185 98 -281t283 -96q214 0 406 143l59 -92q-108 -84 -235 -129t-255 -45q-120 0 -216 37.5t-156 103t-91.5 149.5t-31.5 181q0 100 29 197t85.5 181t134 148t182 101t222.5 37q206 0 329.5 -107.5t123.5 -296.5
q0 -50 -16.5 -118t-41.5 -113zM731 983q-181 0 -314.5 -114t-178.5 -285h802q17 60 17 114q0 130 -85.5 207.5t-240.5 77.5z" />
    <glyph glyph-name="Ebreve" unicode="&#x114;" horiz-adv-x="1466" 
d="M1006 1542q-129 0 -195 64.5t-66 158.5q0 30 5 50h112q-4 -28 -4 -39q0 -65 40.5 -102.5t119.5 -37.5q87 0 146.5 46.5t86.5 132.5h117q-37 -128 -132 -200.5t-230 -72.5zM1536 1309h-981l-123 -492h889l-33 -135h-889l-135 -545h981l-35 -137h-1126l360 1446h1127z" />
    <glyph glyph-name="ebreve" unicode="&#x115;" horiz-adv-x="1239" 
d="M805 1214q-123 0 -192.5 63t-69.5 165q0 29 10 74h111q-7 -44 -7 -66q0 -70 40.5 -105.5t115.5 -35.5q94 0 160 54.5t88 152.5h113q-29 -140 -127 -221t-242 -81zM1128 467h-909q0 -185 98 -281t283 -96q214 0 406 143l59 -92q-108 -84 -235 -129t-255 -45
q-120 0 -216 37.5t-156 103t-91.5 149.5t-31.5 181q0 100 29 197t85.5 181t134 148t182 101t222.5 37q206 0 329.5 -107.5t123.5 -296.5q0 -50 -16.5 -118t-41.5 -113zM731 983q-181 0 -314.5 -114t-178.5 -285h802q17 60 17 114q0 130 -85.5 207.5t-240.5 77.5z" />
    <glyph glyph-name="Edotaccent" unicode="&#x116;" horiz-adv-x="1466" 
d="M1159 1778l-45 -174h-178l43 174h180zM1536 1309h-981l-123 -492h889l-33 -135h-889l-135 -545h981l-35 -137h-1126l360 1446h1127z" />
    <glyph glyph-name="edotaccent" unicode="&#x117;" horiz-adv-x="1239" 
d="M899 1446l-47 -193h-152l48 193h151zM1128 467h-909q0 -185 98 -281t283 -96q214 0 406 143l59 -92q-108 -84 -235 -129t-255 -45q-120 0 -216 37.5t-156 103t-91.5 149.5t-31.5 181q0 100 29 197t85.5 181t134 148t182 101t222.5 37q206 0 329.5 -107.5t123.5 -296.5
q0 -50 -16.5 -118t-41.5 -113zM731 983q-181 0 -314.5 -114t-178.5 -285h802q17 60 17 114q0 130 -85.5 207.5t-240.5 77.5z" />
    <glyph glyph-name="Eogonek" unicode="&#x118;" horiz-adv-x="1509" 
d="M1536 1309h-981l-123 -492h889l-33 -135h-889l-135 -545h981l-35 -137q-123 -42 -200.5 -111t-77.5 -151q0 -42 24.5 -65t67.5 -23t92 22l31 -102q-73 -43 -160 -43q-88 0 -136 48t-48 120q0 177 246 305h-965l360 1446h1127z" />
    <glyph glyph-name="eogonek" unicode="&#x119;" horiz-adv-x="1239" 
d="M1128 467h-909q0 -184 97.5 -280.5t277.5 -96.5q220 0 412 143l59 -92q-52 -37 -147 -90q-275 -153 -295 -295q-7 -47 14 -78.5t72 -31.5q42 0 100 24l25 -94q-92 -49 -183 -49q-87 0 -136 52.5t-34 141.5q12 71 64 132t147 124q-65 -10 -121 -10q-158 0 -271 65.5
t-166.5 171.5t-53.5 240q0 97 28.5 192.5t85.5 179t134 148t181.5 101.5t221.5 37q205 0 330 -106.5t125 -284.5q0 -134 -58 -244zM735 983q-185 0 -318.5 -113.5t-178.5 -285.5h802q17 60 17 116q0 128 -85.5 205.5t-236.5 77.5z" />
    <glyph glyph-name="Ecaron" unicode="&#x11a;" horiz-adv-x="1466" 
d="M1085 1544h-141l-178 293h133l129 -207l234 207h143zM1536 1309h-981l-123 -492h889l-33 -135h-889l-135 -545h981l-35 -137h-1126l360 1446h1127z" />
    <glyph glyph-name="ecaron" unicode="&#x11b;" horiz-adv-x="1239" 
d="M864 1227h-131l-168 311h135l115 -223l225 223h146zM733 1102q206 0 329.5 -107.5t123.5 -296.5q0 -50 -16.5 -118t-41.5 -113h-909q0 -185 98 -281t283 -96q214 0 406 143l59 -92q-108 -84 -235 -129t-255 -45q-120 0 -216 37.5t-156 103t-91.5 149.5t-31.5 181
q0 100 29 197t85.5 181t134 148t182 101t222.5 37zM1040 584q17 60 17 114q0 130 -85.5 207.5t-240.5 77.5q-181 0 -314.5 -114t-178.5 -285h802z" />
    <glyph glyph-name="Gcircumflex" unicode="&#x11c;" horiz-adv-x="1669" 
d="M733 1559l326 292h133l188 -292h-137l-129 206l-227 -206h-154zM1522 1186l94 98q-105 96 -248 145.5t-301 49.5q-170 0 -319 -49t-258 -133.5t-187.5 -196.5t-118 -240t-39.5 -262q0 -132 44 -246.5t126 -200t208.5 -135t281.5 -49.5q163 0 328 51.5t292 151.5l160 602
h-641l-31 -127h500l-100 -385q-93 -76 -229 -117t-271 -41q-122 0 -221 40.5t-163 111t-98 162.5t-34 196q0 144 58.5 277.5t159 233.5t245 160t307.5 60q128 0 246 -40t209 -117z" />
    <glyph glyph-name="gcircumflex" unicode="&#x11d;" 
d="M866 1442l-235 -225h-152l330 309h137l174 -309h-133zM1159 1063h131l-252 -1016q-33 -130 -78.5 -224t-121.5 -161q-83 -75 -200 -114.5t-251 -39.5q-209 0 -383 91l62 116q147 -82 340 -82q221 0 350 123q103 100 151 299l29 113q-81 -94 -189 -147.5t-233 -53.5
q-201 0 -319.5 114t-118.5 320q0 138 46 265.5t126.5 224t198 154t253.5 57.5q151 0 257 -65.5t149 -186.5zM543 96q109 0 202.5 47t155.5 124t97 175t36 201q0 151 -84.5 240.5t-247.5 89.5q-112 0 -205 -46.5t-154 -124.5t-94.5 -178.5t-33.5 -209.5q0 -155 88.5 -236.5
t239.5 -81.5z" />
    <glyph glyph-name="Gbreve" unicode="&#x11e;" horiz-adv-x="1669" 
d="M1049 1550q-128 0 -194.5 65t-66.5 159q0 29 5 49h112q-4 -28 -4 -39q0 -65 40 -102t120 -37q87 0 147 46t86 132h117q-37 -128 -132 -200.5t-230 -72.5zM1522 1186l94 98q-105 96 -248 145.5t-301 49.5q-170 0 -319 -49t-258 -133.5t-187.5 -196.5t-118 -240t-39.5 -262
q0 -132 44 -246.5t126 -200t208.5 -135t281.5 -49.5q163 0 328 51.5t292 151.5l160 602h-641l-31 -127h500l-100 -385q-93 -76 -229 -117t-271 -41q-122 0 -221 40.5t-163 111t-98 162.5t-34 196q0 144 58.5 277.5t159 233.5t245 160t307.5 60q128 0 246 -40t209 -117z" />
    <glyph glyph-name="gbreve" unicode="&#x11f;" 
d="M786 1214q-123 0 -192.5 63t-69.5 165q0 24 11 74h110q-6 -38 -6 -66q0 -70 40.5 -105.5t115.5 -35.5q94 0 159.5 54.5t87.5 152.5h113q-29 -140 -127 -221t-242 -81zM1159 1063h131l-252 -1016q-33 -130 -78.5 -224t-121.5 -161q-83 -75 -200 -114.5t-251 -39.5
q-209 0 -383 91l62 116q147 -82 340 -82q221 0 350 123q103 100 151 299l29 113q-81 -94 -189 -147.5t-233 -53.5q-201 0 -319.5 114t-118.5 320q0 138 46 265.5t126.5 224t198 154t253.5 57.5q151 0 257 -65.5t149 -186.5zM543 96q109 0 202.5 47t155.5 124t97 175t36 201
q0 151 -84.5 240.5t-247.5 89.5q-112 0 -205 -46.5t-154 -124.5t-94.5 -178.5t-33.5 -209.5q0 -155 88.5 -236.5t239.5 -81.5z" />
    <glyph glyph-name="Gdotaccent" unicode="&#x120;" horiz-adv-x="1669" 
d="M983 1604l43 174h180l-45 -174h-178zM1522 1186l94 98q-105 96 -248 145.5t-301 49.5q-170 0 -319 -49t-258 -133.5t-187.5 -196.5t-118 -240t-39.5 -262q0 -132 44 -246.5t126 -200t208.5 -135t281.5 -49.5q163 0 328 51.5t292 151.5l160 602h-641l-31 -127h500
l-100 -385q-93 -76 -229 -117t-271 -41q-122 0 -221 40.5t-163 111t-98 162.5t-34 196q0 144 58.5 277.5t159 233.5t245 160t307.5 60q128 0 246 -40t209 -117z" />
    <glyph glyph-name="gdotaccent" unicode="&#x121;" 
d="M909 1446l-47 -193h-151l47 193h151zM1159 1063h131l-252 -1016q-33 -130 -78.5 -224t-121.5 -161q-83 -75 -200 -114.5t-251 -39.5q-209 0 -383 91l62 116q147 -82 340 -82q221 0 350 123q103 100 151 299l29 113q-81 -94 -189 -147.5t-233 -53.5q-201 0 -319.5 114
t-118.5 320q0 138 46 265.5t126.5 224t198 154t253.5 57.5q151 0 257 -65.5t149 -186.5zM543 96q109 0 202.5 47t155.5 124t97 175t36 201q0 151 -84.5 240.5t-247.5 89.5q-112 0 -205 -46.5t-154 -124.5t-94.5 -178.5t-33.5 -209.5q0 -155 88.5 -236.5t239.5 -81.5z" />
    <glyph glyph-name="Gcommaaccent" unicode="&#x122;" horiz-adv-x="1669" 
d="M1522 1186l94 98q-105 96 -248 145.5t-301 49.5q-170 0 -319 -49t-258 -133.5t-187.5 -196.5t-118 -240t-39.5 -262q0 -132 44 -246.5t126 -200t208.5 -135t281.5 -49.5q163 0 328 51.5t292 151.5l160 602h-641l-31 -127h500l-100 -385q-93 -76 -229 -117t-271 -41
q-122 0 -221 40.5t-163 111t-98 162.5t-34 196q0 144 58.5 277.5t159 233.5t245 160t307.5 60q128 0 246 -40t209 -117zM598 -508l127 387h149l-155 -387h-121z" />
    <glyph glyph-name="gcommaaccent" unicode="&#x123;" 
d="M989 1628l-115 -377h-143l143 377h115zM1159 1063h131l-252 -1016q-33 -130 -78.5 -224t-121.5 -161q-83 -75 -200 -114.5t-251 -39.5q-209 0 -383 91l62 116q147 -82 340 -82q221 0 350 123q103 100 151 299l29 113q-81 -94 -189 -147.5t-233 -53.5q-201 0 -319.5 114
t-118.5 320q0 138 46 265.5t126.5 224t198 154t253.5 57.5q151 0 257 -65.5t149 -186.5zM543 96q109 0 202.5 47t155.5 124t97 175t36 201q0 151 -84.5 240.5t-247.5 89.5q-112 0 -205 -46.5t-154 -124.5t-94.5 -178.5t-33.5 -209.5q0 -155 88.5 -236.5t239.5 -81.5z" />
    <glyph glyph-name="Hcircumflex" unicode="&#x124;" horiz-adv-x="1751" 
d="M1161 1753l-227 -207h-154l326 293h133l188 -293h-137zM1614 1446h145l-360 -1446h-146l170 680h-1024l-170 -680h-145l360 1446h146l-158 -629h1024z" />
    <glyph glyph-name="hcircumflex" unicode="&#x125;" 
d="M537 1767l-236 -225h-151l329 309h137l175 -309h-134zM852 1102q161 0 256.5 -86t95.5 -221q0 -64 -26 -166l-158 -629h-139l161 639q21 95 21 129q0 39 -12 73t-39 65t-79 49t-124 18q-125 0 -243.5 -59t-215.5 -160l-190 -754h-140l361 1446h133l-133 -543
q233 199 471 199z" />
    <glyph glyph-name="Hbar" unicode="&#x126;" horiz-adv-x="1693" 
d="M1845 1217l-28 -119h-175l-274 -1098h-145l170 680h-1026l-170 -680h-146l275 1098h-176l28 119h176l58 229h145l-57 -229h1026l57 229h146l-58 -229h174zM1425 817l72 281h-1026l-72 -281h1026z" />
    <glyph glyph-name="hbar" unicode="&#x127;" horiz-adv-x="1296" 
d="M848 1102q161 0 256.5 -86t95.5 -221q0 -64 -26 -166l-158 -629h-139l161 639q21 95 21 129q0 39 -12 73t-39 65t-79 49t-124 18q-125 0 -243.5 -59t-215.5 -160l-190 -754h-140l295 1186h-211l25 102h213l39 158h133l-39 -158h317l-24 -102h-318l-69 -283
q233 199 471 199z" />
    <glyph glyph-name="Itilde" unicode="&#x128;" horiz-adv-x="579" 
d="M721 1548q-40 0 -76 15.5t-62.5 37.5t-51.5 44t-53.5 37.5t-57.5 15.5q-98 0 -172 -142h-103q58 130 133.5 190t153.5 60q49 0 91.5 -23.5t69 -51t64 -51t76.5 -23.5q100 0 172 141h96q-59 -133 -132 -191.5t-148 -58.5zM84 0l360 1446h146l-361 -1446h-145z" />
    <glyph glyph-name="itilde" unicode="&#x129;" horiz-adv-x="450" 
d="M561 1235q-40 0 -75.5 16t-61 38.5t-49.5 45t-52 38.5t-57 16q-95 0 -172 -148h-102q54 130 134.5 190t160.5 60q40 0 74 -16t58 -39t47.5 -46t52 -39t61.5 -16q96 0 172 148h96q-55 -131 -132 -189.5t-155 -58.5zM27 0l266 1063h139l-266 -1063h-139z" />
    <glyph glyph-name="Imacron" unicode="&#x12a;" horiz-adv-x="579" 
d="M236 1638l30 121h631l-31 -121h-630zM84 0l360 1446h146l-361 -1446h-145z" />
    <glyph glyph-name="imacron" unicode="&#x12b;" horiz-adv-x="450" 
d="M100 1305l29 116h631l-29 -116h-631zM27 0l266 1063h139l-266 -1063h-139z" />
    <glyph glyph-name="Ibreve" unicode="&#x12c;" horiz-adv-x="579" 
d="M549 1542q-128 0 -194 64.5t-66 158.5q0 34 4 50h113q-5 -35 -5 -39q0 -65 40.5 -102.5t119.5 -37.5q87 0 147.5 46.5t86.5 132.5h116q-37 -128 -132 -200.5t-230 -72.5zM84 0l360 1446h146l-361 -1446h-145z" />
    <glyph glyph-name="ibreve" unicode="&#x12d;" horiz-adv-x="450" 
d="M420 1214q-123 0 -192.5 63t-69.5 165q0 29 10 74h111q-7 -44 -7 -66q0 -70 40.5 -105.5t115.5 -35.5q94 0 160 54.5t88 152.5h112q-29 -140 -126.5 -221t-241.5 -81zM27 0l266 1063h139l-266 -1063h-139z" />
    <glyph glyph-name="Iogonek" unicode="&#x12e;" horiz-adv-x="573" 
d="M438 1446h146l-361 -1446q-123 -42 -200.5 -111t-77.5 -151q0 -42 24.5 -65t67.5 -23t92 22l31 -102q-73 -43 -160 -43q-88 0 -136 48t-48 120q0 182 264 315z" />
    <glyph glyph-name="iogonek" unicode="&#x12f;" horiz-adv-x="479" 
d="M406 1446h147l-49 -195h-148zM55 0l267 1063h139l-266 -1063q-215 -151 -215 -266q0 -42 24.5 -65t71.5 -23q40 0 86 20l26 -88q-90 -51 -176 -51q-80 0 -122 45.5t-42 112.5q0 84 56.5 158t191.5 157h-41z" />
    <glyph glyph-name="Idotaccent" unicode="&#x130;" horiz-adv-x="579" 
d="M465 1604l43 174h180l-45 -174h-178zM84 0l360 1446h146l-361 -1446h-145z" />
    <glyph glyph-name="dotlessi" unicode="&#x131;" horiz-adv-x="450" 
d="M27 0l266 1063h139l-266 -1063h-139z" />
    <glyph glyph-name="IJ" unicode="&#x132;" horiz-adv-x="1523" 
d="M84 0l360 1446h146l-361 -1446h-145zM1157 446l248 1000h145l-254 -1022q-57 -229 -173 -343t-328 -114q-197 0 -381 152l75 100q150 -119 308 -119q80 0 139.5 23t101 70.5t68.5 107t51 145.5z" />
    <glyph glyph-name="ij" unicode="&#x133;" horiz-adv-x="925" 
d="M811 1253l49 195h146l-48 -195h-147zM334 1251l49 195h147l-49 -195h-147zM768 1065h139l-262 -1051q-32 -131 -74 -219t-118 -151q-125 -104 -338 -138l-25 121q199 42 285 117q49 43 77 104t54 162zM293 1063h139l-266 -1063h-139z" />
    <glyph glyph-name="Jcircumflex" unicode="&#x134;" horiz-adv-x="1087" 
d="M731 1546l326 293h133l188 -293h-137l-129 207l-227 -207h-154zM1116 1446l-254 -1022q-57 -229 -173.5 -343t-328.5 -114q-196 0 -380 152l75 100q150 -119 307 -119q80 0 140 22.5t101.5 70t68.5 107t51 146.5l248 1000h145z" />
    <glyph glyph-name="jcircumflex" unicode="&#x135;" horiz-adv-x="489" 
d="M78 1225l330 309h137l174 -309h-133l-121 225l-236 -225h-151zM311 1063h140l-252 -1006q-49 -191 -107 -286q-134 -215 -395 -283l-31 115q112 35 178 81.5t119 118.5q51 68 96 246z" />
    <glyph glyph-name="Kcommaaccent" unicode="&#x136;" horiz-adv-x="1435" 
d="M1567 1446l-727 -600l448 -846h-166l-387 760l-397 -328l-109 -432h-145l360 1446h146l-203 -813l995 813h185zM461 -508l127 387h149l-155 -387h-121z" />
    <glyph glyph-name="kcommaaccent" unicode="&#x137;" horiz-adv-x="1087" 
d="M1169 1063l-585 -461l368 -602h-159l-318 526l-225 -172l-88 -354h-133l360 1446h133l-227 -914l698 531h176zM266 -483l115 377h143l-143 -377h-115z" />
    <glyph glyph-name="kgreenlandic" unicode="&#x138;" horiz-adv-x="1087" 
d="M1169 1063l-585 -461l368 -602h-159l-318 526l-225 -172l-88 -354h-133l264 1063h133l-131 -531l698 531h176z" />
    <glyph glyph-name="Lacute" unicode="&#x139;" horiz-adv-x="1368" 
d="M881 1870l-285 -322h-123l236 322h172zM264 137h924l-35 -137h-1069l360 1446h146z" />
    <glyph glyph-name="lacute" unicode="&#x13a;" horiz-adv-x="444" 
d="M414 1542l188 303h172l-250 -303h-110zM29 0l360 1446h137l-360 -1446h-137z" />
    <glyph glyph-name="Lcommaaccent" unicode="&#x13b;" horiz-adv-x="1366" 
d="M264 137h922l-35 -137h-1067l360 1446h146zM416 -508l127 387h149l-155 -387h-121z" />
    <glyph glyph-name="lcommaaccent" unicode="&#x13c;" horiz-adv-x="446" 
d="M31 0l360 1446h137l-360 -1446h-137zM-115 -483l115 377h143l-143 -377h-115z" />
    <glyph glyph-name="Lcaron" unicode="&#x13d;" horiz-adv-x="1366" 
d="M264 137h922l-35 -137h-1067l360 1446h146zM975 1446l-156 -326h-117l127 326h146z" />
    <glyph glyph-name="lcaron" unicode="&#x13e;" horiz-adv-x="544" 
d="M795 1448l-156 -326h-117l127 326h146zM29 0l360 1446h137l-360 -1446h-137z" />
    <glyph glyph-name="Ldot" unicode="&#x13f;" horiz-adv-x="1366" 
d="M264 137h922l-35 -137h-1067l360 1446h146zM1075 858l-47 -194h-178l47 194h178z" />
    <glyph glyph-name="ldot" unicode="&#x140;" horiz-adv-x="686" 
d="M29 0l360 1446h137l-360 -1446h-137zM481 647l47 195h179l-48 -195h-178z" />
    <glyph glyph-name="Lslash" unicode="&#x141;" horiz-adv-x="1349" 
d="M248 137h921l-34 -137h-1067l147 594l-233 -131l34 158l240 133l172 692h145l-149 -598l342 190l-37 -155l-344 -193z" />
    <glyph glyph-name="lslash" unicode="&#x142;" horiz-adv-x="565" 
d="M604 915l-29 -137l-167 -86l-172 -692h-138l152 610l-164 -86l29 138l170 88l174 696h137l-154 -615z" />
    <glyph glyph-name="Nacute" unicode="&#x143;" horiz-adv-x="1755" 
d="M1403 1870l-285 -322h-123l236 322h172zM1620 1446h145l-360 -1446h-137l-727 1243l-312 -1243h-145l360 1446h140l727 -1239z" />
    <glyph glyph-name="nacute" unicode="&#x144;" horiz-adv-x="1304" 
d="M1047 1528l-250 -303h-111l188 303h173zM858 1102q161 0 256.5 -86t95.5 -221q0 -64 -26 -166l-158 -629l-139 2l162 637q20 90 20 129t-12.5 73t-39.5 65t-79 49t-123 18q-126 0 -244 -59.5t-217 -161.5l-188 -752h-139l266 1063h125l-33 -160q233 199 473 199z" />
    <glyph glyph-name="Ncommaaccent" unicode="&#x145;" horiz-adv-x="1755" 
d="M1620 1446h145l-360 -1446h-137l-727 1243l-312 -1243h-145l360 1446h140l727 -1239zM547 -508l127 387h149l-155 -387h-121z" />
    <glyph glyph-name="ncommaaccent" unicode="&#x146;" horiz-adv-x="1304" 
d="M858 1102q161 0 256.5 -86t95.5 -221q0 -64 -26 -166l-158 -629l-139 2l162 637q20 90 20 129t-12.5 73t-39.5 65t-79 49t-123 18q-126 0 -244 -59.5t-217 -161.5l-188 -752h-139l266 1063h125l-33 -160q233 199 473 199zM348 -483l115 377h143l-143 -377h-115z" />
    <glyph glyph-name="Ncaron" unicode="&#x147;" horiz-adv-x="1755" 
d="M1178 1544h-142l-178 293h133l129 -207l234 207h143zM1620 1446h145l-360 -1446h-137l-727 1243l-312 -1243h-145l360 1446h140l727 -1239z" />
    <glyph glyph-name="ncaron" unicode="&#x148;" horiz-adv-x="1304" 
d="M860 1227h-131l-168 311h135l115 -223l225 223h146zM858 1102q161 0 256.5 -86t95.5 -221q0 -64 -26 -166l-158 -629l-139 2l162 637q20 90 20 129t-12.5 73t-39.5 65t-79 49t-123 18q-126 0 -244 -59.5t-217 -161.5l-188 -752h-139l266 1063h125l-33 -160
q233 199 473 199z" />
    <glyph glyph-name="napostrophe" unicode="&#x149;" horiz-adv-x="1290" 
d="M336 1507l-164 -323h-113l121 323h156zM844 1102q161 0 256.5 -86t95.5 -221q0 -60 -27 -166l-157 -629l-140 2l162 637q21 95 21 129q0 39 -12.5 73t-39.5 65t-79 49t-123 18q-126 0 -244 -59.5t-217 -161.5l-188 -752h-140l267 1063h124l-32 -160q233 199 473 199z" />
    <glyph glyph-name="Eng" unicode="&#x14a;" horiz-adv-x="1753" 
d="M1618 1446h145l-344 -1378q-22 -90 -32.5 -128.5t-30.5 -95t-45.5 -96.5t-63.5 -84q-108 -125 -338 -184l-39 129q116 33 182.5 70.5t118.5 113.5q42 62 86 205l-720 1229l-308 -1227h-145l360 1446h150l719 -1223z" />
    <glyph glyph-name="eng" unicode="&#x14b;" horiz-adv-x="1296" 
d="M1026 0q-73 -248 -168 -340q-122 -128 -323 -174l-27 115q142 42 244 131q46 42 76.5 103t54.5 155l166 649q20 75 20 129q0 39 -12.5 73t-39.5 65t-79 49t-123 18q-126 0 -244 -59.5t-217 -161.5l-188 -752h-139l266 1063h125l-33 -160q233 199 473 199q161 0 256.5 -86
t95.5 -221q0 -64 -26 -166z" />
    <glyph glyph-name="Omacron" unicode="&#x14c;" horiz-adv-x="1712" 
d="M772 1626l31 121h631l-31 -121h-631zM795 -33q-191 0 -337 72.5t-228.5 213t-82.5 331.5q0 142 40 275.5t117 245t182 196t242.5 131.5t291.5 47q297 0 472 -168t175 -449q0 -180 -63 -343t-174.5 -285t-276.5 -194.5t-358 -72.5zM801 104q164 0 301.5 62t228 167.5
t140 242t49.5 286.5q0 226 -136.5 353.5t-365.5 127.5q-157 0 -292.5 -61t-229 -164t-146.5 -242.5t-53 -293.5q0 -225 137 -351.5t367 -126.5z" />
    <glyph glyph-name="omacron" unicode="&#x14d;" horiz-adv-x="1288" 
d="M487 1305l29 116h631l-29 -116h-631zM563 -33q-233 0 -362 125.5t-129 331.5q0 139 49 263t135.5 216t212.5 145.5t272 53.5q233 0 363.5 -125t130.5 -332q0 -138 -49 -261.5t-135.5 -216t-213 -146.5t-274.5 -54zM569 92q162 0 283.5 78t182.5 203.5t61 277.5
q0 160 -96 243t-269 83q-121 0 -221 -43.5t-165 -118.5t-100.5 -175t-35.5 -214q0 -162 95 -248t265 -86z" />
    <glyph glyph-name="Obreve" unicode="&#x14e;" horiz-adv-x="1712" 
d="M1075 1550q-128 0 -194 65t-66 159q0 33 4 49h113q-4 -28 -4 -39q0 -65 40 -102t119 -37q87 0 147.5 46.5t86.5 131.5h117q-37 -128 -132 -200.5t-231 -72.5zM795 -33q-191 0 -337 72.5t-228.5 213t-82.5 331.5q0 142 40 275.5t117 245t182 196t242.5 131.5t291.5 47
q297 0 472 -168t175 -449q0 -180 -63 -343t-174.5 -285t-276.5 -194.5t-358 -72.5zM801 104q164 0 301.5 62t228 167.5t140 242t49.5 286.5q0 226 -136.5 353.5t-365.5 127.5q-157 0 -292.5 -61t-229 -164t-146.5 -242.5t-53 -293.5q0 -225 137 -351.5t367 -126.5z" />
    <glyph glyph-name="obreve" unicode="&#x14f;" horiz-adv-x="1288" 
d="M811 1214q-123 0 -192.5 63t-69.5 165q0 29 10 74h111q-6 -38 -6 -66q0 -70 40 -105.5t115 -35.5q94 0 160 54.5t88 152.5h113q-29 -140 -127 -221t-242 -81zM563 -33q-233 0 -362 125.5t-129 331.5q0 139 49 263t135.5 216t212.5 145.5t272 53.5q233 0 363.5 -125
t130.5 -332q0 -138 -49 -261.5t-135.5 -216t-213 -146.5t-274.5 -54zM569 92q162 0 283.5 78t182.5 203.5t61 277.5q0 160 -96 243t-269 83q-121 0 -221 -43.5t-165 -118.5t-100.5 -175t-35.5 -214q0 -162 95 -248t265 -86z" />
    <glyph glyph-name="Ohungarumlaut" unicode="&#x150;" horiz-adv-x="1712" 
d="M774 1552l227 320h166l-266 -320h-127zM1130 1552l228 320h166l-267 -320h-127zM795 -33q-191 0 -337 72.5t-228.5 213t-82.5 331.5q0 142 40 275.5t117 245t182 196t242.5 131.5t291.5 47q297 0 472 -168t175 -449q0 -180 -63 -343t-174.5 -285t-276.5 -194.5
t-358 -72.5zM801 104q164 0 301.5 62t228 167.5t140 242t49.5 286.5q0 226 -136.5 353.5t-365.5 127.5q-157 0 -292.5 -61t-229 -164t-146.5 -242.5t-53 -293.5q0 -225 137 -351.5t367 -126.5z" />
    <glyph glyph-name="ohungarumlaut" unicode="&#x151;" horiz-adv-x="1288" 
d="M541 1225l192 303h164l-248 -303h-108zM877 1225l192 303h162l-248 -303h-106zM563 -33q-233 0 -362 125.5t-129 331.5q0 139 49 263t135.5 216t212.5 145.5t272 53.5q233 0 363.5 -125t130.5 -332q0 -138 -49 -261.5t-135.5 -216t-213 -146.5t-274.5 -54zM569 92
q162 0 283.5 78t182.5 203.5t61 277.5q0 160 -96 243t-269 83q-121 0 -221 -43.5t-165 -118.5t-100.5 -175t-35.5 -214q0 -162 95 -248t265 -86z" />
    <glyph glyph-name="OE" unicode="&#x152;" horiz-adv-x="2340" 
d="M2431 1309h-911l-123 -492h821l-33 -135h-821l-135 -545h911l-35 -137h-1247q-340 0 -506 154t-166 442q0 179 63 334.5t178.5 270t288.5 180t382 65.5h1368zM848 131h233l295 1184h-284q-176 0 -321.5 -59.5t-239 -160t-144.5 -229.5t-51 -272q0 -232 132 -347.5
t380 -115.5z" />
    <glyph glyph-name="oe" unicode="&#x153;" horiz-adv-x="2199" 
d="M1696 1102q200 0 324 -107t124 -286q0 -61 -14 -130t-39 -112h-899q-10 -174 90 -275.5t281 -101.5q216 0 405 143l60 -92q-107 -84 -234 -129t-258 -45q-171 0 -286 75t-163 202q-87 -130 -225 -203.5t-311 -73.5q-229 0 -354 126t-125 335q0 95 25.5 189.5t80 182
t130 155t184.5 107.5t235 40q172 0 288 -71t163 -197q85 122 219.5 195t298.5 73zM2001 584q14 52 14 108q0 127 -78.5 209t-232.5 82q-179 0 -312.5 -111t-181.5 -288h791zM1071 670q0 147 -93.5 227t-256.5 80q-101 0 -186.5 -32t-144.5 -85t-100.5 -123.5t-61 -147.5
t-19.5 -157q0 -170 91.5 -255t260.5 -85q90 0 166 24.5t127 64t91 93.5t63 107.5t38 111t20 99.5t5 78z" />
    <glyph glyph-name="Racute" unicode="&#x154;" horiz-adv-x="1597" 
d="M1300 1870l-284 -322h-123l235 322h172zM1575 1087q0 -210 -118.5 -338t-332.5 -161l209 -588h-170l-200 578h-590l-144 -578h-145l360 1446h668q223 0 343 -95t120 -264zM971 715q218 0 334 91.5t116 270.5q0 232 -325 232h-541l-147 -594h563z" />
    <glyph glyph-name="racute" unicode="&#x155;" horiz-adv-x="882" 
d="M862 1528l-250 -303h-110l188 303h172zM793 1085q72 0 137 -26l-43 -137q-78 30 -158 30q-107 0 -205.5 -52.5t-169.5 -145.5l-188 -754h-139l266 1063h129l-41 -164q85 85 190.5 135.5t221.5 50.5z" />
    <glyph glyph-name="Rcommaaccent" unicode="&#x156;" horiz-adv-x="1597" 
d="M1575 1087q0 -210 -118.5 -338t-332.5 -161l209 -588h-170l-200 578h-590l-144 -578h-145l360 1446h668q223 0 343 -95t120 -264zM971 715q218 0 334 91.5t116 270.5q0 232 -325 232h-541l-147 -594h563zM485 -508l127 387h150l-156 -387h-121z" />
    <glyph glyph-name="rcommaaccent" unicode="&#x157;" horiz-adv-x="919" 
d="M799 1085q72 0 137 -26l-43 -137q-78 30 -158 30q-107 0 -205.5 -52.5t-169.5 -145.5l-188 -754h-139l266 1063h129l-41 -164q85 85 190.5 135.5t221.5 50.5zM-100 -483l116 377h144l-144 -377h-116z" />
    <glyph glyph-name="Rcaron" unicode="&#x158;" horiz-adv-x="1597" 
d="M1053 1544h-142l-178 293h133l129 -207l234 207h143zM1575 1087q0 -210 -118.5 -338t-332.5 -161l209 -588h-170l-200 578h-590l-144 -578h-145l360 1446h668q223 0 343 -95t120 -264zM971 715q218 0 334 91.5t116 270.5q0 232 -325 232h-541l-147 -594h563z" />
    <glyph glyph-name="rcaron" unicode="&#x159;" horiz-adv-x="864" 
d="M659 1227h-131l-168 311h136l114 -223l226 223h145zM772 1085q72 0 137 -26l-43 -137q-78 30 -157 30q-104 0 -202 -51.5t-171 -142.5l-189 -758h-139l266 1063h129l-41 -162q83 83 189.5 133.5t220.5 50.5z" />
    <glyph glyph-name="Sacute" unicode="&#x15a;" horiz-adv-x="1425" 
d="M780 1548l236 322h172l-285 -322h-123zM1358 1219q-220 124 -484 124q-133 0 -234 -29.5t-162.5 -93t-63.5 -153.5q-1 -45 20.5 -82t54 -64t93 -54t116 -46t144.5 -45q58 -16 101 -30.5t92.5 -34.5t85 -40.5t70 -49t55 -60t33 -72.5t11.5 -88q-1 -129 -82.5 -228
t-223.5 -152.5t-320 -53.5q-173 0 -329.5 53t-266.5 150l77 104q240 -170 525 -170q198 0 330 75t133 198q1 40 -16.5 73t-45 57t-79.5 48t-101 41t-129 41q-66 20 -113.5 35.5t-103.5 38.5t-94 45.5t-76.5 54t-61 66.5t-35.5 80.5t-12 97.5q5 138 93.5 235.5t228 143
t313.5 45.5q287 0 518 -150z" />
    <glyph glyph-name="sacute" unicode="&#x15b;" horiz-adv-x="1103" 
d="M547 1225l188 303h172l-250 -303h-110zM27 133l77 94q80 -63 186.5 -99t215.5 -36q133 0 227 54t94 149q0 26 -9.5 47.5t-31 39t-42.5 30.5t-58.5 26.5t-64 21.5t-74 22t-74.5 22q-68 21 -118.5 44.5t-94.5 56.5t-67 78t-23 101q0 138 121 228t346 90q238 0 416 -127
l-74 -98q-167 104 -356 104q-147 0 -230.5 -49.5t-83.5 -130.5q0 -37 18.5 -66t56.5 -50.5t73 -34.5t90 -29q20 -6 58.5 -16.5t60.5 -17t57.5 -18t57.5 -21t51 -24.5t47 -29.5t38 -34.5t31 -42.5t18 -50.5t7 -60q0 -107 -67.5 -186t-173 -116.5t-232.5 -37.5
q-134 0 -259.5 44t-213.5 122z" />
    <glyph glyph-name="Scircumflex" unicode="&#x15c;" horiz-adv-x="1425" 
d="M588 1556l325 293h134l188 -293h-137l-129 207l-228 -207h-153zM1358 1219q-220 124 -484 124q-133 0 -234 -29.5t-162.5 -93t-63.5 -153.5q-1 -45 20.5 -82t54 -64t93 -54t116 -46t144.5 -45q58 -16 101 -30.5t92.5 -34.5t85 -40.5t70 -49t55 -60t33 -72.5t11.5 -88
q-1 -129 -82.5 -228t-223.5 -152.5t-320 -53.5q-173 0 -329.5 53t-266.5 150l77 104q240 -170 525 -170q198 0 330 75t133 198q1 40 -16.5 73t-45 57t-79.5 48t-101 41t-129 41q-66 20 -113.5 35.5t-103.5 38.5t-94 45.5t-76.5 54t-61 66.5t-35.5 80.5t-12 97.5
q5 138 93.5 235.5t228 143t313.5 45.5q287 0 518 -150z" />
    <glyph glyph-name="scircumflex" unicode="&#x15d;" horiz-adv-x="1103" 
d="M369 1229l329 309h138l174 -309h-133l-121 225l-236 -225h-151zM27 133l77 94q80 -63 186.5 -99t215.5 -36q133 0 227 54t94 149q0 26 -9.5 47.5t-31 39t-42.5 30.5t-58.5 26.5t-64 21.5t-74 22t-74.5 22q-68 21 -118.5 44.5t-94.5 56.5t-67 78t-23 101q0 138 121 228
t346 90q238 0 416 -127l-74 -98q-167 104 -356 104q-147 0 -230.5 -49.5t-83.5 -130.5q0 -37 18.5 -66t56.5 -50.5t73 -34.5t90 -29q20 -6 58.5 -16.5t60.5 -17t57.5 -18t57.5 -21t51 -24.5t47 -29.5t38 -34.5t31 -42.5t18 -50.5t7 -60q0 -107 -67.5 -186t-173 -116.5
t-232.5 -37.5q-134 0 -259.5 44t-213.5 122z" />
    <glyph glyph-name="Scedilla" unicode="&#x15e;" horiz-adv-x="1425" 
d="M874 1343q-133 0 -234 -29.5t-162.5 -93t-63.5 -153.5q-1 -45 20.5 -82t54 -64t93 -54t116 -46t144.5 -45q58 -16 101 -30.5t92.5 -34.5t85 -40.5t70 -49t55 -60t33 -72.5t11.5 -88q-1 -125 -77.5 -222t-210 -151.5t-304.5 -60.5l-67 -104h16q78 -1 121 -46t43 -108
q0 -76 -71.5 -137t-194.5 -61q-55 0 -108.5 16.5t-88.5 44.5l47 61q55 -36 133 -36t120 33t42 75q0 41 -37 68.5t-104 27.5q-4 0 -17 -1t-22 -1l-4 31l94 139q-156 9 -294 61t-238 140l77 104q240 -170 525 -170q198 0 330 75t133 198q1 40 -16.5 73t-45 57t-79.5 48
t-101 41t-129 41q-66 20 -113.5 35.5t-103.5 38.5t-94 45.5t-76.5 54t-61 66.5t-35.5 80.5t-12 97.5q5 138 93.5 235.5t228 143t313.5 45.5q287 0 518 -150l-61 -110q-220 124 -484 124z" />
    <glyph glyph-name="scedilla" unicode="&#x15f;" horiz-adv-x="1103" 
d="M623 981q-147 0 -230.5 -49.5t-83.5 -130.5q0 -37 18.5 -66t56.5 -50.5t73 -34.5t90 -29q20 -6 58.5 -16.5t60.5 -17t57.5 -18t57.5 -21t51 -24.5t47 -29.5t38 -34.5t31 -42.5t18 -50.5t7 -60q0 -78 -36 -142t-98 -105.5t-141.5 -65t-169.5 -27.5l-65 -98h16
q78 -3 121 -48t43 -108q0 -76 -71.5 -137t-194.5 -61q-121 0 -197 63l47 60q61 -35 133 -35q79 0 120.5 32t41.5 74q0 41 -37 68.5t-104 27.5h-39l-4 29l92 135q-115 10 -220.5 53t-182.5 111l77 94q80 -63 186.5 -99t215.5 -36q133 0 227 54t94 149q0 26 -9.5 47.5t-31 39
t-42.5 30.5t-58.5 26.5t-64 21.5t-74 22t-74.5 22q-68 21 -118.5 44.5t-94.5 56.5t-67 78t-23 101q0 138 121 228t346 90q238 0 416 -127l-74 -98q-167 104 -356 104z" />
    <glyph glyph-name="Scaron" unicode="&#x160;" horiz-adv-x="1425" 
d="M831 1544l-178 293h133l129 -207l234 207h143l-319 -293h-142zM1358 1219q-220 124 -484 124q-133 0 -234 -29.5t-162.5 -93t-63.5 -153.5q-1 -45 20.5 -82t54 -64t93 -54t116 -46t144.5 -45q58 -16 101 -30.5t92.5 -34.5t85 -40.5t70 -49t55 -60t33 -72.5t11.5 -88
q-1 -129 -82.5 -228t-223.5 -152.5t-320 -53.5q-173 0 -329.5 53t-266.5 150l77 104q240 -170 525 -170q198 0 330 75t133 198q1 40 -16.5 73t-45 57t-79.5 48t-101 41t-129 41q-66 20 -113.5 35.5t-103.5 38.5t-94 45.5t-76.5 54t-61 66.5t-35.5 80.5t-12 97.5
q5 138 93.5 235.5t228 143t313.5 45.5q287 0 518 -150z" />
    <glyph glyph-name="scaron" unicode="&#x161;" horiz-adv-x="1103" 
d="M604 1227l-168 311h135l115 -223l225 223h146l-322 -311h-131zM27 133l77 94q80 -63 186.5 -99t215.5 -36q133 0 227 54t94 149q0 26 -9.5 47.5t-31 39t-42.5 30.5t-58.5 26.5t-64 21.5t-74 22t-74.5 22q-68 21 -118.5 44.5t-94.5 56.5t-67 78t-23 101q0 138 121 228
t346 90q238 0 416 -127l-74 -98q-167 104 -356 104q-147 0 -230.5 -49.5t-83.5 -130.5q0 -37 18.5 -66t56.5 -50.5t73 -34.5t90 -29q20 -6 58.5 -16.5t60.5 -17t57.5 -18t57.5 -21t51 -24.5t47 -29.5t38 -34.5t31 -42.5t18 -50.5t7 -60q0 -107 -67.5 -186t-173 -116.5
t-232.5 -37.5q-134 0 -259.5 44t-213.5 122z" />
    <glyph glyph-name="Tcaron" unicode="&#x164;" horiz-adv-x="1353" 
d="M985 1544h-141l-178 293h133l129 -207l233 207h144zM1530 1446l-33 -137h-563l-328 -1309h-145l327 1309h-563l35 137h1270z" />
    <glyph glyph-name="tcaron" unicode="&#x165;" horiz-adv-x="868" 
d="M944 1552l-156 -325h-116l127 325h145zM555 1370l-76 -307h373l-37 -119h-366l-142 -569q-26 -98 -26 -156q0 -127 153 -127q112 0 232 49l-21 -116q-123 -58 -231 -58q-134 0 -203.5 60.5t-69.5 165.5q0 16 1.5 34t3.5 32t7 36.5t7.5 33t9 38t8.5 36.5l135 541h-170
l31 119h174l86 307h121z" />
    <glyph glyph-name="Tbar" unicode="&#x166;" horiz-adv-x="1353" 
d="M1497 1309h-563l-133 -527h352l-33 -129h-350l-164 -653h-145l164 653h-324l31 129h323l133 527h-563l35 137h1270z" />
    <glyph glyph-name="tbar" unicode="&#x167;" horiz-adv-x="868" 
d="M815 944h-366l-74 -297h387l-29 -112h-387l-39 -160q-26 -98 -26 -156q0 -127 153 -127q112 0 232 49l-21 -116q-123 -58 -231 -58q-134 0 -203.5 60.5t-69.5 165.5q0 16 1.5 34t3.5 32t7 36.5t7.5 33t9 38t8.5 36.5l33 132h-150l29 112h150l73 297h-170l31 119h174
l86 307h121l-76 -307h373z" />
    <glyph glyph-name="Utilde" unicode="&#x168;" horiz-adv-x="1697" 
d="M1290 1548q-40 0 -76 15.5t-62.5 37.5t-51.5 44t-53.5 37.5t-57.5 15.5q-98 0 -172 -142h-102q58 131 133 190.5t153 59.5q40 0 75 -15.5t60.5 -37t50 -43.5t54 -37.5t62.5 -15.5q100 0 172 141h96q-59 -133 -132.5 -191.5t-148.5 -58.5zM414 1446h147l-209 -838
q-22 -83 -22 -153q0 -170 115.5 -260.5t320.5 -90.5q241 0 397 120.5t209 336.5l217 885h148l-226 -907q-65 -269 -260.5 -420.5t-492.5 -151.5q-170 0 -297.5 53.5t-201 162.5t-73.5 261q0 87 27 189z" />
    <glyph glyph-name="utilde" unicode="&#x169;" 
d="M686 1389q-95 0 -172 -148h-102q54 130 134.5 190t160.5 60q40 0 74 -16t58 -39t47 -46t51.5 -39t61.5 -16q96 0 172 148h97q-55 -131 -132 -189.5t-155 -58.5q-40 0 -75.5 16t-61 38.5t-49.5 45t-52 38.5t-57 16zM1135 1063h139l-266 -1063h-125l37 176
q-212 -209 -467 -209q-174 0 -264.5 89.5t-90.5 224.5q0 76 39 233l137 549l142 -2l-148 -592q-24 -105 -24 -156q0 -105 71 -161t185 -56q107 0 226.5 55.5t223.5 178.5z" />
    <glyph glyph-name="Umacron" unicode="&#x16a;" horiz-adv-x="1697" 
d="M784 1626l31 121h631l-31 -121h-631zM414 1446h147l-209 -838q-22 -83 -22 -153q0 -170 115.5 -260.5t320.5 -90.5q241 0 397 120.5t209 336.5l217 885h148l-226 -907q-65 -269 -260.5 -420.5t-492.5 -151.5q-170 0 -297.5 53.5t-201 162.5t-73.5 261q0 87 27 189z" />
    <glyph glyph-name="umacron" unicode="&#x16b;" 
d="M1155 1421l-29 -116h-630l28 116h631zM1135 1063h139l-266 -1063h-125l37 176q-212 -209 -467 -209q-174 0 -264.5 89.5t-90.5 224.5q0 76 39 233l137 549l142 -2l-148 -592q-24 -105 -24 -156q0 -105 71 -161t185 -56q107 0 226.5 55.5t223.5 178.5z" />
    <glyph glyph-name="Ubreve" unicode="&#x16c;" horiz-adv-x="1697" 
d="M1096 1542q-128 0 -194 64.5t-66 158.5q0 34 4 50h112q-4 -28 -4 -39q0 -65 40.5 -102.5t119.5 -37.5q87 0 146.5 46.5t86.5 132.5h117q-37 -128 -132 -200.5t-230 -72.5zM414 1446h147l-209 -838q-22 -83 -22 -153q0 -170 115.5 -260.5t320.5 -90.5q241 0 397 120.5
t209 336.5l217 885h148l-226 -907q-65 -269 -260.5 -420.5t-492.5 -151.5q-170 0 -297.5 53.5t-201 162.5t-73.5 261q0 87 27 189z" />
    <glyph glyph-name="ubreve" unicode="&#x16d;" 
d="M780 1214q-123 0 -192.5 63t-69.5 165q0 29 10 74h111q-6 -38 -6 -66q0 -70 40 -105.5t115 -35.5q94 0 160 54.5t88 152.5h113q-29 -140 -127 -221t-242 -81zM1135 1063h139l-266 -1063h-125l37 176q-212 -209 -467 -209q-174 0 -264.5 89.5t-90.5 224.5q0 76 39 233
l137 549l142 -2l-148 -592q-24 -105 -24 -156q0 -105 71 -161t185 -56q107 0 226.5 55.5t223.5 178.5z" />
    <glyph glyph-name="Uring" unicode="&#x16e;" horiz-adv-x="1697" 
d="M1073 1511q-76 0 -127 47.5t-51 120.5q0 101 72.5 166.5t169.5 65.5q74 0 126 -49.5t52 -122.5q0 -92 -68 -160t-174 -68zM1085 1591q58 0 100 40t42 104q0 44 -29.5 70t-71.5 26q-60 0 -100.5 -41t-40.5 -100q0 -42 27.5 -70.5t72.5 -28.5zM414 1446h147l-209 -838
q-22 -83 -22 -153q0 -170 115.5 -260.5t320.5 -90.5q241 0 397 120.5t209 336.5l217 885h148l-226 -907q-65 -269 -260.5 -420.5t-492.5 -151.5q-170 0 -297.5 53.5t-201 162.5t-73.5 261q0 87 27 189z" />
    <glyph glyph-name="uring" unicode="&#x16f;" 
d="M786 1194q-76 0 -126 46.5t-50 119.5q0 95 70.5 164t173.5 69q74 0 125 -49.5t51 -122.5q0 -91 -69 -159t-175 -68zM842 1513q-60 0 -102 -41t-42 -100q0 -46 29 -72t72 -26q56 0 98.5 40.5t42.5 102.5q0 44 -29 70t-69 26zM1135 1063h139l-266 -1063h-125l37 176
q-212 -209 -467 -209q-174 0 -264.5 89.5t-90.5 224.5q0 76 39 233l137 549l142 -2l-148 -592q-24 -105 -24 -156q0 -105 71 -161t185 -56q107 0 226.5 55.5t223.5 178.5z" />
    <glyph glyph-name="Uhungarumlaut" unicode="&#x170;" horiz-adv-x="1697" 
d="M813 1552l227 320h166l-266 -320h-127zM1169 1552l228 320h166l-267 -320h-127zM414 1446h147l-209 -838q-22 -83 -22 -153q0 -170 115.5 -260.5t320.5 -90.5q241 0 397 120.5t209 336.5l217 885h148l-226 -907q-65 -269 -260.5 -420.5t-492.5 -151.5q-170 0 -297.5 53.5
t-201 162.5t-73.5 261q0 87 27 189z" />
    <glyph glyph-name="uhungarumlaut" unicode="&#x171;" 
d="M893 1528l-248 -303h-108l192 303h164zM981 1225h-107l193 303h162zM1135 1063h139l-266 -1063h-125l37 176q-212 -209 -467 -209q-174 0 -264.5 89.5t-90.5 224.5q0 76 39 233l137 549l142 -2l-148 -592q-24 -105 -24 -156q0 -105 71 -161t185 -56q107 0 226.5 55.5
t223.5 178.5z" />
    <glyph glyph-name="Uogonek" unicode="&#x172;" horiz-adv-x="1697" 
d="M1589 1446h148l-226 -907q-95 -392 -497 -539q-49 -18 -93.5 -41.5t-87.5 -56.5t-68.5 -75.5t-25.5 -88.5q0 -44 24.5 -67t67.5 -23q47 0 93 24l30 -104q-73 -43 -159 -43q-88 0 -136.5 48.5t-48.5 121.5q0 157 193 272h-45q-170 0 -297.5 53.5t-201 162.5t-73.5 261
q0 87 27 189l201 813h147l-209 -838q-22 -83 -22 -153q0 -170 115.5 -260.5t320.5 -90.5q241 0 397 120.5t209 336.5z" />
    <glyph glyph-name="uogonek" unicode="&#x173;" horiz-adv-x="1265" 
d="M1008 0q-125 -47 -186.5 -114.5t-61.5 -135.5q0 -48 31.5 -76t80.5 -28q41 0 78 16l45 -84q-77 -51 -164 -51q-90 0 -140 53.5t-50 134.5q0 179 246 305l33 156q-212 -209 -467 -209q-174 0 -264.5 89.5t-90.5 224.5q0 76 39 233l137 549l142 -2l-148 -592
q-24 -105 -24 -156q0 -105 71 -161t185 -56q107 0 226.5 55.5t223.5 178.5l185 733h139z" />
    <glyph glyph-name="Wcircumflex" unicode="&#x174;" horiz-adv-x="2101" 
d="M1346 1763l-228 -207h-153l325 293h133l189 -293h-137zM2101 1446h158l-805 -1446h-143l-107 1149l-680 -1149h-153l-88 1446h151l66 -1237l676 1126h139l106 -1132z" />
    <glyph glyph-name="wcircumflex" unicode="&#x175;" horiz-adv-x="1753" 
d="M1081 1442l-235 -225h-152l330 309h137l174 -309h-133zM1683 1063h158l-659 -1063h-150l-92 881l-532 -881h-152l-123 1063h143l93 -901l546 901h129l101 -901z" />
    <glyph glyph-name="Ycircumflex" unicode="&#x176;" horiz-adv-x="1286" 
d="M936 1763l-227 -207h-154l326 293h133l188 -293h-137zM1317 1446h172l-770 -893l-141 -553h-146l143 571l-329 875h162l268 -748z" />
    <glyph glyph-name="ycircumflex" unicode="&#x177;" horiz-adv-x="1277" 
d="M852 1442l-236 -225h-151l330 309h137l174 -309h-133zM1122 1063h138l-252 -1016q-68 -262 -189 -383q-80 -76 -198.5 -116t-251.5 -40q-106 0 -211 25t-183 70l52 110q150 -80 348 -80q137 0 248 52t172 163q77 137 112 322q-209 -203 -458 -203q-173 0 -265 90t-92 222
q0 77 45 253l133 531h140l-144 -578q-30 -131 -30 -174q0 -102 71 -158.5t187 -56.5q105 0 222.5 52.5t221.5 170.5z" />
    <glyph glyph-name="Ydieresis" unicode="&#x178;" horiz-adv-x="1286" 
d="M821 1761l-41 -170h-174l43 170h172zM1204 1761l-43 -170h-172l43 170h172zM1317 1446h172l-770 -893l-141 -553h-146l143 571l-329 875h162l268 -748z" />
    <glyph glyph-name="Zacute" unicode="&#x179;" horiz-adv-x="1460" 
d="M1286 1870l-285 -322h-122l235 322h172zM1552 1446l-28 -125l-1262 -1188h998l-35 -133h-1186l29 117l1267 1198h-956l33 131h1140z" />
    <glyph glyph-name="zacute" unicode="&#x17a;" horiz-adv-x="1159" 
d="M995 1528l-250 -303h-110l188 303h172zM1165 1063l-24 -94l-944 -846h761l-32 -123h-946l26 102l936 842h-704l30 119h897z" />
    <glyph glyph-name="Zdotaccent" unicode="&#x17b;" horiz-adv-x="1460" 
d="M1120 1778l-45 -174h-178l43 174h180zM1552 1446l-28 -125l-1262 -1188h998l-35 -133h-1186l29 117l1267 1198h-956l33 131h1140z" />
    <glyph glyph-name="zdotaccent" unicode="&#x17c;" horiz-adv-x="1159" 
d="M848 1446l-47 -193h-152l47 193h152zM1165 1063l-24 -94l-944 -846h761l-32 -123h-946l26 102l936 842h-704l30 119h897z" />
    <glyph glyph-name="Zcaron" unicode="&#x17d;" horiz-adv-x="1460" 
d="M1053 1556h-142l-178 293h133l129 -207l234 207h143zM1552 1446l-28 -125l-1262 -1188h998l-35 -133h-1186l29 117l1267 1198h-956l33 131h1140z" />
    <glyph glyph-name="zcaron" unicode="&#x17e;" horiz-adv-x="1159" 
d="M793 1227h-131l-168 311h135l114 -223l226 223h145zM1165 1063l-24 -94l-944 -846h761l-32 -123h-946l26 102l936 842h-704l30 119h897z" />
    <glyph glyph-name="Scommaaccent" unicode="&#x218;" horiz-adv-x="1425" 
d="M1358 1219q-220 124 -484 124q-133 0 -234 -29.5t-162.5 -93t-63.5 -153.5q-1 -45 20.5 -82t54 -64t93 -54t116 -46t144.5 -45q58 -16 101 -30.5t92.5 -34.5t85 -40.5t70 -49t55 -60t33 -72.5t11.5 -88q-1 -129 -82.5 -228t-223.5 -152.5t-320 -53.5q-173 0 -329.5 53
t-266.5 150l77 104q240 -170 525 -170q198 0 330 75t133 198q1 40 -16.5 73t-45 57t-79.5 48t-101 41t-129 41q-66 20 -113.5 35.5t-103.5 38.5t-94 45.5t-76.5 54t-61 66.5t-35.5 80.5t-12 97.5q5 138 93.5 235.5t228 143t313.5 45.5q287 0 518 -150zM471 -508l127 387h150
l-156 -387h-121z" />
    <glyph glyph-name="scommaaccent" unicode="&#x219;" horiz-adv-x="1103" 
d="M27 133l77 94q80 -63 186.5 -99t215.5 -36q133 0 227 54t94 149q0 26 -9.5 47.5t-31 39t-42.5 30.5t-58.5 26.5t-64 21.5t-74 22t-74.5 22q-68 21 -118.5 44.5t-94.5 56.5t-67 78t-23 101q0 138 121 228t346 90q238 0 416 -127l-74 -98q-167 104 -356 104
q-147 0 -230.5 -49.5t-83.5 -130.5q0 -37 18.5 -66t56.5 -50.5t73 -34.5t90 -29q20 -6 58.5 -16.5t60.5 -17t57.5 -18t57.5 -21t51 -24.5t47 -29.5t38 -34.5t31 -42.5t18 -50.5t7 -60q0 -107 -67.5 -186t-173 -116.5t-232.5 -37.5q-134 0 -259.5 44t-213.5 122zM311 -483
l115 377h143l-143 -377h-115z" />
    <glyph glyph-name="uni021A" unicode="&#x21a;" horiz-adv-x="1353" 
d="M1530 1446l-33 -137h-563l-328 -1309h-145l327 1309h-563l35 137h1270zM305 -508l127 387h150l-156 -387h-121z" />
    <glyph glyph-name="uni021B" unicode="&#x21b;" horiz-adv-x="868" 
d="M449 944l-142 -569q-26 -98 -26 -156q0 -127 153 -127q112 0 232 49l-21 -116q-123 -58 -231 -58q-134 0 -203.5 60.5t-69.5 165.5q0 16 1.5 34t3.5 32t7 36.5t7.5 33t9 38t8.5 36.5l135 541h-170l31 119h174l86 307h121l-76 -307h373l-37 -119h-366zM180 -483l115 377
h143l-143 -377h-115z" />
    <glyph glyph-name="uni0237" unicode="&#x237;" horiz-adv-x="489" 
d="M311 1063h140l-252 -1006q-49 -191 -107 -286q-134 -215 -395 -283l-31 115q112 35 178 81.5t119 118.5q51 68 96 246z" />
    <glyph glyph-name="circumflex" unicode="&#x2c6;" horiz-adv-x="1030" 
d="M176 1237l330 309h137l174 -309h-133l-121 225l-235 -225h-152z" />
    <glyph glyph-name="caron" unicode="&#x2c7;" horiz-adv-x="970" 
d="M332 1235l-178 293h133l129 -207l233 207h144l-320 -293h-141z" />
    <glyph glyph-name="breve" unicode="&#x2d8;" horiz-adv-x="800" 
d="M406 1227q-124 0 -193.5 62.5t-69.5 164.5q0 24 11 74h110q-6 -38 -6 -66q0 -70 40.5 -105.5t115.5 -35.5q94 0 160 54.5t88 152.5h112q-29 -140 -126.5 -220.5t-241.5 -80.5z" />
    <glyph glyph-name="dotaccent" unicode="&#x2d9;" horiz-adv-x="540" 
d="M170 1253l47 193h152l-47 -193h-152z" />
    <glyph glyph-name="ring" unicode="&#x2da;" horiz-adv-x="704" 
d="M332 1194q-76 0 -126 46.5t-50 119.5q0 95 70 164t173 69q74 0 125 -49.5t51 -122.5q0 -91 -69 -159t-174 -68zM346 1274q56 0 98.5 40.5t42.5 102.5q0 44 -29 70t-69 26q-60 0 -101.5 -41t-41.5 -100q0 -46 28.5 -72t71.5 -26z" />
    <glyph glyph-name="ogonek" unicode="&#x2db;" horiz-adv-x="716" 
d="M305 -473q-80 0 -122 45.5t-42 112.5q0 94 71 176t245 178l30 -39q-215 -151 -215 -266q0 -42 25 -65t72 -23q40 0 86 20l26 -88q-90 -51 -176 -51z" />
    <glyph glyph-name="tilde" unicode="&#x2dc;" horiz-adv-x="1013" 
d="M645 1262q-40 0 -75.5 16t-61 38t-49.5 44.5t-52 38.5t-57 16q-95 0 -172 -147h-102q54 130 134.5 190t160.5 60q40 0 74 -16t58 -39t47.5 -46t52 -39t61.5 -16q97 0 172 147h96q-55 -131 -132 -189t-155 -58z" />
    <glyph glyph-name="hungarumlaut" unicode="&#x2dd;" horiz-adv-x="864" 
d="M133 1237l193 303h163l-247 -303h-109zM471 1237l193 303h161l-247 -303h-107z" />
    <glyph glyph-name="uni0394" unicode="&#x394;" horiz-adv-x="1679" 
d="M-109 -231l33 139l1098 1571h174l315 -1571l-34 -139h-1586zM86 -96h1274l-275 1435z" />
    <glyph glyph-name="uni03A9" unicode="&#x3a9;" horiz-adv-x="1701" 
d="M1661 928q0 -249 -142.5 -461.5t-383.5 -335.5h303l-35 -131h-518l30 125q143 54 255 142t181 192t104.5 216.5t35.5 225.5q0 205 -121.5 323.5t-337.5 118.5q-160 0 -295.5 -66t-223 -173t-136.5 -239.5t-49 -268.5q0 -320 258 -471l-31 -125h-522l33 131h362
q-125 76 -196.5 203t-71.5 280q0 128 39.5 253.5t117 235.5t183.5 194t249 133t304 49q282 0 445 -150.5t163 -400.5z" />
    <glyph glyph-name="uni03BC" unicode="&#x3bc;" horiz-adv-x="1312" 
d="M1073 213q-16 -66 -3 -91.5t60 -25.5q53 0 95 21l-23 -123q-75 -27 -133 -27q-89 0 -124.5 60t-14.5 149q-216 -209 -475 -209q-64 0 -119 13.5t-87 34t-50.5 37t-24.5 28.5l-139 -555h-137l385 1538h137v-2h4l-154 -617q-43 -168 8.5 -258t221.5 -90q119 0 245 65
t218 175l182 727h139z" />
    <glyph glyph-name="pi" unicode="&#x3c0;" horiz-adv-x="1492" 
d="M1247 971l-143 -578q-4 -19 -13 -56.5t-13.5 -57.5t-8.5 -44.5t-4 -41.5q0 -36 22.5 -60t65.5 -24q50 0 160 45l-21 -117q-96 -47 -182 -47q-91 0 -138.5 47.5t-47.5 126.5q0 67 41 221l145 586h-545l-241 -971h-140l242 971q-86 -3 -148 -37.5t-143 -110.5l-59 64
q104 112 204.5 160.5t235.5 48.5h1020l-31 -125h-258z" />
    <glyph glyph-name="Wgrave" unicode="&#x1e80;" horiz-adv-x="2101" 
d="M1311 1556h-125l-135 318h170zM2101 1446h158l-805 -1446h-143l-107 1149l-680 -1149h-153l-88 1446h151l66 -1237l676 1126h139l106 -1132z" />
    <glyph glyph-name="wgrave" unicode="&#x1e81;" horiz-adv-x="1753" 
d="M1057 1223h-111l-166 303h174zM1683 1063h158l-659 -1063h-150l-92 881l-532 -881h-152l-123 1063h143l93 -901l546 901h129l101 -901z" />
    <glyph glyph-name="Wacute" unicode="&#x1e82;" horiz-adv-x="2101" 
d="M1616 1870l-285 -322h-123l236 322h172zM2101 1446h158l-805 -1446h-143l-107 1149l-680 -1149h-153l-88 1446h151l66 -1237l676 1126h139l106 -1132z" />
    <glyph glyph-name="wacute" unicode="&#x1e83;" horiz-adv-x="1753" 
d="M1292 1528l-250 -303h-110l188 303h172zM1683 1063h158l-659 -1063h-150l-92 881l-532 -881h-152l-123 1063h143l93 -901l546 901h129l101 -901z" />
    <glyph glyph-name="Wdieresis" unicode="&#x1e84;" horiz-adv-x="2101" 
d="M1235 1761l-41 -170h-174l43 170h172zM1618 1761l-43 -170h-172l43 170h172zM2101 1446h158l-805 -1446h-143l-107 1149l-680 -1149h-153l-88 1446h151l66 -1237l676 1126h139l106 -1132z" />
    <glyph glyph-name="wdieresis" unicode="&#x1e85;" horiz-adv-x="1753" 
d="M954 1450l-41 -162h-168l41 162h168zM1346 1450l-43 -162h-166l41 162h168zM1683 1063h158l-659 -1063h-150l-92 881l-532 -881h-152l-123 1063h143l93 -901l546 901h129l101 -901z" />
    <glyph glyph-name="Ygrave" unicode="&#x1ef2;" horiz-adv-x="1286" 
d="M924 1556h-125l-135 318h170zM1317 1446h172l-770 -893l-141 -553h-146l143 571l-329 875h162l268 -748z" />
    <glyph glyph-name="ygrave" unicode="&#x1ef3;" horiz-adv-x="1277" 
d="M856 1223h-111l-165 303h174zM1122 1063h138l-252 -1016q-68 -262 -189 -383q-80 -76 -198.5 -116t-251.5 -40q-106 0 -211 25t-183 70l52 110q150 -80 348 -80q137 0 248 52t172 163q77 137 112 322q-209 -203 -458 -203q-173 0 -265 90t-92 222q0 77 45 253l133 531
h140l-144 -578q-30 -131 -30 -174q0 -102 71 -158.5t187 -56.5q105 0 222.5 52.5t221.5 170.5z" />
    <glyph glyph-name="uni2009" unicode="&#x2009;" horiz-adv-x="153" 
 />
    <glyph glyph-name="endash" unicode="&#x2013;" horiz-adv-x="1525" 
d="M145 584l31 129h1229l-31 -129h-1229z" />
    <glyph glyph-name="emdash" unicode="&#x2014;" horiz-adv-x="1998" 
d="M152 584l30 129h1680l-31 -129h-1679z" />
    <glyph glyph-name="quoteleft" unicode="&#x2018;" horiz-adv-x="571" 
d="M248 963l35 137q35 135 84.5 208.5t164.5 149.5l29 -72q-70 -54 -104.5 -102t-57.5 -115h74l-51 -206h-174z" />
    <glyph glyph-name="quoteright" unicode="&#x2019;" horiz-adv-x="460" 
d="M287 950l-29 72q70 54 104.5 101.5t55.5 113.5h-74l53 209h174l-34 -137q-34 -135 -84.5 -209t-165.5 -150z" />
    <glyph glyph-name="quotesinglbase" unicode="&#x201a;" horiz-adv-x="571" 
d="M55 -289l-28 74q69 52 103.5 99.5t55.5 115.5h-73l53 209h174l-35 -139q-35 -133 -85 -207t-165 -152z" />
    <glyph glyph-name="quotedblleft" unicode="&#x201c;" horiz-adv-x="923" 
d="M242 963l34 137q34 135 84.5 208t165.5 150l29 -72q-70 -54 -104.5 -102t-57.5 -115h74l-51 -206h-174zM594 963l35 137q34 135 84.5 208t165.5 150l28 -72q-70 -54 -104.5 -102t-57.5 -115h74l-51 -206h-174z" />
    <glyph glyph-name="quotedblright" unicode="&#x201d;" horiz-adv-x="923" 
d="M281 950l-29 72q70 54 104.5 101.5t55.5 113.5h-74l53 209h174l-35 -137q-35 -135 -85 -209t-164 -150zM633 950l-29 72q70 54 104.5 101.5t55.5 113.5h-74l53 209h175l-35 -137q-34 -135 -84.5 -209t-165.5 -150z" />
    <glyph glyph-name="quotedblbase" unicode="&#x201e;" horiz-adv-x="923" 
d="M55 -289l-28 74q69 52 103.5 99.5t55.5 115.5h-73l53 209h174l-35 -139q-35 -133 -85 -207t-165 -152zM408 -289l-29 74q70 52 104.5 100t55.5 115h-74l53 209h174l-35 -139q-35 -134 -85 -207.5t-164 -151.5z" />
    <glyph glyph-name="dagger" unicode="&#x2020;" horiz-adv-x="1030" 
d="M1006 918l-29 -117h-330l-260 -1041h-123l260 1041h-334l29 117h334l109 436h122l-108 -436h330z" />
    <glyph glyph-name="daggerdbl" unicode="&#x2021;" horiz-adv-x="1030" 
d="M977 801h-330l-123 -488h332l-29 -116h-331l-109 -437h-123l109 437h-332l29 116h331l123 488h-334l29 117h334l109 436h122l-108 -436h330z" />
    <glyph glyph-name="bullet" unicode="&#x2022;" horiz-adv-x="907" 
d="M496 483q-100 0 -171 71.5t-71 172.5q0 100 71 172t171 72q101 0 171 -72t70 -172q0 -102 -70 -173t-171 -71z" />
    <glyph glyph-name="ellipsis" unicode="&#x2026;" horiz-adv-x="1515" 
d="M37 0l51 203h174l-51 -203h-174zM539 0l51 203h174l-51 -203h-174zM1040 0l52 203h174l-52 -203h-174z" />
    <glyph glyph-name="perthousand" unicode="&#x2030;" horiz-adv-x="2527" 
d="M471 762q-128 0 -200 80t-72 209q0 78 27 155.5t75 142t124 104.5t165 40q129 0 200.5 -80.5t71.5 -210.5q0 -80 -26.5 -158t-74.5 -141t-124 -102t-166 -39zM143 0l1413 1487h146l-1417 -1487h-142zM479 870q65 0 118 31t85 80.5t49 105.5t17 111q0 87 -45.5 136.5
t-124.5 49.5q-64 0 -116 -31.5t-83.5 -81t-48.5 -105.5t-17 -109q0 -87 45 -137t121 -50zM1280 -12q-128 0 -200 79.5t-72 208.5q0 78 27 156t75 142.5t124 104.5t165 40q129 0 200.5 -80.5t71.5 -210.5q0 -80 -26.5 -158t-74 -141t-123.5 -102t-167 -39zM2042 -12
q-128 0 -200.5 79.5t-72.5 208.5q0 78 27 156t75.5 142.5t124.5 104.5t165 40q129 0 200.5 -80.5t71.5 -210.5q0 -80 -26.5 -158t-74 -141t-123.5 -102t-167 -39zM1288 96q66 0 119 31.5t84.5 81t48 105.5t16.5 110q0 87 -45.5 136.5t-124.5 49.5q-51 0 -95.5 -20.5
t-74.5 -54.5t-52 -77.5t-32 -88.5t-10 -88q0 -86 45 -135.5t121 -49.5zM2050 96q66 0 119 31.5t84.5 81t48 105.5t16.5 110q0 87 -45.5 136.5t-124.5 49.5q-51 0 -95.5 -20.5t-74.5 -54.5t-52 -77.5t-32 -88.5t-10 -88q0 -86 45 -135.5t121 -49.5z" />
    <glyph glyph-name="guilsinglleft" unicode="&#x2039;" horiz-adv-x="645" 
d="M276 158l-141 377l324 378h104l-299 -378l119 -377h-107z" />
    <glyph glyph-name="guilsinglright" unicode="&#x203a;" horiz-adv-x="645" 
d="M362 913l142 -376l-324 -379h-104l299 379l-119 376h106z" />
    <glyph glyph-name="fraction" unicode="&#x2044;" horiz-adv-x="329" 
d="M-485 -18l1425 1464h123l-1428 -1464h-120z" />
    <glyph glyph-name="uni2070" unicode="&#x2070;" horiz-adv-x="751" 
d="M418 997q-67 0 -117 25t-78 69.5t-41.5 97.5t-13.5 116q0 87 22.5 171t65.5 155.5t113.5 115t158.5 43.5q67 0 116 -25t77 -69t41.5 -97t13.5 -116q0 -69 -13.5 -137.5t-43 -131.5t-70.5 -111t-101 -77t-130 -29zM424 1098q76 0 134.5 62.5t85 147.5t26.5 173
q0 93 -38 150t-110 57q-60 0 -109 -37t-78.5 -95t-45 -124t-15.5 -129q0 -92 38 -148.5t112 -56.5z" />
    <glyph glyph-name="uni2074" unicode="&#x2074;" horiz-adv-x="694" 
d="M776 1774l-121 -490h84l-20 -84h-84l-47 -188h-103l47 188h-374l-8 68l530 506h96zM289 1284h266l88 344z" />
    <glyph glyph-name="uni2075" unicode="&#x2075;" horiz-adv-x="669" 
d="M729 1681h-307l-78 -223q64 27 119 27q96 0 159.5 -59t63.5 -152q0 -112 -86.5 -194.5t-230.5 -82.5q-149 0 -236 80l53 74q76 -59 176 -59q95 0 155.5 51.5t60.5 126.5q0 57 -39.5 92t-106.5 35q-83 0 -160 -54l-43 48l131 385h394z" />
    <glyph glyph-name="uni2076" unicode="&#x2076;" horiz-adv-x="686" 
d="M563 1696q-118 0 -194 -103q-54 -71 -80 -178q79 86 198 86q92 0 150.5 -57t58.5 -146q0 -122 -87.5 -211.5t-217.5 -89.5q-113 0 -171 75.5t-58 197.5q0 84 35 195t94 186q107 139 280 139q51 0 104.5 -19t92.5 -53l-55 -71q-67 49 -150 49zM461 1405q-84 0 -138.5 -58
t-54.5 -126q0 -54 34.5 -92.5t94.5 -38.5q80 0 137.5 58t57.5 134q0 55 -34.5 89t-96.5 34z" />
    <glyph glyph-name="uni2077" unicode="&#x2077;" horiz-adv-x="602" 
d="M254 1774h500l-17 -68q-140 -122 -254 -307.5t-186 -386.5h-111q59 168 177.5 358.5t232.5 304.5h-365z" />
    <glyph glyph-name="uni2078" unicode="&#x2078;" horiz-adv-x="716" 
d="M606 1413q54 -24 87.5 -69t33.5 -99q0 -105 -90.5 -176.5t-233.5 -71.5q-122 0 -190 57t-68 138t55.5 141t141.5 84q-98 51 -98 150q0 91 81 157t212 66q110 0 168.5 -52.5t58.5 -125.5q0 -69 -43.5 -120t-114.5 -79zM526 1698q-74 0 -129 -35.5t-55 -99.5
q0 -48 39.5 -74.5t97.5 -26.5q44 0 84.5 14t70.5 45.5t30 73.5q0 50 -40 76.5t-98 26.5zM618 1239q6 55 -39 90t-118 35q-84 0 -145.5 -44.5t-61.5 -113.5q0 -53 44.5 -82.5t109.5 -29.5q87 0 145.5 40t64.5 105z" />
    <glyph glyph-name="uni2079" unicode="&#x2079;" horiz-adv-x="675" 
d="M492 1790q113 0 172 -73t59 -183q0 -201 -86 -356q-108 -181 -315 -181q-109 0 -191 54l49 75q67 -36 148 -36q78 0 140 40.5t99 114.5q31 58 45 148q-38 -46 -96.5 -75.5t-116.5 -29.5q-102 0 -158.5 57.5t-56.5 145.5q0 122 87.5 210.5t220.5 88.5zM420 1378
q78 0 136 57.5t58 129.5q0 60 -34.5 96.5t-98.5 36.5q-82 0 -137 -59t-55 -134q0 -57 33.5 -92t97.5 -35z" />
    <glyph glyph-name="uni2080" unicode="&#x2080;" horiz-adv-x="751" 
d="M418 -354q-67 0 -117 25t-78 69t-41.5 97t-13.5 116q0 87 22.5 171t65.5 155.5t113.5 115t158.5 43.5q67 0 116 -25t77 -69t41.5 -97t13.5 -116q0 -88 -22.5 -172t-65 -155t-113 -114.5t-157.5 -43.5zM424 -254q76 0 134.5 62.5t85 147.5t26.5 173q0 93 -38 150t-110 57
q-60 0 -109 -37t-78.5 -95t-45 -124t-15.5 -129q0 -92 38 -148.5t112 -56.5z" />
    <glyph glyph-name="uni2081" unicode="&#x2081;" horiz-adv-x="487" 
d="M446 424h89l-191 -766h-102l159 647l-192 -94l-29 78z" />
    <glyph glyph-name="uni2082" unicode="&#x2082;" horiz-adv-x="686" 
d="M336 -154q-46 -41 -64 -88h394l-25 -100h-510q22 103 50 150.5t93 105.5q37 32 77 57.5t102 60t86 48.5q133 76 133 162q0 42 -36.5 71t-103.5 29q-96 0 -219 -68l-30 80q137 84 262 84q104 0 165.5 -53t61.5 -131q0 -114 -127 -209q-40 -29 -149 -92.5t-160 -106.5z" />
    <glyph glyph-name="uni2083" unicode="&#x2083;" horiz-adv-x="614" 
d="M692 258q0 -72 -52.5 -127.5t-133.5 -81.5q54 -19 87.5 -62t33.5 -100q0 -106 -82 -173.5t-211 -67.5q-136 0 -236 80l54 73q80 -59 178 -59q87 0 137.5 41.5t50.5 103.5q0 50 -39.5 80.5t-103.5 30.5h-68l25 98h67q74 0 131 38.5t58 100.5q0 49 -35.5 81t-97.5 32
q-89 0 -181 -61l-43 59q113 94 248 94q102 0 157.5 -53t55.5 -127z" />
    <glyph glyph-name="uni2084" unicode="&#x2084;" horiz-adv-x="694" 
d="M776 422l-121 -490h84l-20 -84h-84l-47 -188h-103l47 188h-374l-8 68l530 506h96zM289 -68h266l88 344z" />
    <glyph glyph-name="uni2085" unicode="&#x2085;" horiz-adv-x="669" 
d="M729 330h-307l-78 -224q64 27 119 27q96 0 159.5 -59t63.5 -152q0 -112 -86.5 -194t-230.5 -82q-149 0 -236 80l53 73q76 -59 176 -59q95 0 155.5 51.5t60.5 126.5q0 57 -39.5 92t-106.5 35q-85 0 -160 -53l-43 47l131 385h394z" />
    <glyph glyph-name="uni2086" unicode="&#x2086;" horiz-adv-x="686" 
d="M563 344q-118 0 -194 -102q-54 -70 -80 -179q80 87 198 87q92 0 150.5 -57t58.5 -146q0 -122 -87.5 -211.5t-217.5 -89.5q-114 0 -171.5 75t-57.5 197q0 84 35 195t94 186q107 139 280 139q113 0 197 -71l-55 -72q-67 49 -150 49zM461 53q-84 0 -138.5 -58t-54.5 -126
q0 -54 34.5 -92.5t94.5 -38.5q80 0 137.5 58t57.5 134q0 55 -34.5 89t-96.5 34z" />
    <glyph glyph-name="uni2087" unicode="&#x2087;" horiz-adv-x="602" 
d="M254 422h500l-17 -68q-140 -122 -254 -307.5t-186 -386.5h-111q59 168 177.5 359t232.5 305h-365z" />
    <glyph glyph-name="uni2088" unicode="&#x2088;" horiz-adv-x="716" 
d="M606 61q54 -24 87.5 -68.5t33.5 -98.5q0 -105 -90.5 -176.5t-233.5 -71.5q-122 0 -190 56.5t-68 137.5t55.5 141.5t141.5 84.5q-98 51 -98 149q0 91 81 157t212 66q110 0 168.5 -52.5t58.5 -125.5q0 -69 -43.5 -120t-114.5 -79zM526 346q-74 0 -129 -35.5t-55 -99.5
q0 -48 39.5 -74t97.5 -26q44 0 84.5 14t70.5 45.5t30 73.5q0 50 -40 76t-98 26zM618 -113q6 55 -39 90t-118 35q-84 0 -145.5 -44t-61.5 -113q0 -53 44.5 -83t109.5 -30q87 0 145.5 40t64.5 105z" />
    <glyph glyph-name="uni2089" unicode="&#x2089;" horiz-adv-x="675" 
d="M492 438q113 0 172 -73t59 -183q0 -201 -86 -356q-108 -180 -315 -180q-111 0 -191 53l49 76q68 -37 148 -37q77 0 139.5 41t99.5 115q31 58 45 147q-38 -45 -96 -74.5t-117 -29.5q-102 0 -158.5 57t-56.5 145q0 122 87.5 210.5t220.5 88.5zM420 27q78 0 136 57t58 129
q0 60 -34.5 96.5t-98.5 36.5q-82 0 -137 -58.5t-55 -133.5q0 -57 33.5 -92t97.5 -35z" />
    <glyph glyph-name="Euro" unicode="&#x20ac;" horiz-adv-x="1245" 
d="M428 821h666l-52 -106h-643l-2 -33h637l-43 -104h-604l-2 -46q0 -203 91.5 -322.5t285.5 -119.5q137 0 293 70l37 -99q-167 -94 -355 -94q-123 0 -218 42.5t-154 119.5t-89 178.5t-30 224.5l2 46h-144l50 104h104l2 33h-121l49 106h97q38 132 111 244.5t171.5 194
t224 128t261.5 46.5q156 0 288 -74l-63 -96q-116 55 -229 55q-142 0 -272 -70.5t-218.5 -182.5t-130.5 -245z" />
    <glyph glyph-name="trademark" unicode="&#x2122;" horiz-adv-x="1523" 
d="M686 1354h-225l-142 -566h-98l141 566h-227l23 92h551zM1450 1446h123l-162 -655h-98l125 497l-377 -497h-84l-125 501l-127 -501h-98l164 655h116l137 -537z" />
    <glyph glyph-name="estimated" unicode="&#x212e;" horiz-adv-x="1966" 
d="M1028 -33q-179 0 -338.5 57.5t-275 157t-183 240t-67.5 299.5t67.5 300t183 241.5t275 158.5t338.5 58q174 0 331 -55.5t275.5 -153.5t188 -243.5t69.5 -315.5v-41q0 -4 -4.5 -7.5t-9.5 -3.5h-1350v-452q0 -5 7 -8q205 -142 493 -142q202 0 371 73t270 206l70 -55
q-119 -147 -305 -230.5t-406 -83.5zM528 758h1000v481q0 5 -6 8q-208 144 -494 144q-285 0 -496 -144q-4 -4 -4 -10v-479z" />
    <glyph glyph-name="uni2150" unicode="&#x2150;" horiz-adv-x="1570" 
d="M154 682l22 94h182l138 553l-193 -94l-29 78l267 135h88l-168 -672h201l-23 -94h-485zM1579 1446h123l-1430 -1464h-120zM1163 647l23 98h500l-17 -67q-140 -122 -254 -307.5t-186 -386.5h-111q69 199 205 403q105 160 205 260h-365z" />
    <glyph glyph-name="uni2151" unicode="&#x2151;" horiz-adv-x="1568" 
d="M145 682l23 94h190l138 553l-193 -94l-29 78l267 135h88l-168 -672h192l-22 -94h-486zM1618 1446h123l-1430 -1464h-121zM1432 762q113 0 172 -73t59 -183q0 -99 -22.5 -195t-65.5 -164q-48 -85 -128 -131.5t-185 -46.5q-109 0 -191 54l49 75q68 -37 148 -37
q77 0 139.5 41t99.5 115q31 58 45 148q-38 -46 -96.5 -75.5t-116.5 -29.5q-102 0 -158.5 57.5t-56.5 145.5q0 122 87.5 210.5t220.5 88.5zM1360 350q78 0 136 57.5t58 129.5q0 60 -34.5 96.5t-98.5 36.5q-82 0 -137 -59t-55 -134q0 -57 33.5 -92t97.5 -35z" />
    <glyph glyph-name="uni2153" unicode="&#x2153;" horiz-adv-x="1611" 
d="M154 682l22 94h182l138 553l-193 -94l-29 78l267 135h88l-168 -672h201l-23 -94h-485zM1597 1446h123l-1429 -1464h-121zM1427 762q102 0 157.5 -53t55.5 -127q0 -77 -61 -138q-48 -48 -125 -71q52 -18 84 -58q37 -43 37 -104q0 -106 -82 -174t-211 -68q-135 0 -235 80
l53 74q82 -60 178 -60q86 0 137 42t51 104q0 50 -39.5 80t-103.5 30h-68l25 99h68q74 0 130.5 38.5t57.5 100.5q0 49 -35.5 81t-97.5 32q-86 0 -180 -62l-43 60q113 94 247 94z" />
    <glyph glyph-name="uni2154" unicode="&#x2154;" horiz-adv-x="1605" 
d="M690 782l-24 -100h-510l12 59q21 98 131 197q37 32 76 57.5t102 60.5t86 48q133 76 133 162q0 43 -36 71.5t-103 28.5q-96 0 -219 -68l-31 80q137 84 262 84q104 0 166 -53t62 -131q0 -114 -127 -209q-41 -29 -150 -92.5t-160 -106.5q-45 -40 -63 -88h393zM1651 1446h123
l-1430 -1464h-121zM1473 762q102 0 157.5 -53t55.5 -127q0 -76 -62 -138q-48 -48 -125 -71q52 -18 84 -58q37 -43 37 -104q0 -106 -82 -174t-211 -68q-135 0 -235 80l53 74q82 -60 178 -60q86 0 137 42t51 104q0 50 -39.5 80t-103.5 30h-68l25 99h68q74 0 130.5 38.5
t57.5 100.5q0 49 -35.5 81t-97.5 32q-86 0 -180 -62l-43 60q113 94 248 94z" />
    <glyph glyph-name="uni2155" unicode="&#x2155;" horiz-adv-x="1611" 
d="M172 682l23 94h182l137 553l-192 -94l-29 78l266 135h88l-168 -672h201l-23 -94h-485zM1599 1446h123l-1429 -1464h-121zM1157 362l131 386h393l-24 -95h-307l-78 -223q64 27 119 27q96 0 159.5 -59t63.5 -152q0 -112 -87 -194.5t-231 -82.5q-148 0 -235 80l53 74
q77 -60 176 -60q95 0 155 52t60 127q0 58 -39 92.5t-106 34.5q-83 0 -160 -54z" />
    <glyph glyph-name="uni2156" unicode="&#x2156;" horiz-adv-x="1611" 
d="M690 782l-24 -100h-510l12 59q21 98 131 197q37 32 76 57.5t102 60.5t86 48q133 76 133 162q0 43 -36 71.5t-103 28.5q-96 0 -219 -68l-31 80q137 84 262 84q104 0 166 -53t62 -131q0 -114 -127 -209q-41 -29 -150 -92.5t-160 -106.5q-45 -40 -63 -88h393zM1663 1446h123
l-1430 -1464h-120zM1212 362l131 386h394l-25 -95h-307l-78 -223q64 27 119 27q96 0 159.5 -59t63.5 -152q0 -112 -86.5 -194.5t-230.5 -82.5q-149 0 -236 80l53 74q77 -60 177 -60q95 0 155 52t60 127q0 57 -39.5 92t-106.5 35q-83 0 -160 -54z" />
    <glyph glyph-name="uni2157" unicode="&#x2157;" horiz-adv-x="1566" 
d="M631 911q0 -106 -82 -173.5t-211 -67.5q-136 0 -236 80l54 73q80 -59 178 -59q87 0 137.5 41.5t50.5 103.5q0 50 -39.5 80.5t-103.5 30.5h-68l25 98h67q74 0 131 38.5t58 100.5q0 49 -35.5 81t-97.5 32q-88 0 -180 -61l-43 59q113 94 247 94q102 0 157.5 -53t55.5 -127
q0 -76 -61 -137q-49 -49 -125 -72q53 -18 84 -57q37 -43 37 -105zM1571 1446h123l-1430 -1464h-121zM1149 362l131 386h393l-24 -95h-308l-77 -223q64 27 118 27q96 0 160 -59t64 -152q0 -112 -87 -194.5t-231 -82.5q-148 0 -235 80l53 74q77 -60 176 -60q95 0 155 52
t60 127q0 58 -39 92.5t-106 34.5q-83 0 -160 -54z" />
    <glyph glyph-name="uni2158" unicode="&#x2158;" horiz-adv-x="1568" 
d="M461 684l47 188h-375l-8 68l530 506h97l-121 -490h84l-21 -84h-84l-47 -188h-102zM1599 1446h123l-1429 -1464h-121zM264 956h266l88 344zM1141 362l131 386h393l-25 -95h-307l-78 -223q64 27 119 27q96 0 159.5 -59t63.5 -152q0 -112 -86.5 -194.5t-230.5 -82.5
q-149 0 -236 80l54 74q77 -60 176 -60q95 0 155 52t60 127q0 57 -39.5 92t-106.5 35q-82 0 -159 -54z" />
    <glyph glyph-name="uni2159" unicode="&#x2159;" horiz-adv-x="1617" 
d="M156 682l22 94h180l138 553l-193 -94l-29 78l267 135h88l-168 -672h203l-23 -94h-485zM1630 1446h123l-1429 -1464h-121zM1225 633q107 139 280 139q51 0 104.5 -19t92.5 -53l-55 -71q-67 49 -150 49q-118 0 -194 -103q-54 -71 -80 -178q79 86 198 86q92 0 150.5 -56.5
t58.5 -145.5q0 -122 -87.5 -211.5t-217.5 -89.5q-114 0 -171.5 75t-57.5 197q0 84 35 195t94 186zM1397 387q-84 0 -138.5 -58t-54.5 -126q0 -54 34.5 -92.5t94.5 -38.5q80 0 137.5 58t57.5 134q0 55 -34.5 89t-96.5 34z" />
    <glyph glyph-name="uni215A" unicode="&#x215a;" horiz-adv-x="1556" 
d="M659 946q0 -112 -86.5 -194t-230.5 -82q-149 0 -236 80l54 73q76 -59 176 -59q95 0 155 51.5t60 126.5q0 58 -39 92.5t-106 34.5q-85 0 -160 -53l-43 47l131 385h393l-25 -94h-307l-78 -224q64 27 119 27q96 0 159.5 -59t63.5 -152zM1573 1446h123l-1430 -1464h-121z
M1190 633q107 139 280 139q51 0 104.5 -19t92.5 -53l-55 -71q-67 49 -150 49q-118 0 -194 -103q-54 -71 -80 -178q79 86 198 86q92 0 150.5 -56.5t58.5 -145.5q0 -122 -87.5 -211.5t-217.5 -89.5q-114 0 -171.5 75t-57.5 197q0 84 35 195t94 186zM1360 387q-84 0 -138.5 -58
t-54.5 -126q0 -54 34.5 -92.5t94.5 -38.5q80 0 137.5 58t57.5 134q0 55 -34.5 89t-96.5 34z" />
    <glyph glyph-name="oneeighth" unicode="&#x215b;" horiz-adv-x="1632" 
d="M154 682l22 94h182l138 553l-193 -94l-29 78l267 135h88l-168 -672h201l-23 -94h-485zM1610 1446h123l-1430 -1464h-121zM1677 584q0 -69 -43 -120t-114 -79q54 -24 87 -69t33 -99q0 -105 -90 -176.5t-233 -71.5q-122 0 -190 57t-68 138t55 141t141 84q-98 51 -98 150
q0 91 81 157t212 66q110 0 168.5 -52.5t58.5 -125.5zM1391 434q43 0 84 14t70.5 45.5t29.5 73.5q0 50 -39.5 76.5t-97.5 26.5q-74 0 -129.5 -36t-55.5 -99q0 -48 40 -74.5t98 -26.5zM1530 211q6 55 -39.5 90t-118.5 35q-84 0 -145.5 -44.5t-61.5 -113.5q0 -53 44.5 -82.5
t109.5 -29.5q87 0 146 40t65 105z" />
    <glyph glyph-name="threeeighths" unicode="&#x215c;" horiz-adv-x="1579" 
d="M631 911q0 -106 -82 -173.5t-211 -67.5q-136 0 -236 80l54 73q80 -59 178 -59q87 0 137.5 41.5t50.5 103.5q0 50 -39.5 80.5t-103.5 30.5h-68l25 98h67q74 0 131 38.5t58 100.5q0 49 -35.5 81t-97.5 32q-88 0 -180 -61l-43 59q113 94 247 94q102 0 157.5 -53t55.5 -127
q0 -76 -61 -137q-49 -49 -125 -72q53 -18 84 -57q37 -43 37 -105zM1567 1446h123l-1430 -1464h-121zM1645 584q0 -69 -43.5 -120t-114.5 -79q54 -24 87.5 -69t33.5 -99q0 -105 -90.5 -176.5t-233.5 -71.5q-122 0 -190 57t-68 138t55.5 141t141.5 84q-99 52 -99 150
q0 91 81 157t212 66q110 0 169 -53t59 -125zM1360 434q43 0 84 14t70.5 45.5t29.5 73.5q0 50 -39.5 76.5t-97.5 26.5q-74 0 -129 -35.5t-55 -99.5q0 -48 39.5 -74.5t97.5 -26.5zM1499 211q6 55 -39.5 90t-118.5 35q-84 0 -145 -44.5t-61 -113.5q0 -53 44 -82.5t109 -29.5
q87 0 146 40t65 105z" />
    <glyph glyph-name="fiveeighths" unicode="&#x215d;" horiz-adv-x="1587" 
d="M659 946q0 -112 -86.5 -194t-230.5 -82q-149 0 -236 80l54 73q76 -59 176 -59q95 0 155 51.5t60 126.5q0 58 -39 92.5t-106 34.5q-85 0 -160 -53l-43 47l131 385h393l-25 -94h-307l-78 -224q64 27 119 27q96 0 159.5 -59t63.5 -152zM1548 1446h123l-1429 -1464h-121z
M1649 584q0 -69 -43.5 -120t-114.5 -79q54 -24 87.5 -69t33.5 -99q0 -105 -90.5 -176.5t-233.5 -71.5q-122 0 -190 57t-68 138t55.5 141t141.5 84q-99 52 -99 150q0 91 81 157t212 66q110 0 169 -53t59 -125zM1364 434q43 0 84 14t70.5 45.5t29.5 73.5q0 50 -39.5 76.5
t-97.5 26.5q-74 0 -129 -35.5t-55 -99.5q0 -48 39.5 -74.5t97.5 -26.5zM1503 211q6 55 -39 90t-118 35q-84 0 -145.5 -44.5t-61.5 -113.5q0 -53 44 -82.5t109 -29.5q87 0 146 40t65 105z" />
    <glyph glyph-name="seveneighths" unicode="&#x215e;" horiz-adv-x="1638" 
d="M1497 1446h123l-1430 -1464h-120zM233 684q69 199 205 403q107 163 205 261h-364l22 98h500l-17 -68q-140 -122 -254 -307.5t-186 -386.5h-111zM1481 385q54 -24 87.5 -69t33.5 -99q0 -105 -90.5 -176.5t-233.5 -71.5q-122 0 -190 57t-68 138t55.5 141t141.5 84
q-99 52 -99 150q0 91 81 157t212 66q110 0 168.5 -52.5t58.5 -125.5q0 -69 -43 -120t-114 -79zM1401 670q-74 0 -129 -35.5t-55 -99.5q0 -48 39.5 -74.5t97.5 -26.5q43 0 84 14t70.5 45.5t29.5 73.5q0 50 -39.5 76.5t-97.5 26.5zM1491 211q6 55 -39.5 90t-118.5 35
q-84 0 -145.5 -44.5t-61.5 -113.5q0 -53 44.5 -82.5t109.5 -29.5q87 0 146 40t65 105z" />
    <glyph glyph-name="partialdiff" unicode="&#x2202;" horiz-adv-x="1347" 
d="M612 1534q313 -36 487.5 -202t174.5 -453q0 -185 -70.5 -374.5t-197.5 -322.5q-98 -104 -220 -159.5t-245 -55.5q-194 0 -310 118t-116 304q0 114 46 220.5t123.5 184.5t183.5 124.5t220 46.5q161 0 275.5 -84.5t140.5 -225.5q37 115 37 232q0 230 -147.5 362t-403.5 166
zM555 96q119 0 225.5 67t168 169.5t61.5 206.5q0 130 -89.5 213.5t-226.5 83.5q-94 0 -176.5 -37.5t-138.5 -99t-88.5 -141.5t-32.5 -165q0 -133 79 -215t218 -82z" />
    <glyph glyph-name="product" unicode="&#x220f;" horiz-adv-x="1595" 
d="M1823 1446l-33 -129h-215l-381 -1526h-145l381 1526h-877l-381 -1526h-145l381 1526h-218l33 129h1600z" />
    <glyph glyph-name="summation" unicode="&#x2211;" horiz-adv-x="1241" 
d="M1376 1446l-33 -129h-911l273 -707l-599 -690h889l-32 -129h-1082l29 115l633 712l-277 713l29 115h1081z" />
    <glyph glyph-name="minus" unicode="&#x2212;" horiz-adv-x="1277" 
d="M229 653l31 125h883l-31 -125h-883z" />
    <glyph glyph-name="radical" unicode="&#x221a;" horiz-adv-x="1492" 
d="M1552 1503h158l-1067 -1734h-119l-139 1005h-209l33 129h301l117 -926z" />
    <glyph glyph-name="infinity" unicode="&#x221e;" horiz-adv-x="1857" 
d="M559 215q-161 0 -265 106t-104 261q0 152 104 257t265 105q232 0 406 -266q81 126 178 196t225 70q163 0 267 -105t104 -257q0 -155 -104.5 -261t-266.5 -106q-69 0 -128.5 20t-108.5 59t-87.5 82.5t-78.5 104.5q-84 -128 -179.5 -197t-226.5 -69zM561 319
q104 0 183.5 67t152.5 196q-69 126 -149 192t-187 66q-104 0 -180 -72t-76 -186q0 -115 78 -189t178 -74zM1368 319q103 0 179.5 73.5t76.5 189.5q0 115 -75.5 186.5t-180.5 71.5q-108 0 -187 -65.5t-149 -192.5q73 -130 151.5 -196.5t184.5 -66.5z" />
    <glyph glyph-name="integral" unicode="&#x222b;" horiz-adv-x="897" 
d="M-43 -416q-52 0 -107 10l29 123q45 -10 86 -10q108 0 179.5 59t97.5 173q39 167 113 666t112 659q38 167 143 256q104 90 275 90q52 0 106 -13l-26 -120q-52 10 -93 10q-221 0 -272 -230q-41 -174 -115 -672t-110 -653q-43 -181 -146 -264q-106 -84 -272 -84z" />
    <glyph glyph-name="approxequal" unicode="&#x2248;" horiz-adv-x="1234" 
d="M844 737q-47 0 -91.5 16.5t-78.5 39.5t-66.5 46t-69.5 39.5t-73 16.5q-65 0 -120.5 -35.5t-113.5 -103.5l-65 55q152 199 328 199q58 0 113 -24.5t91.5 -53.5t84 -53.5t91.5 -24.5q118 0 234 141l66 -57q-156 -201 -330 -201zM815 342q-47 0 -91.5 16.5t-78.5 39.5
t-66.5 46t-69.5 39.5t-73 16.5q-65 0 -120 -36.5t-113 -105.5l-66 58q152 198 328 198q47 0 92 -16t79 -39t67 -45.5t70 -38.5t73 -16q120 0 233 141l66 -57q-156 -201 -330 -201z" />
    <glyph glyph-name="notequal" unicode="&#x2260;" horiz-adv-x="1277" 
d="M1149 793h-342l-162 -287h432l-30 -125h-472l-124 -221h-125l125 221h-287l31 125h325l162 287h-416l31 125h455l122 219h125l-122 -219h303z" />
    <glyph glyph-name="lessequal" unicode="&#x2264;" horiz-adv-x="1277" 
d="M1040 332l-786 381l20 84l979 381l-32 -138l-768 -292l620 -291zM98 94l31 123h883l-31 -123h-883z" />
    <glyph glyph-name="greaterequal" unicode="&#x2265;" horiz-adv-x="1277" 
d="M154 332l32 139l770 291l-624 293l35 123l786 -381l-23 -84zM96 94l31 123h883l-31 -123h-883z" />
    <glyph glyph-name="lozenge" unicode="&#x25ca;" horiz-adv-x="1409" 
d="M426 -231l-297 858l723 852h170l297 -852l-723 -858h-170zM532 -109l625 746l-242 721l-622 -744z" />
    <glyph glyph-name="J.loclNLD" horiz-adv-x="1087" 
d="M997 1548l236 322h172l-285 -322h-123zM1116 1446l-254 -1022q-57 -229 -173.5 -343t-328.5 -114q-196 0 -380 152l75 100q150 -119 307 -119q80 0 140 22.5t101.5 70t68.5 107t51 146.5l248 1000h145z" />
    <glyph glyph-name="i.loclTRK" horiz-adv-x="450" 
d="M324 1253l47 193h151l-47 -193h-151zM27 0l266 1063h139l-266 -1063h-139z" />
    <glyph glyph-name="a.alt" horiz-adv-x="1218" 
d="M725 1102q190 0 302 -76.5t112 -232.5q0 -66 -31 -193l-150 -600h-116l24 127q-217 -160 -446 -160q-162 0 -264.5 74.5t-102.5 222.5q0 107 49.5 185.5t135 122t186 63.5t217.5 20q168 0 334 -39q29 106 29 164q0 98 -73 147.5t-229 49.5q-184 0 -403 -78l-25 105
q95 43 214 70.5t237 27.5zM428 86q112 0 236 46t227 126l57 254q-191 35 -325 35q-130 0 -226.5 -27t-156.5 -90t-60 -156t69 -140.5t179 -47.5z" />
    <glyph glyph-name="aacute.alt" horiz-adv-x="1218" 
d="M1038 1532l-250 -303h-110l188 303h172zM725 1102q190 0 302 -76.5t112 -232.5q0 -66 -31 -193l-150 -600h-116l24 127q-217 -160 -446 -160q-162 0 -264.5 74.5t-102.5 222.5q0 107 49.5 185.5t135 122t186 63.5t217.5 20q168 0 334 -39q29 106 29 164q0 98 -73 147.5
t-229 49.5q-184 0 -403 -78l-25 105q95 43 214 70.5t237 27.5zM428 86q112 0 236 46t227 126l57 254q-191 35 -325 35q-130 0 -226.5 -27t-156.5 -90t-60 -156t69 -140.5t179 -47.5z" />
    <glyph glyph-name="abreve.alt" horiz-adv-x="1218" 
d="M795 1217q-124 0 -193.5 62.5t-69.5 164.5q0 24 11 74h110q-6 -38 -6 -66q0 -70 40.5 -105.5t115.5 -35.5q94 0 160 54.5t88 152.5h112q-29 -140 -126.5 -220.5t-241.5 -80.5zM725 1102q190 0 302 -76.5t112 -232.5q0 -66 -31 -193l-150 -600h-116l24 127
q-217 -160 -446 -160q-162 0 -264.5 74.5t-102.5 222.5q0 107 49.5 185.5t135 122t186 63.5t217.5 20q168 0 334 -39q29 106 29 164q0 98 -73 147.5t-229 49.5q-184 0 -403 -78l-25 105q95 43 214 70.5t237 27.5zM428 86q112 0 236 46t227 126l57 254q-191 35 -325 35
q-130 0 -226.5 -27t-156.5 -90t-60 -156t69 -140.5t179 -47.5z" />
    <glyph glyph-name="acircumflex.alt" horiz-adv-x="1218" 
d="M877 1450l-236 -227h-152l330 309h137l174 -309h-133zM725 1102q190 0 302 -76.5t112 -232.5q0 -66 -31 -193l-150 -600h-116l24 127q-217 -160 -446 -160q-162 0 -264.5 74.5t-102.5 222.5q0 107 49.5 185.5t135 122t186 63.5t217.5 20q168 0 334 -39q29 106 29 164
q0 98 -73 147.5t-229 49.5q-184 0 -403 -78l-25 105q95 43 214 70.5t237 27.5zM428 86q112 0 236 46t227 126l57 254q-191 35 -325 35q-130 0 -226.5 -27t-156.5 -90t-60 -156t69 -140.5t179 -47.5z" />
    <glyph glyph-name="adieresis.alt" horiz-adv-x="1218" 
d="M735 1450l-41 -162h-168l41 162h168zM1126 1450l-43 -162h-165l40 162h168zM725 1102q190 0 302 -76.5t112 -232.5q0 -66 -31 -193l-150 -600h-116l24 127q-217 -160 -446 -160q-162 0 -264.5 74.5t-102.5 222.5q0 107 49.5 185.5t135 122t186 63.5t217.5 20
q168 0 334 -39q29 106 29 164q0 98 -73 147.5t-229 49.5q-184 0 -403 -78l-25 105q95 43 214 70.5t237 27.5zM428 86q112 0 236 46t227 126l57 254q-191 35 -325 35q-130 0 -226.5 -27t-156.5 -90t-60 -156t69 -140.5t179 -47.5z" />
    <glyph glyph-name="agrave.alt" horiz-adv-x="1218" 
d="M854 1229h-111l-165 303h174zM725 1102q190 0 302 -76.5t112 -232.5q0 -66 -31 -193l-150 -600h-116l24 127q-217 -160 -446 -160q-162 0 -264.5 74.5t-102.5 222.5q0 107 49.5 185.5t135 122t186 63.5t217.5 20q168 0 334 -39q29 106 29 164q0 98 -73 147.5t-229 49.5
q-184 0 -403 -78l-25 105q95 43 214 70.5t237 27.5zM428 86q112 0 236 46t227 126l57 254q-191 35 -325 35q-130 0 -226.5 -27t-156.5 -90t-60 -156t69 -140.5t179 -47.5z" />
    <glyph glyph-name="amacron.alt" horiz-adv-x="1218" 
d="M539 1421h630l-28 -116h-631zM725 1102q190 0 302 -76.5t112 -232.5q0 -66 -31 -193l-150 -600h-116l24 127q-217 -160 -446 -160q-162 0 -264.5 74.5t-102.5 222.5q0 107 49.5 185.5t135 122t186 63.5t217.5 20q168 0 334 -39q29 106 29 164q0 98 -73 147.5t-229 49.5
q-184 0 -403 -78l-25 105q95 43 214 70.5t237 27.5zM428 86q112 0 236 46t227 126l57 254q-191 35 -325 35q-130 0 -226.5 -27t-156.5 -90t-60 -156t69 -140.5t179 -47.5z" />
    <glyph glyph-name="aogonek.alt" horiz-adv-x="1208" 
d="M725 1102q190 0 302 -76.5t112 -232.5q0 -66 -31 -193l-150 -600q-123 -42 -200.5 -111t-77.5 -151q0 -42 24.5 -65t67.5 -23t92 22l31 -102q-73 -43 -160 -43q-88 0 -136 48t-48 120q0 194 295 330l20 102q-217 -160 -446 -160q-162 0 -264.5 74.5t-102.5 222.5
q0 107 49.5 185.5t135 122t186 63.5t217.5 20q168 0 334 -39q29 123 29 164q0 98 -73 147.5t-229 49.5q-184 0 -403 -78l-25 105q95 43 214 70.5t237 27.5zM428 86q112 0 236 46t227 126l57 254q-191 35 -325 35q-130 0 -226.5 -27t-156.5 -90t-60 -156t69 -140.5t179 -47.5
z" />
    <glyph glyph-name="aring.alt" horiz-adv-x="1218" 
d="M774 1194q-76 0 -126 46.5t-50 119.5q0 95 70.5 164t173.5 69q74 0 125 -49.5t51 -122.5q0 -91 -69 -159t-175 -68zM831 1513q-60 0 -101.5 -41t-41.5 -100q0 -46 28.5 -72t71.5 -26q56 0 99 40.5t43 102.5q0 44 -29.5 70t-69.5 26zM725 1102q190 0 302 -76.5t112 -232.5
q0 -66 -31 -193l-150 -600h-116l24 127q-217 -160 -446 -160q-162 0 -264.5 74.5t-102.5 222.5q0 107 49.5 185.5t135 122t186 63.5t217.5 20q168 0 334 -39q29 106 29 164q0 98 -73 147.5t-229 49.5q-184 0 -403 -78l-25 105q95 43 214 70.5t237 27.5zM428 86q112 0 236 46
t227 126l57 254q-191 35 -325 35q-130 0 -226.5 -27t-156.5 -90t-60 -156t69 -140.5t179 -47.5z" />
    <glyph glyph-name="atilde.alt" horiz-adv-x="1218" 
d="M662 1389q-96 0 -173 -148h-102q54 130 134.5 190t160.5 60q40 0 74 -16t58 -39t47.5 -46t52 -39t61.5 -16q96 0 172 148h96q-55 -131 -132 -189.5t-155 -58.5q-40 0 -75.5 16t-61 38.5t-49.5 45t-51.5 38.5t-56.5 16zM725 1102q190 0 302 -76.5t112 -232.5
q0 -66 -31 -193l-150 -600h-116l24 127q-217 -160 -446 -160q-162 0 -264.5 74.5t-102.5 222.5q0 107 49.5 185.5t135 122t186 63.5t217.5 20q168 0 334 -39q29 106 29 164q0 98 -73 147.5t-229 49.5q-184 0 -403 -78l-25 105q95 43 214 70.5t237 27.5zM428 86q112 0 236 46
t227 126l57 254q-191 35 -325 35q-130 0 -226.5 -27t-156.5 -90t-60 -156t69 -140.5t179 -47.5z" />
    <glyph glyph-name="j.loclNLD" horiz-adv-x="487" 
d="M342 1225l188 303h172l-249 -303h-111zM311 1063h140l-252 -1006q-49 -191 -107 -286q-134 -215 -395 -283l-31 115q112 35 178 81.5t119 118.5q51 68 96 246z" />
    <glyph glyph-name="f_f" horiz-adv-x="1388" 
d="M1206 1300q-36 -28 -62 -73t-35.5 -76.5t-23.5 -87.5h371l-29 -119h-372l-236 -944h-135l236 944h-474l-235 -944h-135l235 944h-174l29 119h176q14 55 20.5 77.5t23 68t38.5 80t53 65.5q120 125 330 125q111 0 194 -27l-36 -111q-82 21 -164 21q-128 0 -203 -62
q-36 -28 -62 -73t-35.5 -76.5t-23.5 -87.5h473q14 55 20.5 77.5t23 68t38.5 80t53 65.5q120 125 330 125q124 0 205 -37l-37 -111q-87 31 -176 31q-126 0 -201 -62z" />
    <glyph glyph-name="f_f_i" horiz-adv-x="1689" 
d="M1675 1063l-266 -1063h-139l235 944h-450l-236 -944h-135l236 944h-474l-235 -944h-135l235 944h-174l29 119h176q14 55 20.5 77.5t23 68t38.5 80t53 65.5q120 125 330 125q111 0 194 -27l-36 -111q-82 21 -164 21q-128 0 -203 -62q-36 -28 -62 -73t-35.5 -76.5
t-23.5 -87.5h473q14 55 20.5 77.5t23 68t38.5 80t53 65.5q120 125 330 125q124 0 205 -37l-37 -111q-87 31 -176 31q-126 0 -201 -62q-36 -28 -62 -73t-35.5 -76.5t-23.5 -87.5h590z" />
    <glyph glyph-name="f_f_j" horiz-adv-x="1705" 
d="M1675 1063l-276 -1108q-50 -207 -127 -307q-44 -62 -108.5 -118.5t-172.5 -133.5l-61 90q169 134 225 209q37 47 58.5 102t46.5 152l249 995h-454l-236 -944h-135l236 944h-474l-235 -944h-135l235 944h-174l29 119h176q14 55 20.5 77.5t23 68t38.5 80t53 65.5
q120 125 330 125q111 0 194 -27l-36 -111q-82 21 -164 21q-128 0 -203 -62q-36 -28 -62 -73t-35.5 -76.5t-23.5 -87.5h473q14 55 20.5 77.5t23 68t38.5 80t53 65.5q120 125 330 125q124 0 205 -37l-37 -111q-87 31 -176 31q-126 0 -201 -62q-36 -28 -62 -73t-35.5 -76.5
t-23.5 -87.5h590z" />
    <glyph glyph-name="f_f_l" horiz-adv-x="1734" 
d="M1413 944h-358l-236 -944h-135l236 944h-474l-235 -944h-135l235 944h-174l29 119h176q14 55 20.5 77.5t23 68t38.5 80t53 65.5q120 125 330 125q77 0 190 -37l-47 -107q-75 27 -149 27q-128 0 -203 -62q-36 -28 -62 -73t-35.5 -76.5t-23.5 -87.5h473q14 55 20.5 77.5
t23 68t38.5 80t53 65.5q120 125 330 125q120 0 201 -37l-47 -105q-80 25 -162 25q-126 0 -201 -62q-36 -28 -62 -73t-35.5 -76.5t-23.5 -87.5h357zM1679 1446h138l-361 -1446h-137z" />
    <glyph glyph-name="f_i" horiz-adv-x="1079" 
d="M1067 1063l-266 -1063h-139l235 944h-451l-235 -944h-135l235 944h-174l29 119h176q14 55 20.5 77.5t23 68t38.5 80t53 65.5q120 125 330 125q127 0 223 -45l-39 -109q-98 37 -192 37q-126 0 -201 -62q-36 -27 -62 -72.5t-35.5 -76.5t-23.5 -88h590z" />
    <glyph glyph-name="f_j" horiz-adv-x="1097" 
d="M1065 1063l-277 -1108q-53 -221 -126 -315q-43 -60 -103 -109.5t-180 -134.5l-62 90q172 136 228 209q36 46 57 101t47 155l248 993h-451l-235 -944h-135l235 944h-174l29 119h176q14 55 20.5 77.5t23 68t38.5 80t53 65.5q120 125 330 125q127 0 223 -45l-37 -109
q-102 37 -192 37q-124 0 -203 -62q-84 -67 -121 -237h588z" />
    <glyph glyph-name="f_l" horiz-adv-x="1124" 
d="M805 944h-361l-235 -944h-135l235 944h-172l29 119h174q14 55 20.5 77.5t23 68t38.5 80t53 65.5q120 125 330 125q117 0 199 -39l-48 -105q-79 27 -157 27q-124 0 -203 -62q-84 -67 -121 -237h359zM1069 1446h137l-360 -1446h-137z" />
    <glyph glyph-name="t_t" horiz-adv-x="1435" 
d="M1008 944l-127 -510q-39 -149 -39 -213q0 -129 151 -129q58 0 129.5 19.5t114.5 42.5l-20 -117q-132 -70 -254 -70q-157 0 -224 99q-183 -99 -331 -99q-74 0 -127 21t-81.5 57.5t-41.5 77.5t-13 90q0 50 33 190l135 541h-170l31 119h174l86 307h121l-76 -307h428l86 307
h121l-76 -307h371l-37 -119h-364zM752 463l120 481h-423l-142 -571q-24 -94 -24 -140q0 -69 37.5 -105t125.5 -36q119 0 259 68l-3 37q0 15 1 30t4.5 35.5t5.5 32.5t8.5 40t8.5 37.5t11 45.5t11 45z" />
    <glyph glyph-name="one.dnomalt" horiz-adv-x="661" 
d="M389 78h201l-23 -94h-485l22 94h183l137 553l-193 -94l-28 75l266 136h88z" />
    <glyph glyph-name="zero.lf" horiz-adv-x="1380" 
d="M621 -18q-98 0 -176.5 29.5t-130 80.5t-85.5 121.5t-48.5 149t-14.5 167.5q0 70 10.5 149.5t35 169.5t60.5 174.5t92 162.5t124.5 136.5t162 93t201.5 34.5q98 0 176.5 -30t130 -81t85.5 -122t48.5 -149t14.5 -167q0 -72 -10.5 -151.5t-35 -170t-61 -174.5t-92.5 -161.5
t-124.5 -135t-162 -92t-200.5 -34.5zM633 113q93 0 173 38.5t136.5 104t100.5 147.5t70 173.5t39 177.5t13 164q0 186 -81.5 293.5t-245.5 107.5q-91 0 -170 -38.5t-134.5 -103.5t-99 -146.5t-68.5 -171.5t-38 -174t-13 -159q0 -190 80 -301.5t238 -111.5z" />
    <glyph glyph-name="one.lf" horiz-adv-x="733" 
d="M623 1423h116l-356 -1423h-141l313 1255l-381 -196l-39 115z" />
    <glyph glyph-name="two.lf" horiz-adv-x="1183" 
d="M754 1450q195 0 311.5 -99.5t116.5 -248.5q0 -169 -162 -309q-88 -73 -324 -207t-323 -201q-159 -119 -187 -254h791l-31 -131h-926q13 78 24 123.5t30.5 96t49.5 89.5t75.5 83t113.5 97q94 69 301 187.5t273 169.5q151 121 151 250q0 96 -81 158.5t-214 62.5
q-216 0 -432 -133l-35 112q241 154 478 154z" />
    <glyph glyph-name="three.lf" horiz-adv-x="1175" 
d="M807 735q106 -40 167.5 -120.5t61.5 -194.5q0 -183 -153.5 -310.5t-390.5 -127.5q-268 0 -445 168l74 102q168 -137 377 -137q169 0 278 89.5t109 223.5q0 66 -26 115.5t-70 77t-94 40.5t-105 13h-141l20 131h135q161 0 270 83.5t109 207.5q0 94 -73.5 157.5t-207.5 63.5
q-190 0 -366 -131l-64 80q193 184 455 184q188 0 293.5 -100.5t105.5 -241.5q0 -130 -88.5 -227.5t-230.5 -145.5z" />
    <glyph glyph-name="four.lf" horiz-adv-x="1259" 
d="M1217 1423l-236 -940h172l-31 -123h-172l-90 -360h-139l90 360h-745l26 109l1002 954h123zM276 483h566l172 693z" />
    <glyph glyph-name="five.lf" horiz-adv-x="1167" 
d="M1114 1296h-602l-141 -469q133 80 293 80q184 0 299.5 -110.5t115.5 -284.5q0 -69 -18 -139.5t-61.5 -141.5t-106.5 -125.5t-162.5 -89t-220.5 -34.5q-260 0 -465 170l76 108q172 -145 383 -145q201 0 315.5 110.5t114.5 270.5q0 134 -86 211t-227 77q-159 0 -304 -100
l-102 25l197 714h723z" />
    <glyph glyph-name="six.lf" horiz-adv-x="1228" 
d="M862 1335q-244 0 -399 -211q-63 -86 -108 -206.5t-66 -235.5q75 116 194.5 177t249.5 61q186 0 296.5 -115t100.5 -299q-5 -101 -48 -195t-115 -167.5t-176.5 -117.5t-223.5 -44q-61 0 -119 15t-116 52.5t-101 93.5t-69.5 145t-26.5 201q0 181 65 388t191 350
q191 223 475 223q199 0 365 -125l-76 -94q-135 104 -293 104zM293 412q-4 -56 12 -110t50 -99t92.5 -73t132.5 -28q114 0 207.5 58t144.5 146.5t57 187.5q9 132 -68.5 217.5t-222.5 85.5q-88 0 -164 -34.5t-126 -90t-80 -123.5t-35 -137z" />
    <glyph glyph-name="seven.lf" horiz-adv-x="1040" 
d="M240 1423h923l-20 -94q-124 -128 -227 -253.5t-212.5 -287.5t-209 -360.5t-183.5 -427.5h-164q164 405 360.5 719.5t455.5 576.5h-756z" />
    <glyph glyph-name="eight.lf" horiz-adv-x="1294" 
d="M924 754q124 -41 193 -119t69 -189q0 -137 -84 -244.5t-221 -163.5t-301 -56q-222 0 -357 98t-135 262q1 107 58.5 196t145 143.5t193.5 78.5q-99 38 -155 108t-56 164q0 79 37 153t104 133.5t173.5 95.5t234.5 36q210 0 322 -91t112 -226q0 -268 -333 -379zM412 1030
q0 -106 87.5 -158.5t219.5 -52.5q188 0 293.5 86t105.5 211q0 74 -47.5 123t-114 67.5t-147.5 18.5q-106 0 -194 -32t-145.5 -100.5t-57.5 -162.5zM580 113q206 0 330 99t124 239q0 116 -98 176.5t-244 60.5q-206 0 -330 -99.5t-124 -240.5q0 -78 50 -133t125 -78.5
t167 -23.5z" />
    <glyph glyph-name="nine.lf" horiz-adv-x="1247" 
d="M1188 930q0 -144 -36 -292.5t-99 -268.5q-43 -83 -97.5 -150t-127 -122t-167 -85t-202.5 -30q-196 0 -361 106l68 105q138 -89 295 -89q266 0 430 256q112 175 139 394q-69 -106 -195 -175t-262 -69q-172 0 -277.5 110.5t-105.5 282.5q0 105 42 204t115.5 175t181.5 122
t231 46q95 0 170 -28.5t122.5 -76.5t79 -116t44 -141t12.5 -158zM610 635q90 0 170 35t134.5 91.5t86 129.5t31.5 149q0 122 -77.5 206.5t-219.5 84.5q-118 0 -212 -61.5t-143.5 -156.5t-49.5 -202q0 -125 72 -200.5t208 -75.5z" />
    <glyph glyph-name="zero.num" horiz-adv-x="765" 
d="M418 670q-67 0 -117 25t-78 69t-41.5 97t-13.5 116q0 87 22.5 171t65.5 155.5t113.5 115t158.5 43.5q67 0 116 -25t77 -69t41.5 -97t13.5 -116q0 -88 -22.5 -172t-65 -155t-113 -114.5t-157.5 -43.5zM424 770q76 0 134.5 62.5t85 147.5t26.5 173q0 93 -38 150t-110 57
q-60 0 -109 -37t-78.5 -95t-45 -124t-15.5 -129q0 -92 38 -148.5t112 -56.5z" />
    <glyph glyph-name="one.num" horiz-adv-x="501" 
d="M446 1448h89l-191 -766h-102l159 647l-192 -94l-29 78z" />
    <glyph glyph-name="two.num" horiz-adv-x="700" 
d="M336 870q-46 -41 -64 -88h394l-25 -100h-510q22 103 50 150.5t93 105.5q37 32 77 57.5t102 60t86 48.5q133 76 133 162q0 42 -36.5 71t-103.5 29q-96 0 -219 -68l-30 80q137 84 262 84q104 0 165.5 -53t61.5 -131q0 -114 -127 -209q-40 -29 -149 -92.5t-160 -106.5z" />
    <glyph glyph-name="three.num" horiz-adv-x="628" 
d="M692 1282q0 -72 -52.5 -127.5t-133.5 -81.5q54 -19 87.5 -62t33.5 -100q0 -106 -82 -173.5t-211 -67.5q-136 0 -236 80l54 73q80 -59 178 -59q87 0 137.5 41.5t50.5 103.5q0 50 -39.5 80.5t-103.5 30.5h-68l25 98h67q74 0 131 38.5t58 100.5q0 49 -35.5 81t-97.5 32
q-89 0 -181 -61l-43 59q113 94 248 94q102 0 157.5 -53t55.5 -127z" />
    <glyph glyph-name="four.num" horiz-adv-x="694" 
d="M776 1446l-121 -490h84l-20 -84h-84l-47 -188h-103l47 188h-374l-8 68l530 506h96zM289 956h266l88 344z" />
    <glyph glyph-name="five.num" horiz-adv-x="669" 
d="M729 1354h-307l-78 -224q64 27 119 27q96 0 159.5 -59t63.5 -152q0 -112 -86.5 -194t-230.5 -82q-149 0 -236 80l53 73q76 -59 176 -59q95 0 155.5 51.5t60.5 126.5q0 57 -39.5 92t-106.5 35q-85 0 -160 -53l-43 47l131 385h394z" />
    <glyph glyph-name="six.num" horiz-adv-x="686" 
d="M563 1368q-118 0 -194 -102q-54 -70 -80 -179q80 87 198 87q92 0 150.5 -57t58.5 -146q0 -122 -87.5 -211.5t-217.5 -89.5q-114 0 -171.5 75t-57.5 197q0 84 35 195t94 186q107 139 280 139q113 0 197 -71l-55 -72q-67 49 -150 49zM461 1077q-84 0 -138.5 -58t-54.5 -126
q0 -54 34.5 -92.5t94.5 -38.5q80 0 137.5 58t57.5 134q0 55 -34.5 89t-96.5 34z" />
    <glyph glyph-name="seven.num" horiz-adv-x="602" 
d="M254 1446h500l-17 -68q-140 -122 -254 -307.5t-186 -386.5h-111q59 168 177.5 359t232.5 305h-365z" />
    <glyph glyph-name="eight.num" horiz-adv-x="716" 
d="M606 1085q54 -24 87.5 -68.5t33.5 -98.5q0 -105 -90.5 -176.5t-233.5 -71.5q-122 0 -190 56.5t-68 137.5t55.5 141.5t141.5 84.5q-98 51 -98 149q0 91 81 157t212 66q110 0 168.5 -52.5t58.5 -125.5q0 -69 -43.5 -120t-114.5 -79zM526 1370q-74 0 -129 -35.5t-55 -99.5
q0 -48 39.5 -74t97.5 -26q44 0 84.5 14t70.5 45.5t30 73.5q0 50 -40 76t-98 26zM618 911q6 55 -39 90t-118 35q-84 0 -145.5 -44t-61.5 -113q0 -53 44.5 -83t109.5 -30q87 0 145.5 40t64.5 105z" />
    <glyph glyph-name="nine.num" horiz-adv-x="675" 
d="M492 1462q113 0 172 -73t59 -183q0 -101 -22 -198t-66 -164q-115 -174 -313 -174q-111 0 -191 53l49 76q68 -37 148 -37q77 0 139.5 41t99.5 115q31 58 45 147q-38 -45 -96 -74.5t-117 -29.5q-102 0 -158.5 57t-56.5 145q0 122 87.5 210.5t220.5 88.5zM420 1051
q78 0 136 57t58 129q0 60 -34.5 96.5t-98.5 36.5q-82 0 -137 -58.5t-55 -133.5q0 -57 33.5 -92t97.5 -35z" />
    <glyph glyph-name="one.numalt" horiz-adv-x="620" 
d="M315 776h201l-22 -94h-486l23 94h182l137 553l-192 -94l-29 78l266 135h88z" />
    <glyph glyph-name="zero.slash" horiz-adv-x="1380" 
d="M852 1450q98 0 176.5 -30t130 -81t85.5 -122t48.5 -149t14.5 -167q0 -72 -10.5 -151.5t-35 -170t-61 -174.5t-92.5 -161.5t-124.5 -135t-162 -92t-200.5 -34.5q-98 0 -176.5 29.5t-130 80.5t-85.5 121.5t-48.5 149t-14.5 167.5q0 70 10.5 149.5t35 169.5t60.5 174.5
t92 162.5t124.5 136.5t162 93t201.5 34.5zM838 1319q-91 0 -170 -38.5t-134.5 -103.5t-99 -146.5t-68.5 -171.5t-38 -174t-13 -159q0 -114 31 -202l672 948q-71 47 -180 47zM633 113q93 0 173 38.5t136.5 104t100.5 147.5t70 173.5t39 177.5t13 164q0 153 -55 251l-690 -974
q82 -82 213 -82z" />
    <glyph glyph-name="zero.tf" horiz-adv-x="1249" 
d="M553 -18q-98 0 -176.5 29.5t-130 80.5t-85.5 121.5t-48.5 149t-14.5 167.5q0 70 10.5 149.5t35 169.5t60.5 174.5t92 162.5t124.5 136.5t162 93t201.5 34.5q98 0 176.5 -30t130 -81t85.5 -122t48.5 -149t14.5 -167q0 -72 -10.5 -151.5t-35 -170t-61 -174.5t-92.5 -161.5
t-124.5 -135t-162 -92t-200.5 -34.5zM565 113q93 0 173 38.5t136.5 104t101 147.5t70.5 173.5t39 177.5t13 164q0 186 -81.5 293.5t-246.5 107.5q-91 0 -170 -38.5t-134.5 -103.5t-98.5 -146.5t-68.5 -171.5t-38 -174t-12.5 -159q0 -190 80 -301.5t237 -111.5z" />
    <glyph glyph-name="one.tf" horiz-adv-x="1273" 
d="M651 131h414l-33 -131h-926l31 131h373l281 1124l-381 -196l-39 115l487 249h117z" />
    <glyph glyph-name="two.tf" horiz-adv-x="1271" 
d="M774 1450q195 0 311.5 -99.5t116.5 -248.5q0 -169 -162 -309q-88 -73 -324 -207t-323 -201q-158 -118 -186 -254h790l-30 -131h-926q13 78 24 123.5t30.5 96t49.5 89.5t75.5 83t113.5 97q94 68 300.5 187t272.5 170q152 122 152 250q0 96 -81 158.5t-214 62.5
q-216 0 -432 -133l-35 112q241 154 477 154z" />
    <glyph glyph-name="three.tf" horiz-adv-x="1265" 
d="M864 735q106 -40 168 -120.5t62 -194.5q0 -183 -154 -310.5t-391 -127.5q-268 0 -445 168l74 102q168 -137 377 -137q169 0 278 89.5t109 223.5q0 66 -26 115.5t-70 77t-94 40.5t-105 13h-141l20 131h136q161 0 269.5 83.5t108.5 207.5q0 94 -73 157.5t-207 63.5
q-191 0 -367 -131l-63 80q193 184 454 184q188 0 294 -100.5t106 -241.5q0 -130 -89 -227.5t-231 -145.5z" />
    <glyph glyph-name="four.tf" horiz-adv-x="1247" 
d="M1182 1423l-236 -940h172l-31 -123h-172l-90 -360h-139l90 360h-745l26 109l1002 954h123zM242 483h565l172 693z" />
    <glyph glyph-name="five.tf" horiz-adv-x="1253" 
d="M1137 1296h-602l-142 -469q133 80 293 80q184 0 300 -110.5t116 -284.5q0 -69 -18 -139.5t-61.5 -141.5t-107 -125.5t-163 -89t-220.5 -34.5q-259 0 -464 170l75 108q172 -145 383 -145q201 0 315.5 110.5t114.5 270.5q0 134 -86 211t-227 77q-158 0 -303 -100l-102 25
l196 714h723z" />
    <glyph glyph-name="six.tf" horiz-adv-x="1261" 
d="M879 1335q-245 0 -400 -211q-63 -86 -108 -206.5t-66 -235.5q75 116 195 177t250 61q179 0 288 -106t109 -279q0 -104 -41 -203t-112.5 -177t-179 -125.5t-230.5 -47.5q-61 0 -119 15t-116 52.5t-101 93.5t-69.5 145t-26.5 201q0 181 65 388t191 350q191 223 475 223
q198 0 364 -125l-76 -94q-135 104 -292 104zM307 389q0 -73 30 -136.5t97 -107t160 -43.5q90 0 168.5 36.5t130.5 96t81.5 134.5t29.5 151q0 122 -77 199.5t-214 77.5q-91 0 -170 -37.5t-129 -97t-78.5 -131t-28.5 -142.5z" />
    <glyph glyph-name="seven.tf" horiz-adv-x="1280" 
d="M399 1423h924l-20 -94q-124 -128 -227 -253.5t-212.5 -287.5t-209 -360.5t-183.5 -427.5h-164q165 406 360.5 720t454.5 576h-755z" />
    <glyph glyph-name="eight.tf" horiz-adv-x="1261" 
d="M887 754q124 -41 193 -119t69 -189q0 -137 -84 -244.5t-221 -163.5t-301 -56q-222 0 -357 98t-135 262q1 107 58.5 196t145.5 143.5t194 78.5q-99 38 -155 108t-56 164q0 79 36.5 153t104 133.5t173.5 95.5t234 36q210 0 322.5 -91t112.5 -226q0 -267 -334 -379z
M375 1030q0 -106 87.5 -158.5t219.5 -52.5q188 0 293.5 86t105.5 211q0 74 -47.5 123t-114 67.5t-147.5 18.5q-106 0 -194 -32t-145.5 -100.5t-57.5 -162.5zM543 113q206 0 330 99t124 239q0 116 -98 176.5t-244 60.5q-206 0 -330 -99.5t-124 -240.5q0 -78 50 -133
t125 -78.5t167 -23.5z" />
    <glyph glyph-name="nine.tf" horiz-adv-x="1263" 
d="M1233 930q0 -144 -36 -292.5t-99 -268.5q-43 -83 -97.5 -150t-127 -122t-167 -85t-202.5 -30q-196 0 -361 106l68 105q138 -89 295 -89q266 0 430 256q112 175 139 394q-69 -106 -195 -175t-262 -69q-171 0 -276.5 110.5t-105.5 282.5q0 141 70.5 265.5t203 203
t295.5 78.5q95 0 170 -28.5t122.5 -76.5t79 -116t44 -141t12.5 -158zM655 635q90 0 170 35t134.5 91.5t86 129.5t31.5 149q0 122 -77.5 206.5t-219.5 84.5q-118 0 -212 -61.5t-143.5 -156.5t-49.5 -202q0 -125 72 -200.5t208 -75.5z" />
    <glyph glyph-name="twosevenths" horiz-adv-x="1587" 
d="M690 782l-24 -100h-510l12 59q21 98 131 197q37 32 76 57.5t102 60.5t86 48q133 76 133 162q0 43 -36 71.5t-103 28.5q-96 0 -219 -68l-31 80q137 84 262 84q104 0 166 -53t62 -131q0 -114 -127 -209q-41 -29 -150 -92.5t-160 -106.5q-45 -40 -63 -88h393zM1624 1446h123
l-1430 -1464h-120zM1260 745h499l-16 -67q-140 -122 -254 -307.5t-186 -386.5h-111q69 199 205 403q105 160 205 260h-365z" />
    <glyph glyph-name="threesevenths" horiz-adv-x="1544" 
d="M631 911q0 -106 -82 -173.5t-211 -67.5q-136 0 -236 80l54 73q80 -59 178 -59q87 0 137.5 41.5t50.5 103.5q0 50 -39.5 80.5t-103.5 30.5h-68l25 98h67q74 0 131 38.5t58 100.5q0 49 -35.5 81t-97.5 32q-88 0 -180 -61l-43 59q113 94 247 94q102 0 157.5 -53t55.5 -127
q0 -76 -61 -137q-49 -49 -125 -72q53 -18 84 -57q37 -43 37 -105zM1518 1446h122l-1429 -1464h-121zM1192 745h500l-17 -67q-140 -122 -254 -307.5t-186 -386.5h-111q69 199 205 403q105 160 205 260h-365z" />
    <glyph glyph-name="foursevenths" horiz-adv-x="1558" 
d="M1548 1446h123l-1429 -1464h-121zM512 872h-375l-8 68l530 506h97l-121 -490h84l-21 -84h-84l-47 -188h-102zM268 956h267l88 344zM1194 745h500l-17 -67q-140 -122 -254 -307.5t-186 -386.5h-111q69 199 205 403q105 160 205 260h-365z" />
    <glyph glyph-name="fivesevenths" horiz-adv-x="1556" 
d="M659 946q0 -112 -86.5 -194t-230.5 -82q-149 0 -236 80l54 73q76 -59 176 -59q95 0 155 51.5t60 126.5q0 58 -39 92.5t-106 34.5q-85 0 -160 -53l-43 47l131 385h393l-25 -94h-307l-78 -224q64 27 119 27q96 0 159.5 -59t63.5 -152zM1530 1446h123l-1430 -1464h-121z
M1192 745h500l-17 -67q-140 -122 -254 -307.5t-186 -386.5h-111q69 199 205 403q105 160 205 260h-365z" />
    <glyph glyph-name="sixsevenths" horiz-adv-x="1562" 
d="M383 670q-114 0 -171.5 75t-57.5 197q0 84 35 195t94 186q107 139 280 139q113 0 197 -71l-55 -72q-67 49 -150 49q-119 0 -195 -102q-52 -68 -79 -179q80 87 198 87q92 0 150.5 -57t58.5 -146q0 -122 -87.5 -211.5t-217.5 -89.5zM1554 1446h123l-1429 -1464h-121z
M453 1077q-84 0 -138.5 -58t-54.5 -126q0 -54 34.5 -92.5t94.5 -38.5q80 0 137.5 58t57.5 134q0 55 -34.5 89t-96.5 34zM1210 745h500l-16 -67q-140 -123 -254.5 -308t-186.5 -386h-110q69 199 205 403q107 163 204 260h-364z" />
    <glyph glyph-name="twoninths" horiz-adv-x="1613" 
d="M682 782l-25 -100h-510l13 59q21 98 131 197q37 32 76 57.5t102 60.5t86 48q133 76 133 162q0 43 -36 71.5t-103 28.5q-96 0 -219 -68l-31 80q137 84 262 84q104 0 165.5 -53t61.5 -131q0 -114 -126 -209q-41 -29 -150 -92.5t-160 -106.5q-45 -40 -63 -88h393zM1661 1446
h123l-1430 -1464h-121zM1495 762q113 0 172 -73t59 -183q0 -99 -22.5 -195t-65.5 -164q-48 -85 -128 -131.5t-185 -46.5q-108 0 -190 54l49 75q68 -37 147 -37q78 0 140.5 41t99.5 115q31 58 45 148q-38 -46 -96.5 -75.5t-116.5 -29.5q-102 0 -158.5 57.5t-56.5 145.5
q0 122 87 210.5t220 88.5zM1423 350q78 0 136.5 57.5t58.5 129.5q0 60 -34.5 96.5t-98.5 36.5q-82 0 -137.5 -59t-55.5 -134q0 -57 33.5 -92t97.5 -35z" />
    <glyph glyph-name="fourninths" horiz-adv-x="1568" 
d="M461 684l47 188h-375l-8 68l530 506h97l-121 -490h84l-21 -84h-84l-47 -188h-102zM1599 1446h123l-1429 -1464h-121zM264 956h266l88 344zM1434 762q113 0 172 -73t59 -183q0 -99 -22.5 -195t-65.5 -164q-48 -85 -128 -131.5t-185 -46.5q-109 0 -191 54l49 75
q68 -37 148 -37q77 0 139.5 41t99.5 115q31 58 45 148q-38 -46 -96.5 -75.5t-116.5 -29.5q-102 0 -158.5 57.5t-56.5 145.5q0 122 87.5 210.5t220.5 88.5zM1362 350q78 0 136 57.5t58 129.5q0 60 -34.5 96.5t-98.5 36.5q-82 0 -137 -59t-55 -134q0 -57 33.5 -92t97.5 -35z
" />
    <glyph glyph-name="fiveninths" horiz-adv-x="1587" 
d="M659 946q0 -112 -86.5 -194t-230.5 -82q-149 0 -236 80l54 73q76 -59 176 -59q95 0 155 51.5t60 126.5q0 58 -39 92.5t-106 34.5q-85 0 -160 -53l-43 47l131 385h393l-25 -94h-307l-78 -224q64 27 119 27q96 0 159.5 -59t63.5 -152zM1561 1446h122l-1429 -1464h-121z
M1436 762q113 0 172 -73t59 -183q0 -99 -22.5 -195t-65.5 -164q-48 -85 -128 -131.5t-185 -46.5q-109 0 -191 54l49 75q68 -37 148 -37q77 0 139.5 41t99.5 115q31 58 45 148q-38 -46 -96.5 -75.5t-116.5 -29.5q-102 0 -158.5 57.5t-56.5 145.5q0 122 87.5 210.5t220.5 88.5
zM1364 350q78 0 136.5 57.5t58.5 129.5q0 60 -35 96.5t-99 36.5q-82 0 -137 -59t-55 -134q0 -57 33.5 -92t97.5 -35z" />
    <glyph glyph-name="sevenninths" horiz-adv-x="1540" 
d="M1436 1446h123l-1430 -1464h-121zM197 684q35 99 91.5 209t112.5 194q107 163 205 261h-364l22 98h500l-16 -68q-140 -123 -254.5 -308t-186.5 -386h-110zM1354 762q113 0 172 -73t59 -183q0 -99 -22.5 -195t-65.5 -164q-48 -85 -128 -131.5t-185 -46.5q-109 0 -191 54
l49 75q68 -37 148 -37q78 0 140.5 41t99.5 115q31 58 45 148q-38 -46 -96.5 -75.5t-116.5 -29.5q-102 0 -158.5 57.5t-56.5 145.5q0 122 87 210.5t220 88.5zM1282 350q78 0 136.5 57.5t58.5 129.5q0 60 -35 96.5t-99 36.5q-82 0 -137 -59t-55 -134q0 -57 33.5 -92t97.5 -35z
" />
    <glyph glyph-name="eightninths" horiz-adv-x="1601" 
d="M385 670q-122 0 -190 56.5t-68 137.5t55.5 141.5t141.5 84.5q-99 52 -99 149q0 91 81 157t212 66q110 0 168.5 -52.5t58.5 -125.5q0 -69 -43 -120t-114 -79q54 -24 87.5 -68.5t33.5 -98.5q0 -105 -90.5 -176.5t-233.5 -71.5zM1599 1446h123l-1429 -1464h-121zM506 1370
q-74 0 -129 -35.5t-55 -99.5q0 -48 39.5 -74t97.5 -26q43 0 84 14t70.5 45.5t29.5 73.5q0 50 -39.5 76t-97.5 26zM440 1036q-84 0 -145.5 -44t-61.5 -113q0 -53 44.5 -83t109.5 -30q87 0 146 40t65 105q6 55 -39.5 90t-118.5 35zM1454 762q113 0 172.5 -73t59.5 -183
q0 -98 -23 -194t-66 -165q-48 -85 -128 -131.5t-185 -46.5q-108 0 -190 54l49 75q68 -37 147 -37q78 0 140.5 41t99.5 115q31 58 45 148q-38 -46 -96.5 -75.5t-116.5 -29.5q-102 0 -158.5 57.5t-56.5 145.5q0 122 87 210.5t220 88.5zM1382 350q78 0 136.5 57.5t58.5 129.5
q0 60 -34.5 96.5t-98.5 36.5q-82 0 -137.5 -59t-55.5 -134q0 -57 33.5 -92t97.5 -35z" />
    <glyph glyph-name="zero.dnom" horiz-adv-x="751" 
d="M418 -31q-67 0 -117 25t-78 69t-41.5 97t-13.5 116q0 87 22.5 171.5t65.5 155.5t113.5 115t158.5 44q67 0 116 -25t77 -69t41.5 -97t13.5 -116q0 -69 -13.5 -137.5t-43 -131.5t-70.5 -111t-101 -77t-130 -29zM424 70q76 0 134.5 62.5t85 147.5t26.5 173q0 93 -38 149.5
t-110 56.5q-60 0 -109 -37t-78.5 -95t-45 -124t-15.5 -129q0 -92 38 -148t112 -56z" />
    <glyph glyph-name="one.dnom" horiz-adv-x="487" 
d="M446 748h89l-191 -766h-102l159 647l-192 -94l-29 77z" />
    <glyph glyph-name="two.dnom" horiz-adv-x="686" 
d="M336 170q-46 -41 -64 -88h394l-25 -100h-510q22 103 50 150.5t93 105.5q37 32 77.5 57.5t101 59t86.5 48.5q133 76 133 162q0 43 -36.5 72t-103.5 29q-96 0 -219 -68l-30 80q137 84 262 84q104 0 165.5 -53t61.5 -131q0 -114 -127 -209q-40 -29 -149 -92.5t-160 -106.5z
" />
    <glyph glyph-name="three.dnom" horiz-adv-x="628" 
d="M692 582q0 -73 -53 -129.5t-133 -79.5q54 -19 87.5 -62t33.5 -100q0 -106 -82 -174t-211 -68q-136 0 -236 80l54 74q82 -60 178 -60q86 0 137 42t51 104q0 50 -39.5 80t-103.5 30h-68l25 99h67q74 0 131 38.5t58 100.5q0 49 -35.5 81t-97.5 32q-87 0 -181 -62l-43 60
q113 94 248 94q102 0 157.5 -53t55.5 -127z" />
    <glyph glyph-name="four.dnom" horiz-adv-x="694" 
d="M776 745l-121 -489h84l-20 -84h-84l-47 -188h-103l47 188h-374l-8 68l530 505h96zM289 256h266l88 344z" />
    <glyph glyph-name="five.dnom" horiz-adv-x="669" 
d="M729 653h-307l-78 -223q64 27 119 27q96 0 159.5 -59t63.5 -152q0 -112 -86.5 -194.5t-230.5 -82.5q-149 0 -236 80l53 74q77 -60 176 -60q95 0 155.5 52t60.5 127q0 57 -39.5 92t-106.5 35q-83 0 -160 -54l-43 47l131 386h394z" />
    <glyph glyph-name="six.dnom" horiz-adv-x="686" 
d="M563 668q-118 0 -194 -103q-54 -71 -80 -178q79 86 198 86q92 0 150.5 -57t58.5 -146q0 -122 -87.5 -211.5t-217.5 -89.5q-113 0 -171 75.5t-58 197.5q0 84 35 195t94 186q107 139 280 139q51 0 104.5 -19t92.5 -53l-55 -72q-68 50 -150 50zM461 377q-84 0 -138.5 -58
t-54.5 -126q0 -54 34.5 -93t94.5 -39q80 0 137.5 58.5t57.5 134.5q0 55 -34.5 89t-96.5 34z" />
    <glyph glyph-name="seven.dnom" horiz-adv-x="602" 
d="M254 745h500l-17 -67q-140 -122 -254 -307.5t-186 -386.5h-111q59 168 177.5 358.5t232.5 304.5h-365z" />
    <glyph glyph-name="eight.dnom" horiz-adv-x="716" 
d="M606 385q54 -24 87.5 -69t33.5 -99q0 -105 -90.5 -176.5t-233.5 -71.5q-122 0 -190 57t-68 138t55.5 141t141.5 84q-98 51 -98 150q0 91 81 157t212 66q110 0 168.5 -52.5t58.5 -125.5q0 -69 -43.5 -120t-114.5 -79zM526 670q-74 0 -129 -35.5t-55 -99.5
q0 -48 39.5 -74.5t97.5 -26.5q44 0 84.5 14t70.5 45.5t30 73.5q0 50 -40 76.5t-98 26.5zM618 211q6 55 -39 90t-118 35q-84 0 -145.5 -44.5t-61.5 -113.5q0 -53 44.5 -82.5t109.5 -29.5q87 0 145.5 40t64.5 105z" />
    <glyph glyph-name="nine.dnom" horiz-adv-x="675" 
d="M492 762q113 0 172 -73t59 -183q0 -201 -86 -356q-108 -181 -315 -181q-109 0 -191 54l49 75q68 -37 148 -37q77 0 139.5 41t99.5 115q31 58 45 148q-38 -46 -96.5 -75.5t-116.5 -29.5q-102 0 -158.5 57.5t-56.5 145.5q0 122 87.5 210.5t220.5 88.5zM420 350
q78 0 136 57.5t58 129.5q0 60 -34.5 96.5t-98.5 36.5q-82 0 -137 -59t-55 -134q0 -57 33.5 -92t97.5 -35z" />
    <glyph glyph-name="caron.alt" horiz-adv-x="526" 
d="M463 1886l-156 -325h-117l127 325h146z" />
    <glyph glyph-name="acute.case" horiz-adv-x="585" 
d="M127 1567l235 321h173l-285 -321h-123z" />
    <glyph glyph-name="breve.case" horiz-adv-x="821" 
d="M387 1550q-128 0 -194 65t-66 159q0 33 4 49h113q-4 -28 -4 -39q0 -65 40 -102t119 -37q87 0 147.5 46.5t86.5 131.5h117q-37 -128 -132 -200.5t-231 -72.5z" />
    <glyph glyph-name="caron.case" horiz-adv-x="878" 
d="M317 1550l-178 293h133l129 -207l234 207h143l-319 -293h-142z" />
    <glyph glyph-name="cedilla.case" horiz-adv-x="616" 
d="M258 -473q-55 0 -108.5 16.5t-88.5 44.5l48 62q56 -37 133 -37q78 0 119.5 33t41.5 75q0 41 -37 69t-104 28h-39l-4 28l115 168h98l-88 -135h16q78 -1 121 -45.5t43 -107.5q0 -76 -71.5 -137.5t-194.5 -61.5z" />
    <glyph glyph-name="circumflex.case" horiz-adv-x="868" 
d="M109 1565l325 293h133l189 -293h-138l-129 207l-227 -207h-153z" />
    <glyph glyph-name="dieresis.case" horiz-adv-x="708" 
d="M82 1591l43 170h172l-41 -170h-174zM465 1591l43 170h172l-43 -170h-172z" />
    <glyph glyph-name="dotaccent.case" horiz-adv-x="565" 
d="M174 1604l43 174h180l-45 -174h-178z" />
    <glyph glyph-name="grave.case" horiz-adv-x="614" 
d="M248 1565l-135 317h170l90 -317h-125z" />
    <glyph glyph-name="hungarumlaut.case" horiz-adv-x="815" 
d="M104 1561l228 319h166l-267 -319h-127zM461 1561l227 319h166l-266 -319h-127z" />
    <glyph glyph-name="macron.case" horiz-adv-x="876" 
d="M102 1626l31 121h631l-31 -121h-631z" />
    <glyph glyph-name="ogonek.case" horiz-adv-x="622" 
d="M281 -473q-88 0 -136.5 48t-48.5 120q0 65 31 121.5t87 100t115.5 76t135.5 62.5l37 -55q-122 -42 -199.5 -111t-77.5 -151q0 -42 24.5 -65t67.5 -23q44 0 93 22l30 -102q-73 -43 -159 -43z" />
    <glyph glyph-name="ring.case" horiz-adv-x="610" 
d="M283 1511q-76 0 -127.5 47.5t-51.5 120.5q0 101 72.5 166.5t169.5 65.5q74 0 126 -49.5t52 -122.5q0 -93 -68 -160.5t-173 -67.5zM293 1591q58 0 99.5 40t41.5 104q0 44 -29 70t-71 26q-60 0 -100.5 -41t-40.5 -100q0 -42 27.5 -70.5t72.5 -28.5z" />
    <glyph glyph-name="tilde.case" horiz-adv-x="1028" 
d="M668 1581q-40 0 -76 15.5t-62.5 37.5t-51.5 44t-53.5 37.5t-57.5 15.5q-98 0 -172 -142h-103q58 130 133.5 190t153.5 60q49 0 91.5 -23.5t69 -51t64 -51t76.5 -23.5q100 0 172 141h96q-59 -133 -132 -191.5t-148 -58.5z" />
    <glyph glyph-name="NULL" horiz-adv-x="0" 
 />
    <glyph glyph-name="commaccent" horiz-adv-x="315" 
d="M-55 -545l116 377h144l-146 -377h-114z" />
    <glyph glyph-name="commaccent.case" horiz-adv-x="309" 
d="M-74 -502l127 387h150l-156 -387h-121z" />
    </font>
</defs>
</svg>
