<svg id="Group_40964" data-name="Group 40964" xmlns="http://www.w3.org/2000/svg" width="40.097" height="52.111" viewBox="0 0 40.097 52.111">
  <g id="Group_40963" data-name="Group 40963">
    <path id="Path_44694" data-name="Path 44694" d="M124.5,57.438a49.658,49.658,0,0,0-9.977-13.466A72.764,72.764,0,0,0,99.134,32.421a.988.988,0,0,0-1.449.874c0,7.43-.739,15.389-9.565,23.827a.988.988,0,0,0,1.365,1.428c4.942-4.724,9.771-10.446,10.151-23.567a73.692,73.692,0,0,1,13.5,10.4A47.705,47.705,0,0,1,122.721,58.3a29.768,29.768,0,0,1,3.015,16.731,18.751,18.751,0,0,1-2.725,7.87.988.988,0,1,0,1.671,1.054,20.71,20.71,0,0,0,3.016-8.692A31.711,31.711,0,0,0,124.5,57.438Z" transform="translate(-87.814 -32.307)" fill="#17416d"/>
  </g>
</svg>
