<svg id="Group_40966" data-name="Group 40966" xmlns="http://www.w3.org/2000/svg" width="43.852" height="34.351" viewBox="0 0 43.852 34.351">
  <g id="Group_40965" data-name="Group 40965" transform="translate(0)">
    <path id="Path_44695" data-name="Path 44695" d="M57.841,273.4a.987.987,0,0,0-1.4,0,22.474,22.474,0,0,1-8.572,5.183,17.678,17.678,0,0,0,.746-5.365c0-3.983-2.1-6.464-4.316-9.09-2.414-2.856-4.911-5.81-5.179-11.239a.988.988,0,0,0-1.539-.77c-5.576,3.761-8.743,8.224-9.412,13.264-.783,5.892,2.076,11.18,4.172,14.157A23.391,23.391,0,0,1,21.9,274.7a15.656,15.656,0,0,1-5.642-11.868c-.148-6.466,2.058-10,5.663-13.605a.988.988,0,1,0-1.4-1.4c-3.865,3.864-6.4,7.9-6.242,15.047a17.581,17.581,0,0,0,6.336,13.327,26.366,26.366,0,0,0,13.925,5.681.972.972,0,0,0,.116.007.988.988,0,0,0,.747-1.634c-1.468-1.7-6.188-7.768-5.277-14.623.536-4.037,2.951-7.7,7.184-10.9.7,5.013,3.226,8,5.479,10.665,2.066,2.444,3.849,4.554,3.849,7.815a13.39,13.39,0,0,1-1.364,6.442.988.988,0,0,0,1.116,1.431,25.183,25.183,0,0,0,11.441-6.29A.988.988,0,0,0,57.841,273.4Z" transform="translate(-14.277 -247.544)" fill="#17416d"/>
  </g>
</svg>
