<svg id="Group_40984" data-name="Group 40984" xmlns="http://www.w3.org/2000/svg" width="30.72" height="57.252" viewBox="0 0 30.72 57.252">
  <g id="Group_40983" data-name="Group 40983">
    <path id="Path_44719" data-name="Path 44719" d="M110.908,25.207a62.313,62.313,0,0,1-6.026-2.353v-.066a9.79,9.79,0,0,0,5.585-8.823V9.777a9.774,9.774,0,0,0-10.99-9.7A9.947,9.947,0,0,0,90.919,10.1v3.87A9.789,9.789,0,0,0,96.5,22.789v.066a62.259,62.259,0,0,1-6.026,2.353c-5.085,1.7-5.144,5.359-5.144,5.514v22.34q0,.119,0,.238a4.071,4.071,0,0,0,4.189,3.951H99.3V54.458H89.523a1.278,1.278,0,0,1-1.4-1.4v-22.3c0-.075.14-1.871,3.234-2.9a59.693,59.693,0,0,0,7.164-2.868,1.4,1.4,0,0,0,.772-1.25V21.856a1.4,1.4,0,0,0-.93-1.317,6.99,6.99,0,0,1-4.655-6.574V10.1a7.153,7.153,0,0,1,6.1-7.245,6.981,6.981,0,0,1,7.861,6.927v4.189a6.99,6.99,0,0,1-4.655,6.574,1.4,1.4,0,0,0-.93,1.317V23.74A1.4,1.4,0,0,0,102.862,25a59.671,59.671,0,0,0,7.164,2.861c3.094,1.03,3.234,2.826,3.234,2.864v1.4h2.793v-1.4C116.052,30.566,115.994,26.9,110.908,25.207Z" transform="translate(-85.333 0)" fill="#17416d"/>
  </g>
</svg>
