<svg xmlns="http://www.w3.org/2000/svg" width="46.631" height="46.635" viewBox="0 0 46.631 46.635">
  <path id="Path_44724" data-name="Path 44724" d="M86.675,66.5h3.168a.83.83,0,0,0,.823-.885A23.379,23.379,0,0,0,69.05,44.023a.83.83,0,0,0-.884.823v4.19a.839.839,0,0,1-1.678,0V44.85a.83.83,0,0,0-.886-.823A23.379,23.379,0,0,0,44.042,65.614a.83.83,0,0,0,.823.885h3.059a.839.839,0,1,1,0,1.677H44.865a.83.83,0,0,0-.823.885A23.379,23.379,0,0,0,65.6,90.648a.83.83,0,0,0,.886-.823V86.74a.839.839,0,0,1,1.677,0v3.089a.83.83,0,0,0,.884.823A23.325,23.325,0,0,0,80.457,86.7a.825.825,0,1,0-.926-1.366,21.674,21.674,0,0,1-9.716,3.592V86.74a2.489,2.489,0,0,0-4.977,0v2.178A21.844,21.844,0,0,1,45.771,69.826h2.153a2.489,2.489,0,1,0,0-4.977H45.771A21.844,21.844,0,0,1,64.836,45.758v3.279a2.489,2.489,0,0,0,4.978,0V45.751a21.833,21.833,0,0,1,19.122,19.1H86.675a2.489,2.489,0,1,0,0,4.977h2.263A21.67,21.67,0,0,1,82.4,83.009a.825.825,0,1,0,1.143,1.19,23.312,23.312,0,0,0,7.123-15.137.83.83,0,0,0-.823-.885H86.675a.839.839,0,1,1,0-1.677Z" transform="translate(-44.039 -44.02)" fill="#17416d"/>
</svg>
