<svg xmlns="http://www.w3.org/2000/svg" width="73.602" height="48.877" viewBox="0 0 73.602 48.877">
  <path id="Path_44703" data-name="Path 44703" d="M72.165,38.814H67.852V30.188h4.313a1.438,1.438,0,1,0,0-2.875H67.852V25.876a1.437,1.437,0,0,0-1.438-1.438h-5.75a1.437,1.437,0,0,0-1.438,1.438H48.3a14.51,14.51,0,0,0-1.438-1.641V15.813a1.438,1.438,0,0,0-1.438-1.438H41.114V8.625h4.313a4.313,4.313,0,0,0,0-8.625H41.114a1.438,1.438,0,0,0,0,2.875h4.313a1.438,1.438,0,0,1,0,2.875H28.176a1.438,1.438,0,1,1,0-2.875,1.438,1.438,0,0,0,0-2.875,4.313,4.313,0,0,0,0,8.625h4.313v5.75H28.176a1.438,1.438,0,0,0-1.438,1.438v8.422A14.4,14.4,0,0,0,25.3,25.876H14.375a1.437,1.437,0,0,0-1.438-1.438H7.188A1.438,1.438,0,0,0,5.75,25.876v1.438H1.438a1.438,1.438,0,1,0,0,2.875H5.75v8.625H1.438a1.438,1.438,0,0,0,0,2.875H5.75v1.438a1.437,1.437,0,0,0,1.438,1.438h5.75a1.437,1.437,0,0,0,1.438-1.438H25.3a14.358,14.358,0,0,0,11.494,5.75h.011a14.358,14.358,0,0,0,11.5-5.75H59.227a1.437,1.437,0,0,0,1.438,1.438h5.75a1.437,1.437,0,0,0,1.438-1.438V41.689h4.313a1.438,1.438,0,1,0,0-2.875ZM35.364,8.625h2.875v5.75H35.364Zm-5.75,8.625H43.989v4.8a14.389,14.389,0,0,0-14.375,0ZM11.5,41.689H8.625V27.313H11.5ZM47.56,40.251a1.437,1.437,0,0,0-1.194.638,11.5,11.5,0,0,1-6.851,4.788l.4-.679a1.437,1.437,0,0,0,0-1.464l-1.444-2.442,1.444-2.441a1.438,1.438,0,0,0-2.475-1.464l-1.877,3.173a1.437,1.437,0,0,0,0,1.464l1.444,2.441L36,45.973a11.491,11.491,0,0,1-8.762-5.083,1.437,1.437,0,0,0-1.194-.638H14.375v-11.5H26.043a1.437,1.437,0,0,0,1.194-.638,11.5,11.5,0,0,1,19.128,0,1.437,1.437,0,0,0,1.195.638H59.227V34.5H55.633a1.438,1.438,0,1,0,0,2.875h3.593v2.875Zm17.417,1.438H62.1V27.313h2.875Zm0,0" fill="#17416d"/>
</svg>
