<svg id="Group_40986" data-name="Group 40986" xmlns="http://www.w3.org/2000/svg" width="30.72" height="57.249" viewBox="0 0 30.72 57.249">
  <g id="Group_40985" data-name="Group 40985">
    <path id="Path_44720" data-name="Path 44720" d="M218.541,74.678h-9.774v2.793h9.774a1.278,1.278,0,0,1,1.4,1.4v22.3c0,.075-.14,1.871-3.234,2.9a59.692,59.692,0,0,0-7.164,2.868,1.4,1.4,0,0,0-.772,1.25v1.884a1.4,1.4,0,0,0,.93,1.317,6.99,6.99,0,0,1,4.655,6.574v3.87a7.153,7.153,0,0,1-6.1,7.245,6.981,6.981,0,0,1-7.861-6.927v-4.189a6.99,6.99,0,0,1,4.655-6.574,1.4,1.4,0,0,0,.93-1.317v-1.884a1.4,1.4,0,0,0-.772-1.25,59.671,59.671,0,0,0-7.164-2.868c-3.094-1.03-3.234-2.826-3.234-2.864v-1.4h-2.793v1.4c0,.155.059,3.819,5.144,5.514a62.312,62.312,0,0,1,6.026,2.353v.066a9.789,9.789,0,0,0-5.585,8.823v4.211a9.774,9.774,0,0,0,9.8,9.752,10.1,10.1,0,0,0,1.194-.074,9.947,9.947,0,0,0,8.558-10.018v-3.87a9.789,9.789,0,0,0-5.585-8.823v-.066a62.261,62.261,0,0,1,6.026-2.353c5.085-1.7,5.144-5.359,5.144-5.514V78.867q0-.119,0-.238A4.071,4.071,0,0,0,218.541,74.678Z" transform="translate(-192.012 -74.676)" fill="#17416d"/>
  </g>
</svg>
