<svg id="Group_40982" data-name="Group 40982" xmlns="http://www.w3.org/2000/svg" width="64.106" height="53.738" viewBox="0 0 64.106 53.738">
  <g id="Group_40981" data-name="Group 40981">
    <path id="Path_44711" data-name="Path 44711" d="M151.549,70.538a17.754,17.754,0,0,0,3.3,9.729c2.343,3.338,5.3,5.177,8.341,5.177s6-1.839,8.34-5.177a17.754,17.754,0,0,0,3.3-9.728,11.636,11.636,0,0,0-23.272,0Zm11.636-9.615a9.626,9.626,0,0,1,9.615,9.615,15.894,15.894,0,0,1-2.929,8.568c-1.925,2.743-4.362,4.317-6.686,4.317s-4.761-1.573-6.686-4.317a15.893,15.893,0,0,1-2.929-8.568A9.626,9.626,0,0,1,163.185,60.923Z" transform="translate(-131.133 -56.151)" fill="#17416d"/>
    <path id="Path_44712" data-name="Path 44712" d="M116.726,238.537a1.011,1.011,0,0,0-1.148.2,9.963,9.963,0,0,1-15.069,0,1.01,1.01,0,0,0-1.148-.2A20.22,20.22,0,0,0,87.822,256.8v.016a1.011,1.011,0,0,0,.332.749,29.617,29.617,0,0,0,39.778,0,1.01,1.01,0,0,0,.332-.749V256.8a20.22,20.22,0,0,0-11.537-18.266Zm-8.683,24.681a27.528,27.528,0,0,1-18.195-6.847,18.2,18.2,0,0,1,9.763-15.7,11.84,11.84,0,0,0,16.865,0,18.2,18.2,0,0,1,9.762,15.7A27.528,27.528,0,0,1,108.043,263.218Z" transform="translate(-75.991 -211.5)" fill="#17416d"/>
    <path id="Path_44713" data-name="Path 44713" d="M327.215,202.246a17.656,17.656,0,0,0-7.256-6.386,1.01,1.01,0,0,0-1.148.2,9.12,9.12,0,0,1-6.42,2.939,8.039,8.039,0,0,1-3.62-.883,1.01,1.01,0,0,0-.9,1.807,10.041,10.041,0,0,0,4.525,1.1,10.865,10.865,0,0,0,7.314-3.023,15.6,15.6,0,0,1,8.282,13.351,23.851,23.851,0,0,1-8.61,4.8,1.01,1.01,0,1,0,.594,1.932,25.879,25.879,0,0,0,9.711-5.535,1.01,1.01,0,0,0,.332-.749v-.014A17.563,17.563,0,0,0,327.215,202.246Z" transform="translate(-265.908 -174.574)" fill="#17416d"/>
    <path id="Path_44714" data-name="Path 44714" d="M65.142,61.651a7.081,7.081,0,0,0,3.168-.774,1.01,1.01,0,0,0-.9-1.81,5.081,5.081,0,0,1-2.269.563c-1.959,0-4.019-1.336-5.653-3.664a13.565,13.565,0,0,1-2.5-7.311A8.153,8.153,0,0,1,70.8,42.785a1.01,1.01,0,0,0,1.4-1.454,10.174,10.174,0,0,0-17.237,7.324,15.459,15.459,0,0,0,2.867,8.471C59.881,60.044,62.476,61.651,65.142,61.651Z" transform="translate(-47.562 -38.48)" fill="#17416d"/>
    <path id="Path_44715" data-name="Path 44715" d="M8.222,215.213a23.621,23.621,0,0,1-6.2-3.907,15.557,15.557,0,0,1,8.258-13.311,10.833,10.833,0,0,0,7.294,3.014,10.027,10.027,0,0,0,4.557-1.115,1.01,1.01,0,0,0-.912-1.8,8.025,8.025,0,0,1-3.645.9,9.089,9.089,0,0,1-6.4-2.931,1.011,1.011,0,0,0-1.148-.2A17.579,17.579,0,0,0,0,211.739v.014a1.011,1.011,0,0,0,.332.748,25.65,25.65,0,0,0,7.091,4.567,1.01,1.01,0,1,0,.8-1.856Z" transform="translate(0 -174.573)" fill="#17416d"/>
    <path id="Path_44716" data-name="Path 44716" d="M69.358,347.079a1.009,1.009,0,1,0,1.865,0A1.016,1.016,0,0,0,69.358,347.079Z" transform="translate(-59.948 -304.976)" fill="#17416d"/>
    <path id="Path_44717" data-name="Path 44717" d="M83.654,350.889c.026.061-.024-.062,0,0Z" transform="translate(-72.378 -308.786)" fill="#17416d"/>
    <path id="Path_44718" data-name="Path 44718" d="M292.349,42.786a8.153,8.153,0,0,1,13.813,5.87,13.564,13.564,0,0,1-2.5,7.311c-1.634,2.329-3.695,3.664-5.653,3.664a5.081,5.081,0,0,1-2.269-.563,1.01,1.01,0,1,0-.9,1.81,7.082,7.082,0,0,0,3.168.774c2.665,0,5.26-1.607,7.308-4.525a15.458,15.458,0,0,0,2.867-8.471,10.174,10.174,0,0,0-17.237-7.324,1.01,1.01,0,1,0,1.4,1.454Z" transform="translate(-251.483 -38.481)" fill="#17416d"/>
  </g>
</svg>
