<svg xmlns="http://www.w3.org/2000/svg" xmlns:xlink="http://www.w3.org/1999/xlink" width="285" height="590.951" viewBox="0 0 285 590.951">
  <defs>
    <clipPath id="clip-path">
      <path id="Teaser_2_active" data-name="Teaser 2 active" d="M0,0H285V590.951H0Z" transform="translate(1691 1283)" fill="#f8e4e4"/>
    </clipPath>
  </defs>
  <g id="Mask_Group_94" data-name="Mask Group 94" transform="translate(-1691 -1283)" opacity="0.3" clip-path="url(#clip-path)">
    <path id="Union_24" data-name="Union 24" d="M0,1219.431,1897.405,3116.837Zm7.669-7.668L1905.074,3109.17Zm7.669-7.667L1912.742,3101.5Zm7.673-7.671,1897.4,1897.406Zm7.669-7.669,1897.4,1897.406Zm7.669-7.671,1897.4,1897.406Zm7.669-7.669,1897.4,1897.406Zm7.669-7.669,1897.4,1897.406Zm7.669-7.671L1958.758,3055.484Zm7.669-7.669,1897.4,1897.406Zm7.673-7.671L1974.1,3040.145Zm7.669-7.669L1981.768,3032.476Zm7.669-7.669L1989.437,3024.808Zm7.673-7.671,1897.4,1897.407Zm7.669-7.669L2004.778,3009.468Zm7.669-7.67L2012.447,3001.8Zm7.669-7.669,1897.4,1897.407Zm7.669-7.669,1897.4,1897.406Zm7.669-7.671L2035.453,2978.79Zm7.669-7.669,1897.4,1897.406Zm7.669-7.669,1897.4,1897.406Zm7.673-7.671,1897.4,1897.406Zm7.669-7.669L2066.131,2948.113Zm7.673-7.671L2073.8,2940.442Zm7.669-7.669L2081.472,2932.774Zm7.669-7.669L2089.141,2925.1Zm7.669-7.671,1897.4,1897.406Zm7.669-7.669,1897.4,1897.406Zm7.667-7.671L2112.145,2902.1Zm7.669-7.669L2119.814,2894.426Zm7.669-7.669,1897.4,1897.406Zm7.674-7.671,1897.4,1897.407Zm7.667-7.669,1897.4,1897.407Zm7.669-7.669,1897.4,1897.406Zm7.674-7.671L2158.167,2856.08ZM268.428,951l1897.4,1897.406Zm7.669-7.67L2173.5,2840.74Zm7.669-7.669L2181.171,2833.071ZM291.434,928,2188.839,2825.4Zm7.669-7.671L2196.508,2817.732Zm7.669-7.669L2204.177,2810.063Zm7.673-7.67,1897.4,1897.407Zm7.669-7.669,1897.4,1897.407Zm7.669-7.669,1897.4,1897.406Zm7.673-7.671L2234.859,2779.385Zm7.669-7.669,1897.4,1897.407Zm7.669-7.668L2250.2,2764.048Zm7.669-7.671L2257.865,2756.377Zm7.669-7.669,1897.4,1897.407Zm7.669-7.671L2273.2,2741.037Zm7.669-7.669L2280.871,2733.369Zm7.669-7.669L2288.54,2725.7Zm7.673-7.671,1897.4,1897.407Zm7.669-7.669,1897.4,1897.407Zm7.673-7.671L2311.554,2702.69Zm7.669-7.669L2319.222,2695.022Zm7.669-7.669L2326.891,2687.353Zm7.669-7.671,1897.4,1897.406Zm7.669-7.669,1897.4,1897.407Zm7.669-7.671L2349.9,2664.343Zm7.669-7.669L2357.566,2656.675Zm7.669-7.669,1897.4,1897.408Zm7.673-7.67,1897.4,1897.407Zm7.669-7.669,1897.4,1897.409Zm7.669-7.667L2388.244,2626Zm7.673-7.673,1897.4,1897.409Zm7.669-7.667L2403.585,2610.661Zm7.669-7.673L2411.254,2602.99Zm7.669-7.667,1897.4,1897.406Zm7.669-7.669L2426.591,2587.653Zm7.669-7.671,1897.4,1897.407Zm7.669-7.669,1897.4,1897.406Zm7.672-7.671L2449.6,2564.643Zm7.669-7.669,1897.4,1897.406Zm7.669-7.669,1897.4,1897.406Zm7.673-7.671,1897.4,1897.407Zm7.669-7.669L2480.28,2533.966Zm7.669-7.669L2487.948,2526.3Zm7.669-7.671,1897.4,1897.406Zm7.669-7.669L2503.286,2510.958Zm7.669-7.671L2510.954,2503.288Zm7.669-7.669L2518.623,2495.619Zm7.669-7.669L2526.292,2487.95Zm7.672-7.671L2533.964,2480.28Zm7.669-7.669,1897.4,1897.406Zm7.673-7.671,1897.4,1897.406Zm7.669-7.669,1897.4,1897.407Zm7.669-7.669L2564.643,2449.6Zm7.669-7.671L2572.311,2441.932Zm7.669-7.669,1897.4,1897.406Zm7.669-7.671L2587.649,2426.593Zm7.667-7.669L2595.317,2418.924Zm7.669-7.669,1897.4,1897.407Zm7.674-7.671,1897.4,1897.407Zm7.667-7.669L2618.327,2395.917Zm7.669-7.669,1897.4,1897.406Zm7.674-7.671L2633.668,2380.577Zm7.669-7.669L2641.337,2372.909Zm7.667-7.671L2649.006,2365.238Zm7.669-7.669,1897.4,1897.406Zm7.669-7.669L2664.341,2349.9Zm7.669-7.671L2672.01,2342.23Zm7.669-7.669L2679.678,2334.561Zm7.673-7.671,1897.4,1897.406Zm7.669-7.669L2695.02,2319.222Zm7.669-7.669L2702.688,2311.554Zm7.673-7.671L2710.361,2303.883Zm7.669-7.669,1897.4,1897.407Zm7.669-7.669L2725.7,2288.545Zm7.669-7.671L2733.367,2280.875Zm7.669-7.669L2741.035,2273.206Zm7.669-7.671L2748.7,2265.536Zm7.669-7.669,1897.4,1897.407Zm7.669-7.669L2764.041,2250.2Zm7.673-7.671,1897.4,1897.407Zm7.668-7.669L2779.383,2234.859Zm7.673-7.671,1897.4,1897.407Zm7.669-7.669L2794.724,2219.52Zm7.669-7.669L2802.393,2211.851Zm7.669-7.671,1897.4,1897.407Zm7.669-7.669,1897.4,1897.407Zm7.669-7.669L2825.4,2188.843Zm7.669-7.671L2833.067,2181.173Zm7.669-7.669L2840.736,2173.5ZM951,268.427,2848.408,2165.833Zm7.669-7.669,1897.4,1897.407Zm7.669-7.669L2863.746,2150.5Zm7.673-7.671,1897.4,1897.406Zm7.669-7.667,1897.405,1897.4Zm7.669-7.673,1897.4,1897.406Zm7.669-7.667,1897.4,1897.406Zm7.669-7.669,1897.4,1897.406Zm7.669-7.671,1897.4,1897.407Zm7.669-7.669,1897.4,1897.407Zm7.673-7.671L2925.1,2089.141Zm7.669-7.669L2932.771,2081.472Zm7.669-7.669L2940.44,2073.8Zm7.673-7.671,1897.4,1897.407Zm7.668-7.669L2955.782,2058.464Zm7.669-7.669L2963.45,2050.8Zm7.669-7.671,1897.4,1897.406Zm7.668-7.669,1897.4,1897.406Zm7.669-7.671,1897.4,1897.407Zm7.668-7.669L2994.125,2020.117Zm7.669-7.669,1897.4,1897.407Zm7.673-7.671,1897.4,1897.407Zm7.669-7.669L3017.134,1997.109Zm7.672-7.671L3024.807,1989.438Zm7.669-7.669,1897.4,1897.407Zm7.669-7.669L3040.144,1974.1Zm7.669-7.671L3047.813,1966.43Zm7.669-7.669,1897.4,1897.406Zm7.669-7.669,1897.4,1897.407Zm7.667-7.671L3070.819,1943.422Zm7.669-7.669,1897.4,1897.406Zm7.675-7.671L3086.16,1928.083Zm7.669-7.669,1897.4,1897.406Zm7.667-7.669L3101.5,1912.746Zm7.674-7.671L3109.17,1905.075ZM1219.434,0l1897.4,1897.406Z" transform="translate(-562.687 -64.032)" fill="none" stroke="#343434" stroke-width="1"/>
  </g>
</svg>
