<svg xmlns="http://www.w3.org/2000/svg" width="30.475" height="13.53" viewBox="0 0 30.475 13.53">
  <path id="Path_44728" data-name="Path 44728" d="M118.81,235.785a.825.825,0,0,0-1.574-.494,11.966,11.966,0,0,0-.277,3.574,2.736,2.736,0,0,0,2.769,2.695h5.592a3.038,3.038,0,0,0,3.033,2.97h7.79a3.038,3.038,0,0,0,3.033-2.97h5.482a2.736,2.736,0,0,0,2.769-2.695V237.1a6.1,6.1,0,0,0-6.076-6.1H141.3a6.036,6.036,0,0,0-4.915,2.569,6.866,6.866,0,0,0-4.107-1.359h-.055a6.866,6.866,0,0,0-4.178,1.413A6.02,6.02,0,0,0,123.089,231h-.055a6.013,6.013,0,0,0-3.021.818.825.825,0,1,0,.83,1.426,4.36,4.36,0,0,1,2.191-.594h.055a4.37,4.37,0,0,1,3.747,2.152,6.868,6.868,0,0,0-1.517,4.31v.8h-5.591a1.085,1.085,0,0,1-1.119-1.045,11.441,11.441,0,0,1,.2-3.08ZM141.3,232.65h.055a4.445,4.445,0,0,1,4.426,4.455v1.76a1.085,1.085,0,0,1-1.119,1.045h-5.481v-.8a6.871,6.871,0,0,0-1.579-4.389A4.381,4.381,0,0,1,141.3,232.65Zm-9.022,1.21a5.258,5.258,0,0,1,5.252,5.252v2.383a1.387,1.387,0,0,1-1.385,1.385h-7.79a1.387,1.387,0,0,1-1.385-1.385v-2.383a5.258,5.258,0,0,1,5.252-5.252Z" transform="translate(-116.953 -231)" fill="#17416d"/>
</svg>
