<svg xmlns="http://www.w3.org/2000/svg" width="68.737" height="49.129" viewBox="0 0 68.737 49.129">
  <path id="Path_44707" data-name="Path 44707" d="M65.762,87.177H61.456c-.725-6.742-4.582-14.149-11.2-14.149H17.423c-3.279,0-6.268,1.942-8.416,5.467a21.145,21.145,0,0,0-2.786,8.682H2.975A2.978,2.978,0,0,0,0,90.152v3.463a2.978,2.978,0,0,0,2.975,2.975H3.7a10.563,10.563,0,0,0-.992,4.476v8.539A2.632,2.632,0,0,0,1.529,111.8v1.829a2.635,2.635,0,0,0,2.436,2.623v2.9a3,3,0,0,0,3,3h8.82a3,3,0,0,0,3-3v-2.895h6.951a2.619,2.619,0,0,0,1.734.657H40.209a2.619,2.619,0,0,0,1.734-.657h6.951v2.895a3,3,0,0,0,3,3h8.82a3,3,0,0,0,3-3v-2.9a2.635,2.635,0,0,0,2.436-2.623V111.8a2.632,2.632,0,0,0-1.179-2.193v-3.368a1.007,1.007,0,0,0-2.014,0v2.928H41.943a2.645,2.645,0,0,0-1.734-.657H27.47a2.648,2.648,0,0,0-1.734.657H4.722v-8.1a8.648,8.648,0,0,1,8.616-8.616h4.291l3.964,6.467a6.175,6.175,0,0,0,5.232,2.929h14.03a6.176,6.176,0,0,0,5.232-2.929l3.964-6.467h4.291a8.647,8.647,0,0,1,8.616,8.616v.472a1.007,1.007,0,0,0,2.014,0,10.908,10.908,0,0,0-.992-4.948h1.783a2.978,2.978,0,0,0,2.975-2.975V90.152A2.978,2.978,0,0,0,65.762,87.177Zm-62.787,7.4a.963.963,0,0,1-.961-.961V90.152a.962.962,0,0,1,.961-.961H6.084c-.007.245-.011.491-.011.738v3.389a10.714,10.714,0,0,0-1.145,1.26Zm13.8,24.58a.987.987,0,0,1-.986.986H6.965a.987.987,0,0,1-.986-.986v-2.895H16.771Zm44.929,0a.987.987,0,0,1-.986.986h-8.82a.987.987,0,0,1-.986-.986v-2.895H61.7Zm1.817-7.977a.587.587,0,0,1,.1.011l.042.009a.628.628,0,0,1,.474.6v1.829a.628.628,0,0,1-.619.619H42.842V111.18Zm-23.308-.657a.63.63,0,0,1,.619.619v3.143a.631.631,0,0,1-.619.619H27.47a.631.631,0,0,1-.619-.619v-3.143a.63.63,0,0,1,.619-.619H40.209Zm-15.372.657v3.068H4.162a.628.628,0,0,1-.619-.619V111.8a.628.628,0,0,1,.473-.6l.043-.009a.584.584,0,0,1,.1-.011H24.837ZM11.475,90.6v-.673a16.82,16.82,0,0,1,2.146-8.623c1.13-1.854,2.48-2.875,3.8-2.875h14.6a1.007,1.007,0,0,0,0-2.014h-14.6c-2.052,0-4.013,1.364-5.522,3.842a18.845,18.845,0,0,0-2.44,9.671v1.243a10.572,10.572,0,0,0-1.374.658v-1.9a20.357,20.357,0,0,1,2.641-10.386c1.768-2.9,4.146-4.5,6.7-4.5H50.255c2.55,0,4.928,1.6,6.7,4.5a20.314,20.314,0,0,1,2.641,10.386v1.9a10.581,10.581,0,0,0-1.374-.658V89.929a18.843,18.843,0,0,0-2.441-9.671c-1.509-2.477-3.47-3.842-5.522-3.842H36.718a1.007,1.007,0,1,0,0,2.014H50.255c1.323,0,2.673,1.021,3.8,2.875A16.82,16.82,0,0,1,56.2,89.929V90.6a10.968,10.968,0,0,0-1.782-.164,8.468,8.468,0,0,0-16.937,0H13.338a11.074,11.074,0,0,0-1.863.165Zm32.894,7.264a4.149,4.149,0,0,1-3.515,1.968H26.825a4.149,4.149,0,0,1-3.515-1.968L19.99,92.451h27.7Zm-1.526-7.429a3.111,3.111,0,0,1,6.222,0Zm8.236,0a5.125,5.125,0,0,0-10.25,0H39.5a6.455,6.455,0,0,1,12.909,0Zm15.644,3.179a.962.962,0,0,1-.961.961H62.751a10.723,10.723,0,0,0-1.145-1.26V89.929c0-.244,0-.491-.011-.738h4.167a.962.962,0,0,1,.961.961v3.463Z" transform="translate(0 -73.028)" fill="#17416d"/>
</svg>
