<svg xmlns="http://www.w3.org/2000/svg" xmlns:xlink="http://www.w3.org/1999/xlink" width="348" height="349" viewBox="0 0 348 349">
  <defs>
    <clipPath id="clip-path">
      <rect id="Rectangle_2601" data-name="Rectangle 2601" width="348" height="349" transform="translate(-20176.5 -13080.711)" fill="#b23838"/>
    </clipPath>
  </defs>
  <g id="Mask_Group_4" data-name="Mask Group 4" transform="translate(20176.5 13080.711)" clip-path="url(#clip-path)">
    <path id="Union_2" data-name="Union 2" d="M0,619.232l963.51,963.511Zm3.894-3.894L967.4,1578.85Zm3.894-3.893L971.3,1574.955Zm3.9-3.9,963.51,963.511Zm3.894-3.894,963.51,963.511Zm3.894-3.9,963.51,963.511Zm3.894-3.894,963.51,963.511Zm3.894-3.894,963.51,963.511Zm3.894-3.9,963.51,963.511Zm3.894-3.894,963.51,963.511Zm3.9-3.9,963.51,963.511Zm3.894-3.894L1006.35,1539.9Zm3.894-3.894,963.51,963.511Zm3.9-3.9,963.51,963.511Zm3.894-3.894,963.51,963.511Zm3.894-3.9,963.511,963.511Zm3.894-3.894,963.51,963.511Zm3.894-3.894,963.51,963.511Zm3.894-3.9,963.511,963.511ZM74,545.237l963.51,963.511Zm3.894-3.894,963.51,963.511Zm3.9-3.9,963.51,963.511Zm3.894-3.894,963.51,963.511Zm3.9-3.9,963.51,963.511Zm3.894-3.894,963.51,963.511Zm3.894-3.894,963.511,963.511Zm3.894-3.9,963.51,963.511Zm3.894-3.894,963.511,963.511Zm3.893-3.9,963.51,963.511Zm3.894-3.894L1076.451,1469.8Zm3.894-3.894,963.51,963.511Zm3.9-3.9,963.509,963.511Zm3.893-3.894,963.51,963.511Zm3.894-3.894,963.51,963.511Zm3.9-3.9,963.51,963.511Zm3.893-3.894,963.51,963.511Zm3.894-3.9,963.51,963.511Zm3.894-3.894,963.51,963.511Zm3.894-3.894,963.51,963.511Zm3.894-3.9,963.51,963.511Zm3.894-3.894,963.51,963.511Zm3.9-3.9,963.51,963.511Zm3.894-3.894,963.51,963.511Zm3.894-3.894,963.51,963.511Zm3.9-3.9,963.51,963.511Zm3.894-3.894,963.51,963.511Zm3.894-3.894,963.511,963.511Zm3.894-3.9,963.51,963.511Zm3.894-3.894,963.51,963.511Zm3.894-3.9,963.511,963.511Zm3.894-3.894,963.51,963.511Zm3.894-3.894,963.51,963.511Zm3.9-3.9,963.51,963.511Zm3.894-3.894,963.511,963.511Zm3.9-3.9,963.511,963.511Zm3.894-3.894,963.51,963.511Zm3.894-3.894,963.511,963.511Zm3.894-3.9,963.51,963.511Zm3.894-3.894,963.51,963.511Zm3.894-3.9,963.51,963.511Zm3.894-3.894,963.51,963.511Zm3.894-3.894,963.51,963.512Zm3.9-3.9,963.511,963.511Zm3.894-3.894,963.51,963.512Zm3.894-3.893,963.51,963.511Zm3.9-3.9,963.51,963.512Zm3.894-3.893,963.51,963.511Zm3.894-3.9,963.511,963.512Zm3.894-3.893,963.51,963.511Zm3.894-3.894,963.51,963.511Zm3.894-3.9,963.51,963.511Zm3.894-3.894,963.51,963.511Zm3.9-3.9,963.511,963.511Zm3.894-3.894,963.51,963.511Zm3.894-3.894,963.51,963.511Zm3.9-3.9,963.51,963.511Zm3.894-3.894,963.51,963.511Zm3.894-3.894,963.51,963.511Zm3.894-3.9,963.51,963.511Zm3.894-3.894,963.51,963.511Zm3.894-3.9,963.51,963.511Zm3.894-3.894,963.511,963.511Zm3.894-3.894,963.511,963.511Zm3.9-3.9L1286.758,1259.5Zm3.894-3.894,963.51,963.511Zm3.9-3.9,963.51,963.511Zm3.894-3.894,963.51,963.511Zm3.894-3.894,963.51,963.511Zm3.894-3.9,963.51,963.511Zm3.894-3.894,963.51,963.511Zm3.894-3.9,963.511,963.511Zm3.893-3.894,963.511,963.511Zm3.894-3.894,963.51,963.511Zm3.9-3.9,963.51,963.511Zm3.893-3.894L1329.6,1216.656Zm3.894-3.894,963.51,963.511Zm3.9-3.9,963.51,963.511Zm3.894-3.894,963.51,963.511Zm3.893-3.9,963.512,963.511Zm3.894-3.894,963.51,963.511Zm3.894-3.894,963.51,963.511Zm3.894-3.9,963.51,963.511Zm3.894-3.894,963.51,963.511Zm3.9-3.9,963.51,963.511Zm3.894-3.894,963.51,963.511Zm3.894-3.894,963.511,963.511Zm3.9-3.9,963.51,963.511Zm3.894-3.894,963.51,963.511Zm3.894-3.894,963.51,963.511Zm3.894-3.9,963.51,963.511Zm3.894-3.894,963.51,963.511Zm3.894-3.9,963.51,963.511Zm3.894-3.894,963.51,963.511Zm3.894-3.894,963.51,963.511Zm3.9-3.9,963.51,963.511Zm3.894-3.894,963.51,963.511Zm3.9-3.9,963.51,963.511Zm3.894-3.894,963.51,963.511Zm3.894-3.894,963.511,963.511Zm3.894-3.9,963.51,963.511Zm3.894-3.894,963.51,963.511Zm3.894-3.894L1434.75,1111.5Zm3.894-3.9,963.51,963.511Zm3.894-3.894,963.51,963.511Zm3.9-3.9,963.51,963.511Zm3.894-3.894,963.51,963.511Zm3.894-3.894,963.51,963.511Zm3.9-3.9,963.51,963.511Zm3.894-3.893,963.511,963.51Zm3.894-3.9,963.51,963.511Zm3.894-3.893,963.51,963.511Zm3.894-3.894L1473.7,1072.559Zm3.894-3.9,963.51,963.511Zm3.894-3.894,963.51,963.511Zm3.9-3.9,963.51,963.511Zm3.894-3.894,963.51,963.511Zm3.894-3.894,963.51,963.511Zm3.9-3.9,963.51,963.511Zm3.894-3.894,963.51,963.511Zm3.894-3.894,963.51,963.511Zm3.894-3.9,963.51,963.511ZM549.13,70.1l963.51,963.511Zm3.894-3.9,963.51,963.511Zm3.894-3.894,963.51,963.511Zm3.894-3.894,963.51,963.511Zm3.9-3.9,963.51,963.511Zm3.894-3.894,963.51,963.511Zm3.9-3.9,963.51,963.511Zm3.894-3.894,963.51,963.511Zm3.894-3.894,963.51,963.511Zm3.894-3.9,963.51,963.511Zm3.894-3.894,963.51,963.511Zm3.894-3.894,963.51,963.511Zm3.893-3.9,963.511,963.511Zm3.894-3.894,963.51,963.511Zm3.9-3.9,963.51,963.511Zm3.894-3.894,963.51,963.511Zm3.893-3.894L1574.954,971.3Zm3.9-3.9,963.51,963.511ZM619.234,0l963.51,963.511Z" transform="translate(-20837.061 -13741.021)" fill="none" stroke="#2fb5fc" stroke-width="1"/>
  </g>
</svg>
