<svg xmlns="http://www.w3.org/2000/svg" width="55.5" height="66.6" viewBox="0 0 55.5 66.6">
  <g id="face" transform="translate(-2)">
    <g id="Group_40947" data-name="Group 40947" transform="translate(15.875 8.325)">
      <path id="Path_44683" data-name="Path 44683" d="M20.875,30.75A13.875,13.875,0,1,1,34.75,16.875,13.891,13.891,0,0,1,20.875,30.75Zm0-24.975a11.1,11.1,0,1,0,11.1,11.1A11.111,11.111,0,0,0,20.875,5.775Z" transform="translate(-7 -3)" fill="#17416d"/>
    </g>
    <g id="Group_40948" data-name="Group 40948" transform="translate(4.775 41.625)">
      <path id="Path_44684" data-name="Path 44684" d="M51.563,39.975H4.388A1.388,1.388,0,0,1,3,38.588v-11.1A12.5,12.5,0,0,1,15.488,15H40.463A12.5,12.5,0,0,1,52.95,27.488v11.1A1.388,1.388,0,0,1,51.563,39.975ZM5.775,37.2h44.4V27.488a9.723,9.723,0,0,0-9.712-9.713H15.488a9.723,9.723,0,0,0-9.712,9.713Z" transform="translate(-3 -15)" fill="#17416d"/>
    </g>
    <g id="Group_40949" data-name="Group 40949" transform="translate(2)">
      <path id="Path_44685" data-name="Path 44685" d="M3.388,13.875A1.388,1.388,0,0,1,2,12.488V6.938A6.945,6.945,0,0,1,8.938,0h5.55a1.388,1.388,0,1,1,0,2.775H8.938A4.168,4.168,0,0,0,4.775,6.938v5.55A1.388,1.388,0,0,1,3.388,13.875Z" transform="translate(-2)" fill="#17416d"/>
    </g>
    <g id="Group_40950" data-name="Group 40950" transform="translate(2 24.975)">
      <path id="Path_44686" data-name="Path 44686" d="M14.488,22.875H8.938A6.945,6.945,0,0,1,2,15.938v-5.55a1.388,1.388,0,1,1,2.775,0v5.55A4.168,4.168,0,0,0,8.938,20.1h5.55a1.388,1.388,0,0,1,0,2.775Z" transform="translate(-2 -9)" fill="#17416d"/>
    </g>
    <g id="Group_40951" data-name="Group 40951" transform="translate(43.625)">
      <path id="Path_44687" data-name="Path 44687" d="M29.488,13.875A1.388,1.388,0,0,1,28.1,12.488V6.938a4.168,4.168,0,0,0-4.162-4.162h-5.55a1.388,1.388,0,0,1,0-2.775h5.55a6.945,6.945,0,0,1,6.938,6.938v5.55A1.388,1.388,0,0,1,29.488,13.875Z" transform="translate(-17)" fill="#17416d"/>
    </g>
    <g id="Group_40952" data-name="Group 40952" transform="translate(43.625 24.975)">
      <path id="Path_44688" data-name="Path 44688" d="M23.938,22.875h-5.55a1.388,1.388,0,0,1,0-2.775h5.55A4.168,4.168,0,0,0,28.1,15.938v-5.55a1.388,1.388,0,1,1,2.775,0v5.55A6.945,6.945,0,0,1,23.938,22.875Z" transform="translate(-17 -9)" fill="#17416d"/>
    </g>
  </g>
</svg>
