<svg xmlns="http://www.w3.org/2000/svg" xmlns:xlink="http://www.w3.org/1999/xlink" width="1580" height="517" viewBox="0 0 1580 517">
  <defs>
    <clipPath id="clip-path">
      <path id="Teaser_2_active" data-name="Teaser 2 active" d="M0,0H1580V517H0Z" transform="translate(170 1283)" fill="#f8e4e4"/>
    </clipPath>
  </defs>
  <g id="Mask_Group_15" data-name="Mask Group 15" transform="translate(-170 -1283)" clip-path="url(#clip-path)">
    <path id="Union_8" data-name="Union 8" d="M0,1066.833,1659.967,2726.8Zm6.709-6.709,1659.967,1659.97Zm6.709-6.707L1673.385,2713.385Zm6.712-6.711L1680.1,2706.674ZM26.839,1040,1686.806,2699.965Zm6.709-6.711L1693.515,2693.254Zm6.709-6.709L1700.224,2686.545Zm6.709-6.709L1706.933,2679.836Zm6.709-6.711L1713.642,2673.126Zm6.709-6.709L1720.351,2666.417Zm6.712-6.711L1727.064,2659.706Zm6.709-6.709L1733.773,2653Zm6.709-6.709L1740.482,2646.288Zm6.712-6.711L1747.194,2639.577Zm6.709-6.709L1753.9,2632.868Zm6.709-6.711L1760.612,2626.157Zm6.709-6.709L1767.321,2619.448Zm6.709-6.709L1774.03,2612.739Zm6.709-6.711L1780.739,2606.029Zm6.709-6.709L1787.448,2599.32Zm6.709-6.709L1794.157,2592.611Zm6.712-6.711L1800.87,2585.9Zm6.709-6.709L1807.579,2579.191Zm6.712-6.711L1814.291,2572.48Zm6.709-6.709L1821,2565.771Zm6.709-6.709L1827.709,2559.062Zm6.709-6.711L1834.418,2552.351Zm6.709-6.709L1841.127,2545.642Zm6.707-6.711L1847.834,2538.932Zm6.709-6.709L1854.544,2532.222Zm6.709-6.709L1861.252,2525.514ZM208,858.835,1867.965,2518.8Zm6.707-6.709L1874.674,2512.094Zm6.709-6.709L1881.383,2505.385Zm6.714-6.711L1888.1,2498.674ZM234.838,832,1894.8,2491.965Zm6.709-6.711L1901.514,2485.254Zm6.709-6.709L1908.223,2478.545Zm6.709-6.709L1914.931,2471.836Zm6.709-6.711L1921.641,2465.125Zm6.709-6.709L1928.35,2458.417Zm6.712-6.711L1935.062,2451.706Zm6.709-6.709L1941.771,2445Zm6.709-6.709L1948.48,2438.288Zm6.712-6.711L1955.193,2431.577Zm6.709-6.709L1961.9,2424.868Zm6.709-6.709L1968.611,2418.159Zm6.709-6.711L1975.32,2411.448Zm6.709-6.709L1982.029,2404.739Zm6.709-6.711L1988.738,2398.028Zm6.709-6.709L1995.447,2391.32Zm6.709-6.709L2002.155,2384.611Zm6.712-6.711L2008.868,2377.9Zm6.709-6.709L2015.577,2371.191Zm6.712-6.711L2022.29,2364.48Zm6.709-6.709L2029,2357.771Zm6.709-6.709L2035.708,2351.062Zm6.709-6.711L2042.416,2344.351Zm6.709-6.709L2049.125,2337.643Zm6.709-6.711L2055.834,2330.932Zm6.709-6.709L2062.544,2324.223Zm6.709-6.709,1659.966,1659.97ZM416,650.835,2075.965,2310.8Zm6.709-6.709L2082.674,2304.1Zm6.709-6.707L2089.383,2297.386Zm6.712-6.712L2096.1,2290.676ZM442.838,624,2102.8,2283.967Zm6.709-6.712,1659.967,1659.97Zm6.709-6.707L2116.222,2270.547Zm6.709-6.709L2122.932,2263.838Zm6.709-6.711L2129.64,2257.127Zm6.709-6.709L2136.349,2250.418Zm6.712-6.711L2143.062,2243.708Zm6.709-6.709L2149.771,2237Zm6.709-6.709L2156.48,2230.29Zm6.712-6.711L2163.192,2223.579Zm6.709-6.709L2169.9,2216.87Zm6.709-6.709L2176.611,2210.161Zm6.709-6.711L2183.319,2203.45Zm6.709-6.709L2190.029,2196.741Zm6.709-6.711L2196.738,2190.03Zm6.709-6.709L2203.447,2183.321Zm6.709-6.709L2210.156,2176.612Zm6.712-6.711L2216.868,2169.9Zm6.709-6.709L2223.577,2163.192Zm6.712-6.711L2230.289,2156.481Zm6.709-6.709L2237,2149.773Zm6.709-6.709L2243.707,2143.063Zm6.709-6.711L2250.417,2136.353Zm6.709-6.709L2257.125,2129.644Zm6.709-6.711L2263.834,2122.933Zm6.707-6.709L2270.543,2116.224Zm6.709-6.709L2277.251,2109.515ZM624,442.836,2283.965,2102.8Zm6.707-6.709L2290.674,2096.1Zm6.709-6.709L2297.381,2089.386Zm6.714-6.711L2304.1,2082.676ZM650.837,416,2310.8,2075.967Zm6.707-6.711L2317.513,2069.256Zm6.709-6.709L2324.22,2062.547Zm6.709-6.709L2330.93,2055.838Zm6.709-6.711L2337.639,2049.127Zm6.709-6.709L2344.348,2042.418Zm6.712-6.711L2351.06,2035.707Zm6.709-6.709L2357.769,2029Zm6.709-6.709L2364.478,2022.29Zm6.713-6.711L2371.191,2015.579Zm6.709-6.709L2377.9,2008.87Zm6.709-6.709L2384.609,2002.161Zm6.709-6.711L2391.318,1995.45Zm6.709-6.709L2398.027,1988.741Zm6.709-6.711L2404.736,1982.03Zm6.709-6.709L2411.445,1975.321Zm6.709-6.709L2418.154,1968.612Zm6.712-6.711L2424.866,1961.9Zm6.709-6.709L2431.575,1955.192Zm6.713-6.711L2438.287,1948.482Zm6.709-6.709L2445,1941.773Zm6.709-6.709L2451.706,1935.063Zm6.709-6.711L2458.414,1928.353Zm6.709-6.709L2465.123,1921.644Zm6.709-6.709L2471.833,1914.935Zm6.709-6.711L2478.542,1908.224Zm6.709-6.709L2485.251,1901.515ZM832,234.836,2491.963,1894.8Zm6.709-6.709L2498.672,1888.1Zm6.709-6.709L2505.381,1881.386Zm6.713-6.711L2512.093,1874.675ZM858.836,208,2518.8,1867.967Zm6.709-6.712L2525.511,1861.256Zm6.709-6.707L2532.22,1854.548Zm6.709-6.709L2538.929,1847.839Zm6.709-6.711L2545.638,1841.129Zm6.709-6.709L2552.347,1834.42Zm6.712-6.711L2559.06,1827.709Zm6.709-6.709L2565.769,1821Zm6.709-6.709L2572.478,1814.291Zm6.713-6.711L2579.19,1807.58Zm6.709-6.709L2585.9,1800.871Zm6.709-6.709L2592.608,1794.162Zm6.709-6.711L2599.317,1787.451Zm6.709-6.709L2606.026,1780.742Zm6.709-6.711L2612.735,1774.032Zm6.709-6.709L2619.445,1767.323Zm6.709-6.709L2626.153,1760.614Zm6.712-6.711L2632.866,1753.9Zm6.709-6.709L2639.575,1747.194Zm6.712-6.711L2646.287,1740.483Zm6.709-6.709L2653,1733.774Zm6.709-6.709L2659.706,1727.065Zm6.709-6.711L2666.415,1720.354Zm6.709-6.709L2673.123,1713.645Zm6.709-6.709L2679.833,1706.936Zm6.707-6.711L2686.542,1700.226Zm6.709-6.709L2693.249,1693.516ZM1040,26.838,2699.963,1686.806Zm6.709-6.709L2706.672,1680.1Zm6.707-6.709L2713.381,1673.388Zm6.714-6.711L2720.094,1666.677ZM1066.836,0,2726.8,1659.968Z" transform="translate(-471 104.533)" fill="none" stroke="#2fb5fc" stroke-width="1"/>
  </g>
</svg>
