<svg id="_015--Dollar-Down" data-name="015--Dollar-Down" xmlns="http://www.w3.org/2000/svg" width="60" height="60" viewBox="0 0 60 60">
  <path id="Shape" d="M52,53h7a1,1,0,0,0,0-2H52a1,1,0,0,0,0,2Z" fill="#17416d"/>
  <path id="Shape-2" data-name="Shape" d="M45,52a1,1,0,0,0,1,1h2a1,1,0,0,0,0-2H46A1,1,0,0,0,45,52Z" fill="#17416d"/>
  <path id="Shape-3" data-name="Shape" d="M59,56H43a1,1,0,0,0,0,2H59a1,1,0,0,0,0-2Z" fill="#17416d"/>
  <path id="Shape-4" data-name="Shape" d="M1,53H8a1,1,0,0,0,0-2H1a1,1,0,0,0,0,2Z" fill="#17416d"/>
  <path id="Shape-5" data-name="Shape" d="M12,53h2a1,1,0,0,0,0-2H12a1,1,0,0,0,0,2Z" fill="#17416d"/>
  <path id="Shape-6" data-name="Shape" d="M17,56H1a1,1,0,0,0,0,2H17a1,1,0,0,0,0-2Z" fill="#17416d"/>
  <path id="Shape-7" data-name="Shape" d="M46.44,41a14.672,14.672,0,0,0-6-11.6A15.783,15.783,0,0,0,35,26.85V20a1.993,1.993,0,0,0-1-1.722V16a1,1,0,0,0,0-2V12.842a7.133,7.133,0,0,1,4.4,5.42A1.987,1.987,0,0,0,40.37,20H44.4a2.018,2.018,0,0,0,2-2.2C45.84,11.39,40.792,6,34,4.451V2a2,2,0,0,0-2-2H28a2,2,0,0,0-2,2V4.443C18.743,6.1,13.56,12.1,13.56,19c0,6.751,5.087,12.611,11.44,14.225V36H21a1,1,0,0,0-.751,1.66L26,44.21v2.948a7.133,7.133,0,0,1-4.4-5.42A1.987,1.987,0,0,0,19.63,40H15.6a2.018,2.018,0,0,0-2,2.2C14.16,48.61,19.208,54,26,55.549V58a2,2,0,0,0,2,2h4a2,2,0,0,0,2-2V55.557C41.257,53.9,46.44,47.9,46.44,41ZM34,47.158v-3.45l4.079-4.647C39.283,42.393,37.313,45.68,34,47.158ZM35,35.41a3.088,3.088,0,0,1,.855.59H35ZM32,18H28V16h4Zm-7,2v4.625c-5.018-3.1-4.411-9.37,1-11.783V14a1,1,0,0,0,0,2v2.278A1.993,1.993,0,0,0,25,20Zm-9.44-1c0-6.186,4.885-11.55,11.616-12.756A1,1,0,0,0,28,5.26V2h4V5.27a1,1,0,0,0,.823.984C39.137,7.387,43.9,12.215,44.4,18.007H40.382c-.444-3.494-3.234-6.453-7.11-7.549A1,1,0,0,0,32,11.42V14H28V11.42a1,1,0,0,0-1.272-.962C22.44,11.673,19.56,15.1,19.56,19A9,9,0,0,0,25,26.889v4.275C19.753,29.6,15.56,24.64,15.56,19ZM26,38a1,1,0,0,0,1-1V20h6V37a1,1,0,0,0,1,1h2.348L29.78,45.483,23.209,38Zm6.824,15.756A1,1,0,0,0,32,54.74V58H28V54.73a1,1,0,0,0-.823-.984C20.863,52.613,16.1,47.785,15.6,41.993h4.018c.444,3.494,3.234,6.453,7.11,7.549A1,1,0,0,0,28,48.58V46.488l1.028,1.171a1,1,0,0,0,1.5,0L32,45.987V48.58a1,1,0,0,0,1.272.962c5.651-1.6,8.888-7.144,6.22-12.2a.98.98,0,0,0-.861-1.327A8.367,8.367,0,0,0,35,33.184V28.921A12.867,12.867,0,0,1,44.44,41c0,6.186-4.885,11.55-11.616,12.756Z" fill="#17416d"/>
</svg>
