<?xml version="1.0" encoding="utf-8"?>
<!-- Generator: Adobe Illustrator 24.2.3, SVG Export Plug-In . SVG Version: 6.00 Build 0)  -->
<svg version="1.1" id="Capa_1" xmlns="http://www.w3.org/2000/svg" xmlns:xlink="http://www.w3.org/1999/xlink" x="0px" y="0px"
	 viewBox="0 0 377 496" style="enable-background:new 0 0 377 496;" xml:space="preserve">
<g id="Group_40536" transform="translate(334.43 1)">
	<g id="Path_77">
		<path d="M-123.3,485.9l-2.3-1.5l-194.5-124.8V8.1H33.2v351.4L-123.3,485.9z M-312.6,355.6l188.7,121.1L25.7,355.8V15.6h-338.3
			V355.6z"/>
	</g>
</g>
<g>
	<g>
		<path d="M307.9,190.4L200.8,70.7c-3.1-3.5-8.1-3.5-11.2,0L82.5,190.4c-1.6,1.8-2.5,4.2-2.5,6.7c0,5.2,3.6,9.4,8.1,9.4h14.2v130.9
			c0,5.2,3.6,9.4,8.1,9.4h56.5c4.5,0,8.1-4.2,8.1-9.4v-74.8h40.4v74.8c0,5.2,3.6,9.4,8.1,9.4H280c4.5,0,8.1-4.2,8.1-9.4V206.5h14.2
			c2.2,0,4.3-1,5.8-2.9C311.2,199.9,311.1,194,307.9,190.4z M288,197.2c-4.5,0-8.1,4.2-8.1,9.4v130.9h-56.5v-74.8
			c0-5.2-3.6-9.4-8.1-9.4H175c-4.5,0-8.1,4.2-8.1,9.4v74.8h-56.5V206.5c0-5.2-3.6-9.4-8.1-9.4H88.1L195.2,77.4l107.1,119.7H288
			L288,197.2z"/>
	</g>
</g>
</svg>
