<?xml version="1.0" encoding="utf-8"?>
<!-- Generator: Adobe Illustrator 24.2.3, SVG Export Plug-In . SVG Version: 6.00 Build 0)  -->
<svg version="1.1" id="Capa_1" xmlns="http://www.w3.org/2000/svg" xmlns:xlink="http://www.w3.org/1999/xlink" x="0px" y="0px"
	 viewBox="0 0 598 496" style="enable-background:new 0 0 598 496;" xml:space="preserve">
<g>
	<path d="M181,291.5v-70.2l-138.2-25v-8.6c0-9.4-7.6-17-17-17H8.3v11.5h17.6c3,0,5.5,2.5,5.5,5.5v106.3c0,12.3,10,22.3,22.3,22.3
		h4.6v13.1c-2.4-1-4.9-1.6-7.7-1.6c-10.6,0-19.2,8.6-19.2,19.2s8.6,19.2,19.2,19.2c9.9,0,18.1-7.6,19.1-17.3h0.1v-32.6h99.8v13.1
		c-2.4-1-4.9-1.6-7.7-1.6c-10.6,0-19.2,8.6-19.2,19.2s8.6,19.2,19.2,19.2c9.9,0,18.1-7.6,19.1-17.3h0.1v-44.1H53.6
		c-5.9,0-10.7-4.8-10.7-10.7v-4.5L181,291.5z M50.5,354.8c-4.2,0-7.7-3.4-7.7-7.7s3.4-7.7,7.7-7.7s7.7,3.4,7.7,7.7
		S54.7,354.8,50.5,354.8z M161.8,354.8c-4.2,0-7.7-3.4-7.7-7.7s3.4-7.7,7.7-7.7s7.7,3.4,7.7,7.7S166,354.8,161.8,354.8z
		 M100.4,278.9l-23-0.3v-64.2l23,4.2V278.9z M111.9,220.6l21.1,3.8v54.9l-21.1-0.3V220.6z M65.8,278.4l-23-0.3v-70l23,4.2V278.4z
		 M169.5,279.8l-25-0.3v-53l25,4.5V279.8z"/>
</g>
<path d="M558,128h-80c0-26.5-21.5-48-48-48s-48,21.5-48,48H277.8c10.1-13.4,16.2-30,16.2-48c0-44.1-35.9-80-80-80s-80,35.9-80,80
	c0,18,6.1,34.6,16.2,48H142c-22.1,0-40,17.9-40,40v12h16v-12c0-13.2,10.8-24,24-24h24v-0.2c13.4,10.1,30,16.2,48,16.2
	c6.1,0,12-0.7,17.7-2l27.7,76.3C241.7,245.6,230,265.5,230,288c0,35.3,28.7,64,64,64c35.3,0,64-28.7,64-64c0-17-6.7-32.5-17.6-44
	l67-73.7c6.7,3.6,14.4,5.7,22.6,5.7c10.7,0,20.5-3.5,28.5-9.4l47.8,41.8c-2.6,4.6-4.3,9.9-4.3,15.6c0,17.6,14.4,32,32,32
	s32-14.4,32-32s-14.4-32-32-32c-6.1,0-11.8,1.8-16.6,4.8L469.6,155c2.3-3.4,4.2-7.1,5.6-11H558c13.2,0,24,10.8,24,24v216H118v-24
	h-16v48c0,22.1,17.9,40,40,40h88v32h-32v16h32h240h32v-16h-32v-32h88c22.1,0,40-17.9,40-40V168C598,145.9,580.1,128,558,128z
	 M214,144c-35.3,0-64-28.7-64-64s28.7-64,64-64s64,28.7,64,64S249.3,144,214,144z M342,288c0,26.5-21.5,48-48,48s-48-21.5-48-48
	s21.5-48,48-48S342,261.5,342,288z M328,233.9c-9.9-6.2-21.5-9.9-34-9.9c-7,0-13.8,1.2-20.1,3.3l-27.1-74.4c5.4-2.4,10.5-5.5,15.2-9
	v0.2h122.8c2.2,6.2,5.6,11.8,10,16.5L328,233.9z M430,160c-17.6,0-32-14.4-32-32s14.4-32,32-32s32,14.4,32,32S447.6,160,430,160z
	 M534,208c8.8,0,16,7.2,16,16c0,8.8-7.2,16-16,16c-8.8,0-16-7.2-16-16C518,215.2,525.2,208,534,208z M454,480H246v-32h208V480z
	 M582,408c0,13.2-10.8,24-24,24h-88H230h-88c-13.2,0-24-10.8-24-24v-8h464V408z"/>
</svg>
