<?xml version="1.0" encoding="utf-8"?>
<!-- Generator: Adobe Illustrator 24.2.3, SVG Export Plug-In . SVG Version: 6.00 Build 0)  -->
<svg version="1.1" id="outline" xmlns="http://www.w3.org/2000/svg" xmlns:xlink="http://www.w3.org/1999/xlink" x="0px" y="0px"
	 viewBox="0 0 631 512" style="enable-background:new 0 0 631 512;" xml:space="preserve">
<path d="M195,312h16v16h-16V312z"/>
<path d="M227,312h16v16h-16V312z"/>
<path d="M199,440h16v16h-16V440z"/>
<path d="M231,440h16v16h-16V440z"/>
<path d="M263,440h16v16h-16V440z"/>
<path d="M295,440h16v16h-16V440z"/>
<path d="M327,440h16v16h-16V440z"/>
<path d="M359,440h16v16h-16V440z"/>
<path d="M495,312c-12.7,0-24.5,6.7-31.1,17.6l-87.8,146.3c-2.3,3.8-1,8.7,2.7,11c1.2,0.7,2.7,1.1,4.1,1.1h224c4.4,0,8-3.6,8-8
	c0-1.4-0.4-2.9-1.1-4.1l-87.8-146.3C519.5,318.7,507.7,312,495,312z M397.1,472l80.5-134.2c5.8-9.6,18.2-12.7,27.8-6.9
	c2.9,1.7,5.2,4.1,6.9,6.9L592.9,472H397.1z"/>
<path d="M439,432h16v16h-16V432z"/>
<path d="M479,408h16v16h-16V408z"/>
<path d="M463,376h16v16h-16V376z"/>
<path d="M519,440h16v16h-16V440z"/>
<path d="M519,384h16v16h-16V384z"/>
<path d="M495,352h16v16h-16V352z"/>
<g>
	<g>
		<g>
			<rect x="199" y="138.6" width="16" height="16"/>
		</g>
	</g>
	<g>
		<g>
			<rect x="199" y="170.6" width="16" height="16"/>
		</g>
	</g>
	<g>
		<g>
			<rect x="215" y="154.6" width="16" height="16"/>
		</g>
	</g>
	<g>
		<g>
			<rect x="183" y="154.6" width="16" height="16"/>
		</g>
	</g>
</g>
<path d="M47.9,211c12.5,4.4,26.2-2.1,30.6-14.5H128v16c0,0,0,0,0,0c0,4.4,3.6,8,8,8h32v16h-24c0,0,0,0,0,0c-4.4,0-8,3.6-8,8V262
	c-6.8,2.4-12.2,7.8-14.6,14.6c-4.4,12.5,2.1,26.2,14.6,30.6c12.5,4.4,26.2-2.1,30.6-14.6c4.4-12.5-2.1-26.2-14.6-30.6v-9.5h24
	c0,0,0,0,0,0c4.4,0,8-3.6,8-8v-24h16v-16h-56v-80h56v-16h-32V67c6.8-2.4,12.2-7.8,14.6-14.6c4.4-12.5-2.1-26.2-14.6-30.6
	c-12.5-4.4-26.2,2.1-30.6,14.6C133,48.9,139.5,62.6,152,67v41.5h-16c0,0,0,0,0,0c-4.4,0-8,3.6-8,8v16h-24V107
	c6.8-2.4,12.2-7.8,14.6-14.6c4.4-12.5-2.1-26.2-14.6-30.6c-12.5-4.4-26.2,2.1-30.6,14.6C69,88.9,75.5,102.6,88,107v33.5c0,0,0,0,0,0
	c0,4.4,3.6,8,8,8h32v32H78.5c-3.4-9.6-12.4-16-22.5-16c-10.1,0-19.2,6.4-22.6,15.9C29,192.9,35.5,206.6,47.9,211z M104,84.5
	c0,4.4-3.6,8-8,8c-4.4,0-8-3.6-8-8c0-4.4,3.6-8,8-8C100.4,76.5,104,80.1,104,84.5z M152,44.5c0-4.4,3.6-8,8-8c4.4,0,8,3.6,8,8
	c0,4.4-3.6,8-8,8C155.6,52.5,152,48.9,152,44.5z M152,284.5c0,4.4-3.6,8-8,8c-4.4,0-8-3.6-8-8c0-4.4,3.6-8,8-8
	C148.4,276.5,152,280.1,152,284.5z M48,188.5c0-4.4,3.6-8,8-8c4.4,0,8,3.6,8,8c0,4.4-3.6,8-8,8C51.6,196.5,48,192.9,48,188.5z"/>
<path d="M590,132.1l-40-72c-1.4-2.5-4.1-4.1-7-4.1h-38.7l-94.8-31.6c-0.8-0.3-1.7-0.4-2.5-0.4v0h-40c-1.8,0-3.6,0.6-5.1,1.8l-88,72
	c-1.9,1.5-2.9,3.8-2.9,6.2v48h0.1l-21.2,17.9c-1,0.9-1.8,2-2.3,3.2l-38,98.9h-22.8v16h73.9l90.4,60.3V360H151v-32h-16v88
	c0,4.4,3.6,8,8,8h32c-13.3,17.6-9.7,42.7,7.9,56c6.9,5.2,15.4,8,24,8h152v-16H207c-13.3,0-24-10.7-24-24s10.7-24,24-24h176v-16h-16
	v-24h40c4.4,0,8-3.6,8-8V224c0-4.4-3.6-8-8-8h-72v-36.3l88.3-73.6l93.3,87.1l-27.1,40.6l-30.1,15.1c-2.7,1.4-4.4,4.1-4.4,7.2v16
	c0,4.4,3.6,8,8,8h104c4.4,0,8-3.6,8-8v-80h0c0-1.2-0.3-2.5-0.8-3.6l-13-26l26.7-20C591,140,591.9,135.6,590,132.1z M351,408H151v-32
	h200V408z M538.3,72l4.6,8.3l-17.5,10.5L515.9,72H538.3z M369.9,40H399v4.3l-69.1,58.2L316,84L369.9,40z M287,107.8l16.6-13.6
	l14,18.6L287,138.6V107.8z M399,293.2L335,274v-10h64V293.2z M399,232v16h-72c-4.4,0-8,3.6-8,8v24c0,3.5,2.3,6.6,5.7,7.7L399,310v58
	h-32v-24c0-2.7-1.3-5.2-3.6-6.7l-96-64c-0.5-0.3-1.1-0.6-1.6-0.8l40.5-40.5H399z M321.9,169.9c-1.8,1.5-2.9,3.8-2.9,6.1v40h-16
	c-2.1,0-4.2,0.8-5.7,2.3L243.7,272h-17l35.1-91.2L399,65.2V80c0,2.2,0.9,4.3,2.5,5.8l10,9.3L321.9,169.9z M415,76.5V43.1l82.3,27.4
	L554.1,184h-23.9L415,76.5z M559,264h-88v-3.1l27.6-13.8c1.2-0.6,2.3-1.6,3.1-2.7l29.6-44.4H559V264z M553.9,147.8l-21.3-42.6
	l18.1-10.9l21.9,39.5L553.9,147.8z"/>
</svg>
