<svg xmlns="http://www.w3.org/2000/svg" width="73.446" height="73.447" viewBox="0 0 73.446 73.447">
  <g id="algorithm" transform="translate(-0.001)">
    <g id="Group_40824" data-name="Group 40824" transform="translate(4.754 35.053)">
      <g id="Group_40822" data-name="Group 40822" transform="translate(61.788)">
        <path id="Path_44609" data-name="Path 44609" d="M464.941,247.7a1.076,1.076,0,0,1-1.076-1.076v-1.188a1.076,1.076,0,1,1,2.152,0v1.188A1.076,1.076,0,0,1,464.941,247.7Z" transform="translate(-463.865 -244.356)" fill="#17416d"/>
      </g>
      <g id="Group_40823" data-name="Group 40823">
        <path id="Path_44610" data-name="Path 44610" d="M34.212,247.7a1.076,1.076,0,0,1-1.076-1.076v-1.188a1.076,1.076,0,0,1,2.152,0v1.188A1.076,1.076,0,0,1,34.212,247.7Z" transform="translate(-33.136 -244.356)" fill="#17416d"/>
      </g>
    </g>
    <g id="Group_40825" data-name="Group 40825" transform="translate(0.001)">
      <path id="Path_44611" data-name="Path 44611" d="M72.372,30.894H62.866A1.076,1.076,0,0,0,61.79,31.97v3.677H52.059V22.911l3.222-3.222A5.836,5.836,0,0,0,62.692,19h0a5.829,5.829,0,1,0-8.932-.832l-3.222,3.221H37.8V11.658h3.677a1.076,1.076,0,0,0,1.076-1.076V1.076A1.076,1.076,0,0,0,41.477,0H31.971A1.076,1.076,0,0,0,30.9,1.076v9.506a1.076,1.076,0,0,0,1.076,1.076h3.677v9.731H31.971a1.076,1.076,0,1,0,0,2.152H49.907V49.906H23.541V36.724s0,0,0,0V23.541h4.127a1.076,1.076,0,1,0,0-2.152H22.911L19.69,18.168a5.829,5.829,0,1,0-1.522,1.521l3.222,3.222V35.647H11.659V31.97a1.076,1.076,0,0,0-1.076-1.076H1.077A1.076,1.076,0,0,0,0,31.97v9.506a1.076,1.076,0,0,0,1.076,1.076h9.506a1.076,1.076,0,0,0,1.076-1.076V37.8h9.731V50.537l-3.222,3.222a5.838,5.838,0,0,0-7.411.689h0a5.829,5.829,0,1,0,8.933.832l3.222-3.222H35.648v9.731H31.971A1.076,1.076,0,0,0,30.9,62.865v9.506a1.076,1.076,0,0,0,1.076,1.076h9.506a1.076,1.076,0,0,0,1.076-1.076V62.865a1.076,1.076,0,0,0-1.076-1.076H37.8V52.058H50.537l3.223,3.223a5.82,5.82,0,1,0,1.521-1.523l-3.221-3.221V37.8H61.79v3.677a1.076,1.076,0,0,0,1.076,1.076h9.506a1.076,1.076,0,0,0,1.076-1.076V31.97A1.076,1.076,0,0,0,72.372,30.894ZM33.047,2.152H40.4V9.506H33.047V2.152ZM2.153,40.4V33.046H9.507v3.674s0,0,0,0,0,0,0,0V40.4H2.153ZM12.278,17.478a3.677,3.677,0,1,1,5.2,0A3.653,3.653,0,0,1,12.278,17.478Zm5.2,43.692a3.677,3.677,0,1,1-5.2-5.2h0a3.677,3.677,0,1,1,5.2,5.2ZM40.4,71.295H33.047V63.941H40.4ZM55.97,12.278a3.677,3.677,0,1,1,5.2,5.2h0a3.681,3.681,0,0,1-5.2,0h0A3.682,3.682,0,0,1,55.97,12.278Zm5.2,43.692a3.677,3.677,0,1,1-5.2,5.2h0a3.677,3.677,0,1,1,5.2-5.2ZM71.3,40.4H63.941V33.046H71.3Z" transform="translate(-0.001)" fill="#17416d"/>
      <path id="Path_44612" data-name="Path 44612" d="M182.551,229.053l3.564,3.565a1.076,1.076,0,0,0,1.522-1.521l-2.8-2.8,2.8-2.8a1.076,1.076,0,0,0-1.521-1.522l-3.564,3.565A1.075,1.075,0,0,0,182.551,229.053Z" transform="translate(-156.094 -191.569)" fill="#17416d"/>
      <path id="Path_44613" data-name="Path 44613" d="M290.231,232.616a1.076,1.076,0,0,0,1.521,0l3.564-3.565a1.076,1.076,0,0,0,0-1.521l-3.564-3.565a1.076,1.076,0,0,0-1.522,1.521l2.8,2.8-2.8,2.8A1.076,1.076,0,0,0,290.231,232.616Z" transform="translate(-248.328 -191.567)" fill="#17416d"/>
      <path id="Path_44614" data-name="Path 44614" d="M233.01,232.931a1.075,1.075,0,0,0,.9-.479l4.753-7.13a1.076,1.076,0,0,0-1.79-1.194l-4.753,7.13a1.076,1.076,0,0,0,.894,1.673Z" transform="translate(-198.664 -191.566)" fill="#17416d"/>
      <path id="Path_44615" data-name="Path 44615" d="M246.622,35.285a1.076,1.076,0,1,0,0-2.152h-1.188a1.076,1.076,0,0,0,0,2.152Z" transform="translate(-209.305 -28.38)" fill="#17416d"/>
      <path id="Path_44616" data-name="Path 44616" d="M245.435,466.013h1.188a1.076,1.076,0,1,0,0-2.152h-1.188a1.076,1.076,0,1,0,0,2.152Z" transform="translate(-209.306 -397.32)" fill="#17416d"/>
      <path id="Path_44617" data-name="Path 44617" d="M464.941,247.7a1.076,1.076,0,0,0,1.076-1.076v-1.188a1.076,1.076,0,1,0-2.152,0v1.188A1.076,1.076,0,0,0,464.941,247.7Z" transform="translate(-397.323 -209.303)" fill="#17416d"/>
      <path id="Path_44618" data-name="Path 44618" d="M34.212,244.355a1.076,1.076,0,0,0-1.076,1.076v1.188a1.076,1.076,0,0,0,2.152,0v-1.188A1.076,1.076,0,0,0,34.212,244.355Z" transform="translate(-28.383 -209.302)" fill="#17416d"/>
    </g>
  </g>
</svg>
