<svg xmlns="http://www.w3.org/2000/svg" width="45.2" height="67.093" viewBox="0 0 45.2 67.093">
  <g id="camera-360" transform="translate(-83.535)">
    <path id="Path_44585" data-name="Path 44585" d="M220.876,350.722a.983.983,0,0,0-.983-.983h-10.51a.983.983,0,1,0,0,1.966h10.51A.983.983,0,0,0,220.876,350.722Z" transform="translate(-108.503 -303.91)" fill="#17416d"/>
    <path id="Path_44586" data-name="Path 44586" d="M222.831,120.578a4.347,4.347,0,1,0,4.347-4.347A4.352,4.352,0,0,0,222.831,120.578Zm6.728,0a2.381,2.381,0,1,1-2.381-2.381A2.384,2.384,0,0,1,229.559,120.578Z" transform="translate(-121.043 -101)" fill="#17416d"/>
    <path id="Path_44587" data-name="Path 44587" d="M128.735,369.009c0-2.876-1.916-5.631-5.4-7.758a.983.983,0,1,0-1.025,1.677c2.873,1.756,4.456,3.916,4.456,6.081,0,2.357-1.8,4.631-5.1,6.455l-3.068-1.242a.983.983,0,1,0-.737,1.822l1.39.562a35.659,35.659,0,0,1-13.121,2.307,33.791,33.791,0,0,1-14.843-3.084c-3.734-1.881-5.791-4.3-5.791-6.822,0-2.165,1.582-4.324,4.456-6.081a.983.983,0,1,0-1.025-1.677c-3.48,2.127-5.4,4.882-5.4,7.758,0,3.3,2.441,6.345,6.872,8.577a35.773,35.773,0,0,0,15.728,3.294,38.092,38.092,0,0,0,13.4-2.27l-.441.823a.983.983,0,1,0,1.732.929l1.667-3.106C126.523,375.059,128.735,372.149,128.735,369.009Z" transform="translate(0 -313.788)" fill="#17416d"/>
    <path id="Path_44588" data-name="Path 44588" d="M191.951,425.325a.983.983,0,1,0,0,1.966h3.026a.983.983,0,0,0,.983-.983V420.4a.983.983,0,0,0-.983-.983h-3.026a.983.983,0,1,0,0,1.966h2.044v.99h-2.044a.983.983,0,1,0,0,1.966h2.044v.99Z" transform="translate(-93.355 -364.455)" fill="#17416d"/>
    <path id="Path_44589" data-name="Path 44589" d="M240.963,421.109a.983.983,0,0,0,0-1.966h-3.027a.983.983,0,0,0-.983.983v5.91a.983.983,0,0,0,.983.983h3.027a.983.983,0,0,0,.983-.983v-2.955a.983.983,0,0,0-.983-.983H238.92v-.99Zm-.983,3.945H238.92v-.99h1.061Z" transform="translate(-133.315 -364.219)" fill="#17416d"/>
    <path id="Path_44590" data-name="Path 44590" d="M283.924,427.291h3.027a.983.983,0,0,0,.983-.983V420.4a.983.983,0,0,0-.983-.983h-3.027a.983.983,0,0,0-.983.983v5.91A.983.983,0,0,0,283.924,427.291Zm.983-5.91h1.061v3.945h-1.061Z" transform="translate(-173.276 -364.455)" fill="#17416d"/>
    <path id="Path_44591" data-name="Path 44591" d="M205.817,91.178a.983.983,0,1,0,1.9-.511,8.523,8.523,0,1,0,0,4.441.983.983,0,1,0-1.9-.511,6.557,6.557,0,1,1,0-3.418Z" transform="translate(-93.352 -73.31)" fill="#17416d"/>
    <path id="Path_44592" data-name="Path 44592" d="M116.053,36.333l-3.626,10.33a4.869,4.869,0,0,0,4.594,6.482h10.837a.983.983,0,1,0,0-1.966H117.022a2.9,2.9,0,0,1-2.74-3.865l3.523-10.038a19.622,19.622,0,0,0,16.756,0l3.523,10.038a2.9,2.9,0,0,1-2.74,3.865h-3.557a.983.983,0,0,0,0,1.966h3.557a4.869,4.869,0,0,0,4.594-6.482l-3.626-10.33A19.579,19.579,0,1,0,115.138,3.413a.983.983,0,0,0,1.111,1.622,17.61,17.61,0,0,1,2.927-1.617,8.525,8.525,0,0,0,7.008,3.673,8.525,8.525,0,0,0,7.009-3.673,17.641,17.641,0,0,1,9.152,9.153,8.523,8.523,0,0,0,0,14.016,17.637,17.637,0,0,1-9.152,9.153,8.523,8.523,0,0,0-14.018,0,17.636,17.636,0,0,1-9.152-9.153,8.523,8.523,0,0,0,0-14.017,17.53,17.53,0,0,1,3.384-5.112A.983.983,0,0,0,111.981,6.1a19.581,19.581,0,0,0,4.073,30.229ZM126.184,5.124A6.559,6.559,0,0,1,121.1,2.71a17.72,17.72,0,0,1,10.163,0A6.558,6.558,0,0,1,126.184,5.124Zm14.454,14.454a6.56,6.56,0,0,1,2.413-5.081,17.719,17.719,0,0,1,0,10.162A6.558,6.558,0,0,1,140.638,19.578ZM126.184,34.031a6.558,6.558,0,0,1,5.082,2.414,17.72,17.72,0,0,1-10.163,0A6.559,6.559,0,0,1,126.184,34.031ZM111.73,19.578a6.559,6.559,0,0,1-2.413,5.081,17.716,17.716,0,0,1,0-10.162A6.56,6.56,0,0,1,111.73,19.578Z" transform="translate(-20.049 0)" fill="#17416d"/>
  </g>
</svg>
