<svg xmlns="http://www.w3.org/2000/svg" width="74.704" height="74.768" viewBox="0 0 74.704 74.768">
  <g id="cloud" transform="translate(-0.979 -1.002)">
    <path id="Path_44639" data-name="Path 44639" d="M57.615,50.383a1.2,1.2,0,0,0,1.2-1.2V47.766a14.443,14.443,0,0,0,8.36-27.4,12.357,12.357,0,0,0,.071-1.3A13.249,13.249,0,0,0,49.711,6.529a14.454,14.454,0,0,0-22.736,0A13.249,13.249,0,0,0,9.436,19.067a12.36,12.36,0,0,0,.071,1.3,14.439,14.439,0,0,0,8.36,27.4v1.413a1.2,1.2,0,0,0,1.2,1.2h1.865a17.947,17.947,0,0,0,1.7,4.08l-1.325,1.325a1.2,1.2,0,0,0,0,1.7l1.7,1.7L13.367,68.8a3.662,3.662,0,1,0,1.716,1.7l9.636-9.6,1.7,1.7a1.239,1.239,0,0,0,1.7,0l1.325-1.325a17.918,17.918,0,0,0,4.078,1.7v1.865a1.2,1.2,0,0,0,1.2,1.2h7.227a1.2,1.2,0,0,0,1.2-1.2V62.973a17.918,17.918,0,0,0,4.081-1.7L48.567,62.6a1.2,1.2,0,0,0,1.7,0l1.694-1.692L61.6,70.5a3.571,3.571,0,0,0-.375,1.566,3.613,3.613,0,1,0,3.613-3.613,3.577,3.577,0,0,0-1.525.349l-9.654-9.6,1.715-1.714a1.2,1.2,0,0,0,0-1.7l-1.325-1.325a17.947,17.947,0,0,0,1.7-4.078ZM11.845,73.269a1.2,1.2,0,1,1,1.2-1.2A1.2,1.2,0,0,1,11.845,73.269Zm54.2-1.2a1.2,1.2,0,1,1-1.2-1.2A1.2,1.2,0,0,1,66.046,72.064Zm-50.588-26.5A12.038,12.038,0,0,1,11.25,22.248a1.2,1.2,0,0,0,.765-1.325A10.835,10.835,0,0,1,26.931,9.091,1.2,1.2,0,0,0,28.4,8.663a12.045,12.045,0,0,1,19.893,0,1.2,1.2,0,0,0,1.466.429A10.8,10.8,0,0,1,64.672,20.917a1.2,1.2,0,0,0,.765,1.325A12.016,12.016,0,0,1,58.819,45.3V41.952a1.2,1.2,0,0,0-1.2-1.2H55.75a17.947,17.947,0,0,0-1.7-4.08l1.325-1.325a1.2,1.2,0,0,0,0-1.7l-1.7-1.7,3.6-3.594a3.571,3.571,0,0,0,1.548.361,3.613,3.613,0,1,0-3.613-3.613,3.571,3.571,0,0,0,.361,1.548l-3.6,3.6-1.7-1.7a1.238,1.238,0,0,0-1.7,0L47.24,29.857a17.918,17.918,0,0,0-4.078-1.7V26.294a1.2,1.2,0,0,0-1.2-1.2H39.548V15.232a3.613,3.613,0,1,0-2.409,0v9.857H34.73a1.2,1.2,0,0,0-1.2,1.2v1.865a17.918,17.918,0,0,0-4.081,1.7L28.12,28.529a1.2,1.2,0,0,0-1.7,0l-1.7,1.7-3.593-3.6a3.554,3.554,0,0,0,.361-1.548A3.613,3.613,0,1,0,17.867,28.7a3.571,3.571,0,0,0,1.548-.361l3.6,3.6-1.7,1.7a1.2,1.2,0,0,0,0,1.7l1.325,1.325a17.947,17.947,0,0,0-1.7,4.078H19.072a1.2,1.2,0,0,0-1.2,1.2v3.342a12.031,12.031,0,0,1-2.409.271ZM57.615,25.089a1.2,1.2,0,1,1,1.2,1.2A1.2,1.2,0,0,1,57.615,25.089ZM37.139,11.84a1.2,1.2,0,1,1,1.2,1.2A1.2,1.2,0,0,1,37.139,11.84ZM17.867,26.294a1.2,1.2,0,1,1,1.2-1.2A1.2,1.2,0,0,1,17.867,26.294ZM53.632,48.921A15.538,15.538,0,0,1,51.522,54a1.2,1.2,0,0,0,.163,1.5l1.138,1.137-3.407,3.407-1.137-1.138a1.2,1.2,0,0,0-1.5-.163A15.491,15.491,0,0,1,41.7,60.853a1.2,1.2,0,0,0-.947,1.177v1.6H35.934v-1.6a1.2,1.2,0,0,0-.947-1.177,15.491,15.491,0,0,1-5.076-2.109,1.2,1.2,0,0,0-1.5.163l-1.137,1.138-3.407-3.407L25,55.5a1.2,1.2,0,0,0,.161-1.5,15.538,15.538,0,0,1-2.11-5.076,1.2,1.2,0,0,0-1.177-.947h-1.6V43.157h1.6a1.2,1.2,0,0,0,1.177-.947,15.538,15.538,0,0,1,2.11-5.076,1.2,1.2,0,0,0-.163-1.5l-1.138-1.137,3.407-3.407,1.137,1.138a1.2,1.2,0,0,0,1.5.163,15.5,15.5,0,0,1,5.077-2.11,1.2,1.2,0,0,0,.946-1.177V27.5h4.818v1.6a1.2,1.2,0,0,0,.947,1.177,15.5,15.5,0,0,1,5.076,2.11,1.2,1.2,0,0,0,1.5-.163l1.137-1.138,3.407,3.407-1.138,1.137a1.2,1.2,0,0,0-.161,1.5,15.538,15.538,0,0,1,2.11,5.076,1.2,1.2,0,0,0,1.177.947h1.6v4.818h-1.6a1.2,1.2,0,0,0-1.177.947Z" transform="translate(0)" fill="#17416d"/>
    <path id="Path_44640" data-name="Path 44640" d="M34.249,27A13.249,13.249,0,1,0,47.5,40.249,13.249,13.249,0,0,0,34.249,27Zm0,2.409A10.852,10.852,0,0,1,45.09,40.214a17.925,17.925,0,0,1-21.681,0A10.852,10.852,0,0,1,34.249,29.409Zm0,21.681a10.861,10.861,0,0,1-10.359-7.657,20.33,20.33,0,0,0,20.724,0A10.861,10.861,0,0,1,34.249,51.09Z" transform="translate(4.094 5.316)" fill="#17416d"/>
  </g>
</svg>
