<svg xmlns="http://www.w3.org/2000/svg" width="61.546" height="58.892" viewBox="0 0 61.546 58.892">
  <g id="code" transform="translate(0 -10.005)">
    <path id="Path_44595" data-name="Path 44595" d="M61.545,10.767a.732.732,0,0,0-.7-.761H.754a.732.732,0,0,0-.754.71c0,.017,0,.034,0,.052V58.675a.769.769,0,0,0,.733.8H21.764l-2.206,7.826H15.714a.8.8,0,1,0,0,1.592H45.831a.8.8,0,1,0,0-1.592H41.987L39.78,59.48H60.79a.769.769,0,0,0,.755-.783c0-.007,0-.014,0-.022V10.767ZM1.592,11.6H59.953V47.94H1.592ZM40.334,67.305H21.211l2.206-7.826h14.71Zm19.619-9.417H1.592V49.532H59.953Z" transform="translate(0)" fill="#17416d"/>
    <path id="Path_44596" data-name="Path 44596" d="M163.221,118.537a.8.8,0,0,0-1.114-.155l-6.286,4.753a.8.8,0,0,0,0,1.269l6.286,4.753a.8.8,0,0,0,.975-1.258l-.016-.012-5.447-4.119,5.446-4.118a.8.8,0,0,0,.155-1.115Z" transform="translate(-134.88 -93.862)" fill="#17416d"/>
    <path id="Path_44597" data-name="Path 44597" d="M256.651,123.133l-6.286-4.753a.8.8,0,1,0-.96,1.27l5.447,4.119-5.447,4.118a.8.8,0,1,0,.951,1.276l.009-.007,6.286-4.753a.8.8,0,0,0,0-1.269Z" transform="translate(-216.047 -93.86)" fill="#17416d"/>
    <path id="Path_44598" data-name="Path 44598" d="M220.976,100.907a.8.8,0,0,0-.906.668l-2.146,14.178a.8.8,0,0,0,1.574.239l2.146-14.178a.8.8,0,0,0-.667-.906Z" transform="translate(-189.012 -78.837)" fill="#17416d"/>
    <path id="Path_44599" data-name="Path 44599" d="M136.249,49.608a14.643,14.643,0,1,0,14.643,14.643,14.643,14.643,0,0,0-14.643-14.643Zm0,27.695A13.052,13.052,0,1,1,149.3,64.251,13.052,13.052,0,0,1,136.249,77.3Z" transform="translate(-105.477 -34.35)" fill="#17416d"/>
  </g>
</svg>
