<svg id="development" xmlns="http://www.w3.org/2000/svg" width="61.1" height="61.095" viewBox="0 0 61.1 61.095">
  <path id="Path_44605" data-name="Path 44605" d="M109.7,88.5a21.218,21.218,0,0,1,13.513,4.876A.949.949,0,1,1,122,94.837a19.322,19.322,0,1,0,2.56,2.56.949.949,0,0,1,1.461-1.212A21.192,21.192,0,1,1,109.7,88.5Z" transform="translate(-79.149 -79.149)" fill="#17416d"/>
  <path id="Path_44606" data-name="Path 44606" d="M.708,25.5l5.245-1.124A25.143,25.143,0,0,1,8.8,17.531L5.876,13.019A.9.9,0,0,1,5.995,11.9L11.9,5.994a.9.9,0,0,1,1.119-.119l4.512,2.919a25.151,25.151,0,0,1,6.842-2.842L25.5.708A.9.9,0,0,1,26.373,0h8.354A.9.9,0,0,1,35.6.707l1.124,5.245a25.149,25.149,0,0,1,6.842,2.842L48.08,5.875a.9.9,0,0,1,1.119.119L55.106,11.9a.9.9,0,0,1,.119,1.119L52.3,17.531a25.146,25.146,0,0,1,2.842,6.841L60.393,25.5a.9.9,0,0,1,.707.875v8.353a.9.9,0,0,1-.708.875l-5.245,1.124A25.152,25.152,0,0,1,52.3,43.564l2.92,4.512a.9.9,0,0,1-.119,1.119L49.2,55.1a.9.9,0,0,1-1.119.119L43.568,52.3a25.151,25.151,0,0,1-6.842,2.842L35.6,60.388a.9.9,0,0,1-.875.707H26.373a.9.9,0,0,1-.875-.707l-1.124-5.245A25.15,25.15,0,0,1,17.532,52.3L13.02,55.22A.9.9,0,0,1,11.9,55.1L5.995,49.195a.9.9,0,0,1-.119-1.119L8.8,43.564a25.148,25.148,0,0,1-2.843-6.841L.708,35.6A.9.9,0,0,1,0,34.724V26.371A.9.9,0,0,1,.708,25.5ZM1.79,34l5.089,1.091a.9.9,0,0,1,.685.677A23.38,23.38,0,0,0,10.61,43.1a.9.9,0,0,1-.005.964L7.772,48.441l4.884,4.883,4.379-2.833A.9.9,0,0,1,18,50.486a23.386,23.386,0,0,0,7.331,3.045.9.9,0,0,1,.677.685L27.1,59.305H34l1.091-5.089a.9.9,0,0,1,.677-.685,23.383,23.383,0,0,0,7.33-3.045.9.9,0,0,1,.964.005l4.379,2.833,4.884-4.883-2.834-4.379a.9.9,0,0,1-.005-.964,23.382,23.382,0,0,0,3.046-7.33.9.9,0,0,1,.685-.677L59.31,34V27.095L54.22,26a.9.9,0,0,1-.685-.677A23.378,23.378,0,0,0,50.489,18a.9.9,0,0,1,.005-.964l2.834-4.379L48.444,7.771,44.065,10.6a.9.9,0,0,1-.964.005,23.382,23.382,0,0,0-7.33-3.045.9.9,0,0,1-.677-.685L34,1.79H27.1L26.006,6.879a.9.9,0,0,1-.677.685A23.385,23.385,0,0,0,18,10.61a.9.9,0,0,1-.964-.005L12.656,7.771,7.772,12.654l2.833,4.378A.9.9,0,0,1,10.61,18a23.379,23.379,0,0,0-3.046,7.33A.9.9,0,0,1,6.879,26L1.79,27.095Z" fill="#17416d"/>
  <path id="Path_44607" data-name="Path 44607" d="M136.53,154.555a18.027,18.027,0,1,1,18.03-18.027A18.049,18.049,0,0,1,136.53,154.555Zm0-34.088a16.061,16.061,0,1,0,16.063,16.061A16.08,16.08,0,0,0,136.53,120.467Z" transform="translate(-105.98 -105.98)" fill="#17416d"/>
  <path id="Path_44608" data-name="Path 44608" d="M196.056,189.717h-1.642a5.519,5.519,0,0,1-1.049,2.528l1.162,1.162a.792.792,0,1,1-1.121,1.121l-1.162-1.162a5.519,5.519,0,0,1-2.528,1.049v1.642a.792.792,0,0,1-1.585,0v-1.642a5.519,5.519,0,0,1-2.528-1.049l-1.162,1.162a.792.792,0,1,1-1.121-1.121l1.162-1.162a5.519,5.519,0,0,1-1.049-2.528h-1.643a.792.792,0,0,1,0-1.585h1.642a5.519,5.519,0,0,1,1.049-2.528l-1.162-1.162a.792.792,0,1,1,1.121-1.121l1.162,1.162a5.519,5.519,0,0,1,2.528-1.049v-1.643a.792.792,0,0,1,1.585,0v1.642a5.519,5.519,0,0,1,2.528,1.049l1.162-1.162a.792.792,0,0,1,1.121,1.121l-1.162,1.162a5.519,5.519,0,0,1,1.049,2.528h1.643a.792.792,0,0,1,0,1.585Zm-7.132-4.755a3.962,3.962,0,1,0,3.962,3.962A3.967,3.967,0,0,0,188.924,184.962Z" transform="translate(-158.374 -158.377)" fill="#17416d"/>
</svg>
