<svg xmlns="http://www.w3.org/2000/svg" width="72.789" height="66.622" viewBox="0 0 72.789 66.622">
  <g id="dog" transform="translate(0 -21.689)">
    <path id="Path_44678" data-name="Path 44678" d="M271.246,176.029c1.555,0,2.816-.828,2.816-1.849,0-1.607-5.632-1.607-5.632,0C268.43,175.2,269.691,176.029,271.246,176.029Z" transform="translate(-230.268 -129.779)" fill="#17416d"/>
    <path id="Path_44679" data-name="Path 44679" d="M209.117,154.679a1.066,1.066,0,0,0-1.066,1.066v1.98a1.066,1.066,0,0,0,2.132,0v-1.98A1.066,1.066,0,0,0,209.117,154.679Z" transform="translate(-178.473 -114.083)" fill="#17416d"/>
    <path id="Path_44680" data-name="Path 44680" d="M354.1,154.679a1.066,1.066,0,0,0-1.066,1.066v1.98a1.066,1.066,0,0,0,2.133,0v-1.98A1.066,1.066,0,0,0,354.1,154.679Z" transform="translate(-302.842 -114.083)" fill="#17416d"/>
    <path id="Path_44681" data-name="Path 44681" d="M257.8,201.268a1.066,1.066,0,0,0-1.066,1.066,1.319,1.319,0,1,1-2.639,0,1.066,1.066,0,1,0-2.132,0,1.319,1.319,0,0,1-2.639,0,1.066,1.066,0,1,0-2.132,0,3.449,3.449,0,0,0,5.837,2.491,3.449,3.449,0,0,0,5.837-2.491A1.066,1.066,0,0,0,257.8,201.268Z" transform="translate(-212.051 -154.049)" fill="#17416d"/>
    <path id="Path_44682" data-name="Path 44682" d="M55.781,26.825c-.191-.173-.385-.343-.585-.509a22.222,22.222,0,0,0-14.22-4.627c-5.327,0-10.831,1.526-14.8,5.136-8.346-2.1-17.009-1.139-17.009,7.468,0,5.982,1.746,10.113,4.79,11.332,2.51,1.005,5.088-.214,7.171-1.957a23.386,23.386,0,0,0,.545,2.325,13.355,13.355,0,0,0-2.18,10.577,19.179,19.179,0,0,0-4.251,2.666,22.568,22.568,0,0,0-3.772-10,4.544,4.544,0,0,0-7.4,0A20.572,20.572,0,0,0,1.536,54.13a1.066,1.066,0,0,0,2.005.726A18.448,18.448,0,0,1,5.8,50.469a2.4,2.4,0,0,1,3.922,0A21.081,21.081,0,0,1,13.3,61.079C9.863,64.813,7.972,69.7,7.054,74.707A14.18,14.18,0,0,1,2.133,63.518a28.35,28.35,0,0,1,.383-4.725,1.066,1.066,0,1,0-2.1-.357A30.49,30.49,0,0,0,0,63.518,16.228,16.228,0,0,0,6.713,77.161a10.472,10.472,0,0,0,1.259,5.576,10.629,10.629,0,0,0,9.35,5.573h34.2a3.073,3.073,0,0,0,3.069-3.069,5.618,5.618,0,0,0-4.92-5.568V70.007c7.369-3.84,11.675-8.378,12.812-13.525a13.49,13.49,0,0,0-2.2-10.491,23.38,23.38,0,0,0,.546-2.323c2.089,1.747,4.666,2.961,7.172,1.957,3.044-1.219,4.79-5.35,4.79-11.332,0-8.605-8.66-9.565-17.008-7.468ZM20.805,41.069c-2.311,2.307-4.453,3.222-6.06,2.578-2.128-.853-3.45-4.436-3.45-9.353a5.543,5.543,0,0,1,2.061-4.8c2.767-2.06,7.735-1.587,11.111-.873A17.61,17.61,0,0,0,20.805,41.069ZM47.54,71.06V80.7a1.066,1.066,0,0,0,1.066,1.066h.377a3.481,3.481,0,0,1,3.477,3.477.938.938,0,0,1-.937.937H46.772a5.619,5.619,0,0,0-4.9-5.134V75.636a1.066,1.066,0,1,0-2.132,0v6.433A1.066,1.066,0,0,0,40.8,83.135h.377a3.481,3.481,0,0,1,3.449,3.044H34.067V75.636a1.066,1.066,0,1,0-2.132,0V86.179H28.081a5.619,5.619,0,0,0-4.838-5.126,7.974,7.974,0,0,0-6.034-7.8,1.066,1.066,0,0,0-.64,2.034,5.921,5.921,0,0,1,4.494,6.6,1.067,1.067,0,0,0,.231.873,1.37,1.37,0,0,0,1.195.382,3.482,3.482,0,0,1,3.449,3.044H17.322a8.5,8.5,0,0,1-8.4-9.7c1.115-7.533,4.344-14.577,11.215-17.858,2.548,6.25,9.713,10.508,15.876,13.16a12.53,12.53,0,0,0,9.925,0c.384-.167.986-.434,1.6-.722ZM59.358,48.619a11.125,11.125,0,0,1,1,7.6c-1.362,5.64-7.077,9.571-12.231,12.183-2.815,1.423-6.558,3.46-11.264,1.42-9.855-4.273-19.108-11.584-14.268-21.206,3.171,7.5,10.112,13.3,18.382,13.3a18.42,18.42,0,0,0,11.267-3.97,1.066,1.066,0,0,0-1.3-1.691,16.308,16.308,0,0,1-9.967,3.529c-15.4,0-24.385-22.277-12.859-31.83a20.1,20.1,0,0,1,12.859-4.136,20.1,20.1,0,0,1,12.859,4.136c7.658,6.348,6.253,18.355-.006,25.573a1.066,1.066,0,0,0,.106,1.5c.445.386,0,0,0,0a1.066,1.066,0,0,0,1.5-.106,23.814,23.814,0,0,0,3.919-6.31Zm7.848-4.973c-1.608.644-3.749-.27-6.06-2.578a17.61,17.61,0,0,0-3.661-12.447c2.741-.58,8.146-1.334,11.111.873a5.544,5.544,0,0,1,2.061,4.8C70.657,39.21,69.335,42.794,67.207,43.646Z" fill="#17416d"/>
  </g>
</svg>
