<svg xmlns="http://www.w3.org/2000/svg" width="72" height="72" viewBox="0 0 72 72">
  <g id="fast-delivery" transform="translate(-2 -2)">
    <path id="Path_44644" data-name="Path 44644" d="M7,37H9v2H7Z" transform="translate(0 7.241)" fill="#17416d"/>
    <path id="Path_44645" data-name="Path 44645" d="M2,41H4v2H2Z" transform="translate(0 8.069)" fill="#17416d"/>
    <path id="Path_44646" data-name="Path 44646" d="M6,12H18v2H6Z" transform="translate(0 0.172)" fill="#17416d"/>
    <path id="Path_44647" data-name="Path 44647" d="M2,12H4v2H2Z" transform="translate(0 0.172)" fill="#17416d"/>
    <path id="Path_44648" data-name="Path 44648" d="M8,16h2v2H8Z" transform="translate(0 2.897)" fill="#17416d"/>
    <path id="Path_44649" data-name="Path 44649" d="M66.269,26.188A18.57,18.57,0,0,1,71.571,39c0,11.579-11.439,21-25.5,21C33.38,60,22.519,52.2,20.806,41.865A1.159,1.159,0,0,0,19.6,41H6v2H18.564c2.322,10.892,13.963,19,27.507,19C61.471,62,74,51.683,74,39a20.342,20.342,0,0,0-5.809-14.035Z" transform="translate(0 12)" fill="#17416d"/>
    <path id="Path_44650" data-name="Path 44650" d="M23.609,47.073C23.609,59.163,33.79,69,46.3,69S69,59.163,69,47.073a21.967,21.967,0,0,0-13.872-20.2L59.8,22.352a1.192,1.192,0,0,0,.369-.861V3.218h-.011a1.155,1.155,0,0,0-.084-.467A1.262,1.262,0,0,0,58.913,2H33.7a1.28,1.28,0,0,0-.891.357L27.762,7.228a1.191,1.191,0,0,0-.371.862V19.055H12.261v2.436h15.13v4.354a27.751,27.751,0,0,0-9.979,18.792H11v2.436h7.593a1.242,1.242,0,0,0,1.26-1.163,25.3,25.3,0,0,1,9.314-18.328h6.787A21.867,21.867,0,0,0,23.609,47.073ZM55.13,23.423V8.6l2.522-2.436V20.987ZM53.348,6.873H44.3l2.522-2.436h9.043ZM34.218,4.436h9.043L40.739,6.873H31.7Zm-4.3,20.709V9.309H40V15.4h2.522V9.309H52.609V25.145Zm5.238,5.7,2.489,4.164,2.184-1.218-2.483-4.155a20.54,20.54,0,0,1,7.7-1.993v4.812h2.522V27.644a20.563,20.563,0,0,1,7.7,1.993L52.779,33.8l2.184,1.218,2.494-4.173A19.991,19.991,0,0,1,63.1,36.3l-4.321,2.41,1.261,2.11,4.311-2.4a18.826,18.826,0,0,1,2.063,7.442H61.435V48.29h4.979a18.827,18.827,0,0,1-2.063,7.442l-4.311-2.4-1.261,2.11,4.321,2.41A19.991,19.991,0,0,1,57.458,63.3l-2.494-4.173L52.78,60.342l2.489,4.164a20.556,20.556,0,0,1-7.7,1.993V61.691H45.046V66.5a20.563,20.563,0,0,1-7.7-1.993l2.483-4.155-2.184-1.218L35.153,63.3a19.975,19.975,0,0,1-5.642-5.451l4.321-2.41-1.261-2.11-4.311,2.4A18.827,18.827,0,0,1,26.2,48.291h4.977V45.855H26.195a18.827,18.827,0,0,1,2.063-7.442l4.311,2.4,1.261-2.11L29.508,36.3a20.029,20.029,0,0,1,5.642-5.453Z" transform="translate(0 0)" fill="#17416d"/>
    <path id="Path_44651" data-name="Path 44651" d="M39,43a4,4,0,0,0,4-4,3.947,3.947,0,0,0-.567-2.019l4.274-4.274-1.414-1.414L41.02,35.567A3.954,3.954,0,0,0,39,35a4,4,0,0,0,0,8Zm0-6a2,2,0,1,1-2,2A2,2,0,0,1,39,37Z" transform="translate(8.2 7.279)" fill="#17416d"/>
    <path id="Path_44652" data-name="Path 44652" d="M0,0H2V2.828H0Z" transform="translate(64.285 26.802) rotate(-45)" fill="#17416d"/>
  </g>
</svg>
