<svg xmlns="http://www.w3.org/2000/svg" width="45.197" height="75.328" viewBox="0 0 45.197 75.328">
  <g id="hardware" transform="translate(-96)">
    <g id="Group_40827" data-name="Group 40827" transform="translate(96)">
      <g id="Group_40826" data-name="Group 40826" transform="translate(0)">
        <path id="Path_44626" data-name="Path 44626" d="M137.431,0H99.766A3.766,3.766,0,0,0,96,3.766V67.8a3.766,3.766,0,0,0,3.766,3.766v2.511a1.256,1.256,0,0,0,1.255,1.255h5.022a1.256,1.256,0,0,0,1.255-1.255V71.562h22.6v2.511a1.256,1.256,0,0,0,1.255,1.255h5.022a1.256,1.256,0,0,0,1.255-1.255V71.562A3.766,3.766,0,0,0,141.2,67.8V3.766A3.766,3.766,0,0,0,137.431,0ZM104.788,72.818h-2.511V71.562h2.511Zm30.131,0h-2.511V71.562h2.511Zm3.766-5.022a1.256,1.256,0,0,1-1.255,1.255H99.766A1.256,1.256,0,0,1,98.511,67.8V45.909A93.1,93.1,0,0,1,118.6,43.942a93.1,93.1,0,0,1,20.088,1.967Zm0-24.46a97.049,97.049,0,0,0-20.088-1.9,97.05,97.05,0,0,0-20.088,1.9V3.766a1.256,1.256,0,0,1,1.255-1.255h37.664a1.256,1.256,0,0,1,1.255,1.255Z" transform="translate(-96)" fill="#17416d"/>
        <path id="Path_44627" data-name="Path 44627" d="M164.876,40H139.766A3.766,3.766,0,0,0,136,43.766v1.255a3.766,3.766,0,0,0,3.766,3.766h25.109a3.766,3.766,0,0,0,3.766-3.766V43.766A3.766,3.766,0,0,0,164.876,40Zm1.255,5.022a1.256,1.256,0,0,1-1.255,1.255H139.766a1.256,1.256,0,0,1-1.255-1.255V43.766a1.256,1.256,0,0,1,1.255-1.255h25.109a1.256,1.256,0,0,1,1.255,1.255Z" transform="translate(-129.723 -33.723)" fill="#17416d"/>
        <path id="Path_44628" data-name="Path 44628" d="M164.876,112H139.766A3.766,3.766,0,0,0,136,115.766v1.255a3.766,3.766,0,0,0,3.766,3.766h25.109a3.766,3.766,0,0,0,3.766-3.766v-1.255A3.766,3.766,0,0,0,164.876,112Zm1.255,5.022a1.256,1.256,0,0,1-1.255,1.255H139.766a1.256,1.256,0,0,1-1.255-1.255v-1.255a1.256,1.256,0,0,1,1.255-1.255h25.109a1.256,1.256,0,0,1,1.255,1.255Z" transform="translate(-129.723 -94.423)" fill="#17416d"/>
        <path id="Path_44629" data-name="Path 44629" d="M208.984,297.255a1.255,1.255,0,1,0-2.511,0v1.68a5.995,5.995,0,0,0,1.255,11.859c.105,0,.212,0,.318-.008a5.991,5.991,0,0,0,.938-11.844Zm2.009,8.787a3.492,3.492,0,1,1-4.52-4.5v1.989a1.255,1.255,0,1,0,2.511,0v-2A3.49,3.49,0,0,1,210.993,306.043Z" transform="translate(-185.13 -249.547)" fill="#17416d"/>
        <path id="Path_44630" data-name="Path 44630" d="M126.277,392h-5.022A1.256,1.256,0,0,0,120,393.256v3.766a1.256,1.256,0,0,0,1.255,1.255h5.022a1.256,1.256,0,0,0,1.255-1.255v-3.766A1.256,1.256,0,0,0,126.277,392Zm-1.255,3.766h-2.511v-1.255h2.511Z" transform="translate(-116.234 -330.482)" fill="#17416d"/>
      </g>
    </g>
  </g>
</svg>
