<svg id="human-resources" xmlns="http://www.w3.org/2000/svg" width="44.684" height="67.024" viewBox="0 0 44.684 67.024">
  <g id="Group_40984" data-name="Group 40984" transform="translate(0 0)">
    <g id="Group_40983" data-name="Group 40983">
      <path id="Path_44719" data-name="Path 44719" d="M110.908,25.207a62.313,62.313,0,0,1-6.026-2.353v-.066a9.79,9.79,0,0,0,5.585-8.823V9.777a9.774,9.774,0,0,0-10.99-9.7A9.947,9.947,0,0,0,90.919,10.1v3.87A9.789,9.789,0,0,0,96.5,22.789v.066a62.259,62.259,0,0,1-6.026,2.353c-5.085,1.7-5.144,5.359-5.144,5.514v22.34q0,.119,0,.238a4.071,4.071,0,0,0,4.189,3.951H99.3V54.458H89.523a1.278,1.278,0,0,1-1.4-1.4v-22.3c0-.075.14-1.871,3.234-2.9a59.693,59.693,0,0,0,7.164-2.868,1.4,1.4,0,0,0,.772-1.25V21.856a1.4,1.4,0,0,0-.93-1.317,6.99,6.99,0,0,1-4.655-6.574V10.1a7.153,7.153,0,0,1,6.1-7.245,6.981,6.981,0,0,1,7.861,6.927v4.189a6.99,6.99,0,0,1-4.655,6.574,1.4,1.4,0,0,0-.93,1.317V23.74A1.4,1.4,0,0,0,102.862,25a59.671,59.671,0,0,0,7.164,2.861c3.094,1.03,3.234,2.826,3.234,2.864v1.4h2.793v-1.4C116.052,30.566,115.994,26.9,110.908,25.207Z" transform="translate(-85.333 0)" fill="#17416d"/>
    </g>
  </g>
  <g id="Group_40986" data-name="Group 40986" transform="translate(13.964 9.775)">
    <g id="Group_40985" data-name="Group 40985">
      <path id="Path_44720" data-name="Path 44720" d="M218.541,74.678h-9.774v2.793h9.774a1.278,1.278,0,0,1,1.4,1.4v22.3c0,.075-.14,1.871-3.234,2.9a59.692,59.692,0,0,0-7.164,2.868,1.4,1.4,0,0,0-.772,1.25v1.884a1.4,1.4,0,0,0,.93,1.317,6.99,6.99,0,0,1,4.655,6.574v3.87a7.153,7.153,0,0,1-6.1,7.245,6.981,6.981,0,0,1-7.861-6.927v-4.189a6.99,6.99,0,0,1,4.655-6.574,1.4,1.4,0,0,0,.93-1.317v-1.884a1.4,1.4,0,0,0-.772-1.25,59.671,59.671,0,0,0-7.164-2.868c-3.094-1.03-3.234-2.826-3.234-2.864v-1.4h-2.793v1.4c0,.155.059,3.819,5.144,5.514a62.312,62.312,0,0,1,6.026,2.353v.066a9.789,9.789,0,0,0-5.585,8.823v4.211a9.774,9.774,0,0,0,9.8,9.752,10.1,10.1,0,0,0,1.194-.074,9.947,9.947,0,0,0,8.558-10.018v-3.87a9.789,9.789,0,0,0-5.585-8.823v-.066a62.261,62.261,0,0,1,6.026-2.353c5.085-1.7,5.144-5.359,5.144-5.514V78.867q0-.119,0-.238A4.071,4.071,0,0,0,218.541,74.678Z" transform="translate(-192.012 -74.676)" fill="#17416d"/>
    </g>
  </g>
  <g id="Group_40988" data-name="Group 40988" transform="translate(29.324 3.205)">
    <g id="Group_40987" data-name="Group 40987">
      <path id="Path_44721" data-name="Path 44721" d="M318.711,26.455l-1.974-1.974-6.981,6.981a1.4,1.4,0,0,0,0,1.974l6.981,6.981,1.974-1.974-5.994-5.994Z" transform="translate(-309.347 -24.481)" fill="#17416d"/>
    </g>
  </g>
  <g id="Group_40990" data-name="Group 40990" transform="translate(5.996 47.885)">
    <g id="Group_40989" data-name="Group 40989">
      <path id="Path_44722" data-name="Path 44722" d="M140.093,372.8l-6.981-6.981-1.974,1.974,5.994,5.994-5.994,5.994,1.974,1.974,6.981-6.981A1.4,1.4,0,0,0,140.093,372.8Z" transform="translate(-131.137 -365.815)" fill="#17416d"/>
    </g>
  </g>
  <g id="Group_40992" data-name="Group 40992" transform="translate(13.964 29.325)">
    <g id="Group_40991" data-name="Group 40991">
      <rect id="Rectangle_2840" data-name="Rectangle 2840" width="2.793" height="2.793" fill="#17416d"/>
    </g>
  </g>
  <g id="Group_40994" data-name="Group 40994" transform="translate(27.927 34.91)">
    <g id="Group_40993" data-name="Group 40993">
      <rect id="Rectangle_2841" data-name="Rectangle 2841" width="2.793" height="2.793" fill="#17416d"/>
    </g>
  </g>
</svg>
