<svg xmlns="http://www.w3.org/2000/svg" width="41.087" height="72.991" viewBox="0 0 41.087 72.991">
  <g id="human" transform="translate(-111.897)">
    <g id="Group_40968" data-name="Group 40968" transform="translate(139.164)">
      <g id="Group_40967" data-name="Group 40967">
        <path id="Path_44696" data-name="Path 44696" d="M310.456,0H304.3a1.137,1.137,0,0,0,0,2.274h6.158a4.256,4.256,0,0,1,4.251,4.251v6.158a1.137,1.137,0,0,0,2.274,0V6.525A6.532,6.532,0,0,0,310.456,0Z" transform="translate(-303.161)" fill="#17416d"/>
      </g>
    </g>
    <g id="Group_40970" data-name="Group 40970" transform="translate(111.897)">
      <g id="Group_40969" data-name="Group 40969">
        <path id="Path_44697" data-name="Path 44697" d="M124.58,0h-6.158A6.532,6.532,0,0,0,111.9,6.525v6.158a1.137,1.137,0,1,0,2.274,0V6.525a4.256,4.256,0,0,1,4.251-4.251h6.158a1.137,1.137,0,0,0,0-2.274Z" transform="translate(-111.897)" fill="#17416d"/>
      </g>
    </g>
    <g id="Group_40972" data-name="Group 40972" transform="translate(139.164 59.171)">
      <g id="Group_40971" data-name="Group 40971">
        <path id="Path_44698" data-name="Path 44698" d="M315.844,415.059a1.137,1.137,0,0,0-1.137,1.137v6.158a4.256,4.256,0,0,1-4.251,4.251H304.3a1.137,1.137,0,1,0,0,2.274h6.158a6.532,6.532,0,0,0,6.525-6.525V416.2A1.137,1.137,0,0,0,315.844,415.059Z" transform="translate(-303.161 -415.059)" fill="#17416d"/>
      </g>
    </g>
    <g id="Group_40974" data-name="Group 40974" transform="translate(111.897 59.171)">
      <g id="Group_40973" data-name="Group 40973">
        <path id="Path_44699" data-name="Path 44699" d="M124.58,426.605h-6.158a4.256,4.256,0,0,1-4.251-4.251V416.2a1.137,1.137,0,0,0-2.274,0v6.158a6.532,6.532,0,0,0,6.525,6.525h6.158a1.137,1.137,0,0,0,0-2.274Z" transform="translate(-111.897 -415.059)" fill="#17416d"/>
      </g>
    </g>
    <g id="Group_40976" data-name="Group 40976" transform="translate(119.398 21.666)">
      <g id="Group_40975" data-name="Group 40975">
        <path id="Path_44700" data-name="Path 44700" d="M189.687,155.963a7.58,7.58,0,0,0-6.674-3.982H172.092a7.591,7.591,0,0,0-7.582,7.582V173.74a1.862,1.862,0,0,0,1.86,1.86H169.6v1.083a1.137,1.137,0,1,0,2.274,0v-2.22a1.137,1.137,0,0,0-.019-.2V161.4a1.137,1.137,0,1,0-2.274,0v11.931h-2.793V159.563a5.314,5.314,0,0,1,5.309-5.308h10.921a5.305,5.305,0,0,1,5.309,5.308,1.137,1.137,0,0,0,2.274,0A7.594,7.594,0,0,0,189.687,155.963Z" transform="translate(-164.51 -151.981)" fill="#17416d"/>
      </g>
    </g>
    <g id="Group_40978" data-name="Group 40978" transform="translate(124.483 29.944)">
      <g id="Group_40977" data-name="Group 40977">
        <path id="Path_44701" data-name="Path 44701" d="M220.046,212.428a1.137,1.137,0,0,0-1.137,1.137v9.546h-2.83V211.181a1.137,1.137,0,0,0-2.274,0v13.068a1.13,1.13,0,0,0,.019.2v18.284H202.457v-11.8a1.137,1.137,0,0,0-2.274,0v12.941a1.137,1.137,0,0,0,1.137,1.137h13.641a1.137,1.137,0,0,0,1.137-1.137V225.385h3.226a1.862,1.862,0,0,0,1.86-1.86v-9.961A1.137,1.137,0,0,0,220.046,212.428Z" transform="translate(-200.183 -210.044)" fill="#17416d"/>
      </g>
    </g>
    <g id="Group_40980" data-name="Group 40980" transform="translate(126.151 8.085)">
      <g id="Group_40979" data-name="Group 40979">
        <path id="Path_44702" data-name="Path 44702" d="M218.418,56.712a6.533,6.533,0,1,0,6.533,6.533A6.54,6.54,0,0,0,218.418,56.712Zm0,10.792a4.259,4.259,0,1,1,4.259-4.259A4.264,4.264,0,0,1,218.418,67.5Z" transform="translate(-211.885 -56.712)" fill="#17416d"/>
      </g>
    </g>
  </g>
</svg>
