<svg id="microchip" xmlns="http://www.w3.org/2000/svg" width="57.367" height="57.367" viewBox="0 0 57.367 57.367">
  <g id="Group_40821" data-name="Group 40821" transform="translate(0 0)">
    <g id="Group_40820" data-name="Group 40820">
      <path id="Path_44593" data-name="Path 44593" d="M94.945,100a1.194,1.194,0,0,0-1.2,1.2v19.122a1.194,1.194,0,0,0,1.2,1.2h19.122a1.194,1.194,0,0,0,1.2-1.2V101.2a1.194,1.194,0,0,0-1.2-1.2Zm17.927,19.122H96.14V102.39h16.732Z" transform="translate(-75.823 -80.878)" fill="#17416d"/>
      <path id="Path_44594" data-name="Path 44594" d="M56.172,31.074a1.2,1.2,0,0,0,0-2.39H46.611V21.513h9.561a1.2,1.2,0,0,0,0-2.39H46.611V13.147a1.194,1.194,0,0,0-1.2-1.2H39.44V1.2a1.2,1.2,0,0,0-2.39,0V11.951H29.879V1.2a1.2,1.2,0,0,0-2.39,0V11.951H20.318V1.2a1.2,1.2,0,1,0-2.39,0V11.951H11.951a1.194,1.194,0,0,0-1.2,1.2v5.976H1.2a1.2,1.2,0,0,0,0,2.39h9.561v7.171H1.2a1.2,1.2,0,1,0,0,2.39h9.561v7.171H1.2a1.2,1.2,0,0,0,0,2.39h9.561v5.976a1.194,1.194,0,0,0,1.2,1.2h5.976v8.366a1.2,1.2,0,0,0,2.39,0V47.806h7.171v8.366a1.2,1.2,0,0,0,2.39,0V47.806H37.05v8.366a1.2,1.2,0,0,0,2.39,0V47.806h5.976a1.194,1.194,0,0,0,1.2-1.2V40.635h9.561a1.2,1.2,0,0,0,0-2.39H46.611V31.074ZM44.221,45.416H13.147V14.342H44.221Z" transform="translate(0 0)" fill="#17416d"/>
    </g>
  </g>
</svg>
