<svg xmlns="http://www.w3.org/2000/svg" width="55.305" height="64.841" viewBox="0 0 55.305 64.841">
  <g id="online-library" transform="translate(-37.652)">
    <path id="Path_44653" data-name="Path 44653" d="M84.408,40.558H46.2a.95.95,0,0,0,0,1.9H84.408a.95.95,0,0,0,0-1.9Zm7.6,9.087a.95.95,0,0,0,.95-.95V4.749A4.754,4.754,0,0,0,88.208,0H42.4a4.754,4.754,0,0,0-4.749,4.749V60.092A4.754,4.754,0,0,0,42.4,64.841H88.208a4.754,4.754,0,0,0,4.749-4.749V53.127a.95.95,0,0,0-1.9,0v6.965a2.853,2.853,0,0,1-2.849,2.849H42.4a2.853,2.853,0,0,1-2.849-2.849V4.749A2.853,2.853,0,0,1,42.4,1.9H88.208a2.853,2.853,0,0,1,2.849,2.849V48.694A.95.95,0,0,0,92.007,49.644Zm-17.1-3.388H46.2a.95.95,0,1,0,0,1.9H74.91a.95.95,0,1,0,0-1.9ZM45.251,35.808a.95.95,0,0,0,.95.95H84.408a.95.95,0,0,0,0-1.9H46.2a.95.95,0,0,0-.95.95Zm43.907,15.8V5.636A1.838,1.838,0,0,0,87.321,3.8H43.288a1.838,1.838,0,0,0-1.836,1.836V51.607a1.838,1.838,0,0,0,1.836,1.836H87.321A1.838,1.838,0,0,0,89.157,51.607Zm-1.9-22.036H54.425a.95.95,0,1,0,0,1.9H87.258V51.544H43.351V31.471h6.642a.95.95,0,1,0,0-1.9H43.351v-1.9H87.258ZM54.028,15.014v6.028h-4.35V15.014Zm-4.35-1.9v-2.83h4.35v2.83Zm4.35,9.828v2.83h-4.35v-2.83Zm1.9,2.83V12.184h4.35V25.772Zm6.25,0V10.285h4.35V25.772Zm6.25,0V12.184h2.451V25.772Zm7.07,0h-2.72V19.526ZM72.829,14.888l3.332-1.451,4.717,10.832L77.546,25.72ZM87.258,25.772H82.1a1.738,1.738,0,0,0,.591-2.111L77.838,12.527a1.737,1.737,0,0,0-2.283-.9l-2.777,1.209v-.717a1.838,1.838,0,0,0-1.836-1.836H68.427v-.063A1.838,1.838,0,0,0,66.59,8.385H62.114a1.838,1.838,0,0,0-1.836,1.836v.063h-4.35v-.063a1.838,1.838,0,0,0-1.836-1.836H49.614a1.838,1.838,0,0,0-1.836,1.836V25.772H43.351V5.7H87.258Zm-24.8,32.421A2.849,2.849,0,1,0,65.3,55.343,2.853,2.853,0,0,0,62.455,58.193Zm3.8,0a.95.95,0,1,1-.95-.95A.951.951,0,0,1,66.254,58.193Z" fill="#17416d"/>
  </g>
</svg>
