<svg xmlns="http://www.w3.org/2000/svg" width="70.919" height="70.372" viewBox="0 0 70.919 70.372">
  <g id="plug" transform="translate(0 -1.976)">
    <g id="Group_40836" data-name="Group 40836" transform="translate(0 16.228)">
      <g id="Group_40835" data-name="Group 40835" transform="translate(0)">
        <path id="Path_44671" data-name="Path 44671" d="M15.515,145.942a5.873,5.873,0,0,0-6.773-1.1,32.9,32.9,0,0,1,.067-37.782,1.385,1.385,0,0,0-2.256-1.608,35.485,35.485,0,0,0,.068,41.187,5.869,5.869,0,1,0,8.894-.7Zm-1.959,6.34a3.1,3.1,0,1,1,0-4.382A3.1,3.1,0,0,1,13.556,152.282Z" transform="translate(0 -104.869)" fill="#17416d"/>
      </g>
    </g>
    <g id="Group_40838" data-name="Group 40838" transform="translate(19.115 9.099)">
      <g id="Group_40837" data-name="Group 40837">
        <path id="Path_44672" data-name="Path 44672" d="M175.393,108.5a1.385,1.385,0,0,0-1.934-.312,32.285,32.285,0,0,1-13.231,5.634,3.791,3.791,0,0,1-4.482-3.722V99.945h.121a2.912,2.912,0,0,0,2.909-2.909V94.7a12.487,12.487,0,0,0,8.034-11.651V76.488a5.262,5.262,0,0,0-.693-10.294V57.559a4.155,4.155,0,1,0-8.311,0v8.588h-6.926V57.559a4.155,4.155,0,1,0-8.311,0v8.635a5.262,5.262,0,0,0-.693,10.294v6.558A12.487,12.487,0,0,0,149.912,94.7v2.339a2.912,2.912,0,0,0,2.909,2.909h.156V110.1a6.56,6.56,0,0,0,6.561,6.555,6.628,6.628,0,0,0,1.187-.107,35.033,35.033,0,0,0,14.357-6.114A1.385,1.385,0,0,0,175.393,108.5ZM160.578,57.559a1.385,1.385,0,1,1,2.77,0v8.588h-2.77Zm-15.237,0a1.385,1.385,0,0,1,2.77,0v8.588h-2.77ZM140.77,71.411a2.5,2.5,0,0,1,2.493-2.493h22.162a2.493,2.493,0,0,1,0,4.987H143.264A2.5,2.5,0,0,1,140.77,71.411Zm3.878,11.635V76.674h19.392v6.372a9.7,9.7,0,0,1-19.392,0ZM154.4,97.174l-.035,0-.035,0h-1.506a.139.139,0,0,1-.139-.139V95.4a12.491,12.491,0,0,0,3.324,0v1.635a.139.139,0,0,1-.139.139Z" transform="translate(-138 -53.404)" fill="#17416d"/>
      </g>
    </g>
    <g id="Group_40840" data-name="Group 40840" transform="translate(58.166 60.065)">
      <g id="Group_40839" data-name="Group 40839">
        <path id="Path_44673" data-name="Path 44673" d="M422.26,421.724a1.385,1.385,0,0,0-1.929.038l-.031.033a1.385,1.385,0,0,0,2,1.92l.031-.033A1.385,1.385,0,0,0,422.26,421.724Z" transform="translate(-419.927 -421.352)" fill="#17416d"/>
      </g>
    </g>
    <g id="Group_40842" data-name="Group 40842" transform="translate(14.345 1.976)">
      <g id="Group_40841" data-name="Group 40841" transform="translate(0 0)">
        <path id="Path_44674" data-name="Path 44674" d="M160.043,34.767A35.537,35.537,0,0,0,104.148,8.451a1.385,1.385,0,1,0,1.6,2.262,33.068,33.068,0,0,1,42.045,3.529,32.5,32.5,0,0,1,3.3,42.38,1.385,1.385,0,1,0,2.236,1.635A35.462,35.462,0,0,0,160.043,34.767Z" transform="translate(-103.563 -1.976)" fill="#17416d"/>
      </g>
    </g>
    <g id="Group_40844" data-name="Group 40844" transform="translate(9.794 12.042)">
      <g id="Group_40843" data-name="Group 40843">
        <path id="Path_44675" data-name="Path 44675" d="M73.089,75.049a1.385,1.385,0,0,0-1.959.009l-.023.023a1.385,1.385,0,0,0,1.968,1.95l.023-.023A1.385,1.385,0,0,0,73.089,75.049Z" transform="translate(-70.706 -74.647)" fill="#17416d"/>
      </g>
    </g>
    <g id="Group_40846" data-name="Group 40846" transform="translate(32.148 32.993)">
      <g id="Group_40845" data-name="Group 40845" transform="translate(0 0)">
        <path id="Path_44676" data-name="Path 44676" d="M238.526,231.139a1.385,1.385,0,0,0-1.2-.688h-.99l1.823-2.3a1.385,1.385,0,0,0-2.172-1.72l-3.6,4.548a1.385,1.385,0,0,0,1.086,2.245h1.477l-1.7,2.995a1.385,1.385,0,1,0,2.411,1.365l2.867-5.063A1.385,1.385,0,0,0,238.526,231.139Z" transform="translate(-232.091 -225.904)" fill="#17416d"/>
      </g>
    </g>
  </g>
</svg>
