<svg id="responsive" xmlns="http://www.w3.org/2000/svg" width="50" height="50.5" viewBox="0 0 50 50.5">
  <path id="Path_44531" data-name="Path 44531" d="M49.023,34.521h-.977V2.959A2.948,2.948,0,0,0,45.117,0H4.883a2.948,2.948,0,0,0-2.93,2.959V34.521H.977A.982.982,0,0,0,0,35.507v2.959a2.948,2.948,0,0,0,2.93,2.959h23.7v6.116a2.948,2.948,0,0,0,2.93,2.959H41.211a2.948,2.948,0,0,0,2.93-2.959V41.425h2.93A2.948,2.948,0,0,0,50,38.466V35.507A.982.982,0,0,0,49.023,34.521Zm-4.883,0V32.548h1.954v1.973ZM4.883,1.973H45.117a.983.983,0,0,1,.977.986v.986H3.906V2.959A.982.982,0,0,1,4.883,1.973ZM3.906,32.548h.977a.986.986,0,0,0,0-1.973H3.906V5.918H46.094V30.576H44.14V23.869a2.948,2.948,0,0,0-2.93-2.959H29.556a2.886,2.886,0,0,0-1.262.289L24.1,16.965h1.548a.986.986,0,0,0,0-1.973H21.743a.981.981,0,0,0-.977.986v3.945a.977.977,0,1,0,1.953,0V18.36l4.193,4.235a2.965,2.965,0,0,0-.286,1.275v6.707H13.672a.986.986,0,0,0,0,1.973H26.626v2.959H20.117a.982.982,0,0,0-.977-.986H3.906Zm-.977,6.9a.982.982,0,0,1-.977-.986V36.494H18.426a1.951,1.951,0,0,0,1.691.986h6.509v1.973Zm39.257,8.088a.982.982,0,0,1-.977.986H29.556a.982.982,0,0,1-.977-.986V24.278L33.057,28.8H31.509a.986.986,0,0,0,0,1.973h3.906a.981.981,0,0,0,.977-.986V25.842a.977.977,0,1,0-1.953,0v1.564L29.96,22.883H41.211a.983.983,0,0,1,.977.986Zm5.86-9.075a.983.983,0,0,1-.977.986H44.14V36.494h3.907Zm0,0" fill="#17416d"/>
  <path id="Path_44532" data-name="Path 44532" d="M353.311,462h0a.986.986,0,1,0,.987.986A.986.986,0,0,0,353.31,462Zm0,0" transform="translate(-317.932 -416.432)" fill="#17416d"/>
  <path id="Path_44533" data-name="Path 44533" d="M377.99,81.977h5.424a.986.986,0,0,0,0-1.973H377.99a.986.986,0,0,0,0,1.973Zm0,0" transform="translate(-340.319 -72.113)" fill="#17416d"/>
  <path id="Path_44534" data-name="Path 44534" d="M332.987,81.977a.986.986,0,0,0,0-1.973h0a.986.986,0,1,0,0,1.973Zm0,0" transform="translate(-299.591 -72.113)" fill="#17416d"/>
  <path id="Path_44535" data-name="Path 44535" d="M85.987,310h0a.986.986,0,1,0,.987.986A.986.986,0,0,0,85.986,310Zm0,0" transform="translate(-76.703 -279.42)" fill="#17416d"/>
</svg>
