<svg xmlns="http://www.w3.org/2000/svg" width="58.163" height="50" viewBox="0 0 58.163 50">
  <g id="route_1_" data-name="route (1)" transform="translate(0 50) rotate(-90)">
    <path id="Path_44522" data-name="Path 44522" d="M49.987,23.026a1.161,1.161,0,0,1-.668,1.157l-20.553,9A1.133,1.133,0,0,1,27.315,31.7L30.2,24.272H15.389a11.325,11.325,0,0,1-6.683-2.178,12.019,12.019,0,0,1-3.978-4.977A4.9,4.9,0,0,1,0,12.136,4.9,4.9,0,0,1,4.727,7.154,12.026,12.026,0,0,1,8.7,2.181,11.327,11.327,0,0,1,15.389,0h3.282a1.147,1.147,0,0,1,0,2.288H15.389A9.191,9.191,0,0,0,9.962,4.057,9.74,9.74,0,0,0,6.931,7.672a5.067,5.067,0,0,1,0,8.927,9.742,9.742,0,0,0,3.036,3.618,9.19,9.19,0,0,0,5.422,1.766H30.2l-2.884-7.43a1.133,1.133,0,0,1,1.451-1.482l20.553,9a1.152,1.152,0,0,1,.669.952C50.029,23.515,49.951,22.61,49.987,23.026ZM4.8,9.441a2.7,2.7,0,0,0,0,5.389,2.7,2.7,0,0,0,0-5.389ZM43.441,24.272H32.575L30.35,30.006ZM30.35,16.25l2.225,5.734H43.441Zm0,0" transform="translate(0 24.89)" fill="#17416d"/>
    <path id="Path_44523" data-name="Path 44523" d="M39.671,20.991c-.071,0-.141,0-.21-.006a11.164,11.164,0,0,1-9.882,6.193H27.424a1.148,1.148,0,0,1,0-2.288h2.155A8.953,8.953,0,0,0,37.3,20.329a5.078,5.078,0,0,1,.4-8.86,8.979,8.979,0,0,0-8.121-5.342H9.428a4.832,4.832,0,0,1-4.65,3.839A4.889,4.889,0,0,1,0,4.983,4.89,4.89,0,0,1,4.778,0a4.832,4.832,0,0,1,4.65,3.839H29.579a11.2,11.2,0,0,1,10.334,7.192,4.9,4.9,0,0,1,4.537,4.977A4.89,4.89,0,0,1,39.671,20.991ZM4.778,2.289A2.644,2.644,0,0,0,2.194,4.983,2.644,2.644,0,0,0,4.778,7.678,2.644,2.644,0,0,0,7.362,4.983,2.644,2.644,0,0,0,4.778,2.289ZM39.671,13.313a2.7,2.7,0,1,0,2.584,2.695A2.644,2.644,0,0,0,39.671,13.313Zm0,0" fill="#17416d"/>
    <path id="Path_44524" data-name="Path 44524" d="M1.948.33a1.156,1.156,0,0,1,0,1.618,1.157,1.157,0,0,1-1.618,0A1.154,1.154,0,0,1,.3.366,1.155,1.155,0,0,1,1.948.33Zm0,0" transform="translate(21.968 24.896)" fill="#17416d"/>
  </g>
</svg>
