<svg xmlns="http://www.w3.org/2000/svg" width="79.296" height="79.194" viewBox="0 0 79.296 79.194">
  <g id="Solution" transform="translate(-2 -2.077)">
    <path id="Path_44619" data-name="Path 44619" d="M63,26.759,54.6,18.354a1.322,1.322,0,0,0-2.247.744,5.286,5.286,0,1,1-5.982-5.982,1.322,1.322,0,0,0,.744-2.247L38.706,2.464a1.322,1.322,0,0,0-1.869,0l-7.3,7.3a7.93,7.93,0,1,0-9.71,9.707l-7.291,7.291a1.322,1.322,0,0,0,0,1.869l7.294,7.3a7.93,7.93,0,0,0-.961,14.991l-3.086,8.9a6.608,6.608,0,0,0,.227,5.824L20.65,76.616a1.058,1.058,0,0,0,.059.123,4.035,4.035,0,0,1,.493,1.941v1.269a1.322,1.322,0,0,0,2.643,0V78.681a6.69,6.69,0,0,0-.793-3.151l-4.64-10.969a1.189,1.189,0,0,0-.063-.132,4.012,4.012,0,0,1-.116-3.626l3.233-9.3c.139,0,.275.02.415.02a7.915,7.915,0,0,0,7.653-5.871l2.241,2.232V61.447a1.322,1.322,0,1,0,2.643,0v-18.5a3.965,3.965,0,1,1,7.93,0V58.951A11.96,11.96,0,0,0,43.6,64.27l.484.97a9.286,9.286,0,0,1,0,8.273l-1.322,2.643a3.983,3.983,0,0,0-.418,1.774v2.019a1.322,1.322,0,0,0,2.643,0V77.93a1.347,1.347,0,0,1,.132-.591L46.445,74.7a11.942,11.942,0,0,0,0-10.638l-.484-.97a9.3,9.3,0,0,1-.908-3.033A9.223,9.223,0,0,0,51.6,62.769,3.965,3.965,0,0,0,55.564,58.8V51.271a7.922,7.922,0,0,0,.144-15.342L63,28.625a1.322,1.322,0,0,0,0-1.866ZM51.6,60.125a6.616,6.616,0,0,1-6.608-6.608V46.645L46,45.635a7.908,7.908,0,0,0,6.92,5.841V58.8A1.322,1.322,0,0,1,51.6,60.125Zm.189-24.009a1.322,1.322,0,0,0,1.126,2.247,5.286,5.286,0,1,1-4.493,4.493,1.322,1.322,0,0,0-2.247-1.126l-1.183,1.185a6.608,6.608,0,1,0-13.216.029v1.2L29.353,41.72a1.322,1.322,0,0,0-2.247,1.126,5.286,5.286,0,1,1-4.493-4.493,1.322,1.322,0,0,0,1.127-2.247l-8.4-8.412,8.411-8.405a1.322,1.322,0,0,0-1.126-2.247,5.286,5.286,0,0,1-4.478-8.966,5.419,5.419,0,0,1,7.475,0,5.286,5.286,0,0,1,1.491,4.478,1.322,1.322,0,0,0,2.247,1.126l8.417-8.408L43.7,11.195A7.93,7.93,0,1,0,54.271,21.767l5.923,5.922Z" transform="translate(3.264)" fill="#17416d"/>
    <path id="Path_44620" data-name="Path 44620" d="M63.251,23.643h-7.93a1.322,1.322,0,0,1,0-2.643h7.93a1.322,1.322,0,1,1,0,2.643Z" transform="translate(16.723 6.086)" fill="#17416d"/>
    <path id="Path_44621" data-name="Path 44621" d="M54.241,13.108a1.322,1.322,0,0,1-.661-2.466l6.872-3.965a1.322,1.322,0,1,1,1.322,2.289L54.9,12.931a1.311,1.311,0,0,1-.661.177Z" transform="translate(16.375 1.422)" fill="#17416d"/>
    <path id="Path_44622" data-name="Path 44622" d="M61.108,39.108a1.311,1.311,0,0,1-.661-.177l-6.872-3.965A1.322,1.322,0,1,1,54.9,32.677l6.872,3.965a1.322,1.322,0,0,1-.661,2.466Z" transform="translate(16.374 9.784)" fill="#17416d"/>
    <path id="Path_44623" data-name="Path 44623" d="M11.251,23.643H3.322a1.322,1.322,0,0,1,0-2.643h7.93a1.322,1.322,0,0,1,0,2.643Z" transform="translate(0 6.086)" fill="#17416d"/>
    <path id="Path_44624" data-name="Path 44624" d="M12.075,13.108a1.311,1.311,0,0,1-.661-.177L4.542,8.966A1.322,1.322,0,1,1,5.863,6.677l6.872,3.965a1.322,1.322,0,0,1-.661,2.466Z" transform="translate(0.605 1.422)" fill="#17416d"/>
    <path id="Path_44625" data-name="Path 44625" d="M5.208,39.108a1.322,1.322,0,0,1-.661-2.466l6.872-3.965a1.322,1.322,0,1,1,1.322,2.289L5.868,38.931a1.311,1.311,0,0,1-.661.177Z" transform="translate(0.607 9.784)" fill="#17416d"/>
  </g>
</svg>
