<svg xmlns="http://www.w3.org/2000/svg" width="55" height="55" viewBox="0 0 55 55">
  <g id="Group_41801" data-name="Group 41801" transform="translate(18998.572 21502.164)">
    <path id="Path_44492" data-name="Path 44492" d="M27.5,0A27.5,27.5,0,1,1,0,27.5,27.5,27.5,0,0,1,27.5,0Z" transform="translate(-18998.572 -21502.164)" fill="#eaeaea"/>
    <g id="surface1" transform="translate(-18985.572 -21491.164)">
      <path id="Path_44508" data-name="Path 44508" d="M27.183,77.365H25.77L24.88,64.433A.461.461,0,0,0,24.419,64H21.655a.461.461,0,0,0-.461.429L20.3,77.365h-.952V74.6a.461.461,0,0,0-.749-.36l-3.859,3.087V74.6a.461.461,0,0,0-.749-.36l-3.859,3.087V74.6a.461.461,0,0,0-.749-.36L5.529,77.328V74.6a.461.461,0,0,0-.7-.395L.223,76.97A.461.461,0,0,0,0,77.365V88.423a.461.461,0,0,0,.461.461H27.183a.461.461,0,0,0,.461-.461v-10.6A.461.461,0,0,0,27.183,77.365Zm-5.1-12.44h1.9l.858,12.44h-3.62Zm-6.42,23.037V82.433h2.764v5.529Zm11.058,0H19.351v-5.99a.461.461,0,0,0-.461-.461H15.2a.461.461,0,0,0-.461.461v5.99H.921V77.626l3.686-2.212v2.872a.461.461,0,0,0,.749.36L9.215,75.56v2.727a.461.461,0,0,0,.749.36l3.859-3.087v2.727a.461.461,0,0,0,.749.36l3.859-3.087v2.266a.461.461,0,0,0,.461.461h7.832v9.675Zm0,0" transform="translate(0 -61.239)" fill="#17416d"/>
      <path id="Path_44509" data-name="Path 44509" d="M352.416.92a1.711,1.711,0,0,1,.448.346,1.612,1.612,0,0,0,1.03.575,1.682,1.682,0,0,0,1.086-.6,2.159,2.159,0,0,1,.389-.322c.095,0,.343.237.477.362a1.543,1.543,0,0,0,1,.56A1.8,1.8,0,0,0,358,1.207c.113-.106.284-.267.317-.287.247,0,.3.082.456.3a1.165,1.165,0,0,0,1.018.62.461.461,0,0,0,0-.921c-.092,0-.11-.006-.26-.223a1.362,1.362,0,0,0-1.215-.7,1.479,1.479,0,0,0-.948.536c-.153.144-.41.385-.507.387a1.878,1.878,0,0,1-.388-.313A1.71,1.71,0,0,0,355.368,0a1.6,1.6,0,0,0-1.019.569,1.914,1.914,0,0,1-.443.352,1.793,1.793,0,0,1-.415-.327A1.671,1.671,0,0,0,352.419,0a.461.461,0,1,0,0,.922Zm0,0" transform="translate(-336.754 0.001)" fill="#17416d"/>
      <path id="Path_44510" data-name="Path 44510" d="M66.3,490.668H64.461a.461.461,0,0,0-.461.461v2.764a.461.461,0,0,0,.461.461H66.3a.461.461,0,0,0,.461-.461v-2.764A.461.461,0,0,0,66.3,490.668Zm-.461,2.764h-.921V491.59h.921Zm0,0" transform="translate(-61.236 -469.474)" fill="#17416d"/>
      <path id="Path_44511" data-name="Path 44511" d="M151.636,490.668h-1.843a.461.461,0,0,0-.461.461v2.764a.461.461,0,0,0,.461.461h1.843a.461.461,0,0,0,.461-.461v-2.764A.461.461,0,0,0,151.636,490.668Zm-.461,2.764h-.921V491.59h.921Zm0,0" transform="translate(-142.882 -469.474)" fill="#17416d"/>
      <path id="Path_44512" data-name="Path 44512" d="M236.968,490.668h-1.843a.461.461,0,0,0-.461.461v2.764a.461.461,0,0,0,.461.461h1.843a.461.461,0,0,0,.461-.461v-2.764A.461.461,0,0,0,236.968,490.668Zm-.461,2.764h-.921V491.59h.921Zm0,0" transform="translate(-224.528 -469.474)" fill="#17416d"/>
    </g>
  </g>
</svg>
