<svg xmlns="http://www.w3.org/2000/svg" width="26.189" height="17.834" viewBox="0 0 26.189 17.834">
  <g id="hand-shake" opacity="0.6">
    <g id="Group_40588" data-name="Group 40588" transform="translate(3.818 1.263)">
      <g id="Group_40587" data-name="Group 40587">
        <path id="Path_44513" data-name="Path 44513" d="M91.5,129.624c-.514-1.168-2.353-2.788-4.129-4.354-.991-.873-1.927-1.7-2.524-2.348a.514.514,0,0,0-.571-.139c-.368.145-.595.257-.774.344a1.693,1.693,0,0,1-.732.219.54.54,0,0,0-.4.26c-.772,1.257-1.57,1.15-2.1.955-.17-.062-.2-.142-.217-.218a4.073,4.073,0,0,1,1.206-2.549c1.773-1.933,2.688-2.417,4.619-1.477,2.191,1.068,4.387,1.9,4.409,1.912a.535.535,0,0,0,.7-.366.61.61,0,0,0-.336-.757c-.022-.008-2.174-.828-4.321-1.875-2.5-1.219-3.875-.416-5.836,1.722-.746.813-1.76,2.459-1.5,3.666a1.424,1.424,0,0,0,.937,1.071,2.617,2.617,0,0,0,3.2-1.2,2.6,2.6,0,0,0,.819-.283c.1-.05.223-.108.382-.178.624.638,1.467,1.382,2.354,2.163,1.6,1.414,3.423,3.016,3.832,3.944a.736.736,0,0,1-.163.893.565.565,0,0,1-.672.144.509.509,0,0,0-.589-.021.612.612,0,0,0-.263.574.717.717,0,0,1-.418.669.779.779,0,0,1-.85.021A.517.517,0,0,0,87,132.3a.589.589,0,0,0-.349.5,1.12,1.12,0,0,1-.644.911.539.539,0,0,1-.626-.106.52.52,0,0,0-.5-.138.564.564,0,0,0-.383.375c-.021.059-.068.2-.578.2a2.973,2.973,0,0,1-1.337-.5c-.383-.275-2.785-2.227-4.859-4.12-.291-.268-.8-.841-1.241-1.347-.4-.449-.756-.857-.942-1.028a.513.513,0,0,0-.769.07.633.633,0,0,0,.064.838c.169.156.5.533.858.943.487.554.99,1.127,1.328,1.436,2.032,1.854,4.474,3.855,4.961,4.2a3.959,3.959,0,0,0,1.937.692,1.773,1.773,0,0,0,1.239-.4,1.569,1.569,0,0,0,1.241-.014,2.233,2.233,0,0,0,1.136-1.143,2.034,2.034,0,0,0,2.281-1.252,1.7,1.7,0,0,0,1.252-.489A2.007,2.007,0,0,0,91.5,129.624Z" transform="translate(-74.642 -118.658)" fill="#6e6e6e"/>
      </g>
    </g>
    <g id="Group_40590" data-name="Group 40590" transform="translate(5.456 2.378)">
      <g id="Group_40589" data-name="Group 40589">
        <path id="Path_44514" data-name="Path 44514" d="M112.122,138.663h-4.911a.6.6,0,0,0,0,1.189h4.911a.6.6,0,0,0,0-1.189Z" transform="translate(-106.666 -138.663)" fill="#6e6e6e"/>
      </g>
    </g>
    <g id="Group_40592" data-name="Group 40592" transform="translate(19.684 10.699)">
      <g id="Group_40591" data-name="Group 40591">
        <path id="Path_44515" data-name="Path 44515" d="M387.4,288.241a.517.517,0,0,0-.757-.162l-1.6,1.168a.629.629,0,0,0-.148.825.537.537,0,0,0,.454.263.51.51,0,0,0,.3-.1l1.6-1.168A.629.629,0,0,0,387.4,288.241Z" transform="translate(-384.811 -287.977)" fill="#6e6e6e"/>
      </g>
    </g>
    <g id="Group_40594" data-name="Group 40594" transform="translate(14.732 10.105)">
      <g id="Group_40593" data-name="Group 40593">
        <path id="Path_44516" data-name="Path 44516" d="M292.173,281.012c-.391-.335-2.138-2.284-3.218-3.511a.513.513,0,0,0-.772-.018.632.632,0,0,0-.016.841c.28.319,2.754,3.128,3.329,3.623a.515.515,0,0,0,.337.127.536.536,0,0,0,.43-.227A.631.631,0,0,0,292.173,281.012Z" transform="translate(-288.016 -277.317)" fill="#6e6e6e"/>
      </g>
    </g>
    <g id="Group_40596" data-name="Group 40596" transform="translate(13.095 11.89)">
      <g id="Group_40595" data-name="Group 40595">
        <path id="Path_44517" data-name="Path 44517" d="M259.62,312.44c-.654-.57-2.3-2.471-2.667-2.911a.516.516,0,0,0-.772-.036.634.634,0,0,0-.033.841c.02.023,1.98,2.328,2.789,3.034a.52.52,0,0,0,.34.13.535.535,0,0,0,.427-.222A.633.633,0,0,0,259.62,312.44Z" transform="translate(-256.005 -309.337)" fill="#6e6e6e"/>
      </g>
    </g>
    <g id="Group_40598" data-name="Group 40598" transform="translate(10.913 13.077)">
      <g id="Group_40597" data-name="Group 40597">
        <path id="Path_44518" data-name="Path 44518" d="M216.969,333.756c-.778-.715-2.37-2.561-2.681-2.924a.514.514,0,0,0-.772-.029.633.633,0,0,0-.026.841c.447.522,1.971,2.282,2.775,3.021a.518.518,0,0,0,.351.14.53.53,0,0,0,.418-.212A.633.633,0,0,0,216.969,333.756Z" transform="translate(-213.343 -330.644)" fill="#6e6e6e"/>
      </g>
    </g>
    <g id="Group_40600" data-name="Group 40600" transform="translate(0 0)">
      <g id="Group_40599" data-name="Group 40599">
        <path id="Path_44519" data-name="Path 44519" d="M6.377,97.355C5.442,96.39,1.7,96.077.578,96a.517.517,0,0,0-.407.161A.621.621,0,0,0,0,96.6v10.7a.572.572,0,0,0,.546.594H3.819a.552.552,0,0,0,.518-.41,66.916,66.916,0,0,0,2.208-9.645A.621.621,0,0,0,6.377,97.355ZM3.421,106.7H1.091V97.235a15.37,15.37,0,0,1,4.333.843A66.971,66.971,0,0,1,3.421,106.7Z" transform="translate(0 -96.003)" fill="#6e6e6e"/>
      </g>
    </g>
    <g id="Group_40602" data-name="Group 40602" transform="translate(18.57 1.189)">
      <g id="Group_40601" data-name="Group 40601">
        <path id="Path_44520" data-name="Path 44520" d="M370.12,117.33a15.825,15.825,0,0,0-6.76,1.245.58.58,0,0,0-.291.37.646.646,0,0,0,.06.483,83.657,83.657,0,0,1,3.192,9.356.555.555,0,0,0,.526.436h3.274a.572.572,0,0,0,.546-.594v-10.7A.571.571,0,0,0,370.12,117.33Zm-.546,10.7h-2.32c-.517-1.836-2.045-6.622-2.9-8.6a16.457,16.457,0,0,1,5.217-.9Z" transform="translate(-363.046 -117.33)" fill="#6e6e6e"/>
      </g>
    </g>
  </g>
</svg>
