<svg xmlns="http://www.w3.org/2000/svg" width="55" height="55" viewBox="0 0 55 55">
  <g id="Group_41800" data-name="Group 41800" transform="translate(18998.572 21577.164)">
    <path id="Path_44492" data-name="Path 44492" d="M27.5,0A27.5,27.5,0,1,1,0,27.5,27.5,27.5,0,0,1,27.5,0Z" transform="translate(-18998.572 -21577.164)" fill="#ceeaff"/>
    <path id="shopping-cart" d="M25.9,20.365h1.727a1.087,1.087,0,1,0,0-2.174H18.49a.421.421,0,0,0,0,.841h9.141a.246.246,0,1,1,0,.491H12.7A1.227,1.227,0,0,1,11.686,17.6l.61-.891.648-.077-.853,1.246a.736.736,0,0,0,.608,1.152h4.109a.421.421,0,1,0,0-.841H12.9l.979-1.429a1.086,1.086,0,0,0,.129-.254l9.531-1.138,1.811-.216a2.718,2.718,0,0,0,2.393-2.7V10.908a.421.421,0,0,0-.841,0v.2l-5.115.338-.211-2.478L26.9,8.94v.279a.421.421,0,0,0,.841,0v-.7s0,0,0-.005,0,0,0,0V6.2a1.133,1.133,0,0,0-1.073-1.132L14.422,4.423h-.015L8.318,4.1l-.095-.426A1.732,1.732,0,0,0,6.843,2.343L5.488,2.1l.063-.355a.5.5,0,0,0-.4-.576L1.5.52a1.276,1.276,0,1,0-.443,2.514l3.65.644a.508.508,0,0,0,.087.008.5.5,0,0,0,.49-.411l.062-.351,1.349.247a.892.892,0,0,1,.711.685L9.745,14.415h0l.36,1.624a1.026,1.026,0,0,0,1,.807c.026,0,.052,0,.078,0l-.195.284A2.069,2.069,0,0,0,12.7,20.365h.473v.22a2.476,2.476,0,1,0,2.266.789.421.421,0,1,0-.627.561,1.635,1.635,0,1,1-1.639-.49v.474a1.184,1.184,0,1,0,.841,0V20.365h11.05v.22a2.475,2.475,0,1,0,2.266.789.421.421,0,0,0-.627.561,1.635,1.635,0,1,1-1.639-.49v.474a1.184,1.184,0,1,0,.841,0V20.365ZM1.2,2.205a.435.435,0,0,1,.074-.864.429.429,0,0,1,.076.007l3.311.584-.151.857ZM16.475,15.366l-.424-2.694,4.964-.328.209,2.455ZM26.9,11.955v.5a1.876,1.876,0,0,1-1.652,1.861L22.06,14.7l-.205-2.411Zm-5.955-.45-5.024.332-.445-2.829,5.255-.031ZM9.415,9.045l5.209-.031.453,2.88-4.957.328Zm11.025-3.46.217,2.551-5.315.032L14.89,5.29ZM26.9,6.2V8.1l-5.4.032-.213-2.5,5.334.282A.292.292,0,0,1,26.9,6.2ZM14.031,5.245l.461,2.928L9.229,8.2,8.508,4.952Zm-3.1,10.612L10.3,13.052l4.9-.324.431,2.738-2.039.243h0l-1.59.19h0l-.871.1A.188.188,0,0,1,10.927,15.857Zm2.665,7.51a.343.343,0,1,1,.343-.343A.343.343,0,0,1,13.592,23.367Zm11.892,0a.343.343,0,1,1,.343-.343A.344.344,0,0,1,25.483,23.367Zm0,0" transform="translate(-18988.57 -21562.664)" fill="#17416d"/>
  </g>
</svg>
