<svg xmlns="http://www.w3.org/2000/svg" width="55" height="55" viewBox="0 0 55 55">
  <g id="Group_41802" data-name="Group 41802" transform="translate(18998.572 21274.164)">
    <path id="Path_44492" data-name="Path 44492" d="M27.5,0A27.5,27.5,0,1,1,0,27.5,27.5,27.5,0,0,1,27.5,0Z" transform="translate(-18998.572 -21274.164)" fill="#ceeaff"/>
    <g id="brickwall" transform="translate(-18984.572 -21262.164)">
      <path id="Path_44499" data-name="Path 44499" d="M.45,27.5h21.6a.45.45,0,0,0,.45-.45V23h3.15a.45.45,0,0,0,.45-.45v-4.5a.45.45,0,0,0-.45-.45H22.5v-4.05a.45.45,0,0,0-.45-.45h-.826a1.041,1.041,0,0,0-.184-.843L19.007,9.546l.939-.7a1.556,1.556,0,0,0,.621-1.333l-.045-.81a.658.658,0,0,1,.262-.563l.939-.7.4.527a.45.45,0,0,0,.3.176.437.437,0,0,0,.064,0,.448.448,0,0,0,.27-.09l3.713-2.785a1.35,1.35,0,0,0,.27-1.89l-.25-.334A1.352,1.352,0,0,0,24.59.769L20.878,3.554a.45.45,0,0,0-.09.63l.395.527-.939.7a1.555,1.555,0,0,0-.621,1.333l.045.81a.657.657,0,0,1-.262.563l-.939.7L16.434,6.116a1.044,1.044,0,0,0-.916-.421,1,1,0,0,0-.807.524l-3.7,6.881H.45a.45.45,0,0,0-.45.45v4.5a.45.45,0,0,0,.45.45H3.6v3.6H.45a.45.45,0,0,0-.45.45v4.5A.45.45,0,0,0,.45,27.5ZM25.131,1.489a.45.45,0,0,1,.63.09l.25.334a.45.45,0,0,1-.09.63L22.568,5.057,21.778,4ZM8.1,23h6.3v3.6H8.1Zm3.6-4.5H18v3.6H11.7Zm9.9,8.1H15.3V23h6.3Zm3.6-4.5H18.9V18.5h6.3Zm-3.6-4.5H15.3V14.979L19.906,14H21.6ZM15.5,6.645a.094.094,0,0,1,.082-.053h.009a.148.148,0,0,1,.119.064l2.033,2.711-1.856,1.393a.45.45,0,0,0,.54.72l1.856-1.393L20.321,12.8a.145.145,0,0,1,.025.141.094.094,0,0,1-.074.064l-8.928,1.9a.146.146,0,0,1-.143-.061.143.143,0,0,1-.019-.154Zm-5.022,8.734a1.03,1.03,0,0,0,1.05.4l2.869-.61V17.6H8.1V14h2.429l-.139.26A1.034,1.034,0,0,0,10.481,15.379ZM.9,15.8h.9a.45.45,0,1,0,0-.9H.9V14H7.2v3.6H.9Zm3.6,2.7h6.3v3.6H4.5ZM.9,23H7.2v3.6H.9Zm0,0" transform="translate(0 -0.499)" fill="#17416d"/>
      <path id="Path_44500" data-name="Path 44500" d="M62.434,274.009a.45.45,0,0,0-.45-.45h-1.8a.45.45,0,0,0,0,.9h1.8A.45.45,0,0,0,62.434,274.009Zm0,0" transform="translate(-56.584 -259.159)" fill="#17416d"/>
    </g>
  </g>
</svg>
