<svg xmlns="http://www.w3.org/2000/svg" width="77.182" height="71.01" viewBox="0 0 77.182 71.01">
  <g id="supermarket" transform="translate(0.001 -0.5)">
    <path id="Path_44641" data-name="Path 44641" d="M215.5,428.82h-6.229a1.13,1.13,0,1,0,0,2.261H215.5a1.13,1.13,0,1,0,0-2.261Zm0,0" transform="translate(-176.768 -363.752)" fill="#17416d"/>
    <path id="Path_44642" data-name="Path 44642" d="M280.3,428.82h-1.708a1.13,1.13,0,1,0,0,2.261H280.3a1.13,1.13,0,0,0,0-2.261Zm0,0" transform="translate(-235.635 -363.752)" fill="#17416d"/>
    <path id="Path_44643" data-name="Path 44643" d="M77.168,27.955c0-7.737.076-7.441-.128-7.832L69.866,5.744A9.419,9.419,0,0,0,61.39.5H52.5a1.13,1.13,0,0,0,0,2.261H61.39a7.172,7.172,0,0,1,6.454,3.993L74.21,19.515H2.961L9.328,6.753a7.173,7.173,0,0,1,6.454-3.992h32.5a1.13,1.13,0,1,0,0-2.261h-32.5A9.419,9.419,0,0,0,7.3,5.744C-.336,21.123.013,20.173,0,20.622c-.009.419,0-1.712,0,7.333a6.489,6.489,0,0,0,5.953,6.459V60.886H2.311A2.31,2.31,0,0,0,0,63.193a8.327,8.327,0,0,0,8.318,8.318H68.85a8.327,8.327,0,0,0,8.318-8.318,2.31,2.31,0,0,0-2.307-2.307H71.215V34.414A6.489,6.489,0,0,0,77.168,27.955Zm-2.261-6.179v6.179a4.22,4.22,0,1,1-8.439,0V21.775Zm-10.7,6.179a4.22,4.22,0,0,1-8.44,0V21.775h8.44Zm-10.7,0a4.22,4.22,0,0,1-8.44,0V21.775h8.44Zm-10.7,0a4.22,4.22,0,0,1-8.44,0V21.775h8.44Zm-10.7,0a4.22,4.22,0,0,1-8.44,0V21.775h8.44Zm-10.7,0a4.22,4.22,0,0,1-8.44,0V21.775H21.4Zm-19.14,0V21.775H10.7c0,6.352.008,6.192-.008,6.447a4.22,4.22,0,0,1-8.431-.267ZM74.907,63.193a6.063,6.063,0,0,1-6.056,6.057H8.321a6.064,6.064,0,0,1-6.057-6.057c0-.092-3.238-.025,72.6-.047A.046.046,0,0,1,74.907,63.193ZM8.217,60.886V34.2a6.452,6.452,0,0,0,3.014-1.831V57.2a1.131,1.131,0,0,0,1.131,1.131H51.246a1.131,1.131,0,0,0,0-2.261H13.492V33.278a6.477,6.477,0,0,0,9.043-1.67,6.49,6.49,0,0,0,10.7,0,6.487,6.487,0,0,0,10.7,0,6.484,6.484,0,0,0,10.7,0,6.49,6.49,0,0,0,9.043,1.67V56.07H55.465a1.13,1.13,0,1,0,0,2.261h9.344A1.131,1.131,0,0,0,65.94,57.2V32.37A6.452,6.452,0,0,0,68.954,34.2V60.886Zm0,0" transform="translate(0)" fill="#17416d"/>
  </g>
</svg>
