<svg id="target-audience" xmlns="http://www.w3.org/2000/svg" width="56.319" height="56.319" viewBox="0 0 56.319 56.319">
  <path id="Path_44723" data-name="Path 44723" d="M48.072,8.248A28.184,28.184,0,0,0,16.293,2.615a.825.825,0,1,0,.7,1.5,26.546,26.546,0,1,1-3.266,1.811.825.825,0,0,0-.9-1.383A28.162,28.162,0,1,0,48.072,8.248Z" fill="#17416d"/>
  <path id="Path_44724" data-name="Path 44724" d="M86.675,66.5h3.168a.83.83,0,0,0,.823-.885A23.379,23.379,0,0,0,69.05,44.023a.83.83,0,0,0-.884.823v4.19a.839.839,0,0,1-1.678,0V44.85a.83.83,0,0,0-.886-.823A23.379,23.379,0,0,0,44.042,65.614a.83.83,0,0,0,.823.885h3.059a.839.839,0,1,1,0,1.677H44.865a.83.83,0,0,0-.823.885A23.379,23.379,0,0,0,65.6,90.648a.83.83,0,0,0,.886-.823V86.74a.839.839,0,0,1,1.677,0v3.089a.83.83,0,0,0,.884.823A23.325,23.325,0,0,0,80.457,86.7a.825.825,0,1,0-.926-1.366,21.674,21.674,0,0,1-9.716,3.592V86.74a2.489,2.489,0,0,0-4.977,0v2.178A21.844,21.844,0,0,1,45.771,69.826h2.153a2.489,2.489,0,1,0,0-4.977H45.771A21.844,21.844,0,0,1,64.836,45.758v3.279a2.489,2.489,0,0,0,4.978,0V45.751a21.833,21.833,0,0,1,19.122,19.1H86.675a2.489,2.489,0,1,0,0,4.977h2.263A21.67,21.67,0,0,1,82.4,83.009a.825.825,0,1,0,1.143,1.19,23.312,23.312,0,0,0,7.123-15.137.83.83,0,0,0-.823-.885H86.675a.839.839,0,1,1,0-1.677Z" transform="translate(-39.195 -39.178)" fill="#17416d"/>
  <path id="Path_44725" data-name="Path 44725" d="M227.92,163.96a3.96,3.96,0,1,0-3.96,3.96A3.964,3.964,0,0,0,227.92,163.96Zm-6.27,0a2.31,2.31,0,1,1,2.31,2.31A2.313,2.313,0,0,1,221.65,163.96Z" transform="translate(-195.8 -142.4)" fill="#17416d"/>
  <path id="Path_44726" data-name="Path 44726" d="M314.04,160.52a3.52,3.52,0,1,0-3.52,3.52A3.524,3.524,0,0,0,314.04,160.52Zm-5.39,0a1.87,1.87,0,1,1,1.87,1.87A1.872,1.872,0,0,1,308.65,160.52Z" transform="translate(-273.23 -139.73)" fill="#17416d"/>
  <path id="Path_44727" data-name="Path 44727" d="M143.52,164.04a3.52,3.52,0,1,0-3.52-3.52A3.524,3.524,0,0,0,143.52,164.04Zm0-5.39a1.87,1.87,0,1,1-1.87,1.87A1.872,1.872,0,0,1,143.52,158.65Z" transform="translate(-124.6 -139.73)" fill="#17416d"/>
  <path id="Path_44728" data-name="Path 44728" d="M118.81,235.785a.825.825,0,0,0-1.574-.494,11.966,11.966,0,0,0-.277,3.574,2.736,2.736,0,0,0,2.769,2.695h5.592a3.038,3.038,0,0,0,3.033,2.97h7.79a3.038,3.038,0,0,0,3.033-2.97h5.482a2.736,2.736,0,0,0,2.769-2.695V237.1a6.1,6.1,0,0,0-6.076-6.1H141.3a6.036,6.036,0,0,0-4.915,2.569,6.866,6.866,0,0,0-4.107-1.359h-.055a6.866,6.866,0,0,0-4.178,1.413A6.02,6.02,0,0,0,123.089,231h-.055a6.013,6.013,0,0,0-3.021.818.825.825,0,1,0,.83,1.426,4.36,4.36,0,0,1,2.191-.594h.055a4.37,4.37,0,0,1,3.747,2.152,6.868,6.868,0,0,0-1.517,4.31v.8h-5.591a1.085,1.085,0,0,1-1.119-1.045,11.441,11.441,0,0,1,.2-3.08ZM141.3,232.65h.055a4.445,4.445,0,0,1,4.426,4.455v1.76a1.085,1.085,0,0,1-1.119,1.045h-5.481v-.8a6.871,6.871,0,0,0-1.579-4.389A4.381,4.381,0,0,1,141.3,232.65Zm-9.022,1.21a5.258,5.258,0,0,1,5.252,5.252v2.383a1.387,1.387,0,0,1-1.385,1.385h-7.79a1.387,1.387,0,0,1-1.385-1.385v-2.383a5.258,5.258,0,0,1,5.252-5.252Z" transform="translate(-104.089 -205.59)" fill="#17416d"/>
</svg>
