<svg xmlns="http://www.w3.org/2000/svg" width="84.499" height="84.498" viewBox="0 0 84.499 84.498">
  <g id="technology" transform="translate(-1 -1)">
    <path id="Path_44631" data-name="Path 44631" d="M24.756,20.768,22.81,18.86a28.833,28.833,0,0,0-3.492,4.323L11.667,18.4a4.033,4.033,0,0,0,.236-1.312,4.089,4.089,0,1,0-4.089,4.089,4.049,4.049,0,0,0,2.151-.627l7.966,4.979a28.419,28.419,0,0,0-3.237,12H8.926a4.089,4.089,0,1,0,0,2.727h5.768a28.43,28.43,0,0,0,3.237,12L9.965,57.239a4.041,4.041,0,0,0-2.151-.627A4.089,4.089,0,1,0,11.9,60.7a4.033,4.033,0,0,0-.236-1.312l7.651-4.782a28.833,28.833,0,0,0,3.492,4.323l1.946-1.908a25.9,25.9,0,0,1,0-36.252Zm-18.3-3.68a1.363,1.363,0,1,1,1.363,1.363A1.365,1.365,0,0,1,6.451,17.089ZM7.814,62.063A1.363,1.363,0,1,1,9.177,60.7,1.364,1.364,0,0,1,7.814,62.063ZM5.089,40.257a1.363,1.363,0,1,1,1.363-1.363A1.365,1.365,0,0,1,5.089,40.257Z" transform="translate(0 4.354)" fill="#17416d"/>
    <path id="Path_44632" data-name="Path 44632" d="M55.631,40.257H61.4a4.089,4.089,0,1,0,0-2.726H55.632a28.419,28.419,0,0,0-3.237-12l7.966-4.979a4.051,4.051,0,0,0,2.149.626,4.089,4.089,0,1,0-4.089-4.089,4.033,4.033,0,0,0,.236,1.312l-7.651,4.782a28.833,28.833,0,0,0-3.492-4.323l-1.946,1.908a25.9,25.9,0,0,1,0,36.252l1.946,1.908a28.833,28.833,0,0,0,3.492-4.323l7.651,4.782a4.033,4.033,0,0,0-.236,1.312,4.089,4.089,0,1,0,4.089-4.089,4.041,4.041,0,0,0-2.151.627L52.394,52.26A28.43,28.43,0,0,0,55.631,40.257Zm6.88-24.532a1.363,1.363,0,1,1-1.363,1.363A1.365,1.365,0,0,1,62.511,15.726Zm2.726,21.806a1.363,1.363,0,1,1-1.363,1.363A1.365,1.365,0,0,1,65.237,37.532ZM63.874,60.7a1.363,1.363,0,1,1-1.363-1.363A1.364,1.364,0,0,1,63.874,60.7Z" transform="translate(16.173 4.354)" fill="#17416d"/>
    <path id="Path_44633" data-name="Path 44633" d="M56.591,55.9l-2.127-2.734A18.843,18.843,0,0,0,56.7,47.757l3.443-.431a1.362,1.362,0,0,0,1.2-1.352V40.523a1.362,1.362,0,0,0-1.194-1.352L56.7,38.74a18.843,18.843,0,0,0-2.236-5.412l2.127-2.734a1.362,1.362,0,0,0-.112-1.8l-3.856-3.856a1.363,1.363,0,0,0-1.8-.112L48.09,26.954a18.843,18.843,0,0,0-5.412-2.236l-.431-3.443a1.364,1.364,0,0,0-1.353-1.2H39.532V1H36.806V20.08H35.443a1.362,1.362,0,0,0-1.352,1.194l-.431,3.443a18.843,18.843,0,0,0-5.412,2.236l-2.734-2.127a1.363,1.363,0,0,0-1.8.112l-3.856,3.856a1.362,1.362,0,0,0-.112,1.8l2.127,2.734a18.843,18.843,0,0,0-2.236,5.412L16.2,39.17A1.364,1.364,0,0,0,15,40.523v5.451a1.362,1.362,0,0,0,1.194,1.352l3.443.431a18.858,18.858,0,0,0,2.236,5.412L19.745,55.9a1.362,1.362,0,0,0,.112,1.8l3.856,3.854a1.362,1.362,0,0,0,1.8.112l2.734-2.126A18.835,18.835,0,0,0,33.66,61.78l.431,3.443a1.363,1.363,0,0,0,1.352,1.2h1.363V85.5h2.726V66.418h1.363a1.363,1.363,0,0,0,1.352-1.194l.431-3.443a18.835,18.835,0,0,0,5.413-2.236l2.734,2.126a1.362,1.362,0,0,0,1.8-.112L56.48,57.7A1.365,1.365,0,0,0,56.591,55.9ZM51.718,54.08,53.7,56.627,51.547,58.78,49,56.8a1.356,1.356,0,0,0-1.607-.049,16.152,16.152,0,0,1-6.2,2.561,1.364,1.364,0,0,0-1.1,1.171l-.4,3.211H36.646l-.4-3.21a1.363,1.363,0,0,0-1.1-1.171,16.122,16.122,0,0,1-6.2-2.561,1.363,1.363,0,0,0-1.607.049l-2.549,1.982-2.153-2.153,1.982-2.547a1.363,1.363,0,0,0,.049-1.607,16.19,16.19,0,0,1-2.562-6.2,1.363,1.363,0,0,0-1.171-1.1l-3.21-.4V41.727l3.21-.4a1.361,1.361,0,0,0,1.171-1.1,16.184,16.184,0,0,1,2.562-6.2,1.363,1.363,0,0,0-.049-1.607l-1.982-2.547,2.153-2.153L27.338,29.7a1.367,1.367,0,0,0,1.607.049,16.193,16.193,0,0,1,6.2-2.562,1.361,1.361,0,0,0,1.1-1.171l.4-3.211h3.045l.4,3.21a1.361,1.361,0,0,0,1.1,1.171,16.184,16.184,0,0,1,6.2,2.562A1.367,1.367,0,0,0,49,29.7l2.547-1.982L53.7,29.871l-1.982,2.547a1.363,1.363,0,0,0-.049,1.607,16.193,16.193,0,0,1,2.562,6.2,1.361,1.361,0,0,0,1.171,1.1l3.211.4v3.045l-3.21.4a1.363,1.363,0,0,0-1.171,1.1,16.2,16.2,0,0,1-2.562,6.2A1.363,1.363,0,0,0,51.718,54.08Z" transform="translate(5.08)" fill="#17416d"/>
    <path id="Path_44634" data-name="Path 44634" d="M35.629,22A13.629,13.629,0,1,0,49.257,35.629,13.644,13.644,0,0,0,35.629,22Zm0,24.532a10.9,10.9,0,1,1,10.9-10.9A10.916,10.916,0,0,1,35.629,46.532Z" transform="translate(7.62 7.62)" fill="#17416d"/>
    <path id="Path_44635" data-name="Path 44635" d="M37.726,54.039V49H35v5.451a1.37,1.37,0,0,0,.229.756l2.5,3.745v6.4h2.726V58.54a1.37,1.37,0,0,0-.229-.756Z" transform="translate(12.337 17.418)" fill="#17416d"/>
    <path id="Path_44636" data-name="Path 44636" d="M27.726,54.039l-2.5,3.745A1.37,1.37,0,0,0,25,58.54v6.814h2.726v-6.4l2.5-3.745a1.37,1.37,0,0,0,.229-.756V49H27.726Z" transform="translate(8.709 17.418)" fill="#17416d"/>
    <path id="Path_44637" data-name="Path 44637" d="M37.726,14.316l2.5-3.745a1.37,1.37,0,0,0,.229-.756V3H37.726V9.4l-2.5,3.745A1.37,1.37,0,0,0,35,13.9v5.451h2.726Z" transform="translate(12.337 0.726)" fill="#17416d"/>
    <path id="Path_44638" data-name="Path 44638" d="M27.726,14.316v5.039h2.726V13.9a1.37,1.37,0,0,0-.229-.756L27.726,9.4V3H25V9.814a1.37,1.37,0,0,0,.229.756Z" transform="translate(8.709 0.726)" fill="#17416d"/>
  </g>
</svg>
