<svg id="tech" xmlns="http://www.w3.org/2000/svg" width="62.734" height="62.734" viewBox="0 0 62.734 62.734">
  <path id="Path_44654" data-name="Path 44654" d="M28.139,23.12a1.28,1.28,0,0,1-.452-.081L2.855,13.891a1.306,1.306,0,0,1,0-2.452L19.848,5.191a1.307,1.307,0,0,1,.9,2.454L7.092,12.665,28.139,20.42l21.047-7.756L35.529,7.643a1.307,1.307,0,1,1,.9-2.454l16.991,6.247a1.308,1.308,0,0,1,0,2.454L28.592,23.039A1.28,1.28,0,0,1,28.139,23.12Z" transform="translate(3.228 8.247)" fill="#17416d"/>
  <path id="Path_44655" data-name="Path 44655" d="M21.376,28.763a1.255,1.255,0,0,1-.45-.081l-13.88-5.1a1.307,1.307,0,0,1,.9-2.454l13.428,4.932,13.43-4.932a1.307,1.307,0,0,1,.9,2.454l-13.88,5.1A1.28,1.28,0,0,1,21.376,28.763Z" transform="translate(9.991 33.972)" fill="#17416d"/>
  <path id="Path_44656" data-name="Path 44656" d="M3.307,34.319A1.307,1.307,0,0,1,2,33.012V8.807a1.307,1.307,0,1,1,2.614,0V33.012A1.307,1.307,0,0,1,3.307,34.319Z" transform="translate(3.228 12.104)" fill="#17416d"/>
  <path id="Path_44657" data-name="Path 44657" d="M22.307,34.319A1.307,1.307,0,0,1,21,33.012V8.807a1.307,1.307,0,0,1,2.614,0V33.012A1.307,1.307,0,0,1,22.307,34.319Z" transform="translate(33.893 12.104)" fill="#17416d"/>
  <path id="Path_44658" data-name="Path 44658" d="M12.807,16.07A1.307,1.307,0,0,1,11.5,14.763V4.307a1.307,1.307,0,1,1,2.614,0V14.763A1.307,1.307,0,0,1,12.807,16.07Z" transform="translate(18.56 4.842)" fill="#17416d"/>
  <path id="Path_44659" data-name="Path 44659" d="M25.685,26.991a1.313,1.313,0,0,1-.925-.382l-6.378-6.378a1.307,1.307,0,1,1,1.848-1.848l6.378,6.378a1.306,1.306,0,0,1-.923,2.23Z" transform="translate(29.05 29.052)" fill="#17416d"/>
  <path id="Path_44660" data-name="Path 44660" d="M3.867,26.991a1.306,1.306,0,0,1-.925-2.23L9.32,18.383a1.307,1.307,0,0,1,1.848,1.848L4.79,26.609a1.3,1.3,0,0,1-.923.382Z" transform="translate(4.131 29.052)" fill="#17416d"/>
  <path id="Path_44661" data-name="Path 44661" d="M12.807,44.981A1.307,1.307,0,0,1,11.5,43.674V12.307a1.307,1.307,0,0,1,2.614,0V43.674A1.307,1.307,0,0,1,12.807,44.981Z" transform="translate(18.56 17.753)" fill="#17416d"/>
  <path id="Path_44662" data-name="Path 44662" d="M15.228,10.456a5.228,5.228,0,1,1,5.228-5.228A5.233,5.233,0,0,1,15.228,10.456Zm0-7.842a2.614,2.614,0,1,0,2.614,2.614A2.618,2.618,0,0,0,15.228,2.614Z" transform="translate(16.139)" fill="#17416d"/>
  <path id="Path_44663" data-name="Path 44663" d="M25.228,30.456a5.228,5.228,0,1,1,5.228-5.228A5.233,5.233,0,0,1,25.228,30.456Zm0-7.842a2.614,2.614,0,1,0,2.614,2.614A2.618,2.618,0,0,0,25.228,22.614Z" transform="translate(32.279 32.279)" fill="#17416d"/>
  <path id="Path_44664" data-name="Path 44664" d="M5.228,30.456a5.228,5.228,0,1,1,5.228-5.228A5.233,5.233,0,0,1,5.228,30.456Zm0-7.842a2.614,2.614,0,1,0,2.614,2.614A2.618,2.618,0,0,0,5.228,22.614Z" transform="translate(0 32.279)" fill="#17416d"/>
</svg>
