<svg xmlns="http://www.w3.org/2000/svg" width="50" height="51.259" viewBox="0 0 50 51.259">
  <g id="thunder" transform="translate(0 0.128)">
    <path id="Path_44541" data-name="Path 44541" d="M130.611,64.485a.913.913,0,0,0,1.291,0l.646-.646.646.646a.913.913,0,1,0,1.291-1.291l-.646-.646.646-.646a.913.913,0,0,0-1.291-1.291l-.646.646-.646-.646a.913.913,0,0,0-1.291,1.291l.646.646-.646.646A.912.912,0,0,0,130.611,64.485Z" transform="translate(-109.82 -55.244)" fill="#17416d"/>
    <circle id="Ellipse_631" data-name="Ellipse 631" cx="1" cy="1" r="1" transform="translate(31.626 9.872)" fill="#17416d"/>
    <circle id="Ellipse_632" data-name="Ellipse 632" cx="1" cy="1" r="1" transform="translate(28.639 -0.128)" fill="#17416d"/>
    <path id="Path_44542" data-name="Path 44542" d="M132.783,136.955h-3.652V126.912a.913.913,0,0,0-1.673-.507l-7.3,10.957a.913.913,0,0,0,.76,1.42h3.652v10.044a.913.913,0,0,0,.649.874.9.9,0,0,0,.264.039.913.913,0,0,0,.76-.407l7.3-10.957a.913.913,0,0,0-.76-1.42Zm-6.391,8.854v-7.941a.913.913,0,0,0-.913-.913h-2.859l4.685-7.028v7.941a.913.913,0,0,0,.913.913h2.859Z" transform="translate(-101.848 -105.911)" fill="#17416d"/>
    <path id="Path_44543" data-name="Path 44543" d="M85.455,83.285H59.467L57.7,79.6a.9.9,0,0,0-.085-.142A4.178,4.178,0,0,0,54.24,77.75H44.111A4.089,4.089,0,0,0,40,81.807v31.011a4.263,4.263,0,0,0,3.753,4.2,3.647,3.647,0,0,0,3.52,2.795H83.636a3.64,3.64,0,0,0,3.573-3.025A4.25,4.25,0,0,0,90,112.818V87.851A4.561,4.561,0,0,0,85.455,83.285Zm2.727,29.533a2.46,2.46,0,0,1-2.49,2.424H53.809a.913.913,0,0,0,0,1.826H85.2a1.81,1.81,0,0,1-1.565.913H47.273a1.824,1.824,0,0,1-1.571-.913h3.412a.913.913,0,0,0,0-1.826H44.308a2.46,2.46,0,0,1-2.49-2.424V81.807a2.265,2.265,0,0,1,2.293-2.231H54.24a2.359,2.359,0,0,1,1.859.9l1.349,2.811H52.727a.913.913,0,0,0,0,1.826H85.455a2.736,2.736,0,0,1,2.727,2.739Z" transform="translate(-40 -68.676)" fill="#17416d"/>
  </g>
</svg>
