<svg xmlns="http://www.w3.org/2000/svg" width="60.749" height="44.375" viewBox="0 0 60.749 44.375">
  <g id="tool-box" transform="translate(0 -69)">
    <g id="Group_40831" data-name="Group 40831" transform="translate(0 69)">
      <path id="Path_44665" data-name="Path 44665" d="M106.548,198.74h2.9a1.335,1.335,0,0,0,.947-2.275l-2.722-2.742a1.343,1.343,0,0,0-.947-.394H101.8a1.341,1.341,0,0,0-1.071.538l-2.34,3.144a2.06,2.06,0,0,0-.36.807H78.359a2.061,2.061,0,0,0-.36-.807l-2.34-3.144a1.34,1.34,0,0,0-1.071-.538H69.659a1.344,1.344,0,0,0-.947.394l-2.722,2.742a1.335,1.335,0,0,0,.947,2.275h2.9a1.867,1.867,0,0,1,0,3.733h-2.9a1.335,1.335,0,0,0-.947,2.276l2.721,2.74a1.344,1.344,0,0,0,.947.394h4.928a1.341,1.341,0,0,0,1.071-.538L78,204.2a2.06,2.06,0,0,0,.361-.809H98.025a2.059,2.059,0,0,0,.361.809l2.34,3.143a1.34,1.34,0,0,0,1.07.537h4.928a1.343,1.343,0,0,0,.947-.394l2.722-2.74a1.335,1.335,0,0,0-.947-2.276h-2.9a1.867,1.867,0,1,1,0-3.733Zm-29.924,4.239a.272.272,0,0,1-.054.161L74.364,206.1h-4.52l-1.838-1.85h1.831a3.646,3.646,0,1,0,0-7.293H68.005l1.839-1.852h4.52l2.207,2.965a.272.272,0,0,1,.053.161v4.744ZM78.4,199.6H97.981v2.017H78.4Zm28.144,4.656h1.831l-1.838,1.85h-4.52l-2.207-2.963a.272.272,0,0,1-.053-.161v-4.744a.272.272,0,0,1,.054-.161l2.207-2.965h4.52l1.839,1.852h-1.831a3.646,3.646,0,1,0,0,7.293Z" transform="translate(-57.818 -178.577)" fill="#17416d"/>
      <path id="Path_44666" data-name="Path 44666" d="M332.243,69H328.62a.89.89,0,0,0,0,1.78h3.624a2.2,2.2,0,0,1,2.2,2.2V76.5h-1.461a2.7,2.7,0,0,0-2.692,2.692v2.566a2.7,2.7,0,0,0,2.692,2.692h1.461v1.923h-1.461a2.7,2.7,0,0,0-2.692,2.692v2.566a2.7,2.7,0,0,0,2.692,2.692h1.461v1.923h-1.461a2.7,2.7,0,0,0-2.692,2.692V101.5a2.7,2.7,0,0,0,2.692,2.692h1.461v3.43a2.2,2.2,0,0,1-2.2,2.2h-4.949v-.106a1.676,1.676,0,0,0-1.674-1.674h-6.5a1.675,1.675,0,0,0-1.673,1.674v.106h-4a.89.89,0,0,0,0,1.78h4v.106a1.675,1.675,0,0,0,1.673,1.674h6.5a1.676,1.676,0,0,0,1.674-1.674V111.6h4.949a3.979,3.979,0,0,0,3.975-3.975V72.975A3.979,3.979,0,0,0,332.243,69Zm-6.729,42.6h-6.288v-.883s0,0,0-.007,0,0,0-.007v-.883h6.288Zm7.463-28.929a.913.913,0,0,1-.912-.912V79.188a.913.913,0,0,1,.912-.912h1.461v4.39Zm0,9.872a.913.913,0,0,1-.912-.912V89.06a.913.913,0,0,1,.912-.912h1.461v4.39Zm0,9.872a.913.913,0,0,1-.912-.912V98.933a.913.913,0,0,1,.912-.912h1.461v4.39Z" transform="translate(-275.469 -69)" fill="#17416d"/>
      <path id="Path_44667" data-name="Path 44667" d="M34.2,109.816H18.772v-.106a1.676,1.676,0,0,0-1.674-1.674H10.6a1.676,1.676,0,0,0-1.674,1.674v.106H3.975a2.2,2.2,0,0,1-2.2-2.2v-3.43H3.241A2.7,2.7,0,0,0,5.932,101.5V98.933a2.7,2.7,0,0,0-2.692-2.692H1.78V94.318H3.241a2.7,2.7,0,0,0,2.692-2.692V89.06a2.7,2.7,0,0,0-2.692-2.692H1.78V84.445H3.241a2.7,2.7,0,0,0,2.692-2.692V79.188A2.7,2.7,0,0,0,3.241,76.5H1.78V72.975a2.2,2.2,0,0,1,2.2-2.2H49.343a.89.89,0,1,0,0-1.78H3.975A3.979,3.979,0,0,0,0,72.975V107.62A3.979,3.979,0,0,0,3.975,111.6H8.924v.106a1.676,1.676,0,0,0,1.674,1.674h6.5a1.676,1.676,0,0,0,1.674-1.674V111.6H34.2a.89.89,0,1,0,0-1.78ZM3.241,98.021a.913.913,0,0,1,.912.912V101.5a.913.913,0,0,1-.912.912H1.78v-4.39Zm0-9.872a.913.913,0,0,1,.912.912v2.566a.913.913,0,0,1-.912.912H1.78v-4.39Zm0-9.873a.913.913,0,0,1,.912.912v2.566a.913.913,0,0,1-.912.912H1.78v-4.39ZM10.7,111.6v-1.78h6.288v.883s0,0,0,.007,0,0,0,.007v.883Z" transform="translate(0 -69)" fill="#17416d"/>
      <path id="Path_44668" data-name="Path 44668" d="M174.56,103.746H161.849a.89.89,0,1,0,0,1.78H174.56a3.263,3.263,0,0,0,0-6.526h-17.8a3.263,3.263,0,1,0,0,6.526h1.278a.89.89,0,1,0,0-1.78h-1.278a1.483,1.483,0,0,1,0-2.966h17.8a1.483,1.483,0,0,1,0,2.966Z" transform="translate(-135.287 -95.441)" fill="#17416d"/>
    </g>
  </g>
</svg>
