<svg id="vision_1_" data-name="vision (1)" xmlns="http://www.w3.org/2000/svg" width="59.207" height="59.207" viewBox="0 0 59.207 59.207">
  <path id="Path_44580" data-name="Path 44580" d="M215.334,218.169a2.834,2.834,0,1,0-2.834-2.834A2.838,2.838,0,0,0,215.334,218.169Zm0-3.779a.945.945,0,1,1-.945.945A.946.946,0,0,1,215.334,214.39Z" transform="translate(-185.731 -185.731)" fill="#17416d"/>
  <path id="Path_44581" data-name="Path 44581" d="M59.207,29.6A18.555,18.555,0,0,0,47.013,12.195a18.524,18.524,0,0,0-34.818,0,18.524,18.524,0,0,0,0,34.818,18.524,18.524,0,0,0,34.818,0A18.555,18.555,0,0,0,59.207,29.6ZM29.6,1.89a16.655,16.655,0,0,1,15.084,9.628A18.518,18.518,0,0,0,29.6,14.765,18.518,18.518,0,0,0,14.52,11.518,16.654,16.654,0,0,1,29.6,1.89ZM46.237,18.523a16.541,16.541,0,0,1-3.047,9.585,18.492,18.492,0,0,0-27.172,0,16.616,16.616,0,0,1-2.33-14.421A16.625,16.625,0,0,1,28.1,16.011a18.551,18.551,0,0,0-2.647,3.043.945.945,0,1,0,1.552,1.077A16.661,16.661,0,0,1,29.6,17.2,16.654,16.654,0,0,1,32.2,20.132a.945.945,0,0,0,1.553-1.077A18.545,18.545,0,0,0,31.1,16.011a16.626,16.626,0,0,1,14.416-2.323A16.58,16.58,0,0,1,46.237,18.523Zm-.718,27A16.626,16.626,0,0,1,31.1,43.2a18.548,18.548,0,0,0,2.647-3.044A.945.945,0,1,0,32.2,39.075a16.657,16.657,0,0,1-2.594,2.93,16.654,16.654,0,0,1-2.594-2.93.945.945,0,0,0-1.552,1.077A18.549,18.549,0,0,0,28.1,43.2a16.625,16.625,0,0,1-14.416,2.323A16.616,16.616,0,0,1,16.017,31.1a18.492,18.492,0,0,0,27.172,0,16.617,16.617,0,0,1,2.33,14.421ZM35.156,29.6A5.553,5.553,0,1,1,29.6,24.051,5.559,5.559,0,0,1,35.156,29.6ZM23.639,34.05A16.7,16.7,0,0,1,17.21,29.6a16.7,16.7,0,0,1,6.429-4.446,7.428,7.428,0,0,0,0,8.892Zm11.93,0a7.428,7.428,0,0,0,0-8.892A16.7,16.7,0,0,1,42,29.6,16.7,16.7,0,0,1,35.568,34.05ZM1.89,29.6A16.655,16.655,0,0,1,11.518,14.52,18.5,18.5,0,0,0,14.769,29.6a18.5,18.5,0,0,0-3.252,15.084A16.655,16.655,0,0,1,1.89,29.6ZM29.6,57.317A16.655,16.655,0,0,1,14.52,47.689,18.519,18.519,0,0,0,29.6,44.442a18.519,18.519,0,0,0,15.084,3.247A16.655,16.655,0,0,1,29.6,57.317ZM47.69,44.687A18.5,18.5,0,0,0,44.438,29.6,18.5,18.5,0,0,0,47.69,14.52a16.63,16.63,0,0,1,0,30.168Z" fill="#17416d"/>
</svg>
