<svg id="linkedin" xmlns="http://www.w3.org/2000/svg" width="32.59" height="31.151" viewBox="0 0 32.59 31.151">
  <path id="Path_44487" data-name="Path 44487" d="M3.952-.668A3.641,3.641,0,1,0,3.86,6.595h.045A3.643,3.643,0,1,0,3.952-.668Zm0,0" transform="translate(0 0.668)"/>
  <path id="Path_44488" data-name="Path 44488" d="M8.109,198.313H15.1v21.018H8.109Zm0,0" transform="translate(-7.696 -188.18)"/>
  <path id="Path_44489" data-name="Path 44489" d="M234.5,188.625c-3.769,0-6.3,3.541-6.3,3.541v-3.048h-6.986v21.018H228.2V198.4a4.788,4.788,0,0,1,.23-1.705,3.824,3.824,0,0,1,3.584-2.555c2.528,0,3.539,1.927,3.539,4.753v11.244h6.986V198.085C242.54,191.629,239.093,188.625,234.5,188.625Zm0,0" transform="translate(-209.95 -178.986)"/>
</svg>
