<svg id="twitter" xmlns="http://www.w3.org/2000/svg" width="29.313" height="23.816" viewBox="0 0 29.313 23.816">
  <g id="Group_40519" data-name="Group 40519" transform="translate(0 0)">
    <path id="Path_44490" data-name="Path 44490" d="M29.312,50.819a12.529,12.529,0,0,1-3.463.949,5.976,5.976,0,0,0,2.644-3.321A12.009,12.009,0,0,1,24.683,49.9a6.009,6.009,0,0,0-10.395,4.109,6.188,6.188,0,0,0,.139,1.37A17.009,17.009,0,0,1,2.041,49.1a6.011,6.011,0,0,0,1.847,8.032,5.935,5.935,0,0,1-2.715-.74v.066a6.037,6.037,0,0,0,4.815,5.9,6,6,0,0,1-1.576.2,5.314,5.314,0,0,1-1.138-.1,6.067,6.067,0,0,0,5.615,4.186A12.075,12.075,0,0,1,1.438,69.2,11.256,11.256,0,0,1,0,69.12a16.918,16.918,0,0,0,9.219,2.7c11.058,0,17.1-9.16,17.1-17.1,0-.266-.009-.522-.022-.777A11.988,11.988,0,0,0,29.312,50.819Z" transform="translate(0 -48)"/>
  </g>
</svg>
