<svg xmlns="http://www.w3.org/2000/svg" xmlns:xlink="http://www.w3.org/1999/xlink" width="1577" height="503" viewBox="0 0 1577 503">
  <defs>
    <clipPath id="clip-path">
      <rect width="1577" height="503" fill="none"/>
    </clipPath>
  </defs>
  <g id="Repeat_Grid_7" data-name="Repeat Grid 7" clip-path="url(#clip-path)">
    <g transform="translate(-393 -2660)">
      <circle id="Ellipse_616" data-name="Ellipse 616" cx="6" cy="6" r="6" transform="translate(393 2660)" fill="#d6e7f4"/>
    </g>
    <g transform="translate(-328 -2660)">
      <circle id="Ellipse_616-2" data-name="Ellipse 616" cx="6" cy="6" r="6" transform="translate(393 2660)" fill="#d6e7f4"/>
    </g>
    <g transform="translate(-263 -2660)">
      <circle id="Ellipse_616-3" data-name="Ellipse 616" cx="6" cy="6" r="6" transform="translate(393 2660)" fill="#d6e7f4"/>
    </g>
    <g transform="translate(-198 -2660)">
      <circle id="Ellipse_616-4" data-name="Ellipse 616" cx="6" cy="6" r="6" transform="translate(393 2660)" fill="#d6e7f4"/>
    </g>
    <g transform="translate(-133 -2660)">
      <circle id="Ellipse_616-5" data-name="Ellipse 616" cx="6" cy="6" r="6" transform="translate(393 2660)" fill="#d6e7f4"/>
    </g>
    <g transform="translate(-68 -2660)">
      <circle id="Ellipse_616-6" data-name="Ellipse 616" cx="6" cy="6" r="6" transform="translate(393 2660)" fill="#d6e7f4"/>
    </g>
    <g transform="translate(-3 -2660)">
      <circle id="Ellipse_616-7" data-name="Ellipse 616" cx="6" cy="6" r="6" transform="translate(393 2660)" fill="#d6e7f4"/>
    </g>
    <g transform="translate(62 -2660)">
      <circle id="Ellipse_616-8" data-name="Ellipse 616" cx="6" cy="6" r="6" transform="translate(393 2660)" fill="#d6e7f4"/>
    </g>
    <g transform="translate(127 -2660)">
      <circle id="Ellipse_616-9" data-name="Ellipse 616" cx="6" cy="6" r="6" transform="translate(393 2660)" fill="#d6e7f4"/>
    </g>
    <g transform="translate(192 -2660)">
      <circle id="Ellipse_616-10" data-name="Ellipse 616" cx="6" cy="6" r="6" transform="translate(393 2660)" fill="#d6e7f4"/>
    </g>
    <g transform="translate(257 -2660)">
      <circle id="Ellipse_616-11" data-name="Ellipse 616" cx="6" cy="6" r="6" transform="translate(393 2660)" fill="#d6e7f4"/>
    </g>
    <g transform="translate(322 -2660)">
      <circle id="Ellipse_616-12" data-name="Ellipse 616" cx="6" cy="6" r="6" transform="translate(393 2660)" fill="#d6e7f4"/>
    </g>
    <g transform="translate(387 -2660)">
      <circle id="Ellipse_616-13" data-name="Ellipse 616" cx="6" cy="6" r="6" transform="translate(393 2660)" fill="#d6e7f4"/>
    </g>
    <g transform="translate(452 -2660)">
      <circle id="Ellipse_616-14" data-name="Ellipse 616" cx="6" cy="6" r="6" transform="translate(393 2660)" fill="#d6e7f4"/>
    </g>
    <g transform="translate(517 -2660)">
      <circle id="Ellipse_616-15" data-name="Ellipse 616" cx="6" cy="6" r="6" transform="translate(393 2660)" fill="#d6e7f4"/>
    </g>
    <g transform="translate(582 -2660)">
      <circle id="Ellipse_616-16" data-name="Ellipse 616" cx="6" cy="6" r="6" transform="translate(393 2660)" fill="#d6e7f4"/>
    </g>
    <g transform="translate(647 -2660)">
      <circle id="Ellipse_616-17" data-name="Ellipse 616" cx="6" cy="6" r="6" transform="translate(393 2660)" fill="#d6e7f4"/>
    </g>
    <g transform="translate(712 -2660)">
      <circle id="Ellipse_616-18" data-name="Ellipse 616" cx="6" cy="6" r="6" transform="translate(393 2660)" fill="#d6e7f4"/>
    </g>
    <g transform="translate(777 -2660)">
      <circle id="Ellipse_616-19" data-name="Ellipse 616" cx="6" cy="6" r="6" transform="translate(393 2660)" fill="#d6e7f4"/>
    </g>
    <g transform="translate(842 -2660)">
      <circle id="Ellipse_616-20" data-name="Ellipse 616" cx="6" cy="6" r="6" transform="translate(393 2660)" fill="#d6e7f4"/>
    </g>
    <g transform="translate(907 -2660)">
      <circle id="Ellipse_616-21" data-name="Ellipse 616" cx="6" cy="6" r="6" transform="translate(393 2660)" fill="#d6e7f4"/>
    </g>
    <g transform="translate(972 -2660)">
      <circle id="Ellipse_616-22" data-name="Ellipse 616" cx="6" cy="6" r="6" transform="translate(393 2660)" fill="#d6e7f4"/>
    </g>
    <g transform="translate(1037 -2660)">
      <circle id="Ellipse_616-23" data-name="Ellipse 616" cx="6" cy="6" r="6" transform="translate(393 2660)" fill="#d6e7f4"/>
    </g>
    <g transform="translate(1102 -2660)">
      <circle id="Ellipse_616-24" data-name="Ellipse 616" cx="6" cy="6" r="6" transform="translate(393 2660)" fill="#d6e7f4"/>
    </g>
    <g transform="translate(1167 -2660)">
      <circle id="Ellipse_616-25" data-name="Ellipse 616" cx="6" cy="6" r="6" transform="translate(393 2660)" fill="#d6e7f4"/>
    </g>
    <g transform="translate(-393 -2579)">
      <circle id="Ellipse_616-26" data-name="Ellipse 616" cx="6" cy="6" r="6" transform="translate(393 2660)" fill="#d6e7f4"/>
    </g>
    <g transform="translate(-328 -2579)">
      <circle id="Ellipse_616-27" data-name="Ellipse 616" cx="6" cy="6" r="6" transform="translate(393 2660)" fill="#d6e7f4"/>
    </g>
    <g transform="translate(-263 -2579)">
      <circle id="Ellipse_616-28" data-name="Ellipse 616" cx="6" cy="6" r="6" transform="translate(393 2660)" fill="#d6e7f4"/>
    </g>
    <g transform="translate(-198 -2579)">
      <circle id="Ellipse_616-29" data-name="Ellipse 616" cx="6" cy="6" r="6" transform="translate(393 2660)" fill="#d6e7f4"/>
    </g>
    <g transform="translate(-133 -2579)">
      <circle id="Ellipse_616-30" data-name="Ellipse 616" cx="6" cy="6" r="6" transform="translate(393 2660)" fill="#d6e7f4"/>
    </g>
    <g transform="translate(-68 -2579)">
      <circle id="Ellipse_616-31" data-name="Ellipse 616" cx="6" cy="6" r="6" transform="translate(393 2660)" fill="#d6e7f4"/>
    </g>
    <g transform="translate(-3 -2579)">
      <circle id="Ellipse_616-32" data-name="Ellipse 616" cx="6" cy="6" r="6" transform="translate(393 2660)" fill="#d6e7f4"/>
    </g>
    <g transform="translate(62 -2579)">
      <circle id="Ellipse_616-33" data-name="Ellipse 616" cx="6" cy="6" r="6" transform="translate(393 2660)" fill="#d6e7f4"/>
    </g>
    <g transform="translate(127 -2579)">
      <circle id="Ellipse_616-34" data-name="Ellipse 616" cx="6" cy="6" r="6" transform="translate(393 2660)" fill="#d6e7f4"/>
    </g>
    <g transform="translate(192 -2579)">
      <circle id="Ellipse_616-35" data-name="Ellipse 616" cx="6" cy="6" r="6" transform="translate(393 2660)" fill="#d6e7f4"/>
    </g>
    <g transform="translate(257 -2579)">
      <circle id="Ellipse_616-36" data-name="Ellipse 616" cx="6" cy="6" r="6" transform="translate(393 2660)" fill="#d6e7f4"/>
    </g>
    <g transform="translate(322 -2579)">
      <circle id="Ellipse_616-37" data-name="Ellipse 616" cx="6" cy="6" r="6" transform="translate(393 2660)" fill="#d6e7f4"/>
    </g>
    <g transform="translate(387 -2579)">
      <circle id="Ellipse_616-38" data-name="Ellipse 616" cx="6" cy="6" r="6" transform="translate(393 2660)" fill="#d6e7f4"/>
    </g>
    <g transform="translate(452 -2579)">
      <circle id="Ellipse_616-39" data-name="Ellipse 616" cx="6" cy="6" r="6" transform="translate(393 2660)" fill="#d6e7f4"/>
    </g>
    <g transform="translate(517 -2579)">
      <circle id="Ellipse_616-40" data-name="Ellipse 616" cx="6" cy="6" r="6" transform="translate(393 2660)" fill="#d6e7f4"/>
    </g>
    <g transform="translate(582 -2579)">
      <circle id="Ellipse_616-41" data-name="Ellipse 616" cx="6" cy="6" r="6" transform="translate(393 2660)" fill="#d6e7f4"/>
    </g>
    <g transform="translate(647 -2579)">
      <circle id="Ellipse_616-42" data-name="Ellipse 616" cx="6" cy="6" r="6" transform="translate(393 2660)" fill="#d6e7f4"/>
    </g>
    <g transform="translate(712 -2579)">
      <circle id="Ellipse_616-43" data-name="Ellipse 616" cx="6" cy="6" r="6" transform="translate(393 2660)" fill="#d6e7f4"/>
    </g>
    <g transform="translate(777 -2579)">
      <circle id="Ellipse_616-44" data-name="Ellipse 616" cx="6" cy="6" r="6" transform="translate(393 2660)" fill="#d6e7f4"/>
    </g>
    <g transform="translate(842 -2579)">
      <circle id="Ellipse_616-45" data-name="Ellipse 616" cx="6" cy="6" r="6" transform="translate(393 2660)" fill="#d6e7f4"/>
    </g>
    <g transform="translate(907 -2579)">
      <circle id="Ellipse_616-46" data-name="Ellipse 616" cx="6" cy="6" r="6" transform="translate(393 2660)" fill="#d6e7f4"/>
    </g>
    <g transform="translate(972 -2579)">
      <circle id="Ellipse_616-47" data-name="Ellipse 616" cx="6" cy="6" r="6" transform="translate(393 2660)" fill="#d6e7f4"/>
    </g>
    <g transform="translate(1037 -2579)">
      <circle id="Ellipse_616-48" data-name="Ellipse 616" cx="6" cy="6" r="6" transform="translate(393 2660)" fill="#d6e7f4"/>
    </g>
    <g transform="translate(1102 -2579)">
      <circle id="Ellipse_616-49" data-name="Ellipse 616" cx="6" cy="6" r="6" transform="translate(393 2660)" fill="#d6e7f4"/>
    </g>
    <g transform="translate(1167 -2579)">
      <circle id="Ellipse_616-50" data-name="Ellipse 616" cx="6" cy="6" r="6" transform="translate(393 2660)" fill="#d6e7f4"/>
    </g>
    <g transform="translate(-393 -2498)">
      <circle id="Ellipse_616-51" data-name="Ellipse 616" cx="6" cy="6" r="6" transform="translate(393 2660)" fill="#d6e7f4"/>
    </g>
    <g transform="translate(-328 -2498)">
      <circle id="Ellipse_616-52" data-name="Ellipse 616" cx="6" cy="6" r="6" transform="translate(393 2660)" fill="#d6e7f4"/>
    </g>
    <g transform="translate(-263 -2498)">
      <circle id="Ellipse_616-53" data-name="Ellipse 616" cx="6" cy="6" r="6" transform="translate(393 2660)" fill="#d6e7f4"/>
    </g>
    <g transform="translate(-198 -2498)">
      <circle id="Ellipse_616-54" data-name="Ellipse 616" cx="6" cy="6" r="6" transform="translate(393 2660)" fill="#d6e7f4"/>
    </g>
    <g transform="translate(-133 -2498)">
      <circle id="Ellipse_616-55" data-name="Ellipse 616" cx="6" cy="6" r="6" transform="translate(393 2660)" fill="#d6e7f4"/>
    </g>
    <g transform="translate(-68 -2498)">
      <circle id="Ellipse_616-56" data-name="Ellipse 616" cx="6" cy="6" r="6" transform="translate(393 2660)" fill="#d6e7f4"/>
    </g>
    <g transform="translate(-3 -2498)">
      <circle id="Ellipse_616-57" data-name="Ellipse 616" cx="6" cy="6" r="6" transform="translate(393 2660)" fill="#d6e7f4"/>
    </g>
    <g transform="translate(62 -2498)">
      <circle id="Ellipse_616-58" data-name="Ellipse 616" cx="6" cy="6" r="6" transform="translate(393 2660)" fill="#d6e7f4"/>
    </g>
    <g transform="translate(127 -2498)">
      <circle id="Ellipse_616-59" data-name="Ellipse 616" cx="6" cy="6" r="6" transform="translate(393 2660)" fill="#d6e7f4"/>
    </g>
    <g transform="translate(192 -2498)">
      <circle id="Ellipse_616-60" data-name="Ellipse 616" cx="6" cy="6" r="6" transform="translate(393 2660)" fill="#d6e7f4"/>
    </g>
    <g transform="translate(257 -2498)">
      <circle id="Ellipse_616-61" data-name="Ellipse 616" cx="6" cy="6" r="6" transform="translate(393 2660)" fill="#d6e7f4"/>
    </g>
    <g transform="translate(322 -2498)">
      <circle id="Ellipse_616-62" data-name="Ellipse 616" cx="6" cy="6" r="6" transform="translate(393 2660)" fill="#d6e7f4"/>
    </g>
    <g transform="translate(387 -2498)">
      <circle id="Ellipse_616-63" data-name="Ellipse 616" cx="6" cy="6" r="6" transform="translate(393 2660)" fill="#d6e7f4"/>
    </g>
    <g transform="translate(452 -2498)">
      <circle id="Ellipse_616-64" data-name="Ellipse 616" cx="6" cy="6" r="6" transform="translate(393 2660)" fill="#d6e7f4"/>
    </g>
    <g transform="translate(517 -2498)">
      <circle id="Ellipse_616-65" data-name="Ellipse 616" cx="6" cy="6" r="6" transform="translate(393 2660)" fill="#d6e7f4"/>
    </g>
    <g transform="translate(582 -2498)">
      <circle id="Ellipse_616-66" data-name="Ellipse 616" cx="6" cy="6" r="6" transform="translate(393 2660)" fill="#d6e7f4"/>
    </g>
    <g transform="translate(647 -2498)">
      <circle id="Ellipse_616-67" data-name="Ellipse 616" cx="6" cy="6" r="6" transform="translate(393 2660)" fill="#d6e7f4"/>
    </g>
    <g transform="translate(712 -2498)">
      <circle id="Ellipse_616-68" data-name="Ellipse 616" cx="6" cy="6" r="6" transform="translate(393 2660)" fill="#d6e7f4"/>
    </g>
    <g transform="translate(777 -2498)">
      <circle id="Ellipse_616-69" data-name="Ellipse 616" cx="6" cy="6" r="6" transform="translate(393 2660)" fill="#d6e7f4"/>
    </g>
    <g transform="translate(842 -2498)">
      <circle id="Ellipse_616-70" data-name="Ellipse 616" cx="6" cy="6" r="6" transform="translate(393 2660)" fill="#d6e7f4"/>
    </g>
    <g transform="translate(907 -2498)">
      <circle id="Ellipse_616-71" data-name="Ellipse 616" cx="6" cy="6" r="6" transform="translate(393 2660)" fill="#d6e7f4"/>
    </g>
    <g transform="translate(972 -2498)">
      <circle id="Ellipse_616-72" data-name="Ellipse 616" cx="6" cy="6" r="6" transform="translate(393 2660)" fill="#d6e7f4"/>
    </g>
    <g transform="translate(1037 -2498)">
      <circle id="Ellipse_616-73" data-name="Ellipse 616" cx="6" cy="6" r="6" transform="translate(393 2660)" fill="#d6e7f4"/>
    </g>
    <g transform="translate(1102 -2498)">
      <circle id="Ellipse_616-74" data-name="Ellipse 616" cx="6" cy="6" r="6" transform="translate(393 2660)" fill="#d6e7f4"/>
    </g>
    <g transform="translate(1167 -2498)">
      <circle id="Ellipse_616-75" data-name="Ellipse 616" cx="6" cy="6" r="6" transform="translate(393 2660)" fill="#d6e7f4"/>
    </g>
    <g transform="translate(-393 -2417)">
      <circle id="Ellipse_616-76" data-name="Ellipse 616" cx="6" cy="6" r="6" transform="translate(393 2660)" fill="#d6e7f4"/>
    </g>
    <g transform="translate(-328 -2417)">
      <circle id="Ellipse_616-77" data-name="Ellipse 616" cx="6" cy="6" r="6" transform="translate(393 2660)" fill="#d6e7f4"/>
    </g>
    <g transform="translate(-263 -2417)">
      <circle id="Ellipse_616-78" data-name="Ellipse 616" cx="6" cy="6" r="6" transform="translate(393 2660)" fill="#d6e7f4"/>
    </g>
    <g transform="translate(-198 -2417)">
      <circle id="Ellipse_616-79" data-name="Ellipse 616" cx="6" cy="6" r="6" transform="translate(393 2660)" fill="#d6e7f4"/>
    </g>
    <g transform="translate(-133 -2417)">
      <circle id="Ellipse_616-80" data-name="Ellipse 616" cx="6" cy="6" r="6" transform="translate(393 2660)" fill="#d6e7f4"/>
    </g>
    <g transform="translate(-68 -2417)">
      <circle id="Ellipse_616-81" data-name="Ellipse 616" cx="6" cy="6" r="6" transform="translate(393 2660)" fill="#d6e7f4"/>
    </g>
    <g transform="translate(-3 -2417)">
      <circle id="Ellipse_616-82" data-name="Ellipse 616" cx="6" cy="6" r="6" transform="translate(393 2660)" fill="#d6e7f4"/>
    </g>
    <g transform="translate(62 -2417)">
      <circle id="Ellipse_616-83" data-name="Ellipse 616" cx="6" cy="6" r="6" transform="translate(393 2660)" fill="#d6e7f4"/>
    </g>
    <g transform="translate(127 -2417)">
      <circle id="Ellipse_616-84" data-name="Ellipse 616" cx="6" cy="6" r="6" transform="translate(393 2660)" fill="#d6e7f4"/>
    </g>
    <g transform="translate(192 -2417)">
      <circle id="Ellipse_616-85" data-name="Ellipse 616" cx="6" cy="6" r="6" transform="translate(393 2660)" fill="#d6e7f4"/>
    </g>
    <g transform="translate(257 -2417)">
      <circle id="Ellipse_616-86" data-name="Ellipse 616" cx="6" cy="6" r="6" transform="translate(393 2660)" fill="#d6e7f4"/>
    </g>
    <g transform="translate(322 -2417)">
      <circle id="Ellipse_616-87" data-name="Ellipse 616" cx="6" cy="6" r="6" transform="translate(393 2660)" fill="#d6e7f4"/>
    </g>
    <g transform="translate(387 -2417)">
      <circle id="Ellipse_616-88" data-name="Ellipse 616" cx="6" cy="6" r="6" transform="translate(393 2660)" fill="#d6e7f4"/>
    </g>
    <g transform="translate(452 -2417)">
      <circle id="Ellipse_616-89" data-name="Ellipse 616" cx="6" cy="6" r="6" transform="translate(393 2660)" fill="#d6e7f4"/>
    </g>
    <g transform="translate(517 -2417)">
      <circle id="Ellipse_616-90" data-name="Ellipse 616" cx="6" cy="6" r="6" transform="translate(393 2660)" fill="#d6e7f4"/>
    </g>
    <g transform="translate(582 -2417)">
      <circle id="Ellipse_616-91" data-name="Ellipse 616" cx="6" cy="6" r="6" transform="translate(393 2660)" fill="#d6e7f4"/>
    </g>
    <g transform="translate(647 -2417)">
      <circle id="Ellipse_616-92" data-name="Ellipse 616" cx="6" cy="6" r="6" transform="translate(393 2660)" fill="#d6e7f4"/>
    </g>
    <g transform="translate(712 -2417)">
      <circle id="Ellipse_616-93" data-name="Ellipse 616" cx="6" cy="6" r="6" transform="translate(393 2660)" fill="#d6e7f4"/>
    </g>
    <g transform="translate(777 -2417)">
      <circle id="Ellipse_616-94" data-name="Ellipse 616" cx="6" cy="6" r="6" transform="translate(393 2660)" fill="#d6e7f4"/>
    </g>
    <g transform="translate(842 -2417)">
      <circle id="Ellipse_616-95" data-name="Ellipse 616" cx="6" cy="6" r="6" transform="translate(393 2660)" fill="#d6e7f4"/>
    </g>
    <g transform="translate(907 -2417)">
      <circle id="Ellipse_616-96" data-name="Ellipse 616" cx="6" cy="6" r="6" transform="translate(393 2660)" fill="#d6e7f4"/>
    </g>
    <g transform="translate(972 -2417)">
      <circle id="Ellipse_616-97" data-name="Ellipse 616" cx="6" cy="6" r="6" transform="translate(393 2660)" fill="#d6e7f4"/>
    </g>
    <g transform="translate(1037 -2417)">
      <circle id="Ellipse_616-98" data-name="Ellipse 616" cx="6" cy="6" r="6" transform="translate(393 2660)" fill="#d6e7f4"/>
    </g>
    <g transform="translate(1102 -2417)">
      <circle id="Ellipse_616-99" data-name="Ellipse 616" cx="6" cy="6" r="6" transform="translate(393 2660)" fill="#d6e7f4"/>
    </g>
    <g transform="translate(1167 -2417)">
      <circle id="Ellipse_616-100" data-name="Ellipse 616" cx="6" cy="6" r="6" transform="translate(393 2660)" fill="#d6e7f4"/>
    </g>
    <g transform="translate(-393 -2336)">
      <circle id="Ellipse_616-101" data-name="Ellipse 616" cx="6" cy="6" r="6" transform="translate(393 2660)" fill="#d6e7f4"/>
    </g>
    <g transform="translate(-328 -2336)">
      <circle id="Ellipse_616-102" data-name="Ellipse 616" cx="6" cy="6" r="6" transform="translate(393 2660)" fill="#d6e7f4"/>
    </g>
    <g transform="translate(-263 -2336)">
      <circle id="Ellipse_616-103" data-name="Ellipse 616" cx="6" cy="6" r="6" transform="translate(393 2660)" fill="#d6e7f4"/>
    </g>
    <g transform="translate(-198 -2336)">
      <circle id="Ellipse_616-104" data-name="Ellipse 616" cx="6" cy="6" r="6" transform="translate(393 2660)" fill="#d6e7f4"/>
    </g>
    <g transform="translate(-133 -2336)">
      <circle id="Ellipse_616-105" data-name="Ellipse 616" cx="6" cy="6" r="6" transform="translate(393 2660)" fill="#d6e7f4"/>
    </g>
    <g transform="translate(-68 -2336)">
      <circle id="Ellipse_616-106" data-name="Ellipse 616" cx="6" cy="6" r="6" transform="translate(393 2660)" fill="#d6e7f4"/>
    </g>
    <g transform="translate(-3 -2336)">
      <circle id="Ellipse_616-107" data-name="Ellipse 616" cx="6" cy="6" r="6" transform="translate(393 2660)" fill="#d6e7f4"/>
    </g>
    <g transform="translate(62 -2336)">
      <circle id="Ellipse_616-108" data-name="Ellipse 616" cx="6" cy="6" r="6" transform="translate(393 2660)" fill="#d6e7f4"/>
    </g>
    <g transform="translate(127 -2336)">
      <circle id="Ellipse_616-109" data-name="Ellipse 616" cx="6" cy="6" r="6" transform="translate(393 2660)" fill="#d6e7f4"/>
    </g>
    <g transform="translate(192 -2336)">
      <circle id="Ellipse_616-110" data-name="Ellipse 616" cx="6" cy="6" r="6" transform="translate(393 2660)" fill="#d6e7f4"/>
    </g>
    <g transform="translate(257 -2336)">
      <circle id="Ellipse_616-111" data-name="Ellipse 616" cx="6" cy="6" r="6" transform="translate(393 2660)" fill="#d6e7f4"/>
    </g>
    <g transform="translate(322 -2336)">
      <circle id="Ellipse_616-112" data-name="Ellipse 616" cx="6" cy="6" r="6" transform="translate(393 2660)" fill="#d6e7f4"/>
    </g>
    <g transform="translate(387 -2336)">
      <circle id="Ellipse_616-113" data-name="Ellipse 616" cx="6" cy="6" r="6" transform="translate(393 2660)" fill="#d6e7f4"/>
    </g>
    <g transform="translate(452 -2336)">
      <circle id="Ellipse_616-114" data-name="Ellipse 616" cx="6" cy="6" r="6" transform="translate(393 2660)" fill="#d6e7f4"/>
    </g>
    <g transform="translate(517 -2336)">
      <circle id="Ellipse_616-115" data-name="Ellipse 616" cx="6" cy="6" r="6" transform="translate(393 2660)" fill="#d6e7f4"/>
    </g>
    <g transform="translate(582 -2336)">
      <circle id="Ellipse_616-116" data-name="Ellipse 616" cx="6" cy="6" r="6" transform="translate(393 2660)" fill="#d6e7f4"/>
    </g>
    <g transform="translate(647 -2336)">
      <circle id="Ellipse_616-117" data-name="Ellipse 616" cx="6" cy="6" r="6" transform="translate(393 2660)" fill="#d6e7f4"/>
    </g>
    <g transform="translate(712 -2336)">
      <circle id="Ellipse_616-118" data-name="Ellipse 616" cx="6" cy="6" r="6" transform="translate(393 2660)" fill="#d6e7f4"/>
    </g>
    <g transform="translate(777 -2336)">
      <circle id="Ellipse_616-119" data-name="Ellipse 616" cx="6" cy="6" r="6" transform="translate(393 2660)" fill="#d6e7f4"/>
    </g>
    <g transform="translate(842 -2336)">
      <circle id="Ellipse_616-120" data-name="Ellipse 616" cx="6" cy="6" r="6" transform="translate(393 2660)" fill="#d6e7f4"/>
    </g>
    <g transform="translate(907 -2336)">
      <circle id="Ellipse_616-121" data-name="Ellipse 616" cx="6" cy="6" r="6" transform="translate(393 2660)" fill="#d6e7f4"/>
    </g>
    <g transform="translate(972 -2336)">
      <circle id="Ellipse_616-122" data-name="Ellipse 616" cx="6" cy="6" r="6" transform="translate(393 2660)" fill="#d6e7f4"/>
    </g>
    <g transform="translate(1037 -2336)">
      <circle id="Ellipse_616-123" data-name="Ellipse 616" cx="6" cy="6" r="6" transform="translate(393 2660)" fill="#d6e7f4"/>
    </g>
    <g transform="translate(1102 -2336)">
      <circle id="Ellipse_616-124" data-name="Ellipse 616" cx="6" cy="6" r="6" transform="translate(393 2660)" fill="#d6e7f4"/>
    </g>
    <g transform="translate(1167 -2336)">
      <circle id="Ellipse_616-125" data-name="Ellipse 616" cx="6" cy="6" r="6" transform="translate(393 2660)" fill="#d6e7f4"/>
    </g>
    <g transform="translate(-393 -2255)">
      <circle id="Ellipse_616-126" data-name="Ellipse 616" cx="6" cy="6" r="6" transform="translate(393 2660)" fill="#d6e7f4"/>
    </g>
    <g transform="translate(-328 -2255)">
      <circle id="Ellipse_616-127" data-name="Ellipse 616" cx="6" cy="6" r="6" transform="translate(393 2660)" fill="#d6e7f4"/>
    </g>
    <g transform="translate(-263 -2255)">
      <circle id="Ellipse_616-128" data-name="Ellipse 616" cx="6" cy="6" r="6" transform="translate(393 2660)" fill="#d6e7f4"/>
    </g>
    <g transform="translate(-198 -2255)">
      <circle id="Ellipse_616-129" data-name="Ellipse 616" cx="6" cy="6" r="6" transform="translate(393 2660)" fill="#d6e7f4"/>
    </g>
    <g transform="translate(-133 -2255)">
      <circle id="Ellipse_616-130" data-name="Ellipse 616" cx="6" cy="6" r="6" transform="translate(393 2660)" fill="#d6e7f4"/>
    </g>
    <g transform="translate(-68 -2255)">
      <circle id="Ellipse_616-131" data-name="Ellipse 616" cx="6" cy="6" r="6" transform="translate(393 2660)" fill="#d6e7f4"/>
    </g>
    <g transform="translate(-3 -2255)">
      <circle id="Ellipse_616-132" data-name="Ellipse 616" cx="6" cy="6" r="6" transform="translate(393 2660)" fill="#d6e7f4"/>
    </g>
    <g transform="translate(62 -2255)">
      <circle id="Ellipse_616-133" data-name="Ellipse 616" cx="6" cy="6" r="6" transform="translate(393 2660)" fill="#d6e7f4"/>
    </g>
    <g transform="translate(127 -2255)">
      <circle id="Ellipse_616-134" data-name="Ellipse 616" cx="6" cy="6" r="6" transform="translate(393 2660)" fill="#d6e7f4"/>
    </g>
    <g transform="translate(192 -2255)">
      <circle id="Ellipse_616-135" data-name="Ellipse 616" cx="6" cy="6" r="6" transform="translate(393 2660)" fill="#d6e7f4"/>
    </g>
    <g transform="translate(257 -2255)">
      <circle id="Ellipse_616-136" data-name="Ellipse 616" cx="6" cy="6" r="6" transform="translate(393 2660)" fill="#d6e7f4"/>
    </g>
    <g transform="translate(322 -2255)">
      <circle id="Ellipse_616-137" data-name="Ellipse 616" cx="6" cy="6" r="6" transform="translate(393 2660)" fill="#d6e7f4"/>
    </g>
    <g transform="translate(387 -2255)">
      <circle id="Ellipse_616-138" data-name="Ellipse 616" cx="6" cy="6" r="6" transform="translate(393 2660)" fill="#d6e7f4"/>
    </g>
    <g transform="translate(452 -2255)">
      <circle id="Ellipse_616-139" data-name="Ellipse 616" cx="6" cy="6" r="6" transform="translate(393 2660)" fill="#d6e7f4"/>
    </g>
    <g transform="translate(517 -2255)">
      <circle id="Ellipse_616-140" data-name="Ellipse 616" cx="6" cy="6" r="6" transform="translate(393 2660)" fill="#d6e7f4"/>
    </g>
    <g transform="translate(582 -2255)">
      <circle id="Ellipse_616-141" data-name="Ellipse 616" cx="6" cy="6" r="6" transform="translate(393 2660)" fill="#d6e7f4"/>
    </g>
    <g transform="translate(647 -2255)">
      <circle id="Ellipse_616-142" data-name="Ellipse 616" cx="6" cy="6" r="6" transform="translate(393 2660)" fill="#d6e7f4"/>
    </g>
    <g transform="translate(712 -2255)">
      <circle id="Ellipse_616-143" data-name="Ellipse 616" cx="6" cy="6" r="6" transform="translate(393 2660)" fill="#d6e7f4"/>
    </g>
    <g transform="translate(777 -2255)">
      <circle id="Ellipse_616-144" data-name="Ellipse 616" cx="6" cy="6" r="6" transform="translate(393 2660)" fill="#d6e7f4"/>
    </g>
    <g transform="translate(842 -2255)">
      <circle id="Ellipse_616-145" data-name="Ellipse 616" cx="6" cy="6" r="6" transform="translate(393 2660)" fill="#d6e7f4"/>
    </g>
    <g transform="translate(907 -2255)">
      <circle id="Ellipse_616-146" data-name="Ellipse 616" cx="6" cy="6" r="6" transform="translate(393 2660)" fill="#d6e7f4"/>
    </g>
    <g transform="translate(972 -2255)">
      <circle id="Ellipse_616-147" data-name="Ellipse 616" cx="6" cy="6" r="6" transform="translate(393 2660)" fill="#d6e7f4"/>
    </g>
    <g transform="translate(1037 -2255)">
      <circle id="Ellipse_616-148" data-name="Ellipse 616" cx="6" cy="6" r="6" transform="translate(393 2660)" fill="#d6e7f4"/>
    </g>
    <g transform="translate(1102 -2255)">
      <circle id="Ellipse_616-149" data-name="Ellipse 616" cx="6" cy="6" r="6" transform="translate(393 2660)" fill="#d6e7f4"/>
    </g>
    <g transform="translate(1167 -2255)">
      <circle id="Ellipse_616-150" data-name="Ellipse 616" cx="6" cy="6" r="6" transform="translate(393 2660)" fill="#d6e7f4"/>
    </g>
    <g transform="translate(-393 -2174)">
      <circle id="Ellipse_616-151" data-name="Ellipse 616" cx="6" cy="6" r="6" transform="translate(393 2660)" fill="#d6e7f4"/>
    </g>
    <g transform="translate(-328 -2174)">
      <circle id="Ellipse_616-152" data-name="Ellipse 616" cx="6" cy="6" r="6" transform="translate(393 2660)" fill="#d6e7f4"/>
    </g>
    <g transform="translate(-263 -2174)">
      <circle id="Ellipse_616-153" data-name="Ellipse 616" cx="6" cy="6" r="6" transform="translate(393 2660)" fill="#d6e7f4"/>
    </g>
    <g transform="translate(-198 -2174)">
      <circle id="Ellipse_616-154" data-name="Ellipse 616" cx="6" cy="6" r="6" transform="translate(393 2660)" fill="#d6e7f4"/>
    </g>
    <g transform="translate(-133 -2174)">
      <circle id="Ellipse_616-155" data-name="Ellipse 616" cx="6" cy="6" r="6" transform="translate(393 2660)" fill="#d6e7f4"/>
    </g>
    <g transform="translate(-68 -2174)">
      <circle id="Ellipse_616-156" data-name="Ellipse 616" cx="6" cy="6" r="6" transform="translate(393 2660)" fill="#d6e7f4"/>
    </g>
    <g transform="translate(-3 -2174)">
      <circle id="Ellipse_616-157" data-name="Ellipse 616" cx="6" cy="6" r="6" transform="translate(393 2660)" fill="#d6e7f4"/>
    </g>
    <g transform="translate(62 -2174)">
      <circle id="Ellipse_616-158" data-name="Ellipse 616" cx="6" cy="6" r="6" transform="translate(393 2660)" fill="#d6e7f4"/>
    </g>
    <g transform="translate(127 -2174)">
      <circle id="Ellipse_616-159" data-name="Ellipse 616" cx="6" cy="6" r="6" transform="translate(393 2660)" fill="#d6e7f4"/>
    </g>
    <g transform="translate(192 -2174)">
      <circle id="Ellipse_616-160" data-name="Ellipse 616" cx="6" cy="6" r="6" transform="translate(393 2660)" fill="#d6e7f4"/>
    </g>
    <g transform="translate(257 -2174)">
      <circle id="Ellipse_616-161" data-name="Ellipse 616" cx="6" cy="6" r="6" transform="translate(393 2660)" fill="#d6e7f4"/>
    </g>
    <g transform="translate(322 -2174)">
      <circle id="Ellipse_616-162" data-name="Ellipse 616" cx="6" cy="6" r="6" transform="translate(393 2660)" fill="#d6e7f4"/>
    </g>
    <g transform="translate(387 -2174)">
      <circle id="Ellipse_616-163" data-name="Ellipse 616" cx="6" cy="6" r="6" transform="translate(393 2660)" fill="#d6e7f4"/>
    </g>
    <g transform="translate(452 -2174)">
      <circle id="Ellipse_616-164" data-name="Ellipse 616" cx="6" cy="6" r="6" transform="translate(393 2660)" fill="#d6e7f4"/>
    </g>
    <g transform="translate(517 -2174)">
      <circle id="Ellipse_616-165" data-name="Ellipse 616" cx="6" cy="6" r="6" transform="translate(393 2660)" fill="#d6e7f4"/>
    </g>
    <g transform="translate(582 -2174)">
      <circle id="Ellipse_616-166" data-name="Ellipse 616" cx="6" cy="6" r="6" transform="translate(393 2660)" fill="#d6e7f4"/>
    </g>
    <g transform="translate(647 -2174)">
      <circle id="Ellipse_616-167" data-name="Ellipse 616" cx="6" cy="6" r="6" transform="translate(393 2660)" fill="#d6e7f4"/>
    </g>
    <g transform="translate(712 -2174)">
      <circle id="Ellipse_616-168" data-name="Ellipse 616" cx="6" cy="6" r="6" transform="translate(393 2660)" fill="#d6e7f4"/>
    </g>
    <g transform="translate(777 -2174)">
      <circle id="Ellipse_616-169" data-name="Ellipse 616" cx="6" cy="6" r="6" transform="translate(393 2660)" fill="#d6e7f4"/>
    </g>
    <g transform="translate(842 -2174)">
      <circle id="Ellipse_616-170" data-name="Ellipse 616" cx="6" cy="6" r="6" transform="translate(393 2660)" fill="#d6e7f4"/>
    </g>
    <g transform="translate(907 -2174)">
      <circle id="Ellipse_616-171" data-name="Ellipse 616" cx="6" cy="6" r="6" transform="translate(393 2660)" fill="#d6e7f4"/>
    </g>
    <g transform="translate(972 -2174)">
      <circle id="Ellipse_616-172" data-name="Ellipse 616" cx="6" cy="6" r="6" transform="translate(393 2660)" fill="#d6e7f4"/>
    </g>
    <g transform="translate(1037 -2174)">
      <circle id="Ellipse_616-173" data-name="Ellipse 616" cx="6" cy="6" r="6" transform="translate(393 2660)" fill="#d6e7f4"/>
    </g>
    <g transform="translate(1102 -2174)">
      <circle id="Ellipse_616-174" data-name="Ellipse 616" cx="6" cy="6" r="6" transform="translate(393 2660)" fill="#d6e7f4"/>
    </g>
    <g transform="translate(1167 -2174)">
      <circle id="Ellipse_616-175" data-name="Ellipse 616" cx="6" cy="6" r="6" transform="translate(393 2660)" fill="#d6e7f4"/>
    </g>
  </g>
</svg>
