<?xml version="1.0" encoding="utf-8"?>
<!-- Generator: Adobe Illustrator 24.2.3, SVG Export Plug-In . SVG Version: 6.00 Build 0)  -->
<svg version="1.1" id="Layer_1" xmlns="http://www.w3.org/2000/svg" xmlns:xlink="http://www.w3.org/1999/xlink" x="0px" y="0px"
	 viewBox="0 0 856 570" style="enable-background:new 0 0 856 570;" xml:space="preserve">
<style type="text/css">
	.st0{opacity:0.35;}
	.st1{fill:#D9F0F8;}
	.st2{fill:#EC9FBF;}
	.st3{fill:url(#SVGID_1_);stroke:#F279A2;stroke-width:5;stroke-miterlimit:10;}
	.st4{fill:#F6DAE5;}
	.st5{fill:#FFFFFF;}
	.st6{fill:url(#SVGID_2_);}
	.st7{fill:#91B2CC;}
	.st8{fill:url(#SVGID_3_);}
	.st9{fill:#BFD5DF;}
	.st10{fill:#D4DDF1;}
	.st11{fill:#C4D1EB;}
	.st12{fill:url(#SVGID_4_);}
	.st13{opacity:0.6;}
	.st14{fill:#4A9AD4;}
	.st15{fill:url(#SVGID_5_);}
	.st16{fill:#CBE6F8;}
	.st17{opacity:0.6;fill:#4A9AD4;}
	.st18{fill:#EBF7FD;stroke:#B9DAE8;stroke-miterlimit:10;}
	.st19{fill:url(#SVGID_6_);}
	.st20{fill:url(#SVGID_7_);}
	.st21{fill:url(#SVGID_8_);}
	.st22{fill:url(#SVGID_9_);}
	.st23{fill:#243962;}
	.st24{fill:url(#SVGID_10_);}
	.st25{fill:#2E3B65;}
	.st26{fill:url(#SVGID_11_);}
	.st27{fill:url(#SVGID_12_);}
	.st28{fill:#A26E3C;}
	.st29{fill:#A3D2F1;}
	.st30{fill:url(#SVGID_13_);}
	.st31{fill:url(#SVGID_14_);}
	.st32{fill:#EBF7FD;stroke:#B9DAE8;stroke-width:2;stroke-miterlimit:10;}
	.st33{fill:url(#SVGID_15_);}
	.st34{fill:url(#SVGID_16_);}
	.st35{fill:#0C294D;}
</style>
<g class="st0">
	<g>
		<path class="st1" d="M155,180.7c17.1-23.3,37.3-44.9,60.6-64c23.3-19.1,48.2-34.7,74.1-46.7L155,180.7z"/>
		<path class="st1" d="M347.4,49.3c7.9-2.1,15.9-3.9,23.9-5.4L112.5,256.6c3.1-7.7,6.7-15.2,10.3-22.7L347.4,49.3z"/>
		<path class="st1" d="M94.9,312c1.4-6.1,3-12.1,4.7-18l310-254.8c6.1-0.4,12.1-0.7,18.2-0.8L94.9,312z"/>
		<path class="st1" d="M474.7,40.8L87.1,359.4c0.5-5.3,1.2-10.5,1.9-15.8L459.2,39.3C464.4,39.7,469.5,40.2,474.7,40.8z"/>
		<path class="st1" d="M85.4,401.7c-0.1-4.7-0.1-9.5,0-14.2L501.8,45.2c4.5,0.9,9,2,13.5,3.1L85.4,401.7z"/>
		<path class="st1" d="M88.1,440.4c-0.5-4.4-1-8.7-1.4-13.1L539.5,55.2c4.1,1.3,8.1,2.7,12.2,4.2L88.1,440.4z"/>
		<path class="st1" d="M94.4,476.2c-0.9-4-1.7-8.1-2.5-12.2L573.3,68.3c3.7,1.7,7.4,3.3,11.1,5.1L94.4,476.2z"/>
		<path class="st1" d="M103.6,509.6c-1.2-3.8-2.3-7.6-3.5-11.4L604.1,84c3.4,1.9,6.7,3.9,10.1,5.9L103.6,509.6z"/>
		<path class="st1" d="M115.6,540.7c-1.5-3.5-3-7.1-4.4-10.6l520.9-428.2c3.1,2.2,6.1,4.4,9.2,6.7L115.6,540.7z"/>
		<path class="st1" d="M145,543.3h17.3l503.6-414c-2.7-2.5-5.5-5-8.3-7.4L145,543.3z"/>
		<path class="st1" d="M194.8,543.3H212l476.1-391.4c-2.5-2.7-4.9-5.5-7.4-8.1L194.8,543.3z"/>
		<path class="st1" d="M244.6,543.3h17.3l446.6-367.1c-1.1-1.5-2.1-3-3.3-4.4c-1.1-1.4-2.3-2.8-3.5-4.2L244.6,543.3z"/>
		<path class="st1" d="M294.4,543.3h17.3l414.9-341c-1.9-3.1-4-6.1-6.1-9.2L294.4,543.3z"/>
		<path class="st1" d="M344.2,543.3h17.3l380.9-313.1c-1.7-3.3-3.5-6.6-5.3-9.9L344.2,543.3z"/>
		<path class="st1" d="M394,543.3h17.3L755.8,260c-1.4-3.5-2.8-7.1-4.4-10.6L394,543.3z"/>
		<path class="st1" d="M443.8,543.3h17.3l305.8-251.4c-1.1-3.8-2.2-7.6-3.5-11.4L443.8,543.3z"/>
		<path class="st1" d="M493.6,543.3h17.3L775.1,326c-0.8-4.1-1.6-8.1-2.5-12.2L493.6,543.3z"/>
		<path class="st1" d="M543.4,543.3h17.3l219.6-180.5c-0.4-4.4-0.8-8.7-1.4-13.1L543.4,543.3z"/>
		<path class="st1" d="M593.2,543.3h17.3l171.1-140.7c0.1-4.7,0.1-9.5,0-14.2L593.2,543.3z"/>
		<path class="st1" d="M643,543.3h17.3L778,446.5c0.7-5.2,1.4-10.5,1.9-15.8L643,543.3z"/>
		<path class="st1" d="M692.8,543.3h17.3l57.3-47.1c1.7-6,3.3-12,4.7-18L692.8,543.3z"/>
		<path class="st1" d="M742.6,543.3h7.7c1.5-3.3,2.9-6.5,4.3-9.8L742.6,543.3z"/>
	</g>
</g>
<g>
	<circle class="st2" cx="331.5" cy="150" r="69.3"/>
	<linearGradient id="SVGID_1_" gradientUnits="userSpaceOnUse" x1="292.038" y1="150.0004" x2="370.8772" y2="150.0004">
		<stop  offset="0" style="stop-color:#F16A7E"/>
		<stop  offset="1" style="stop-color:#DD2376"/>
	</linearGradient>
	<circle class="st3" cx="331.5" cy="150" r="39.4"/>
	<circle class="st4" cx="332.1" cy="150.4" r="10.3"/>
	<path class="st4" d="M311.9,154.3c-2.2,0-4-1.8-4-4c0-13.3,10.8-24.1,24.1-24.1c2.2,0,4,1.8,4,4c0,2.2-1.8,4-4,4
		c-8.9,0-16.2,7.3-16.2,16.2C315.9,152.6,314.1,154.3,311.9,154.3z"/>
	<path class="st4" d="M332.1,174.5c-7.3,0-14.1-3.2-18.7-8.9c-1.4-1.7-1.1-4.2,0.6-5.6c1.7-1.4,4.2-1.1,5.6,0.6
		c3.1,3.8,7.7,6,12.6,6c2.2,0,4,1.8,4,4C336,172.7,334.3,174.5,332.1,174.5z"/>
</g>
<g>
	<g>
		<path class="st1" d="M72.3,84.2v55.9c-3.7,0.5-6.5,3.7-6.5,7.5c0,4.2,3.4,7.6,7.6,7.6c4.2,0,7.6-3.4,7.6-7.6c0-3.8-2.8-7-6.5-7.5
			v-55l30.4-30.4h62.3c0.5,3.7,3.7,6.5,7.5,6.5c4.2,0,7.6-3.4,7.6-7.6c0-4.2-3.4-7.6-7.6-7.6c-3.8,0-7,2.8-7.5,6.5h-63.2L72.3,84.2z
			"/>
		<path class="st1" d="M333.4,62.4c4.8,0,8.7-3.9,8.7-8.7c0-4.8-3.9-8.7-8.7-8.7c-4.4,0-8.1,3.3-8.6,7.6H202l-18.5,18.5h-68
			L89.3,97.2v42.9c-3.7,0.5-6.5,3.7-6.5,7.5c0,4.2,3.4,7.6,7.6,7.6c4.2,0,7.6-3.4,7.6-7.6c0-3.8-2.8-7-6.5-7.5v-42l24.9-24.9h68
			l18.5-18.5h121.8C325.3,59.1,329,62.4,333.4,62.4z M333.4,47.1c3.6,0,6.5,2.9,6.5,6.5c0,3.6-2.9,6.5-6.5,6.5
			c-3.6,0-6.5-2.9-6.5-6.5C326.9,50.1,329.8,47.1,333.4,47.1z"/>
		<path class="st1" d="M72.3,84.2v55.9c-3.7,0.5-6.5,3.7-6.5,7.5c0,4.2,3.4,7.6,7.6,7.6c4.2,0,7.6-3.4,7.6-7.6c0-3.8-2.8-7-6.5-7.5
			v-55l30.4-30.4h62.3c0.5,3.7,3.7,6.5,7.5,6.5c4.2,0,7.6-3.4,7.6-7.6c0-4.2-3.4-7.6-7.6-7.6c-3.8,0-7,2.8-7.5,6.5h-63.2L72.3,84.2z
			"/>
		<path class="st1" d="M333.4,62.4c4.8,0,8.7-3.9,8.7-8.7c0-4.8-3.9-8.7-8.7-8.7c-4.4,0-8.1,3.3-8.6,7.6H202l-18.5,18.5h-68
			L89.3,97.2v42.9c-3.7,0.5-6.5,3.7-6.5,7.5c0,4.2,3.4,7.6,7.6,7.6c4.2,0,7.6-3.4,7.6-7.6c0-3.8-2.8-7-6.5-7.5v-42l24.9-24.9h68
			l18.5-18.5h121.8C325.3,59.1,329,62.4,333.4,62.4z M333.4,47.1c3.6,0,6.5,2.9,6.5,6.5c0,3.6-2.9,6.5-6.5,6.5
			c-3.6,0-6.5-2.9-6.5-6.5C326.9,50.1,329.8,47.1,333.4,47.1z"/>
	</g>
</g>
<g>
	<g>
		<g>
			<polygon class="st1" points="449.7,147.6 489.6,147.6 527.2,185.2 527.2,484.7 577.9,535.4 576.6,536.7 525.3,485.4 525.3,186 
				488.8,149.4 449.7,149.4 			"/>
		</g>
		<g>
			<polygon class="st1" points="449.7,122.1 493,122.1 548.5,177.6 548.5,470.2 581.6,503.3 580.3,504.6 546.7,471 546.7,178.4 
				492.2,123.9 449.7,123.9 			"/>
		</g>
		<g>
			<polygon class="st1" points="449.7,100.1 498.8,100.1 565.1,166.4 565.1,453.4 581.6,469.9 580.3,471.3 563.2,454.2 563.2,167.2 
				498,102 449.7,102 			"/>
		</g>
		<g>
			<polygon class="st1" points="449.7,166.8 487.6,166.8 511,190.1 511,545.7 509.1,545.7 509.1,190.9 486.9,168.6 449.7,168.6 			
				"/>
		</g>
		<g>
			<path class="st1" d="M449.7,79.9h61.9l76.3,76.3c1.5,1.5,1.5,3.9,0,5.3c-1.5,1.5-3.9,1.5-5.3,0l-74.1-74.1h-58.8
				c-2.1,0-3.8-1.7-3.8-3.8S447.6,79.9,449.7,79.9z"/>
		</g>
		<g>
			<polygon class="st1" points="388.9,283.5 444.3,283.5 444.3,285.4 389.7,285.4 350.8,324.2 350.8,394 273.6,471.3 272.3,469.9 
				349,393.2 349,323.5 			"/>
		</g>
		<g>
			<polygon class="st1" points="397.5,306.2 444.3,306.2 444.3,308.1 398.2,308.1 376.4,329.9 376.4,393.7 285.8,484.3 285.8,536.1 
				283.9,536.1 283.9,483.5 374.5,392.9 374.5,329.1 			"/>
		</g>
		<g>
			<polygon class="st1" points="409.1,328.6 444.3,328.6 444.3,330.5 409.9,330.5 397.8,342.5 397.8,393.7 307.4,484 307.4,540.5 
				305.6,540.5 305.6,483.2 395.9,392.9 395.9,341.8 			"/>
		</g>
		<g>
			<path class="st1" d="M490.9,217.6c2.1,0,3.8,1.7,3.8,3.8v238.6l-36.3,36.3H343.3c-2.1,0-3.8-1.7-3.8-3.8s1.7-3.8,3.8-3.8h112
				l31.9-31.9V221.3C487.2,219.3,488.9,217.6,490.9,217.6z"/>
		</g>
		<g>
			<polygon class="st1" points="474.7,221.3 476.6,221.3 476.6,447.6 451.4,472.8 358.6,472.8 358.6,470.9 450.6,470.9 474.7,446.8 
							"/>
		</g>
		<g>
			<path class="st1" d="M436.3,195.9c1.2,0,2.2,1,2.2,2.2v31.6l-21.9,21.9h-33.4l-40.1,40.1c-0.9,0.9-2.3,0.9-3.2,0
				c-0.9-0.9-0.9-2.3,0-3.2l41.5-41.5h33.4l19.3-19.3v-29.8C434.1,196.9,435.1,195.9,436.3,195.9z"/>
		</g>
		<g>
			<polygon class="st1" points="442.9,236.2 443.7,236.9 418.8,261.8 386.9,261.8 350.9,297.8 350.1,297 386.4,260.7 418.4,260.7 
							"/>
		</g>
		<g>
			
				<ellipse transform="matrix(0.2673 -0.9636 0.9636 0.2673 -254.7232 608.7509)" class="st1" cx="272.9" cy="471.9" rx="6.7" ry="6.7"/>
		</g>
		<g>
			<circle class="st1" cx="444.3" cy="284.1" r="6.7"/>
		</g>
		<g>
			
				<ellipse transform="matrix(0.1602 -0.9871 0.9871 0.1602 180.9553 655.3691)" class="st1" cx="475.6" cy="221.3" rx="6.7" ry="6.7"/>
		</g>
		<g>
			<circle class="st1" cx="444.3" cy="307.2" r="6.7"/>
		</g>
		<g>
			
				<ellipse transform="matrix(0.7071 -0.7071 0.7071 0.7071 -103.3635 410.9116)" class="st1" cx="444.3" cy="330.2" rx="6.7" ry="6.7"/>
		</g>
		<g>
			<path class="st1" d="M348.1,295.7c2.5,0,4.5,2,4.5,4.5s-2,4.5-4.5,4.5c-2.5,0-4.5-2-4.5-4.5S345.6,295.7,348.1,295.7z
				 M348.1,303.7c1.9,0,3.4-1.5,3.4-3.4c0-1.9-1.5-3.4-3.4-3.4c-1.9,0-3.4,1.5-3.4,3.4C344.7,302.2,346.2,303.7,348.1,303.7z"/>
		</g>
		<g>
			<path class="st1" d="M445.9,229.2c2.5,0,4.5,2,4.5,4.5c0,2.5-2,4.5-4.5,4.5c-2.5,0-4.5-2-4.5-4.5
				C441.4,231.3,443.4,229.2,445.9,229.2z M445.9,237.2c1.9,0,3.4-1.5,3.4-3.4c0-1.9-1.5-3.4-3.4-3.4c-1.9,0-3.4,1.5-3.4,3.4
				C442.5,235.7,444.1,237.2,445.9,237.2z"/>
		</g>
		<g>
			<path class="st1" d="M443.2,160c4.2,0,7.7,3.4,7.7,7.7c0,4.2-3.4,7.7-7.7,7.7s-7.7-3.4-7.7-7.7C435.5,163.5,439,160,443.2,160z
				 M443.2,173.5c3.2,0,5.8-2.6,5.8-5.8c0-3.2-2.6-5.8-5.8-5.8s-5.8,2.6-5.8,5.8C437.4,170.9,440,173.5,443.2,173.5z"/>
		</g>
		<g>
			<path class="st1" d="M443.2,140.8c4.2,0,7.7,3.4,7.7,7.7s-3.4,7.7-7.7,7.7s-7.7-3.4-7.7-7.7S439,140.8,443.2,140.8z M443.2,154.3
				c3.2,0,5.8-2.6,5.8-5.8c0-3.2-2.6-5.8-5.8-5.8s-5.8,2.6-5.8,5.8C437.4,151.7,440,154.3,443.2,154.3z"/>
		</g>
		<g>
			<path class="st1" d="M443.2,115.3c4.2,0,7.7,3.4,7.7,7.7c0,4.2-3.4,7.7-7.7,7.7s-7.7-3.4-7.7-7.7
				C435.5,118.8,439,115.3,443.2,115.3z M443.2,128.8c3.2,0,5.8-2.6,5.8-5.8c0-3.2-2.6-5.8-5.8-5.8s-5.8,2.6-5.8,5.8
				C437.4,126.2,440,128.8,443.2,128.8z"/>
		</g>
		<g>
			<path class="st1" d="M443.2,93.4c4.2,0,7.7,3.4,7.7,7.7c0,4.2-3.4,7.7-7.7,7.7s-7.7-3.4-7.7-7.7C435.5,96.9,439,93.4,443.2,93.4z
				 M443.2,106.9c3.2,0,5.8-2.6,5.8-5.8c0-3.2-2.6-5.8-5.8-5.8s-5.8,2.6-5.8,5.8C437.4,104.3,440,106.9,443.2,106.9z"/>
		</g>
		<g>
			<path class="st1" d="M351.2,464.2c4.2,0,7.7,3.4,7.7,7.7c0,4.2-3.4,7.7-7.7,7.7s-7.7-3.4-7.7-7.7
				C343.5,467.6,346.9,464.2,351.2,464.2z M351.2,477.7c3.2,0,5.8-2.6,5.8-5.8c0-3.2-2.6-5.8-5.8-5.8c-3.2,0-5.8,2.6-5.8,5.8
				C345.4,475.1,348,477.7,351.2,477.7z"/>
		</g>
		<g>
			<polygon class="st1" points="449.7,147.6 489.6,147.6 527.2,185.2 527.2,484.7 577.9,535.4 576.6,536.7 525.3,485.4 525.3,186 
				488.8,149.4 449.7,149.4 			"/>
		</g>
		<g>
			<polygon class="st1" points="449.7,122.1 493,122.1 548.5,177.6 548.5,470.2 581.6,503.3 580.3,504.6 546.7,471 546.7,178.4 
				492.2,123.9 449.7,123.9 			"/>
		</g>
		<g>
			<polygon class="st1" points="449.7,100.1 498.8,100.1 565.1,166.4 565.1,453.4 581.6,469.9 580.3,471.3 563.2,454.2 563.2,167.2 
				498,102 449.7,102 			"/>
		</g>
		<g>
			<polygon class="st1" points="449.7,166.8 487.6,166.8 511,190.1 511,545.7 509.1,545.7 509.1,190.9 486.9,168.6 449.7,168.6 			
				"/>
		</g>
		<g>
			<path class="st1" d="M449.7,79.9h61.9l76.3,76.3c1.5,1.5,1.5,3.9,0,5.3c-1.5,1.5-3.9,1.5-5.3,0l-74.1-74.1h-58.8
				c-2.1,0-3.8-1.7-3.8-3.8S447.6,79.9,449.7,79.9z"/>
		</g>
		<g>
			<polygon class="st1" points="388.9,283.5 444.3,283.5 444.3,285.4 389.7,285.4 350.8,324.2 350.8,394 273.6,471.3 272.3,469.9 
				349,393.2 349,323.5 			"/>
		</g>
		<g>
			<polygon class="st1" points="397.5,306.2 444.3,306.2 444.3,308.1 398.2,308.1 376.4,329.9 376.4,393.7 285.8,484.3 285.8,536.1 
				283.9,536.1 283.9,483.5 374.5,392.9 374.5,329.1 			"/>
		</g>
		<g>
			<polygon class="st1" points="409.1,328.6 444.3,328.6 444.3,330.5 409.9,330.5 397.8,342.5 397.8,393.7 307.4,484 307.4,540.5 
				305.6,540.5 305.6,483.2 395.9,392.9 395.9,341.8 			"/>
		</g>
		<g>
			<path class="st1" d="M490.9,217.6c2.1,0,3.8,1.7,3.8,3.8v238.6l-36.3,36.3H343.3c-2.1,0-3.8-1.7-3.8-3.8s1.7-3.8,3.8-3.8h112
				l31.9-31.9V221.3C487.2,219.3,488.9,217.6,490.9,217.6z"/>
		</g>
		<g>
			<polygon class="st1" points="474.7,221.3 476.6,221.3 476.6,447.6 451.4,472.8 358.6,472.8 358.6,470.9 450.6,470.9 474.7,446.8 
							"/>
		</g>
		<g>
			<path class="st1" d="M436.3,195.9c1.2,0,2.2,1,2.2,2.2v31.6l-21.9,21.9h-33.4l-40.1,40.1c-0.9,0.9-2.3,0.9-3.2,0
				c-0.9-0.9-0.9-2.3,0-3.2l41.5-41.5h33.4l19.3-19.3v-29.8C434.1,196.9,435.1,195.9,436.3,195.9z"/>
		</g>
		<g>
			<polygon class="st1" points="442.9,236.2 443.7,236.9 418.8,261.8 386.9,261.8 350.9,297.8 350.1,297 386.4,260.7 418.4,260.7 
							"/>
		</g>
		<g>
			
				<ellipse transform="matrix(0.2673 -0.9636 0.9636 0.2673 -254.7232 608.7509)" class="st1" cx="272.9" cy="471.9" rx="6.7" ry="6.7"/>
		</g>
		<g>
			<circle class="st1" cx="444.3" cy="284.1" r="6.7"/>
		</g>
		<g>
			
				<ellipse transform="matrix(0.1602 -0.9871 0.9871 0.1602 180.9553 655.3691)" class="st1" cx="475.6" cy="221.3" rx="6.7" ry="6.7"/>
		</g>
		<g>
			<circle class="st1" cx="444.3" cy="307.2" r="6.7"/>
		</g>
		<g>
			
				<ellipse transform="matrix(0.7071 -0.7071 0.7071 0.7071 -103.3635 410.9116)" class="st1" cx="444.3" cy="330.2" rx="6.7" ry="6.7"/>
		</g>
		<g>
			<path class="st1" d="M348.1,295.7c2.5,0,4.5,2,4.5,4.5s-2,4.5-4.5,4.5c-2.5,0-4.5-2-4.5-4.5S345.6,295.7,348.1,295.7z
				 M348.1,303.7c1.9,0,3.4-1.5,3.4-3.4c0-1.9-1.5-3.4-3.4-3.4c-1.9,0-3.4,1.5-3.4,3.4C344.7,302.2,346.2,303.7,348.1,303.7z"/>
		</g>
		<g>
			<path class="st1" d="M445.9,229.2c2.5,0,4.5,2,4.5,4.5c0,2.5-2,4.5-4.5,4.5c-2.5,0-4.5-2-4.5-4.5
				C441.4,231.3,443.4,229.2,445.9,229.2z M445.9,237.2c1.9,0,3.4-1.5,3.4-3.4c0-1.9-1.5-3.4-3.4-3.4c-1.9,0-3.4,1.5-3.4,3.4
				C442.5,235.7,444.1,237.2,445.9,237.2z"/>
		</g>
		<g>
			<path class="st1" d="M443.2,160c4.2,0,7.7,3.4,7.7,7.7c0,4.2-3.4,7.7-7.7,7.7s-7.7-3.4-7.7-7.7C435.5,163.5,439,160,443.2,160z
				 M443.2,173.5c3.2,0,5.8-2.6,5.8-5.8c0-3.2-2.6-5.8-5.8-5.8s-5.8,2.6-5.8,5.8C437.4,170.9,440,173.5,443.2,173.5z"/>
		</g>
		<g>
			<path class="st1" d="M443.2,140.8c4.2,0,7.7,3.4,7.7,7.7s-3.4,7.7-7.7,7.7s-7.7-3.4-7.7-7.7S439,140.8,443.2,140.8z M443.2,154.3
				c3.2,0,5.8-2.6,5.8-5.8c0-3.2-2.6-5.8-5.8-5.8s-5.8,2.6-5.8,5.8C437.4,151.7,440,154.3,443.2,154.3z"/>
		</g>
		<g>
			<path class="st1" d="M443.2,115.3c4.2,0,7.7,3.4,7.7,7.7c0,4.2-3.4,7.7-7.7,7.7s-7.7-3.4-7.7-7.7
				C435.5,118.8,439,115.3,443.2,115.3z M443.2,128.8c3.2,0,5.8-2.6,5.8-5.8c0-3.2-2.6-5.8-5.8-5.8s-5.8,2.6-5.8,5.8
				C437.4,126.2,440,128.8,443.2,128.8z"/>
		</g>
		<g>
			<path class="st1" d="M443.2,93.4c4.2,0,7.7,3.4,7.7,7.7c0,4.2-3.4,7.7-7.7,7.7s-7.7-3.4-7.7-7.7C435.5,96.9,439,93.4,443.2,93.4z
				 M443.2,106.9c3.2,0,5.8-2.6,5.8-5.8c0-3.2-2.6-5.8-5.8-5.8s-5.8,2.6-5.8,5.8C437.4,104.3,440,106.9,443.2,106.9z"/>
		</g>
		<g>
			<path class="st1" d="M351.2,464.2c4.2,0,7.7,3.4,7.7,7.7c0,4.2-3.4,7.7-7.7,7.7s-7.7-3.4-7.7-7.7
				C343.5,467.6,346.9,464.2,351.2,464.2z M351.2,477.7c3.2,0,5.8-2.6,5.8-5.8c0-3.2-2.6-5.8-5.8-5.8c-3.2,0-5.8,2.6-5.8,5.8
				C345.4,475.1,348,477.7,351.2,477.7z"/>
		</g>
	</g>
</g>
<g>
	<g>
		<path class="st1" d="M130.1,405.7v34.1l-41.5,41.5l0.9,0.9l41.7-41.7l0.2-0.2v-34.1l19.9-19.9h21.3l15.9-15.9V349
			c2.3-0.3,4-2.3,4-4.6c0-2.6-2.1-4.7-4.7-4.7c-2.6,0-4.7,2.1-4.7,4.7c0,2.4,1.7,4.3,4,4.6v20.9l-15.1,15.1h-21.3L130.1,405.7z"/>
		<path class="st1" d="M204.4,374.2V349c2.3-0.3,4-2.3,4-4.6c0-2.6-2.1-4.7-4.7-4.7c-2.6,0-4.7,2.1-4.7,4.7c0,2.4,1.7,4.3,4,4.6
			v24.7l-25.1,25.1h-23.4L144,409.4v72.3h1.3V410l9.8-9.8h23.4L204.4,374.2z"/>
		<path class="st1" d="M160.3,487.4c1.6,0,2.9-1.3,2.9-2.9v-58.7l7.8-7.8h15.9l35-35v-38.7c0-1.6-1.3-2.9-2.9-2.9
			c-1.6,0-2.9,1.3-2.9,2.9v36.4l-31.7,31.7h-15.9l-11.1,11.1v61.1C157.4,486.2,158.7,487.4,160.3,487.4z"/>
		<path class="st1" d="M130.1,405.7v34.1l-41.5,41.5l0.9,0.9l41.7-41.7l0.2-0.2v-34.1l19.9-19.9h21.3l15.9-15.9V349
			c2.3-0.3,4-2.3,4-4.6c0-2.6-2.1-4.7-4.7-4.7c-2.6,0-4.7,2.1-4.7,4.7c0,2.4,1.7,4.3,4,4.6v20.9l-15.1,15.1h-21.3L130.1,405.7z"/>
		<path class="st1" d="M204.4,374.2V349c2.3-0.3,4-2.3,4-4.6c0-2.6-2.1-4.7-4.7-4.7c-2.6,0-4.7,2.1-4.7,4.7c0,2.4,1.7,4.3,4,4.6
			v24.7l-25.1,25.1h-23.4L144,409.4v72.3h1.3V410l9.8-9.8h23.4L204.4,374.2z"/>
		<path class="st1" d="M160.3,487.4c1.6,0,2.9-1.3,2.9-2.9v-58.7l7.8-7.8h15.9l35-35v-38.7c0-1.6-1.3-2.9-2.9-2.9
			c-1.6,0-2.9,1.3-2.9,2.9v36.4l-31.7,31.7h-15.9l-11.1,11.1v61.1C157.4,486.2,158.7,487.4,160.3,487.4z"/>
	</g>
</g>
<g>
	<g>
		<path class="st1" d="M234.6,108.7c0-11-9-20-20-20H75c-11,0-20,9-20,20l0.3,240c0,11,9,20,20,20h139.6c11,0,20-9,20-20
			L234.6,108.7z"/>
		<path class="st5" d="M230.8,111.6c0-11-9-19.9-20-19.9H79.2c-11,0-19.9,8.9-19.9,19.9l0.3,233.3c0,11,9,19.9,20,19.9h131.6
			c11,0,19.9-8.9,19.9-19.9L230.8,111.6z"/>
		<g>
			<path class="st1" d="M111.4,101.1c0,1.6-1.3,2.9-2.9,2.9c-1.6,0-2.9-1.3-2.9-2.9c0-1.6,1.3-2.9,2.9-2.9
				C110.1,98.3,111.4,99.6,111.4,101.1z"/>
			<path class="st1" d="M167.3,104.2h-44.1c-1.6,0-3-1.3-3-3l0,0c0-1.6,1.3-3,3-3h44.1c1.6,0,3,1.3,3,3l0,0
				C170.2,102.9,168.9,104.2,167.3,104.2z"/>
		</g>
	</g>
	<g>
		<linearGradient id="SVGID_2_" gradientUnits="userSpaceOnUse" x1="153.7843" y1="151.725" x2="183.8385" y2="151.725">
			<stop  offset="0" style="stop-color:#3A77BC"/>
			<stop  offset="1" style="stop-color:#2B4057"/>
		</linearGradient>
		<path class="st6" d="M158.3,126.8l-4.5,12.3c13.4,4.9,20.3,19.7,15.4,33.1l12.3,4.5C188.8,156.5,178.4,134.2,158.3,126.8z"/>
		<path class="st7" d="M128.5,128.1l5.5,11.9c6.5-3,13.5-3.1,19.7-0.8l4.5-12.3C148.9,123.4,138.3,123.5,128.5,128.1z"/>
		<path class="st1" d="M108.4,150l12.3,4.5c2.4-6.7,7.4-11.8,13.3-14.5l-5.5-11.9C119.5,132.3,112.1,139.9,108.4,150z"/>
		<path class="st1" d="M131.6,199.9l4.5-12.3c13.4,4.9,28.2-2,33.1-15.4l12.3,4.5C174.1,196.8,151.8,207.2,131.6,199.9z"/>
		<linearGradient id="SVGID_3_" gradientUnits="userSpaceOnUse" x1="109.6907" y1="187.033" x2="136.1029" y2="187.033">
			<stop  offset="0" style="stop-color:#F16A7E"/>
			<stop  offset="1" style="stop-color:#DD2376"/>
		</linearGradient>
		<path class="st8" d="M109.7,179.7l11.9-5.5c3,6.5,8.3,11.1,14.5,13.3l-4.5,12.3C122.3,196.4,114.2,189.5,109.7,179.7z"/>
		<path class="st7" d="M108.4,150l12.3,4.5c-2.4,6.7-1.9,13.7,0.8,19.7l-11.9,5.5C105.5,170.7,104.7,160.1,108.4,150z"/>
	</g>
	<g>
		<rect x="83.7" y="242.6" class="st1" width="9.4" height="26.9"/>
		<rect x="102.6" y="231.4" class="st1" width="9.4" height="38.2"/>
		<rect x="112" y="244.1" class="st9" width="9.4" height="25.4"/>
		<rect x="121.4" y="237.9" class="st1" width="9.4" height="31.7"/>
		<rect x="130.8" y="231.4" class="st9" width="9.4" height="38.2"/>
		<rect x="140.2" y="223.1" class="st1" width="9.4" height="46.4"/>
		<rect x="93.2" y="224.7" class="st9" width="9.4" height="44.8"/>
		<rect x="159.1" y="231.4" class="st1" width="9.4" height="38.2"/>
		<rect x="168.5" y="244.1" class="st9" width="9.4" height="25.4"/>
		<rect x="177.9" y="237.9" class="st1" width="9.4" height="31.7"/>
		<rect x="187.3" y="231.4" class="st9" width="9.4" height="38.2"/>
		<rect x="196.7" y="223.1" class="st1" width="9.4" height="46.4"/>
		<rect x="149.7" y="224.7" class="st9" width="9.4" height="44.8"/>
	</g>
	<g>
		<rect x="83.4" y="288.5" class="st1" width="123.1" height="6.1"/>
		<rect x="83.4" y="301.6" class="st1" width="123.1" height="6.1"/>
		<rect x="83.4" y="314.7" class="st1" width="123.1" height="6.1"/>
		<rect x="83.4" y="327.8" class="st1" width="123.1" height="6.1"/>
	</g>
</g>
<g>
	<g>
		<g>
			<g>
				<path class="st10" d="M708.8,460.5c-1.6,2.7-3.8,5.2-5.8,7.6c-3.1,3.6-6.3,7-9.4,10.5c-7.9,8.6-15.7,17.4-22.7,26.7
					c-2,2.7-4,5.5-5.9,8.3c-1.8,2.7-3.6,5.5-5,8.4c-0.1,0.3,0.3,0.5,0.4,0.3c1.5-2.4,3-4.9,4.6-7.3c1.7-2.5,3.4-4.9,5.2-7.3
					c3.6-4.9,7.5-9.6,11.5-14.2c6.9-8,14.2-15.7,21.1-23.7c2.4-2.8,4.9-5.6,6.6-8.9C709.5,460.5,709,460.2,708.8,460.5L708.8,460.5z
					"/>
			</g>
		</g>
		<path class="st9" d="M718.8,453.4c-1,1.4-2.5,2-4.5,3c0.6-2.5,0.9-5.8-0.3-6.5c-1-0.6-3.7,1.6-5.8,4.5c-1.9-4.6-0.7-6-1.7-6
			c-2.4-0.1-7.4,13.7,0.2,16.7c9.9,1.2,13.5-10.3,13.5-10.3C720.7,452.9,720.2,451.4,718.8,453.4z"/>
		<g>
			<path class="st11" d="M709.2,452.5c-0.4,0.3-0.3,0.8,0,1.1c0.4,0.3,0.9,0.3,1.3,0c0.4-0.3,0.3-0.8,0-1.1
				C710.1,452.2,709.5,452.2,709.2,452.5z"/>
			<path class="st11" d="M714.8,452.9c-0.4,0.3-0.3,0.8,0,1.1c0.4,0.3,0.9,0.3,1.3,0c0.4-0.3,0.3-0.8,0-1.1S715.2,452.6,714.8,452.9
				z"/>
			<path class="st11" d="M710.4,449.7c-0.4,0.3-0.3,0.8,0,1.1c0.4,0.3,0.9,0.3,1.3,0c0.4-0.3,0.3-0.8,0-1.1
				C711.3,449.4,710.7,449.5,710.4,449.7z"/>
			<path class="st11" d="M715.5,451.6c-0.2,0.2-0.2,0.4,0,0.6c0.2,0.2,0.5,0.2,0.7,0c0.2-0.2,0.2-0.4,0-0.6
				C716,451.5,715.7,451.5,715.5,451.6z"/>
			<path class="st11" d="M708.2,451c-0.2,0.2-0.2,0.4,0,0.6c0.2,0.2,0.5,0.2,0.7,0c0.2-0.2,0.2-0.4,0-0.6
				C708.7,450.8,708.4,450.8,708.2,451z"/>
		</g>
	</g>
	<g>
		<g>
			<g>
				<path class="st10" d="M73.3,482.9c2.6,2.2,5.5,4,8.4,5.8c4.3,2.6,8.7,5.1,13.1,7.5c5.3,3,10.6,6,15.8,9
					c5.6,3.3,11.2,6.7,16.6,10.2c5.3,3.5,10.5,7.3,15.5,11.2c0.6,0.4,1.1,0.9,1.7,1.3c0.2,0.2,0.5-0.2,0.3-0.4c-2.2-2.1-4.6-4-7-5.8
					c-2.6-2-5.2-3.8-7.9-5.6c-5.4-3.6-10.9-7.1-16.5-10.4c-5.3-3.1-10.7-6.2-16.1-9.2c-4.5-2.5-9.1-5-13.6-7.6
					c-3.2-1.8-6.4-3.7-9.3-5.9c-0.3-0.2-0.5-0.4-0.7-0.6C73.4,482.2,73,482.6,73.3,482.9L73.3,482.9z"/>
			</g>
		</g>
		<path class="st9" d="M61.4,478.4c1.5,1,3.2,1.2,5.4,1.6c-1.6-2.2-3.2-5.2-2.3-6.2c0.7-0.9,4.1,0.5,7.3,2.8c0-4.9-1.8-5.8-0.9-6.2
			c2.2-0.8,12.6,11,6.6,15.9c-8.8,3.8-16.9-6.2-16.9-6.2C59.4,478.4,59.2,476.9,61.4,478.4z"/>
		<g>
			<path class="st11" d="M70.1,475c0.5,0.2,0.6,0.6,0.4,1c-0.2,0.4-0.8,0.5-1.2,0.3c-0.5-0.2-0.6-0.6-0.4-1
				C69.1,474.9,69.7,474.8,70.1,475z"/>
			<path class="st11" d="M65,476.9c0.5,0.2,0.6,0.6,0.4,1c-0.2,0.4-0.8,0.5-1.2,0.3c-0.5-0.2-0.6-0.6-0.4-1
				C64,476.8,64.5,476.7,65,476.9z"/>
			<path class="st11" d="M67.9,472.7c0.5,0.2,0.6,0.6,0.4,1c-0.2,0.4-0.8,0.5-1.2,0.3c-0.5-0.2-0.6-0.6-0.4-1
				C66.9,472.7,67.4,472.5,67.9,472.7z"/>
			<path class="st11" d="M63.8,475.8c0.3,0.1,0.4,0.4,0.2,0.6c-0.1,0.2-0.4,0.3-0.7,0.2c-0.3-0.1-0.4-0.4-0.2-0.6
				C63.2,475.8,63.5,475.7,63.8,475.8z"/>
			<path class="st11" d="M70.5,473.3c0.3,0.1,0.4,0.4,0.2,0.6c-0.1,0.2-0.4,0.3-0.7,0.2c-0.3-0.1-0.4-0.4-0.2-0.6
				C69.9,473.3,70.2,473.2,70.5,473.3z"/>
		</g>
	</g>
	<g>
		<path class="st9" d="M168.2,525.3c0,0-34.5-79.1-78.6-97.6c-9.3-3.9-15.8-5.3-19.8-4.9c-15.1,1.8,5.2,29.2,37.6,55.9
			c33.2,27.4,30.9,29.8,49.8,49.8"/>
		<path class="st5" d="M69.8,424.9c8,5.7,15.7,11.9,23,18.4c0.1-4.4-1-8.6-1.7-13c0-0.3,0.5-0.5,0.6-0.2c2.1,3.9,3,9.6,1.9,14
			c5.1,4.5,10,9.2,14.7,14c0-1.9,0.2-3.8,0.2-5.7c0.1-3.5-0.7-6.7-1.4-10.1c-0.1-0.3,0.5-0.5,0.6-0.2c2.6,5.4,2,11.1,1.3,16.8
			c5.4,5.5,10.6,11.1,15.5,16.8c0-1.6,0.2-3.2,0.2-4.8c0.1-3.5-0.7-6.7-1.4-10.1c-0.1-0.3,0.5-0.5,0.6-0.2c2.5,5.2,2,10.7,1.4,16.1
			c4.2,4.9,8.3,9.8,12.2,14.7c0-1.5,0.2-3,0.2-4.6c0.1-3.5-0.7-6.7-1.4-10.1c-0.1-0.3,0.5-0.5,0.6-0.2c2.5,5.2,2,10.6,1.4,16
			c0.1,0.2,0.3,0.3,0.4,0.5c6.4,8.1,12.6,16.4,18.2,25c0.9,1.4,6.1,7.6,4.9,9.4c-0.2,0.4-0.9,0-0.7-0.3c0.3-0.4-1.7-3.1-2-3.7
			c-1.5-2.5-3.2-5-4.8-7.4c-5.2-7.6-10.8-15-16.7-22.3c-0.1,0-0.2-0.1-0.2-0.3c0,0,0,0,0,0c-0.6-0.8-1.2-1.5-1.8-2.3
			c-2-2.4-4-4.8-6.1-7.2c-0.9,0.2-1.8,0.2-2.7,0.2c-1.9-0.1-4.1-0.3-5.8-1.1c-0.3-0.1-0.1-0.5,0.2-0.5c2.5,0,5.1,0.7,7.6,0.7
			c-3.5-4.1-7.1-8.1-10.8-12.1c-0.7,0.1-1.5,0.1-2.2,0.1c-1.9-0.1-4.1-0.3-5.8-1.1c-0.3-0.1-0.1-0.5,0.2-0.5c2.3,0,4.7,0.6,7,0.7
			c-0.8-0.8-1.6-1.7-2.3-2.5c-5.9,1.6-15-1.9-18.9-5.2c-0.3-0.2,0.1-0.6,0.4-0.4c4.9,2.5,11.7,5.8,17.9,5c-4.3-4.5-8.8-9-13.3-13.4
			c-5.9,1.5-14.9-2-18.7-5.3c-0.3-0.2,0.1-0.6,0.4-0.4c4.8,2.4,11.4,5.7,17.6,5.1c-10-9.6-20.5-18.9-31.5-27.9
			C68.9,425,69.4,424.7,69.8,424.9z"/>
	</g>
	<g>
		<path class="st9" d="M659.5,529.1c0,0,72.1-60.3,121.8-62.3c10.5-0.4,17.1,0.5,20.5,2.2c12.8,6.7-19.8,24.8-63,38.1
			c-44.3,13.7-43.4,16.7-70.9,28.5"/>
		<path class="st5" d="M800.7,471c-10.3,2.5-20.4,5.5-30.4,9c2.2-4,5.4-7.5,8.2-11.2c0.2-0.2-0.2-0.6-0.5-0.4
			c-3.9,2.9-7.7,7.7-8.9,12c-7,2.4-13.8,5-20.6,7.8c1-1.7,1.8-3.5,2.7-5.2c1.7-3.2,4.1-5.8,6.4-8.7c0.2-0.2-0.2-0.6-0.5-0.4
			c-5.2,4-7.5,9.4-9.8,14.8c-7.7,3.2-15.3,6.6-22.8,10.1c0.8-1.5,1.4-3,2.2-4.4c1.7-3.2,4.1-5.8,6.4-8.7c0.2-0.2-0.2-0.6-0.5-0.4
			c-5,3.9-7.3,9-9.5,14.1c-6.3,3-12.6,6.1-18.7,9.3c0.7-1.4,1.4-2.8,2.1-4.2c1.7-3.2,4.1-5.8,6.4-8.7c0.2-0.2-0.2-0.6-0.5-0.4
			c-4.9,3.8-7.3,8.9-9.5,14.1c-0.2,0.1-0.4,0.2-0.6,0.3c-10,5.2-20,10.7-29.4,16.6c-1.6,1-9.5,4.8-9.3,6.9c0,0.4,0.8,0.3,0.8-0.1
			c0-0.5,3.1-2.3,3.7-2.7c2.7-1.8,5.5-3.5,8.2-5.1c8.6-5.2,17.6-10,26.7-14.7c0.1,0,0.3,0,0.3-0.2c0,0,0,0,0,0
			c0.9-0.5,1.9-1,2.8-1.5c3.1-1.6,6.2-3.1,9.3-4.5c0.7,0.5,1.5,0.8,2.3,1.1c1.8,0.6,3.9,1.1,5.8,1c0.4,0,0.4-0.4,0.1-0.5
			c-2.3-0.8-5-1.1-7.3-2c5.3-2.5,10.7-5,16.1-7.3c0.6,0.4,1.3,0.6,2,0.8c1.8,0.6,3.9,1.1,5.8,1c0.4,0,0.4-0.4,0.1-0.5
			c-2.1-0.8-4.5-1-6.7-1.8c1.1-0.5,2.3-1,3.4-1.5c4.6,3.5,14.6,3.4,19.9,1.6c0.4-0.1,0.2-0.6-0.2-0.5c-5.7,0.6-13.6,1.4-18.9-1.4
			c6.3-2.7,12.6-5.2,19-7.7c4.6,3.3,14.5,3.2,19.7,1.5c0.4-0.1,0.2-0.6-0.2-0.5c-5.6,0.6-13.4,1.3-18.6-1.3
			c14.1-5.4,28.4-10.3,43-14.7C801.4,471.4,801.1,470.9,800.7,471z"/>
	</g>
	<g>
		<g>
			<path class="st1" d="M180.2,531.7c0,0-9.9-99.8-50.5-100.4c-40.5-0.6,19.1,68.3,29.1,90.8c0,0-46.6-68-66.9-51.3
				c-20.3,16.7,38.3,40.1,52.6,55.5c0,0-89.8-50.7-92.9-18.6c-0.4,4.6,5.4,10.9,25.8,14.1c20.3,3.2,47.9,4.2,65.4,19.5"/>
			<g>
				<g>
					<path class="st5" d="M130.9,442.6c3.8,5,7.1,10.4,10.2,15.9c3.4,6,6.5,12.2,9.4,18.5c2.9,6.4,5.7,13,8.2,19.6
						c2.5,6.3,4.8,12.7,6.9,19.2c1.9,5.8,3.7,11.6,5.6,17.4c0.2,0.7,0.4,1.3,0.7,2c0.2,0.4,0.8,0.3,0.7-0.2
						c-0.6-2.8-1.5-5.6-2.3-8.4c-0.9-3-1.8-6-2.8-9c-2.1-6.4-4.3-12.8-6.7-19.2c-2.5-6.6-5.2-13.2-8.1-19.6
						c-2.9-6.4-5.9-12.6-9.4-18.7c-3.1-5.6-6.5-11.1-10.4-16.1c-0.4-0.6-0.9-1.2-1.4-1.7C131.3,441.7,130.6,442.2,130.9,442.6
						L130.9,442.6z"/>
				</g>
			</g>
			<g>
				<g>
					<path class="st5" d="M98.2,476.9c9.7,7,18.9,14.6,27.7,22.7c8.7,7.9,17,16.3,24.9,24.9c2.1,2.2,4.1,4.5,6.1,6.7
						c1.9,2.1,3.7,4.2,5.7,6.3c0.3,0.3,0.8-0.1,0.6-0.4c-1.5-2-3.1-3.9-4.7-5.8c-1.7-2-3.5-4-5.3-6c-3.9-4.3-7.8-8.5-11.8-12.6
						c-8.5-8.7-17.4-17-26.9-24.7c-5.1-4.2-10.3-8.1-15.8-11.7C98.2,475.9,97.8,476.6,98.2,476.9L98.2,476.9z"/>
				</g>
			</g>
			<g>
				<g>
					<path class="st5" d="M66.3,507.3c10.6,1.4,21.1,3.7,31.4,6.8c12.5,3.7,24.6,8.4,36.3,14.2c3.5,1.7,7,3.6,10.4,5.5
						c3.5,2,6.9,4.1,10.4,6.1c0.4,0.2,0.7-0.4,0.4-0.6c-2.9-2.2-6-4.1-9.2-5.9c-3.1-1.8-6.2-3.5-9.4-5.1c-6-3.1-12.2-5.9-18.5-8.5
						c-11.3-4.5-23-8.2-34.9-10.7c-5.6-1.2-11.2-2.1-16.9-2.6C65.8,506.4,65.8,507.2,66.3,507.3L66.3,507.3z"/>
				</g>
			</g>
		</g>
		<g>
			<path class="st1" d="M638.7,531.7c0,0,9.9-99.8,50.5-100.4c40.5-0.6-19.1,68.3-29.1,90.8c0,0,46.6-68,66.9-51.3
				c20.3,16.7-38.3,40.1-52.6,55.5c0,0,89.8-50.7,92.9-18.6c0.4,4.6-5.4,10.9-25.8,14.1c-20.3,3.2-47.9,4.2-65.4,19.5"/>
			<g>
				<g>
					<path class="st5" d="M687.3,442.1c-4,5-7.4,10.3-10.6,15.8c-3.5,6-6.6,12.1-9.5,18.4c-3,6.4-5.7,13-8.2,19.6
						c-2.5,6.4-4.8,12.9-6.9,19.4c-1.9,5.8-3.8,11.6-5.3,17.6c-0.2,0.7-0.3,1.3-0.5,2c-0.1,0.5,0.5,0.6,0.7,0.2
						c1-2.7,1.8-5.4,2.6-8.2c1-3,1.9-5.9,2.9-8.9c2.1-6.4,4.4-12.8,6.8-19.1c2.5-6.6,5.2-13.1,8.1-19.6c2.8-6.3,5.9-12.6,9.2-18.6
						c3.1-5.6,6.4-11.1,10.1-16.2c0.4-0.6,0.9-1.2,1.3-1.8C688.3,442.2,687.6,441.7,687.3,442.1L687.3,442.1z"/>
				</g>
			</g>
			<g>
				<g>
					<path class="st5" d="M720.3,476.2c-10,6.6-19.2,14.3-28,22.3c-8.8,8-17.1,16.5-25.2,25.3c-2,2.2-4,4.4-6,6.7
						c-1.8,2.1-3.7,4.3-5.4,6.6c-0.2,0.3,0.3,0.7,0.6,0.4c1.7-1.8,3.4-3.7,5-5.6c1.8-2,3.5-3.9,5.3-5.9c3.9-4.2,7.8-8.4,11.8-12.4
						c8.5-8.6,17.2-16.8,26.5-24.5c5.1-4.2,10.3-8.3,15.7-12.2C721.1,476.6,720.7,475.9,720.3,476.2L720.3,476.2z"/>
				</g>
			</g>
			<g>
				<g>
					<path class="st5" d="M752.6,506.4c-10.8,1-21.4,3.3-31.8,6.3c-12.5,3.7-24.7,8.5-36.3,14.3c-3.5,1.8-7,3.6-10.4,5.6
						c-3.5,2-7.1,4.1-10.4,6.6c-0.4,0.3-0.1,0.9,0.4,0.6c3.2-1.8,6.3-3.7,9.4-5.5c3-1.7,6.1-3.4,9.2-5c6-3.1,12.1-5.8,18.4-8.3
						c11.2-4.5,22.9-8.2,34.7-10.8c5.5-1.2,11.2-2.2,16.8-3C753.1,507.2,753.2,506.4,752.6,506.4L752.6,506.4z"/>
				</g>
			</g>
		</g>
	</g>
</g>
<g>
	<path class="st1" d="M24.6,533.4c0,0,35.6,25,84.4,29.3c48.8,4.2,103-18,141.1-16.3c38.1,1.8,68.8,16,165.4-1.4
		c39.3-7.1,90,18.7,132.4,19.1c74.5,0.8,94.3-17.3,131.1-16.7c36,0.6,93.7,31.8,154-14"/>
	<linearGradient id="SVGID_4_" gradientUnits="userSpaceOnUse" x1="22" y1="533.4087" x2="836" y2="533.4087">
		<stop  offset="0" style="stop-color:#3A77BC"/>
		<stop  offset="1" style="stop-color:#2B4057"/>
	</linearGradient>
	<path class="st12" d="M834.1,534.8H23.9c-1,0-1.9-0.6-1.9-1.4l0,0c0-0.8,0.8-1.4,1.9-1.4h810.3c1,0,1.9,0.6,1.9,1.4l0,0
		C836,534.2,835.2,534.8,834.1,534.8z"/>
</g>
<g class="st13">
	<path class="st14" d="M269,29.1c0,0.6-0.5,1.1-1.1,1.1h-3.7c-0.6,0-1.1-0.5-1.1-1.1c0-0.6,0.5-1.1,1.1-1.1h3.7
		C268.5,28,269,28.5,269,29.1z M258.1,29.1c0,0.6-0.5,1.1-1.1,1.1h-3.7c-0.6,0-1.1-0.5-1.1-1.1c0-0.6,0.5-1.1,1.1-1.1h3.7
		C257.6,28,258.1,28.5,258.1,29.1z M247.3,29.1c0,0.6-0.5,1.1-1.1,1.1h-3.7c-0.6,0-1.1-0.5-1.1-1.1c0-0.6,0.5-1.1,1.1-1.1h3.7
		C246.8,28,247.3,28.5,247.3,29.1z M236.4,29.1c0,0.6-0.5,1.1-1.1,1.1h-3.7c-0.6,0-1.1-0.5-1.1-1.1c0-0.6,0.5-1.1,1.1-1.1h3.7
		C236,28,236.4,28.5,236.4,29.1z M225.6,29.1c0,0.6-0.5,1.1-1.1,1.1h-3.7c-0.6,0-1.1-0.5-1.1-1.1c0-0.6,0.5-1.1,1.1-1.1h3.7
		C225.1,28,225.6,28.5,225.6,29.1z M214.8,29.1c0,0.6-0.5,1.1-1.1,1.1H210c-0.6,0-1.1-0.5-1.1-1.1c0-0.6,0.5-1.1,1.1-1.1h3.7
		C214.3,28,214.8,28.5,214.8,29.1z M203.9,29.1c0,0.6-0.5,1.1-1.1,1.1h-3.7c-0.6,0-1.1-0.5-1.1-1.1c0-0.6,0.5-1.1,1.1-1.1h3.7
		C203.4,28,203.9,28.5,203.9,29.1z M193.1,29.1c0,0.6-0.5,1.1-1.1,1.1h-3.7c-0.6,0-1.1-0.5-1.1-1.1c0-0.6,0.5-1.1,1.1-1.1h3.7
		C192.6,28,193.1,28.5,193.1,29.1z M182.2,29.1c0,0.6-0.5,1.1-1.1,1.1h-3.7c-0.6,0-1.1-0.5-1.1-1.1c0-0.6,0.5-1.1,1.1-1.1h3.7
		C181.8,28,182.2,28.5,182.2,29.1z M171.4,29.1c0,0.6-0.5,1.1-1.1,1.1h-3.7c-0.6,0-1.1-0.5-1.1-1.1c0-0.6,0.5-1.1,1.1-1.1h3.7
		C170.9,28,171.4,28.5,171.4,29.1z M377.8,29.1c0,0.6-0.5,1.1-1.1,1.1H373c-0.6,0-1.1-0.5-1.1-1.1c0-0.6,0.5-1.1,1.1-1.1h3.7
		C377.4,28,377.8,28.5,377.8,29.1z M367,29.1c0,0.6-0.5,1.1-1.1,1.1h-3.7c-0.6,0-1.1-0.5-1.1-1.1c0-0.6,0.5-1.1,1.1-1.1h3.7
		C366.5,28,367,28.5,367,29.1z M356.2,29.1c0,0.6-0.5,1.1-1.1,1.1h-3.7c-0.6,0-1.1-0.5-1.1-1.1c0-0.6,0.5-1.1,1.1-1.1h3.7
		C355.7,28,356.2,28.5,356.2,29.1z M412.1,29.1c0,0.6-0.5,1.1-1.1,1.1h-3.7c-0.6,0-1.1-0.5-1.1-1.1c0-0.6,0.5-1.1,1.1-1.1h3.7
		C411.6,28,412.1,28.5,412.1,29.1z M401.3,29.1c0,0.6-0.5,1.1-1.1,1.1h-3.7c-0.6,0-1.1-0.5-1.1-1.1c0-0.6,0.5-1.1,1.1-1.1h3.7
		C400.8,28,401.3,28.5,401.3,29.1z M390.4,29.1c0,0.6-0.5,1.1-1.1,1.1h-3.7c-0.6,0-1.1-0.5-1.1-1.1c0-0.6,0.5-1.1,1.1-1.1h3.7
		C389.9,28,390.4,28.5,390.4,29.1z M345.3,29.1c0,0.6-0.5,1.1-1.1,1.1h-3.7c-0.6,0-1.1-0.5-1.1-1.1c0-0.6,0.5-1.1,1.1-1.1h3.7
		C344.8,28,345.3,28.5,345.3,29.1z M334.5,29.1c0,0.6-0.5,1.1-1.1,1.1h-3.7c-0.6,0-1.1-0.5-1.1-1.1c0-0.6,0.5-1.1,1.1-1.1h3.7
		C334,28,334.5,28.5,334.5,29.1z M323.6,29.1c0,0.6-0.5,1.1-1.1,1.1h-3.7c-0.6,0-1.1-0.5-1.1-1.1c0-0.6,0.5-1.1,1.1-1.1h3.7
		C323.1,28,323.6,28.5,323.6,29.1z M312.8,29.1c0,0.6-0.5,1.1-1.1,1.1H308c-0.6,0-1.1-0.5-1.1-1.1c0-0.6,0.5-1.1,1.1-1.1h3.7
		C312.3,28,312.8,28.5,312.8,29.1z M301.9,29.1c0,0.6-0.5,1.1-1.1,1.1h-3.7c-0.6,0-1.1-0.5-1.1-1.1c0-0.6,0.5-1.1,1.1-1.1h3.7
		C301.5,28,301.9,28.5,301.9,29.1z M291.1,29.1c0,0.6-0.5,1.1-1.1,1.1h-3.7c-0.6,0-1.1-0.5-1.1-1.1c0-0.6,0.5-1.1,1.1-1.1h3.7
		C290.6,28,291.1,28.5,291.1,29.1z M280.3,29.1c0,0.6-0.5,1.1-1.1,1.1h-3.7c-0.6,0-1.1-0.5-1.1-1.1c0-0.6,0.5-1.1,1.1-1.1h3.7
		C279.8,28,280.3,28.5,280.3,29.1z M160.6,29.1c0,0.6-0.5,1.1-1.1,1.1h-3.7c-0.6,0-1.1-0.5-1.1-1.1c0-0.6,0.5-1.1,1.1-1.1h3.7
		C160.1,28,160.6,28.5,160.6,29.1z M149.7,29.1c0,0.6-0.5,1.1-1.1,1.1h-1.3v0.3c0,0.6-0.5,1.1-1.1,1.1c-0.6,0-1.1-0.5-1.1-1.1V28
		h3.4C149.2,28,149.7,28.5,149.7,29.1z M147.4,37.6v3.7c0,0.6-0.5,1.1-1.1,1.1c-0.6,0-1.1-0.5-1.1-1.1v-3.7c0-0.6,0.5-1.1,1.1-1.1
		C146.9,36.5,147.4,37,147.4,37.6z M147.4,48.4v3.7c0,0.6-0.5,1.1-1.1,1.1c-0.6,0-1.1-0.5-1.1-1.1v-3.7c0-0.6,0.5-1.1,1.1-1.1
		C146.9,47.4,147.4,47.8,147.4,48.4z M147.4,59.3V63c0,0.6-0.5,1.1-1.1,1.1c-0.6,0-1.1-0.5-1.1-1.1v-3.7c0-0.6,0.5-1.1,1.1-1.1
		C146.9,58.2,147.4,58.7,147.4,59.3z M147.4,70.1v3.7c0,0.6-0.5,1.1-1.1,1.1c-0.6,0-1.1-0.5-1.1-1.1v-3.7c0-0.6,0.5-1.1,1.1-1.1
		C146.9,69,147.4,69.5,147.4,70.1z M147.4,81v3.7c0,0.6-0.5,1.1-1.1,1.1c-0.6,0-1.1-0.5-1.1-1.1V81c0-0.6,0.5-1.1,1.1-1.1
		C146.9,79.9,147.4,80.4,147.4,81z"/>
</g>
<g class="st13">
	<path class="st14" d="M700.5,75.9c-0.6,0-1.1-0.5-1.1-1.1v-3.7c0-0.6,0.5-1.1,1.1-1.1c0.6,0,1.1,0.5,1.1,1.1v3.7
		C701.5,75.4,701.1,75.9,700.5,75.9z M700.5,65.1c-0.6,0-1.1-0.5-1.1-1.1v-3.7c0-0.6,0.5-1.1,1.1-1.1c0.6,0,1.1,0.5,1.1,1.1V64
		C701.5,64.6,701.1,65.1,700.5,65.1z M700.5,54.3c-0.6,0-1.1-0.5-1.1-1.1v-3.7c0-0.6,0.5-1.1,1.1-1.1c0.6,0,1.1,0.5,1.1,1.1v3.7
		C701.5,53.8,701.1,54.3,700.5,54.3z M700.5,43.4c-0.6,0-1.1-0.5-1.1-1.1v-3.7c0-0.6,0.5-1.1,1.1-1.1c0.6,0,1.1,0.5,1.1,1.1v3.7
		C701.5,42.9,701.1,43.4,700.5,43.4z M700.5,32.6c-0.6,0-1.1-0.5-1.1-1.1v-1.3h-0.3c-0.6,0-1.1-0.5-1.1-1.1c0-0.6,0.5-1.1,1.1-1.1
		h2.4v3.4C701.5,32.1,701.1,32.6,700.5,32.6z M692,30.2h-3.7c-0.6,0-1.1-0.5-1.1-1.1c0-0.6,0.5-1.1,1.1-1.1h3.7
		c0.6,0,1.1,0.5,1.1,1.1C693.1,29.7,692.6,30.2,692,30.2z M681.1,30.2h-3.7c-0.6,0-1.1-0.5-1.1-1.1c0-0.6,0.5-1.1,1.1-1.1h3.7
		c0.6,0,1.1,0.5,1.1,1.1C682.2,29.7,681.7,30.2,681.1,30.2z M670.3,30.2h-3.7c-0.6,0-1.1-0.5-1.1-1.1c0-0.6,0.5-1.1,1.1-1.1h3.7
		c0.6,0,1.1,0.5,1.1,1.1C671.4,29.7,670.9,30.2,670.3,30.2z M659.4,30.2h-3.7c-0.6,0-1.1-0.5-1.1-1.1c0-0.6,0.5-1.1,1.1-1.1h3.7
		c0.6,0,1.1,0.5,1.1,1.1C660.5,29.7,660,30.2,659.4,30.2z M648.6,30.2h-3.7c-0.6,0-1.1-0.5-1.1-1.1c0-0.6,0.5-1.1,1.1-1.1h3.7
		c0.6,0,1.1,0.5,1.1,1.1C649.7,29.7,649.2,30.2,648.6,30.2z M637.8,30.2H634c-0.6,0-1.1-0.5-1.1-1.1c0-0.6,0.5-1.1,1.1-1.1h3.7
		c0.6,0,1.1,0.5,1.1,1.1C638.9,29.7,638.4,30.2,637.8,30.2z M626.9,30.2h-3.7c-0.6,0-1.1-0.5-1.1-1.1c0-0.6,0.5-1.1,1.1-1.1h3.7
		c0.6,0,1.1,0.5,1.1,1.1C628,29.7,627.5,30.2,626.9,30.2z"/>
</g>
<g>
	<linearGradient id="SVGID_5_" gradientUnits="userSpaceOnUse" x1="596.9523" y1="128.8615" x2="666.9744" y2="128.8615">
		<stop  offset="0" style="stop-color:#3A77BC"/>
		<stop  offset="1" style="stop-color:#2B4057"/>
	</linearGradient>
	<path class="st15" d="M609.5,198.5l30.3-16.6c-18-33-5.9-74.4,27.1-92.4l-16.6-30.3C600.7,86.4,582.4,148.7,609.5,198.5z"/>
	<path class="st7" d="M670.7,247.8l9.7-33.1c-18-5.3-32.2-17.4-40.6-32.7l-30.3,16.6C622.1,221.5,643.5,239.8,670.7,247.8z"/>
	<path class="st16" d="M748.8,239.4l-16.6-30.3c-16.5,9-35.1,10.5-51.8,5.6l-9.7,33.1C695.9,255.2,723.9,253,748.8,239.4z"/>
	<path class="st7" d="M789.7,100.1l-30.3,16.6c-18-33-59.4-45.2-92.4-27.1l-16.6-30.3C700.2,32.1,762.5,50.4,789.7,100.1z"/>
	<path class="st16" d="M798.1,178.2l-33.1-9.7c5.3-18,2.8-36.5-5.6-51.8l30.3-16.6C802.3,123.2,806,151,798.1,178.2z"/>
	<path class="st7" d="M748.8,239.4l-16.6-30.3c16.5-9,27.8-23.9,32.7-40.6l33.1,9.7C790.7,203.4,773.6,225.8,748.8,239.4z"/>
</g>
<path class="st16" d="M704.5,159.6l3-5.6c-2.3-2.5-2.3-2.5-4.6-5l-5.9,2.5c-2-0.9-2.9-1.4-4.9-2.3l-1.8-6c-3.4-0.1-3.4-0.1-6.9-0.3
	l-2.4,5.8c-2,0.7-3.1,1.1-5.1,1.9l-5.6-2.9c-2.5,2.3-2.6,2.3-5.1,4.6l2.5,5.8c-0.9,1.9-1.4,2.9-2.3,4.9l-6.1,1.9
	c-0.2,3.4-0.2,3.4-0.3,6.8l5.9,2.3c0.7,2,1.1,3,1.8,5l-3,5.6c2.3,2.5,2.3,2.5,4.6,5l5.9-2.5c2,0.9,2.9,1.4,4.9,2.3l1.8,6
	c3.4,0.1,3.4,0.1,6.9,0.3l2.4-5.8c2-0.7,3.1-1.1,5.1-1.9l5.6,2.9c2.5-2.3,2.6-2.3,5.1-4.6l-2.5-5.8c0.9-1.9,1.4-2.9,2.3-4.9l6.1-1.9
	c0.2-3.4,0.2-3.4,0.3-6.8l-5.9-2.3C705.6,162.7,705.2,161.6,704.5,159.6z M690.4,181.7c-6.8,2.5-14.3-1-16.7-7.7
	c-2.4-6.7,1.1-14.1,7.9-16.6s14.3,1,16.7,7.7C700.7,171.8,697.2,179.3,690.4,181.7z"/>
<path class="st16" d="M734.3,116l3-5.6c-2.3-2.5-2.3-2.5-4.6-5l-5.9,2.5c-2-0.9-2.9-1.4-4.9-2.3l-1.8-6c-3.4-0.1-3.4-0.1-6.9-0.3
	l-2.4,5.8c-2,0.7-3.1,1.1-5.1,1.9l-5.6-2.9c-2.5,2.3-2.6,2.3-5.1,4.6l2.5,5.8c-0.9,1.9-1.4,2.9-2.3,4.9l-6.1,1.9
	c-0.2,3.4-0.2,3.4-0.3,6.8l5.9,2.3c0.7,2,1.1,3,1.8,5l-3,5.6c2.3,2.5,2.3,2.5,4.6,5l5.9-2.5c2,0.9,2.9,1.4,4.9,2.3l1.8,6
	c3.4,0.1,3.4,0.1,6.9,0.3l2.4-5.8c2-0.7,3.1-1.1,5.1-1.9l5.6,2.9c2.5-2.3,2.6-2.3,5.1-4.6l-2.5-5.8c0.9-1.9,1.4-2.9,2.3-4.9l6.1-1.9
	c0.2-3.4,0.2-3.4,0.3-6.8l-5.9-2.3C735.4,119,735.1,118,734.3,116z M720.2,138.1c-6.8,2.5-14.3-1-16.7-7.7
	c-2.4-6.7,1.1-14.1,7.9-16.6c6.8-2.5,14.3,1,16.7,7.7C730.5,128.2,727,135.6,720.2,138.1z"/>
<path class="st17" d="M520.7,29.1c0,0.6-0.5,1.1-1.1,1.1h-3.7c-0.6,0-1.1-0.5-1.1-1.1c0-0.6,0.5-1.1,1.1-1.1h3.7
	C520.2,28,520.7,28.5,520.7,29.1z"/>
<path class="st17" d="M509.9,29.1c0,0.6-0.5,1.1-1.1,1.1h-3.7c-0.6,0-1.1-0.5-1.1-1.1c0-0.6,0.5-1.1,1.1-1.1h3.7
	C509.4,28,509.9,28.5,509.9,29.1z"/>
<path class="st17" d="M499,29.1c0,0.6-0.5,1.1-1.1,1.1h-3.7c-0.6,0-1.1-0.5-1.1-1.1c0-0.6,0.5-1.1,1.1-1.1h3.7
	C498.5,28,499,28.5,499,29.1z"/>
<path class="st17" d="M555,29.1c0,0.6-0.5,1.1-1.1,1.1h-3.7c-0.6,0-1.1-0.5-1.1-1.1c0-0.6,0.5-1.1,1.1-1.1h3.7
	C554.5,28,555,28.5,555,29.1z"/>
<path class="st17" d="M544.2,29.1c0,0.6-0.5,1.1-1.1,1.1h-3.7c-0.6,0-1.1-0.5-1.1-1.1c0-0.6,0.5-1.1,1.1-1.1h3.7
	C543.7,28,544.2,28.5,544.2,29.1z"/>
<path class="st17" d="M533.3,29.1c0,0.6-0.5,1.1-1.1,1.1h-3.7c-0.6,0-1.1-0.5-1.1-1.1c0-0.6,0.5-1.1,1.1-1.1h3.7
	C532.8,28,533.3,28.5,533.3,29.1z"/>
<path class="st17" d="M488.2,29.1c0,0.6-0.5,1.1-1.1,1.1h-3.7c-0.6,0-1.1-0.5-1.1-1.1c0-0.6,0.5-1.1,1.1-1.1h3.7
	C487.7,28,488.2,28.5,488.2,29.1z"/>
<path class="st17" d="M477.4,29.1c0,0.6-0.5,1.1-1.1,1.1h-3.7c-0.6,0-1.1-0.5-1.1-1.1c0-0.6,0.5-1.1,1.1-1.1h3.7
	C476.9,28,477.4,28.5,477.4,29.1z"/>
<path class="st17" d="M466.5,29.1c0,0.6-0.5,1.1-1.1,1.1h-3.7c-0.6,0-1.1-0.5-1.1-1.1c0-0.6,0.5-1.1,1.1-1.1h3.7
	C466,28,466.5,28.5,466.5,29.1z"/>
<path class="st17" d="M455.7,29.1c0,0.6-0.5,1.1-1.1,1.1h-3.7c-0.6,0-1.1-0.5-1.1-1.1c0-0.6,0.5-1.1,1.1-1.1h3.7
	C455.2,28,455.7,28.5,455.7,29.1z"/>
<path class="st17" d="M444.8,29.1c0,0.6-0.5,1.1-1.1,1.1H440c-0.6,0-1.1-0.5-1.1-1.1c0-0.6,0.5-1.1,1.1-1.1h3.7
	C444.3,28,444.8,28.5,444.8,29.1z"/>
<path class="st17" d="M434,29.1c0,0.6-0.5,1.1-1.1,1.1h-3.7c-0.6,0-1.1-0.5-1.1-1.1c0-0.6,0.5-1.1,1.1-1.1h3.7
	C433.5,28,434,28.5,434,29.1z"/>
<path class="st17" d="M423.1,29.1c0,0.6-0.5,1.1-1.1,1.1h-3.7c-0.6,0-1.1-0.5-1.1-1.1c0-0.6,0.5-1.1,1.1-1.1h3.7
	C422.7,28,423.1,28.5,423.1,29.1z"/>
<path class="st17" d="M619.2,29.1c0,0.6-0.5,1.1-1.1,1.1h-3.7c-0.6,0-1.1-0.5-1.1-1.1c0-0.6,0.5-1.1,1.1-1.1h3.7
	C618.7,28,619.2,28.5,619.2,29.1z"/>
<path class="st17" d="M608.4,29.1c0,0.6-0.5,1.1-1.1,1.1h-3.7c-0.6,0-1.1-0.5-1.1-1.1c0-0.6,0.5-1.1,1.1-1.1h3.7
	C607.9,28,608.4,28.5,608.4,29.1z"/>
<path class="st17" d="M597.6,29.1c0,0.6-0.5,1.1-1.1,1.1h-3.7c-0.6,0-1.1-0.5-1.1-1.1c0-0.6,0.5-1.1,1.1-1.1h3.7
	C597.1,28,597.6,28.5,597.6,29.1z"/>
<path class="st17" d="M586.7,29.1c0,0.6-0.5,1.1-1.1,1.1h-3.7c-0.6,0-1.1-0.5-1.1-1.1c0-0.6,0.5-1.1,1.1-1.1h3.7
	C586.2,28,586.7,28.5,586.7,29.1z"/>
<path class="st17" d="M575.9,29.1c0,0.6-0.5,1.1-1.1,1.1h-3.7c-0.6,0-1.1-0.5-1.1-1.1c0-0.6,0.5-1.1,1.1-1.1h3.7
	C575.4,28,575.9,28.5,575.9,29.1z"/>
<path class="st17" d="M565,29.1c0,0.6-0.5,1.1-1.1,1.1h-3.7c-0.6,0-1.1-0.5-1.1-1.1c0-0.6,0.5-1.1,1.1-1.1h3.7
	C564.5,28,565,28.5,565,29.1z"/>
<g>
	<g>
		<path class="st1" d="M638.9,391.5c2.8,0,5.1-2.1,5.5-4.8H669c0.3,2.7,2.7,4.8,5.5,4.8c3,0,5.5-2.5,5.5-5.5c0-3-2.5-5.5-5.5-5.5
			c-2.8,0-5.1,2.1-5.5,4.8h-24.6c-0.3-2.7-2.7-4.8-5.5-4.8c-3,0-5.5,2.5-5.5,5.5C633.4,389,635.9,391.5,638.9,391.5z M674.4,381.9
			c2.3,0,4.1,1.9,4.1,4.1c0,2.3-1.9,4.1-4.1,4.1c-2.3,0-4.1-1.9-4.1-4.1C670.3,383.7,672.1,381.9,674.4,381.9z M638.9,381.9
			c2.3,0,4.1,1.9,4.1,4.1c0,2.3-1.9,4.1-4.1,4.1c-2.3,0-4.1-1.9-4.1-4.1C634.8,383.7,636.7,381.9,638.9,381.9z"/>
		<path class="st1" d="M638.9,365.7c2.8,0,5.1-2.1,5.5-4.8H669c0.3,2.7,2.7,4.8,5.5,4.8c3,0,5.5-2.5,5.5-5.5c0-3-2.5-5.5-5.5-5.5
			c-2.8,0-5.1,2.1-5.5,4.8h-24.6c-0.3-2.7-2.7-4.8-5.5-4.8c-3,0-5.5,2.5-5.5,5.5C633.4,363.2,635.9,365.7,638.9,365.7z M674.4,356
			c2.3,0,4.1,1.9,4.1,4.1c0,2.3-1.9,4.1-4.1,4.1c-2.3,0-4.1-1.9-4.1-4.1C670.3,357.9,672.1,356,674.4,356z M638.9,356
			c2.3,0,4.1,1.9,4.1,4.1c0,2.3-1.9,4.1-4.1,4.1c-2.3,0-4.1-1.9-4.1-4.1C634.8,357.9,636.7,356,638.9,356z"/>
		<path class="st1" d="M638.9,339.8c2.8,0,5.1-2.1,5.5-4.8H669c0.3,2.7,2.7,4.8,5.5,4.8c3,0,5.5-2.5,5.5-5.5c0-3-2.5-5.5-5.5-5.5
			c-2.8,0-5.1,2.1-5.5,4.8h-24.6c-0.3-2.7-2.7-4.8-5.5-4.8c-3,0-5.5,2.5-5.5,5.5C633.4,337.4,635.9,339.8,638.9,339.8z M674.4,330.2
			c2.3,0,4.1,1.9,4.1,4.1s-1.9,4.1-4.1,4.1c-2.3,0-4.1-1.9-4.1-4.1S672.1,330.2,674.4,330.2z M638.9,330.2c2.3,0,4.1,1.9,4.1,4.1
			s-1.9,4.1-4.1,4.1c-2.3,0-4.1-1.9-4.1-4.1S636.7,330.2,638.9,330.2z"/>
		<path class="st1" d="M638.9,314c2.8,0,5.1-2.1,5.5-4.8H669c0.3,2.7,2.7,4.8,5.5,4.8c3,0,5.5-2.5,5.5-5.5c0-3-2.5-5.5-5.5-5.5
			c-2.8,0-5.1,2.1-5.5,4.8h-24.6c-0.3-2.7-2.7-4.8-5.5-4.8c-3,0-5.5,2.5-5.5,5.5C633.4,311.5,635.9,314,638.9,314z M674.4,304.4
			c2.3,0,4.1,1.9,4.1,4.1s-1.9,4.1-4.1,4.1c-2.3,0-4.1-1.9-4.1-4.1S672.1,304.4,674.4,304.4z M638.9,304.4c2.3,0,4.1,1.9,4.1,4.1
			s-1.9,4.1-4.1,4.1c-2.3,0-4.1-1.9-4.1-4.1S636.7,304.4,638.9,304.4z"/>
		<path class="st1" d="M638.9,391.5c2.8,0,5.1-2.1,5.5-4.8H669c0.3,2.7,2.7,4.8,5.5,4.8c3,0,5.5-2.5,5.5-5.5c0-3-2.5-5.5-5.5-5.5
			c-2.8,0-5.1,2.1-5.5,4.8h-24.6c-0.3-2.7-2.7-4.8-5.5-4.8c-3,0-5.5,2.5-5.5,5.5C633.4,389,635.9,391.5,638.9,391.5z M674.4,381.9
			c2.3,0,4.1,1.9,4.1,4.1c0,2.3-1.9,4.1-4.1,4.1c-2.3,0-4.1-1.9-4.1-4.1C670.3,383.7,672.1,381.9,674.4,381.9z M638.9,381.9
			c2.3,0,4.1,1.9,4.1,4.1c0,2.3-1.9,4.1-4.1,4.1c-2.3,0-4.1-1.9-4.1-4.1C634.8,383.7,636.7,381.9,638.9,381.9z"/>
		<path class="st1" d="M638.9,365.7c2.8,0,5.1-2.1,5.5-4.8H669c0.3,2.7,2.7,4.8,5.5,4.8c3,0,5.5-2.5,5.5-5.5c0-3-2.5-5.5-5.5-5.5
			c-2.8,0-5.1,2.1-5.5,4.8h-24.6c-0.3-2.7-2.7-4.8-5.5-4.8c-3,0-5.5,2.5-5.5,5.5C633.4,363.2,635.9,365.7,638.9,365.7z M674.4,356
			c2.3,0,4.1,1.9,4.1,4.1c0,2.3-1.9,4.1-4.1,4.1c-2.3,0-4.1-1.9-4.1-4.1C670.3,357.9,672.1,356,674.4,356z M638.9,356
			c2.3,0,4.1,1.9,4.1,4.1c0,2.3-1.9,4.1-4.1,4.1c-2.3,0-4.1-1.9-4.1-4.1C634.8,357.9,636.7,356,638.9,356z"/>
		<path class="st1" d="M638.9,339.8c2.8,0,5.1-2.1,5.5-4.8H669c0.3,2.7,2.7,4.8,5.5,4.8c3,0,5.5-2.5,5.5-5.5c0-3-2.5-5.5-5.5-5.5
			c-2.8,0-5.1,2.1-5.5,4.8h-24.6c-0.3-2.7-2.7-4.8-5.5-4.8c-3,0-5.5,2.5-5.5,5.5C633.4,337.4,635.9,339.8,638.9,339.8z M674.4,330.2
			c2.3,0,4.1,1.9,4.1,4.1s-1.9,4.1-4.1,4.1c-2.3,0-4.1-1.9-4.1-4.1S672.1,330.2,674.4,330.2z M638.9,330.2c2.3,0,4.1,1.9,4.1,4.1
			s-1.9,4.1-4.1,4.1c-2.3,0-4.1-1.9-4.1-4.1S636.7,330.2,638.9,330.2z"/>
		<path class="st1" d="M638.9,314c2.8,0,5.1-2.1,5.5-4.8H669c0.3,2.7,2.7,4.8,5.5,4.8c3,0,5.5-2.5,5.5-5.5c0-3-2.5-5.5-5.5-5.5
			c-2.8,0-5.1,2.1-5.5,4.8h-24.6c-0.3-2.7-2.7-4.8-5.5-4.8c-3,0-5.5,2.5-5.5,5.5C633.4,311.5,635.9,314,638.9,314z M674.4,304.4
			c2.3,0,4.1,1.9,4.1,4.1s-1.9,4.1-4.1,4.1c-2.3,0-4.1-1.9-4.1-4.1S672.1,304.4,674.4,304.4z M638.9,304.4c2.3,0,4.1,1.9,4.1,4.1
			s-1.9,4.1-4.1,4.1c-2.3,0-4.1-1.9-4.1-4.1S636.7,304.4,638.9,304.4z"/>
	</g>
</g>
<g>
	<g>
		<path class="st1" d="M700.2,413.6c2.3,0,4.3-1.7,4.7-3.9h29.7l14.1-14.1v-104l-11-11h-31.7c-0.2-2.5-2.3-4.5-4.8-4.5
			c-2.7,0-4.8,2.2-4.8,4.8c0,2.7,2.2,4.8,4.8,4.8c2.3,0,4.2-1.6,4.7-3.8h31.3l10.2,10.2V395l-13.3,13.3H705
			c-0.2-2.5-2.3-4.4-4.8-4.4c-2.7,0-4.8,2.2-4.8,4.8S697.6,413.6,700.2,413.6z"/>
		<path class="st1" d="M701.3,391.5c2.8,0,5.1-2.1,5.5-4.8h24.6c0.3,2.7,2.7,4.8,5.5,4.8c3,0,5.5-2.5,5.5-5.5c0-3-2.5-5.5-5.5-5.5
			c-2.8,0-5.1,2.1-5.5,4.8h-24.6c-0.3-2.7-2.7-4.8-5.5-4.8c-3,0-5.5,2.5-5.5,5.5C695.8,389,698.2,391.5,701.3,391.5z M736.7,381.8
			c2.3,0,4.1,1.9,4.1,4.1c0,2.3-1.9,4.1-4.1,4.1c-2.3,0-4.1-1.9-4.1-4.1C732.6,383.7,734.5,381.8,736.7,381.8z M701.3,381.8
			c2.3,0,4.1,1.9,4.1,4.1c0,2.3-1.9,4.1-4.1,4.1s-4.1-1.9-4.1-4.1C697.1,383.7,699,381.8,701.3,381.8z"/>
		<path class="st1" d="M701.3,365.7c2.8,0,5.1-2.1,5.5-4.8h24.6c0.3,2.7,2.7,4.8,5.5,4.8c3,0,5.5-2.5,5.5-5.5c0-3-2.5-5.5-5.5-5.5
			c-2.8,0-5.1,2.1-5.5,4.8h-24.6c-0.3-2.7-2.7-4.8-5.5-4.8c-3,0-5.5,2.5-5.5,5.5C695.8,363.2,698.2,365.7,701.3,365.7z M736.7,356
			c2.3,0,4.1,1.9,4.1,4.1c0,2.3-1.9,4.1-4.1,4.1c-2.3,0-4.1-1.9-4.1-4.1C732.6,357.9,734.5,356,736.7,356z M701.3,356
			c2.3,0,4.1,1.9,4.1,4.1c0,2.3-1.9,4.1-4.1,4.1s-4.1-1.9-4.1-4.1C697.1,357.9,699,356,701.3,356z"/>
		<path class="st1" d="M701.3,339.8c2.8,0,5.1-2.1,5.5-4.8h24.6c0.3,2.7,2.7,4.8,5.5,4.8c3,0,5.5-2.5,5.5-5.5c0-3-2.5-5.5-5.5-5.5
			c-2.8,0-5.1,2.1-5.5,4.8h-24.6c-0.3-2.7-2.7-4.8-5.5-4.8c-3,0-5.5,2.5-5.5,5.5C695.8,337.4,698.2,339.8,701.3,339.8z M736.7,330.2
			c2.3,0,4.1,1.9,4.1,4.1c0,2.3-1.9,4.1-4.1,4.1c-2.3,0-4.1-1.9-4.1-4.1C732.6,332,734.5,330.2,736.7,330.2z M701.3,330.2
			c2.3,0,4.1,1.9,4.1,4.1c0,2.3-1.9,4.1-4.1,4.1s-4.1-1.9-4.1-4.1C697.1,332,699,330.2,701.3,330.2z"/>
		<path class="st1" d="M701.3,314c2.8,0,5.1-2.1,5.5-4.8h24.6c0.3,2.7,2.7,4.8,5.5,4.8c3,0,5.5-2.5,5.5-5.5c0-3-2.5-5.5-5.5-5.5
			c-2.8,0-5.1,2.1-5.5,4.8h-24.6c-0.3-2.7-2.7-4.8-5.5-4.8c-3,0-5.5,2.5-5.5,5.5C695.8,311.5,698.2,314,701.3,314z M736.7,304.4
			c2.3,0,4.1,1.9,4.1,4.1c0,2.3-1.9,4.1-4.1,4.1c-2.3,0-4.1-1.9-4.1-4.1C732.6,306.2,734.5,304.4,736.7,304.4z M701.3,304.4
			c2.3,0,4.1,1.9,4.1,4.1c0,2.3-1.9,4.1-4.1,4.1s-4.1-1.9-4.1-4.1C697.1,306.2,699,304.4,701.3,304.4z"/>
		<path class="st1" d="M700.2,413.6c2.3,0,4.3-1.7,4.7-3.9h29.7l14.1-14.1v-104l-11-11h-31.7c-0.2-2.5-2.3-4.5-4.8-4.5
			c-2.7,0-4.8,2.2-4.8,4.8c0,2.7,2.2,4.8,4.8,4.8c2.3,0,4.2-1.6,4.7-3.8h31.3l10.2,10.2V395l-13.3,13.3H705
			c-0.2-2.5-2.3-4.4-4.8-4.4c-2.7,0-4.8,2.2-4.8,4.8S697.6,413.6,700.2,413.6z"/>
		<path class="st1" d="M701.3,391.5c2.8,0,5.1-2.1,5.5-4.8h24.6c0.3,2.7,2.7,4.8,5.5,4.8c3,0,5.5-2.5,5.5-5.5c0-3-2.5-5.5-5.5-5.5
			c-2.8,0-5.1,2.1-5.5,4.8h-24.6c-0.3-2.7-2.7-4.8-5.5-4.8c-3,0-5.5,2.5-5.5,5.5C695.8,389,698.2,391.5,701.3,391.5z M736.7,381.8
			c2.3,0,4.1,1.9,4.1,4.1c0,2.3-1.9,4.1-4.1,4.1c-2.3,0-4.1-1.9-4.1-4.1C732.6,383.7,734.5,381.8,736.7,381.8z M701.3,381.8
			c2.3,0,4.1,1.9,4.1,4.1c0,2.3-1.9,4.1-4.1,4.1s-4.1-1.9-4.1-4.1C697.1,383.7,699,381.8,701.3,381.8z"/>
		<path class="st1" d="M701.3,365.7c2.8,0,5.1-2.1,5.5-4.8h24.6c0.3,2.7,2.7,4.8,5.5,4.8c3,0,5.5-2.5,5.5-5.5c0-3-2.5-5.5-5.5-5.5
			c-2.8,0-5.1,2.1-5.5,4.8h-24.6c-0.3-2.7-2.7-4.8-5.5-4.8c-3,0-5.5,2.5-5.5,5.5C695.8,363.2,698.2,365.7,701.3,365.7z M736.7,356
			c2.3,0,4.1,1.9,4.1,4.1c0,2.3-1.9,4.1-4.1,4.1c-2.3,0-4.1-1.9-4.1-4.1C732.6,357.9,734.5,356,736.7,356z M701.3,356
			c2.3,0,4.1,1.9,4.1,4.1c0,2.3-1.9,4.1-4.1,4.1s-4.1-1.9-4.1-4.1C697.1,357.9,699,356,701.3,356z"/>
		<path class="st1" d="M701.3,339.8c2.8,0,5.1-2.1,5.5-4.8h24.6c0.3,2.7,2.7,4.8,5.5,4.8c3,0,5.5-2.5,5.5-5.5c0-3-2.5-5.5-5.5-5.5
			c-2.8,0-5.1,2.1-5.5,4.8h-24.6c-0.3-2.7-2.7-4.8-5.5-4.8c-3,0-5.5,2.5-5.5,5.5C695.8,337.4,698.2,339.8,701.3,339.8z M736.7,330.2
			c2.3,0,4.1,1.9,4.1,4.1c0,2.3-1.9,4.1-4.1,4.1c-2.3,0-4.1-1.9-4.1-4.1C732.6,332,734.5,330.2,736.7,330.2z M701.3,330.2
			c2.3,0,4.1,1.9,4.1,4.1c0,2.3-1.9,4.1-4.1,4.1s-4.1-1.9-4.1-4.1C697.1,332,699,330.2,701.3,330.2z"/>
		<path class="st1" d="M701.3,314c2.8,0,5.1-2.1,5.5-4.8h24.6c0.3,2.7,2.7,4.8,5.5,4.8c3,0,5.5-2.5,5.5-5.5c0-3-2.5-5.5-5.5-5.5
			c-2.8,0-5.1,2.1-5.5,4.8h-24.6c-0.3-2.7-2.7-4.8-5.5-4.8c-3,0-5.5,2.5-5.5,5.5C695.8,311.5,698.2,314,701.3,314z M736.7,304.4
			c2.3,0,4.1,1.9,4.1,4.1c0,2.3-1.9,4.1-4.1,4.1c-2.3,0-4.1-1.9-4.1-4.1C732.6,306.2,734.5,304.4,736.7,304.4z M701.3,304.4
			c2.3,0,4.1,1.9,4.1,4.1c0,2.3-1.9,4.1-4.1,4.1s-4.1-1.9-4.1-4.1C697.1,306.2,699,304.4,701.3,304.4z"/>
	</g>
</g>
<g>
	<path class="st18" d="M500.5,373.1c-0.3,2.7-4.1,2.6-8.5,2c-4.3-0.7-3.2,0.5-9.3,0.4c-6.1-0.1-8.1-2.2-8.4-3.1
		c-0.2-0.8,2.7-1.3,5.9-2c0.4-0.1,0.8-0.2,1.2-0.3c3.6-0.8,6-3.4,9.1-5.6c2.9-2.1,4.9-11.7,4.9-11.7l8.7-0.1c0,0-2.7,8.7-4.1,11.7
		c-0.8,1.8,0.1,4.1,0.3,5.8C500.5,371.2,500.6,372.2,500.5,373.1z"/>
	
		<linearGradient id="SVGID_6_" gradientUnits="userSpaceOnUse" x1="708.3237" y1="372.8919" x2="734.592" y2="372.8919" gradientTransform="matrix(-1 0 0 1 1208.8978 0)">
		<stop  offset="0" style="stop-color:#3A77BC"/>
		<stop  offset="1" style="stop-color:#2B4057"/>
	</linearGradient>
	<path class="st19" d="M492.1,375.1c-4.3-0.7-3.2,0.5-9.3,0.4c-6.1-0.1-8.1-2.2-8.4-3.1c-0.2-0.8,2.7-1.3,5.9-2l0,0.1
		c0,0,3.9,2.2,8.9,1.9c4.1-0.3,8.4-1.8,11.2-2.1c0.2,0.9,0.3,1.9,0.2,2.8C500.2,375.9,496.4,375.8,492.1,375.1z"/>
	<path class="st18" d="M568.4,372.7c-0.2,2.7-4,2.8-8.4,2.3c-4.4-0.5-3.2,0.6-9.3,0.7c-6.1,0.1-8.2-1.9-8.5-2.8
		c-0.3-0.8,2.7-1.4,5.8-2.2c0.4-0.1,0.8-0.2,1.2-0.3c3.5-0.9,5.9-3.6,8.9-5.9c2.9-2.2,0.5-11.4,0.5-11.4l6.6-3.1
		c0,0,0.9,9.4,1.4,14.2c0.2,2,1.2,3.9,1.5,5.6C568.3,370.8,568.5,371.7,568.4,372.7z"/>
	
		<linearGradient id="SVGID_7_" gradientUnits="userSpaceOnUse" x1="640.4554" y1="372.7978" x2="666.7167" y2="372.7978" gradientTransform="matrix(-1 0 0 1 1208.8978 0)">
		<stop  offset="0" style="stop-color:#3A77BC"/>
		<stop  offset="1" style="stop-color:#2B4057"/>
	</linearGradient>
	<path class="st20" d="M560,375c-4.4-0.5-3.2,0.6-9.3,0.7c-6.1,0.1-8.2-1.9-8.5-2.8c-0.3-0.8,2.7-1.4,5.8-2.2l0,0.1
		c0,0,3.9,2.1,9,1.6c4.1-0.4,8.3-2.2,11.1-2.5c0.2,0.9,0.4,1.9,0.3,2.8C568.2,375.4,564.4,375.5,560,375z"/>
	
		<linearGradient id="SVGID_8_" gradientUnits="userSpaceOnUse" x1="641.5736" y1="297.7559" x2="688.468" y2="297.7559" gradientTransform="matrix(-1 0 0 1 1208.8978 0)">
		<stop  offset="0" style="stop-color:#3A77BC"/>
		<stop  offset="1" style="stop-color:#2B4057"/>
	</linearGradient>
	<path class="st21" d="M553.6,236.7c0,0,1.8,8.8,3.7,53.7c0,0,3.4,8.3,5.8,18.4c2.5,10.1,4.2,52.5,4.2,52.5s-1,1.4-4,1.6
		c-2.4,0.1-4.3-0.9-4.3-0.9s-17.1-55.5-25.4-77c-8.3-21.5-13.2-52.3-13.2-52.3L553.6,236.7z"/>
	
		<linearGradient id="SVGID_9_" gradientUnits="userSpaceOnUse" x1="675.8311" y1="294.0172" x2="716.3117" y2="294.0172" gradientTransform="matrix(-1 0 0 1 1208.8978 0)">
		<stop  offset="0" style="stop-color:#3A77BC"/>
		<stop  offset="1" style="stop-color:#2B4057"/>
	</linearGradient>
	<path class="st22" d="M533.1,240.4c0,0-1.3,8.9-15.1,51.6c0,0,0.3,9-0.9,19.3c-1.2,10.4-15.2,51.2-15.2,51.2s-1.9,0.6-4.6-0.1
		c-2.6-0.7-4.6-2.2-4.6-2.2s5.4-58.4,5-81.4c-0.4-23.1,5.7-53.6,5.7-53.6L533.1,240.4z"/>
	<path class="st23" d="M508.6,158.7c-0.9-1.7,1.6,5.4,0.8,0.1c0.1,0.5-2.2-2.8,0.6,0.9c11.1,6.5,29,35.1,28.8,39.6
		c0,0,13.4-10.5,10.5-18.9c0,0,15.4-19-0.9-28c-8.3-4.5-11.5-9.5-11.4-15c0.1-5.5-3.7-29.1-19.4-22.1c0,0-0.1-0.3-1.2-0.1
		c0,0-1.6-0.6-1.1-0.1c-1.9,0-4.5,0.3-6.7,1.6C502.9,120.5,499.1,150.8,508.6,158.7z"/>
	<path class="st18" d="M512.1,156.7c-0.1,0,5.2,2.7,9.1,1.7c3.7-1,6.1-5.8,6.1-5.8c-1.6-0.3-2-2.5-2-11.7l-0.7,0.1l-11.5,2.3
		l-0.4,0.1c0,0,0.3,3.7,0.3,7.3c0,0.7,0,1.5,0,2.2C512.8,154.8,512.6,156.4,512.1,156.7z"/>
	<path class="st23" d="M525.8,139.6c0,0,3.5-5.5,4.3-10.2c0.6-3.4-1.1-15.9-13.7-14.1c0,0-3.6,0.4-7.1,2.7
		c-2.7,1.8-6.7,5.8-2.3,16.7l1.1,3.7L525.8,139.6z"/>
	<path class="st18" d="M511.9,148.8c0,0,15.6-2.1,14.2-11.8c-1.4-9.7-0.4-16.5-10.4-15.6c-10,0.9-11.4,4.9-11.7,8.3
		C503.6,133.1,507.8,149.1,511.9,148.8z"/>
	<path class="st23" d="M508.6,121.9c0,0,6,10.8,12.8,11.5s9.4-1.5,9.4-1.5s-3.3-4.3-5.4-11.1C525.3,120.8,511,115.9,508.6,121.9z"/>
	<path class="st23" d="M509.8,123c0,0-2.8,3-3.2,5.6c-0.4,2.6-3.6,8.3-5.1,8.4c0,0-2.9-7.6,0.1-12.6
		C504.7,119.2,509.8,123,509.8,123z"/>
	
		<linearGradient id="SVGID_10_" gradientUnits="userSpaceOnUse" x1="626.228" y1="281.8594" x2="801.4689" y2="281.8594" gradientTransform="matrix(-1 0 0 1 1208.8978 0)">
		<stop  offset="0" style="stop-color:#3A77BC"/>
		<stop  offset="1" style="stop-color:#2B4057"/>
	</linearGradient>
	<path class="st24" d="M429.8,242.4c5.7,0,10.7,1.9,14.6,5.1c2.2,1.8,5.6,0.6,6.2-2.2l6.7-31.3c1-4.6,5.5-7.5,10-6.5L576.2,231
		c4.5,1,7.3,5.3,6.3,9.8l-23.4,108.8c-1,4.6-5.6,7.6-10.2,6.6l-30.3-6.5c-3.9-0.8-5.5-5.6-2.9-8.6c2.5-2.9,4.4-6.5,5.2-10.6
		c2.2-11.6-4.9-23-16.3-26.1c-12.6-3.4-25.4,4.5-28.1,17.1c-1,4.7-0.5,9.5,1.3,13.6c1.1,2.7-1.2,5.6-4.1,5l-33.4-7.2
		c-4.6-1-7.5-5.5-6.5-10l6.7-31.1c0.6-2.9-2-5.4-4.9-4.7c-3.3,0.8-6.8,1-10.4,0.2c-14-3-22.1-18.3-15.6-32.1
		C413,248.2,422.1,242.4,429.8,242.4z"/>
	<path class="st18" d="M469.6,201.1c0,0-6.8,1.1-8.6,5.5s0.7,7.4,1.7,7.4c1,0,2.8-0.7,3.6-3C467.2,208.7,469.6,201.1,469.6,201.1z"
		/>
	<path class="st18" d="M563.1,220.8c0,0-7.6,0-10.4,4.5c-2.7,4.5-0.6,8.2,0.5,8.4c1,0.2,3.2-0.3,4.5-2.6
		C559.1,228.7,563.1,220.8,563.1,220.8z"/>
	<path class="st7" d="M469.4,206.2c0.7-0.1,3.6-0.5,7.4-1.1c6.9-1.1,16.6-3,19.8-6c0.9-0.8,2.9-5.3,5-10.4c2.1,11.3,2.3,20,1.7,26.6
		l46.8,10.1c-4-8.1-10.2-18.2-9.1-26.3c0.4-3,2.1-7.2,2.7-11.8c0.1-0.4,0.1-0.8,0.1-1.2c6.6,5.4,14.1,11.4,14.3,12.6
		c0.3,2-4.8,24.1-4.8,24.1c1.3,2.9,6.8,2.3,6.8,2.3c5.2-3.7,12.8-24.6,12.1-29.2c-0.6-4.6-19.4-31-24-37.3
		c-4.5-6.2-20.9-6.1-21.3-6.1h0c0,0,0,0,0,0c-13.1,7.8-14.2,1.3-14.2,1.3s-11.8,2.2-13.8,5.7c-2,3.5-10.9,29.9-11.5,30.8
		c-1.3,1.9-22.8,9.7-23.2,12C463.9,204.6,467.5,206.6,469.4,206.2z"/>
</g>
<g id="man_2_">
	<g>
		<path class="st25" d="M165.1,518.8c1,3.3,5.5,5.5,6.2,9.6c0.3,2,1,3.5,2,4.6h14.2c-0.1-0.8-0.8-1.6-2.6-2
			c-3.9-0.9-5.4-5.6-5.2-10.1c0.1-1.9,0.1-4,0-5.8c-0.1-2.5-0.3-4.5-0.3-4.5l-8.4-2l-0.9,1.1l-0.8,1.1
			C169.2,510.8,164.1,515.4,165.1,518.8z"/>
		<path class="st25" d="M231.2,533h28.7c-0.7-0.8-1.8-1.5-3.6-1.8c-4.4-0.7-12.1-3.3-13.8-8.9c-0.1-0.2-0.1-0.4-0.1-0.6
			c-1.4-6-11.2,1.8-11.2,1.8s0,0.2-0.1,0.7C230.9,525.9,230.5,530.5,231.2,533z"/>
		<linearGradient id="SVGID_11_" gradientUnits="userSpaceOnUse" x1="213.3095" y1="447.4155" x2="255.1443" y2="447.4155">
			<stop  offset="0" style="stop-color:#3A77BC"/>
			<stop  offset="1" style="stop-color:#2B4057"/>
		</linearGradient>
		<path class="st26" d="M255.1,373c0,0-1.5,18.7-3.3,41.1c-2.4,30.5-5.3,68-5.6,75.1c-0.5,12.3-2.5,32-2.5,32s-4.7,4.7-14,2.7
			c0,0-8.3-28.1-10.7-57.9c0-0.5-0.1-1-0.1-1.5c-2.2-30.3-5.7-94.1-5.7-94.1L255.1,373z"/>
		<linearGradient id="SVGID_12_" gradientUnits="userSpaceOnUse" x1="169.1918" y1="439.1636" x2="248.3064" y2="439.1636">
			<stop  offset="0" style="stop-color:#3A77BC"/>
			<stop  offset="1" style="stop-color:#2B4057"/>
		</linearGradient>
		<path class="st27" d="M248.3,375.2c0,0-27,67.7-44.7,99.4c-17.7,31.8-23.3,40.7-23.3,40.7s-10.2-4.1-11.1-6.8
			c0,0,6.8-61.4,18.7-76.3c6.7-8.5,14.6-33.8,15-42.7c0.4-8.9,2.4-26.4,2.4-26.4L248.3,375.2z"/>
	</g>
	<path class="st18" d="M234.5,270.8c1.2-7.1,1.2-11.3,1.2-11.3l-13.7-11c0.5,15.2-9.2,22.5-9.2,22.5s18.2,9,28.8,5.7
		C241.6,276.6,239,273.3,234.5,270.8z"/>
	<path class="st18" d="M238.9,259.2c0,0-17.4,2.9-19.1-8c-1.6-10.9-5-17.8,6.1-20.1c11.1-2.3,13.8,1.5,15.3,5
		C242.6,239.6,243.4,258.2,238.9,259.2z"/>
	<g>
		<path class="st28" d="M300.1,281.7l3.7-2.3c0,0,4.6-6.8,12.5-2.6c0,0,3.1,2,1,3.7c-2.1,1.7-1.5,0.7-4.4,3.1
			c-2.9,2.4-6.7,3.3-9.1,1.9l-3.1-0.3L300.1,281.7z"/>
		<path class="st9" d="M304.5,282.4c-1-3-1.4-3.3-1.4-3.3s-30,3.5-32.8,3.8c-2.8,0.2-42.1-7.9-42.1-7.9l-18.5,22.5
			c0,0,54.7,2.1,61.8,1.4c11.8-1.1,33.3-12.1,33.3-12.1S305.3,284.7,304.5,282.4z"/>
	</g>
	<path class="st29" d="M203.2,366.5c-0.1,1.2,2.3,2.4,3.4,2.9c7.8,3.5,15.1,5.9,23.4,6.7c9.8,1,21.3-1.2,25.3-1.1
		c0.4,0,0.8-0.2,1.1-0.4c0.3-0.2,0.5-12.1,0.3-27.2c0-0.6,0-1.2-0.1-1.8v-0.2c0-1.6,0-3.2-0.1-4.8c-0.1-4.4-0.3-8.9-0.5-13.4
		c-0.3-6.6-0.7-13.1-1.2-18.9c-0.6-6-1.3-11.2-2.2-14.9c-2.1-8.5-7-14.1-11.4-18.2l-3.6-3.2c-3.6,0.7-7.5,0.5-11.4-1.4
		c-4.2-2.1-8.7-4.3-9.5-3.8c-5.6,4.2-9.4,13.8-11.4,25.9c-1,6.5-1.6,13.8-1.5,21.4c0,2.9,0.1,5.9,0.3,8.9c0.9,16,0,29.9-0.6,38
		C203.3,363.3,203.2,365.2,203.2,366.5z"/>
	<path class="st29" d="M356.6,359.8c-2.1-5.3-2.1-10.7-0.5-15.5c0.9-2.7-1.4-5.4-4.3-5l-31.7,5c-4.6,0.7-9-2.4-9.7-7L293,227.1
		c-0.7-4.5,2.4-8.7,6.9-9.5L410,200.1c4.7-0.7,9.1,2.5,9.8,7.1l4.9,30.7c0.6,4-3.2,7.2-7,5.8c-3.7-1.3-7.7-1.7-11.8-1
		c-11.6,2.1-19.7,12.9-18.5,24.7c1.4,13,13.4,22.1,26.1,20.1c4.8-0.8,9-3,12.3-6.1c2.1-2.1,5.6-0.9,6.1,2l5.4,33.8
		c0.7,4.6-2.4,9-7,9.7l-31.5,5c-2.9,0.5-4.3,3.8-2.6,6.2c2,2.8,3.4,6,3.9,9.6c2.2,14.1-9.1,27.3-24.4,26.2
		C368.1,373.4,359.4,367,356.6,359.8z"/>
	<g>
		<path class="st18" d="M300,307.1l4.5-0.7c0,0,5.2-7.5,14.2-3.3c0,0,3.6,2,1.2,3.9c-2.4,1.9-1.7,0.8-5,3.5s-7.5,3.8-10.3,2.5
			l-3.5-0.2L300,307.1z"/>
		<path class="st16" d="M303.4,309.4c-0.1-3.3-1.9-3.7-1.9-3.7s-34.3-2.3-37.3-2.8c-3-0.6-30.3-23.2-30.3-23.2s-10.6-9.5-18-6.3
			c-6.4,2.8-8.4,8.3-8.8,13.3c-0.4,6,3,11.7,8.5,14.2c12.3,5.7,36.8,17,42.4,18c12.4,2.2,44.4-4.8,44.4-4.8S303.6,312,303.4,309.4z"
			/>
	</g>
	<path class="st25" d="M241.2,236.1c0,0,7.1-5.2,2.5-13.4c0,0-5.6,1.8-13.5,0c-7.9-1.8-15,0.8-15.9,3.5c0,0-3.1,1.2-3.4,5.8
		c-0.3,4.6,8.9,19.1,8.9,19.1s2-2.5,1.4-4.1c-0.5-1.7-2.2-5.5-0.2-5.5c2.1,0,2.8,3.1,3.6,1.8c0.8-1.2-0.7-6.4,1.8-7.2
		C229,235.4,238.4,237.7,241.2,236.1z"/>
	<path class="st25" d="M243.6,259.1c0,0,0.2-9.3-1.4-9.3c-6.9,0-8.2,7.9-8.2,8c-0.4-0.1-0.9-0.1-1.3-0.2c-7.3-1.6-7.6-16.3-7.6-16.3
		l-2.3,1.1c0,0-0.9,16.2,3,18.4c3.9,2.2,16.4,5.2,17.6,1.4C243.6,261.2,243.7,260.1,243.6,259.1z M236.3,258
		c-0.4-3.1,2.6-5.6,4.7-6.6c1.3-0.7,1.4,1.3,1.3,3c0,0,0,0,0,0S242,258.1,236.3,258z"/>
</g>
<linearGradient id="SVGID_13_" gradientUnits="userSpaceOnUse" x1="444.2652" y1="454.4177" x2="595.8453" y2="454.4177">
	<stop  offset="0" style="stop-color:#F16A7E"/>
	<stop  offset="1" style="stop-color:#DD2376"/>
</linearGradient>
<path class="st30" d="M595.8,529l-31.1-141.4h8.6c2,0,3.7-1.7,3.7-3.7v-4.8c0-2-1.7-3.7-3.7-3.7H464.5c-2,0-3.7,1.7-3.7,3.7v4.8
	c0,2,1.7,3.7,3.7,3.7h11L444.3,529c-0.4,1.9,0.8,3.8,2.7,4.2c1.9,0.4,3.8-0.8,4.2-2.7l31.5-142.9h74.7l31.5,142.9
	c0.4,1.9,2.3,3.1,4.2,2.7l0,0C595,532.8,596.2,530.9,595.8,529z"/>
<g>
	<linearGradient id="SVGID_14_" gradientUnits="userSpaceOnUse" x1="292.882" y1="468.7641" x2="459.8596" y2="468.7641">
		<stop  offset="0" style="stop-color:#3A77BC"/>
		<stop  offset="1" style="stop-color:#2B4057"/>
	</linearGradient>
	<path class="st31" d="M442.2,490.9c-5.6,1.2-10.9,0.4-15.3-1.9c-2.6-1.3-5.6,0.6-5.6,3.4v32.1c0,4.7-3.8,8.5-8.5,8.5H301.2
		c-4.6,0-8.3-3.7-8.3-8.3V413.2c0-4.7,3.8-8.6,8.6-8.6h31.1c4,0,6.6,4.3,4.6,7.8c-1.9,3.4-2.9,7.3-2.8,11.5
		c0.3,11.8,9.7,21.5,21.5,22.1c13.1,0.7,23.9-9.7,23.9-22.7c0-4.9-1.5-9.4-4.1-13.1c-1.7-2.4,0-5.7,3-5.7h34.2
		c4.7,0,8.5,3.8,8.5,8.5v31.9c0,2.9,3.1,4.9,5.7,3.5c3-1.5,6.5-2.4,10.1-2.4c14.3,0,25.5,13.3,22.1,28.2
		C457.5,481.7,449.7,489.3,442.2,490.9z"/>
</g>
<g>
	<path class="st23" d="M622.7,517.7c0,0-2.9,7.7-11.5,10.3c0,0-6.8,2.3-6.5,6.9c0,0,11.8-0.3,14.8-0.3c2.3,0,5,0.7,6.9,1.3
		c1.5,0.5,3.1-0.7,3.4-2.7c0.1-0.9,0.3-1.9,0.4-3.1c0.4-3.3,0.4-13.2,0.4-13.2L622.7,517.7z"/>
	<path class="st7" d="M619.5,517.2c0,0,6.7,6.5,12.9,0.4c0,0,7.8-23.5,11-44.6c1-6.9,1.6-13.5,1.2-19c-1.5-22.4,3.9-60.8,8.9-81.7
		l-32.7,5.9c0,0,0.7,27.5,0.6,61.8C621.2,464.7,620.8,493,619.5,517.2z"/>
	<path class="st23" d="M659.6,514.5c0,0-1.2,8.4-8.9,13.5c0,0-6.1,4.3-4.9,8.7c0,0,11.3-4,14.3-4.9c2.2-0.7,4.9-0.9,6.9-0.9
		c1.6,0,2.8-1.7,2.7-3.6c0-0.9-0.1-2-0.2-3.1c-0.3-3.3-2.4-12.9-2.4-12.9L659.6,514.5z"/>
	<path class="st29" d="M656.4,515c0,0,7.8,4.2,12.5-3.6c0,0,2.7-25.2,1.4-46.6c-0.4-7-1.3-13.5-2.8-18.7c-6.1-21.1-8.9-60-8.4-81.8
		l-30.4,15.9c0,0,6.4,26.4,13.4,59.6C647.2,463.7,652.7,491.2,656.4,515z"/>
	<g>
		<path class="st32" d="M565,364.2l-2.3,3c0,0-8.6-0.9-8.1,8.9c0,0,0.5,4.1,3,3.5c2.5-0.6,1.4-0.8,5-1.6c3.6-0.8,6.1-3.4,5.9-6.4
			l1.1-2.9L565,364.2z"/>
		<linearGradient id="SVGID_15_" gradientUnits="userSpaceOnUse" x1="563.3688" y1="331.7954" x2="640.7598" y2="331.7954">
			<stop  offset="0" style="stop-color:#3A77BC"/>
			<stop  offset="1" style="stop-color:#2B4057"/>
		</linearGradient>
		<path class="st33" d="M566.5,369.2c-2.9-1.8-3.1-3.7-3.1-3.7s21.3-28.3,23.6-30.7c1.5-1.7,16.9-23.8,23.5-36.7
			c3.3-6.4,9.4-5.7,16.3-5.4l5.7,0.2c6.9,0.3,10.7,8.8,6.5,14.5c-11.8,15.9-33.1,35.7-37,39.7c-9.7,10-30,24-30,24
			S569,370.8,566.5,369.2z"/>
	</g>
	<path class="st18" d="M621.9,297.8c10.5,1.6,15.2-10.6,15.2-10.6s-10.3-5.5-12.1-19.9l-5.5,6l-5.9,6.5c0,0,0.4,2.5,1.7,6.8
		c0.3,1.1,0.7,2.3,1.2,3.7C620.6,298.6,621.9,297.8,621.9,297.8z"/>
	<path class="st29" d="M562.5,343.6c0.7,5.6-0.5,10.8-3.1,15.1c-1.5,2.4,0.1,5.6,3,5.8l31.9,2.6c4.6,0.4,8.1,4.4,7.7,9.1l-8.9,111
		c-0.4,4.5-4.3,7.9-8.9,7.6l-110.9-8.9c-4.7-0.4-8.2-4.5-7.9-9.2l2.5-30.9c0.3-4,4.8-6.2,8.2-4c3.2,2.1,7.1,3.5,11.2,3.7
		c11.7,0.7,22.1-7.9,23.7-19.6c1.7-13-7.8-24.6-20.6-25.6c-4.8-0.4-9.4,0.8-13.3,3.1c-2.5,1.5-5.7-0.5-5.4-3.4l2.7-34
		c0.4-4.6,4.4-8.1,9.1-7.7l31.7,2.5c2.9,0.2,5.1-2.7,4-5.4c-1.3-3.2-1.9-6.6-1.6-10.3c1.1-14.2,15.2-24.3,29.8-19.7
		C554.6,327.7,561.5,336,562.5,343.6z"/>
	<path class="st9" d="M618.5,378.7c0.6,1.5,2.2,1.6,2.6,1.7c4.8,1.8,18.3,6.1,25.6,4.3c6.1-1.5,10.1,0.7,15.5-3.1
		c0.7-0.5,1.6-12.2,1.3-13.2c-0.2-1.1-3.6-67.7-30.8-85.8c-0.6-0.4-3.7,2-6.6,4.1c-2.6,2-6.7,3.8-9.6,3.4l-1.1,1.9
		c-2.7,4-6.2,15.9-4.2,23.4c1,3.8,0.4,7.2,1.1,10.6c0.3,1.3,0.5,2.5,0.8,3.7c0.5,2.4,0.9,4.6,1.3,6.8c1,5.9,1.7,11,2.2,15.5
		c0.5,4.8,0.7,8.8,0.9,12.2c0.2,4.4,0.2,7.7,0.3,10.2C617.9,376.4,618.1,377.7,618.5,378.7z"/>
	<g>
		<path class="st18" d="M582.6,381.8l-2.8,2.8c0,0-9.1-1.7-9.7,8.2c0,0,0.1,4.1,2.8,3.8c2.8-0.4,1.6-0.7,5.5-1.1
			c4-0.5,6.9-2.8,7.1-5.9l1.5-2.8L582.6,381.8z"/>
		<linearGradient id="SVGID_16_" gradientUnits="userSpaceOnUse" x1="577.9599" y1="342.0421" x2="644.1689" y2="342.0421">
			<stop  offset="0" style="stop-color:#3A77BC"/>
			<stop  offset="1" style="stop-color:#2B4057"/>
		</linearGradient>
		<path class="st34" d="M582,388c-2.8-2.7-4.1-3.9-4.1-3.9s16-33,17.8-36c1.2-2.1,12.9-23.7,16.7-38.1c1.9-7.2,7.6-12.7,14.8-14.3
			l5.9-1.4c7.2-1.7,13.1,5.6,10.1,12.3c-8.6,18.9-26.1,44.3-29.2,49.3c-7.7,12.5-27.6,34.2-27.6,34.2S584.2,390.1,582,388z"/>
	</g>
	<path class="st35" d="M635.8,249.4c0-9.1-10.2-12.2-18-12.2h-11.6c-2.3,0-4.2,1.9-4.2,4.2v0.6c0,8.7,7.1,15.9,15.9,15.9l7.9,15
		C625.8,272.9,635.8,272.3,635.8,249.4z"/>
	<path class="st18" d="M614.2,281.3h-1.3c-3.6,0-6.5-0.8-6.5-4.4c0-1.3-0.7-8.5-1.1-9.8c-0.4-1.4-2.5-16.3,3.3-16.3
		c0.5,0,0.4,1.8,1.6,2.2c1.6,0.5,4.9-0.1,6.5-1l0.2-0.1c2-1.2,4.3-1.7,6.5-1.4c2.9,0.4,4.6,4.4,4.7,9.7c0,0.3,0,0.6,0.1,1l0.9,4.6
		c0.1,0.4,0.1,0.8,0.1,1.2C628.9,274.9,622.2,281.3,614.2,281.3z"/>
</g>
</svg>
