<?xml version="1.0" encoding="utf-8"?>
<!-- Generator: Adobe Illustrator 24.2.3, SVG Export Plug-In . SVG Version: 6.00 Build 0)  -->
<svg version="1.1" id="Layer_1" xmlns="http://www.w3.org/2000/svg" xmlns:xlink="http://www.w3.org/1999/xlink" x="0px" y="0px"
	 viewBox="0 0 1558 249" style="enable-background:new 0 0 1558 249;" xml:space="preserve">
<style type="text/css">
	.st0{fill:#FFFFFF;}
	.st1{clip-path:url(#SVGID_2_);}
	.st2{opacity:0.35;}
	.st3{fill:#D9F0F8;}
	.st4{fill:#EAF6F7;}
	.st5{fill:#D7EFF2;}
	.st6{fill:url(#SVGID_3_);}
	.st7{opacity:0.6;}
	.st8{fill:#4A9AD4;}
	.st9{fill:#BFD6DF;}
	.st10{fill:#91B2CC;}
	.st11{fill:#BFD5DF;}
	.st12{fill:#F2FAFE;}
	.st13{fill:url(#SVGID_4_);}
	.st14{fill:url(#SVGID_5_);}
	.st15{fill:#9DC6EA;}
	.st16{fill:url(#SVGID_6_);}
	.st17{fill:url(#SVGID_7_);}
	.st18{fill:url(#SVGID_8_);}
	.st19{fill:url(#SVGID_9_);}
	.st20{fill:url(#SVGID_10_);}
	.st21{fill:url(#SVGID_11_);}
	.st22{fill:url(#SVGID_12_);}
	.st23{fill:url(#SVGID_13_);}
	.st24{fill:url(#SVGID_14_);}
	.st25{fill:#FBB98E;}
	.st26{fill:#EBF7FC;stroke:#B9DAE8;stroke-miterlimit:10;}
	.st27{opacity:0.53;fill:#F9A263;}
	.st28{opacity:0.2;fill:#91B2CC;}
	.st29{fill:url(#SVGID_15_);}
	.st30{fill:url(#SVGID_16_);}
	.st31{fill:url(#SVGID_17_);}
	.st32{fill:#0061AF;}
	.st33{fill:url(#SVGID_18_);}
	.st34{fill:#0C294D;}
	.st35{fill-rule:evenodd;clip-rule:evenodd;fill:#D9F0F8;}
	.st36{fill-rule:evenodd;clip-rule:evenodd;fill:#FFFFFF;}
	.st37{fill:url(#SVGID_19_);}
	.st38{fill:url(#SVGID_20_);}
	.st39{fill:url(#SVGID_21_);}
	.st40{fill:url(#SVGID_22_);}
	.st41{fill:url(#SVGID_23_);}
	.st42{fill:url(#SVGID_24_);}
	.st43{fill:url(#SVGID_25_);}
	.st44{fill:#00466A;}
	.st45{fill:url(#SVGID_26_);}
	.st46{fill:url(#SVGID_27_);}
	.st47{fill:url(#SVGID_28_);}
</style>
<rect class="st0" width="1558" height="249.4"/>
<g>
	<defs>
		<rect id="SVGID_1_" y="-1" width="1558" height="250.4"/>
	</defs>
	<clipPath id="SVGID_2_">
		<use xlink:href="#SVGID_1_"  style="overflow:visible;"/>
	</clipPath>
	<g class="st1">
		<g class="st2">
			<g>
				<path class="st3" d="M145.9-116.4c15.6-21.2,33.9-40.8,55.1-58.2c21.1-17.4,43.8-31.5,67.4-42.5L145.9-116.4z"/>
				<path class="st3" d="M320.8-235.9c7.2-1.9,14.4-3.6,21.7-4.9L107.3-47.5c2.9-7,6-13.8,9.4-20.6L320.8-235.9z"/>
				<path class="st3" d="M91.3,2.9c1.3-5.5,2.7-11,4.3-16.4l281.7-231.6c5.5-0.4,11-0.6,16.5-0.7L91.3,2.9z"/>
				<path class="st3" d="M436.4-243.6L84.2,45.9c0.5-4.8,1.1-9.6,1.7-14.3L422.4-245C427.1-244.6,431.8-244.2,436.4-243.6z"/>
				<path class="st3" d="M82.7,84.4c-0.1-4.3-0.1-8.6,0-12.9l378.4-311.1c4.1,0.8,8.2,1.8,12.3,2.8L82.7,84.4z"/>
				<path class="st3" d="M85.1,119.6c-0.5-4-0.9-7.9-1.2-11.9l411.5-338.3c3.7,1.2,7.4,2.5,11.1,3.8L85.1,119.6z"/>
				<path class="st3" d="M90.8,152.1c-0.8-3.7-1.5-7.4-2.2-11.1l437.6-359.7c3.4,1.5,6.7,3,10,4.6L90.8,152.1z"/>
				<path class="st3" d="M99.2,182.4c-1.1-3.4-2.1-6.9-3.1-10.3l458-376.5c3.1,1.8,6.1,3.5,9.1,5.4L99.2,182.4z"/>
				<path class="st3" d="M110.1,210.7c-1.4-3.2-2.7-6.4-4-9.6l473.4-389.1c2.8,2,5.6,4,8.3,6.1L110.1,210.7z"/>
				<path class="st3" d="M136.8,213h15.7l457.7-376.2c-2.5-2.3-5-4.5-7.5-6.7L136.8,213z"/>
				<path class="st3" d="M182.1,213h15.7l432.7-355.7c-2.2-2.5-4.5-5-6.8-7.3L182.1,213z"/>
				<path class="st3" d="M227.3,213H243l405.8-333.6c-1-1.3-1.9-2.7-3-4c-1-1.3-2.1-2.5-3.2-3.8L227.3,213z"/>
				<path class="st3" d="M272.6,213h15.7l377-310c-1.8-2.8-3.7-5.6-5.5-8.4L272.6,213z"/>
				<path class="st3" d="M317.9,213h15.7L679.7-71.5c-1.5-3-3.1-6-4.8-9L317.9,213z"/>
				<path class="st3" d="M363.1,213h15.7L692-44.4c-1.3-3.2-2.6-6.4-4-9.6L363.1,213z"/>
				<path class="st3" d="M408.4,213h15.7L702-15.4c-1-3.4-2-6.9-3.1-10.3L408.4,213z"/>
				<path class="st3" d="M453.6,213h15.7L709.5,15.6c-0.7-3.7-1.4-7.4-2.2-11.1L453.6,213z"/>
				<path class="st3" d="M498.9,213h15.7L714.2,49c-0.3-4-0.7-7.9-1.2-11.9L498.9,213z"/>
				<path class="st3" d="M544.2,213h15.7L715.4,85.2c0.1-4.3,0.1-8.6,0-12.9L544.2,213z"/>
				<path class="st3" d="M589.4,213h15.7l107-88c0.7-4.8,1.3-9.5,1.7-14.3L589.4,213z"/>
				<path class="st3" d="M634.7,213h15.7l52.1-42.8c1.6-5.4,3-10.9,4.3-16.4L634.7,213z"/>
				<path class="st3" d="M679.9,213h7c1.3-3,2.6-5.9,3.9-8.9L679.9,213z"/>
			</g>
		</g>
		<g>
			<path class="st4" d="M988.4,169.2c7.6-8.9,11.4-22.2,6.1-32.6c-2.8-5.5-8-9.9-9.6-15.9c-2.7-9.8,4.8-19.1,8.7-28.5
				c5.4-13,2-30.9-10.9-36.5c-8.9-3.9-19.3-0.9-28,3.6c-8.6,4.5-16.6,10.5-26,12.9c-12.9,3.4-27.1-0.2-39.4,4.9
				c-11.5,4.7-19.2,16.6-21,29c-1.9,12.3,1.4,25,6.8,36.2c2.7,5.7,6,11.2,7.5,17.3c2.2,8.8,0.7,18,0.4,27.1
				c-1,30.9,25.9,38.2,49.3,23.1c7.5-4.8,13.1-12.1,20.6-17.1C964.8,184.7,978.7,180.5,988.4,169.2z"/>
			<path class="st0" d="M898,208.9c9.8-49.9,37.7-96,77.3-127.9L898,208.9z"/>
			<path class="st0" d="M917.7,152.2c-1.5-21.3-11.3-41.8-26.8-56.4L917.7,152.2z"/>
			<path class="st0" d="M919.2,151.5c22.4-10.3,49.7-9.1,71.1,3.1L919.2,151.5z"/>
			<path class="st0" d="M949.5,185c-14.1-8.1-32.9-7.1-46.2,2.3L949.5,185z"/>
			<path class="st0" d="M883.9,152.8c9.6,7.9,17,18.6,20.9,30.4L883.9,152.8z"/>
			<path class="st0" d="M976.3,114.6c-10.6-5.4-24-5-34.3,1.1L976.3,114.6z"/>
			<path class="st0" d="M941.5,115.3c0.6-11.1-4.2-22.3-12.6-29.5L941.5,115.3z"/>
		</g>
		<g>
			<path class="st5" d="M1020.3,201.3c8.1-4.4,14.7-13.1,13.6-22.3c-0.5-4.9-3.1-9.5-2.6-14.4c0.8-8,8.9-12.7,14.4-18.5
				c7.6-8.1,10.2-22.2,2.2-29.9c-5.5-5.4-14-6.1-21.6-5.2c-7.6,0.9-15.2,3-22.8,2.2c-10.4-1.1-19.9-7.7-30.4-7.5
				c-9.8,0.3-18.8,6.9-23.6,15.4c-4.8,8.6-6,18.8-5.2,28.6c0.4,4.9,1.3,9.9,0.7,14.8c-0.8,7.1-4.5,13.5-7.3,20.1
				c-9.4,22.5,8.4,35.4,29.9,30.9c6.9-1.4,13.1-5.2,20-6.8C998.6,206.1,1010,206.9,1020.3,201.3z"/>
			<path class="st0" d="M942.6,205.1c21.3-34,54.8-60.1,92.9-72.5L942.6,205.1z"/>
			<path class="st0" d="M973.1,168.9c4.9-16.1,3.5-34-3.9-49.1L973.1,168.9z"/>
			<path class="st0" d="M974.3,168.8c19.4-1.3,39.2,7.3,51.5,22.3L974.3,168.8z"/>
			<path class="st0" d="M987.2,202c-8.1-9.9-22.3-14.5-34.7-11.3L987.2,202z"/>
			<path class="st0" d="M947.9,159.8c4.9,8.5,7.3,18.5,6.9,28.3L947.9,159.8z"/>
			<path class="st0" d="M1026.8,157.7c-6.3-7-16.3-10.4-25.6-8.8L1026.8,157.7z"/>
			<path class="st0" d="M1000.9,148.4c3.6-8,3.2-17.6-1-25.3L1000.9,148.4z"/>
		</g>
		<g>
			<path class="st3" d="M13.9,209.3c0,0,67.5,108.7,159.9,127.2c92.4,18.4,194.9-78.4,267.1-70.7c72.2,7.7,130.2,69.7,313.1-6.1
				c74.4-30.9,170.4,81.1,250.6,83c141,3.3,178.5-75.1,248.2-72.4c68.2,2.7,177.4,137.9,291.6-61"/>
			<linearGradient id="SVGID_3_" gradientUnits="userSpaceOnUse" x1="9" y1="209.2513" x2="1550" y2="209.2513">
				<stop  offset="0" style="stop-color:#3A77BC"/>
				<stop  offset="1" style="stop-color:#2B4057"/>
			</linearGradient>
			<path class="st6" d="M1546.5,212.8H12.5c-2,0-3.5-1.6-3.5-3.6l0,0c0-2,1.6-3.6,3.5-3.6h1533.9c2,0,3.5,1.6,3.5,3.6l0,0
				C1550,211.2,1548.4,212.8,1546.5,212.8z"/>
		</g>
		<g>
			<g class="st7">
				<path class="st8" d="M340.5,136.6v-6.8c0-1.1,0.9-2,2-2c1.1,0,2,0.9,2,2v6.8c0,1.1-0.9,2-2,2
					C341.4,138.6,340.5,137.7,340.5,136.6z M340.5,116.8V110c0-1.1,0.9-2,2-2c1.1,0,2,0.9,2,2v6.8c0,1.1-0.9,2-2,2
					C341.4,118.8,340.5,117.9,340.5,116.8z M340.5,97v-6.8c0-1.1,0.9-2,2-2c1.1,0,2,0.9,2,2V97c0,1.1-0.9,2-2,2
					C341.4,99,340.5,98.1,340.5,97z M340.5,77.1v-6.8c0-1.1,0.9-2,2-2c1.1,0,2,0.9,2,2v6.8c0,1.1-0.9,2-2,2
					C341.4,79.1,340.5,78.2,340.5,77.1z M340.5,57.3v-6.8c0-1.1,0.9-2,2-2c1.1,0,2,0.9,2,2v6.8c0,1.1-0.9,2-2,2
					C341.4,59.3,340.5,58.4,340.5,57.3z M340.5,37.5v-6.3h4.5c1.1,0,2,0.9,2,2c0,1.1-0.9,2-2,2h-0.5v2.3c0,1.1-0.9,2-2,2
					C341.4,39.5,340.5,38.6,340.5,37.5z M356,33.2c0-1.1,0.9-2,2-2h6.8c1.1,0,2,0.9,2,2c0,1.1-0.9,2-2,2H358
					C356.9,35.1,356,34.3,356,33.2z M375.8,33.2c0-1.1,0.9-2,2-2h6.8c1.1,0,2,0.9,2,2c0,1.1-0.9,2-2,2h-6.8
					C376.7,35.1,375.8,34.3,375.8,33.2z M395.7,33.2c0-1.1,0.9-2,2-2h6.8c1.1,0,2,0.9,2,2c0,1.1-0.9,2-2,2h-6.8
					C396.6,35.1,395.7,34.3,395.7,33.2z M415.5,33.2c0-1.1,0.9-2,2-2h6.8c1.1,0,2,0.9,2,2c0,1.1-0.9,2-2,2h-6.8
					C416.4,35.1,415.5,34.3,415.5,33.2z M435.3,33.2c0-1.1,0.9-2,2-2h6.8c1.1,0,2,0.9,2,2c0,1.1-0.9,2-2,2h-6.8
					C436.2,35.1,435.3,34.3,435.3,33.2z M455.2,33.2c0-1.1,0.9-2,2-2h6.8c1.1,0,2,0.9,2,2c0,1.1-0.9,2-2,2h-6.8
					C456,35.1,455.2,34.3,455.2,33.2z M475,33.2c0-1.1,0.9-2,2-2h6.8c1.1,0,2,0.9,2,2c0,1.1-0.9,2-2,2H477
					C475.9,35.1,475,34.3,475,33.2z"/>
			</g>
			<g class="st7">
				<path class="st8" d="M538.6,139c-1.1,0-2-0.9-2-2v-6.8c0-1.1,0.9-2,2-2s2,0.9,2,2v6.8C540.6,138.2,539.7,139,538.6,139z
					 M538.6,119.2c-1.1,0-2-0.9-2-2v-6.8c0-1.1,0.9-2,2-2s2,0.9,2,2v6.8C540.6,118.3,539.7,119.2,538.6,119.2z M538.6,99.4
					c-1.1,0-2-0.9-2-2v-6.8c0-1.1,0.9-2,2-2s2,0.9,2,2v6.8C540.6,98.5,539.7,99.4,538.6,99.4z M538.6,79.5c-1.1,0-2-0.9-2-2v-6.8
					c0-1.1,0.9-2,2-2s2,0.9,2,2v6.8C540.6,78.7,539.7,79.5,538.6,79.5z M538.6,59.7c-1.1,0-2-0.9-2-2v-6.8c0-1.1,0.9-2,2-2
					s2,0.9,2,2v6.8C540.6,58.8,539.7,59.7,538.6,59.7z M538.6,39.9c-1.1,0-2-0.9-2-2v-2.3h-0.5c-1.1,0-2-0.9-2-2c0-1.1,0.9-2,2-2
					h4.5v6.3C540.6,39,539.7,39.9,538.6,39.9z M523.1,35.6h-6.8c-1.1,0-2-0.9-2-2c0-1.1,0.9-2,2-2h6.8c1.1,0,2,0.9,2,2
					C525.1,34.7,524.2,35.6,523.1,35.6z M503.3,35.6h-6.8c-1.1,0-2-0.9-2-2c0-1.1,0.9-2,2-2h6.8c1.1,0,2,0.9,2,2
					C505.3,34.7,504.4,35.6,503.3,35.6z"/>
			</g>
		</g>
		<g>
			<g class="st7">
				<path class="st8" d="M146.7,70c1.1,0,2,0.9,2,2v6.8c0,1.1-0.9,2-2,2s-2-0.9-2-2V72C144.7,70.9,145.6,70,146.7,70z M146.7,89.8
					c1.1,0,2,0.9,2,2v6.8c0,1.1-0.9,2-2,2s-2-0.9-2-2v-6.8C144.7,90.7,145.6,89.8,146.7,89.8z M146.7,109.6c1.1,0,2,0.9,2,2v6.8
					c0,1.1-0.9,2-2,2s-2-0.9-2-2v-6.8C144.7,110.5,145.6,109.6,146.7,109.6z M146.7,129.5c1.1,0,2,0.9,2,2v6.8c0,1.1-0.9,2-2,2
					s-2-0.9-2-2v-6.8C144.7,130.4,145.6,129.5,146.7,129.5z M146.7,149.3c1.1,0,2,0.9,2,2v6.8c0,1.1-0.9,2-2,2s-2-0.9-2-2v-6.8
					C144.7,150.2,145.6,149.3,146.7,149.3z M146.7,169.1c1.1,0,2,0.9,2,2v2.3h0.5c1.1,0,2,0.9,2,2c0,1.1-0.9,2-2,2h-4.5v-6.3
					C144.7,170,145.6,169.1,146.7,169.1z M162.2,173.4h6.8c1.1,0,2,0.9,2,2c0,1.1-0.9,2-2,2h-6.8c-1.1,0-2-0.9-2-2
					C160.2,174.3,161.1,173.4,162.2,173.4z M182.1,173.4h6.8c1.1,0,2,0.9,2,2c0,1.1-0.9,2-2,2h-6.8c-1.1,0-2-0.9-2-2
					C180.1,174.3,181,173.4,182.1,173.4z M201.9,173.4h6.8c1.1,0,2,0.9,2,2c0,1.1-0.9,2-2,2h-6.8c-1.1,0-2-0.9-2-2
					C199.9,174.3,200.8,173.4,201.9,173.4z M221.7,173.4h6.8c1.1,0,2,0.9,2,2c0,1.1-0.9,2-2,2h-6.8c-1.1,0-2-0.9-2-2
					C219.7,174.3,220.6,173.4,221.7,173.4z M241.6,173.4h6.8c1.1,0,2,0.9,2,2c0,1.1-0.9,2-2,2h-6.8c-1.1,0-2-0.9-2-2
					C239.6,174.3,240.5,173.4,241.6,173.4z M261.4,173.4h6.8c1.1,0,2,0.9,2,2c0,1.1-0.9,2-2,2h-6.8c-1.1,0-2-0.9-2-2
					C259.4,174.3,260.3,173.4,261.4,173.4z M281.2,173.4h6.8c1.1,0,2,0.9,2,2c0,1.1-0.9,2-2,2h-6.8c-1.1,0-2-0.9-2-2
					C279.2,174.3,280.1,173.4,281.2,173.4z"/>
			</g>
			<g class="st7">
				<path class="st8" d="M344.9,71.5v6.8c0,1.1-0.9,2-2,2c-1.1,0-2-0.9-2-2v-6.8c0-1.1,0.9-2,2-2C344,69.6,344.9,70.4,344.9,71.5z
					 M344.9,91.4v6.8c0,1.1-0.9,2-2,2c-1.1,0-2-0.9-2-2v-6.8c0-1.1,0.9-2,2-2C344,89.4,344.9,90.3,344.9,91.4z M344.9,111.2v6.8
					c0,1.1-0.9,2-2,2c-1.1,0-2-0.9-2-2v-6.8c0-1.1,0.9-2,2-2C344,109.2,344.9,110.1,344.9,111.2z M344.9,131v6.8c0,1.1-0.9,2-2,2
					c-1.1,0-2-0.9-2-2V131c0-1.1,0.9-2,2-2C344,129,344.9,129.9,344.9,131z M344.9,150.9v6.8c0,1.1-0.9,2-2,2c-1.1,0-2-0.9-2-2v-6.8
					c0-1.1,0.9-2,2-2C344,148.9,344.9,149.8,344.9,150.9z M344.9,170.7v6.3h-4.5c-1.1,0-2-0.9-2-2c0-1.1,0.9-2,2-2h0.5v-2.3
					c0-1.1,0.9-2,2-2C344,168.7,344.9,169.6,344.9,170.7z M329.4,175c0,1.1-0.9,2-2,2h-6.8c-1.1,0-2-0.9-2-2c0-1.1,0.9-2,2-2h6.8
					C328.5,173,329.4,173.9,329.4,175z M309.5,175c0,1.1-0.9,2-2,2h-6.8c-1.1,0-2-0.9-2-2c0-1.1,0.9-2,2-2h6.8
					C308.6,173,309.5,173.9,309.5,175z"/>
			</g>
		</g>
		<g>
			<g class="st7">
				<path class="st8" d="M538.7,70c1.1,0,2,0.9,2,2v6.8c0,1.1-0.9,2-2,2s-2-0.9-2-2V72C536.7,70.9,537.6,70,538.7,70z M538.7,89.8
					c1.1,0,2,0.9,2,2v6.8c0,1.1-0.9,2-2,2s-2-0.9-2-2v-6.8C536.7,90.7,537.6,89.8,538.7,89.8z M538.7,109.6c1.1,0,2,0.9,2,2v6.8
					c0,1.1-0.9,2-2,2s-2-0.9-2-2v-6.8C536.7,110.5,537.6,109.6,538.7,109.6z M538.7,129.5c1.1,0,2,0.9,2,2v6.8c0,1.1-0.9,2-2,2
					s-2-0.9-2-2v-6.8C536.7,130.4,537.6,129.5,538.7,129.5z M538.7,149.3c1.1,0,2,0.9,2,2v6.8c0,1.1-0.9,2-2,2s-2-0.9-2-2v-6.8
					C536.7,150.2,537.6,149.3,538.7,149.3z M538.7,169.1c1.1,0,2,0.9,2,2v2.3h0.5c1.1,0,2,0.9,2,2c0,1.1-0.9,2-2,2h-4.5v-6.3
					C536.7,170,537.6,169.1,538.7,169.1z M554.2,173.4h6.8c1.1,0,2,0.9,2,2c0,1.1-0.9,2-2,2h-6.8c-1.1,0-2-0.9-2-2
					C552.2,174.3,553.1,173.4,554.2,173.4z M574,173.4h6.8c1.1,0,2,0.9,2,2c0,1.1-0.9,2-2,2H574c-1.1,0-2-0.9-2-2
					C572.1,174.3,573,173.4,574,173.4z M593.9,173.4h6.8c1.1,0,2,0.9,2,2c0,1.1-0.9,2-2,2h-6.8c-1.1,0-2-0.9-2-2
					C591.9,174.3,592.8,173.4,593.9,173.4z M613.7,173.4h6.8c1.1,0,2,0.9,2,2c0,1.1-0.9,2-2,2h-6.8c-1.1,0-2-0.9-2-2
					C611.7,174.3,612.6,173.4,613.7,173.4z M633.5,173.4h6.8c1.1,0,2,0.9,2,2c0,1.1-0.9,2-2,2h-6.8c-1.1,0-2-0.9-2-2
					C631.6,174.3,632.4,173.4,633.5,173.4z M653.4,173.4h6.8c1.1,0,2,0.9,2,2c0,1.1-0.9,2-2,2h-6.8c-1.1,0-2-0.9-2-2
					C651.4,174.3,652.3,173.4,653.4,173.4z M673.2,173.4h6.8c1.1,0,2,0.9,2,2c0,1.1-0.9,2-2,2h-6.8c-1.1,0-2-0.9-2-2
					C671.2,174.3,672.1,173.4,673.2,173.4z"/>
			</g>
			<g class="st7">
				<path class="st8" d="M736.9,71.5v6.8c0,1.1-0.9,2-2,2s-2-0.9-2-2v-6.8c0-1.1,0.9-2,2-2S736.9,70.4,736.9,71.5z M736.9,91.4v6.8
					c0,1.1-0.9,2-2,2s-2-0.9-2-2v-6.8c0-1.1,0.9-2,2-2S736.9,90.3,736.9,91.4z M736.9,111.2v6.8c0,1.1-0.9,2-2,2s-2-0.9-2-2v-6.8
					c0-1.1,0.9-2,2-2S736.9,110.1,736.9,111.2z M736.9,131v6.8c0,1.1-0.9,2-2,2s-2-0.9-2-2V131c0-1.1,0.9-2,2-2
					S736.9,129.9,736.9,131z M736.9,150.9v6.8c0,1.1-0.9,2-2,2s-2-0.9-2-2v-6.8c0-1.1,0.9-2,2-2S736.9,149.8,736.9,150.9z
					 M736.9,170.7v6.3h-4.5c-1.1,0-2-0.9-2-2c0-1.1,0.9-2,2-2h0.5v-2.3c0-1.1,0.9-2,2-2S736.9,169.6,736.9,170.7z M721.3,175
					c0,1.1-0.9,2-2,2h-6.8c-1.1,0-2-0.9-2-2c0-1.1,0.9-2,2-2h6.8C720.5,173,721.3,173.9,721.3,175z M701.5,175c0,1.1-0.9,2-2,2h-6.8
					c-1.1,0-2-0.9-2-2c0-1.1,0.9-2,2-2h6.8C700.6,173,701.5,173.9,701.5,175z"/>
			</g>
		</g>
		<path class="st3" d="M212.7,146.3H76.8c-8.2,0-15-6.7-15-15V76.6c0-8.2,6.7-15,15-15h135.9c8.2,0,15,6.7,15,15v54.7
			C227.7,139.6,220.9,146.3,212.7,146.3z"/>
		<path class="st3" d="M416.2,146.4H280.3c-8.2,0-15-6.7-15-15V76.8c0-8.2,6.7-15,15-15h135.9c8.2,0,15,6.7,15,15v54.7
			C431.2,139.7,424.5,146.4,416.2,146.4z"/>
		<g>
			<path class="st9" d="M1273.2,158.6l-16.1,0.2c-1.8-5.9-4.2-11.5-7.1-16.8l11.2-11.5c5.1-5.2,5-13.6-0.2-18.7l-16.6-16.3
				c-5.2-5.1-13.6-5-18.7,0.2l-11.2,11.5c-5.3-2.8-11-5.1-16.9-6.8l-0.2-16.1c-0.1-7.3-6-13.2-13.3-13.1l-23.3,0.2
				c-7.3,0.1-13.2,6-13.1,13.3l0.2,16.1c-5.9,1.8-11.5,4.2-16.8,7.1l-11.5-11.2c-5.2-5.1-13.6-5-18.7,0.2l-16.3,16.6
				c-5.1,5.2-5,13.6,0.2,18.7l11.5,11.2c-2.8,5.3-5.1,11-6.8,16.9l-16.1,0.2c-7.3,0.1-13.2,6-13.1,13.3l0.2,23.3
				c0.1,7.3,6,13.2,13.3,13.1l16.1-0.2c1.8,5.9,4.2,11.5,7.1,16.8l-11.2,11.5c-5.1,5.2-5,13.6,0.2,18.7l16.6,16.3
				c5.2,5.1,13.6,5,18.7-0.2l11.2-11.5c5.3,2.8,11,5.1,16.9,6.8l0.2,16.1c0.1,7.3,6,13.2,13.3,13.1l23.3-0.2
				c7.3-0.1,13.2-6,13.1-13.4l-0.2-16.1c5.9-1.8,11.5-4.2,16.8-7.1l11.5,11.2c5.2,5.1,13.6,5,18.7-0.2l16.3-16.6
				c5.1-5.2,5-13.6-0.2-18.7l-11.5-11.2c2.8-5.3,5.1-11,6.8-16.9l16.1-0.2c7.3-0.1,13.2-6,13.1-13.4l-0.2-23.3
				C1286.5,164.4,1280.5,158.5,1273.2,158.6z M1174,229.4c-24.8,0.2-45.1-19.7-45.4-44.5c-0.2-24.8,19.7-45.1,44.5-45.4
				c24.8-0.2,45.1,19.7,45.4,44.5C1218.8,208.8,1198.8,229.1,1174,229.4z"/>
			<g>
				<path class="st0" d="M1179.4,256.9c-40,3.2-75.1-26.7-78.3-66.7c-3.2-40,26.7-75.1,66.7-78.3c40-3.2,75.1,26.7,78.3,66.7
					C1249.3,218.6,1219.4,253.7,1179.4,256.9z M1168.2,117.6c-36.9,3-64.4,35.4-61.5,72.2c3,36.9,35.4,64.4,72.2,61.5
					c36.9-3,64.4-35.4,61.5-72.2C1237.5,142.2,1205.1,114.6,1168.2,117.6z"/>
			</g>
		</g>
		<g>
			<path class="st10" d="M1413.2,64.4l-11.1,0.1c-1.2-4.1-2.9-7.9-4.9-11.6l7.8-7.9c3.5-3.6,3.5-9.4-0.1-12.9l-11.5-11.3
				c-3.6-3.5-9.4-3.5-12.9,0.1l-7.8,7.9c-3.7-2-7.6-3.5-11.7-4.7l-0.1-11.1c-0.1-5-4.2-9.1-9.2-9l-16.1,0.2c-5,0-9.1,4.2-9,9.2
				l0.1,11.1c-4.1,1.2-7.9,2.9-11.6,4.9l-7.9-7.8c-3.6-3.5-9.4-3.5-12.9,0.1l-11.3,11.5c-3.5,3.6-3.5,9.4,0.1,12.9l7.9,7.8
				c-2,3.7-3.5,7.6-4.7,11.7l-11.1,0.1c-5,0-9.1,4.2-9,9.2l0.2,16.1c0,5,4.2,9.1,9.2,9l11.1-0.1c1.2,4.1,2.9,7.9,4.9,11.6l-7.8,7.9
				c-3.5,3.6-3.5,9.4,0.1,12.9l11.5,11.3c3.6,3.5,9.4,3.5,12.9-0.1l7.8-7.9c3.7,2,7.6,3.5,11.7,4.7l0.1,11.1c0.1,5,4.2,9.1,9.2,9
				l16.1-0.2c5,0,9.1-4.2,9-9.2l-0.1-11.1c4.1-1.2,7.9-2.9,11.6-4.9l7.9,7.8c3.6,3.5,9.4,3.5,12.9-0.1l11.3-11.5
				c3.5-3.6,3.5-9.4-0.1-12.9l-7.9-7.8c2-3.7,3.5-7.6,4.7-11.7l11.1-0.1c5,0,9.1-4.2,9-9.2l-0.2-16.1
				C1422.3,68.4,1418.2,64.3,1413.2,64.4z M1344.7,113.3c-17.1,0.2-31.2-13.6-31.3-30.7c-0.2-17.1,13.6-31.2,30.7-31.3
				c17.1-0.2,31.2,13.6,31.3,30.7C1375.5,99.1,1361.8,113.1,1344.7,113.3z"/>
			<g>
				<path class="st0" d="M1348.4,132.3c-27.6,2.2-51.9-18.4-54.1-46.1c-2.2-27.6,18.4-51.9,46.1-54.1c27.6-2.2,51.9,18.4,54.1,46.1
					S1376,130.1,1348.4,132.3z M1340.6,36.1c-25.5,2-44.5,24.4-42.5,49.9c2,25.5,24.4,44.5,49.9,42.5c25.5-2,44.5-24.4,42.5-49.9
					C1388.5,53.1,1366.1,34,1340.6,36.1z"/>
			</g>
		</g>
		<g>
			<path class="st11" d="M1479.4,128c0.3,0,0.5,0,0.8,0v-17.9c-0.3,0-0.5,0-0.8,0c-21.3,0-38.6,17.5-38.6,39.1h17.7
				C1458.5,137.5,1467.8,128,1479.4,128z"/>
			<path class="st3" d="M1480.2,128.1c11.2,0.4,20.1,9.7,20.1,21.2c0,11.4-8.9,20.7-20.1,21.2c-0.3,0-0.5,0-0.8,0
				c-11.5,0-20.9-9.5-20.9-21.2h-17.7c0,21.6,17.3,39.1,38.6,39.1c0.3,0,0.5,0,0.8,0c20.9-0.4,37.8-17.8,37.8-39.1
				s-16.9-38.6-37.8-39.1V128.1z"/>
		</g>
		<g>
			<path class="st11" d="M1479.4,79.9c-0.3,0-0.5,0-0.8,0v17.9c0.3,0,0.5,0,0.8,0c21.3,0,38.6-17.5,38.6-39.1h-17.7
				C1500.3,70.4,1490.9,79.9,1479.4,79.9z"/>
			<path class="st3" d="M1478.6,79.9c-11.2-0.4-20.1-9.7-20.1-21.2s8.9-20.7,20.1-21.2c0.3,0,0.5,0,0.8,0c11.5,0,20.9,9.5,20.9,21.2
				h17.7c0-21.6-17.3-39.1-38.6-39.1c-0.3,0-0.5,0-0.8,0c-20.9,0.4-37.8,17.8-37.8,39.1s16.9,38.6,37.8,39.1V79.9z"/>
		</g>
		<g>
			<rect x="679.5" y="7.9" class="st10" width="236.6" height="197.8"/>
			<rect x="694.8" y="22.7" class="st12" width="133.9" height="170.2"/>
			<path class="st12" d="M841.6,70.3c0-17.3,14-31.3,31.3-31.3s31.3,14,31.3,31.3c0,17.3-14,31.3-31.3,31.3S841.6,87.6,841.6,70.3z"
				/>
			<linearGradient id="SVGID_4_" gradientUnits="userSpaceOnUse" x1="846.3936" y1="70.3005" x2="899.2522" y2="70.3005">
				<stop  offset="0" style="stop-color:#F16A7E"/>
				<stop  offset="1" style="stop-color:#DD2376"/>
			</linearGradient>
			<path class="st13" d="M899.3,70.3c0-14.6-11.8-26.4-26.4-26.4c-14.6,0-26.4,11.8-26.4,26.4c0,14.6,11.8,26.4,26.4,26.4
				c6,0,11.6-2,16-5.4l-16-21l24.7,9.4C898.6,76.8,899.3,73.6,899.3,70.3z"/>
			<path class="st12" d="M841.6,142.5c0-17.3,14-31.3,31.3-31.3c17.3,0,31.3,14,31.3,31.3c0,17.3-14,31.3-31.3,31.3
				C855.6,173.7,841.6,159.7,841.6,142.5z"/>
			<linearGradient id="SVGID_5_" gradientUnits="userSpaceOnUse" x1="846.3939" y1="138.5105" x2="899.2522" y2="138.5105">
				<stop  offset="0" style="stop-color:#F16A7E"/>
				<stop  offset="1" style="stop-color:#DD2376"/>
			</linearGradient>
			<path class="st14" d="M872.8,116c-14.6,0-26.4,11.8-26.4,26.4c0,7.2,2.9,13.8,7.6,18.5l18.8-18.5l24.7,9.4
				c1.1-2.9,1.7-6.1,1.7-9.4C899.3,127.9,887.4,116,872.8,116z"/>
			<g>
				<path class="st15" d="M869,129h-11.3c-0.4,0-0.8,0.4-0.8,0.8l0,0c0,0.4,0.4,0.8,0.8,0.8H869c0.4,0,0.8-0.4,0.8-0.8l0,0
					C869.8,129.4,869.4,129,869,129z"/>
				<path class="st15" d="M869,131.6h-11.3c-0.4,0-0.8,0.4-0.8,0.8c0,0.4,0.4,0.8,0.8,0.8H869c0.4,0,0.8-0.4,0.8-0.8
					C869.8,131.9,869.4,131.6,869,131.6z"/>
				<path class="st15" d="M862.4,134.1h-4.6c-0.4,0-0.8,0.4-0.8,0.8c0,0.4,0.4,0.8,0.8,0.8h4.6c0.4,0,0.8-0.4,0.8-0.8
					C863.2,134.5,862.8,134.1,862.4,134.1z"/>
			</g>
			<g>
				<path class="st15" d="M868.7,56.9h-11.3c-0.4,0-0.8,0.4-0.8,0.8l0,0c0,0.4,0.4,0.8,0.8,0.8h11.3c0.4,0,0.8-0.4,0.8-0.8l0,0
					C869.5,57.2,869.2,56.9,868.7,56.9z"/>
				<path class="st15" d="M868.7,59.4h-11.3c-0.4,0-0.8,0.4-0.8,0.8c0,0.4,0.4,0.8,0.8,0.8h11.3c0.4,0,0.8-0.4,0.8-0.8
					C869.5,59.8,869.2,59.4,868.7,59.4z"/>
				<path class="st15" d="M862.1,62h-4.6c-0.4,0-0.8,0.4-0.8,0.8c0,0.4,0.4,0.8,0.8,0.8h4.6c0.4,0,0.8-0.4,0.8-0.8
					C862.9,62.3,862.6,62,862.1,62z"/>
			</g>
			<g>
				<linearGradient id="SVGID_6_" gradientUnits="userSpaceOnUse" x1="754.9565" y1="139.614" x2="769.6641" y2="139.614">
					<stop  offset="0" style="stop-color:#3A77BC"/>
					<stop  offset="1" style="stop-color:#2B4057"/>
				</linearGradient>
				<rect x="755" y="93.8" class="st16" width="14.7" height="91.6"/>
				<linearGradient id="SVGID_7_" gradientUnits="userSpaceOnUse" x1="806.2559" y1="126.8451" x2="820.9634" y2="126.8451">
					<stop  offset="0" style="stop-color:#3A77BC"/>
					<stop  offset="1" style="stop-color:#2B4057"/>
				</linearGradient>
				<rect x="806.3" y="68.3" class="st17" width="14.7" height="117.2"/>
				<linearGradient id="SVGID_8_" gradientUnits="userSpaceOnUse" x1="728.392" y1="150.692" x2="743.0994" y2="150.692">
					<stop  offset="0" style="stop-color:#3A77BC"/>
					<stop  offset="1" style="stop-color:#2B4057"/>
				</linearGradient>
				<rect x="728.4" y="116" class="st18" width="14.7" height="69.5"/>
				<linearGradient id="SVGID_9_" gradientUnits="userSpaceOnUse" x1="780.5397" y1="134.6657" x2="795.2473" y2="134.6657">
					<stop  offset="0" style="stop-color:#3A77BC"/>
					<stop  offset="1" style="stop-color:#2B4057"/>
				</linearGradient>
				<rect x="780.5" y="83.9" class="st19" width="14.7" height="101.5"/>
				<linearGradient id="SVGID_10_" gradientUnits="userSpaceOnUse" x1="704.5703" y1="157.4899" x2="719.2778" y2="157.4899">
					<stop  offset="0" style="stop-color:#3A77BC"/>
					<stop  offset="1" style="stop-color:#2B4057"/>
				</linearGradient>
				<rect x="704.6" y="129.6" class="st20" width="14.7" height="55.9"/>
			</g>
			<g>
				<path class="st15" d="M794.5,73.1h-12.5c-0.7,0-1.3,0.6-1.3,1.3c0,0.7,0.6,1.3,1.3,1.3h12.5c0.7,0,1.3-0.6,1.3-1.3
					C795.8,73.7,795.3,73.1,794.5,73.1z"/>
				<path class="st15" d="M784.9,77.8h-2.8c-0.7,0-1.3,0.6-1.3,1.3c0,0.7,0.6,1.3,1.3,1.3h2.8c0.7,0,1.3-0.6,1.3-1.3
					C786.2,78.4,785.6,77.8,784.9,77.8z"/>
				<path class="st15" d="M742.1,104.4h-12.5c-0.7,0-1.3,0.6-1.3,1.3c0,0.7,0.6,1.3,1.3,1.3h12.5c0.7,0,1.3-0.6,1.3-1.3
					C743.4,105,742.8,104.4,742.1,104.4z"/>
				<path class="st15" d="M732.5,109.1h-2.8c-0.7,0-1.3,0.6-1.3,1.3l0,0c0,0.7,0.6,1.3,1.3,1.3h2.8c0.7,0,1.3-0.6,1.3-1.3l0,0
					C733.7,109.7,733.2,109.1,732.5,109.1z"/>
				<path class="st15" d="M718.2,119.2h-12.5c-0.7,0-1.3,0.6-1.3,1.3c0,0.7,0.6,1.3,1.3,1.3h12.5c0.7,0,1.3-0.6,1.3-1.3
					C719.4,119.8,718.9,119.2,718.2,119.2z"/>
				<path class="st15" d="M708.5,123.9h-2.8c-0.7,0-1.3,0.6-1.3,1.3l0,0c0,0.7,0.6,1.3,1.3,1.3h2.8c0.7,0,1.3-0.6,1.3-1.3l0,0
					C709.8,124.5,709.2,123.9,708.5,123.9z"/>
				<path class="st15" d="M768.5,82.5h-12.5c-0.7,0-1.3,0.6-1.3,1.3c0,0.7,0.6,1.3,1.3,1.3h12.5c0.7,0,1.3-0.6,1.3-1.3
					C769.8,83.1,769.2,82.5,768.5,82.5z"/>
				<path class="st15" d="M758.9,87.2h-2.8c-0.7,0-1.3,0.6-1.3,1.3l0,0c0,0.7,0.6,1.3,1.3,1.3h2.8c0.7,0,1.3-0.6,1.3-1.3l0,0
					C760.2,87.7,759.6,87.2,758.9,87.2z"/>
				<path class="st15" d="M819.8,57.3h-12.5c-0.7,0-1.3,0.6-1.3,1.3c0,0.7,0.6,1.3,1.3,1.3h12.5c0.7,0,1.3-0.6,1.3-1.3
					C821.1,57.9,820.5,57.3,819.8,57.3z"/>
				<path class="st15" d="M810.2,62h-2.8c-0.7,0-1.3,0.6-1.3,1.3c0,0.7,0.6,1.3,1.3,1.3h2.8c0.7,0,1.3-0.6,1.3-1.3
					C811.5,62.6,810.9,62,810.2,62z"/>
			</g>
		</g>
		
			<ellipse transform="matrix(0.7071 -0.7071 0.7071 0.7071 18.0364 252.8227)" class="st12" cx="314.2" cy="104.6" rx="29.2" ry="29.2"/>
		<g>
			<path class="st10" d="M413.4,88.3H365c-1.8,0-3.2,1.4-3.2,3.2l0,0c0,1.8,1.4,3.2,3.2,3.2h48.4c1.8,0,3.2-1.4,3.2-3.2l0,0
				C416.6,89.8,415.1,88.3,413.4,88.3z"/>
			<path class="st10" d="M413.4,101.5H365c-1.8,0-3.2,1.4-3.2,3.2l0,0c0,1.8,1.4,3.2,3.2,3.2h48.4c1.8,0,3.2-1.4,3.2-3.2l0,0
				C416.6,102.9,415.1,101.5,413.4,101.5z"/>
			<path class="st10" d="M413.4,114.6H365c-1.8,0-3.2,1.4-3.2,3.2c0,1.8,1.4,3.2,3.2,3.2h48.4c1.8,0,3.2-1.4,3.2-3.2
				C416.6,116,415.1,114.6,413.4,114.6z"/>
		</g>
		<linearGradient id="SVGID_11_" gradientUnits="userSpaceOnUse" x1="287.4645" y1="90.8461" x2="314.2029" y2="90.8461">
			<stop  offset="0" style="stop-color:#F16A7E"/>
			<stop  offset="1" style="stop-color:#DD2376"/>
		</linearGradient>
		<path class="st21" d="M287.5,104.2h26.7V77.5C299.4,77.5,287.5,89.4,287.5,104.2z"/>
		<linearGradient id="SVGID_12_" gradientUnits="userSpaceOnUse" x1="287.4645" y1="118.445" x2="340.9403" y2="118.445">
			<stop  offset="0" style="stop-color:#F16A7E"/>
			<stop  offset="1" style="stop-color:#DD2376"/>
		</linearGradient>
		<path class="st22" d="M340.9,105.1h-26.7h0h-26.7c0,14.8,12,26.7,26.7,26.7l0,0l0,0c0,0,0,0,0,0h0
			C329,131.8,340.9,119.8,340.9,105.1z"/>
		<path class="st3" d="M614,146.4H478.1c-8.2,0-15-6.7-15-15V76.8c0-8.2,6.7-15,15-15H614c8.2,0,15,6.7,15,15v54.7
			C629,139.7,622.3,146.4,614,146.4z"/>
		<path class="st12" d="M483.4,104c0.7-38.4,57.8-38.4,58.4,0C541.2,142.4,484.1,142.4,483.4,104z"/>
		<g>
			<path class="st10" d="M563.4,94h48.4c1.8,0,3.2-1.4,3.2-3.2c0-1.8-1.4-3.2-3.2-3.2h-48.4C559.3,87.6,559.3,94.1,563.4,94z"/>
			<path class="st10" d="M611.8,100.8h-48.4c-1.8,0-3.2,1.4-3.2,3.2c0,1.8,1.4,3.2,3.2,3.2h48.4
				C615.9,107.2,615.9,100.7,611.8,100.8z"/>
			<path class="st10" d="M611.8,113.9h-48.4c-1.8,0-3.2,1.4-3.2,3.2l0,0c0,1.8,1.4,3.2,3.2,3.2h48.4c1.8,0,3.2-1.4,3.2-3.2l0,0
				C615,115.4,613.6,113.9,611.8,113.9z"/>
		</g>
		<linearGradient id="SVGID_13_" gradientUnits="userSpaceOnUse" x1="485.8613" y1="117.6613" x2="526.9659" y2="117.6613">
			<stop  offset="0" style="stop-color:#F16A7E"/>
			<stop  offset="1" style="stop-color:#DD2376"/>
		</linearGradient>
		<path class="st23" d="M512.6,104.5l-26.7-0.3C485,124.9,510,138.5,527,127L512.6,104.5z"/>
		
			<ellipse transform="matrix(0.9523 -0.3052 0.3052 0.9523 -26.8663 38.1697)" class="st12" cx="108.7" cy="105" rx="29.2" ry="29.2"/>
		<linearGradient id="SVGID_14_" gradientUnits="userSpaceOnUse" x1="81.9196" y1="103.4291" x2="135.3935" y2="103.4291">
			<stop  offset="0" style="stop-color:#F16A7E"/>
			<stop  offset="1" style="stop-color:#DD2376"/>
		</linearGradient>
		<path class="st24" d="M108.7,78.3c-14.8,0-26.7,12-26.7,26.7c0,10.1,5.6,18.9,13.9,23.5c4.3-7.9,12.8-23.5,12.8-23.5l12.7,23.6
			c8.4-4.5,14.1-13.4,14.1-23.6C135.4,90.3,123.4,78.3,108.7,78.3z"/>
		<g>
			<path class="st10" d="M207.8,88.7h-48.4c-1.8,0-3.2,1.4-3.2,3.2v0c0,1.8,1.4,3.2,3.2,3.2h48.4c1.8,0,3.2-1.4,3.2-3.2v0
				C211,90.1,209.6,88.7,207.8,88.7z"/>
			<path class="st10" d="M207.8,101.8h-48.4c-1.8,0-3.2,1.4-3.2,3.2c0,1.8,1.4,3.2,3.2,3.2h48.4c1.8,0,3.2-1.4,3.2-3.2
				C211,103.3,209.6,101.8,207.8,101.8z"/>
			<path class="st10" d="M207.8,115h-48.4c-1.8,0-3.2,1.4-3.2,3.2c0,1.8,1.4,3.2,3.2,3.2h48.4c1.8,0,3.2-1.4,3.2-3.2
				C211,116.4,209.6,115,207.8,115z"/>
		</g>
		<g>
			<g>
				<path class="st25" d="M990.9,190.1c-0.8,0.9-1.9,2.1-3.6,2.4c-1,0.2-1.9,0-2.4-0.2l-3.4-1.1c-3.6-0.2-5.8-1.3-7.2-2.4
					c-6.3-4.9-6.7-17.7-1-32.8c0.9-2.5,2-5,3.3-7.5c2.4-4.8,4.8-9.5,7.2-14.3l25.1,8c-2.8,3.9-5.6,10.7-8.7,19.2
					c-1.3,3.5-2.1,5.7-2.5,6.9c-1.9,5.8-3,10.7-3.6,14.3C993.7,184.3,993.2,187.4,990.9,190.1z"/>
				<path class="st3" d="M1026.3,270.9c-1-0.7-1.8-1.4-2.3-2.1c-4-5.2-0.8-12.9-0.4-13.8c2.6-3.3,5.2-6.5,7.8-9.8
					c0.9,1.1,2.1,2.7,3.1,4.8c1.9,3.9,2.1,7.3,2.2,9.3c0.3,4.3,0.5,8.2-2,10.7c-0.4,0.3-1.8,1.7-4,1.9
					C1028.4,272.1,1026.8,271.2,1026.3,270.9z"/>
				<path class="st26" d="M1024.1,255.2c-8.5-5.8-21.6-16-33.5-32.2c-2.9-4-30.3-41.2-19.4-55.3c5.5-7,20.2-8,24.4-2.7
					c2,2.5-0.4,5.4-0.4,12.5c0.1,6.7,2.1,11.5,4.3,16.7c7.6,17.7,27.5,43.3,33.4,52.6c0.4,0.7,1.3,2.1,0.9,3.7
					C1033,253.5,1028,254.7,1024.1,255.2z"/>
				<path class="st27" d="M1001.2,158.2c-7.4,3.3-19.4,1.7-27.3-4.6c0.9-2.5,2-5,3.3-7.5c2.4-4.8,4.8-9.5,7.2-14.3l25.1,8
					C1006.7,143.7,1004.3,149.8,1001.2,158.2z"/>
				<path class="st10" d="M1016.6,101.8c-15.7-0.7-28,17.3-30.8,21.4c-0.8,1.1-4,6-5.9,12.8c-1.2,4.5-0.9,6.6-0.8,7.4
					c0.8,4.3,3.6,6.8,4.8,7.8c0.9,0.8,4.8,3.9,10.8,3.9c5.7,0,10.1-2.7,12.5-4.3c13.9-9,29.2-32.8,21.8-43.6
					C1025.6,102.2,1018.5,101.9,1016.6,101.8z"/>
			</g>
			<g>
				<path class="st11" d="M975,259.7c0.8,25.1,7.5,41.3,14.5,64.6c3.1,10.3,7,24.1,10.7,41c2.2,10,15.7,12,20.7,3c0,0,0,0,0,0
					c0,0,0,0,0-0.1c4.2-7.7,6-16.5,5.2-25.2c-3.3-36.3-6.7-72.6-10-108.8c-0.3-3.4-2.4-6.3-5.5-7.6c-7.3-3.2-20.7-7.3-29.1,0.7
					C980,228.7,974.2,234.7,975,259.7z"/>
				<path class="st11" d="M1019.9,481.5l12.1,0c-3.5-18.9-6.3-40.5-7.6-64.4c-1.2-21.7-0.8-41.7,0.3-59.5c0.3-4.3-0.7-8.5-3-12.1
					c-1.9-3-4.5-5.2-7.5-5.8c-3.5-0.8-6.8,0.7-13.5,3.7c-2.1,1-3.9,1.9-5,2.5c-1.4,14.4-1.8,31.5,0.2,50.7
					C999.7,432.7,1010.5,461.7,1019.9,481.5z"/>
				<polygon class="st28" points="1019.6,490.3 1040,486.9 1030.1,476.7 1018.5,478.7 				"/>
				<linearGradient id="SVGID_15_" gradientUnits="userSpaceOnUse" x1="1016.1534" y1="491.119" x2="1056.8086" y2="491.119">
					<stop  offset="0" style="stop-color:#3A77BC"/>
					<stop  offset="1" style="stop-color:#2B4057"/>
				</linearGradient>
				<path class="st29" d="M1020.2,498.9c1.4,0.1,3.4,0.1,5.8-0.3c4.3-0.7,4.6-1.9,8.2-2.7c5.6-1.3,8.9,0.7,14.4-0.6
					c1.8-0.4,3.6-1.1,3.6-1.1c0.7-0.2,1.5-0.5,2.4-1.1c0.6-0.3,1-0.7,1.5-1c1.2-1,1-3.1-0.4-3.8c-0.5-0.3-1.1-0.5-1.7-0.8
					c-3.7-1.5-7-1.6-9.2-1.5c-2-1.5-5-3.1-8.2-2.6c-2.2,0.3-3.4,1.4-5.1,2.4c-2.5,1.4-6.4,2.6-12.5,1.6c-2.5,2.2-3.4,5.6-2.3,8.2
					C1017.6,497.8,1019.7,498.7,1020.2,498.9z"/>
			</g>
			<g>
				<path class="st11" d="M946,255.1c-7.1,24.1-6,41.6-6.6,65.9c-0.3,10.7-1,25.1-2.7,42.3c-1,10.2,11.1,16.3,18.7,9.4c0,0,0,0,0,0
					c0,0,0,0,0.1-0.1c6.4-6,10.9-13.8,12.9-22.3c8.3-35.5,16.5-71,24.8-106.5c0.8-3.3-0.3-6.7-2.8-9c-5.9-5.3-17.4-13.4-27.8-8.5
					C960.5,227.2,953.1,231.1,946,255.1z"/>
				<path class="st11" d="M918.7,479.7l11.4,3.8c2.7-19,6.8-40.4,13.1-63.6c5.8-21,12.4-39.8,19.1-56.4c1.6-4,2-8.3,0.9-12.5
					c-0.9-3.5-2.6-6.3-5.3-7.9c-3.1-1.9-6.7-1.5-13.9-0.8c-2.3,0.2-4.3,0.5-5.5,0.8c-5.8,13.2-11.6,29.4-15.8,48.2
					C914.8,427,916,458,918.7,479.7z"/>
				<polygon class="st28" points="915.6,487.9 936,491.1 929.8,478.4 918.2,476.6 				"/>
				<linearGradient id="SVGID_16_" gradientUnits="userSpaceOnUse" x1="911.1121" y1="493.3926" x2="951.0492" y2="493.3926">
					<stop  offset="0" style="stop-color:#3A77BC"/>
					<stop  offset="1" style="stop-color:#2B4057"/>
				</linearGradient>
				<path class="st30" d="M913.4,496.3c1.3,0.5,3.2,1.1,5.6,1.5c4.4,0.7,5-0.4,8.6,0c5.8,0.5,8.2,3.5,13.9,4
					c1.9,0.2,3.7,0.1,3.7,0.1c0.7,0,1.6,0,2.6-0.3c0.6-0.1,1.2-0.3,1.7-0.5c1.5-0.6,1.9-2.6,0.8-3.7c-0.4-0.4-0.9-0.9-1.4-1.3
					c-3-2.6-6.1-3.7-8.2-4.3c-1.5-2-3.7-4.5-7-5.1c-2.2-0.4-3.6,0.3-5.6,0.6c-2.8,0.5-6.9,0.4-12.4-2.4c-3.1,1.3-5,4.2-4.7,7.1
					C911.3,494.5,913,496,913.4,496.3z"/>
			</g>
			<path class="st9" d="M947.1,241.3c9.2,2.2,22.7,4.2,38.9,2.9c14.4-1.1,26.1-4.6,34.5-7.7c-5.8-25.1-9.6-44.8-11.4-56.1
				c-0.5-3.1-1.3-8.9,0.4-15.8c1.7-7,5.2-11.4,6.6-13.6c8-11.8,11.2-36.5-0.4-50.2c-12.6-15-38-11.4-41.2-10.6
				c-2.7,0.7-8.6,2.8-11.1,3.2c-2.8,0.7-14.8,4.8-20.6,18c-2.2,5.1-4.2,10-5.6,15.7c-0.6,2.3-1.6,6.7-2.3,12.8
				c-1.8,15.8,1,40.2,7.1,63.7c1.1,4.3,3,10.9,4.2,20.4C946.9,231.6,947.1,237.7,947.1,241.3z"/>
			<g>
				<linearGradient id="SVGID_17_" gradientUnits="userSpaceOnUse" x1="993.9479" y1="151.7872" x2="1010.7402" y2="151.7872">
					<stop  offset="0" style="stop-color:#3A77BC"/>
					<stop  offset="1" style="stop-color:#2B4057"/>
				</linearGradient>
				<polygon class="st31" points="1010.7,189 996.9,190.5 993.9,113.3 996.4,113.1 				"/>
				<polygon class="st32" points="1004.8,196.6 1004.4,196.7 996.9,190.5 1010.7,189 				"/>
				<linearGradient id="SVGID_18_" gradientUnits="userSpaceOnUse" x1="990.5101" y1="111.2324" x2="999.6364" y2="111.2324">
					<stop  offset="0" style="stop-color:#3A77BC"/>
					<stop  offset="1" style="stop-color:#2B4057"/>
				</linearGradient>
				<path class="st33" d="M998,115.5l-4.8,0.5c-1,0.1-1.9-0.6-2.1-1.6l-0.6-5.3c-0.1-1,0.6-1.9,1.6-2.1l4.8-0.5
					c1-0.1,1.9,0.6,2.1,1.6l0.6,5.3C999.7,114.4,999,115.3,998,115.5z"/>
			</g>
			<path class="st0" d="M1004.7,106.7c-3.1-1.1-6.9-2.8-11-5.5c-5.4-3.6-9.1-7.6-11.4-10.6c3.1-3.9,6.1-7.8,9.2-11.7
				c5.4,4,10.8,8.1,16.1,12.1C1006.6,96.2,1005.6,101.5,1004.7,106.7z"/>
			<path class="st26" d="M967.3,97.2c11.1,10.6,31.4,10.1,32.3,8.5c-0.3-0.3-0.9-11-0.9-19.5c0-4.7,0.1-8.8,0.4-10.1
				c-6.3-5.5-12.7-10.9-19-16.4c0.4,3.7,0.9,11-1.4,19.1c-0.9,3.2-2.3,6.6-4.4,10C972,92.2,969.5,95,967.3,97.2z"/>
			<ellipse class="st34" cx="986.6" cy="51" rx="13.8" ry="17.9"/>
			<path class="st34" d="M983.3,51.8h9.7c11.2,0,20.3-9.1,20.3-20.3v-0.8c0-3-2.4-5.4-5.4-5.4H993c-10,0-22.3,13.3-18.8,24.4l0,0
				C974.2,54.3,978.7,51.8,983.3,51.8z"/>
			<path class="st26" d="M997.6,81.8h1.7c4.6,0,8.4-1,8.4-5.6c0-1.6,0.9-10.9,1.4-12.6c0.5-1.8,3.2-20.9-4.2-20.9
				c-0.7,0-0.5,2.3-2.1,2.8c-2.1,0.7-6.3-0.1-8.3-1.3l-0.3-0.2c-2.5-1.5-5.5-2.2-8.4-1.8c-3.7,0.5-5.9,5.7-6.1,12.5
				c0,0.4,0,0.8-0.1,1.2l-1.1,5.9c-0.1,0.5-0.2,1-0.1,1.5C978.8,73.5,987.3,81.8,997.6,81.8z"/>
			<path class="st3" d="M980.3,50.5c0,1.7,0.9,3,1.9,3s1.9-1.3,1.9-3c0-1.7-0.9-3-1.9-3S980.3,48.9,980.3,50.5z"/>
			<path class="st0" d="M986.7,109.6c-3.1-1.1-6.9-2.8-11-5.5c-5.4-3.6-9.1-7.6-11.4-10.6c3.1-3.9,6.1-7.8,9.2-11.7
				c5.4,4,10.8,8.1,16.1,12.1C988.6,99.1,987.7,104.4,986.7,109.6z"/>
			<g>
				<path class="st26" d="M1082,200.7c-1.2,0.5-2.2,0.6-3.1,0.7c-6.6,0.3-11-6.8-11.5-7.6c-1.2-4-2.4-8-3.6-12
					c1.4-0.1,3.4-0.2,5.7,0.2c4.3,0.7,7.2,2.4,8.9,3.5c3.7,2.3,7,4.3,7.6,7.8c0.1,0.5,0.4,2.4-0.7,4.4
					C1084.3,199.6,1082.6,200.4,1082,200.7z"/>
				<path class="st26" d="M1069.7,182.8c-1-1.2-2.8-1.3-3.5-1.4c-11-0.5-43.4,1.1-62.3-2.9c-5.5-1.2-10.6-2.2-16.1-6.1
					c-0.3-0.2-0.6-0.4-0.8-0.6c-1.7-1.9-3.5-4.1-5.4-6.7c-0.7-1-2.1-2.9-4.2-6c-5.1-7.4-9.1-13.7-10.7-18.2l-21,15.9
					c2.5,4.7,5,9.4,7.6,14.1c1.4,2.5,2.8,4.8,4.3,7c3.3,4.8,6.7,8.8,10.2,11.8c10,13.5,50,12.5,54.6,12.4c20.1-0.5,36-5.3,45.6-9
					C1069.8,189.9,1071.7,185.1,1069.7,182.8z"/>
				<path class="st10" d="M938.1,111.5c-9.6,12.5-2,32.8-0.2,37.5c0.5,1.3,2.6,6.7,7.1,12.1c3,3.6,4.9,4.5,5.6,4.9
					c4,1.9,7.6,0.9,9.2,0.5c1.2-0.3,5.9-1.7,9.4-6.6c3.3-4.6,3.5-9.8,3.7-12.7c0.7-16.6-10-42.7-23.2-42.9
					C943.6,104.3,939.2,109.9,938.1,111.5z"/>
			</g>
		</g>
		<path class="st35" d="M1101.2,8.8H1037c-3.4,0-6.2,2.8-6.2,6.2v40c0,3.4,2.8,6.2,6.2,6.2l-2.1,15.5l21.1-15.5h45.2
			c3.4,0,6.2-2.8,6.2-6.2V15C1107.4,11.5,1104.6,8.8,1101.2,8.8z"/>
		<path class="st36" d="M1098.3,24.6l-0.9-1.6l-4.4,3.9c0,0,0.3,1.8-1.1,3.1c-1.6,1.5-3.4,0.9-3.4,0.9l-8.2,7.3l-6.4-0.8
			c0,0-0.7,0.9-1.6,1.3c-0.9,0.4-1.9,0.1-1.9,0.1l-9.2,10.6c0,0,0,1.8-1.4,2.8c-1.3,1-2.7,1-4,0.2c-1.9-1.1-1.7-3.2-1.7-3.2
			l-10.3-9.3c0,0-0.7,0.3-1.5,0.3c-0.8,0-1.6-0.4-1.6-0.4l-4.2,2.6v-4.1l2.3-1.5c0,0-0.2-1.8,1.2-3c1.6-1.4,3.7-1,4.8,0.2
			c1.2,1.2,1.1,2.8,1.1,2.8L1056,46c0,0,0.8-0.3,1.5-0.3c0.7,0,1.4,0.3,1.4,0.3l8.6-10c0,0-0.3-1.7,0.6-2.8c1-1.3,2.1-1.8,3.8-1.4
			c1.5,0.3,2.2,1.8,2.2,1.8l5.3,0.6l6.7-5.8c0,0-0.6-2.1,1.1-3.6c1.5-1.3,3.7-0.6,3.7-0.6l4.2-3.7l-1.6-1.2l8.5-2.6L1098.3,24.6z
			 M1088.1,25.8c0,0-0.1,0.1-0.1,0.1c0,0-0.1,0.1-0.1,0.1c-0.1,0.1-0.1,0.1-0.2,0.2c-0.1,0.2-0.1,0.2-0.3,0.6c0,0.2,0,0.2-0.1,0.4
			c0,0.2,0,0.2,0,0.5c0,0.3,0,0.3,0.2,0.6c0.2,0.3,0.2,0.3,0.4,0.6c0.2,0.2,0.2,0.2,0.5,0.4c0.2,0.1,0.2,0.1,0.4,0.2
			c0.3,0.1,0.3,0.1,0.6,0.1c0.3,0,0.3,0,0.5,0c0.1,0,0.1,0,0.2,0c0.1,0,0.1,0,0.2,0c0,0,0.1,0,0.1,0c0.9-0.3,1.5-1.2,1.5-2.1
			c0-0.5-0.1-1-0.5-1.4c-0.4-0.5-0.9-0.7-1.5-0.8C1089.1,25.2,1088.6,25.4,1088.1,25.8z M1070.6,33c0,0-0.1,0-0.1,0
			c-0.5,0.1-0.9,0.3-1.3,0.7c-0.8,0.9-0.6,2.3,0.3,3c0,0,0,0,0,0c0,0,0.1,0,0.1,0.1c0.1,0.1,0.1,0.1,0.2,0.2c0.3,0.2,0.6,0.3,1,0.3
			c0.9,0.1,1.7-0.4,2.1-1.2c0.2-0.4,0.2-0.7,0.2-1c0-0.1,0-0.2,0-0.3c0,0,0-0.1,0-0.1c0,0,0,0,0,0c-0.2-1-1-1.7-2-1.8
			C1070.9,33,1070.8,33,1070.6,33z M1040,36.3C1040,36.4,1040,36.4,1040,36.3c-0.1,1.3,0.8,2.3,2,2.4c1.2,0.1,2.2-0.8,2.3-2
			c0,0,0-0.1,0-0.1c0.1-1.2-0.8-2.2-2-2.3C1041.1,34.3,1040.1,35.2,1040,36.3z M1055.5,48.6c0,0,0,0.1,0,0.1
			c-0.4,1.1,0.2,2.3,1.4,2.7c1.1,0.4,2.3-0.2,2.7-1.4c0,0,0-0.1,0-0.1c0.4-1.1-0.2-2.3-1.4-2.7c-0.3-0.1-0.6-0.1-0.8-0.1
			C1056.5,47.2,1055.8,47.7,1055.5,48.6z"/>
		<g>
			<g>
				<g>
					<path class="st26" d="M1073.4,202.5c-2.4-0.1-5.1-1.3-5.7-3.7c-0.5-2,0.6-4,1.8-5.6c2-2.8,4.4-5.5,7.5-7.1
						c3.5-1.8,7.5-1.9,11.4-2.1c3.6-0.1,7.7-0.1,10,2.7c5.9,7-4.3,7.8-8.1,9.3C1084.7,198.2,1079.8,202.8,1073.4,202.5z"/>
					<linearGradient id="SVGID_19_" gradientUnits="userSpaceOnUse" x1="1168.8037" y1="179.9573" x2="1079.4703" y2="190.6239">
						<stop  offset="0" style="stop-color:#3A77BC"/>
						<stop  offset="1" style="stop-color:#2B4057"/>
					</linearGradient>
					<path class="st37" d="M1086.9,198c11.9,3.8,30.2,8.3,52.6,8c19.5-0.3,52.3-0.7,61.7-19.4c6.4-12.8,0.8-31.9-6.5-33.7
						c-5.3-1.3-8.7,7.2-18,15.2c-22.7,19.5-88.5,15.5-88.5,15.5l0,0C1088.2,183.5,1085.1,190.3,1086.9,198z"/>
					<linearGradient id="SVGID_20_" gradientUnits="userSpaceOnUse" x1="1176.6492" y1="179.6626" x2="1206.427" y2="75.2182">
						<stop  offset="0" style="stop-color:#3A77BC"/>
						<stop  offset="1" style="stop-color:#2B4057"/>
					</linearGradient>
					<path class="st38" d="M1177.1,192.2c-2.5-7.3-7.6-8.5-7-21.7c7.9-16.8,4.6-97.5,31.5-82.7C1209,92,1201.9,199.7,1177.1,192.2z"
						/>
				</g>
				<g>
					<path class="st10" d="M1225.5,226.8c1.9,27.5-3.4,46-8.4,72.2c-2.9,15.1-6.5,37-8.9,64.3c-2.6-0.4-12.6-2.2-20.4-12.7
						c-6.7-9-8.2-8.9-8.4-12.3l4.8-138.8c1.2-0.9,16.5-18.2,30.5-7.5C1216.5,193.4,1223.5,199.3,1225.5,226.8z"/>
					<path class="st10" d="M1186.1,473.2l-13.2,0.2c3.6-20.8,6.4-44.5,7.5-70.9c1-23.9,0.3-45.8-1.2-65.3c-0.4-4.7,0.7-9.4,3.2-13.3
						c2.1-3.3,4.9-5.7,8.2-6.5c4.3-1,8.6,2.5,14.8,3.8c2.3,0.5,4-0.4,7.3,3.5c0.4,15.7,1.1,35.6-1.3,54.8
						C1206.5,417.7,1196.2,449.3,1186.1,473.2z"/>
					<polygon class="st10" points="1186.6,482.9 1164.2,479.4 1174.9,468.1 1187.7,470.1 					"/>
					
						<linearGradient id="SVGID_21_" gradientUnits="userSpaceOnUse" x1="1116.3734" y1="494.4142" x2="1169.4585" y2="494.4142" gradientTransform="matrix(0.9992 -3.966410e-02 3.966410e-02 0.9992 0.6117 37.4709)">
						<stop  offset="0" style="stop-color:#3A77BC"/>
						<stop  offset="1" style="stop-color:#2B4057"/>
					</linearGradient>
					<path class="st39" d="M1137.8,495.5c18.1,0.3,24.7-0.9,26.9-2.3c0.2-0.1,2-1.3,4.5-1.9c2.5-0.6,4-0.2,4.5-0.1
						c1.6,0.5,2.6,1.4,3.1,1.7c1.7,1.3,4.7,2.4,10.6,1.6c0.6-1.8,1.4-4.9,1.3-8.9c0-1.9-0.3-5.2-1.7-8.8c-3.6-0.8-10.3-1.8-18.1,0.3
						c-8,2.2-13.5,6.5-16.4,9.1l-15.7,5.2C1135.3,492.8,1136,495.6,1137.8,495.5z"/>
				</g>
				<g>
					<path class="st10" d="M1242.5,230.4c5.4,27,2.5,46.1,0.9,72.7c-0.9,15.4-1.7,37.6-0.6,64.9c-2.6,0-12.8-0.6-21.9-10
						c-7.8-8.1-9.3-7.8-9.9-11.1l-19.7-139c1.1-1,20.8-19.4,36-10.6C1229.3,198.4,1237,203.4,1242.5,230.4z"/>
					<path class="st10" d="M1233.6,480l-13.1,1.9c0.9-21.1,0.7-45-1.6-71.2c-2.1-23.8-5.5-45.5-9.5-64.6c-1-4.6-0.5-9.4,1.4-13.6
						c1.6-3.6,4.1-6.3,7.3-7.5c4.1-1.5,8.8,1.4,15.2,1.9c2.3,0.2,4.2-0.1,7.9,3.4c2.4,15.5,5.4,34.3,5.5,53.7
						C1246.8,422.3,1240.6,455,1233.6,480z"/>
					<polygon class="st10" points="1235.4,489.6 1212.7,489 1221.9,476.4 1234.8,476.7 					"/>
					
						<linearGradient id="SVGID_22_" gradientUnits="userSpaceOnUse" x1="1146.7806" y1="508.3246" x2="1199.8657" y2="508.3246" gradientTransform="matrix(0.998 -6.280728e-02 6.280728e-02 0.998 8.0229 61.3442)">
						<stop  offset="0" style="stop-color:#3A77BC"/>
						<stop  offset="1" style="stop-color:#2B4057"/>
					</linearGradient>
					<path class="st40" d="M1186.8,504.9c18.1-0.1,24.7-1.5,26.9-2.9c0.2-0.1,1.9-1.3,4.5-2c2.5-0.7,4-0.3,4.5-0.2
						c1.6,0.4,2.7,1.3,3.1,1.6c1.7,1.3,4.7,2.3,10.7,1.3c0.6-1.8,1.3-4.9,1.1-8.9c-0.1-1.9-0.4-5.2-1.9-8.8
						c-3.7-0.8-10.3-1.6-18.1,0.8c-7.9,2.4-13.4,6.8-16.2,9.5l-15.6,5.6C1184.1,502.2,1184.9,505,1186.8,504.9z"/>
				</g>
				<linearGradient id="SVGID_23_" gradientUnits="userSpaceOnUse" x1="1171.174" y1="168.5043" x2="1251.3031" y2="168.5043">
					<stop  offset="0" style="stop-color:#3A77BC"/>
					<stop  offset="1" style="stop-color:#2B4057"/>
				</linearGradient>
				<path class="st41" d="M1247.2,177.7c-10.5,37.8-2.4,54.2-0.8,63.6c1.3,7.5-1.8,7.2-22.2,13c-29.8,3.1-47.1,6-53-2
					c4.5-17.5,13.4-48.8,12.3-58c-4.6-36.6-4.2-59.6,0.9-87.9c4.9-33.8,42.7-29.2,61.9-20.4c8.2,11.9,3.5,20.9,4.5,37.3
					C1251.9,133.7,1251.7,141.9,1247.2,177.7z"/>
				<path class="st0" d="M1225.9,81.3c-3.7,4.9-7.7,9.9-12,15c-5.4,6.4-9.7,13-14.9,18.4c-0.2-10.2-1.6-21-1.9-31.2
					c2.4-1.3,5.8-2.8,10.1-3.6C1215.5,78.2,1222.4,80,1225.9,81.3z"/>
				<g>
					<path class="st26" d="M1199.7,56c1.3,4.1,4,10.6,5,16c0.2,1,0.3,2,0.5,3c0.7,4.7-1.9,8.7-5.7,11.8c0.8,0.5,7.5,4.7,15.3,2
						c6-2.1,8.8-6.8,9.5-8.1c-2-2.3-3.7-3.9-4.4-8.7c-1.2-7.5-0.7-13.8-1-17.7c-0.8,0.1-6.9,0.8-7.7,0.8
						C1205.5,55.6,1205.3,55.5,1199.7,56z"/>
					<path class="st26" d="M1192,57.1c2.9,2.8,2,7.9,4.7,10.9c2.5,2.8,6.9,2.6,10.5,1.6c5.1-1.4,10.2-4,12.8-8.7
						c1.8-3.2,2.1-7,2.3-10.7c0.3-6.2,0.1-13-4-17.7c-3.6-4.1-9.5-5.6-14.9-4.9c-6.2,0.7-12.7,4.9-13.1,11.6
						c-0.1,2.5,0.5,4.9,0.3,7.4C1190.2,51.4,1188.3,53.5,1192,57.1z"/>
					<linearGradient id="SVGID_24_" gradientUnits="userSpaceOnUse" x1="1187.8491" y1="42.7642" x2="1233.2252" y2="42.7642">
						<stop  offset="0" style="stop-color:#3A77BC"/>
						<stop  offset="1" style="stop-color:#2B4057"/>
					</linearGradient>
					<path class="st42" d="M1220.2,69c1.7-0.9,3.7-1.8,5.8-2.6c1.1-0.4,2.2-0.8,3.2-1.1c-1-1.5-2.5-3.9-2.7-7.1
						c-0.4-5,3-7.7,5.1-14.6c1.1-3.7,1.4-6.9,1.5-9.2c0.7-6.5-1.6-12.7-6.3-15.8c-4.5-3-9.8-2.1-11.2-1.9c-5,0.8-6.5,3.3-11,5.1
						c-3.4,1.3-8.7,2.2-16.6-0.2c-0.3,2.4-0.5,8.6,3.4,13.7c4,5.2,11.2,7.7,17.2,7.3c4.5-0.3,7.5-2.4,9.6-0.6c1.4,1.2,1.7,3.7,1,5.5
						c-0.9,2.3-3,2.5-4.2,3.8C1213.4,53.3,1213.5,57.9,1220.2,69z"/>
				</g>
				<linearGradient id="SVGID_25_" gradientUnits="userSpaceOnUse" x1="1191.0088" y1="99.4325" x2="1198.8735" y2="99.4325">
					<stop  offset="0" style="stop-color:#3A77BC"/>
					<stop  offset="1" style="stop-color:#2B4057"/>
				</linearGradient>
				<path class="st43" d="M1198.1,84.2c-1.8,1.3-3.3,2.8-4.7,4.5c-1,1.3-2,2.7-2.3,4.4c-0.3,1.6,0.1,3.5,1.3,4.6
					c0.2,0.2,0.5,0.4,0.7,0.6c0.7,0.9,0,2.2-0.5,3.2c-1,2.4-0.2,5.3,1.2,7.4c1.4,2.2,2.9,4.1,5,5.7L1198.1,84.2z"/>
				<g>
					<path class="st44" d="M1198.9,115c-0.9,18.4,1.6,36.7,1,55.1c-0.6,17.9-4.8,35.5-6.8,53.2c-1.1,9.9-1.4,19.9-0.1,29.9
						c0.1,0.8,1.4,0.8,1.3,0c-2.7-20.5,1.1-38.2,3.5-53.2c2-12.6,2.9-21.4,3.2-26.2c0.6-9.2,0.2-18.3-0.2-27.5
						c-0.5-10.4-1.1-20.9-0.6-31.3C1200.2,114.2,1198.9,114.2,1198.9,115L1198.9,115z"/>
				</g>
				<path class="st44" d="M1251.2,181.6l-21.3-52.7c-6-14.8-0.8-30.8,11.5-35.8c0.2-0.1,0.5-0.2,0.7-0.2c4.6,4.4,7,9.2,8.2,12
					c1.5,5.5,3.2,13.2,4.3,22.4C1255.9,137.6,1255.8,145.9,1251.2,181.6z"/>
				<g>
					<path class="st3" d="M1247.8,297.1c-3.5-4.5-3.8-10.3-3.9-11.4c-0.2-4.5,1-8,1.6-9.5c2.9,0.7,5.8,1.4,8.7,2.1
						c0,1.6-0.1,4.2,0.1,7.5c0.5,9.9,2.2,14,0.8,15.5C1253.7,302.8,1249.8,299.7,1247.8,297.1z"/>
					<linearGradient id="SVGID_26_" gradientUnits="userSpaceOnUse" x1="1250.3182" y1="191.9955" x2="1248.0961" y2="275.551">
						<stop  offset="0" style="stop-color:#3A77BC"/>
						<stop  offset="1" style="stop-color:#2B4057"/>
					</linearGradient>
					<path class="st45" d="M1254.4,280.6c5.2-10.9,6.9-29.1,8.1-51.6c0.3-5.7,5.8-58.5-7.7-67.9c-5-3.5-13.1-1.2-16.1,4.5
						c-2.7,5.1-1.1,12-0.3,16.6c5.7,33.2,8.1,81.8,5.8,94.1c-0.3,1.5,0.5,2.9,1.6,3.1C1248.6,279.8,1251.5,280.2,1254.4,280.6z"/>
					<linearGradient id="SVGID_27_" gradientUnits="userSpaceOnUse" x1="1246.557" y1="184.2994" x2="1240.7792" y2="71.855">
						<stop  offset="0" style="stop-color:#3A77BC"/>
						<stop  offset="1" style="stop-color:#2B4057"/>
					</linearGradient>
					<path class="st46" d="M1251.4,191.2l-6.5-1.7c-3.8-1-7-5.6-7.9-11.5l-9.4-59.3c-2.5-15.4,3.4-30.5,13.1-33.7v0
						c4.3-1.4,8.7,2.5,10.4,9c3.3,13.2,6.6,29.4,8.6,48.2c1.4,12.8,2,24.6,2.1,35C1261.9,186,1257,192.6,1251.4,191.2z"/>
				</g>
				<linearGradient id="SVGID_28_" gradientUnits="userSpaceOnUse" x1="1198.8735" y1="97.8942" x2="1234.5017" y2="97.8942">
					<stop  offset="0" style="stop-color:#3A77BC"/>
					<stop  offset="1" style="stop-color:#2B4057"/>
				</linearGradient>
				<path class="st47" d="M1198.9,114.6c5.1-0.7,10.3-1.3,15.4-2c1.9-0.2,3.9-0.5,5.6-1.4c1.7-0.9,3.1-2.7,3.1-4.6
					c0-1.5-0.9-2.9-0.6-4.4c0.3-1.6,1.9-2.7,3.5-3.2c1.6-0.5,3.3-0.6,4.8-1.2c3-1.4,4.7-5.3,3.6-8.4c-0.4-1.2-1.1-2.2-1.9-3.2
					c-1.5-1.9-3.2-3.5-5.1-5L1198.9,114.6z"/>
			</g>
		</g>
	</g>
</g>
</svg>
